<svg width="32" height="32" viewBox="0 0 32 32" fill="none" xmlns="http://www.w3.org/2000/svg">
    <g clip-path="url(#amd09in2wa)">
        <path fill="#000" fill-opacity=".01" d="M0 0h32v32H0z"/>
        <path fill-rule="evenodd" clip-rule="evenodd" d="M15.5 1A1.5 1.5 0 0 1 17 2.5v1.582a13.42 13.42 0 0 1 5.982 2.18l-.004-.004.085.058.816-.816-.44-.44a1.5 1.5 0 0 1 2.122-2.12l3 3a1.5 1.5 0 0 1-2.122 2.12L26 7.622l-.648.649a13.457 13.457 0 0 1 3.492 7.173c.13.845-.563 1.557-1.417 1.557-.805 0-1.457-.637-1.604-1.429C24.918 10.694 20.64 7 15.5 7 9.701 7 5 11.701 5 17.5c0 4.832 3.264 8.901 7.707 10.124.73.202 1.293.833 1.293 1.591 0 .909-.793 1.622-1.676 1.41C6.4 29.194 2 23.861 2 17.5c0-3.57 1.386-6.816 3.648-9.23L5 7.62l-.44.44a1.5 1.5 0 0 1-2.12-2.122l3-3a1.5 1.5 0 0 1 2.12 2.122l-.439.439.816.816A13.422 13.422 0 0 1 14 4.082V2.5A1.5 1.5 0 0 1 15.5 1zM20 29.5a1.5 1.5 0 1 1-3 0 1.5 1.5 0 0 1 3 0zm4.5-.5a1.5 1.5 0 1 0 0-3 1.5 1.5 0 0 0 0 3zm4.5-6.5a1.5 1.5 0 1 1-3 0 1.5 1.5 0 0 1 3 0zM6.382 14.91 7.883 20h1.322l.865-2.844h.04L10.975 20h1.323l1.501-5.09h-1.541l-.696 3.141h-.04l-.825-3.142H9.484l-.825 3.132h-.04l-.696-3.132H6.382zm7.1 5.09h1.492l.294-.974h1.68l.293.974h1.492l-1.68-5.09h-1.89L13.483 20zm3.153-2.009-.507-1.68h-.04l-.507 1.68h1.054zM20.605 20v-5.09h-1.382V20h1.382zm.516-5.09v1.113h1.531V20h1.363v-3.977h1.53v-1.114h-4.424z" fill="#C72AE9"/>
    </g>
    <defs>
        <clipPath id="amd09in2wa">
            <path fill="#fff" d="M0 0h32v32H0z"/>
        </clipPath>
    </defs>
</svg>
