<svg width="32" height="32" viewBox="0 0 32 32" fill="none" xmlns="http://www.w3.org/2000/svg">
    <g clip-path="url(#5cxrhtv8ea)">
        <path fill="#000" fill-opacity=".01" d="M0 0h32v32H0z"/>
        <path d="M25.385 6.609a1.655 1.655 0 0 1-.048.034c-.11.088-.235.163-.372.22L21.15 8.429a1.5 1.5 0 0 1-1.14-2.775l1.17-.48A11.998 11.998 0 0 0 8.886 6.337c-4.428 3.26-5.968 8.984-4.121 13.888.262.697.08 1.505-.52 1.947-.744.547-1.805.315-2.152-.54-2.518-6.205-.626-13.558 5.014-17.71 5.64-4.153 13.223-3.775 18.4.472.713.585.62 1.668-.123 2.215zM6.617 25.393l.048-.033c.11-.09.235-.164.373-.22l3.814-1.567a1.5 1.5 0 1 1 1.14 2.775l-1.17.48a11.998 11.998 0 0 0 12.294-1.163c4.427-3.26 5.967-8.984 4.12-13.887-.262-.698-.08-1.506.52-1.948.744-.547 1.805-.315 2.152.54 2.518 6.206.626 13.558-5.014 17.71-5.64 4.153-13.222 3.775-18.4-.472-.713-.585-.62-1.668.123-2.215z" fill="#B3B9C4"/>
        <path d="M10.954 13.91V19H9.801l-1.84-2.675h-.03V19H6.55v-5.09h1.174l1.81 2.664h.039v-2.665h1.382zm.654 5.09v-5.09h3.669v1.113H12.99v.875h2.098v1.113H12.99v.875h2.277V19h-3.66zm5.836-5.09.835 1.48h.04l.845-1.48h1.541l-1.521 2.544L20.765 19h-1.581l-.865-1.511h-.04L17.414 19h-1.57l1.56-2.546-1.511-2.545h1.55zm3.718 1.113v-1.114h4.425v1.114h-1.532V19h-1.362v-3.977h-1.53z" fill="#B3B9C4"/>
    </g>
    <defs>
        <clipPath id="5cxrhtv8ea">
            <path fill="#fff" d="M0 0h32v32H0z"/>
        </clipPath>
    </defs>
</svg>
