<svg width="32" height="32" viewBox="0 0 32 32" fill="none" xmlns="http://www.w3.org/2000/svg">
    <g clip-path="url(#wlsx8yub0a)">
        <path fill="#000" fill-opacity=".01" d="M0 0h32v32H0z"/>
        <path fill-rule="evenodd" clip-rule="evenodd" d="M19 2.5a1.5 1.5 0 0 0-3 0v1.582a13.422 13.422 0 0 0-6.063 2.234L9.121 5.5l.44-.44a1.5 1.5 0 0 0-2.122-2.12l-3 3a1.5 1.5 0 0 0 2.122 2.12L7 7.622l.648.649A13.453 13.453 0 0 0 4 17.5H2.5a1.5 1.5 0 0 0 0 3h6a1.5 1.5 0 0 0 0-3H7C7 11.701 11.701 7 17.5 7S28 11.701 28 17.5 23.299 28 17.5 28c-2.192 0-4.223-.67-5.905-1.817a1.5 1.5 0 0 0-1.69 2.48A13.444 13.444 0 0 0 17.5 31C24.956 31 31 24.956 31 17.5c0-3.57-1.386-6.816-3.648-9.23L28 7.62l.44.44a1.5 1.5 0 1 0 2.12-2.122l-3-3a1.5 1.5 0 1 0-2.12 2.122l.439.439-.816.816A13.422 13.422 0 0 0 19 4.082V2.5zm4.06 9.44a1.5 1.5 0 0 1 0 2.12l-2.662 2.663a3 3 0 1 1-2.121-2.121l2.662-2.663a1.5 1.5 0 0 1 2.122 0zM2.5 23.5A1.5 1.5 0 0 1 4 22h9a1.5 1.5 0 1 1 0 3H4a1.5 1.5 0 0 1-1.5-1.5z" fill="#FAD54D"/>
    </g>
    <defs>
        <clipPath id="wlsx8yub0a">
            <path fill="#fff" d="M0 0h32v32H0z"/>
        </clipPath>
    </defs>
</svg>
