<svg width="25" height="24" viewBox="0 0 25 24" fill="none" xmlns="http://www.w3.org/2000/svg">
    <g clip-path="url(#rhv6uvh7qa)">
        <path fill="#000" fill-opacity=".01" d="M.25 0h24v24h-24z"/>
        <path fill-rule="evenodd" clip-rule="evenodd" d="M12.25 2c5.523 0 10 4.477 10 10s-4.477 10-10 10-10-4.477-10-10 4.477-10 10-10zM8.212 9.2c0-.553.193-1.102.494-1.688.747-1.455 2.18-2.262 3.614-2.246 2.017.023 3.967 1.57 3.967 3.652 0 .497-.094 1.05-.278 1.424a3.88 3.88 0 0 1-.662.967c-.254.273-.712.731-1.373 1.375-.185.18-.332.339-.442.476a1.894 1.894 0 0 0-.372.72c-.029.112-.037.585-.03.922.021.808-1.814.894-2.004.174-.058-.217-.053-.5-.053-.768 0-.49.068-.916.21-1.275.14-.36.324-.674.556-.947.232-.272.546-.596.938-.97.344-.326.595-.575.747-.74a2.53 2.53 0 0 0 .389-.557 1.44 1.44 0 0 0 .157-.668c0-1.785-3.048-3.104-3.712.166-.324 1.596-2.146 1.146-2.146-.016zm3.941 9.534c-.328 0-.615-.116-.86-.347-.245-.23-.367-.474-.367-.89 0-.368.133-.577.37-.829.237-.251.527-.377.871-.377.34 0 .626.126.858.377.231.252.333.46.333.829 0 .41-.12.654-.363.887-.243.233-.522.35-.842.35z" fill="#A9A4B4" fill-opacity=".3"/>
        <path fill="#000" fill-opacity=".01" d="M.25 0h24v24h-24z"/>
    </g>
    <defs>
        <clipPath id="rhv6uvh7qa">
            <path fill="#fff" transform="translate(.25)" d="M0 0h24v24H0z"/>
        </clipPath>
    </defs>
</svg>
