<svg width="160" height="160" viewBox="0 0 160 160" fill="none" xmlns="http://www.w3.org/2000/svg">
    <g clip-path="url(#rv4evbqvya)">
        <path fill="#000" fill-opacity=".01" d="M0 0h160v160H0z"/>
        <path d="M148.379 144.914V69.626c0-6.441-3.08-12.547-8.24-16.337l-14.101-10.34V34.56a2.157 2.157 0 0 0-2.159-2.158l-12.251-.002-23.155-16.95c-5.003-3.684-11.75-3.708-16.798-.061L48.451 32.405H36.206a2.16 2.16 0 0 0-2.16 2.16v8.382L19.944 53.29c-5.196 3.816-8.296 9.923-8.296 16.335v75.446c0 .448.169.842.403 1.186l.015.022c.123.177.261.332.432.465.045.036.094.062.14.095.146.096.289.188.456.246.187.072.387.104.594.121.041.002.076.024.119.024h.024c.009 0 .016.004.026.004h132.376c.282 0 .546-.067.796-.167.046-.019.085-.049.129-.07a2.13 2.13 0 0 0 .527-.355c.048-.045.088-.093.131-.141a2.08 2.08 0 0 0 .33-.489c.032-.065.062-.128.087-.196.026-.071.072-.129.091-.202.036-.142.029-.283.036-.424.002-.042.023-.077.023-.118l-.004-.158zM15.965 78.315l49.08 36.071-49.08 27.062V78.315zm6.285 64.6 53.322-29.401a9.3 9.3 0 0 1 9.04.004l53.233 29.398-115.595-.001zm72.857-28.535 48.955-36.019v63.055L95.107 114.38zm42.479-57.608c4.055 2.977 6.476 7.783 6.476 12.854V73L126.039 86.26V48.304l11.547 8.468zm-63.37-37.888a9.908 9.908 0 0 1 11.703.051l18.402 13.47-48.563.002 18.457-13.523zm-35.85 17.842 83.355-.005v52.65c0 .021.012.04.012.06l-30.788 22.651-4.246-2.345a13.607 13.607 0 0 0-13.212-.004l-4.275 2.356-30.858-22.677c0-.015.008-.027.008-.042l.003-52.644zM22.496 56.775l11.55-8.47v37.939L15.967 72.955v-3.328c0-5.044 2.442-9.85 6.531-12.853z" fill="#FAD54D"/>
        <path d="M61.163 68.685c.421.421.974.632 1.526.632s1.105-.21 1.526-.632l9.307-9.307a2.16 2.16 0 0 0-3.053-3.053l-7.78 7.78-3.53-3.53a2.16 2.16 0 0 0-3.053 3.054l5.057 5.056zM84.983 64.66h17.462a2.16 2.16 0 0 0 0-4.32H84.983a2.16 2.16 0 0 0 0 4.32zM84.983 83.462h17.462a2.16 2.16 0 0 0 2.16-2.16 2.16 2.16 0 0 0-2.16-2.16H84.983a2.16 2.16 0 0 0 0 4.32z" fill="#FAD54D"/>
        <path fill="#000" fill-opacity=".01" d="M0 0h160v160H0z"/>
    </g>
    <defs>
        <clipPath id="rv4evbqvya">
            <path fill="#fff" d="M0 0h160v160H0z"/>
        </clipPath>
    </defs>
</svg>
