<svg width="48" height="48" viewBox="0 0 48 48" fill="none" xmlns="http://www.w3.org/2000/svg">
    <g clip-path="url(#ig8vyepnaa)">
        <path fill="#000" fill-opacity=".01" d="M0 0h48v48H0z"/>
        <path clip-rule="evenodd" d="M44 44H3.02V20.599c0-1.58.757-3.07 2.042-4.003l16.316-11.89a3.7 3.7 0 0 1 4.363.01l16.227 11.88A4.968 4.968 0 0 1 44 20.599V44z" stroke="#E4E7F5" stroke-width="2" stroke-linecap="round" stroke-linejoin="round"/>
        <path clip-rule="evenodd" d="M21.637 32.478 3 44h40.98L25.343 32.478a3.51 3.51 0 0 0-3.706 0z" stroke="#E4E7F5" stroke-width="2" stroke-linecap="round" stroke-linejoin="round"/>
        <path clip-rule="evenodd" d="M20.083 33.441 3 22.168V44L20.083 33.44zM26.907 33.441 44 22.168V44L26.907 33.44zM28.6 17.39a3.584 3.584 0 0 0-5.07 0l-.03.03-.03-.03a3.584 3.584 0 0 0-5.07 0 3.56 3.56 0 0 0 0 5.056l3.685 3.675a1.988 1.988 0 0 0 2.81 0l3.685-3.675a3.542 3.542 0 0 0 .02-5.056z" stroke="#E4E7F5" stroke-width="2" stroke-linecap="round" stroke-linejoin="round"/>
        <path d="M48 0H0v48h48V0z" fill="#000" fill-opacity=".01"/>
    </g>
    <defs>
        <clipPath id="ig8vyepnaa">
            <path fill="#fff" d="M0 0h48v48H0z"/>
        </clipPath>
    </defs>
</svg>
