<svg width="14" height="25" viewBox="0 0 14 25" fill="none" xmlns="http://www.w3.org/2000/svg">
    <path fill="#000" fill-opacity=".01" d="M0 .5h14v24H0z"/>
    <path d="m7.045 2.5-.132.456V16.18l.132.134 6.045-3.628L7.045 2.5z" fill="#928E9C"/>
    <path d="M7.045 2.5 1 12.686l6.045 3.628V2.5z" fill="#A9A4B4"/>
    <path d="m7.042 17.477-.074.093v4.71l.074.221 6.049-8.65-6.049 3.626z" fill="#928E9C"/>
    <path d="M7.045 22.501v-5.024L1 13.851l6.045 8.65z" fill="#A9A4B4"/>
    <path d="m7.045 16.313 6.045-3.628-6.045-2.79v6.418z" fill="#7A7682"/>
    <path d="m1 12.685 6.045 3.628V9.894L1 12.684z" fill="#928E9C"/>
    <path fill="#000" fill-opacity=".01" d="M0 .5h14v24H0z"/>
</svg>
