<svg width="160" height="160" viewBox="0 0 160 160" fill="none" xmlns="http://www.w3.org/2000/svg">
    <g clip-path="url(#l9qqhssy9a)">
        <path fill="#000" fill-opacity=".01" d="M0 0h160v160H0z"/>
        <path d="M138.109 68.204h-36.013c-3.447-4.06-7.23-7.542-11.247-10.386a8.141 8.141 0 0 0 1.5-4.702c0-4.098-3.028-7.473-6.958-8.078 7.178-10.29 9.66-21.949 6.557-31.883a2.155 2.155 0 0 0-2.06-1.516h-.815c-4.048 0-6.011 2.907-7.59 5.24-1.443 2.135-2.341 3.344-4.014 3.344s-2.57-1.206-4.013-3.34c-1.578-2.336-3.544-5.244-7.591-5.244-4.03 0-5.987 2.902-7.56 5.235-1.442 2.139-2.339 3.348-4.014 3.348-1.675 0-2.572-1.21-4.014-3.348-1.573-2.332-3.53-5.235-7.561-5.235H41.9c-.947 0-1.783.616-2.063 1.518a30.214 30.214 0 0 0-1.336 8.952c0 7.674 2.786 15.68 7.891 22.925-3.942.595-6.984 3.974-6.984 8.08 0 1.752.562 3.37 1.502 4.704-16.041 11.366-27.627 32.915-27.627 51.565 0 24.056 20.16 38.999 52.614 38.999 8.88 0 16.992-1.161 24.139-3.423 1.528 1.361 3.52 2.214 5.722 2.214h42.354c4.769 0 8.65-3.879 8.65-8.65V76.855c-.001-4.77-3.881-8.65-8.651-8.65l-.002-.001zm-94.591-52.14c1.18.34 1.993 1.468 3.178 3.225 1.577 2.34 3.54 5.25 7.595 5.25 4.054 0 6.017-2.912 7.594-5.25 1.435-2.129 2.327-3.332 3.98-3.332 1.674 0 2.572 1.21 4.015 3.343 1.577 2.333 3.542 5.24 7.59 5.24s6.011-2.906 7.59-5.24c1.195-1.768 2.016-2.9 3.213-3.235 2.146 9.055-.82 19.651-8.115 28.848H51.686c-5.724-7.127-8.865-15.19-8.865-22.802 0-2.068.233-4.096.697-6.047zm4.095 33.166H84.15a3.889 3.889 0 0 1 3.883 3.886 3.889 3.889 0 0 1-3.883 3.886L47.613 57a3.89 3.89 0 0 1-3.886-3.886 3.89 3.89 0 0 1 3.886-3.885zM17.6 109.383c0-17.36 10.82-37.457 25.805-48.064H55.04c-1.499 2.13-2.437 4.86-2.437 7.874a2.16 2.16 0 0 0 4.319 0c0-4.267 2.617-7.874 5.714-7.874h6.52c3.098 0 5.715 3.607 5.715 7.874a2.16 2.16 0 0 0 4.319 0c0-3.014-.94-5.743-2.437-7.874h11.606c2.773 1.962 5.425 4.273 7.929 6.885h-.53c-4.768 0-8.65 3.88-8.65 8.65v2.88c-5.742-5.315-13.223-8.326-21.211-8.326-17.265 0-31.308 14.034-31.308 31.281 0 17.25 14.045 31.283 31.308 31.283 7.944 0 15.462-3.002 21.211-8.308v12.857c0 .927.186 1.803.456 2.64-6.45 1.898-13.705 2.902-21.669 2.902-23.346 0-48.293-9.111-48.293-34.681l-.002.001zm69.507 10.166c-.142.103-.293.19-.409.332a26.945 26.945 0 0 1-20.802 9.775c-14.883 0-26.992-12.096-26.992-26.965 0-14.866 12.109-26.964 26.992-26.964 8.33 0 16.055 3.75 21.21 10.29v33.532zm55.336 18.974a4.339 4.339 0 0 1-4.333 4.333l-42.353-.001a4.338 4.338 0 0 1-4.333-4.333V76.854a4.338 4.338 0 0 1 4.333-4.332h42.353a4.338 4.338 0 0 1 4.333 4.332v61.669z" fill="#FAD54D"/>
        <path d="M134.7 77.511H99.167a3.638 3.638 0 0 0-3.634 3.635v11.796a3.638 3.638 0 0 0 3.634 3.633H134.7a3.638 3.638 0 0 0 3.634-3.633V81.146a3.639 3.639 0 0 0-3.634-3.635zm-.684 14.745H99.853V81.829h34.163v10.427zM111.843 100.883H99.164a3.638 3.638 0 0 0-3.633 3.633v8.917a3.639 3.639 0 0 0 3.633 3.635h12.679a3.638 3.638 0 0 0 3.633-3.635v-8.917a3.638 3.638 0 0 0-3.633-3.633zm-.684 11.867h-11.31v-7.548h11.31v7.548zM134.7 100.883h-12.679a3.638 3.638 0 0 0-3.633 3.633v8.917a3.638 3.638 0 0 0 3.633 3.635H134.7a3.638 3.638 0 0 0 3.633-3.635v-8.917a3.638 3.638 0 0 0-3.633-3.633zm-.684 11.867h-11.311v-7.548h11.311v7.548zM111.844 121.679H99.166a3.638 3.638 0 0 0-3.634 3.632v8.918a3.638 3.638 0 0 0 3.634 3.634h12.678a3.638 3.638 0 0 0 3.634-3.634v-8.918a3.638 3.638 0 0 0-3.634-3.632zm-.684 11.867H99.85v-7.548h11.31v7.548zM134.701 121.679h-12.678a3.638 3.638 0 0 0-3.634 3.632v8.918a3.638 3.638 0 0 0 3.634 3.634h12.678a3.638 3.638 0 0 0 3.634-3.634v-8.918a3.638 3.638 0 0 0-3.634-3.632zm-.684 11.867h-11.31v-7.548h11.31v7.548zM66.172 91.895a4.147 4.147 0 0 1 2.927 1.302 4.165 4.165 0 0 1 1.15 2.993 2.16 2.16 0 0 0 2.101 2.216c1.156.036 2.183-.911 2.214-2.103a8.443 8.443 0 0 0-2.333-6.078 8.424 8.424 0 0 0-4.176-2.408v-1.936a2.16 2.16 0 0 0-4.319 0v2.085c-1.301.367-2.52.986-3.531 1.945a8.449 8.449 0 0 0-2.647 5.948c-.122 4.686 3.592 8.603 8.282 8.726a4.16 4.16 0 0 1 2.928 1.302 4.162 4.162 0 0 1 1.15 2.993c-.062 2.309-2.113 4.189-4.296 4.077a4.195 4.195 0 0 1-4.08-4.296 2.16 2.16 0 0 0-2.103-2.216c-1.17-.048-2.184.911-2.213 2.103-.107 4.076 2.692 7.564 6.509 8.486v2.467a2.16 2.16 0 0 0 4.319 0v-2.587c3.474-.998 6.079-4.122 6.179-7.922a8.444 8.444 0 0 0-2.333-6.078 8.44 8.44 0 0 0-5.947-2.648 4.194 4.194 0 0 1-4.08-4.296 4.166 4.166 0 0 1 1.305-2.928c.81-.769 1.851-1.249 2.994-1.148z" fill="#FAD54D"/>
        <path fill="#000" fill-opacity=".01" d="M0 0h160v160H0z"/>
    </g>
    <defs>
        <clipPath id="l9qqhssy9a">
            <path fill="#fff" d="M0 0h160v160H0z"/>
        </clipPath>
    </defs>
</svg>
