<svg width="424" height="68" viewBox="0 0 424 68" fill="none" xmlns="http://www.w3.org/2000/svg">
<rect width="424" height="68" fill="black" fill-opacity="0.01"/>
<path d="M57.5573 4.5273e-07L67.9999 0L67.9999 14.5002L66.9618 15.2769L66.9618 27.2232L66 28L66 2L56 2L57.5573 4.5273e-07Z" fill="white"/>
<path d="M10.4427 68L5.05447e-05 68L5.18154e-05 53.4998L1.03822 52.7231L1.03822 40.7768L2 40L2 66L12 66L10.4427 68Z" fill="white"/>
<path d="M36.5095 2.07638H38.063L37.2863 1.03821H35.7327L36.5095 2.07638Z" fill="white"/>
<path d="M39.6166 2.07638H41.1702L40.3934 1.03821H38.8398L39.6166 2.07638Z" fill="white"/>
<path d="M42.7238 2.07638H44.2774L43.5006 1.03821H41.947L42.7238 2.07638Z" fill="white"/>
<path d="M45.831 2.07638H47.3846L46.6078 1.03821H45.0542L45.831 2.07638Z" fill="white"/>
<path d="M48.9382 2.07638H50.4918L49.715 1.03821H48.1614L48.9382 2.07638Z" fill="white"/>
<path d="M52.0453 2.07638H53.5989L52.8221 1.03821H51.2686L52.0453 2.07638Z" fill="white"/>
<path d="M30.2951 2.07638H31.8487L31.0719 1.03821H29.5183L30.2951 2.07638Z" fill="white"/>
<path d="M33.4023 2.07638H34.9559L34.1791 1.03821H32.6255L33.4023 2.07638Z" fill="white"/>
<path fill-rule="evenodd" clip-rule="evenodd" d="M68 57.5573V68L53.4998 68L52.7231 66.9618H40.7768L40 66.0001L66 66.0001V56.0001L68 57.5573ZM23.5628 66.9619L22.786 65.9237H21.2324L22.0092 66.9619H23.5628ZM26.67 66.9619H25.1164L24.3396 65.9237H25.8932L26.67 66.9619ZM28.2236 66.9619H29.7772L29.0004 65.9237H27.4468L28.2236 66.9619ZM32.8843 66.9619H31.3307L30.554 65.9237H32.1075L32.8843 66.9619ZM34.4379 66.9619H35.9915L35.2147 65.9237H33.6611L34.4379 66.9619ZM39.0987 66.9619H37.5451L36.7683 65.9237H38.3219L39.0987 66.9619ZM15.7949 66.9619H17.3484L16.5717 65.9237H15.0181L15.7949 66.9619ZM20.4556 66.9619H18.902L18.1252 65.9237H19.6788L20.4556 66.9619Z" fill="white"/>
<path d="M0 0V10.9008L0.517863 11.2901V23.6107L1.03573 24V11.6794L2 12.458V2.07634H28L27.2232 1.03817H15.2769L14.5002 0H0Z" fill="white"/>
<path d="M2.25 2.25H65.75V65.75H2.25V2.25Z" stroke="white" stroke-opacity="0.6" stroke-width="0.5"/>
<rect x="6" y="6" width="56" height="56" fill="white" fill-opacity="0.1"/>
<rect x="6.5" y="6.5" width="55" height="55" stroke="white" stroke-opacity="0.3"/>
<rect x="78.25" y="2.25" width="343.5" height="63.5" stroke="white" stroke-opacity="0.6" stroke-width="0.5"/>
<rect x="82" y="6" width="336" height="56" fill="white" fill-opacity="0.1"/>
<rect x="82.5" y="6.5" width="335" height="55" stroke="white" stroke-opacity="0.3"/>
<path d="M423.982 57.5573V67.9999L409.482 67.9999L408.705 66.9618H396.759L395.982 66L421.982 66V56L423.982 57.5573Z" fill="white"/>
<path d="M379.545 66.9618L378.768 65.9236H377.214L377.991 66.9618H379.545Z" fill="white"/>
<path d="M382.652 66.9618H381.098L380.322 65.9236H381.875L382.652 66.9618Z" fill="white"/>
<path d="M384.206 66.9618H385.759L384.982 65.9236H383.429L384.206 66.9618Z" fill="white"/>
<path d="M388.866 66.9618H387.313L386.536 65.9236H388.089L388.866 66.9618Z" fill="white"/>
<path d="M390.42 66.9618H391.973L391.197 65.9236H389.643L390.42 66.9618Z" fill="white"/>
<path d="M395.081 66.9618H393.527L392.75 65.9236H394.304L395.081 66.9618Z" fill="white"/>
<path d="M371.777 66.9618H373.33L372.554 65.9236H371L371.777 66.9618Z" fill="white"/>
<path d="M376.438 66.9618H374.884L374.107 65.9236H375.661L376.438 66.9618Z" fill="white"/>
<path d="M76.0181 10.4428L76.0181 5.51766e-05L90.5182 5.48626e-05L91.295 1.03822L103.241 1.03822L104.018 2L78.0181 2L78.0181 12L76.0181 10.4428Z" fill="white"/>
<path d="M120.455 1.03818L121.232 2.07635L122.786 2.07635L122.009 1.03818L120.455 1.03818Z" fill="white"/>
<path d="M117.348 1.03819L118.902 1.03819L119.678 2.07635L118.125 2.07635L117.348 1.03819Z" fill="white"/>
<path d="M115.794 1.03819L114.241 1.03819L115.018 2.07635L116.571 2.07635L115.794 1.03819Z" fill="white"/>
<path d="M111.134 1.03819L112.687 1.03819L113.464 2.07635L111.911 2.07635L111.134 1.03819Z" fill="white"/>
<path d="M109.58 1.03819L108.027 1.03819L108.803 2.07635L110.357 2.07635L109.58 1.03819Z" fill="white"/>
<path d="M104.919 1.03819L106.473 1.03819L107.25 2.07635L105.696 2.07635L104.919 1.03819Z" fill="white"/>
<path d="M128.223 1.03818L126.67 1.03818L127.446 2.07635L129 2.07635L128.223 1.03818Z" fill="white"/>
<path d="M123.562 1.03818L125.116 1.03818L125.893 2.07635L124.339 2.07635L123.562 1.03818Z" fill="white"/>
<path d="M413.557 1.80452e-07L424 -2.09814e-06L424 14.5002L422.962 15.2769L422.962 27.2232L422 28L422 2L412 2L413.557 1.80452e-07Z" fill="white"/>
<path d="M86.4427 68L76.0001 68L76.0001 53.4998L77.0382 52.7231L77.0382 40.7768L78 40L78 66L88 66L86.4427 68Z" fill="white"/>
</svg>
