<svg width="325" height="68" viewBox="0 0 325 68" fill="none" xmlns="http://www.w3.org/2000/svg">
<rect width="325" height="68" fill="black" fill-opacity="0.01"/>
<path d="M68 57.5573L68 67.9999L53.4998 67.9999L52.7231 66.9618L40.7768 66.9618L40 66L66 66L66 56L68 57.5573Z" fill="white"/>
<path d="M0 0V10.9008L0.517863 11.2901V23.6107L1.03573 24V11.6794L2 12.458V2.07634H28L27.2232 1.03817H15.2769L14.5002 0H0Z" fill="white"/>
<path d="M2.25 2.25H65.75V65.75H2.25V2.25Z" stroke="white" stroke-opacity="0.6" stroke-width="0.5"/>
<rect x="6" y="6" width="56" height="56" fill="white" fill-opacity="0.1"/>
<rect x="6.5" y="6.5" width="55" height="55" stroke="white" stroke-opacity="0.3"/>
<rect x="74.25" y="2.25" width="248.5" height="63.5" stroke="white" stroke-opacity="0.6" stroke-width="0.5"/>
<rect x="78" y="6" width="241" height="56" fill="white" fill-opacity="0.1"/>
<rect x="78.5" y="6.5" width="240" height="55" stroke="white" stroke-opacity="0.3"/>
<path d="M314.557 1.80452e-07L325 -2.09814e-06L325 14.5002L323.962 15.2769L323.962 27.2232L323 28L323 2L313 2L314.557 1.80452e-07Z" fill="white"/>
<path d="M82.4427 68L72 68L72 53.4998L73.0382 52.7231L73.0382 40.7768L73.9999 40L73.9999 66L83.9999 66L82.4427 68Z" fill="white"/>
</svg>
