<svg width="424" height="68" viewBox="0 0 424 68" fill="none" xmlns="http://www.w3.org/2000/svg">
<path d="M57.5573 4.5273e-07L67.9999 0L67.9999 14.5002L66.9618 15.2769L66.9618 27.2232L66 28L66 2L56 2L57.5573 4.5273e-07Z" fill="white"/>
<path d="M10.4427 68L5.05447e-05 68L5.18154e-05 53.4998L1.03822 52.7231L1.03822 40.7768L2 40L2 66L12 66L10.4427 68Z" fill="white"/>
<path d="M36.5095 2.07625H38.063L37.2863 1.03809H35.7327L36.5095 2.07625Z" fill="white"/>
<path d="M39.6166 2.07625H41.1702L40.3934 1.03809H38.8398L39.6166 2.07625Z" fill="white"/>
<path d="M42.7238 2.07625H44.2774L43.5006 1.03809H41.947L42.7238 2.07625Z" fill="white"/>
<path d="M45.831 2.07625H47.3846L46.6078 1.03809H45.0542L45.831 2.07625Z" fill="white"/>
<path d="M48.9382 2.07625H50.4918L49.715 1.03809H48.1614L48.9382 2.07625Z" fill="white"/>
<path d="M52.0453 2.07625H53.5989L52.8221 1.03809H51.2686L52.0453 2.07625Z" fill="white"/>
<path d="M30.2951 2.07625H31.8487L31.0719 1.03809H29.5183L30.2951 2.07625Z" fill="white"/>
<path d="M33.4023 2.07625H34.9559L34.1791 1.03809H32.6255L33.4023 2.07625Z" fill="white"/>
<path fill-rule="evenodd" clip-rule="evenodd" d="M68 57.5573V67.9999L53.4998 67.9999L52.7231 66.9618H40.7768L40 66L66 66V56L68 57.5573ZM23.5628 66.9618L22.786 65.9236H21.2324L22.0092 66.9618H23.5628ZM26.67 66.9618H25.1164L24.3396 65.9236H25.8932L26.67 66.9618ZM28.2236 66.9618H29.7772L29.0004 65.9236H27.4468L28.2236 66.9618ZM32.8843 66.9618H31.3307L30.554 65.9236H32.1075L32.8843 66.9618ZM34.4379 66.9618H35.9915L35.2147 65.9236H33.6611L34.4379 66.9618ZM39.0987 66.9618H37.5451L36.7683 65.9236H38.3219L39.0987 66.9618ZM15.7949 66.9618H17.3484L16.5717 65.9236H15.0181L15.7949 66.9618ZM20.4556 66.9618H18.902L18.1252 65.9236H19.6788L20.4556 66.9618Z" fill="white"/>
<path d="M0 0V10.9008L0.517863 11.2901V23.6107L1.03573 24V11.6794L2 12.458V2.07634H28L27.2232 1.03817H15.2769L14.5002 0H0Z" fill="white"/>
<path d="M2.25 2.25H65.75V65.75H2.25V2.25Z" stroke="white" stroke-opacity="0.6" stroke-width="0.5"/>
<path d="M62 62V6H48L46 3.5H22L20 6H6V62H20L22 64.5H34H46L48 62H62Z" fill="white" fill-opacity="0.1"/>
<path d="M20 61.5H6.5V6.5H20H20.2403L20.3904 6.31235L22.2403 4H45.7597L47.6096 6.31235L47.7597 6.5H48H61.5V61.5H48H47.7597L47.6096 61.6877L45.7597 64H34H22.2403L20.3904 61.6877L20.2403 61.5H20Z" stroke="white" stroke-opacity="0.3"/>
<path fill-rule="evenodd" clip-rule="evenodd" d="M64 14V6H63L63 11.5L62.5 12L62.5 6H62L62 15L64 14ZM64 43L62.5 43.75L62.5 50.5L62 51V44V42L62 18L62.5 18.5L62.5 24.25L64 25V43ZM64 62V54L62 53L62 62H62.5L62.5 56L63 56.5L63 62H64Z" fill="white"/>
<path fill-rule="evenodd" clip-rule="evenodd" d="M4 54V62H5L5 56.5L5.5 56L5.5 62H6L6 53L4 54ZM4 25L5.5 24.25L5.5 17.5L6 17V24V26L6 50L5.5 49.5L5.5 43.75L4 43V25ZM4 6V14L6 15L6 6H5.5L5.5 12L5 11.5L5 6H4Z" fill="white"/>
<rect x="78.25" y="2.25" width="343.5" height="63.5" stroke="white" stroke-opacity="0.6" stroke-width="0.5"/>
<path d="M82 6H205.5L207.5 3.5H250H291.5L293.5 6H418V62H293L291 64.5H208L206 62H82V6Z" fill="white" fill-opacity="0.1"/>
<path d="M206 61.5H82.5V6.5H205.5H205.74L205.89 6.31235L207.74 4H250H291.26L293.11 6.31235L293.26 6.5H293.5H417.5V61.5H293H292.76L292.61 61.6877L290.76 64H208.24L206.39 61.6877L206.24 61.5H206Z" stroke="white" stroke-opacity="0.3"/>
<path d="M254.5 5L208.5 5L207 7C207 7 249.5 7 256 7L254.5 5Z" fill="white"/>
<path d="M292 7L257 7L255.5 5H290.5L292 7Z" fill="white"/>
<path d="M244.5 63L290.5 63L292 61C292 61 249.5 61 243 61L244.5 63Z" fill="white"/>
<path d="M207 61L242 61L243.5 63H208.5L207 61Z" fill="white"/>
<path fill-rule="evenodd" clip-rule="evenodd" d="M420 54V62H419L419 56.5L418.5 56L418.5 62H418L418 53L420 54ZM420 25L418.5 24.25L418.5 17.5L418 17V24V26L418 50L418.5 49.5L418.5 43.75L420 43V25ZM420 6V14L418 15L418 6H418.5L418.5 12L419 11.5L419 6H420Z" fill="white"/>
<path fill-rule="evenodd" clip-rule="evenodd" d="M80 54V62H81L81 56.5L81.5 56L81.5 62H82L82 53L80 54ZM80 25L81.5 24.25L81.5 17.5L82 17V24V26L82 50L81.5 49.5L81.5 43.75L80 43V25ZM80 6V14L82 15L82 6H81.5L81.5 12L81 11.5L81 6H80Z" fill="white"/>
<path d="M423.982 57.5573V67.9999L409.482 67.9999L408.705 66.9618H396.759L395.982 66L421.982 66V56L423.982 57.5573Z" fill="white"/>
<path d="M379.545 66.9618L378.768 65.9236H377.214L377.991 66.9618H379.545Z" fill="white"/>
<path d="M382.652 66.9618H381.098L380.322 65.9236H381.875L382.652 66.9618Z" fill="white"/>
<path d="M384.206 66.9618H385.759L384.982 65.9236H383.429L384.206 66.9618Z" fill="white"/>
<path d="M388.866 66.9618H387.313L386.536 65.9236H388.089L388.866 66.9618Z" fill="white"/>
<path d="M390.42 66.9618H391.973L391.197 65.9236H389.643L390.42 66.9618Z" fill="white"/>
<path d="M395.081 66.9618H393.527L392.75 65.9236H394.304L395.081 66.9618Z" fill="white"/>
<path d="M371.777 66.9618H373.33L372.554 65.9236H371L371.777 66.9618Z" fill="white"/>
<path d="M376.438 66.9618H374.884L374.107 65.9236H375.661L376.438 66.9618Z" fill="white"/>
<path d="M76.0181 10.4428L76.0181 5.51766e-05L90.5182 5.48626e-05L91.295 1.03822L103.241 1.03822L104.018 2L78.0181 2L78.0181 12L76.0181 10.4428Z" fill="white"/>
<path d="M120.455 1.03818L121.232 2.07635L122.786 2.07635L122.009 1.03818L120.455 1.03818Z" fill="white"/>
<path d="M117.348 1.03819L118.902 1.03819L119.678 2.07635L118.125 2.07635L117.348 1.03819Z" fill="white"/>
<path d="M115.794 1.03819L114.241 1.03819L115.018 2.07635L116.571 2.07635L115.794 1.03819Z" fill="white"/>
<path d="M111.134 1.03819L112.687 1.03819L113.464 2.07635L111.911 2.07635L111.134 1.03819Z" fill="white"/>
<path d="M109.58 1.03819L108.027 1.03819L108.803 2.07635L110.357 2.07635L109.58 1.03819Z" fill="white"/>
<path d="M104.919 1.03819L106.473 1.03819L107.25 2.07635L105.696 2.07635L104.919 1.03819Z" fill="white"/>
<path d="M128.223 1.03818L126.67 1.03818L127.446 2.07635L129 2.07635L128.223 1.03818Z" fill="white"/>
<path d="M123.562 1.03818L125.116 1.03818L125.893 2.07635L124.339 2.07635L123.562 1.03818Z" fill="white"/>
<path d="M413.557 1.80452e-07L424 -2.09814e-06L424 14.5002L422.962 15.2769L422.962 27.2232L422 28L422 2L412 2L413.557 1.80452e-07Z" fill="white"/>
<path d="M86.4427 68L76.0001 68L76.0001 53.4998L77.0382 52.7231L77.0382 40.7768L78 40L78 66L88 66L86.4427 68Z" fill="white"/>
<path d="M38.9999 5L23 5L21.5 7C21.5 7 33.9999 7 40.5 7L38.9999 5Z" fill="white"/>
<path d="M46.5001 7L41.5001 7L40 5H45L46.5001 7Z" fill="white"/>
<path d="M38.9999 63L23 63L21.5 61C21.5 61 33.9999 61 40.5 61L38.9999 63Z" fill="white"/>
<path d="M46.5001 61L41.5001 61L40 63H45L46.5001 61Z" fill="white"/>
</svg>
