<svg width="424" height="68" viewBox="0 0 424 68" fill="none" xmlns="http://www.w3.org/2000/svg">
<rect width="424" height="68" fill="black" fill-opacity="0.01"/>
<path d="M0 0H9.5L8.46183 2H2V8.5L0 9.5V0Z" fill="white"/>
<path d="M68 68L58.5 68L59.5382 65.9237L66 65.9237L66 59.5L68 58.5L68 68Z" fill="white"/>
<path d="M2.25 2.25H65.75V65.75H2.25V2.25Z" stroke="white" stroke-opacity="0.6" stroke-width="0.5"/>
<rect x="6" y="6" width="56" height="56" fill="white" fill-opacity="0.1"/>
<rect x="6.5" y="6.5" width="55" height="55" stroke="white" stroke-opacity="0.3"/>
<rect x="78.25" y="2.25" width="343.5" height="63.5" stroke="white" stroke-opacity="0.6" stroke-width="0.5"/>
<rect x="82" y="6" width="336" height="56" fill="white" fill-opacity="0.1"/>
<rect x="82.5" y="6.5" width="335" height="55" stroke="white" stroke-opacity="0.3"/>
<path d="M424 0L424 9.5L422 8.46183L422 2L415.5 2L414.5 1.13286e-07L424 0Z" fill="white"/>
<path d="M76 68L76 58.5L78 59.5382L78 66L84.5 66L85.5 68L76 68Z" fill="white"/>
</svg>
