<svg width="325" height="68" viewBox="0 0 325 68" fill="none" xmlns="http://www.w3.org/2000/svg">
<rect width="325" height="68" fill="black" fill-opacity="0.01"/>
<path d="M57.5573 4.5273e-07L67.9999 0L67.9999 14.5002L66.9618 15.2769L66.9618 27.2232L66 28L66 2L56 2L57.5573 4.5273e-07Z" fill="white"/>
<path d="M10.4427 68L5.05447e-05 68L5.18154e-05 53.4998L1.03822 52.7231L1.03822 40.7768L2 40L2 66L12 66L10.4427 68Z" fill="white"/>
<path d="M36.5095 2.07723H38.063L37.2863 1.03906H35.7327L36.5095 2.07723Z" fill="white"/>
<path d="M39.6166 2.07723H41.1702L40.3934 1.03906H38.8398L39.6166 2.07723Z" fill="white"/>
<path d="M42.7238 2.07723H44.2774L43.5006 1.03906H41.947L42.7238 2.07723Z" fill="white"/>
<path d="M45.831 2.07723H47.3846L46.6078 1.03906H45.0542L45.831 2.07723Z" fill="white"/>
<path d="M48.9382 2.07723H50.4918L49.715 1.03906H48.1614L48.9382 2.07723Z" fill="white"/>
<path d="M52.0452 2.07723H53.5988L52.822 1.03906H51.2684L52.0452 2.07723Z" fill="white"/>
<path d="M30.2951 2.07723H31.8487L31.0719 1.03906H29.5183L30.2951 2.07723Z" fill="white"/>
<path d="M33.4023 2.07723H34.9559L34.1791 1.03906H32.6255L33.4023 2.07723Z" fill="white"/>
<path fill-rule="evenodd" clip-rule="evenodd" d="M68 57.5573V67.9999L53.4998 67.9999L52.7231 66.9618H40.7768L40 66L66 66V56L68 57.5573ZM23.5628 66.9618L22.786 65.9236H21.2324L22.0092 66.9618H23.5628ZM26.67 66.9618H25.1164L24.3396 65.9236H25.8932L26.67 66.9618ZM28.2236 66.9618H29.7772L29.0004 65.9236H27.4468L28.2236 66.9618ZM32.8843 66.9618H31.3307L30.554 65.9236H32.1075L32.8843 66.9618ZM34.4379 66.9618H35.9915L35.2147 65.9236H33.6611L34.4379 66.9618ZM39.0987 66.9618H37.5451L36.7683 65.9236H38.3219L39.0987 66.9618ZM15.7949 66.9618H17.3484L16.5717 65.9236H15.0181L15.7949 66.9618ZM20.4556 66.9618H18.902L18.1252 65.9236H19.6788L20.4556 66.9618Z" fill="white"/>
<path d="M0 0V10.9008L0.517863 11.2901V23.6107L1.03573 24V11.6794L2 12.458V2.07634H28L27.2232 1.03817H15.2769L14.5002 0H0Z" fill="white"/>
<path d="M2.25 2.25H65.75V65.75H2.25V2.25Z" stroke="white" stroke-opacity="0.6" stroke-width="0.5"/>
<rect x="6" y="6" width="56" height="56" fill="white" fill-opacity="0.1"/>
<rect x="6.5" y="6.5" width="55" height="55" stroke="white" stroke-opacity="0.3"/>
<path fill-rule="evenodd" clip-rule="evenodd" d="M64 14V6H63L63 11.5L62.5 12L62.5 6H62L62 15L64 14ZM64 43L62.5 43.75L62.5 50.5L62 51V44V42L62 18L62.5 18.5L62.5 24.25L64 25V43ZM64 62V54L62 53L62 62H62.5L62.5 56L63 56.5L63 62H64Z" fill="white"/>
<path fill-rule="evenodd" clip-rule="evenodd" d="M4 54V62H5L5 56.5L5.5 56L5.5 62H6L6 53L4 54ZM4 25L5.5 24.25L5.5 17.5L6 17V24V26L6 50L5.5 49.5L5.5 43.75L4 43V25ZM4 6V14L6 15L6 6H5.5L5.5 12L5 11.5L5 6H4Z" fill="white"/>
<rect x="74.25" y="2.25" width="248.5" height="63.5" stroke="white" stroke-opacity="0.6" stroke-width="0.5"/>
<rect x="78" y="6" width="241" height="56" fill="white" fill-opacity="0.1"/>
<rect x="78.5" y="6.5" width="240" height="55" stroke="white" stroke-opacity="0.3"/>
<path d="M321 54V62H320L320 56.5L319.5 56L319.5 62H319L319 53L321 54Z" fill="white"/>
<path d="M321 25L319.5 24.25L319.5 17.5L319 17L319 50L319.5 49.5L319.5 43.75L321 43V25Z" fill="white"/>
<path d="M321 6V14L319 15L319 6H319.5L319.5 12L320 11.5L320 6H321Z" fill="white"/>
<path fill-rule="evenodd" clip-rule="evenodd" d="M76 54V62H77L77 56.5L77.5 56L77.5 62H78L78 53L76 54ZM76 25L77.5 24.25L77.5 17.5L78 17V24V26L78 50L77.5 49.5L77.5 43.75L76 43V25ZM76 6V14L78 15L78 6H77.5L77.5 12L77 11.5L77 6H76Z" fill="white"/>
<path d="M324.982 57.5573V67.9999L310.482 67.9999L309.705 66.9618H297.759L296.982 66L322.982 66V56L324.982 57.5573Z" fill="white"/>
<path d="M280.545 66.9618L279.768 65.9236H278.214L278.991 66.9618H280.545Z" fill="white"/>
<path d="M283.652 66.9618H282.098L281.322 65.9236H282.875L283.652 66.9618Z" fill="white"/>
<path d="M285.206 66.9618H286.759L285.982 65.9236H284.429L285.206 66.9618Z" fill="white"/>
<path d="M289.866 66.9618H288.313L287.536 65.9236H289.089L289.866 66.9618Z" fill="white"/>
<path d="M291.42 66.9618H292.973L292.197 65.9236H290.643L291.42 66.9618Z" fill="white"/>
<path d="M296.081 66.9618H294.527L293.75 65.9236H295.304L296.081 66.9618Z" fill="white"/>
<path d="M272.777 66.9618H274.33L273.554 65.9236H272L272.777 66.9618Z" fill="white"/>
<path d="M277.438 66.9618H275.884L275.107 65.9236H276.661L277.438 66.9618Z" fill="white"/>
<path d="M72.0181 10.4428L72.0181 5.51766e-05L86.5182 5.48626e-05L87.295 1.03822L99.2413 1.03822L100.018 2L74.0181 2L74.0181 12L72.0181 10.4428Z" fill="white"/>
<path d="M116.455 1.03818L117.232 2.07635L118.786 2.07635L118.009 1.03818L116.455 1.03818Z" fill="white"/>
<path d="M113.348 1.03819L114.902 1.03819L115.678 2.07635L114.125 2.07635L113.348 1.03819Z" fill="white"/>
<path d="M111.794 1.03819L110.241 1.03819L111.018 2.07635L112.571 2.07635L111.794 1.03819Z" fill="white"/>
<path d="M107.134 1.03819L108.687 1.03819L109.464 2.07635L107.911 2.07635L107.134 1.03819Z" fill="white"/>
<path d="M105.58 1.03819L104.027 1.03819L104.803 2.07635L106.357 2.07635L105.58 1.03819Z" fill="white"/>
<path d="M100.919 1.03819L102.473 1.03819L103.25 2.07635L101.696 2.07635L100.919 1.03819Z" fill="white"/>
<path d="M124.223 1.03818L122.67 1.03818L123.446 2.07635L125 2.07635L124.223 1.03818Z" fill="white"/>
<path d="M119.562 1.03818L121.116 1.03818L121.893 2.07635L120.339 2.07635L119.562 1.03818Z" fill="white"/>
<path d="M314.557 1.80452e-07L325 -2.09814e-06L325 14.5002L323.962 15.2769L323.962 27.2232L323 28L323 2L313 2L314.557 1.80452e-07Z" fill="white"/>
<path d="M82.4427 68L72 68L72 53.4998L73.0382 52.7231L73.0382 40.7768L73.9999 40L73.9999 66L83.9999 66L82.4427 68Z" fill="white"/>
</svg>
