<?xml version="1.0" encoding="UTF-8"?>
<svg width="387px" height="188px" viewBox="0 0 387 188" version="1.1" xmlns="http://www.w3.org/2000/svg" xmlns:xlink="http://www.w3.org/1999/xlink">
    <title>8D5AF416-A330-45EE-BC50-DAB07E41F123</title>
    <defs>
        <linearGradient x1="50%" y1="-16.4273681%" x2="50%" y2="100%" id="linearGradient-1">
            <stop stop-color="#9B9FB4" offset="0%"></stop>
            <stop stop-color="#242669" offset="16.7194618%"></stop>
            <stop stop-color="#8CCFFF" offset="33.3898731%"></stop>
            <stop stop-color="#D5DFFF" offset="50.0513863%"></stop>
            <stop stop-color="#C49FF9" offset="66.5668601%"></stop>
            <stop stop-color="#885EA8" offset="83.3200233%"></stop>
            <stop stop-color="#BAA0DE" offset="100%"></stop>
        </linearGradient>
        <path d="M217.663382,0 C218.523196,0 219.394324,0.147234632 220.276765,0.441703895 C221.048901,0.6993645 221.916317,1.24317703 222.879012,2.07314148 L251.128262,27.4535959 L251.128262,0.747498899 L263.957597,0.747498899 L263.957597,38.3942616 C263.957597,39.8892594 263.742644,41.1803939 263.312736,42.267665 C262.882829,43.3549361 262.317162,44.2496697 261.615734,44.9518656 C260.914307,45.6540615 260.088433,46.1637199 259.138111,46.4808406 C258.18779,46.7979614 257.214842,46.9565217 256.219268,46.9565217 C255.3142,46.9565217 254.420446,46.8092871 253.538005,46.5148178 C252.655564,46.2203486 251.671303,45.5521299 250.585221,44.5101617 L222.754388,19.5029258 L222.754388,46.2090228 L209.992933,46.2090228 L209.992933,8.49430567 C209.992933,6.99930787 210.207886,5.70817341 210.637794,4.62090228 C211.067701,3.53363116 211.633368,2.65022337 212.334796,1.97067892 C213.036223,1.29113446 213.850784,0.792801862 214.778479,0.475681117 C215.706173,0.158560372 216.667807,0 217.663382,0 Z M39.7641548,1.17391304 C42.4923987,1.17391304 44.9591859,1.43624488 47.1645164,1.96090856 C49.3698469,2.48557224 51.2568822,3.28397348 52.8256225,4.3561123 C54.3943627,5.42825112 55.5993371,6.75131605 56.4405456,8.32530708 C57.2817542,9.89929811 57.7023585,11.735621 57.7023585,13.8342757 C57.7023585,15.2029635 57.5204755,16.4119711 57.1567097,17.4612985 C56.7929438,18.5106259 56.3268688,19.4344902 55.7584847,20.2328914 C55.1901005,21.0312926 54.5307749,21.6928251 53.7805078,22.2174888 C53.0302408,22.7421525 52.268606,23.1413531 51.4956036,23.4150907 C53.4963158,24.0081887 55.1901005,25.1715734 56.5769578,26.9052447 C57.9638152,28.638916 58.6572438,30.8744395 58.6572438,33.6118152 C58.6572438,35.5279782 58.3616841,37.2958666 57.7705645,38.9154806 C57.179445,40.5350946 56.1790889,41.9379996 54.7694963,43.1241957 C53.3599036,44.3103919 51.4615005,45.2456619 49.0742871,45.9300058 C46.6870737,46.6143498 43.6973731,46.9565217 40.1051853,46.9565217 L0,46.9565217 L0,19.1037239 L40.3780097,19.1037239 C41.4238365,19.1037239 42.3446188,18.887015 43.1403566,18.4535972 C43.9360944,18.0201794 44.3339633,17.2103724 44.3339633,16.0241763 C44.3339633,14.883603 43.9247268,14.1080133 43.1062536,13.6974069 C42.2877804,13.2868005 41.3783658,13.0814974 40.3780097,13.0814974 L0,13.0814974 L9.54885364,1.17391304 L39.7641548,1.17391304 Z M75.1355649,1.17391304 L75.1343443,12.9699747 L84.1990866,1.17391304 L136.084806,1.17391304 L126.936534,13.0814974 L110.619841,13.0814974 L110.619841,46.9565217 L96.4878096,46.9565217 L96.4878096,13.0814974 L75.1343443,13.0814974 L75.1355649,46.9565217 L61.0035336,46.9565217 L61.0035336,1.17391304 L75.1355649,1.17391304 Z M182.316046,1.17391304 C184.083762,1.17391304 185.613516,1.66435952 186.905308,2.64525249 C188.197101,3.62614545 188.842997,5.05186196 188.842997,6.92240203 C188.842997,7.97172938 188.571041,8.98683954 188.027128,9.9677325 C187.483216,10.9486255 186.735336,11.8040554 185.783489,12.5340222 L168.990186,25.9471632 L166.048618,28.3046582 L166.048618,28.3046582 L164.162962,29.7794892 L164.162962,29.7794892 L159.743672,33.1860012 L159.743672,33.1860012 L158.579359,34.0556882 L158.579359,34.0556882 L156.616174,35.4595438 L156.616174,35.4595438 L157.173962,35.4232316 L157.173962,35.4232316 L158.839001,35.3673668 L158.839001,35.3673668 L165.102061,35.2713492 L165.102061,35.2713492 L169.194154,35.2200234 L169.194154,35.2200234 L172.91089,35.1896081 L172.91089,35.1896081 L191.222615,35.1858062 L182.72398,46.9565217 L139.618905,46.9565217 C137.851189,46.9565217 136.321434,46.4660753 135.029642,45.4851823 C133.737849,44.5042893 133.091953,43.0785728 133.091953,41.2080328 C133.091953,40.1587054 133.363909,39.1435952 133.907822,38.1627023 C134.451735,37.1818093 135.199615,36.3035679 136.151462,35.5279782 L158.300792,17.9992689 L158.300792,17.9992689 L160.113834,16.5906609 L160.113834,16.5906609 L161.655865,15.4206229 L161.655865,15.4206229 L162.539723,14.7666943 L162.539723,14.7666943 L163.310265,14.2116153 L163.310265,14.2116153 L164.032423,13.705619 L164.032423,13.705619 L164.701435,13.2238409 L164.701435,13.2238409 L165.250787,12.8077598 L165.250787,12.8077598 L163.041142,12.9446286 L163.041142,12.9446286 L161.936999,12.9939013 L161.936999,12.9939013 L160.637048,13.0322246 L160.637048,13.0322246 L158.314541,13.0691792 L158.314541,13.0691792 L155.528349,13.0814974 L155.528349,13.0814974 L131.392226,13.0814974 L140.366784,1.17391304 L182.316046,1.17391304 Z M206.473498,1.17391304 L206.473498,46.9565217 L192.39576,46.9565217 L192.39576,1.17391304 L206.473498,1.17391304 Z M326.134276,1.17391304 L317.044398,13.0814974 L293.641355,13.0814974 C291.741977,13.0814974 289.97827,13.3552349 288.350232,13.9027101 C286.722194,14.4501852 285.308967,15.225775 284.11055,16.2294794 C282.912134,17.2331839 281.973751,18.4079743 281.295402,19.7538507 C280.617052,21.099727 280.277878,22.5938779 280.277878,24.2363034 C280.277878,25.8787288 280.605747,27.3728797 281.261484,28.7187561 C281.917222,30.0646325 282.844299,31.2166114 284.042715,32.1746929 C285.241132,33.1327744 286.654359,33.874147 288.282397,34.3988107 C289.910435,34.9234744 291.696754,35.1858062 293.641355,35.1858062 L310.803586,35.1858062 L310.803586,28.5476701 L287.332708,28.5476701 L295.744237,18.3509456 L324.777577,18.3509456 L324.777577,46.9565217 L293.641355,46.9565217 C289.70693,46.9565217 286.066457,46.3634237 282.719935,45.1772275 C279.373412,43.9910314 276.490429,42.3600117 274.070984,40.2841685 C271.651539,38.2083252 269.752161,35.7446871 268.372852,32.893254 C266.993542,30.041821 266.303887,26.9508676 266.303887,23.6203938 C266.303887,20.2899201 266.993542,17.2445896 268.372852,14.4844024 C269.752161,11.7242152 271.651539,9.35182297 274.070984,7.36722558 C276.490429,5.38262819 279.373412,3.85426009 282.719935,2.78212127 C286.066457,1.70998245 289.70693,1.17391304 293.641355,1.17391304 L326.134276,1.17391304 Z M40.1927343,29.3478261 L14.0777385,29.3478261 L14.0777385,35.2173913 L40.1927343,35.2173913 C41.7463824,35.2173913 42.8659229,34.9621928 43.5513559,34.4517958 C44.2367888,33.9413989 44.5795053,33.1970699 44.5795053,32.2188091 C44.5795053,31.2830813 44.2367888,30.5706522 43.5513559,30.0815217 C42.8659229,29.5923913 41.7463824,29.3478261 40.1927343,29.3478261 Z" id="path-2"></path>
        <filter x="-0.3%" y="-4.3%" width="101.2%" height="108.5%" filterUnits="objectBoundingBox" id="filter-3">
            <feOffset dx="1" dy="0" in="SourceAlpha" result="shadowOffsetOuter1"></feOffset>
            <feMorphology radius="1" operator="erode" in="SourceAlpha" result="shadowInner"></feMorphology>
            <feOffset dx="1" dy="0" in="shadowInner" result="shadowInner"></feOffset>
            <feComposite in="shadowOffsetOuter1" in2="shadowInner" operator="out" result="shadowOffsetOuter1"></feComposite>
            <feGaussianBlur stdDeviation="0.5" in="shadowOffsetOuter1" result="shadowBlurOuter1"></feGaussianBlur>
            <feColorMatrix values="0 0 0 0 0.223529412   0 0 0 0 0   0 0 0 0 0.666666667  0 0 0 1 0" type="matrix" in="shadowBlurOuter1"></feColorMatrix>
        </filter>
        <filter x="-12.0%" y="-85.2%" width="124.5%" height="270.4%" filterUnits="objectBoundingBox" id="filter-4">
            <feOffset dx="5" dy="10" in="SourceAlpha" result="shadowOffsetOuter1"></feOffset>
            <feGaussianBlur stdDeviation="5" in="shadowOffsetOuter1" result="shadowBlurOuter1"></feGaussianBlur>
            <feColorMatrix values="0 0 0 0 0.0235294118   0 0 0 0 0.00392156863   0 0 0 0 0.325490196  0 0 0 1 0" type="matrix" in="shadowBlurOuter1" result="shadowMatrixOuter1"></feColorMatrix>
            <feMerge>
                <feMergeNode in="shadowMatrixOuter1"></feMergeNode>
                <feMergeNode in="SourceGraphic"></feMergeNode>
            </feMerge>
        </filter>
        <linearGradient x1="50.0000056%" y1="0%" x2="50%" y2="89.1195321%" id="linearGradient-5">
            <stop stop-color="#02081D" offset="0%"></stop>
            <stop stop-color="#009AFE" offset="32.1299768%"></stop>
            <stop stop-color="#68DDFA" offset="45.1645883%"></stop>
            <stop stop-color="#EDE8F7" offset="60.5280872%"></stop>
            <stop stop-color="#2E00A3" offset="60.5913288%"></stop>
            <stop stop-color="#FF2DAF" offset="84.3525%"></stop>
            <stop stop-color="#FF75CA" offset="100%"></stop>
        </linearGradient>
        <path d="M217.663382,0 C218.523196,0 219.394324,0.147234632 220.276765,0.441703895 C221.048901,0.6993645 221.916317,1.24317703 222.879012,2.07314148 L251.128262,27.4535959 L251.128262,0.747498899 L263.957597,0.747498899 L263.957597,38.3942616 C263.957597,39.8892594 263.742644,41.1803939 263.312736,42.267665 C262.882829,43.3549361 262.317162,44.2496697 261.615734,44.9518656 C260.914307,45.6540615 260.088433,46.1637199 259.138111,46.4808406 C258.18779,46.7979614 257.214842,46.9565217 256.219268,46.9565217 C255.3142,46.9565217 254.420446,46.8092871 253.538005,46.5148178 C252.655564,46.2203486 251.671303,45.5521299 250.585221,44.5101617 L222.754388,19.5029258 L222.754388,46.2090228 L209.992933,46.2090228 L209.992933,8.49430567 C209.992933,6.99930787 210.207886,5.70817341 210.637794,4.62090228 C211.067701,3.53363116 211.633368,2.65022337 212.334796,1.97067892 C213.036223,1.29113446 213.850784,0.792801862 214.778479,0.475681117 C215.706173,0.158560372 216.667807,0 217.663382,0 Z M39.7641548,1.17391304 C42.4923987,1.17391304 44.9591859,1.43624488 47.1645164,1.96090856 C49.3698469,2.48557224 51.2568822,3.28397348 52.8256225,4.3561123 C54.3943627,5.42825112 55.5993371,6.75131605 56.4405456,8.32530708 C57.2817542,9.89929811 57.7023585,11.735621 57.7023585,13.8342757 C57.7023585,15.2029635 57.5204755,16.4119711 57.1567097,17.4612985 C56.7929438,18.5106259 56.3268688,19.4344902 55.7584847,20.2328914 C55.1901005,21.0312926 54.5307749,21.6928251 53.7805078,22.2174888 C53.0302408,22.7421525 52.268606,23.1413531 51.4956036,23.4150907 C53.4963158,24.0081887 55.1901005,25.1715734 56.5769578,26.9052447 C57.9638152,28.638916 58.6572438,30.8744395 58.6572438,33.6118152 C58.6572438,35.5279782 58.3616841,37.2958666 57.7705645,38.9154806 C57.179445,40.5350946 56.1790889,41.9379996 54.7694963,43.1241957 C53.3599036,44.3103919 51.4615005,45.2456619 49.0742871,45.9300058 C46.6870737,46.6143498 43.6973731,46.9565217 40.1051853,46.9565217 L0,46.9565217 L0,19.1037239 L40.3780097,19.1037239 C41.4238365,19.1037239 42.3446188,18.887015 43.1403566,18.4535972 C43.9360944,18.0201794 44.3339633,17.2103724 44.3339633,16.0241763 C44.3339633,14.883603 43.9247268,14.1080133 43.1062536,13.6974069 C42.2877804,13.2868005 41.3783658,13.0814974 40.3780097,13.0814974 L0,13.0814974 L9.54885364,1.17391304 L39.7641548,1.17391304 Z M75.1355649,1.17391304 L75.1343443,12.9699747 L84.1990866,1.17391304 L136.084806,1.17391304 L126.936534,13.0814974 L110.619841,13.0814974 L110.619841,46.9565217 L96.4878096,46.9565217 L96.4878096,13.0814974 L75.1343443,13.0814974 L75.1355649,46.9565217 L61.0035336,46.9565217 L61.0035336,1.17391304 L75.1355649,1.17391304 Z M182.316046,1.17391304 C184.083762,1.17391304 185.613516,1.66435952 186.905308,2.64525249 C188.197101,3.62614545 188.842997,5.05186196 188.842997,6.92240203 C188.842997,7.97172938 188.571041,8.98683954 188.027128,9.9677325 C187.483216,10.9486255 186.735336,11.8040554 185.783489,12.5340222 L168.990186,25.9471632 L166.048618,28.3046582 L166.048618,28.3046582 L164.162962,29.7794892 L164.162962,29.7794892 L159.743672,33.1860012 L159.743672,33.1860012 L158.579359,34.0556882 L158.579359,34.0556882 L156.616174,35.4595438 L156.616174,35.4595438 L157.173962,35.4232316 L157.173962,35.4232316 L158.839001,35.3673668 L158.839001,35.3673668 L165.102061,35.2713492 L165.102061,35.2713492 L169.194154,35.2200234 L169.194154,35.2200234 L172.91089,35.1896081 L172.91089,35.1896081 L191.222615,35.1858062 L182.72398,46.9565217 L139.618905,46.9565217 C137.851189,46.9565217 136.321434,46.4660753 135.029642,45.4851823 C133.737849,44.5042893 133.091953,43.0785728 133.091953,41.2080328 C133.091953,40.1587054 133.363909,39.1435952 133.907822,38.1627023 C134.451735,37.1818093 135.199615,36.3035679 136.151462,35.5279782 L158.300792,17.9992689 L158.300792,17.9992689 L160.113834,16.5906609 L160.113834,16.5906609 L161.655865,15.4206229 L161.655865,15.4206229 L162.539723,14.7666943 L162.539723,14.7666943 L163.310265,14.2116153 L163.310265,14.2116153 L164.032423,13.705619 L164.032423,13.705619 L164.701435,13.2238409 L164.701435,13.2238409 L165.250787,12.8077598 L165.250787,12.8077598 L163.041142,12.9446286 L163.041142,12.9446286 L161.936999,12.9939013 L161.936999,12.9939013 L160.637048,13.0322246 L160.637048,13.0322246 L158.314541,13.0691792 L158.314541,13.0691792 L155.528349,13.0814974 L155.528349,13.0814974 L131.392226,13.0814974 L140.366784,1.17391304 L182.316046,1.17391304 Z M206.473498,1.17391304 L206.473498,46.9565217 L192.39576,46.9565217 L192.39576,1.17391304 L206.473498,1.17391304 Z M326.134276,1.17391304 L317.044398,13.0814974 L293.641355,13.0814974 C291.741977,13.0814974 289.97827,13.3552349 288.350232,13.9027101 C286.722194,14.4501852 285.308967,15.225775 284.11055,16.2294794 C282.912134,17.2331839 281.973751,18.4079743 281.295402,19.7538507 C280.617052,21.099727 280.277878,22.5938779 280.277878,24.2363034 C280.277878,25.8787288 280.605747,27.3728797 281.261484,28.7187561 C281.917222,30.0646325 282.844299,31.2166114 284.042715,32.1746929 C285.241132,33.1327744 286.654359,33.874147 288.282397,34.3988107 C289.910435,34.9234744 291.696754,35.1858062 293.641355,35.1858062 L310.803586,35.1858062 L310.803586,28.5476701 L287.332708,28.5476701 L295.744237,18.3509456 L324.777577,18.3509456 L324.777577,46.9565217 L293.641355,46.9565217 C289.70693,46.9565217 286.066457,46.3634237 282.719935,45.1772275 C279.373412,43.9910314 276.490429,42.3600117 274.070984,40.2841685 C271.651539,38.2083252 269.752161,35.7446871 268.372852,32.893254 C266.993542,30.041821 266.303887,26.9508676 266.303887,23.6203938 C266.303887,20.2899201 266.993542,17.2445896 268.372852,14.4844024 C269.752161,11.7242152 271.651539,9.35182297 274.070984,7.36722558 C276.490429,5.38262819 279.373412,3.85426009 282.719935,2.78212127 C286.066457,1.70998245 289.70693,1.17391304 293.641355,1.17391304 L326.134276,1.17391304 Z M40.1927343,29.3478261 L14.0777385,29.3478261 L14.0777385,35.2173913 L40.1927343,35.2173913 C41.7463824,35.2173913 42.8659229,34.9621928 43.5513559,34.4517958 C44.2367888,33.9413989 44.5795053,33.1970699 44.5795053,32.2188091 C44.5795053,31.2830813 44.2367888,30.5706522 43.5513559,30.0815217 C42.8659229,29.5923913 41.7463824,29.3478261 40.1927343,29.3478261 Z" id="path-6"></path>
        <filter x="-0.3%" y="-4.3%" width="101.2%" height="108.5%" filterUnits="objectBoundingBox" id="filter-7">
            <feOffset dx="1" dy="0" in="SourceAlpha" result="shadowOffsetOuter1"></feOffset>
            <feMorphology radius="1" operator="erode" in="SourceAlpha" result="shadowInner"></feMorphology>
            <feOffset dx="1" dy="0" in="shadowInner" result="shadowInner"></feOffset>
            <feComposite in="shadowOffsetOuter1" in2="shadowInner" operator="out" result="shadowOffsetOuter1"></feComposite>
            <feGaussianBlur stdDeviation="0.5" in="shadowOffsetOuter1" result="shadowBlurOuter1"></feGaussianBlur>
            <feColorMatrix values="0 0 0 0 0.223529412   0 0 0 0 0   0 0 0 0 0.666666667  0 0 0 1 0" type="matrix" in="shadowBlurOuter1"></feColorMatrix>
        </filter>
        <filter x="-8.3%" y="-7.2%" width="116.7%" height="114.4%" filterUnits="objectBoundingBox" id="filter-8">
            <feOffset dx="1" dy="2" in="SourceAlpha" result="shadowOffsetOuter1"></feOffset>
            <feGaussianBlur stdDeviation="0.5" in="shadowOffsetOuter1" result="shadowBlurOuter1"></feGaussianBlur>
            <feColorMatrix values="0 0 0 0 0.0235294118   0 0 0 0 0.00392156863   0 0 0 0 0.325490196  0 0 0 1 0" type="matrix" in="shadowBlurOuter1" result="shadowMatrixOuter1"></feColorMatrix>
            <feMerge>
                <feMergeNode in="shadowMatrixOuter1"></feMergeNode>
                <feMergeNode in="SourceGraphic"></feMergeNode>
            </feMerge>
        </filter>
        <linearGradient x1="50%" y1="-25.1390183%" x2="50%" y2="89.1195321%" id="linearGradient-9">
            <stop stop-color="#02081D" offset="0%"></stop>
            <stop stop-color="#009AFE" offset="32.1299768%"></stop>
            <stop stop-color="#68DDFA" offset="45.1645883%"></stop>
            <stop stop-color="#EDE8F7" offset="60.5280872%"></stop>
            <stop stop-color="#2E00A3" offset="60.5913288%"></stop>
            <stop stop-color="#FF2DAF" offset="84.3525%"></stop>
            <stop stop-color="#FF75CA" offset="100%"></stop>
        </linearGradient>
    </defs>
    <g id="展示页" stroke="none" stroke-width="1" fill="none" fill-rule="evenodd">
        <g id="3-7" transform="translate(-764.000000, -75.000000)" fill-rule="nonzero">
            <g id="标题" transform="translate(764.000000, 75.000000)">
                <g id="编组-5" transform="translate(29.000000, 111.000000)">
                    <g id="编组-3备份" transform="translate(5.865724, 7.043478)">
                        <path d="M217.663382,0 C218.523196,0 219.394324,0.147234632 220.276765,0.441703895 C221.048901,0.6993645 221.916317,1.24317703 222.879012,2.07314148 L251.128262,27.4535959 L251.128262,0.747498899 L263.957597,0.747498899 L263.957597,38.3942616 C263.957597,39.8892594 263.742644,41.1803939 263.312736,42.267665 C262.882829,43.3549361 262.317162,44.2496697 261.615734,44.9518656 C260.914307,45.6540615 260.088433,46.1637199 259.138111,46.4808406 C258.18779,46.7979614 257.214842,46.9565217 256.219268,46.9565217 C255.3142,46.9565217 254.420446,46.8092871 253.538005,46.5148178 C252.655564,46.2203486 251.671303,45.5521299 250.585221,44.5101617 L222.754388,19.5029258 L222.754388,46.2090228 L209.992933,46.2090228 L209.992933,8.49430567 C209.992933,6.99930787 210.207886,5.70817341 210.637794,4.62090228 C211.067701,3.53363116 211.633368,2.65022337 212.334796,1.97067892 C213.036223,1.29113446 213.850784,0.792801862 214.778479,0.475681117 C215.706173,0.158560372 216.667807,0 217.663382,0 Z M39.7641548,1.17391304 C42.4923987,1.17391304 44.9591859,1.43624488 47.1645164,1.96090856 C49.3698469,2.48557224 51.2568822,3.28397348 52.8256225,4.3561123 C54.3943627,5.42825112 55.5993371,6.75131605 56.4405456,8.32530708 C57.2817542,9.89929811 57.7023585,11.735621 57.7023585,13.8342757 C57.7023585,15.2029635 57.5204755,16.4119711 57.1567097,17.4612985 C56.7929438,18.5106259 56.3268688,19.4344902 55.7584847,20.2328914 C55.1901005,21.0312926 54.5307749,21.6928251 53.7805078,22.2174888 C53.0302408,22.7421525 52.268606,23.1413531 51.4956036,23.4150907 C53.4963158,24.0081887 55.1901005,25.1715734 56.5769578,26.9052447 C57.9638152,28.638916 58.6572438,30.8744395 58.6572438,33.6118152 C58.6572438,35.5279782 58.3616841,37.2958666 57.7705645,38.9154806 C57.179445,40.5350946 56.1790889,41.9379996 54.7694963,43.1241957 C53.3599036,44.3103919 51.4615005,45.2456619 49.0742871,45.9300058 C46.6870737,46.6143498 43.6973731,46.9565217 40.1051853,46.9565217 L0,46.9565217 L0,19.1037239 L40.3780097,19.1037239 C41.4238365,19.1037239 42.3446188,18.887015 43.1403566,18.4535972 C43.9360944,18.0201794 44.3339633,17.2103724 44.3339633,16.0241763 C44.3339633,14.883603 43.9247268,14.1080133 43.1062536,13.6974069 C42.2877804,13.2868005 41.3783658,13.0814974 40.3780097,13.0814974 L0,13.0814974 L9.54885364,1.17391304 L39.7641548,1.17391304 Z M75.1355649,1.17391304 L75.1343443,12.9699747 L84.1990866,1.17391304 L136.084806,1.17391304 L126.936534,13.0814974 L110.619841,13.0814974 L110.619841,46.9565217 L96.4878096,46.9565217 L96.4878096,13.0814974 L75.1343443,13.0814974 L75.1355649,46.9565217 L61.0035336,46.9565217 L61.0035336,1.17391304 L75.1355649,1.17391304 Z M182.316046,1.17391304 C184.083762,1.17391304 185.613516,1.66435952 186.905308,2.64525249 C188.197101,3.62614545 188.842997,5.05186196 188.842997,6.92240203 C188.842997,7.97172938 188.571041,8.98683954 188.027128,9.9677325 C187.483216,10.9486255 186.735336,11.8040554 185.783489,12.5340222 L168.990186,25.9471632 L166.048618,28.3046582 L166.048618,28.3046582 L164.162962,29.7794892 L164.162962,29.7794892 L159.743672,33.1860012 L159.743672,33.1860012 L158.579359,34.0556882 L158.579359,34.0556882 L156.616174,35.4595438 L156.616174,35.4595438 L157.173962,35.4232316 L157.173962,35.4232316 L158.839001,35.3673668 L158.839001,35.3673668 L165.102061,35.2713492 L165.102061,35.2713492 L169.194154,35.2200234 L169.194154,35.2200234 L172.91089,35.1896081 L172.91089,35.1896081 L191.222615,35.1858062 L182.72398,46.9565217 L139.618905,46.9565217 C137.851189,46.9565217 136.321434,46.4660753 135.029642,45.4851823 C133.737849,44.5042893 133.091953,43.0785728 133.091953,41.2080328 C133.091953,40.1587054 133.363909,39.1435952 133.907822,38.1627023 C134.451735,37.1818093 135.199615,36.3035679 136.151462,35.5279782 L158.300792,17.9992689 L158.300792,17.9992689 L160.113834,16.5906609 L160.113834,16.5906609 L161.655865,15.4206229 L161.655865,15.4206229 L162.539723,14.7666943 L162.539723,14.7666943 L163.310265,14.2116153 L163.310265,14.2116153 L164.032423,13.705619 L164.032423,13.705619 L164.701435,13.2238409 L164.701435,13.2238409 L165.250787,12.8077598 L165.250787,12.8077598 L163.041142,12.9446286 L163.041142,12.9446286 L161.936999,12.9939013 L161.936999,12.9939013 L160.637048,13.0322246 L160.637048,13.0322246 L158.314541,13.0691792 L158.314541,13.0691792 L155.528349,13.0814974 L155.528349,13.0814974 L131.392226,13.0814974 L140.366784,1.17391304 L182.316046,1.17391304 Z M206.473498,1.17391304 L206.473498,46.9565217 L192.39576,46.9565217 L192.39576,1.17391304 L206.473498,1.17391304 Z M326.134276,1.17391304 L317.044398,13.0814974 L293.641355,13.0814974 C291.741977,13.0814974 289.97827,13.3552349 288.350232,13.9027101 C286.722194,14.4501852 285.308967,15.225775 284.11055,16.2294794 C282.912134,17.2331839 281.973751,18.4079743 281.295402,19.7538507 C280.617052,21.099727 280.277878,22.5938779 280.277878,24.2363034 C280.277878,25.8787288 280.605747,27.3728797 281.261484,28.7187561 C281.917222,30.0646325 282.844299,31.2166114 284.042715,32.1746929 C285.241132,33.1327744 286.654359,33.874147 288.282397,34.3988107 C289.910435,34.9234744 291.696754,35.1858062 293.641355,35.1858062 L310.803586,35.1858062 L310.803586,28.5476701 L287.332708,28.5476701 L295.744237,18.3509456 L324.777577,18.3509456 L324.777577,46.9565217 L293.641355,46.9565217 C289.70693,46.9565217 286.066457,46.3634237 282.719935,45.1772275 C279.373412,43.9910314 276.490429,42.3600117 274.070984,40.2841685 C271.651539,38.2083252 269.752161,35.7446871 268.372852,32.893254 C266.993542,30.041821 266.303887,26.9508676 266.303887,23.6203938 C266.303887,20.2899201 266.993542,17.2445896 268.372852,14.4844024 C269.752161,11.7242152 271.651539,9.35182297 274.070984,7.36722558 C276.490429,5.38262819 279.373412,3.85426009 282.719935,2.78212127 C286.066457,1.70998245 289.70693,1.17391304 293.641355,1.17391304 L326.134276,1.17391304 Z M40.1927343,29.3478261 L14.0777385,29.3478261 L14.0777385,35.2173913 L40.1927343,35.2173913 C41.7463824,35.2173913 42.8659229,34.9621928 43.5513559,34.4517958 C44.2367888,33.9413989 44.5795053,33.1970699 44.5795053,32.2188091 C44.5795053,31.2830813 44.2367888,30.5706522 43.5513559,30.0815217 C42.8659229,29.5923913 41.7463824,29.3478261 40.1927343,29.3478261 Z" id="形状" fill="#02006D"></path>
                        <g id="形状">
                            <use fill="black" fill-opacity="1" filter="url(#filter-3)" xlink:href="#path-2"></use>
                            <path stroke="url(#linearGradient-1)" stroke-width="0.880434783" d="M217.663382,0.440217391 C218.477446,0.440217391 219.30203,0.580516918 220.137419,0.859285012 C220.867053,1.10276271 221.682773,1.62306363 222.584803,2.40060524 L222.584803,2.40060524 L251.568479,28.4409027 L251.568479,1.18771629 L263.51738,1.18771629 L263.51738,38.3942616 C263.51738,39.8262269 263.3153,41.0639625 262.903359,42.105797 C262.497705,43.1317295 261.966416,43.9778974 261.304283,44.6407554 C260.6516,45.2941536 259.883011,45.7681879 258.998765,46.0632595 C258.093813,46.3652408 257.167321,46.5163043 256.219268,46.5163043 C255.361203,46.5163043 254.513931,46.3764023 253.677351,46.0972367 C252.840797,45.8180798 251.913363,45.175135 250.88483,44.1875498 L250.88483,44.1875498 L222.314171,18.5155476 L222.314171,45.7688054 L210.43315,45.7688054 L210.43315,8.49430567 C210.43315,7.06234041 210.63523,5.82460478 211.047171,4.78277029 C211.451618,3.75989076 211.980873,2.92648659 212.641105,2.28685252 C213.295475,1.65289798 214.055427,1.18807444 214.920872,0.892233107 C215.802777,0.59076481 216.716968,0.440217391 217.663382,0.440217391 Z M39.7641548,1.61413043 C42.454741,1.61413043 44.8876615,1.87173274 47.0626293,2.38917293 C49.2103022,2.90011947 51.0492571,3.67528087 52.5772297,4.71955748 C54.0846434,5.74978333 55.2438509,7.02011344 56.0522976,8.53280355 C56.8618218,10.0475099 57.2621411,11.8154732 57.2621411,13.8342757 C57.2621411,15.14823 57.0900808,16.3094966 56.7407762,17.3171086 C56.3916802,18.324119 55.9453826,19.2113002 55.3998613,19.9775864 C54.8618886,20.7332691 54.238434,21.3600821 53.5282286,21.8567305 C52.8124496,22.3572766 52.0861959,22.738944 51.3486545,23.000124 C50.6884956,23.2339011 49.9746153,23.386969 49.2073706,23.4605975 C49.935481,23.5000809 50.6565188,23.6255025 51.3704859,23.8371533 C53.285933,24.4049751 54.9058062,25.5209014 56.2331981,27.1802367 C57.5631896,28.8428216 58.2170264,30.9896003 58.2170264,33.6118152 C58.2170264,35.4732684 57.9313269,37.1910269 57.3570293,38.7645503 C56.7917964,40.3132372 55.8336238,41.6533668 54.4860525,42.7873709 C53.1169907,43.9394596 51.270616,44.8424341 48.952976,45.5068333 C46.7365757,46.1422102 43.9933916,46.4757862 40.7243023,46.512832 L40.1051853,46.5163043 L0.440217391,46.5163043 L0.440217391,19.5439413 L40.3780097,19.5439413 C41.5043008,19.5439413 42.4945283,19.306645 43.3509231,18.8401888 C43.830885,18.578766 44.1907041,18.2037113 44.4306674,17.7152993 C44.6553982,17.2578908 44.7741807,16.6953208 44.7741807,16.0241763 C44.7741807,15.3710506 44.6502469,14.8248487 44.4163787,14.381619 C44.1689116,13.9126165 43.7989672,13.5524151 43.3036514,13.3039283 C42.5234803,12.912537 41.6665393,12.6933785 40.7320709,12.6495086 L40.3780097,12.64128 L0.917296259,12.64128 L9.76011729,1.61413043 L39.7641548,1.61413043 Z M40.1927343,28.9076087 L13.6375211,28.9076087 L13.6375211,35.6576087 L40.1927343,35.6576087 L40.5229427,35.6535931 C42.0338589,35.6161892 43.1244555,35.3185383 43.8142723,34.804877 C44.6080863,34.2137758 45.0197227,33.3571079 45.0197227,32.2188091 C45.0197227,31.1217536 44.6074178,30.2943246 43.8070662,29.7231873 C43.0694474,29.1968167 41.8721018,28.9076087 40.1927343,28.9076087 L40.1927343,28.9076087 Z M74.695302,1.61413043 L74.6939928,14.2654777 L74.694,14.264 L74.6953317,46.5163043 L61.443751,46.5163043 L61.443751,1.61413043 L74.695302,1.61413043 Z M135.191463,1.61413043 L126.719606,12.64128 L110.179624,12.64128 L110.179624,46.5163043 L96.9280269,46.5163043 L96.9280269,12.64128 L75.941,12.641 L84.4159837,1.61413043 L135.191463,1.61413043 Z M182.316046,1.61413043 C183.980214,1.61413043 185.422233,2.07185823 186.63909,2.99585056 C187.824994,3.8963397 188.40278,5.21066114 188.40278,6.92240203 C188.40278,7.89849776 188.147922,8.84212082 187.642138,9.7542524 C187.126801,10.6836116 186.41729,11.493197 185.508756,12.1900555 L185.508756,12.1900555 L168.714883,25.6036528 L165.777411,27.9579045 L163.894207,29.4308316 L159.48023,32.8333121 L158.323297,33.697605 L155.10486,35.9990799 L157.195657,35.8629685 L158.845749,35.8075325 L165.107582,35.711532 L169.197756,35.660226 L172.910981,35.6298255 L190.361673,35.6262024 L182.498854,46.5163043 L139.618905,46.5163043 C137.954736,46.5163043 136.512717,46.0585766 135.29586,45.1345842 C134.109956,44.2340951 133.53217,42.9197736 133.53217,41.2080328 C133.53217,40.231937 133.787029,39.288314 134.292812,38.3761824 C134.81058,37.4424389 135.523597,36.6074316 136.424647,35.8731756 L136.424647,35.8731756 L158.570876,18.3468981 L160.379928,16.941354 L161.917692,15.7745123 L162.797032,15.1238825 L163.562876,14.5721414 L164.289675,14.062848 L164.967226,13.5747638 L166.6791,12.2781833 L163.021517,12.5048489 L161.924027,12.5538751 L160.630045,12.5920629 L158.312595,12.6289661 L155.528349,12.64128 L132.275257,12.64128 L140.586246,1.61413043 Z M206.033281,1.61413043 L206.033281,46.5163043 L192.835977,46.5163043 L192.835977,1.61413043 L206.033281,1.61413043 Z M325.244405,1.61413043 L316.826623,12.64128 L293.641355,12.64128 C291.691472,12.64128 289.881129,12.9234598 288.209917,13.4854534 C286.526857,14.0514314 285.06668,14.8544789 283.827896,15.8919919 C282.582199,16.9352949 281.607363,18.1568239 280.902293,19.5557161 C280.19396,20.9610833 279.837661,22.5209257 279.837661,24.2363034 C279.837661,25.9497272 280.181795,27.5078009 280.865739,28.9115707 C281.550052,30.316097 282.517122,31.5186519 283.767828,32.5185362 C285.005917,33.508334 286.465239,34.275712 288.147368,34.8178077 C289.816427,35.3556913 291.647601,35.6260236 293.641355,35.6260236 L293.641355,35.6260236 L311.243804,35.6260236 L311.243804,28.1074527 L288.266526,28.1074527 L295.951763,18.791163 L324.33736,18.791163 L324.33736,46.5163043 L293.641355,46.5163043 C289.760074,46.5163043 286.168463,45.9325268 282.867007,44.7623045 C279.574907,43.5953987 276.737881,41.9922802 274.357635,39.9500693 C271.984789,37.9142073 270.121891,35.4980884 268.76914,32.7015594 C267.418344,29.9090731 266.744104,26.8818363 266.744104,23.6203938 C266.744104,20.3619612 267.417038,17.3819192 268.766639,14.6811842 C270.118165,11.9765956 271.979493,9.65218247 274.350172,7.7075865 C276.728931,5.75636256 279.564236,4.25538275 282.854244,3.2013494 C286.159612,2.14239557 289.755449,1.61413043 293.641355,1.61413043 L293.641355,1.61413043 L325.244405,1.61413043 Z" stroke-linejoin="square"></path>
                        </g>
                    </g>
                    <g id="编组-3" filter="url(#filter-4)">
                        <path d="M217.663382,0 C218.523196,0 219.394324,0.147234632 220.276765,0.441703895 C221.048901,0.6993645 221.916317,1.24317703 222.879012,2.07314148 L251.128262,27.4535959 L251.128262,0.747498899 L263.957597,0.747498899 L263.957597,38.3942616 C263.957597,39.8892594 263.742644,41.1803939 263.312736,42.267665 C262.882829,43.3549361 262.317162,44.2496697 261.615734,44.9518656 C260.914307,45.6540615 260.088433,46.1637199 259.138111,46.4808406 C258.18779,46.7979614 257.214842,46.9565217 256.219268,46.9565217 C255.3142,46.9565217 254.420446,46.8092871 253.538005,46.5148178 C252.655564,46.2203486 251.671303,45.5521299 250.585221,44.5101617 L222.754388,19.5029258 L222.754388,46.2090228 L209.992933,46.2090228 L209.992933,8.49430567 C209.992933,6.99930787 210.207886,5.70817341 210.637794,4.62090228 C211.067701,3.53363116 211.633368,2.65022337 212.334796,1.97067892 C213.036223,1.29113446 213.850784,0.792801862 214.778479,0.475681117 C215.706173,0.158560372 216.667807,0 217.663382,0 Z M39.7641548,1.17391304 C42.4923987,1.17391304 44.9591859,1.43624488 47.1645164,1.96090856 C49.3698469,2.48557224 51.2568822,3.28397348 52.8256225,4.3561123 C54.3943627,5.42825112 55.5993371,6.75131605 56.4405456,8.32530708 C57.2817542,9.89929811 57.7023585,11.735621 57.7023585,13.8342757 C57.7023585,15.2029635 57.5204755,16.4119711 57.1567097,17.4612985 C56.7929438,18.5106259 56.3268688,19.4344902 55.7584847,20.2328914 C55.1901005,21.0312926 54.5307749,21.6928251 53.7805078,22.2174888 C53.0302408,22.7421525 52.268606,23.1413531 51.4956036,23.4150907 C53.4963158,24.0081887 55.1901005,25.1715734 56.5769578,26.9052447 C57.9638152,28.638916 58.6572438,30.8744395 58.6572438,33.6118152 C58.6572438,35.5279782 58.3616841,37.2958666 57.7705645,38.9154806 C57.179445,40.5350946 56.1790889,41.9379996 54.7694963,43.1241957 C53.3599036,44.3103919 51.4615005,45.2456619 49.0742871,45.9300058 C46.6870737,46.6143498 43.6973731,46.9565217 40.1051853,46.9565217 L0,46.9565217 L0,19.1037239 L40.3780097,19.1037239 C41.4238365,19.1037239 42.3446188,18.887015 43.1403566,18.4535972 C43.9360944,18.0201794 44.3339633,17.2103724 44.3339633,16.0241763 C44.3339633,14.883603 43.9247268,14.1080133 43.1062536,13.6974069 C42.2877804,13.2868005 41.3783658,13.0814974 40.3780097,13.0814974 L0,13.0814974 L9.54885364,1.17391304 L39.7641548,1.17391304 Z M75.1355649,1.17391304 L75.1343443,12.9699747 L84.1990866,1.17391304 L136.084806,1.17391304 L126.936534,13.0814974 L110.619841,13.0814974 L110.619841,46.9565217 L96.4878096,46.9565217 L96.4878096,13.0814974 L75.1343443,13.0814974 L75.1355649,46.9565217 L61.0035336,46.9565217 L61.0035336,1.17391304 L75.1355649,1.17391304 Z M182.316046,1.17391304 C184.083762,1.17391304 185.613516,1.66435952 186.905308,2.64525249 C188.197101,3.62614545 188.842997,5.05186196 188.842997,6.92240203 C188.842997,7.97172938 188.571041,8.98683954 188.027128,9.9677325 C187.483216,10.9486255 186.735336,11.8040554 185.783489,12.5340222 L168.990186,25.9471632 L166.048618,28.3046582 L166.048618,28.3046582 L164.162962,29.7794892 L164.162962,29.7794892 L159.743672,33.1860012 L159.743672,33.1860012 L158.579359,34.0556882 L158.579359,34.0556882 L156.616174,35.4595438 L156.616174,35.4595438 L157.173962,35.4232316 L157.173962,35.4232316 L158.839001,35.3673668 L158.839001,35.3673668 L165.102061,35.2713492 L165.102061,35.2713492 L169.194154,35.2200234 L169.194154,35.2200234 L172.91089,35.1896081 L172.91089,35.1896081 L191.222615,35.1858062 L182.72398,46.9565217 L139.618905,46.9565217 C137.851189,46.9565217 136.321434,46.4660753 135.029642,45.4851823 C133.737849,44.5042893 133.091953,43.0785728 133.091953,41.2080328 C133.091953,40.1587054 133.363909,39.1435952 133.907822,38.1627023 C134.451735,37.1818093 135.199615,36.3035679 136.151462,35.5279782 L158.300792,17.9992689 L158.300792,17.9992689 L160.113834,16.5906609 L160.113834,16.5906609 L161.655865,15.4206229 L161.655865,15.4206229 L162.539723,14.7666943 L162.539723,14.7666943 L163.310265,14.2116153 L163.310265,14.2116153 L164.032423,13.705619 L164.032423,13.705619 L164.701435,13.2238409 L164.701435,13.2238409 L165.250787,12.8077598 L165.250787,12.8077598 L163.041142,12.9446286 L163.041142,12.9446286 L161.936999,12.9939013 L161.936999,12.9939013 L160.637048,13.0322246 L160.637048,13.0322246 L158.314541,13.0691792 L158.314541,13.0691792 L155.528349,13.0814974 L155.528349,13.0814974 L131.392226,13.0814974 L140.366784,1.17391304 L182.316046,1.17391304 Z M206.473498,1.17391304 L206.473498,46.9565217 L192.39576,46.9565217 L192.39576,1.17391304 L206.473498,1.17391304 Z M326.134276,1.17391304 L317.044398,13.0814974 L293.641355,13.0814974 C291.741977,13.0814974 289.97827,13.3552349 288.350232,13.9027101 C286.722194,14.4501852 285.308967,15.225775 284.11055,16.2294794 C282.912134,17.2331839 281.973751,18.4079743 281.295402,19.7538507 C280.617052,21.099727 280.277878,22.5938779 280.277878,24.2363034 C280.277878,25.8787288 280.605747,27.3728797 281.261484,28.7187561 C281.917222,30.0646325 282.844299,31.2166114 284.042715,32.1746929 C285.241132,33.1327744 286.654359,33.874147 288.282397,34.3988107 C289.910435,34.9234744 291.696754,35.1858062 293.641355,35.1858062 L310.803586,35.1858062 L310.803586,28.5476701 L287.332708,28.5476701 L295.744237,18.3509456 L324.777577,18.3509456 L324.777577,46.9565217 L293.641355,46.9565217 C289.70693,46.9565217 286.066457,46.3634237 282.719935,45.1772275 C279.373412,43.9910314 276.490429,42.3600117 274.070984,40.2841685 C271.651539,38.2083252 269.752161,35.7446871 268.372852,32.893254 C266.993542,30.041821 266.303887,26.9508676 266.303887,23.6203938 C266.303887,20.2899201 266.993542,17.2445896 268.372852,14.4844024 C269.752161,11.7242152 271.651539,9.35182297 274.070984,7.36722558 C276.490429,5.38262819 279.373412,3.85426009 282.719935,2.78212127 C286.066457,1.70998245 289.70693,1.17391304 293.641355,1.17391304 L326.134276,1.17391304 Z M40.1927343,29.3478261 L14.0777385,29.3478261 L14.0777385,35.2173913 L40.1927343,35.2173913 C41.7463824,35.2173913 42.8659229,34.9621928 43.5513559,34.4517958 C44.2367888,33.9413989 44.5795053,33.1970699 44.5795053,32.2188091 C44.5795053,31.2830813 44.2367888,30.5706522 43.5513559,30.0815217 C42.8659229,29.5923913 41.7463824,29.3478261 40.1927343,29.3478261 Z" id="形状" fill="url(#linearGradient-5)"></path>
                        <g id="形状">
                            <use fill="black" fill-opacity="1" filter="url(#filter-7)" xlink:href="#path-6"></use>
                            <path stroke="url(#linearGradient-1)" stroke-width="0.880434783" d="M217.663382,0.440217391 C218.477446,0.440217391 219.30203,0.580516918 220.137419,0.859285012 C220.867053,1.10276271 221.682773,1.62306363 222.584803,2.40060524 L222.584803,2.40060524 L251.568479,28.4409027 L251.568479,1.18771629 L263.51738,1.18771629 L263.51738,38.3942616 C263.51738,39.8262269 263.3153,41.0639625 262.903359,42.105797 C262.497705,43.1317295 261.966416,43.9778974 261.304283,44.6407554 C260.6516,45.2941536 259.883011,45.7681879 258.998765,46.0632595 C258.093813,46.3652408 257.167321,46.5163043 256.219268,46.5163043 C255.361203,46.5163043 254.513931,46.3764023 253.677351,46.0972367 C252.840797,45.8180798 251.913363,45.175135 250.88483,44.1875498 L250.88483,44.1875498 L222.314171,18.5155476 L222.314171,45.7688054 L210.43315,45.7688054 L210.43315,8.49430567 C210.43315,7.06234041 210.63523,5.82460478 211.047171,4.78277029 C211.451618,3.75989076 211.980873,2.92648659 212.641105,2.28685252 C213.295475,1.65289798 214.055427,1.18807444 214.920872,0.892233107 C215.802777,0.59076481 216.716968,0.440217391 217.663382,0.440217391 Z M39.7641548,1.61413043 C42.454741,1.61413043 44.8876615,1.87173274 47.0626293,2.38917293 C49.2103022,2.90011947 51.0492571,3.67528087 52.5772297,4.71955748 C54.0846434,5.74978333 55.2438509,7.02011344 56.0522976,8.53280355 C56.8618218,10.0475099 57.2621411,11.8154732 57.2621411,13.8342757 C57.2621411,15.14823 57.0900808,16.3094966 56.7407762,17.3171086 C56.3916802,18.324119 55.9453826,19.2113002 55.3998613,19.9775864 C54.8618886,20.7332691 54.238434,21.3600821 53.5282286,21.8567305 C52.8124496,22.3572766 52.0861959,22.738944 51.3486545,23.000124 C50.6884956,23.2339011 49.9746153,23.386969 49.2073706,23.4605975 C49.935481,23.5000809 50.6565188,23.6255025 51.3704859,23.8371533 C53.285933,24.4049751 54.9058062,25.5209014 56.2331981,27.1802367 C57.5631896,28.8428216 58.2170264,30.9896003 58.2170264,33.6118152 C58.2170264,35.4732684 57.9313269,37.1910269 57.3570293,38.7645503 C56.7917964,40.3132372 55.8336238,41.6533668 54.4860525,42.7873709 C53.1169907,43.9394596 51.270616,44.8424341 48.952976,45.5068333 C46.7365757,46.1422102 43.9933916,46.4757862 40.7243023,46.512832 L40.1051853,46.5163043 L0.440217391,46.5163043 L0.440217391,19.5439413 L40.3780097,19.5439413 C41.5043008,19.5439413 42.4945283,19.306645 43.3509231,18.8401888 C43.830885,18.578766 44.1907041,18.2037113 44.4306674,17.7152993 C44.6553982,17.2578908 44.7741807,16.6953208 44.7741807,16.0241763 C44.7741807,15.3710506 44.6502469,14.8248487 44.4163787,14.381619 C44.1689116,13.9126165 43.7989672,13.5524151 43.3036514,13.3039283 C42.5234803,12.912537 41.6665393,12.6933785 40.7320709,12.6495086 L40.3780097,12.64128 L0.917296259,12.64128 L9.76011729,1.61413043 L39.7641548,1.61413043 Z M40.1927343,28.9076087 L13.6375211,28.9076087 L13.6375211,35.6576087 L40.1927343,35.6576087 L40.5229427,35.6535931 C42.0338589,35.6161892 43.1244555,35.3185383 43.8142723,34.804877 C44.6080863,34.2137758 45.0197227,33.3571079 45.0197227,32.2188091 C45.0197227,31.1217536 44.6074178,30.2943246 43.8070662,29.7231873 C43.0694474,29.1968167 41.8721018,28.9076087 40.1927343,28.9076087 L40.1927343,28.9076087 Z M74.695302,1.61413043 L74.6939928,14.2654777 L74.694,14.264 L74.6953317,46.5163043 L61.443751,46.5163043 L61.443751,1.61413043 L74.695302,1.61413043 Z M135.191463,1.61413043 L126.719606,12.64128 L110.179624,12.64128 L110.179624,46.5163043 L96.9280269,46.5163043 L96.9280269,12.64128 L75.941,12.641 L84.4159837,1.61413043 L135.191463,1.61413043 Z M182.316046,1.61413043 C183.980214,1.61413043 185.422233,2.07185823 186.63909,2.99585056 C187.824994,3.8963397 188.40278,5.21066114 188.40278,6.92240203 C188.40278,7.89849776 188.147922,8.84212082 187.642138,9.7542524 C187.126801,10.6836116 186.41729,11.493197 185.508756,12.1900555 L185.508756,12.1900555 L168.714883,25.6036528 L165.777411,27.9579045 L163.894207,29.4308316 L159.48023,32.8333121 L158.323297,33.697605 L155.10486,35.9990799 L157.195657,35.8629685 L158.845749,35.8075325 L165.107582,35.711532 L169.197756,35.660226 L172.910981,35.6298255 L190.361673,35.6262024 L182.498854,46.5163043 L139.618905,46.5163043 C137.954736,46.5163043 136.512717,46.0585766 135.29586,45.1345842 C134.109956,44.2340951 133.53217,42.9197736 133.53217,41.2080328 C133.53217,40.231937 133.787029,39.288314 134.292812,38.3761824 C134.81058,37.4424389 135.523597,36.6074316 136.424647,35.8731756 L136.424647,35.8731756 L158.570876,18.3468981 L160.379928,16.941354 L161.917692,15.7745123 L162.797032,15.1238825 L163.562876,14.5721414 L164.289675,14.062848 L164.967226,13.5747638 L166.6791,12.2781833 L163.021517,12.5048489 L161.924027,12.5538751 L160.630045,12.5920629 L158.312595,12.6289661 L155.528349,12.64128 L132.275257,12.64128 L140.586246,1.61413043 Z M206.033281,1.61413043 L206.033281,46.5163043 L192.835977,46.5163043 L192.835977,1.61413043 L206.033281,1.61413043 Z M325.244405,1.61413043 L316.826623,12.64128 L293.641355,12.64128 C291.691472,12.64128 289.881129,12.9234598 288.209917,13.4854534 C286.526857,14.0514314 285.06668,14.8544789 283.827896,15.8919919 C282.582199,16.9352949 281.607363,18.1568239 280.902293,19.5557161 C280.19396,20.9610833 279.837661,22.5209257 279.837661,24.2363034 C279.837661,25.9497272 280.181795,27.5078009 280.865739,28.9115707 C281.550052,30.316097 282.517122,31.5186519 283.767828,32.5185362 C285.005917,33.508334 286.465239,34.275712 288.147368,34.8178077 C289.816427,35.3556913 291.647601,35.6260236 293.641355,35.6260236 L293.641355,35.6260236 L311.243804,35.6260236 L311.243804,28.1074527 L288.266526,28.1074527 L295.951763,18.791163 L324.33736,18.791163 L324.33736,46.5163043 L293.641355,46.5163043 C289.760074,46.5163043 286.168463,45.9325268 282.867007,44.7623045 C279.574907,43.5953987 276.737881,41.9922802 274.357635,39.9500693 C271.984789,37.9142073 270.121891,35.4980884 268.76914,32.7015594 C267.418344,29.9090731 266.744104,26.8818363 266.744104,23.6203938 C266.744104,20.3619612 267.417038,17.3819192 268.766639,14.6811842 C270.118165,11.9765956 271.979493,9.65218247 274.350172,7.7075865 C276.728931,5.75636256 279.564236,4.25538275 282.854244,3.2013494 C286.159612,2.14239557 289.755449,1.61413043 293.641355,1.61413043 L293.641355,1.61413043 L325.244405,1.61413043 Z" stroke-linejoin="square"></path>
                        </g>
                    </g>
                </g>
                <g id="graphic备份" filter="url(#filter-8)" transform="translate(158.000000, 5.000000)" fill="url(#linearGradient-9)">
                    <path d="M41.4136808,70.3116801 C41.4136808,70.3116801 36.4487098,74.894545 30.1321635,80.3358317 C24.0193767,85.6015931 18.8882178,89.7262882 18.5635362,89.9869181 L18.5472313,90 C18.5472313,90 23.5122022,85.4171351 29.8287486,79.9758484 C36.1452949,74.5345616 41.4136808,70.3116801 41.4136808,70.3116801 Z M62.309706,10.479643 C61.6468568,11.0494148 61.0668637,11.7164647 60.5697268,12.4529989 L39.9523539,44.1795601 L56.2612068,33.2983085 L42.5570033,50.6416061 L74.1889251,34.0112017 L14.5017054,81.5621486 L33.9314734,44.1795601 L17.7330954,49.8633812 C15.2888389,50.7249873 12.9826759,51.961809 10.9250814,53.5460525 L13.9631404,51.0029248 L61.2878134,11.3273522 L62.309706,10.479643 Z M77.9995428,38.0944293 C78.0684553,38.1361361 70.3364723,44.8648278 62.2737093,51.1069406 C62.0195506,51.302986 61.7655978,51.4993828 61.5120421,51.6959285 L60.7527569,52.28581 C53.8070648,57.6934387 47.3061469,63.0605241 45.2247557,64.1750609 C45.2247557,64.1750609 45.2972475,64.1000523 45.4345633,63.9618536 L45.5679591,63.8281982 C46.2877072,63.1100653 48.0824484,61.3653419 50.406976,59.4343917 C54.0593388,56.4176023 58.552434,52.7335045 61.9429293,50.1615872 C68.3793572,45.2818955 73.602925,40.7636624 77.9995428,38.0944293 Z M62.7557003,6.89994843 C62.7557003,6.89994843 59.9309797,9.90322972 54.4892384,14.7974659 C48.8536438,19.858551 40.4487152,26.9496318 30.686813,35.0418064 C20.338735,43.6180957 15.2023929,47.9054871 10.5693524,51.4102169 L10.0997473,51.7640686 C9.86562892,51.939782 9.63239911,52.1137792 9.39943892,52.2865211 L8.93369462,52.6304676 L8.93369462,52.6304676 C7.06439419,53.9930674 5.20894043,55.300051 3.04885993,56.7599794 L3.06096093,56.7478847 C3.06500156,56.7438556 3.07005757,56.7388209 3.07613418,56.7327827 L3.12488292,56.6845238 C3.49136029,56.3228817 5.19408059,54.665211 8.47675452,51.7962228 C15.6631762,45.5115786 30.2298728,33.1647556 53.4091982,14.3108231 C56.3723855,11.9054172 59.5017329,9.52781956 62.7557003,6.89994843 Z M14.9253235,35.2235852 C6.94868349,42.0218559 0.369546685,47.5029918 0.015033383,47.7982252 L0,47.8107431 C0,47.8107431 6.59972677,42.074118 14.8010609,35.0843467 C21.0924952,29.7223304 26.5145446,25.179702 28.6986883,23.3547479 L28.9202058,23.1697028 C29.3728481,22.7916783 29.6464401,22.5637636 29.711351,22.5097068 L29.7263844,22.4971889 C29.7263844,22.4971889 23.1266576,28.2338139 14.9253235,35.2235852 Z M69.191686,30.9266532 L68.9227495,31.1537149 C64.3328852,35.0262492 60.5133689,38.1095111 60.2316395,38.3366957 L60.2149837,38.3501218 C60.2149837,38.3501218 63.8722165,35.121816 68.5151544,31.1991198 L68.7840908,30.9720581 C73.2839578,27.1754558 77.0433903,24.1374776 77.454569,23.8057198 L77.4757784,23.7898338 C77.2090729,24.0250096 73.6560493,27.15483 69.191686,30.9266532 Z M50.8904411,10.3073285 C44.8570839,15.9492383 39.8892508,20.4516491 39.8892508,20.4516491 L39.9046541,20.4367216 C40.2063379,20.1444286 44.9026812,15.5975017 50.7382234,10.1405725 C56.5737656,4.68364331 61.4125087,0.292716832 61.7235303,0.010653316 L61.7394137,-0.00374815996 C61.7394137,-0.00374815996 56.9237983,4.66541862 50.8904411,10.3073285 Z" id="形状结合"></path>
                </g>
            </g>
        </g>
    </g>
</svg>