<?xml version="1.0" encoding="UTF-8"?>
<svg width="64px" height="64px" viewBox="0 0 64 64" version="1.1" xmlns="http://www.w3.org/2000/svg" xmlns:xlink="http://www.w3.org/1999/xlink">
    <title>9D9F0236-2637-44F4-8A6B-92B25B55500B</title>
    <g id="展示页" stroke="none" stroke-width="1" fill="none" fill-rule="evenodd">
        <g id="3-7" transform="translate(-864.000000, -944.000000)" fill="#F8EF4F" fill-rule="nonzero">
            <g id="twitter-fill备份" transform="translate(864.000000, 944.000000)">
                <path d="M48,0 C56.836556,-1.623249e-15 64,7.163444 64,16 L64,48 C64,56.836556 56.836556,64 48,64 L16,64 C7.163444,64 1.082166e-15,56.836556 0,48 L0,16 C-1.082166e-15,7.163444 7.163444,1.623249e-15 16,0 L48,0 Z M35.8305325,16.3669058 C32.48851,18.1556336 30.7672576,21.9682915 31.636,25.658 C24.9100451,25.3208865 18.6434878,22.1439892 14.396,16.918 C13.6525802,18.1949006 13.2619103,19.6464534 13.264,21.124 C13.264,24.024 14.74,26.586 16.984,28.086 C15.6560176,28.0441924 14.3572648,27.6855611 13.196,27.04 L13.196,27.144 C13.1968264,31.1260716 16.0030288,34.5562463 19.906,35.346 C18.6732301,35.6800738 17.3806134,35.7293163 16.126,35.49 C17.220254,38.8983661 20.3609028,41.2335555 23.94,41.3 C20.4358832,44.0520388 15.98148,45.2982068 11.558,44.764 C15.3813956,47.2228656 19.8321936,48.5282478 24.378,48.5240206 C39.764,48.5240206 48.178,35.778 48.178,24.724 C48.178,24.364 48.168,24 48.152,23.644 C49.7897282,22.4603353 51.2031975,20.9940388 52.326,19.314 C50.7971139,19.9873875 49.1779202,20.4309468 47.52,20.628 C49.2675016,19.5828666 50.575411,17.9380285 51.2,16 C49.56,16.976 47.762,17.66 45.888,18.03 C43.299699,15.260639 39.1725551,14.5781781 35.8305325,16.3669058 Z" id="形状结合"></path>
            </g>
        </g>
    </g>
</svg>