<svg width="20" height="20" viewBox="0 0 20 20" fill="none" xmlns="http://www.w3.org/2000/svg">
    <g clip-path="url(#hdwn12ayza)">
        <path fill="#000" fill-opacity=".01" d="M0 0h20v20H0z"/>
        <path d="M12.389 3.13a.594.594 0 0 1-.593.594h-7.25a.594.594 0 0 1-.593-.593v-.798c0-.327.266-.593.593-.593H6.43a.422.422 0 0 0 .422-.422A1.32 1.32 0 0 1 8.17 0a1.32 1.32 0 0 1 1.318 1.318c0 .233.189.422.422.422h1.885c.327 0 .593.266.593.593v.798z" fill="#13151F"/>
        <path fill-rule="evenodd" clip-rule="evenodd" d="M9.858 17.47v1.265c0 .476.165.912.433 1.265H2.265A1.267 1.267 0 0 1 1 18.735V3.549c0-.698.568-1.265 1.265-1.265h.85c-.002.017-.006.032-.006.05v.797c0 .792.645 1.436 1.437 1.436h7.25c.792 0 1.437-.644 1.437-1.436v-.798c0-.01-.002-.019-.003-.028V2.3a.175.175 0 0 1-.002-.016h.848c.698 0 1.266.567 1.266 1.265v7.171h-3.375c-1.163 0-2.109.946-2.109 2.11v.42H7.74a.422.422 0 1 0 0 .845h2.12v2.53h-2.12a.422.422 0 1 0 0 .844h2.12zm2.1-10.968H7.738a.422.422 0 1 0 0 .844h4.218a.422.422 0 1 0 0-.844zm0 3.374H7.738a.422.422 0 1 0 0 .844h4.218a.422.422 0 1 0 0-.844zm-6.8 7.977.85-.85a.42.42 0 1 0-.596-.596l-.552.551-.178-.178a.421.421 0 1 0-.596.597l.476.476a.42.42 0 0 0 .597 0zm0-3.375.85-.85a.42.42 0 1 0-.596-.595l-.552.55-.178-.177a.421.421 0 1 0-.596.596l.476.476a.42.42 0 0 0 .597 0zm0-3.374.85-.85a.42.42 0 1 0-.596-.596l-.552.551-.178-.178a.421.421 0 1 0-.596.597l.476.476a.42.42 0 0 0 .597 0zm0-3.375.85-.85a.42.42 0 1 0-.596-.595l-.552.55-.178-.177a.421.421 0 1 0-.596.596l.476.476a.42.42 0 0 0 .597 0z" fill="#13151F"/>
        <path d="M14.92 13.673c.081 0 .163.023.234.07l.61.407v-2.586h-1.688v2.586l.61-.406a.422.422 0 0 1 .234-.071z" fill="#13151F"/>
        <path d="M16.607 11.564h1.266c.697 0 1.265.567 1.265 1.265v5.906c0 .697-.567 1.265-1.265 1.265h-5.905a1.267 1.267 0 0 1-1.266-1.265v-5.906c0-.698.568-1.265 1.266-1.265h1.265v3.374a.422.422 0 0 0 .656.351l1.03-.687 1.032.687a.425.425 0 0 0 .433.021.422.422 0 0 0 .223-.372v-3.374z" fill="#13151F"/>
        <path fill="#000" fill-opacity=".01" d="M0 0h20v20H0z"/>
    </g>
    <defs>
        <clipPath id="hdwn12ayza">
            <path fill="#fff" d="M0 0h20v20H0z"/>
        </clipPath>
    </defs>
</svg>
