<svg width="20" height="20" viewBox="0 0 20 20" fill="none" xmlns="http://www.w3.org/2000/svg">
    <g clip-path="url(#n8w37ng4pa)">
        <path fill="#000" fill-opacity=".01" d="M0 0h20v20H0z"/>
        <path d="M12.59 12.95c-.2-.208-.45-.393-.744-.554a9.427 9.427 0 0 0-1.216-.528c-.514-.186-.883-.39-1.098-.602-.216-.213-.322-.494-.322-.845 0-.391.11-.691.327-.901.215-.21.52-.315.908-.315.392 0 .701.146.929.438.23.29.342.691.342 1.197h1.465c0-.791-.193-1.434-.576-1.925-.379-.496-.926-.795-1.627-.893V6.69h-.97v1.32c-.699.08-1.253.335-1.658.767-.409.433-.612.984-.612 1.654 0 .988.468 1.731 1.41 2.237.283.156.676.32 1.187.499.508.18.87.38 1.09.604.217.225.326.509.326.852 0 .365-.12.661-.36.884-.24.222-.59.335-1.05.335-.468 0-.83-.142-1.087-.418-.256-.278-.384-.676-.384-1.182H7.399c0 .799.216 1.44.647 1.925.427.483 1.044.77 1.843.857V18.2h.96V17.02c.749-.077 1.33-.327 1.746-.75.417-.425.626-.975.626-1.658 0-.364-.054-.68-.163-.95a2.255 2.255 0 0 0-.467-.711zM5.623 1.354a.54.54 0 0 1 .132-.409c.043-.045.175-.184.548-.184.238 0 .502.052.781.107l.055.011c.29.06.59.12.846.12.106 0 .201-.01.32-.04.274-.084.537-.261.827-.466C9.478.25 9.837 0 10.21 0c.375 0 .733.25 1.078.492.29.205.554.382.837.468.286.082.73.006 1.162-.082.263-.056.566-.117.827-.117.376 0 .503.136.542.178.101.11.147.246.14.414-.023.508-.584 1.357-1.505 2.293H7.124c-.918-.934-1.48-1.783-1.502-2.292zM10.204 20C6.359 20 2 20 2 15.14c0-3.061 2.085-8.043 5.092-10.425h6.234c3.01 2.385 5.09 7.365 5.082 10.425 0 4.86-4.358 4.86-8.204 4.86z" fill="#13151F"/>
        <path fill="#000" fill-opacity=".01" d="M0 0h20v20H0z"/>
    </g>
    <defs>
        <clipPath id="n8w37ng4pa">
            <path fill="#fff" d="M0 0h20v20H0z"/>
        </clipPath>
    </defs>
</svg>
