<svg width="20" height="20" viewBox="0 0 20 20" fill="none" xmlns="http://www.w3.org/2000/svg">
    <g clip-path="url(#fh92boy61a)">
        <path fill="#000" fill-opacity=".01" d="M0 0h20v20H0z"/>
        <path fill-rule="evenodd" clip-rule="evenodd" d="M2.417 0H14.25v2.835c0 .39.318.709.709.709h2.835v16.04c0 .229-.187.416-.416.416H2.417A.417.417 0 0 1 2 19.583V.417C2 .187 2.187 0 2.417 0zm10.2 8.719a.468.468 0 1 0-.937 0 .468.468 0 0 0 .937 0zm-3.071 0a.468.468 0 1 0-.936 0 .468.468 0 0 0 .936 0zm3.87-1.277H8.561a.447.447 0 0 1-.448-.4l-.023-.204h4.26c.416 0 .702-.288.782-.683l.572-2.61c.104-.472-.258-.826-.731-.826H7.625l-.026-.23a1.157 1.157 0 0 0-1.146-1.027h-.076a.352.352 0 1 0 0 .704h.076c.231 0 .423.169.448.4l.513 4.553c.066.582.561 1.026 1.147 1.026h4.855a.352.352 0 0 0 0-.703zm-5.725-4.14.067.591h1.08l-.066-.591h-1.08zm.132 1.174.065.572h1.081l-.064-.572H7.823zm.13 1.155.07.624h1.082l-.07-.624H7.954zm1.738.624h1.469l.07-.624H9.62l.07.624zm1.605-1.207.064-.572H9.49l.065.572h1.74zm.13-1.155.066-.591H9.358l.066.591h2.002zm.32 2.362h.604c.134 0 .187-.098.21-.217l.09-.407h-.834l-.07.624zm1.032-1.207.125-.572h-.957l-.065.572h.897zm.253-1.155.102-.465c.023-.103-.071-.126-.16-.126h-.895l-.066.591h1.02zm-9.193 9.279a.292.292 0 0 0-.292.291v1.68c0 .16.13.29.292.29h1.678c.162 0 .292-.13.292-.29v-1.68a.292.292 0 0 0-.292-.291H3.838zm1.387.583H4.13v1.095h1.095v-1.095zm1.275.84h9.456a.292.292 0 1 0 0-.584H6.5a.292.292 0 1 0 0 .583zM3.838 9.853a.292.292 0 0 0-.292.291v1.679c0 .161.13.292.292.292h1.678c.162 0 .292-.131.292-.292v-1.679a.292.292 0 0 0-.292-.291H3.838zm1.387.583H4.13v1.095h1.095v-1.095zm1.275.84h9.456a.292.292 0 1 0 0-.584H6.5a.292.292 0 1 0 0 .583zm0 6.762h9.456a.292.292 0 1 0 0-.583H6.5a.292.292 0 1 0 0 .583zm-2.662-1.55a.292.292 0 0 0-.292.293v1.678c0 .161.13.292.292.292h1.678c.162 0 .292-.13.292-.292v-1.678a.292.292 0 0 0-.292-.292H3.838zm1.387.584H4.13v1.095h1.095v-1.095zM14.834.292v2.543c0 .069.056.125.125.125h2.543L14.834.292z" fill="#E4E7F5" fill-opacity=".9"/>
        <path fill="#000" fill-opacity=".01" d="M0 0h20v20H0z"/>
    </g>
    <defs>
        <clipPath id="fh92boy61a">
            <path fill="#fff" d="M0 0h20v20H0z"/>
        </clipPath>
    </defs>
</svg>
