<svg width="19" height="19" viewBox="0 0 19 19" fill="none" xmlns="http://www.w3.org/2000/svg">
    <path d="m18.9 11.634-1.284-1.423-1.424 1.284a.391.391 0 1 0 .524.581l.46-.414a6.87 6.87 0 0 1-7.516 5.84.39.39 0 1 0-.082.778c.273.029.545.043.814.043 3.767 0 7.026-2.786 7.56-6.57l.366.405a.39.39 0 1 0 .582-.524zM10.036 9.317v.391h8.22v-.391c0-1.898-1.294-3.5-3.045-3.97a2.39 2.39 0 0 0 1.322-2.136A2.39 2.39 0 0 0 14.146.824a2.39 2.39 0 0 0-2.388 2.387 2.39 2.39 0 0 0 1.322 2.136 4.117 4.117 0 0 0-3.044 3.97zM10.861 1.745 9.61.294a.391.391 0 1 0-.593.512l.337.39C5.223.89 1.577 3.951 1.183 8.092a.392.392 0 0 0 .78.075 6.866 6.866 0 0 1 7.425-6.184l-.49.422a.391.391 0 0 0 .512.592l1.451-1.253zM5.27 14.075a2.39 2.39 0 0 0 1.322-2.136A2.39 2.39 0 0 0 4.204 9.55a2.39 2.39 0 0 0-2.387 2.388 2.39 2.39 0 0 0 1.322 2.136 4.117 4.117 0 0 0-3.044 3.97v.391h8.22v-.391c0-1.898-1.294-3.5-3.046-3.97z" fill="#13151F"/>
</svg>
