<svg width="20" height="20" viewBox="0 0 20 20" fill="none" xmlns="http://www.w3.org/2000/svg">
    <g clip-path="url(#rg12mx1r4a)">
        <path fill="#000" fill-opacity=".01" d="M0 0h20v20H0z"/>
        <path d="M14.1 9.792a.314.314 0 0 0-.377.02 6.206 6.206 0 0 1-3.727 1.215c-1.403 0-2.68-.46-3.727-1.214a.352.352 0 0 0-.377-.021c-2.47 1.591-3.706 4.711-3.706 8.292 0 2.47 15.62 2.47 15.62 0 0-3.58-1.235-6.7-3.706-8.292z" fill="#13151F"/>
        <path d="M14.665 4.724a4.67 4.67 0 1 1-9.339 0 4.67 4.67 0 0 1 9.34 0z" fill="#13151F"/>
    </g>
    <defs>
        <clipPath id="rg12mx1r4a">
            <path fill="#fff" d="M0 0h20v20H0z"/>
        </clipPath>
    </defs>
</svg>
