<svg width="20" height="20" viewBox="0 0 20 20" fill="none" xmlns="http://www.w3.org/2000/svg">
    <g clip-path="url(#0a8mj1v0ma)">
        <path fill="#000" fill-opacity=".01" d="M0 0h20v20H0z"/>
        <path d="M2.51 4.678a1.717 1.717 0 0 1 1.717-1.635h11.547a1.716 1.716 0 0 1 1.718 1.635l.034.674a7.152 7.152 0 0 1-2.56 3.422A6.899 6.899 0 0 1 12.17 9.93h-.003a2.168 2.168 0 0 0-4.333 0H7.83a6.898 6.898 0 0 1-2.796-1.156 7.153 7.153 0 0 1-2.56-3.422l.034-.674zm7.49 7.93a1.306 1.306 0 0 1-1.304-1.304V10a1.304 1.304 0 1 1 2.609 0v1.304A1.306 1.306 0 0 1 10 12.61zM.296 14.766l.34-2.552a1.55 1.55 0 0 1 .686-1.087l-.252 5.196a1.538 1.538 0 0 1-.774-1.557zm16.874 4.213A3.252 3.252 0 0 1 14.787 20H5.213a3.286 3.286 0 0 1-3.282-3.448l.456-9.382a7.638 7.638 0 0 0 2.144 2.317 7.899 7.899 0 0 0 3.296 1.326v.491a2.174 2.174 0 1 0 4.347 0v-.491a7.9 7.9 0 0 0 3.296-1.326 7.637 7.637 0 0 0 2.143-2.317l.457 9.382a3.236 3.236 0 0 1-.9 2.426zm1.76-2.656-.251-5.196a1.55 1.55 0 0 1 .687 1.087l.339 2.552a1.539 1.539 0 0 1-.774 1.557zM13.005 2.174h-.887A1.735 1.735 0 0 0 10.435.87h-.87a1.735 1.735 0 0 0-1.682 1.304h-.887A2.604 2.604 0 0 1 9.566 0h.87a2.604 2.604 0 0 1 2.569 2.174z" fill="#13151F"/>
        <path fill="#000" fill-opacity=".01" d="M0 0h20v20H0z"/>
    </g>
    <defs>
        <clipPath id="0a8mj1v0ma">
            <path fill="#fff" d="M0 0h20v20H0z"/>
        </clipPath>
    </defs>
</svg>
