<svg width="20" height="20" viewBox="0 0 20 20" fill="none" xmlns="http://www.w3.org/2000/svg">
    <g clip-path="url(#3rmklbyp3a)">
        <path fill="#000" fill-opacity=".01" d="M0 0h20v20H0z"/>
        <path d="M3.985 1.18h12.02c.02-.195.04-.386.053-.585a.506.506 0 0 0-.5-.54H4.437a.499.499 0 0 0-.37.163.487.487 0 0 0-.13.377c.011.2.027.39.047.585zM6.764 15.021l-.143 2.246s0 .008.004.012.008.004.012.004h6.714s.008 0 .012-.004.004-.012.004-.012l-.143-2.246a.54.54 0 0 0-.505-.5H7.27a.536.536 0 0 0-.505.5zM12.059 13.292l-.573-.47c-.016-.011-.031-.023-.051-.035a.733.733 0 0 1-.338-.552l-.195-2.294c-.298.064-.6.1-.906.1-.306 0-.609-.032-.907-.1l-.198 2.35a.726.726 0 0 1-.295.524l-.644.489a.572.572 0 0 0-.222.453v.235h4.54v-.255a.582.582 0 0 0-.211-.445zM15.938 1.712H4.053c.286 2.024.946 3.86 1.908 5.264 1.117 1.633 2.552 2.532 4.035 2.532 1.482 0 2.917-.903 4.034-2.533.963-1.403 1.626-3.239 1.909-5.263zM15.433 17.804H4.558a.727.727 0 0 0-.724.727v1.403h12.323v-1.403a.724.724 0 0 0-.724-.727z" fill="#13151F"/>
    </g>
    <defs>
        <clipPath id="3rmklbyp3a">
            <path fill="#fff" d="M0 0h20v20H0z"/>
        </clipPath>
    </defs>
</svg>
