<svg width="20" height="20" viewBox="0 0 20 20" fill="none" xmlns="http://www.w3.org/2000/svg">
    <g clip-path="url(#502h3d28aa)">
        <path fill="#000" fill-opacity=".01" d="M0 0h20v20H0z"/>
        <path d="m19.155 11.593-.6-.647c.07-.626.07-1.258 0-1.884l.6-.643c.358-.382 1-.887.8-1.369l-.822-1.998c-.2-.481-1.015-.381-1.536-.4l-.885-.031a8.642 8.642 0 0 0-1.327-1.33l-.028-.886c-.016-.52.086-1.337-.4-1.536L12.96.039c-.48-.2-.989.45-1.369.8l-.645.6a8.483 8.483 0 0 0-1.886 0l-.641-.6c-.38-.356-.887-1-1.369-.8L5.052.862c-.481.2-.38 1.017-.4 1.536l-.031.883A8.643 8.643 0 0 0 3.288 4.61l-.883.028c-.52.016-1.337-.086-1.536.4l-.83 1.997c-.2.48.45.987.8 1.367l.6.645c-.07.627-.07 1.26 0 1.886l-.6.643c-.356.38-1 .885-.8 1.367l.822 1.998c.2.481 1.017.381 1.538.4l.881.03c.394.491.84.939 1.33 1.334l.027.88c.016.52-.086 1.34.4 1.54l1.997.828c.48.2.987-.45 1.367-.799l.647-.6c.626.07 1.257.07 1.882 0l.643.6c.382.358.886 1 1.367.8l1.998-.822c.481-.2.381-1.015.4-1.538l.03-.883c.491-.393.939-.839 1.334-1.329l.883-.028c.52-.016 1.339.086 1.538-.4l.83-1.997c.207-.472-.444-.98-.798-1.363zm-9.138 3.137c-2.53 0-4.577-2.12-4.577-4.735S7.488 5.26 10.017 5.26c2.53 0 4.578 2.12 4.578 4.735s-2.048 4.735-4.578 4.735z" fill="#E4E7F5" fill-opacity=".9"/>
    </g>
    <defs>
        <clipPath id="502h3d28aa">
            <path fill="#fff" d="M0 0h20v20H0z"/>
        </clipPath>
    </defs>
</svg>
