<svg width="24" height="24" viewBox="0 0 24 24" fill="none" xmlns="http://www.w3.org/2000/svg">
    <path d="M.8 12.4a11.6 11.6 0 1 1 23.2 0 11.6 11.6 0 0 1-23.2 0z" fill="#716882" fill-opacity=".6"/>
    <path d="M.8 11.6a11.6 11.6 0 1 1 23.2 0 11.6 11.6 0 0 1-23.2 0z" fill="#716882" fill-opacity=".6"/>
    <path d="M.968 11.6a11.432 11.432 0 1 1 22.864 0 11.432 11.432 0 0 1-22.864 0z" fill="#716882" fill-opacity=".6"/>
    <path d="M2.664 11.6a9.736 9.736 0 1 1 19.472 0 9.736 9.736 0 0 1-19.472 0z" fill="#716882" fill-opacity=".6"/>
    <path d="M2.896 11.6a9.504 9.504 0 1 1 19.008 0 9.504 9.504 0 0 1-19.008 0z" fill="#716882" fill-opacity=".18"/>
    <path fill-rule="evenodd" clip-rule="evenodd" d="M11.478 5.008c-.014.007-.195.04-.402.075-.74.125-1.664.502-1.78.727-.065.125-.016.621.08.818l.047.093-.065.017c-.19.047-.378.253-.557.61-.434.864-.457.995-.274 1.535.186.548.466.919.753.996.314.084 1.17.078 1.347-.01.123-.061.13-.167-.075 1.04-.079.463-.146 1.072-.121 1.097.02.02.053-.06.123-.296l.056-.191.045.178c.07.27.048 1.653-.03 1.95-.038.14-.576.684-1.118 1.128-.25.205-.46.387-.466.405-.007.017-.257.136-.555.265-.635.273-.778.349-.823.435-.059.114-.68 2.088-.663 2.106.03.03.05-.026.368-1.019.387-1.21.356-1.137.486-1.137.188 0 .72.313 1.028.606.102.097.114.104.069.038-.126-.185-.49-.459-.82-.619l-.208-.1.124-.054c.565-.245 1.01-.43 1.032-.43.03 0 .442.28.659.449a.9.9 0 0 1 .195.206l.054.096-.099.11-.1.11.425.525.598.738c.096.117.213.275.261.35.07.108.101.136.155.136.078 0 .106.042-.26-.393-.14-.168-.447-.544-.681-.834l-.426-.528.4-.407c.22-.223.407-.406.415-.406.008 0 .097.147.197.325.219.386.576.967 1.047 1.703l.347.54h1.46l.03-.108a7.57 7.57 0 0 0 .287-1.894c.002-.228.006-.414.009-.414.002 0 .126.097.274.216.149.118.315.247.37.286.113.081.126.114.126.334.001.424-.144 1.029-.373 1.549-.007.017.004.031.025.031.023 0 .057-.049.083-.12.067-.182.093-.192.083-.032-.008.137-.007.14.065.148.095.01.116-.027.103-.185-.008-.096-.005-.112.012-.065a.634.634 0 0 1 .025.159c.002.076.013.095.051.095.063 0 .079-.047.079-.24 0-.12.01-.165.038-.176.03-.01.038.005.039.067 0 .154.032.35.056.35.032 0-.001-.451-.037-.52-.036-.068-.027-.508.018-.87.04-.316.05-.512.024-.486-.019.018-.1.584-.126.884-.01.118-.024.201-.03.184-.016-.045-.084-.04-.143.013-.049.043-.05.042-.033-.02a4.17 4.17 0 0 0 .092-.791v-.245l-.228-.174c-.188-.143-.226-.184-.214-.226a2.74 2.74 0 0 1 .264-.433c.011-.006.118.054.238.134.19.127.219.156.22.222l.003.077.027-.064.027-.064.034.08c.042.098.23.99.355 1.675.05.28.097.535.104.566.024.124.067.058.05-.076-.049-.363-.402-2.084-.45-2.19-.02-.044-.133-.14-.294-.25-.143-.097-.267-.198-.275-.224a.228.228 0 0 0-.084-.091 13.86 13.86 0 0 1-1.048-.864 2.96 2.96 0 0 0-.388-.318l-.146-.087v-.429l.578.024c1.084.043 1.44.024 1.801-.093.24-.079.329-.166.329-.327 0-.101.01-.133.045-.144.07-.023.085-.134.026-.193-.05-.05-.05-.051.025-.27.152-.441.057-.995-.29-1.688-.06-.122-.073-.186-.086-.42a6.267 6.267 0 0 0-.025-.343c-.01-.06.008-.078.151-.162.089-.052.217-.15.285-.22.068-.069.247-.235.398-.368.5-.445.703-.83.704-1.335 0-.24-.071-.487-.185-.638-.213-.28-.785-.244-1.138.072-.072.064-.104.082-.092.05.037-.098.113-.413.13-.536.016-.127.015-.129-.14-.33-.188-.244-.355-.486-.355-.514 0-.012.034-.043.075-.07.096-.065.077-.094-.04-.061-.11.03-.133.016-.047-.03.072-.039.086-.086.019-.066-.025.007-.142.037-.261.066l-.267.068c-.028.008.026-.045.12-.119.095-.073.173-.149.173-.168 0-.047.01-.05-.272.08-.222.104-.552.215-.635.215-.017 0-.043-.038-.059-.084a.503.503 0 0 0-.34-.346 9.458 9.458 0 0 1-.31-.105c-.13-.048-.184-.053-.38-.04-.22.016-.234.013-.436-.074-.296-.126-.994-.272-1.091-.228zm-.203.115a4.59 4.59 0 0 1-.191.032 1.451 1.451 0 0 0-.282.102c-.237.11-.612.23-.85.273-.21.038-.493.172-.572.272-.064.08-.061.222.01.603.052.278.107.333.308.308l.146-.018-.015-.091c-.024-.144.077-.515.14-.515.028 0 .028.004-.017.11-.04.098-.053.348-.017.348.012 0 .044-.049.07-.108.062-.137.211-.326.328-.415.137-.105.134-.058-.005.081-.15.15-.24.384-.218.569.012.1.029.127.135.21l.121.094.108-.184c.271-.463.678-.96.785-.96.042 0 .043-.001-.156.204-.328.338-.39.447-.1.175a2.1 2.1 0 0 1 .653-.45c.16-.078.449-.252.66-.397l.16-.11-.146-.045a.574.574 0 0 0-.267-.026c-.171.025-.642.183-.77.258-.119.07-.148.042-.037-.035.038-.027.19-.108.336-.18l.268-.13-.242.002a2.635 2.635 0 0 0-.343.023zm1.863.328c.052.05.157.168.233.263.151.187.158.19.383.137.136-.032.14-.035.14-.12 0-.092-.021-.102-.4-.187-.1-.022-.088-.067.012-.05.057.009.04-.004-.057-.041-.077-.03-.2-.063-.273-.074l-.133-.019.095.091zm-.401-.05c-.049.01-.15.047-.225.08l-.136.061.174.12c.096.066.225.182.287.258l.113.138.116-.036c.074-.022.149-.044.224-.064.132-.034.135-.007-.032-.243-.196-.279-.325-.356-.521-.314zm-.636.252c-.077.025-.24.093-.364.15-.257.121-.252.085-.043.398.066.1.134.207.15.24.04.075.065.056.251-.204.172-.24.217-.259.142-.057-.006.015.099-.001.242-.038l.254-.064L12.678 6c-.162-.235-.353-.409-.43-.394-.005 0-.07.022-.148.046zm2.494.146a2.1 2.1 0 0 1-.548.176 4.609 4.609 0 0 0-.425.114c-.122.04-.332.085-.468.1-.895.1-1.055.158-1.383.501-.088.092-.2.184-.248.204a1.48 1.48 0 0 0-.244.16c-.168.13-.482.306-.549.307-.108.001-.11.023-.041.472.12.793.138.937.154 1.257.018.344-.015.68-.13 1.322-.08.445-.189 1.153-.179 1.163.004.004.045-.147.09-.335.045-.19.093-.35.106-.358.032-.02.027.053-.012.203-.054.204.047.513.416 1.273l.074.153v-.102c0-.056-.014-.282-.031-.503-.019-.238-.022-.397-.008-.393.013.005.078.15.144.325.066.174.15.38.185.457l.065.14-.003-.319c-.006-.541.044-.673.624-1.637l.397-.66-.107-.106a1.015 1.015 0 0 1-.17-.244.604.604 0 0 0-.083-.146c-.03-.014-.094-.15-.095-.2 0-.04-.024-.046-.211-.046-.188 0-.224-.008-.315-.068-.23-.152-.325-.544-.223-.912l.09-.34c.094-.36.284-.673.635-1.043.44-.462.623-.462.982.004.352.458.426.54.57.642.534.374.729.274 1.21-.619.202-.377.336-.478.457-.344.06.066.08.694.04 1.23a4.475 4.475 0 0 0-.019.338c.014.014.27-.91.298-1.079l.031-.182-.14-.174a5.384 5.384 0 0 1-.25-.34l-.117-.173c-.004-.005-.031.005-.062.021-.062.033-.11.009-.05-.026.132-.075.142-.1.037-.084a.97.97 0 0 0-.184.049c-.1.04-.11.002-.013-.054.069-.04.069-.04.007-.026-.035.009-.127.029-.204.045a.75.75 0 0 0-.239.1c-.1.073-.143.089-.142.053 0-.01.098-.092.216-.181.273-.205.278-.214.065-.115zm-3.272.213c-.105.075-.366.39-.366.443 0 .066.103.188.233.278l.14.096.175-.116c.097-.063.185-.118.195-.122.034-.012-.22-.651-.26-.652a.725.725 0 0 0-.117.073zm1.162.473c-.105.045-.424.364-.608.607-.566.748-.46 1.658.205 1.755.104.015.132.009.203-.045.117-.087.215-.111.584-.146.29-.027.33-.037.382-.093l.058-.062-.243.013c-.483.027-.736-.05-.998-.305-.146-.142-.147-.143-.1-.197.027-.03.08-.111.12-.181.137-.242.4-.547.534-.618.07-.037-.091-.066-.28-.05-.147.012-.183-.016-.074-.057.274-.105.7.058 1.334.508.09.065.2.134.241.154l.077.035-.072.01a.172.172 0 0 1-.113-.025c-.036-.03-.038-.027-.02.018a.52.52 0 0 1 .002.358c-.026.062-.03.087-.01.068.018-.018.04-.032.052-.032.01 0 .014.014.007.032-.009.023.034.032.163.033l.175.002.014-.132a.724.724 0 0 1 .053-.21c.073-.14.094-.285.041-.285-.024 0-.053.026-.063.058l-.018.057-.018-.064c-.018-.063-.018-.063-.047.02-.039.109-.068.105-.05-.007.012-.07.006-.09-.024-.09-.168 0-.534-.298-.826-.673-.388-.498-.465-.55-.681-.456zm2.584.043a3.586 3.586 0 0 0-.183.311c-.157.293-.236.41-.408.594a.64.64 0 0 0-.156.235l-.017.085.112-.088c.062-.049.13-.106.151-.127.17-.168.493-.374.598-.381.119-.008.13-.003.072.038-.051.036-.052.042-.016.146.06.172.034.556-.05.72-.068.134-.254.325-.344.353-.047.015-.377-.052-.498-.1-.037-.016-.045-.01-.038.028.013.067.384.214.56.221.127.005.134.002.214-.102.107-.139.178-.331.212-.577.034-.245.036-1.286.003-1.374-.036-.095-.135-.087-.212.018zm-4.245.012c-.142.16-.198.38-.136.527l.036.087.186-.082c.31-.136.3-.125.202-.224-.103-.103-.206-.26-.206-.314 0-.05-.034-.048-.082.006zm-1.514.3c-.196.099-.3.234-.504.659-.359.749-.366.782-.252 1.226.12.47.39.92.62 1.038.269.136 1.312.164 1.437.04.044-.045.002-.05-.113-.016-.163.048-.38.073-.38.043 0-.014.054-.032.12-.041.184-.025.39-.087.4-.122.005-.016.016-.06.024-.098l.015-.067-.173.088c-.382.196-.874.125-1.218-.177-.05-.044-.109-.08-.13-.081-.044 0-.15-.132-.125-.156.01-.01.041.01.07.044l.054.06-.053-.08c-.273-.412-.285-1.237-.025-1.684l.05-.085-.079.066c-.1.085-.14.086-.085.003.048-.073.42-.368.549-.435.089-.046.332-.061.465-.03l.077.018-.077-.036c-.197-.093-.568-.018-.77.155-.124.106-.144.077-.028-.04a.805.805 0 0 1 .409-.207l.133-.029-.113-.059c-.143-.074-.141-.074-.298.004zm1.194.19c-.027.044-.023.063.025.127.07.096.074.095.054-.006-.03-.16-.043-.178-.079-.12zm5.594.114c-.105.033-.233.126-.233.169 0 .01.075-.015.165-.058.284-.132.566-.125.7.017.082.087.044.11-.05.03-.164-.138-.475-.106-.79.08-.236.139-.234.188.002.07.28-.138.732-.16.707-.034a.263.263 0 0 0 .037.113.37.37 0 0 1 .043.127c0 .034.006.037.022.013.08-.126.131.235.069.48-.05.191-.106.271-.08.112.015-.097.013-.096-.043.04-.154.364-.78 1.1-1.084 1.274-.082.047-.104.075-.104.13 0 .038.005.07.013.07.066 0 .274-.153.497-.366.147-.142.296-.283.445-.423.214-.2.353-.406.439-.646.136-.383.07-.946-.132-1.129-.12-.107-.4-.138-.623-.069zm-3.43.143c-.112.032-.303.23-.447.46-.178.286-.187.264.114.283.249.016.606.066.77.108l.074.019-.08-.074c-.112-.106-.128-.18-.046-.218.072-.032.087-.072.028-.072-.067 0-.013-.07.1-.13.105-.055.111-.056.2-.014.28.133.187.495-.128.501-.056.002-.038.014.082.06.178.067.213.057.308-.087.084-.126.071-.21-.057-.384-.192-.263-.704-.515-.918-.452zm2.23.07c-.195.13-.639.54-.674.623-.094.225.49.373.734.187.163-.125.224-.262.224-.51.001-.358-.075-.438-.284-.3zm-5.669.048c-.244.296-.349 1.015-.21 1.449.16.506.503.756 1.035.756.318 0 .425-.035.617-.207l.11-.097-.019-.265-.017-.266-.063.133c-.107.227-.49.571-.558.502-.018-.018-.022-.015.126-.1.143-.082.296-.253.41-.46l.083-.15-.036-.256c-.035-.245-.042-.265-.165-.43-.147-.2-.184-.208-.384-.07-.415.285-.52.811-.224 1.127.082.087.026.093-.06.006-.269-.268-.209-.767.127-1.075.17-.154.167-.17-.043-.263-.342-.152-.706-.017-.807.3-.043.134-.088.174-.067.06a.653.653 0 0 1 .282-.394c.215-.133.597-.092.773.084.045.045.062.048.13.022.102-.039.102-.041-.077-.207-.198-.183-.311-.24-.54-.269-.312-.04-.336-.037-.423.07zm6.967.207c-.175.039-.352.09-.394.114-.07.04-.071.043-.013.03.294-.065.553-.036.68.075.086.076.051.081-.082.013a.516.516 0 0 0-.195-.051h-.095l.052.118c.108.243.027.626-.184.881-.093.112-.131.109-.051-.004.21-.294.278-.658.167-.88-.06-.123-.177-.134-.42-.04-.218.083-.246.116-.356.42-.125.343-.125.326.013.474.097.103.115.138.115.225 0 .13.068.153.276.095a.59.59 0 0 1 .152-.03c.025.025-.18.1-.314.112l-.152.015.008.12c.005.066.016.15.026.185l.017.065.137-.07c.237-.123.81-.797.98-1.152.088-.187.109-.508.044-.693-.04-.111-.008-.11-.411-.022zm-1.387.053c-.078.03-.123.093-.086.117.02.012.012.032-.029.062-.053.04-.055.051-.026.122.057.14.238.151.338.023.128-.163-.015-.398-.197-.324zm1.9.102c0 .035.005.05.012.032a.098.098 0 0 0 0-.063c-.007-.018-.012-.003-.012.031zm-4.536.323c.018.007.04.006.048-.002.009-.008-.006-.014-.033-.013-.03 0-.036.007-.015.015zm.106.018c0 .005.135.029.299.053.164.025.4.079.524.12.162.055.24.07.277.054.042-.02.014-.034-.152-.08-.273-.074-.948-.18-.948-.148zm-3.535.247c0 .219.139.64.228.697.037.022.034.011-.033-.143a1.674 1.674 0 0 1-.133-.525c-.021-.191-.062-.21-.062-.029zm4.927.008c-.273.074-.157.086.147.016.185-.043.193-.048.089-.048a1.08 1.08 0 0 0-.236.032zm.16.09c-.047.014-.054.024-.026.034.04.015.643.067.655.057a.673.673 0 0 0-.135-.06.893.893 0 0 0-.494-.03zm-.217.192c-.14.017-.443.051-.674.076-.602.063-.748.142-.732.39.017.254.452.355 1.012.235.12-.025.222-.04.23-.034.037.034-.463.336-.65.391-.089.026-.12.054-.183.16l-.426.721c-.581.983-.676 1.335-.47 1.755.19.386.376.498.838.5.437.003 1.606-.032 1.748-.052l.108-.015-.012-.105-.013-.105.037.076c.02.042.038.09.038.108.001.032.08.028.307-.018l.089-.017-.007-.168c-.01-.255-.085-.5-.299-.987-.31-.703-.444-1.172-.445-1.546 0-.083-.01-.129-.025-.119-.06.037-.013-.308.091-.67.061-.212.076-.384.046-.535-.026-.127-.049-.092-.04.059a.455.455 0 0 1-.018.184c-.021.037-.027.021-.028-.08-.002-.27 0-.269-.522-.204zm.854.024c-.035.042-.21.52-.257.7-.102.392.04 1.099.355 1.779.267.575.39.96.432 1.35.013.119.022.153.025.09.003-.113.043-.097.06.024.011.072.013.073.031.02.021-.063.054-.075.07-.027.02.06.393-.128.503-.252.314-.357.246-.718-.391-2.101-.135-.292-.245-.54-.245-.552 0-.022-.357-.254-.391-.254-.01 0-.083-.03-.161-.067-.165-.078-.198-.06-.228.125-.01.064-.024.09-.04.073-.082-.082.098-.429.301-.581.076-.057.125-.111.118-.132-.02-.058.331-.027.418.037.096.072.12.12.101.197-.022.088-.143.12-.48.127-.18.004-.26.016-.268.038-.005.018 0 .03.011.026.012-.003.148.003.301.013.452.03.632-.049.632-.276 0-.23-.217-.365-.616-.387-.21-.012-.25-.007-.281.03zm-1.71.194c-.135.021-.3.093-.317.139-.023.06.062.211.142.253.098.05.53.059.744.015.225-.047.427.106.427.323 0 .05.01.078.026.07.073-.046-.021-.32-.16-.468-.079-.083-.08-.085-.012-.042.111.07.082-.003-.03-.078-.067-.044-.117-.06-.153-.05-.036.012-.098-.01-.199-.07a.626.626 0 0 0-.467-.092zm1.354.271c-.033.117-.033.134-.004.134.012 0 .03-.031.039-.07l.03-.114c.007-.025.001-.045-.013-.045-.014 0-.038.043-.052.095zm1.12.189c-.113.058-.129.086-.13.23 0 .168.137.477.204.46.038-.01.052.014.084.15.024.101.04.134.04.088.003-.065-.098-.969-.108-.972a.918.918 0 0 0-.09.044zm-.474.422c.022.086.06.133.107.133.029 0 .024-.022-.02-.101-.066-.117-.113-.135-.087-.032zm-1.586.004c-.025.016-.03.048-.018.114.024.129.066.114.066-.023a.515.515 0 0 0-.006-.114.225.225 0 0 0-.042.023zm.165.068c-.026.068-.017.11.042.201.1.154.108.123.041-.146-.025-.1-.057-.122-.083-.055zm-2.39.684c-.007.021-.022.095-.03.165-.02.15.025.18.05.033l.03-.166c.015-.073-.024-.098-.05-.032zm.06.318c0 .136.01.23.026.23.015 0 .025-.094.025-.23 0-.135-.01-.229-.025-.229-.015 0-.025.094-.025.23zm-.118.477c.017.31.086.67.133.685.017.006.01-.074-.019-.214a4.382 4.382 0 0 1-.062-.496c-.01-.155-.029-.274-.043-.274-.016 0-.02.106-.01.3zm.13.206c.02.214.046.316.083.328.02.006.021-.02.007-.087a3.22 3.22 0 0 1-.038-.256c-.01-.087-.03-.159-.044-.159-.017 0-.02.06-.009.174zm4.604.667c-.017.123-.005.178.03.143a.466.466 0 0 0 .028-.144c.017-.17-.034-.17-.058 0zm-4.842.316c-.004.485-.048 1.097-.093 1.272a4.9 4.9 0 0 0-.046.19c-.09.493-.076.638.08.865l.096.14.393.017c.67.029.748.055.22.074-.248.01-.463.028-.477.042-.034.034.372.416.598.563.226.146.504.235.739.237.283.003.28 0 .313.305.035.314.066.411.148.465l.061.04.002-.12c.003-.183.036-.25.06-.123.031.166.094.327.154.4.032.037.083.12.115.185.031.065.059.114.062.11a4.878 4.878 0 0 0-.01-.313c-.018-.367.014-1.039.053-1.115.016-.03.068-.103.115-.162.085-.104.228-.382.207-.402-.028-.028-.41-.067-.548-.056-.165.013-.218-.014-.08-.042.044-.009.169-.016.277-.016.22 0 .356-.02.356-.053 0-.012-.07-.099-.155-.193-.234-.26-.43-.695-.43-.96 0-.151.005-.147-.224-.208a1.602 1.602 0 0 1-.852-.557c-.062-.084-.072-.09-.06-.038.007.035.022.11.031.165l.018.102-.099-.112a2.418 2.418 0 0 1-.162-.206c-.137-.206-.13-.197-.113-.127.014.062.013.062-.057-.015a.973.973 0 0 1-.097-.123c-.018-.032-.023-.003-.017.107.019.327.005.324-.171-.038-.163-.334-.206-.382-.206-.23 0 .12-.04.06-.125-.185l-.074-.215-.002.33zm4.693-.227c-.023.06-.019.138.007.138.027 0 .054-.063.054-.129 0-.059-.04-.064-.061-.009zm-3.22.154c0 .04.108.186.165.223.145.095.15.04.008-.099-.137-.133-.173-.16-.173-.124zm.203.026c0 .033.135.162.17.162.019 0 .033-.009.033-.02 0-.025-.203-.167-.203-.142zm.254.112c0 .032.073.062.096.039.01-.01 0-.028-.02-.041-.05-.031-.076-.03-.076.002zm2.874.119c-.049.005-.283.049-.521.096-.65.13-1.12.174-1.806.17-.49-.004-.615.003-.775.042l-.191.047.152.017c.084.01.285.028.445.042.161.013.39.036.51.05.665.078.9.062 1.345-.087.137-.047.403-.11.59-.14.335-.054.47-.09.494-.13.016-.026-.09-.127-.127-.121a5.548 5.548 0 0 1-.116.014zm-.145.516a3.327 3.327 0 0 1-.327.075c-.15.029-.284.06-.299.07-.015.01-.137.024-.27.034l-.243.016.23.004c.406.007.98-.096 1.057-.19.035-.041-.055-.046-.148-.009zm-5.183.985c-.168.175-.494.472-.725.662-.23.189-.422.35-.425.359-.003.008.132.107.3.219.169.112.387.277.485.366l.179.163.29-.29.292-.291-.077-.141c-.233-.43-.247-.666-.065-1.105.146-.352.14-.351-.254.058zm2.81-.223c0 .014.066.059.147.1.261.132.513.432.649.771.054.135.089.27.16.62.005.029.08.107.165.174.178.14.14.16.358-.187l.135-.214-.088-.07-.42-.33a9.405 9.405 0 0 1-.572-.496c-.29-.28-.533-.448-.533-.368zm.183 2.366c0 .035.005.05.012.032a.098.098 0 0 0 0-.064c-.007-.017-.012-.003-.012.032zm-4.008.674.053.227c.035.14.109.633.11.733 0 .03.02.044.06.044.067 0 .066.016.015-.292-.031-.186-.183-.684-.228-.75-.02-.029-.022-.019-.01.038zm5.71.386c.003.13.045.188.047.067 0-.059-.01-.114-.024-.123-.015-.009-.025.015-.024.056zm-.241.256c.022.229.035.233.035.01 0-.107-.01-.182-.026-.182-.017 0-.02.06-.01.172z" fill="#1D0F36" fill-opacity=".6"/>
    <path fill="#000" fill-opacity=".01" d="M0 0h24v24H0z"/>
</svg>
