<svg width="24" height="24" viewBox="0 0 24 24" fill="none" xmlns="http://www.w3.org/2000/svg">
    <path d="M.8 12.4a11.6 11.6 0 1 1 23.2 0 11.6 11.6 0 0 1-23.2 0z" fill="#716882" fill-opacity=".6"/>
    <path d="M.8 11.6a11.6 11.6 0 1 1 23.2 0 11.6 11.6 0 0 1-23.2 0z" fill="#716882" fill-opacity=".6"/>
    <path d="M.968 11.6a11.432 11.432 0 1 1 22.864 0 11.432 11.432 0 0 1-22.864 0z" fill="#716882" fill-opacity=".6"/>
    <path d="M2.664 11.6a9.736 9.736 0 1 1 19.472 0 9.736 9.736 0 0 1-19.472 0z" fill="#716882" fill-opacity=".6"/>
    <path d="M2.896 11.6a9.504 9.504 0 1 1 19.008 0 9.504 9.504 0 0 1-19.008 0z" fill="#716882" fill-opacity=".18"/>
    <path d="M16.608 12.528 12.4 15.016v3.44l4.208-5.928z" fill="#1D0F36" fill-opacity=".6"/>
    <path d="m8.192 12.528 4.208 2.488v3.44l-4.208-5.928z" fill="#1D0F36" fill-opacity=".2"/>
    <path d="M8.192 11.728 12.4 9.816v4.4l-4.208-2.488z" fill="#1D0F36" fill-opacity=".3"/>
    <path d="M16.608 11.728 12.4 9.816v4.4l4.208-2.488z" fill="#1D0F36" fill-opacity=".2"/>
    <path d="M16.608 11.728 12.4 9.816V4.744l4.208 6.984z" fill="#1D0F36" fill-opacity=".1"/>
    <path d="M8.192 11.728 12.4 9.816V4.744l-4.208 6.984z" fill="#1D0F36" fill-opacity=".4"/>
    <path fill="#000" fill-opacity=".01" d="M0 0h24v24H0z"/>
</svg>
