<svg width="108" height="80" viewBox="0 0 108 80" fill="none" xmlns="http://www.w3.org/2000/svg">
    <g clip-path="url(#zl1lvv4c3a)">
        <path fill="#000" fill-opacity=".01" d="M.094 0h107.812v80H.094z"/>
        <path d="m79.674 29.849-.752.673-9.97 9.055c-.27.244-.533.497-.857.804 2.48 2.483 4.936 4.915 7.37 7.353 4.59 4.564 9.166 9.143 13.729 13.736 1.895 1.91 1.177 4.822-1.325 5.5-1.293.348-2.354-.09-3.278-1.017L70.938 52.3c-2.513-2.512-5.016-5.029-7.58-7.604-.321.293-.607.53-.864.773a2428.6 2428.6 0 0 1-8.495 7.72c-1.566 1.414-3.192 1.427-4.75.02l-8.195-7.44c-.369-.332-.74-.654-1.304-1.168a7.45 7.45 0 0 1-.68.944A7773.322 7773.322 0 0 1 18.645 65.97c-1.925 1.916-4.812 1.326-5.557-1.133-.421-1.356.042-2.47 1.03-3.455l16.388-16.353c1.504-1.52 3.035-3.022 4.633-4.612l-8.373-7.614a5544.228 5544.228 0 0 0-12.659-11.501c-.958-.9-1.38-1.982-1.065-3.268a3.065 3.065 0 0 1 2.274-2.317c1.248-.35 2.29.057 3.222.908 5.908 5.366 11.815 10.726 17.721 16.077l15.34 13.938c.286-.251.564-.48.821-.718l23.163-21.058a21.185 21.185 0 0 1 .316-22.15c-21.034-.01-42.066-.01-63.1 0C6.635 2.727 1.358 7.26.293 13.323a5.57 5.57 0 0 1-.198.657v54.748c.164.645.311 1.291.497 1.915 1.61 5.592 6.586 9.34 12.512 9.34 24.101.023 48.202.023 72.303 0 2.537 0 5.133.114 7.603-.353 5.28-.996 8.996-5.105 9.952-10.449.043-.156.102-.308.175-.453V33.161a21.213 21.213 0 0 1-23.462-3.312z" fill="#E4E7F5"/>
        <path d="M93.865 0a14.04 14.04 0 1 0 14.041 14.043A14.06 14.06 0 0 0 93.865 0zm7.212 17.926-3.33 3.331-3.882-3.883-3.883 3.883-3.329-3.327 3.883-3.883-3.883-3.887 3.33-3.327 3.882 3.883 3.883-3.883 3.329 3.33-3.883 3.882 3.883 3.88z" fill="#DF4328"/>
    </g>
    <defs>
        <clipPath id="zl1lvv4c3a">
            <path fill="#fff" transform="translate(.094)" d="M0 0h107.812v80H0z"/>
        </clipPath>
    </defs>
</svg>
