<svg width="1512" height="6" viewBox="0 0 1512 6" fill="none" xmlns="http://www.w3.org/2000/svg">
<path fill-rule="evenodd" clip-rule="evenodd" d="M2.66667 5.33362C1.19391 5.33362 0 4.13971 0 2.66695C0 1.19419 1.19391 0.00028491 2.66667 0.00028491C3.96853 0.00028491 5.0525 0.933188 5.28653 2.16695H7.68667V3.16695H5.28653C5.0525 4.40072 3.96853 5.33362 2.66667 5.33362ZM1506.71 2.16667H1504.32V3.16667H1506.71C1506.95 4.40043 1508.03 5.33333 1509.33 5.33333C1510.81 5.33333 1512 4.13943 1512 2.66667C1512 1.19391 1510.81 0 1509.33 0C1508.03 0 1506.95 0.932903 1506.71 2.16667ZM22.7467 3.16695H12.7067V2.16695H22.7467V3.16695ZM37.8067 3.16695H27.7667V2.16695H37.8067V3.16695ZM52.8667 3.16695H42.8267V2.16695H52.8667V3.16695ZM67.9267 3.16695H57.8867V2.16695H67.9267V3.16695ZM82.9867 3.16695H72.9467V2.16695H82.9867V3.16695ZM98.0467 3.16695H88.0067V2.16695H98.0467V3.16695ZM113.107 3.16695H103.067V2.16695H113.107V3.16695ZM128.167 3.16695H118.127V2.16695H128.167V3.16695ZM143.227 3.16695H133.187V2.16695H143.227V3.16695ZM158.287 3.16695H148.247V2.16695H158.287V3.16695ZM173.347 3.16695H163.307V2.16695H173.347V3.16695ZM188.407 3.16695H178.367V2.16695H188.407V3.16695ZM203.467 3.16695H193.427V2.16695H203.467V3.16695ZM218.527 3.16695H208.487V2.16695H218.527V3.16695ZM233.587 3.16695H223.547V2.16695H233.587V3.16695ZM248.647 3.16695H238.607V2.16695H248.647V3.16695ZM263.707 3.16695H253.667V2.16695H263.707V3.16695ZM278.767 3.16695H268.727V2.16695H278.767V3.16695ZM293.827 3.16695H283.787V2.16695H293.827V3.16695ZM308.887 3.16695H298.847V2.16695H308.887V3.16695ZM323.947 3.16695H313.907V2.16695H323.947V3.16695ZM339.007 3.16695H328.967V2.16695H339.007V3.16695ZM354.067 3.16695H344.027V2.16695H354.067V3.16695ZM369.127 3.16695H359.087V2.16695H369.127V3.16695ZM384.187 3.16695H374.147V2.16695H384.187V3.16695ZM399.247 3.16695H389.207V2.16695H399.247V3.16695ZM414.307 3.16695H404.267V2.16695H414.307V3.16695ZM429.367 3.16695H419.327V2.16695H429.367V3.16695ZM444.427 3.16695H434.387V2.16695H444.427V3.16695ZM459.487 3.16695H449.447V2.16695H459.487V3.16695ZM474.547 3.16695H464.507V2.16695H474.547V3.16695ZM489.607 3.16695H479.567V2.16695H489.607V3.16695ZM504.667 3.16695H494.627V2.16695H504.667V3.16695ZM519.727 3.16695H509.687V2.16695H519.727V3.16695ZM534.787 3.16695H524.747V2.16695H534.787V3.16695ZM549.847 3.16695H539.807V2.16695H549.847V3.16695ZM564.907 3.16695H554.867V2.16695H564.907V3.16695ZM579.967 3.16695H569.927V2.16695H579.967V3.16695ZM595.027 3.16695H584.987V2.16695H595.027V3.16695ZM610.087 3.16695H600.047V2.16695H610.087V3.16695ZM625.147 3.16695H615.107V2.16695H625.147V3.16695ZM640.207 3.16695H630.167V2.16695H640.207V3.16695ZM655.267 3.16695H645.227V2.16695H655.267V3.16695ZM670.327 3.16695H660.287V2.16695H670.327V3.16695ZM685.387 3.16695H675.347V2.16695H685.387V3.16695ZM700.447 3.16695H690.407V2.16695H700.447V3.16695ZM715.507 3.16695H705.467V2.16695H715.507V3.16695ZM730.567 3.16695H720.527V2.16695H730.567V3.16695ZM745.627 3.16695H735.587V2.16695H745.627V3.16695ZM760.687 3.16695H750.647V2.16695H760.687V3.16695ZM775.747 3.16695H765.707V2.16695H775.747V3.16695ZM790.807 3.16695H780.767V2.16695H790.807V3.16695ZM805.867 3.16695H795.827V2.16695H805.867V3.16695ZM820.927 3.16695H810.887V2.16695H820.927V3.16695ZM835.987 3.16695H825.947V2.16695H835.987V3.16695ZM851.047 3.16695H841.007V2.16695H851.047V3.16695ZM866.107 3.16695H856.067V2.16695H866.107V3.16695ZM881.167 3.16695H871.127V2.16695H881.167V3.16695ZM896.227 3.16695H886.187V2.16695H896.227V3.16695ZM911.287 3.16695H901.247V2.16695H911.287V3.16695ZM926.347 3.16695H916.307V2.16695H926.347V3.16695ZM941.407 3.16695H931.367V2.16695H941.407V3.16695ZM956.467 3.16695H946.427V2.16695H956.467V3.16695ZM971.527 3.16695H961.487V2.16695H971.527V3.16695ZM986.587 3.16695H976.547V2.16695H986.587V3.16695ZM1001.65 3.16695H991.607V2.16695H1001.65V3.16695ZM1016.71 3.16695H1006.67V2.16695H1016.71V3.16695ZM1031.77 3.16695H1021.73V2.16695H1031.77V3.16695ZM1046.83 3.16695H1036.79V2.16695H1046.83V3.16695ZM1061.89 3.16695H1051.85V2.16695H1061.89V3.16695ZM1076.95 3.16695H1066.91V2.16695H1076.95V3.16695ZM1092.01 3.16695H1081.97V2.16695H1092.01V3.16695ZM1107.07 3.16695H1097.03V2.16695H1107.07V3.16695ZM1122.13 3.16695H1112.09V2.16695H1122.13V3.16695ZM1137.19 3.16695H1127.15V2.16695H1137.19V3.16695ZM1152.25 3.16695H1142.21V2.16695H1152.25V3.16695ZM1167.31 3.16695H1157.27V2.16695H1167.31V3.16695ZM1182.37 3.16695H1172.33V2.16695H1182.37V3.16695ZM1197.43 3.16695H1187.39V2.16695H1197.43V3.16695ZM1212.49 3.16695H1202.45V2.16695H1212.49V3.16695ZM1227.55 3.16695H1217.51V2.16695H1227.55V3.16695ZM1242.61 3.16695H1232.57V2.16695H1242.61V3.16695ZM1257.67 3.16695H1247.63V2.16695H1257.67V3.16695ZM1272.73 3.16695H1262.69V2.16695H1272.73V3.16695ZM1287.79 3.16695H1277.75V2.16695H1287.79V3.16695ZM1302.85 3.16695H1292.81V2.16695H1302.85V3.16695ZM1317.91 3.16695H1307.87V2.16695H1317.91V3.16695ZM1332.97 3.16695H1322.93V2.16695H1332.97V3.16695ZM1348.03 3.16695H1337.99V2.16695H1348.03V3.16695ZM1363.09 3.16695H1353.05V2.16695H1363.09V3.16695ZM1378.15 3.16695H1368.11V2.16695H1378.15V3.16695ZM1393.21 3.16695H1383.17V2.16695H1393.21V3.16695ZM1408.27 3.16695H1398.23V2.16695H1408.27V3.16695ZM1423.33 3.16695H1413.29V2.16695H1423.33V3.16695ZM1438.39 3.16695H1428.35V2.16695H1438.39V3.16695ZM1453.45 3.16695H1443.41V2.16695H1453.45V3.16695ZM1468.51 3.16695H1458.47V2.16695H1468.51V3.16695ZM1483.57 3.16695H1473.53V2.16695H1483.57V3.16695ZM1498.63 3.16695H1488.59V2.16695H1498.63V3.16695Z" fill="#293C44"/>
</svg>
