<svg width="19" height="19" viewBox="0 0 19 19" fill="none" xmlns="http://www.w3.org/2000/svg">
    <g clip-path="url(#zfsa8zbhda)">
        <path fill="#000" fill-opacity=".01" d="M.39.5h18v18h-18z"/>
        <path fill-rule="evenodd" clip-rule="evenodd" d="m11.435.606 1.038 2.036 2.211-.576.179 2.277 2.263.314-.706 2.174 1.97 1.155-1.484 1.738 1.378 1.822-2.036 1.037.576 2.212-2.277.178-.314 2.263-2.174-.706-1.156 1.97-1.737-1.484-1.822 1.378-1.038-2.036-2.211.576-.178-2.277-2.264-.314.706-2.174-1.97-1.155 1.484-1.738L.496 7.454 2.53 6.417l-.576-2.212 2.278-.178.314-2.263 2.173.706L7.876.5l1.738 1.484L11.435.606z" fill="#11CDE9"/>
        <path d="m4.87 10.2 7.48-5.58.162-.12c-.105.08-.197.174-.275.278L8.977 9.24l2.579-1.53L9.39 10.15l5-2.34-9.435 6.69 3.071-5.259-2.56.8c-.387.12-.751.295-1.076.518l.48-.358z" fill="#1D0F36"/>
    </g>
    <defs>
        <clipPath id="zfsa8zbhda">
            <path fill="#fff" transform="translate(.39 .5)" d="M0 0h18v18H0z"/>
        </clipPath>
    </defs>
</svg>
