<svg width="22" height="22" viewBox="0 0 22 22" fill="none" xmlns="http://www.w3.org/2000/svg">
    <g clip-path="url(#qm3s9331ca)">
        <path fill="#000" fill-opacity=".01" d="M0 11 10.607.393 21.213 11 10.607 21.607z"/>
        <path d="M14.688 4.798c.106-.106.053-.265-.053-.37l-1.908-1.909c-.318-.318-.742-.318-1.06 0l-9.543 9.543c-.318.318-.318.742 0 1.06l1.961 1.961c.106.106.212.106.371.053.53-.318 1.273-.212 1.75.265.477.477.583 1.22.265 1.75-.053.158-.053.264.053.37l1.96 1.962c.319.318.743.318 1.061 0l9.543-9.543c.318-.318.318-.742 0-1.06l-1.909-1.908c-.106-.107-.265-.16-.37-.053-.637.424-1.432.37-1.962-.16s-.583-1.325-.159-1.96zM12.78 7.98v2.12c0 .107.053.16.159.265l1.802 1.273c.265.159.159.477-.053.583l-1.962.583a.228.228 0 0 0-.212.212l-.583 1.961c-.053.265-.424.319-.583.053l-1.272-1.802c-.053-.053-.16-.159-.265-.159H7.69c-.319.106-.53-.212-.319-.424l1.22-1.643c.053-.053.106-.212.053-.265L7.903 8.72a.35.35 0 0 1 .424-.424l2.014.742c.106 0 .212 0 .265-.053l1.644-1.219c.212-.212.53 0 .53.212z" fill="#FAD54D"/>
    </g>
    <defs>
        <clipPath id="qm3s9331ca">
            <path fill="#fff" transform="rotate(-45 13.278 5.5)" d="M0 0h15v15H0z"/>
        </clipPath>
    </defs>
</svg>
