<svg width="16" height="16" viewBox="0 0 16 16" fill="none" xmlns="http://www.w3.org/2000/svg">
    <path fill="#000" fill-opacity=".01" d="M0 0h16v16H0z"/>
    <path fill-rule="evenodd" clip-rule="evenodd" d="M2.693 2.634H1.424a.65.65 0 1 1 0-1.3h1.269a2.283 2.283 0 0 1 2.232 1.83l.024.12h8.267a1.627 1.627 0 0 1 1.587 1.98l-.697 3.138a2.587 2.587 0 0 1-2.54 2.037h-5.16a.97.97 0 0 0 .904.65h5.821a.65.65 0 1 1 0 1.301h-5.82a2.283 2.283 0 0 1-2.233-1.83L3.65 3.419a.98.98 0 0 0-.957-.784zm7.377 3.118a.65.65 0 0 0-.19.46v1.3a.65.65 0 0 0 1.3 0v-1.3a.65.65 0 0 0-1.11-.46zm-2.602 0a.65.65 0 0 0-.19.46v1.3a.65.65 0 1 0 1.3 0v-1.3a.65.65 0 0 0-1.11-.46z" fill="#E4E7F5"/>
    <path d="M6.952 14.667a.976.976 0 1 0 0-1.951.976.976 0 0 0 0 1.95zM11.83 14.667a.976.976 0 1 0 0-1.951.976.976 0 0 0 0 1.95z" fill="#E4E7F5"/>
</svg>
