<svg width="28" height="2" viewBox="0 0 28 2" fill="none" xmlns="http://www.w3.org/2000/svg">
    <path fill-rule="evenodd" clip-rule="evenodd" d="M0 1.25A.75.75 0 0 1 .75.5h13a.75.75 0 0 1 0 1.5h-13A.75.75 0 0 1 0 1.25z" fill="url(#pypwoadz5a)"/>
    <path fill-rule="evenodd" clip-rule="evenodd" d="M17.5 1.25a.75.75 0 0 1 .75-.75h3a.75.75 0 0 1 0 1.5h-3a.75.75 0 0 1-.75-.75z" fill="url(#d71tvxkykb)"/>
    <path fill-rule="evenodd" clip-rule="evenodd" d="M25 1.25a.75.75 0 0 1 .75-.75h1a.75.75 0 0 1 0 1.5h-1a.75.75 0 0 1-.75-.75z" fill="url(#hb4grfcu8c)"/>
    <defs>
        <linearGradient id="pypwoadz5a" x1="9.207" y1="2" x2="9.194" y2=".5" gradientUnits="userSpaceOnUse">
            <stop stop-color="#E3A406"/>
            <stop offset="1" stop-color="#FBD851"/>
        </linearGradient>
        <linearGradient id="d71tvxkykb" x1="20.358" y1="2" x2="20.316" y2=".501" gradientUnits="userSpaceOnUse">
            <stop stop-color="#E3A406"/>
            <stop offset="1" stop-color="#FBD851"/>
        </linearGradient>
        <linearGradient id="hb4grfcu8c" x1="26.587" y1="2" x2="26.512" y2=".504" gradientUnits="userSpaceOnUse">
            <stop stop-color="#E3A406"/>
            <stop offset="1" stop-color="#FBD851"/>
        </linearGradient>
    </defs>
</svg>
