<svg width="24" height="24" viewBox="0 0 24 24" fill="none" xmlns="http://www.w3.org/2000/svg">
    <g clip-path="url(#i522le674a)">
        <path fill="#000" fill-opacity=".01" d="M0 0h24v24H0z"/>
        <path d="M20.313 9.813c-.5.062-.813.062-1.25 0v9.062h-3.875v-3.937a4.19 4.19 0 0 1-1.25 0v3.937h-3.876V9.75a4.19 4.19 0 0 1-1.25 0v9.063H4.938v-3.938a4.19 4.19 0 0 1-1.25 0v3.938H2v1.25h20v-1.25h-1.688v-9z" fill="#E4E7F5"/>
        <path d="M4.313 13.688a2.307 2.307 0 0 0 2.312-2.313c0-.438-.125-.813-.313-1.125L8.25 8.312c.688.376 1.563.438 2.25 0l1.938 1.938a2.34 2.34 0 0 0-.313 1.125 2.307 2.307 0 0 0 2.313 2.313 2.307 2.307 0 0 0 2.312-2.313c0-.438-.125-.813-.313-1.125l1.938-1.938c.313.188.75.313 1.125.313a2.307 2.307 0 0 0 2.313-2.313A2.307 2.307 0 0 0 19.5 4c-1.25 0-2.313 1.063-2.313 2.313 0 .437.125.812.313 1.125l-1.938 1.937c-.687-.375-1.5-.438-2.25 0l-1.937-1.938a2.34 2.34 0 0 0 .313-1.125A2.307 2.307 0 0 0 9.374 4c-1.25 0-2.25 1-2.25 2.25 0 .438.125.813.313 1.125L5.5 9.313A2.34 2.34 0 0 0 4.375 9C3.062 9.063 2 10.063 2 11.375a2.307 2.307 0 0 0 2.313 2.313z" fill="#E4E7F5"/>
    </g>
    <defs>
        <clipPath id="i522le674a">
            <path fill="#fff" d="M0 0h24v24H0z"/>
        </clipPath>
    </defs>
</svg>
