<svg width="24" height="24" viewBox="0 0 24 24" fill="none" xmlns="http://www.w3.org/2000/svg">
    <g clip-path="url(#pnzc8xrara)">
        <path fill="#000" fill-opacity=".01" d="M0 0h24v24H0z"/>
        <path d="M17 4h4a1 1 0 0 1 1 1v16a1 1 0 0 1-1 1H3a1 1 0 0 1-1-1V5a1 1 0 0 1 1-1h4V2h2v2h6V2h2v2zM4 10v10h16V10H4zm2 2h2v2H6v-2zm0 4h2v2H6v-2zm4-4h8v2h-8v-2zm0 4h5v2h-5v-2z" fill="#E4E7F5"/>
    </g>
    <defs>
        <clipPath id="pnzc8xrara">
            <path fill="#fff" d="M0 0h24v24H0z"/>
        </clipPath>
    </defs>
</svg>
