<svg width="18" height="18" viewBox="0 0 18 18" fill="none" xmlns="http://www.w3.org/2000/svg">
    <g clip-path="url(#5brijahi1a)">
        <path fill="#000" fill-opacity=".01" d="M0 0h18v18H0z"/>
        <path d="M9.005 17.993c-4.953 0-8.99-4.036-8.99-8.99 0-4.953 4.037-8.99 8.99-8.99 4.954 0 8.99 4.037 8.99 8.99 0 4.954-4.036 8.99-8.99 8.99zm0-16.291a7.297 7.297 0 0 0-7.302 7.301 7.297 7.297 0 0 0 7.302 7.302 7.297 7.297 0 0 0 7.302-7.302 7.297 7.297 0 0 0-7.302-7.301z" fill="#FAD54D"/>
        <path d="M10.856 11.755a.972.972 0 0 1-.495-.146l-2.275-1.597a.837.837 0 0 1-.367-.697V5.353a.861.861 0 1 1 1.724 0v3.504l1.927 1.339a.875.875 0 0 1 .22 1.192.93.93 0 0 1-.734.367z" fill="#FAD54D"/>
    </g>
    <defs>
        <clipPath id="5brijahi1a">
            <path fill="#fff" d="M0 0h18v18H0z"/>
        </clipPath>
    </defs>
</svg>
