<svg width="19" height="19" viewBox="0 0 19 19" fill="none" xmlns="http://www.w3.org/2000/svg">
    <g clip-path="url(#2uuckgn6xa)">
        <path fill="#000" fill-opacity=".01" d="M0 .006h18.989v18.989H0z"/>
        <path fill-rule="evenodd" clip-rule="evenodd" d="m11.652.117 1.095 2.148 2.333-.608.188 2.403 2.387.33-.744 2.294 2.078 1.22-1.566 1.832 1.454 1.922-2.148 1.095.608 2.333-2.403.187-.33 2.388-2.294-.745-1.219 2.078-1.833-1.565-1.922 1.454-1.094-2.148-2.333.608-.188-2.403-2.388-.331.745-2.293L0 11.096l1.565-1.832L.112 7.342l2.147-1.095-.607-2.333 2.402-.188.331-2.387 2.293.744L7.898.006 9.73 1.57 11.652.117z" fill="#11CDE9"/>
        <path d="M12.822 7.07c.163.162.25.34.257.532.01.195-.095.4-.312.617L9.098 11.9a.392.392 0 0 1-.048.043c-.01.014-.022.022-.032.032a1.53 1.53 0 0 1-.155.12c-.002.003-.005 0-.005.005a.646.646 0 0 1-.152.072c-.05.02-.1.03-.15.035-.022.003-.047.003-.072.003a.698.698 0 0 1-.386-.138.124.124 0 0 1-.033-.022c-.032-.018-.06-.045-.087-.073-.012-.007-.027-.022-.04-.034L6.22 10.22c-.217-.218-.322-.423-.314-.615.007-.193.092-.368.254-.53.162-.163.34-.25.534-.26.192-.008.396.097.613.315l1.19 1.192L11.68 7.13c.217-.217.422-.322.614-.315.19.005.367.093.528.255z" fill="#1D0F36"/>
    </g>
    <defs>
        <clipPath id="2uuckgn6xa">
            <path fill="#fff" transform="translate(0 .006)" d="M0 0h18.989v18.989H0z"/>
        </clipPath>
    </defs>
</svg>
