<svg width="16" height="16" viewBox="0 0 16 16" fill="none" xmlns="http://www.w3.org/2000/svg">
    <path fill="#000" fill-opacity=".01" d="M0 0h16v16H0z"/>
    <path d="M12.837 2H3.176C2.518 2 2 2.531 2 3.176v9.648C2 13.482 2.531 14 3.176 14h9.648c.658 0 1.176-.531 1.176-1.176V3.176A1.163 1.163 0 0 0 12.837 2zm-1.96 7.865a.702.702 0 0 1-.506 1.201.717.717 0 0 1-.506-.202L8.006 9.005l-1.858 1.872a.696.696 0 0 1-.506.202.702.702 0 0 1-.506-1.201l1.871-1.872-1.871-1.858a.702.702 0 0 1 0-1 .702.702 0 0 1 .999 0l1.871 1.86 1.86-1.86a.702.702 0 0 1 .998 0 .702.702 0 0 1 0 1L9.005 8.006l1.872 1.86z" fill="#E4E7F5"/>
</svg>
