<svg width="22" height="22" viewBox="0 0 22 22" fill="none" xmlns="http://www.w3.org/2000/svg">
    <g clip-path="url(#eweahob0ga)">
        <path fill="#000" fill-opacity=".01" d="M0 10.607 10.607 0l10.606 10.607-10.606 10.606z"/>
        <path d="M14.688 4.405c.106-.106.053-.265-.053-.371l-1.908-1.908c-.318-.318-.742-.318-1.06 0l-9.543 9.542c-.318.318-.318.743 0 1.06l1.961 1.962c.106.106.212.106.371.053.53-.318 1.272-.212 1.75.265.476.477.582 1.219.264 1.749-.053.159-.053.265.053.371l1.962 1.961c.318.318.742.318 1.06 0l9.542-9.542c.318-.318.318-.743 0-1.06L17.18 6.577c-.106-.106-.265-.159-.37-.053-.637.424-1.432.371-1.962-.159s-.583-1.325-.16-1.961zm-1.909 3.18v2.121c0 .106.053.16.16.265l1.801 1.272c.265.16.16.477-.053.583l-1.961.584a.228.228 0 0 0-.212.212l-.583 1.961c-.053.265-.424.318-.583.053l-1.273-1.802c-.053-.053-.159-.159-.265-.159H7.69c-.318.106-.53-.212-.318-.424l1.22-1.643c.052-.053.105-.212.052-.266l-.742-2.014a.35.35 0 0 1 .424-.424l2.015.742c.106 0 .212 0 .265-.053l1.643-1.22c.212-.211.53 0 .53.213z" fill="#92949C"  fill-opacity=".8"/>
    </g>
    <defs>
        <clipPath id="eweahob0ga">
            <path fill="#fff" transform="rotate(-45 12.803 5.303)" d="M0 0h15v15H0z"/>
        </clipPath>
    </defs>
</svg>
