<svg width="16" height="16" viewBox="0 0 16 16" fill="none" xmlns="http://www.w3.org/2000/svg">
    <g clip-path="url(#oys6almnma)">
        <path fill="#000" fill-opacity=".01" d="M0 0h16v16H0z"/>
        <path d="m12.471 1.71-.28.281 1.818 1.819.281-.281a1.286 1.286 0 1 0-1.819-1.819zM6.61 8.829a.473.473 0 0 0 .561.562l1.153-.229c.274-.056.526-.192.723-.39l4.286-4.286-1.819-1.82-4.286 4.286c-.198.198-.334.45-.39.724L6.609 8.83z" fill="#E4E7F5"/>
        <path d="M2.762 14.666h8.628a1.433 1.433 0 0 0 1.429-1.428V7.022a.543.543 0 0 0-.229-.447L9.72 9.446a2.377 2.377 0 0 1-1.2.648l-1.19.238h-.024A1.442 1.442 0 0 1 6.08 9.95a1.47 1.47 0 0 1-.41-1.295l.234-1.167c.092-.459.32-.88.652-1.21l2.871-2.87a.552.552 0 0 0-.452-.23H2.762a1.433 1.433 0 0 0-1.429 1.43v8.629a1.433 1.433 0 0 0 1.429 1.428z" fill="#E4E7F5"/>
    </g>
    <defs>
        <clipPath id="oys6almnma">
            <path fill="#fff" d="M0 0h16v16H0z"/>
        </clipPath>
    </defs>
</svg>
