<svg width="40" height="40" viewBox="0 0 40 40" fill="none" xmlns="http://www.w3.org/2000/svg">
    <g clip-path="url(#zpqykrbaxa)">
        <path fill="#000" fill-opacity=".01" d="M0 0h40v40H0z"/>
        <path fill-rule="evenodd" clip-rule="evenodd" d="M19.232 3.41c-.22.08-12.235 6.535-12.56 6.748-.099.066-.27.272-.38.46l-.2.34-.023 5.902c-.023 6.156.01 7.134.284 8.559.754 3.908 3.237 7.424 6.67 9.444 4.737 2.787 10.829 2.31 15.198-1.192 2.911-2.332 4.707-5.708 5.058-9.506.044-.476.074-3.333.072-6.9-.004-6.538.006-6.37-.384-6.88-.142-.185-1.562-.982-6.211-3.486-3.315-1.786-6.2-3.32-6.41-3.41-.413-.177-.774-.203-1.114-.08zm5.203 16.512h4.73l-.037 2.195c-.04 2.363-.08 2.687-.5 3.945-.454 1.37-1.173 2.509-2.274 3.607-1.688 1.683-3.65 2.591-5.978 2.767l-.672.05V19.924l-4.703-.019-4.704-.019-.017-3.468-.016-3.468 4.702-2.524 4.702-2.524.018 6.01.02 6.01h4.729z" fill="#A9A4B4"/>
        <path fill="#000" fill-opacity=".01" d="M0 0h40v40H0z"/>
    </g>
    <defs>
        <clipPath id="zpqykrbaxa">
            <path fill="#fff" d="M0 0h40v40H0z"/>
        </clipPath>
    </defs>
</svg>
