<svg width="20" height="20" viewBox="0 0 20 20" fill="none" xmlns="http://www.w3.org/2000/svg">
<rect width="20" height="20" fill="black" fill-opacity="0.01"/>
<g clip-path="url(#clip0_982_15294)">
<path d="M14.1002 9.79173C13.9746 9.70803 13.828 9.72892 13.7234 9.81262C12.6764 10.5874 11.3991 11.0271 9.99608 11.0271C8.59311 11.0271 7.31578 10.5665 6.26878 9.81262C6.16405 9.72892 5.99652 9.72892 5.89194 9.79173C3.42111 11.3831 2.18555 14.5032 2.18555 18.0839C2.18555 20.5547 17.8067 20.5547 17.8067 18.0839C17.8064 14.5031 16.571 11.3832 14.1001 9.79173H14.1002Z" fill="#A9A4B4" fill-opacity="0.3"/>
<path d="M14.6654 4.72428C14.6654 7.30321 12.5747 9.39387 9.99576 9.39387C7.41679 9.39387 5.32617 7.3031 5.32617 4.72428C5.32617 2.14546 7.41679 0.0546875 9.99576 0.0546875C12.5747 0.0546875 14.6654 2.14531 14.6654 4.72428Z" fill="#A9A4B4" fill-opacity="0.3"/>
</g>
<defs>
<clipPath id="clip0_982_15294">
<rect width="15.6211" height="19.8823" fill="white" transform="translate(2.18555 0.0546875)"/>
</clipPath>
</defs>
</svg>
