<svg width="64" height="64" viewBox="0 0 64 64" xmlns="http://www.w3.org/2000/svg">
    <path d="M48 0c8.837 0 16 7.163 16 16v32c0 8.837-7.163 16-16 16H16C7.163 64 0 56.837 0 48V16C0 7.163 7.163 0 16 0h32zM25.876 16h-.111c-.773.012-5.47.243-10.386 4.002 0 0-5.379 9.941-5.379 22.208 0 0 3.138 5.522 11.394 5.79 0 0 .931-1.155 1.888-2.37l.25-.318.368-.472c-4.747-1.451-6.538-4.499-6.538-4.499s.37.269 1.043.65c.036.036.072.076.149.112.112.08.225.116.337.192.934.534 1.867.95 2.725 1.296a31.054 31.054 0 0 0 5.495 1.64c3.194.625 6.478.637 9.676.036a24.232 24.232 0 0 0 5.415-1.637c1.308-.497 2.764-1.222 4.297-2.249 0 0-1.867 3.124-6.763 4.535l.253.324.256.326c.727.921 1.45 1.81 1.779 2.212l.098.12.084.102c8.252-.265 11.43-5.79 11.43-5.79 0-10.535-3.97-19.357-5.09-21.638l-.086-.173a24.541 24.541 0 0 0-.038-.075l-.065-.127-.103-.198C43.34 16.242 38.642 16.012 37.868 16h-.111l-.523.61c6.352 1.98 9.302 4.839 9.302 4.839a30.036 30.036 0 0 0-11.246-3.657 31.006 31.006 0 0 0-7.543.072c-.226 0-.414.04-.636.077-1.308.116-4.486.61-8.481 2.401-1.38.646-2.205 1.107-2.205 1.107s3.102-3.011 9.825-4.992L25.876 16zm-1.271 14.901c2.18 0 3.944 1.633 3.904 3.628 0 1.995-1.721 3.628-3.904 3.628-2.143 0-3.908-1.633-3.908-3.628s1.725-3.628 3.908-3.628zm13.976 0c2.183 0 3.908 1.633 3.908 3.628s-1.725 3.628-3.908 3.628c-2.143 0-3.904-1.633-3.904-3.628s1.721-3.628 3.904-3.628z" fill="#F8EF4F" fill-rule="nonzero"/>
</svg>
