<svg width="30" height="30" viewBox="0 0 30 30" fill="none" xmlns="http://www.w3.org/2000/svg">
    <path fill="#000" fill-opacity=".01" d="M0 0h30v30H0z"/>
    <circle cx="15" cy="15" r="15" fill="#537FEE"/>
    <g clip-path="url(#8e1iaoq7ha)">
        <path d="m14.933 6.504-.114.39V18.23l.114.114 5.18-3.11-5.18-8.73z" fill="#BECDF9"/>
        <path d="m14.932 6.504-5.181 8.73 5.181 3.11V6.503z" fill="#fff"/>
        <path d="m14.93 19.34-.064.08v4.038l.064.189 5.184-7.415-5.184 3.109z" fill="#BECDF9"/>
        <path d="M14.932 23.647v-4.306l-5.181-3.109 5.181 7.415z" fill="#fff"/>
        <path d="m14.933 18.344 5.18-3.11-5.18-2.392v5.502z" fill="#7799F1"/>
        <path d="m9.751 15.233 5.181 3.11v-5.501l-5.181 2.391z" fill="#BECDF9"/>
    </g>
    <defs>
        <clipPath id="8e1iaoq7ha">
            <path fill="#fff" transform="translate(9.75 6.5)" d="M0 0h10.365v17.143H0z"/>
        </clipPath>
    </defs>
</svg>
