<svg width="250" height="68" viewBox="0 0 250 68" fill="none" xmlns="http://www.w3.org/2000/svg">
<rect width="250" height="68" fill="black" fill-opacity="0.03"/>
<rect x="2.25" y="2.25" width="245.5" height="63.5" stroke="white" stroke-opacity="1" stroke-width="0.5"/>
<path d="M6 6H80.5L82.5 3.5H125H166.5L168.5 6H244V62H168L166 64.5H83L81 62H6V6Z" fill="white" fill-opacity="0.3"/>
<path d="M81 61.5H6.5V6.5H80.5H80.7403L80.8904 6.31235L82.7403 4H125H166.26L168.11 6.31235L168.26 6.5H168.5H243.5V61.5H168H167.76L167.61 61.6877L165.76 64H83.2403L81.3904 61.6877L81.2403 61.5H81Z" stroke="white" stroke-opacity="0.9"/>
<path d="M129.5 5L83.5 5L82 7C82 7 124.5 7 131 7L129.5 5Z" fill="white"/>
<path d="M167 7L132 7L130.5 5H165.5L167 7Z" fill="white"/>
<path d="M119.5 63L165.5 63L167 61C167 61 124.5 61 118 61L119.5 63Z" fill="white"/>
<path d="M81.9999 61L117 61L118.5 63H83.5L81.9999 61Z" fill="white"/>
<path fill-rule="evenodd" clip-rule="evenodd" d="M246 54V62H245L245 56.5L244.5 56L244.5 62H244L244 53L246 54ZM246 25L244.5 24.25L244.5 17.5L244 17V24V26L244 50L244.5 49.5L244.5 43.75L246 43V25ZM246 6V14L244 15L244 6H244.5L244.5 12L245 11.5L245 6H246Z" fill="white"/>
<path fill-rule="evenodd" clip-rule="evenodd" d="M4 54V62H5L5 56.5L5.5 56L5.5 62H6L6 53L4 54ZM4 25L5.5 24.25L5.5 17.5L6 17V24V26L6 50L5.5 49.5L5.5 43.75L4 43V25ZM4 6V14L6 15L6 6H5.5L5.5 12L5 11.5L5 6H4Z" fill="white"/>
<path d="M249.982 57.5573V67.9999L235.482 67.9999L234.705 66.9618H222.759L221.982 66L247.982 66V56L249.982 57.5573Z" fill="white"/>
<path d="M205.545 66.9618L204.768 65.9236H203.214L203.991 66.9618H205.545Z" fill="white"/>
<path d="M208.652 66.9618H207.098L206.322 65.9236H207.875L208.652 66.9618Z" fill="white"/>
<path d="M210.206 66.9618H211.759L210.982 65.9236H209.429L210.206 66.9618Z" fill="white"/>
<path d="M214.866 66.9618H213.313L212.536 65.9236H214.089L214.866 66.9618Z" fill="white"/>
<path d="M216.42 66.9618H217.973L217.197 65.9236H215.643L216.42 66.9618Z" fill="white"/>
<path d="M221.081 66.9618H219.527L218.75 65.9236H220.304L221.081 66.9618Z" fill="white"/>
<path d="M197.777 66.9618H199.33L198.554 65.9236H197L197.777 66.9618Z" fill="white"/>
<path d="M202.438 66.9618H200.884L200.107 65.9236H201.661L202.438 66.9618Z" fill="white"/>
<path d="M0.0180663 10.4428L0.0180654 5.51766e-05L14.5182 5.48626e-05L15.295 1.03822L27.2413 1.03822L28.0181 2L2.01807 2L2.01807 12L0.0180663 10.4428Z" fill="white"/>
<path d="M44.4553 1.03818L45.2321 2.07635L46.7856 2.07635L46.0088 1.03818L44.4553 1.03818Z" fill="white"/>
<path d="M41.3481 1.03819L42.9017 1.03819L43.6785 2.07635L42.1249 2.07635L41.3481 1.03819Z" fill="white"/>
<path d="M39.7945 1.03819L38.2409 1.03819L39.0177 2.07635L40.5713 2.07635L39.7945 1.03819Z" fill="white"/>
<path d="M35.1337 1.03819L36.6873 1.03819L37.4641 2.07635L35.9105 2.07635L35.1337 1.03819Z" fill="white"/>
<path d="M33.5801 1.03819L32.0266 1.03819L32.8033 2.07635L34.3569 2.07635L33.5801 1.03819Z" fill="white"/>
<path d="M28.9194 1.03819L30.473 1.03819L31.2498 2.07635L29.6962 2.07635L28.9194 1.03819Z" fill="white"/>
<path d="M52.2232 1.03818L50.6696 1.03818L51.4464 2.07635L53 2.07635L52.2232 1.03818Z" fill="white"/>
<path d="M47.5624 1.03818L49.116 1.03818L49.8928 2.07635L48.3392 2.07635L47.5624 1.03818Z" fill="white"/>
<path d="M239.557 1.80452e-07L250 -2.09814e-06L250 14.5002L248.962 15.2769L248.962 27.2232L248 28L248 2L238 2L239.557 1.80452e-07Z" fill="white"/>
<path d="M10.4427 68L5.05447e-05 68L5.18154e-05 53.4998L1.03822 52.7231L1.03822 40.7768L2 40L2 66L12 66L10.4427 68Z" fill="white"/>
</svg>
