<svg width="250" height="68" viewBox="0 0 250 68" fill="none" xmlns="http://www.w3.org/2000/svg">
<rect width="250" height="68" fill="black" fill-opacity="0.03"/>
<rect x="2.25" y="2.25" width="245.5" height="63.5" stroke="white" stroke-opacity="1" stroke-width="0.5"/>
<rect x="6" y="6" width="238" height="56" fill="white" fill-opacity="0.3"/>
<rect x="6.5" y="6.5" width="237" height="55" stroke="white" stroke-opacity="0.9"/>
<path fill-rule="evenodd" clip-rule="evenodd" d="M244 24L244 38L244 62L244.5 61.5L244.5 43.75L246 43L246 25L244.5 24.25L244.5 6.5L244 6L244 24Z" fill="white"/>
<path fill-rule="evenodd" clip-rule="evenodd" d="M6 44V30L6 6L5.5 6.5L5.5 24.25L4 25V43L5.5 43.75L5.5 61.5L6 62V44Z" fill="white"/>
<path d="M249.982 57.5573V67.9999L235.482 67.9999L234.705 66.9618H222.759L221.982 66L247.982 66V56L249.982 57.5573Z" fill="white"/>
<path d="M205.545 66.9618L204.768 65.9236H203.214L203.991 66.9618H205.545Z" fill="white"/>
<path d="M208.652 66.9618H207.098L206.322 65.9236H207.875L208.652 66.9618Z" fill="white"/>
<path d="M210.206 66.9618H211.759L210.982 65.9236H209.429L210.206 66.9618Z" fill="white"/>
<path d="M214.866 66.9618H213.313L212.536 65.9236H214.089L214.866 66.9618Z" fill="white"/>
<path d="M216.42 66.9618H217.973L217.197 65.9236H215.643L216.42 66.9618Z" fill="white"/>
<path d="M221.081 66.9618H219.527L218.75 65.9236H220.304L221.081 66.9618Z" fill="white"/>
<path d="M197.777 66.9618H199.33L198.554 65.9236H197L197.777 66.9618Z" fill="white"/>
<path d="M202.438 66.9618H200.884L200.107 65.9236H201.661L202.438 66.9618Z" fill="white"/>
<path d="M0.0180663 10.4428L0.0180654 5.51766e-05L14.5182 5.48626e-05L15.295 1.03822L27.2413 1.03822L28.0181 2L2.01807 2L2.01807 12L0.0180663 10.4428Z" fill="white"/>
<path d="M44.4553 1.03818L45.2321 2.07635L46.7856 2.07635L46.0088 1.03818L44.4553 1.03818Z" fill="white"/>
<path d="M41.3481 1.03819L42.9017 1.03819L43.6785 2.07635L42.1249 2.07635L41.3481 1.03819Z" fill="white"/>
<path d="M39.7945 1.03819L38.2409 1.03819L39.0177 2.07635L40.5713 2.07635L39.7945 1.03819Z" fill="white"/>
<path d="M35.1337 1.03819L36.6873 1.03819L37.4641 2.07635L35.9105 2.07635L35.1337 1.03819Z" fill="white"/>
<path d="M33.5801 1.03819L32.0266 1.03819L32.8033 2.07635L34.3569 2.07635L33.5801 1.03819Z" fill="white"/>
<path d="M28.9194 1.03819L30.473 1.03819L31.2498 2.07635L29.6962 2.07635L28.9194 1.03819Z" fill="white"/>
<path d="M52.2232 1.03818L50.6696 1.03818L51.4464 2.07635L53 2.07635L52.2232 1.03818Z" fill="white"/>
<path d="M47.5624 1.03818L49.116 1.03818L49.8928 2.07635L48.3392 2.07635L47.5624 1.03818Z" fill="white"/>
<path d="M239.557 1.80452e-07L250 -2.09814e-06L250 14.5002L248.962 15.2769L248.962 27.2232L248 28L248 2L238 2L239.557 1.80452e-07Z" fill="white"/>
<path d="M10.4427 68L5.05447e-05 68L5.18154e-05 53.4998L1.03822 52.7231L1.03822 40.7768L2 40L2 66L12 66L10.4427 68Z" fill="white"/>
</svg>
