<svg width="24" height="24" viewBox="0 0 24 24" fill="none" xmlns="http://www.w3.org/2000/svg">
    <path d="M19 1a2 2 0 0 1 1.994 1.85L21 3v18a2 2 0 0 1-1.85 1.994L19 23H5a2 2 0 0 1-1.995-1.85L3 21V3a2 2 0 0 1 1.85-1.995L5 1h14zm-7.5 16H8l-.117.007a1 1 0 0 0 0 1.986L8 19h3.5l.117-.007a1 1 0 0 0 0-1.986L11.5 17zm3.5-3H8l-.117.007a1 1 0 0 0 0 1.986L8 16h7l.117-.007a1 1 0 0 0 0-1.986L15 14zm0-9H8l-.117.007a1 1 0 0 0-.876.876L7 6v5l.007.117a1 1 0 0 0 .876.876L8 12h7l.117-.007a1 1 0 0 0 .876-.876L16 11V6l-.007-.117a1 1 0 0 0-.876-.876L15 5zm-1 2v3H9V7h5z" fill="url(#e70b53tc1a)"/>
    <defs>
        <linearGradient id="e70b53tc1a" x1="12.327" y1="1" x2="3.441" y2="18.483" gradientUnits="userSpaceOnUse">
            <stop stop-color="#1E90F9"/>
            <stop offset="1" stop-color="#E022E3"/>
        </linearGradient>
    </defs>
</svg>
