<svg width="16" height="17" viewBox="0 0 16 17" fill="none" xmlns="http://www.w3.org/2000/svg">
    <path fill="#000" fill-opacity=".01" d="M0 .5h16v16H0z"/>
    <path d="M4.302 7.753h7.414V9.23H4.302V7.753zM11.716 4.802H4.302v1.476h7.414V4.802zM4.302 10.722h4.445v1.476H4.302v-1.476z" fill="#E4E7F5"/>
    <path fill-rule="evenodd" clip-rule="evenodd" d="M12.445 15.167h-8.89a2.223 2.223 0 0 1-2.222-2.222v-8.89c0-1.226.996-2.221 2.223-2.221h8.889c1.226 0 2.222.995 2.222 2.222v8.889a2.223 2.223 0 0 1-2.222 2.222zM3.555 3.309a.751.751 0 0 0-.746.747v8.889c0 .409.338.746.747.746h8.889a.751.751 0 0 0 .746-.746v-8.89a.751.751 0 0 0-.746-.746h-8.89z" fill="#E4E7F5"/>
</svg>
