<svg width="35" height="35" viewBox="0 0 35 35" fill="none" xmlns="http://www.w3.org/2000/svg">
    <path d="M1.167 18.083a16.917 16.917 0 1 1 33.833 0 16.917 16.917 0 0 1-33.833 0z" fill="url(#g2zrxdc1pa)"/>
    <path d="M1.167 16.917a16.917 16.917 0 1 1 33.833 0 16.917 16.917 0 0 1-33.833 0z" fill="url(#19u9ch5t5b)"/>
    <path d="M1.412 16.917a16.672 16.672 0 1 1 33.343 0 16.672 16.672 0 0 1-33.343 0z" fill="url(#jrzqc04djc)"/>
    <path d="M3.885 16.917a14.198 14.198 0 1 1 28.397 0 14.198 14.198 0 0 1-28.397 0z" fill="url(#uda6ch9wod)"/>
    <path d="M4.223 16.917a13.86 13.86 0 1 1 27.72 0 13.86 13.86 0 0 1-27.72 0z" fill="url(#n4z3zeo4xe)"/>
    <path d="m11.947 18.27 6.136 3.628v5.017l-6.136-8.645z" fill="#D7AD59"/>
    <path d="m11.947 17.103 6.136-2.788V6.918l-6.136 10.185z" fill="#A27E3D"/>
    <path d="m11.947 17.103 6.136-2.788v6.417l-6.136-3.629z" fill="#D6AC56"/>
    <path d="m24.22 18.27-6.137 3.628v5.017l6.137-8.645z" fill="#52401B"/>
    <path d="m24.22 17.103-6.137-2.788V6.918l6.137 10.185z" fill="#FFFF94"/>
    <path d="m24.22 17.103-6.137-2.788v6.417l6.137-3.629z" fill="#DEB054"/>
    <path fill="#000" fill-opacity=".01" d="M0 0h35v35H0z"/>
    <defs>
        <linearGradient id="g2zrxdc1pa" x1="6.242" y1="29.925" x2="30.462" y2="5.705" gradientUnits="userSpaceOnUse">
            <stop stop-color="#DD5939"/>
            <stop offset=".36" stop-color="#EB7B68"/>
            <stop offset=".53" stop-color="#EA5724"/>
            <stop offset=".57" stop-color="#EF5E49"/>
            <stop offset=".71" stop-color="#F35D42"/>
            <stop offset="1" stop-color="#D55D1F"/>
        </linearGradient>
        <linearGradient id="19u9ch5t5b" x1="6.242" y1="28.758" x2="30.462" y2="4.538" gradientUnits="userSpaceOnUse">
            <stop stop-color="#9FCED6"/>
            <stop offset="1" stop-color="#3FA1AE"/>
        </linearGradient>
        <linearGradient id="jrzqc04djc" x1="6.417" y1="28.583" x2="30.287" y2="4.713" gradientUnits="userSpaceOnUse">
            <stop stop-color="#EEB81F"/>
            <stop offset=".25" stop-color="#FFDF5B"/>
            <stop offset=".71" stop-color="#E09F00"/>
            <stop offset="1" stop-color="#E8A608"/>
        </linearGradient>
        <linearGradient id="uda6ch9wod" x1="8.143" y1="26.857" x2="28.478" y2="6.522" gradientUnits="userSpaceOnUse">
            <stop stop-color="#D2890A"/>
            <stop offset=".16" stop-color="#CA8000"/>
            <stop offset=".71" stop-color="#B97C10"/>
            <stop offset="1" stop-color="#CC8303"/>
        </linearGradient>
        <linearGradient id="n4z3zeo4xe" x1="8.377" y1="26.623" x2="28.233" y2="6.767" gradientUnits="userSpaceOnUse">
            <stop stop-color="#111"/>
            <stop offset=".52" stop-color="#333"/>
            <stop offset="1" stop-color="#0B0B0C"/>
        </linearGradient>
    </defs>
</svg>
