<svg width="114" height="115" viewBox="0 0 114 115" fill="none" xmlns="http://www.w3.org/2000/svg">
    <g clip-path="url(#yxywqck6qa)">
        <path fill="#000" fill-opacity=".01" d="M0 0h114v115H0z"/>
        <rect x=".5" y=".5" width="113" height="114" rx="9.5" fill="#281D31"/>
        <rect x=".5" y=".5" width="113" height="114" rx="9.5" stroke="url(#91psd0bvnb)"/>
        <rect x=".5" y=".5" width="113" height="114" rx="9.5" stroke="url(#qoxk85r1ac)"/>
        <g clip-path="url(#v43qih0eqd)">
            <path fill="#000" fill-opacity=".01" d="M0 0h114v115H0z"/>
            <mask id="r9qmd1z43e" style="mask-type:alpha" maskUnits="userSpaceOnUse" x="0" y="0" width="114" height="115">
                <rect width="114" height="115" rx="10" fill="#D9D9D9"/>
            </mask>
            <g mask="url(#r9qmd1z43e)">
                <g filter="url(#o987k694yf)">
                    <ellipse cx="-12.66" cy="-12.566" rx="46.34" ry="52.434" fill="#A21AE2"/>
                </g>
                <g filter="url(#c0slvf128g)">
                    <ellipse cx="123.964" cy="163.208" rx="54.964" ry="62.208" fill="#A21AE2"/>
                </g>
            </g>
        </g>
    </g>
    <defs>
        <linearGradient id="91psd0bvnb" x1="0" y1="0" x2="40.327" y2="11.213" gradientUnits="userSpaceOnUse">
            <stop stop-color="#FF25C2"/>
            <stop offset="1" stop-opacity="0"/>
        </linearGradient>
        <linearGradient id="qoxk85r1ac" x1="114" y1="115" x2="82.143" y2="108.32" gradientUnits="userSpaceOnUse">
            <stop stop-color="#FF25C2"/>
            <stop offset="1" stop-opacity="0"/>
        </linearGradient>
        <clipPath id="yxywqck6qa">
            <path fill="#fff" d="M0 0h114v115H0z"/>
        </clipPath>
        <clipPath id="v43qih0eqd">
            <path fill="#fff" d="M0 0h114v115H0z"/>
        </clipPath>
        <filter id="o987k694yf" x="-159" y="-165" width="292.679" height="304.868" filterUnits="userSpaceOnUse" color-interpolation-filters="sRGB">
            <feFlood flood-opacity="0" result="BackgroundImageFix"/>
            <feBlend in="SourceGraphic" in2="BackgroundImageFix" result="shape"/>
            <feGaussianBlur stdDeviation="50" result="effect1_foregroundBlur_1177_11014"/>
        </filter>
        <filter id="c0slvf128g" x="-131" y="-99" width="509.927" height="524.416" filterUnits="userSpaceOnUse" color-interpolation-filters="sRGB">
            <feFlood flood-opacity="0" result="BackgroundImageFix"/>
            <feBlend in="SourceGraphic" in2="BackgroundImageFix" result="shape"/>
            <feGaussianBlur stdDeviation="100" result="effect1_foregroundBlur_1177_11014"/>
        </filter>
    </defs>
</svg>
