<svg width="54" height="54" viewBox="0 0 54 54" fill="none" xmlns="http://www.w3.org/2000/svg">
<rect x="0.5625" y="0.5625" width="52.875" height="52.875" fill="url(#paint0_linear_2005_62000)"/>
<rect x="0.5625" y="0.5625" width="52.875" height="52.875" fill="url(#paint1_linear_2005_62000)" fill-opacity="0.8"/>
<rect x="0.5625" y="0.5625" width="52.875" height="52.875" stroke="url(#paint2_linear_2005_62000)" stroke-width="1.125"/>
<g filter="url(#filter0_i_2005_62000)">
<rect x="0.1125" y="0.1125" width="53.775" height="53.775" stroke="url(#paint3_linear_2005_62000)" stroke-width="0.225"/>
</g>
<g style="mix-blend-mode:plus-lighter">
<rect x="11.0249" y="1.125" width="6.975" height="51.75" fill="url(#paint4_linear_2005_62000)" fill-opacity="0.2"/>
<rect x="23.3999" y="1.125" width="6.975" height="51.75" fill="url(#paint5_linear_2005_62000)" fill-opacity="0.2"/>
<rect x="35.7749" y="1.125" width="6.975" height="51.75" fill="url(#paint6_linear_2005_62000)" fill-opacity="0.2"/>
</g>
<g filter="url(#filter1_d_2005_62000)">
<path d="M37.0803 16.8525L37.6395 16.7914L37.0606 16.823L37.0881 16.3134C34.2725 16.1616 32.5374 16.5996 31.7204 16.8898C31.7185 16.8864 31.7166 16.8829 31.7147 16.8794C31.5477 16.576 31.2876 16.1592 30.9129 15.6833C30.1627 14.7307 28.9517 13.5404 27.1082 12.5541L26.8437 12.4125L26.5788 12.5534C24.7239 13.5395 23.5073 14.7295 22.7516 15.6816C22.376 16.1548 22.1144 16.569 21.9446 16.8701C21.7079 16.7834 21.3921 16.6835 20.9928 16.5892C20.022 16.3599 18.5623 16.1644 16.5538 16.2683L16.0757 16.293L16.0237 16.7689L16.5828 16.83C16.0237 16.7689 16.0237 16.769 16.0236 16.7692L16.0236 16.7695L16.0235 16.7704L16.0232 16.773L16.0224 16.7813L16.0196 16.8101C16.0172 16.8347 16.0141 16.87 16.0105 16.9151C16.0034 17.0054 15.9946 17.1355 15.9875 17.2995C15.9732 17.6272 15.9652 18.0919 15.99 18.6467C16.034 19.6345 16.1824 20.9239 16.5927 22.2409C15.1941 22.9822 14.1244 23.8521 13.3863 24.5609C12.9789 24.9522 12.6712 25.2958 12.4635 25.544C12.3596 25.6682 12.2807 25.7686 12.2267 25.8395C12.1997 25.8749 12.1789 25.9029 12.1644 25.9228L12.1473 25.9465L12.1422 25.9536L12.1406 25.956L12.14 25.9568L12.1397 25.9572C12.1396 25.9573 12.1395 25.9575 12.6003 26.28L12.1395 25.9575L11.929 26.2583L12.1196 26.5721C13.3552 28.6062 15.5224 29.9666 16.3343 30.4247C16.2848 30.716 16.2213 31.1528 16.1584 31.7568L16.1583 31.7568L16.1575 31.7663C16.066 32.8176 15.9752 34.3435 15.9979 36.4337L16.0029 36.8944L16.4555 36.9802L16.5603 36.4275C16.4555 36.9802 16.4556 36.9802 16.4557 36.9802L16.4558 36.9803L16.4563 36.9803L16.4575 36.9806L16.4614 36.9813L16.4748 36.9838L16.5236 36.9924C16.5657 36.9997 16.6266 37.0099 16.7045 37.022C16.8602 37.0463 17.0843 37.0783 17.3626 37.1101C17.9184 37.1738 18.6941 37.2375 19.5753 37.2376L19.5808 37.2375C21.7765 37.2164 24.8149 36.7906 26.7978 34.7226C28.7805 36.7903 31.8183 37.2163 34.014 37.2375C34.899 37.2491 35.6778 37.1851 36.236 37.1182C36.5156 37.0848 36.7409 37.0504 36.8976 37.0242C36.976 37.011 37.0374 36.9999 37.0799 36.9919L37.1294 36.9824L37.1431 36.9797L37.1472 36.9788L37.1485 36.9786L37.1489 36.9785L37.1491 36.9784C37.1492 36.9784 37.1493 36.9784 37.0353 36.4275L37.1493 36.9784L37.5928 36.8866L37.5978 36.4337C37.6204 34.3784 37.5531 32.8491 37.4379 31.7843C37.3869 31.1634 37.3218 30.7188 37.2686 30.425C38.1387 29.9374 40.2625 28.6011 41.4781 26.5688L41.5578 26.4354V26.3045C41.5623 26.2525 41.5586 26.2122 41.5562 26.1914C41.551 26.1462 41.5414 26.1107 41.5355 26.0911C41.5166 26.028 41.4892 25.9784 41.4823 25.9659L41.4816 25.9647C41.4598 25.9251 41.4327 25.8836 41.4079 25.8474C41.3548 25.7699 41.2772 25.6659 41.1772 25.5422C40.9762 25.2935 40.6729 24.9507 40.2691 24.5616C39.5379 23.8569 38.4689 22.9925 37.0713 22.2608C37.4809 20.9448 37.6292 19.6563 37.6732 18.6692C37.698 18.1144 37.69 17.6497 37.6757 17.322C37.6685 17.158 37.6598 17.0279 37.6527 16.9376C37.6491 16.8925 37.646 16.8572 37.6436 16.8326L37.6408 16.8038L37.6399 16.7955L37.6397 16.7929L37.6396 16.792L37.6395 16.7917C37.6395 16.7915 37.6395 16.7914 37.0803 16.8525ZM36.6646 16.4818L37.0086 16.8258L36.8415 16.8349C36.5514 16.7831 36.5768 16.626 36.6646 16.4818Z" fill="url(#paint7_linear_2005_62000)"/>
<path d="M37.0803 16.8525L37.6395 16.7914L37.0606 16.823L37.0881 16.3134C34.2725 16.1616 32.5374 16.5996 31.7204 16.8898C31.7185 16.8864 31.7166 16.8829 31.7147 16.8794C31.5477 16.576 31.2876 16.1592 30.9129 15.6833C30.1627 14.7307 28.9517 13.5404 27.1082 12.5541L26.8437 12.4125L26.5788 12.5534C24.7239 13.5395 23.5073 14.7295 22.7516 15.6816C22.376 16.1548 22.1144 16.569 21.9446 16.8701C21.7079 16.7834 21.3921 16.6835 20.9928 16.5892C20.022 16.3599 18.5623 16.1644 16.5538 16.2683L16.0757 16.293L16.0237 16.7689L16.5828 16.83C16.0237 16.7689 16.0237 16.769 16.0236 16.7692L16.0236 16.7695L16.0235 16.7704L16.0232 16.773L16.0224 16.7813L16.0196 16.8101C16.0172 16.8347 16.0141 16.87 16.0105 16.9151C16.0034 17.0054 15.9946 17.1355 15.9875 17.2995C15.9732 17.6272 15.9652 18.0919 15.99 18.6467C16.034 19.6345 16.1824 20.9239 16.5927 22.2409C15.1941 22.9822 14.1244 23.8521 13.3863 24.5609C12.9789 24.9522 12.6712 25.2958 12.4635 25.544C12.3596 25.6682 12.2807 25.7686 12.2267 25.8395C12.1997 25.8749 12.1789 25.9029 12.1644 25.9228L12.1473 25.9465L12.1422 25.9536L12.1406 25.956L12.14 25.9568L12.1397 25.9572C12.1396 25.9573 12.1395 25.9575 12.6003 26.28L12.1395 25.9575L11.929 26.2583L12.1196 26.5721C13.3552 28.6062 15.5224 29.9666 16.3343 30.4247C16.2848 30.716 16.2213 31.1528 16.1584 31.7568L16.1583 31.7568L16.1575 31.7663C16.066 32.8176 15.9752 34.3435 15.9979 36.4337L16.0029 36.8944L16.4555 36.9802L16.5603 36.4275C16.4555 36.9802 16.4556 36.9802 16.4557 36.9802L16.4558 36.9803L16.4563 36.9803L16.4575 36.9806L16.4614 36.9813L16.4748 36.9838L16.5236 36.9924C16.5657 36.9997 16.6266 37.0099 16.7045 37.022C16.8602 37.0463 17.0843 37.0783 17.3626 37.1101C17.9184 37.1738 18.6941 37.2375 19.5753 37.2376L19.5808 37.2375C21.7765 37.2164 24.8149 36.7906 26.7978 34.7226C28.7805 36.7903 31.8183 37.2163 34.014 37.2375C34.899 37.2491 35.6778 37.1851 36.236 37.1182C36.5156 37.0848 36.7409 37.0504 36.8976 37.0242C36.976 37.011 37.0374 36.9999 37.0799 36.9919L37.1294 36.9824L37.1431 36.9797L37.1472 36.9788L37.1485 36.9786L37.1489 36.9785L37.1491 36.9784C37.1492 36.9784 37.1493 36.9784 37.0353 36.4275L37.1493 36.9784L37.5928 36.8866L37.5978 36.4337C37.6204 34.3784 37.5531 32.8491 37.4379 31.7843C37.3869 31.1634 37.3218 30.7188 37.2686 30.425C38.1387 29.9374 40.2625 28.6011 41.4781 26.5688L41.5578 26.4354V26.3045C41.5623 26.2525 41.5586 26.2122 41.5562 26.1914C41.551 26.1462 41.5414 26.1107 41.5355 26.0911C41.5166 26.028 41.4892 25.9784 41.4823 25.9659L41.4816 25.9647C41.4598 25.9251 41.4327 25.8836 41.4079 25.8474C41.3548 25.7699 41.2772 25.6659 41.1772 25.5422C40.9762 25.2935 40.6729 24.9507 40.2691 24.5616C39.5379 23.8569 38.4689 22.9925 37.0713 22.2608C37.4809 20.9448 37.6292 19.6563 37.6732 18.6692C37.698 18.1144 37.69 17.6497 37.6757 17.322C37.6685 17.158 37.6598 17.0279 37.6527 16.9376C37.6491 16.8925 37.646 16.8572 37.6436 16.8326L37.6408 16.8038L37.6399 16.7955L37.6397 16.7929L37.6396 16.792L37.6395 16.7917C37.6395 16.7915 37.6395 16.7914 37.0803 16.8525ZM36.6646 16.4818L37.0086 16.8258L36.8415 16.8349C36.5514 16.7831 36.5768 16.626 36.6646 16.4818Z" stroke="black" stroke-width="1.125"/>
<path d="M37.0803 16.8525L37.6395 16.7914L37.0606 16.823L37.0881 16.3134C34.2725 16.1616 32.5374 16.5996 31.7204 16.8898C31.7185 16.8864 31.7166 16.8829 31.7147 16.8794C31.5477 16.576 31.2876 16.1592 30.9129 15.6833C30.1627 14.7307 28.9517 13.5404 27.1082 12.5541L26.8437 12.4125L26.5788 12.5534C24.7239 13.5395 23.5073 14.7295 22.7516 15.6816C22.376 16.1548 22.1144 16.569 21.9446 16.8701C21.7079 16.7834 21.3921 16.6835 20.9928 16.5892C20.022 16.3599 18.5623 16.1644 16.5538 16.2683L16.0757 16.293L16.0237 16.7689L16.5828 16.83C16.0237 16.7689 16.0237 16.769 16.0236 16.7692L16.0236 16.7695L16.0235 16.7704L16.0232 16.773L16.0224 16.7813L16.0196 16.8101C16.0172 16.8347 16.0141 16.87 16.0105 16.9151C16.0034 17.0054 15.9946 17.1355 15.9875 17.2995C15.9732 17.6272 15.9652 18.0919 15.99 18.6467C16.034 19.6345 16.1824 20.9239 16.5927 22.2409C15.1941 22.9822 14.1244 23.8521 13.3863 24.5609C12.9789 24.9522 12.6712 25.2958 12.4635 25.544C12.3596 25.6682 12.2807 25.7686 12.2267 25.8395C12.1997 25.8749 12.1789 25.9029 12.1644 25.9228L12.1473 25.9465L12.1422 25.9536L12.1406 25.956L12.14 25.9568L12.1397 25.9572C12.1396 25.9573 12.1395 25.9575 12.6003 26.28L12.1395 25.9575L11.929 26.2583L12.1196 26.5721C13.3552 28.6062 15.5224 29.9666 16.3343 30.4247C16.2848 30.716 16.2213 31.1528 16.1584 31.7568L16.1583 31.7568L16.1575 31.7663C16.066 32.8176 15.9752 34.3435 15.9979 36.4337L16.0029 36.8944L16.4555 36.9802L16.5603 36.4275C16.4555 36.9802 16.4556 36.9802 16.4557 36.9802L16.4558 36.9803L16.4563 36.9803L16.4575 36.9806L16.4614 36.9813L16.4748 36.9838L16.5236 36.9924C16.5657 36.9997 16.6266 37.0099 16.7045 37.022C16.8602 37.0463 17.0843 37.0783 17.3626 37.1101C17.9184 37.1738 18.6941 37.2375 19.5753 37.2376L19.5808 37.2375C21.7765 37.2164 24.8149 36.7906 26.7978 34.7226C28.7805 36.7903 31.8183 37.2163 34.014 37.2375C34.899 37.2491 35.6778 37.1851 36.236 37.1182C36.5156 37.0848 36.7409 37.0504 36.8976 37.0242C36.976 37.011 37.0374 36.9999 37.0799 36.9919L37.1294 36.9824L37.1431 36.9797L37.1472 36.9788L37.1485 36.9786L37.1489 36.9785L37.1491 36.9784C37.1492 36.9784 37.1493 36.9784 37.0353 36.4275L37.1493 36.9784L37.5928 36.8866L37.5978 36.4337C37.6204 34.3784 37.5531 32.8491 37.4379 31.7843C37.3869 31.1634 37.3218 30.7188 37.2686 30.425C38.1387 29.9374 40.2625 28.6011 41.4781 26.5688L41.5578 26.4354V26.3045C41.5623 26.2525 41.5586 26.2122 41.5562 26.1914C41.551 26.1462 41.5414 26.1107 41.5355 26.0911C41.5166 26.028 41.4892 25.9784 41.4823 25.9659L41.4816 25.9647C41.4598 25.9251 41.4327 25.8836 41.4079 25.8474C41.3548 25.7699 41.2772 25.6659 41.1772 25.5422C40.9762 25.2935 40.6729 24.9507 40.2691 24.5616C39.5379 23.8569 38.4689 22.9925 37.0713 22.2608C37.4809 20.9448 37.6292 19.6563 37.6732 18.6692C37.698 18.1144 37.69 17.6497 37.6757 17.322C37.6685 17.158 37.6598 17.0279 37.6527 16.9376C37.6491 16.8925 37.646 16.8572 37.6436 16.8326L37.6408 16.8038L37.6399 16.7955L37.6397 16.7929L37.6396 16.792L37.6395 16.7917C37.6395 16.7915 37.6395 16.7914 37.0803 16.8525ZM36.6646 16.4818L37.0086 16.8258L36.8415 16.8349C36.5514 16.7831 36.5768 16.626 36.6646 16.4818Z" stroke="url(#paint8_angular_2005_62000)" stroke-width="1.125"/>
<path d="M26.8327 13.05V28.7249V28.7078C26.7469 28.3301 25.339 22.0292 22.2144 17.5997C22.2144 17.5997 23.296 14.9386 26.8327 13.05Z" fill="url(#paint9_linear_2005_62000)"/>
<path d="M26.8329 28.7249C23.8971 22.7502 16.5833 16.8443 16.5833 16.8443C20.5149 16.6211 22.2145 17.5997 22.2145 17.5997C25.3392 22.0292 26.747 28.33 26.8329 28.7249Z" fill="url(#paint10_linear_2005_62000)"/>
<path d="M26.8328 28.7251C22.1973 24.4501 17.2871 22.5444 17.2871 22.5444C16.2742 19.7288 16.5832 16.8445 16.5832 16.8445C16.5832 16.8445 23.897 22.7505 26.8328 28.7251Z" fill="url(#paint11_linear_2005_62000)"/>
<path d="M26.8327 28.7249C26.8327 28.7249 19.8795 29.1026 16.978 30.1327C16.978 30.1327 16.5144 32.0899 16.5831 36.4335C16.5831 36.4335 17.8879 36.6911 19.6048 36.6739C21.9397 36.6567 25.0472 36.1588 26.8327 33.8582V28.7249Z" fill="url(#paint12_linear_2005_62000)"/>
<path d="M26.8329 28.7249L16.5833 36.4164C16.5489 31.7465 16.9781 30.1155 16.9781 30.1155C19.8796 29.1026 26.8329 28.7249 26.8329 28.7249Z" fill="url(#paint13_linear_2005_62000)"/>
<path d="M26.8328 28.7249C22.1973 24.4499 17.2871 22.5442 17.2871 22.5442C14.1796 24.0207 12.6001 26.2869 12.6001 26.2869C12.6001 26.2869 20.7723 25.274 26.8328 28.7249Z" fill="url(#paint14_linear_2005_62000)"/>
<path d="M16.9781 30.1328C19.8796 29.1027 26.8328 28.725 26.8328 28.725C20.7723 25.2741 12.6001 26.287 12.6001 26.287C14.0766 28.725 16.9781 30.1328 16.9781 30.1328Z" fill="url(#paint15_linear_2005_62000)"/>
<path d="M26.8328 13.05V28.7249V28.7078C26.9186 28.3129 28.3264 22.0292 31.4511 17.5825C31.4511 17.5997 30.3695 14.9386 26.8328 13.05Z" fill="url(#paint16_linear_2005_62000)"/>
<path d="M26.8328 28.7248C29.7686 22.7502 37.0824 16.8614 37.0824 16.8614C33.1508 16.6382 31.4339 17.5996 31.4339 17.5996C28.3264 22.0291 26.9186 28.33 26.8328 28.7248Z" fill="url(#paint17_linear_2005_62000)"/>
<path d="M26.8328 28.7251C31.4683 24.4501 36.3785 22.5444 36.3785 22.5444C37.3914 19.7288 37.0824 16.8445 37.0824 16.8445C37.0824 16.8445 29.7686 22.7505 26.8328 28.7251Z" fill="url(#paint18_linear_2005_62000)"/>
<path d="M26.8328 28.7249C26.8328 28.7249 33.786 29.1026 36.6875 30.1327C36.6875 30.1327 37.1511 32.0899 37.0824 36.4335C37.0824 36.4335 35.7776 36.6911 34.0607 36.6739C31.7258 36.6567 28.6183 36.1588 26.8328 33.8582V28.7249Z" fill="url(#paint19_linear_2005_62000)"/>
<path d="M26.8328 28.7249L37.0824 36.4164C37.1167 31.7465 36.6875 30.1155 36.6875 30.1155C33.786 29.1026 26.8328 28.7249 26.8328 28.7249Z" fill="url(#paint20_linear_2005_62000)"/>
<path d="M26.8328 28.7249C31.4683 24.4499 36.3785 22.5442 36.3785 22.5442C39.486 24.0207 41.0655 26.2698 41.0655 26.2698C41.0655 26.2698 32.8761 25.274 26.8328 28.7249Z" fill="url(#paint21_linear_2005_62000)"/>
<path d="M36.6875 30.1328C33.786 29.1027 26.8328 28.725 26.8328 28.725C32.8761 25.2741 41.0655 26.287 41.0655 26.287C39.589 28.725 36.6875 30.1328 36.6875 30.1328Z" fill="url(#paint22_linear_2005_62000)"/>
</g>
<rect x="2.25" y="49.05" width="49.5" height="2.7" rx="0.45" fill="#191919"/>
<path d="M2.25 50.175C2.25 49.5537 2.75368 49.05 3.375 49.05H27V51.75H3.375C2.75368 51.75 2.25 51.2464 2.25 50.625V50.175Z" fill="url(#paint23_radial_2005_62000)"/>
<g filter="url(#filter2_dd_2005_62000)">
<rect x="2.3625" y="49.1625" width="49.275" height="2.475" rx="0.3375" stroke="url(#paint24_linear_2005_62000)" stroke-width="0.225"/>
</g>
<g filter="url(#filter3_dd_2005_62000)">
<path d="M27 49.05V51.75" stroke="url(#paint25_linear_2005_62000)" stroke-width="0.225"/>
</g>
<defs>
<filter id="filter0_i_2005_62000" x="0" y="0" width="54" height="54.9" filterUnits="userSpaceOnUse" color-interpolation-filters="sRGB">
<feFlood flood-opacity="0" result="BackgroundImageFix"/>
<feBlend mode="normal" in="SourceGraphic" in2="BackgroundImageFix" result="shape"/>
<feColorMatrix in="SourceAlpha" type="matrix" values="0 0 0 0 0 0 0 0 0 0 0 0 0 0 0 0 0 0 127 0" result="hardAlpha"/>
<feOffset dy="0.9"/>
<feGaussianBlur stdDeviation="0.45"/>
<feComposite in2="hardAlpha" operator="arithmetic" k2="-1" k3="1"/>
<feColorMatrix type="matrix" values="0 0 0 0 0 0 0 0 0 0 0 0 0 0 0 0 0 0 0.25 0"/>
<feBlend mode="normal" in2="shape" result="effect1_innerShadow_2005_62000"/>
</filter>
<filter id="filter1_d_2005_62000" x="0.00756836" y="0.525024" width="53.365" height="48.5262" filterUnits="userSpaceOnUse" color-interpolation-filters="sRGB">
<feFlood flood-opacity="0" result="BackgroundImageFix"/>
<feColorMatrix in="SourceAlpha" type="matrix" values="0 0 0 0 0 0 0 0 0 0 0 0 0 0 0 0 0 0 127 0" result="hardAlpha"/>
<feOffset/>
<feGaussianBlur stdDeviation="5.625"/>
<feColorMatrix type="matrix" values="0 0 0 0 0 0 0 0 0 0 0 0 0 0 0 0 0 0 0.8 0"/>
<feBlend mode="normal" in2="BackgroundImageFix" result="effect1_dropShadow_2005_62000"/>
<feBlend mode="normal" in="SourceGraphic" in2="effect1_dropShadow_2005_62000" result="shape"/>
</filter>
<filter id="filter2_dd_2005_62000" x="1.35" y="48.15" width="51.3" height="4.49995" filterUnits="userSpaceOnUse" color-interpolation-filters="sRGB">
<feFlood flood-opacity="0" result="BackgroundImageFix"/>
<feColorMatrix in="SourceAlpha" type="matrix" values="0 0 0 0 0 0 0 0 0 0 0 0 0 0 0 0 0 0 127 0" result="hardAlpha"/>
<feOffset/>
<feGaussianBlur stdDeviation="0.45"/>
<feColorMatrix type="matrix" values="0 0 0 0 0 0 0 0 0 0 0 0 0 0 0 0 0 0 1 0"/>
<feBlend mode="normal" in2="BackgroundImageFix" result="effect1_dropShadow_2005_62000"/>
<feColorMatrix in="SourceAlpha" type="matrix" values="0 0 0 0 0 0 0 0 0 0 0 0 0 0 0 0 0 0 127 0" result="hardAlpha"/>
<feOffset/>
<feGaussianBlur stdDeviation="0.225"/>
<feColorMatrix type="matrix" values="0 0 0 0 0 0 0 0 0 0 0 0 0 0 0 0 0 0 1 0"/>
<feBlend mode="normal" in2="effect1_dropShadow_2005_62000" result="effect2_dropShadow_2005_62000"/>
<feBlend mode="normal" in="SourceGraphic" in2="effect2_dropShadow_2005_62000" result="shape"/>
</filter>
<filter id="filter3_dd_2005_62000" x="25.9875" y="48.15" width="2.0251" height="4.49995" filterUnits="userSpaceOnUse" color-interpolation-filters="sRGB">
<feFlood flood-opacity="0" result="BackgroundImageFix"/>
<feColorMatrix in="SourceAlpha" type="matrix" values="0 0 0 0 0 0 0 0 0 0 0 0 0 0 0 0 0 0 127 0" result="hardAlpha"/>
<feOffset/>
<feGaussianBlur stdDeviation="0.45"/>
<feColorMatrix type="matrix" values="0 0 0 0 0 0 0 0 0 0 0 0 0 0 0 0 0 0 1 0"/>
<feBlend mode="normal" in2="BackgroundImageFix" result="effect1_dropShadow_2005_62000"/>
<feColorMatrix in="SourceAlpha" type="matrix" values="0 0 0 0 0 0 0 0 0 0 0 0 0 0 0 0 0 0 127 0" result="hardAlpha"/>
<feOffset/>
<feGaussianBlur stdDeviation="0.225"/>
<feColorMatrix type="matrix" values="0 0 0 0 0 0 0 0 0 0 0 0 0 0 0 0 0 0 1 0"/>
<feBlend mode="normal" in2="effect1_dropShadow_2005_62000" result="effect2_dropShadow_2005_62000"/>
<feBlend mode="normal" in="SourceGraphic" in2="effect2_dropShadow_2005_62000" result="shape"/>
</filter>
<linearGradient id="paint0_linear_2005_62000" x1="27" y1="0" x2="27" y2="54" gradientUnits="userSpaceOnUse">
<stop stop-color="#101010"/>
<stop offset="1" stop-color="#131313"/>
</linearGradient>
<linearGradient id="paint1_linear_2005_62000" x1="54" y1="-1.83743e-06" x2="-1.83743e-06" y2="54" gradientUnits="userSpaceOnUse">
<stop stop-color="#EDDE79"/>
<stop offset="0.685495" stop-color="#D69A2D"/>
<stop offset="1" stop-color="#F9F093"/>
</linearGradient>
<linearGradient id="paint2_linear_2005_62000" x1="203.94" y1="-15.0134" x2="162.739" y2="110.512" gradientUnits="userSpaceOnUse">
<stop stop-color="white"/>
<stop offset="0.3172" stop-color="#EDDE79"/>
<stop offset="0.6237" stop-color="#D69A2D"/>
<stop offset="0.8978" stop-color="#F9F093"/>
</linearGradient>
<linearGradient id="paint3_linear_2005_62000" x1="-3.15" y1="-2.8125" x2="44.3036" y2="-10.0018" gradientUnits="userSpaceOnUse">
<stop stop-color="white"/>
<stop offset="0.3172" stop-color="#EDDE79"/>
<stop offset="0.6237" stop-color="#D69A2D"/>
<stop offset="0.8978" stop-color="#F9F093"/>
</linearGradient>
<linearGradient id="paint4_linear_2005_62000" x1="14.5124" y1="1.125" x2="14.5124" y2="52.875" gradientUnits="userSpaceOnUse">
<stop stop-color="#F4E181"/>
<stop offset="1" stop-color="#F4E181" stop-opacity="0"/>
</linearGradient>
<linearGradient id="paint5_linear_2005_62000" x1="26.8874" y1="1.125" x2="26.8874" y2="52.875" gradientUnits="userSpaceOnUse">
<stop stop-color="#F4E181"/>
<stop offset="1" stop-color="#F4E181" stop-opacity="0"/>
</linearGradient>
<linearGradient id="paint6_linear_2005_62000" x1="39.2624" y1="1.125" x2="39.2624" y2="52.875" gradientUnits="userSpaceOnUse">
<stop stop-color="#F4E181"/>
<stop offset="1" stop-color="#F4E181" stop-opacity="0"/>
</linearGradient>
<linearGradient id="paint7_linear_2005_62000" x1="34.4911" y1="-20.4333" x2="16.1286" y2="91.5928" gradientUnits="userSpaceOnUse">
<stop stop-color="white"/>
<stop offset="0.3172" stop-color="#EDDE79"/>
<stop offset="0.6237" stop-color="#D69A2D"/>
<stop offset="0.8978" stop-color="#F9F093"/>
</linearGradient>
<radialGradient id="paint8_angular_2005_62000" cx="0" cy="0" r="1" gradientUnits="userSpaceOnUse" gradientTransform="translate(26.7989 25.9707) rotate(-44.8885) scale(11.9854 11.9853)">
<stop offset="0.10135" stop-color="#EDDE79"/>
<stop offset="0.371555" stop-color="white"/>
<stop offset="0.619704" stop-color="#D69A2D"/>
<stop offset="0.879496" stop-color="#F9F093"/>
</radialGradient>
<linearGradient id="paint9_linear_2005_62000" x1="37.4085" y1="40.6056" x2="17.6355" y2="17.9198" gradientUnits="userSpaceOnUse">
<stop stop-color="white"/>
<stop offset="0.3172" stop-color="#EDDE79"/>
<stop offset="0.6237" stop-color="#D69A2D"/>
<stop offset="0.8978" stop-color="#F9F093"/>
</linearGradient>
<linearGradient id="paint10_linear_2005_62000" x1="9.42393" y1="2.4055" x2="33.4372" y2="7.55222" gradientUnits="userSpaceOnUse">
<stop stop-color="white"/>
<stop offset="0.3172" stop-color="#EDDE79"/>
<stop offset="0.6237" stop-color="#D69A2D"/>
<stop offset="0.8978" stop-color="#F9F093"/>
</linearGradient>
<linearGradient id="paint11_linear_2005_62000" x1="22.8894" y1="18.109" x2="15.1398" y2="31.5795" gradientUnits="userSpaceOnUse">
<stop stop-color="white"/>
<stop offset="0.3172" stop-color="#EDDE79"/>
<stop offset="0.6237" stop-color="#D69A2D"/>
<stop offset="0.8978" stop-color="#F9F093"/>
</linearGradient>
<linearGradient id="paint12_linear_2005_62000" x1="42.4631" y1="12.037" x2="48.0942" y2="27.8702" gradientUnits="userSpaceOnUse">
<stop stop-color="white"/>
<stop offset="0.3172" stop-color="#EDDE79"/>
<stop offset="0.6237" stop-color="#D69A2D"/>
<stop offset="0.8978" stop-color="#F9F093"/>
</linearGradient>
<linearGradient id="paint13_linear_2005_62000" x1="29.3838" y1="43.6869" x2="14.7657" y2="28.3435" gradientUnits="userSpaceOnUse">
<stop stop-color="white"/>
<stop offset="0.3172" stop-color="#EDDE79"/>
<stop offset="0.6237" stop-color="#D69A2D"/>
<stop offset="0.8978" stop-color="#F9F093"/>
</linearGradient>
<linearGradient id="paint14_linear_2005_62000" x1="29.3852" y1="35.8727" x2="25.3839" y2="12.6509" gradientUnits="userSpaceOnUse">
<stop stop-color="white"/>
<stop offset="0.3172" stop-color="#EDDE79"/>
<stop offset="0.6237" stop-color="#D69A2D"/>
<stop offset="0.8978" stop-color="#F9F093"/>
</linearGradient>
<linearGradient id="paint15_linear_2005_62000" x1="29.3852" y1="34.7406" x2="26.3491" y2="16.2177" gradientUnits="userSpaceOnUse">
<stop stop-color="white"/>
<stop offset="0.3172" stop-color="#EDDE79"/>
<stop offset="0.6237" stop-color="#D69A2D"/>
<stop offset="0.8978" stop-color="#F9F093"/>
</linearGradient>
<linearGradient id="paint16_linear_2005_62000" x1="19.1547" y1="28.7009" x2="39.0181" y2="10.7878" gradientUnits="userSpaceOnUse">
<stop stop-color="white"/>
<stop offset="0.3172" stop-color="#EDDE79"/>
<stop offset="0.6237" stop-color="#D69A2D"/>
<stop offset="0.8978" stop-color="#F9F093"/>
</linearGradient>
<linearGradient id="paint17_linear_2005_62000" x1="27.4867" y1="15.8338" x2="36.9404" y2="23.9917" gradientUnits="userSpaceOnUse">
<stop stop-color="white"/>
<stop offset="0.3172" stop-color="#EDDE79"/>
<stop offset="0.6237" stop-color="#D69A2D"/>
<stop offset="0.8978" stop-color="#F9F093"/>
</linearGradient>
<linearGradient id="paint18_linear_2005_62000" x1="39.51" y1="15.2013" x2="31.8786" y2="37.4707" gradientUnits="userSpaceOnUse">
<stop stop-color="white"/>
<stop offset="0.3172" stop-color="#EDDE79"/>
<stop offset="0.6237" stop-color="#D69A2D"/>
<stop offset="0.8978" stop-color="#F9F093"/>
</linearGradient>
<linearGradient id="paint19_linear_2005_62000" x1="39.6415" y1="44.1895" x2="24.5165" y2="28.8226" gradientUnits="userSpaceOnUse">
<stop stop-color="white"/>
<stop offset="0.3172" stop-color="#EDDE79"/>
<stop offset="0.6237" stop-color="#D69A2D"/>
<stop offset="0.8978" stop-color="#F9F093"/>
</linearGradient>
<linearGradient id="paint20_linear_2005_62000" x1="47.631" y1="21.5291" x2="28.723" y2="32.0576" gradientUnits="userSpaceOnUse">
<stop stop-color="white"/>
<stop offset="0.3172" stop-color="#EDDE79"/>
<stop offset="0.6237" stop-color="#D69A2D"/>
<stop offset="0.8978" stop-color="#F9F093"/>
</linearGradient>
<linearGradient id="paint21_linear_2005_62000" x1="43.6179" y1="35.8727" x2="39.6165" y2="12.6509" gradientUnits="userSpaceOnUse">
<stop stop-color="white"/>
<stop offset="0.3172" stop-color="#EDDE79"/>
<stop offset="0.6237" stop-color="#D69A2D"/>
<stop offset="0.8978" stop-color="#F9F093"/>
</linearGradient>
<linearGradient id="paint22_linear_2005_62000" x1="43.6179" y1="34.7406" x2="40.5818" y2="16.2177" gradientUnits="userSpaceOnUse">
<stop stop-color="white"/>
<stop offset="0.3172" stop-color="#EDDE79"/>
<stop offset="0.6237" stop-color="#D69A2D"/>
<stop offset="0.8978" stop-color="#F9F093"/>
</linearGradient>
<radialGradient id="paint23_radial_2005_62000" cx="0" cy="0" r="1" gradientUnits="userSpaceOnUse" gradientTransform="translate(15.525 51.75) rotate(180) scale(13.275)">
<stop stop-color="#FAF5D5"/>
<stop offset="0.246668" stop-color="#EFE182"/>
<stop offset="0.505747" stop-color="#EACB67"/>
<stop offset="0.745868" stop-color="#E2B850"/>
<stop offset="1" stop-color="#DDAB41"/>
</radialGradient>
<linearGradient id="paint24_linear_2005_62000" x1="27" y1="49.05" x2="27" y2="51.75" gradientUnits="userSpaceOnUse">
<stop stop-color="#E5E5E5"/>
<stop offset="1" stop-color="#444B53"/>
</linearGradient>
<linearGradient id="paint25_linear_2005_62000" x1="27.5" y1="49.05" x2="27.5" y2="51.75" gradientUnits="userSpaceOnUse">
<stop stop-color="#E5E5E5"/>
<stop offset="1" stop-color="#444B53"/>
</linearGradient>
</defs>
</svg>
