<svg width="55" height="54" viewBox="0 0 55 54" fill="none" xmlns="http://www.w3.org/2000/svg">
<g clip-path="url(#clip0_2201_104547)">
<rect width="54" height="54" transform="translate(0.212402)" fill="black" fill-opacity="0.01"/>
<rect x="0.774902" y="0.5625" width="52.875" height="52.875" fill="url(#paint0_linear_2201_104547)"/>
<rect x="0.774902" y="0.5625" width="52.875" height="52.875" fill="url(#paint1_linear_2201_104547)" fill-opacity="0.5"/>
<rect x="0.774902" y="0.5625" width="52.875" height="52.875" stroke="url(#paint2_linear_2201_104547)" stroke-width="1.125"/>
<g filter="url(#filter0_i_2201_104547)">
<rect x="0.324902" y="0.1125" width="53.775" height="53.775" stroke="url(#paint3_linear_2201_104547)" stroke-width="0.225"/>
</g>
<g style="mix-blend-mode:plus-darker">
<rect x="17.5374" y="1.125" width="6.975" height="51.75" fill="url(#paint4_linear_2201_104547)" fill-opacity="0.2"/>
<rect x="29.9124" y="1.125" width="6.975" height="51.75" fill="url(#paint5_linear_2201_104547)" fill-opacity="0.2"/>
</g>
<g filter="url(#filter1_d_2201_104547)">
<path fill-rule="evenodd" clip-rule="evenodd" d="M28.0697 13.2704L26.51 10.575L24.9503 13.2704L21.8362 13.2734L23.3906 15.9719L21.8362 18.6703L24.9503 18.6734L26.51 21.3688L28.0697 18.6734L31.1839 18.6703L29.6294 15.9719L31.1839 13.2734L28.0697 13.2704Z" fill="url(#paint6_radial_2201_104547)"/>
<path d="M26.5102 15.9719V11.209L25.1289 13.5904L26.5102 15.9719Z" fill="url(#paint7_radial_2201_104547)"/>
<path d="M25.1289 13.5903H22.3823L26.5102 15.9718L25.1289 13.5903Z" fill="url(#paint8_linear_2201_104547)"/>
<path d="M22.3823 13.5903L23.7556 15.9718H26.5102L22.3823 13.5903Z" fill="url(#paint9_linear_2201_104547)"/>
<path d="M23.7556 15.9717H26.5102L22.3823 18.3531L23.7556 15.9717Z" fill="url(#paint10_linear_2201_104547)"/>
<path d="M26.5102 15.9717L22.3823 18.3531H25.1289L26.5102 15.9717Z" fill="url(#paint11_linear_2201_104547)"/>
<path d="M26.5102 15.9717L25.1289 18.3531L26.5102 20.7346V15.9717Z" fill="url(#paint12_linear_2201_104547)"/>
<path d="M26.5103 15.9719V11.209L27.8836 13.5904L26.5103 15.9719Z" fill="url(#paint13_linear_2201_104547)"/>
<path d="M26.5102 15.9719V11.209L25.1289 13.5904L26.5102 15.9719Z" fill="url(#paint14_linear_2201_104547)"/>
<path d="M27.8836 13.5903H30.6302L26.5103 15.9718L27.8836 13.5903Z" fill="url(#paint15_linear_2201_104547)"/>
<path d="M30.6302 13.5903L29.2569 15.9718H26.5103L30.6302 13.5903Z" fill="url(#paint16_linear_2201_104547)"/>
<path d="M29.2569 15.9717H26.5103L30.6302 18.3531L29.2569 15.9717Z" fill="url(#paint17_linear_2201_104547)"/>
<path d="M26.5103 15.9717L30.6302 18.3531H27.8836L26.5103 15.9717Z" fill="url(#paint18_linear_2201_104547)"/>
<path d="M26.5103 15.9717L27.8836 18.3531L26.5103 20.7346V15.9717Z" fill="url(#paint19_linear_2201_104547)"/>
</g>
<g filter="url(#filter2_d_2201_104547)">
<path fill-rule="evenodd" clip-rule="evenodd" d="M20.7209 21.1454L19.1612 18.45L17.6015 21.1454L14.4873 21.1484L16.0417 23.8469L14.4873 26.5453L17.6015 26.5484L19.1612 29.2438L20.7209 26.5484L23.835 26.5453L22.2806 23.8469L23.835 21.1484L20.7209 21.1454Z" fill="url(#paint20_radial_2201_104547)"/>
<path d="M19.1613 23.8469V19.084L17.78 21.4654L19.1613 23.8469Z" fill="url(#paint21_radial_2201_104547)"/>
<path d="M17.7801 21.4653H15.0334L19.1613 23.8468L17.7801 21.4653Z" fill="url(#paint22_linear_2201_104547)"/>
<path d="M15.0334 21.4653L16.4068 23.8468H19.1613L15.0334 21.4653Z" fill="url(#paint23_linear_2201_104547)"/>
<path d="M16.4068 23.8467H19.1613L15.0334 26.2281L16.4068 23.8467Z" fill="url(#paint24_linear_2201_104547)"/>
<path d="M19.1613 23.8467L15.0334 26.2281H17.7801L19.1613 23.8467Z" fill="url(#paint25_linear_2201_104547)"/>
<path d="M19.1613 23.8467L17.78 26.2281L19.1613 28.6096V23.8467Z" fill="url(#paint26_linear_2201_104547)"/>
<path d="M19.1614 23.8469V19.084L20.5347 21.4654L19.1614 23.8469Z" fill="url(#paint27_linear_2201_104547)"/>
<path d="M19.1613 23.8469V19.084L17.78 21.4654L19.1613 23.8469Z" fill="url(#paint28_linear_2201_104547)"/>
<path d="M20.5347 21.4653H23.2813L19.1614 23.8468L20.5347 21.4653Z" fill="url(#paint29_linear_2201_104547)"/>
<path d="M23.2813 21.4653L21.908 23.8468H19.1614L23.2813 21.4653Z" fill="url(#paint30_linear_2201_104547)"/>
<path d="M21.908 23.8467H19.1614L23.2813 26.2281L21.908 23.8467Z" fill="url(#paint31_linear_2201_104547)"/>
<path d="M19.1614 23.8467L23.2813 26.2281H20.5347L19.1614 23.8467Z" fill="url(#paint32_linear_2201_104547)"/>
<path d="M19.1614 23.8467L20.5347 26.2281L19.1614 28.6096V23.8467Z" fill="url(#paint33_linear_2201_104547)"/>
</g>
<g filter="url(#filter3_d_2201_104547)">
<path fill-rule="evenodd" clip-rule="evenodd" d="M36.2709 21.1454L34.7112 18.45L33.1515 21.1454L30.0374 21.1484L31.5918 23.8469L30.0374 26.5453L33.1515 26.5484L34.7112 29.2438L36.2709 26.5484L39.3851 26.5453L37.8306 23.8469L39.3851 21.1484L36.2709 21.1454Z" fill="url(#paint34_radial_2201_104547)"/>
<path d="M34.7113 23.8469V19.084L33.3301 21.4654L34.7113 23.8469Z" fill="url(#paint35_radial_2201_104547)"/>
<path d="M33.3301 21.4653H30.5835L34.7114 23.8468L33.3301 21.4653Z" fill="url(#paint36_linear_2201_104547)"/>
<path d="M30.5835 21.4653L31.9568 23.8468H34.7114L30.5835 21.4653Z" fill="url(#paint37_linear_2201_104547)"/>
<path d="M31.9568 23.8467H34.7114L30.5835 26.2281L31.9568 23.8467Z" fill="url(#paint38_linear_2201_104547)"/>
<path d="M34.7114 23.8467L30.5835 26.2281H33.3301L34.7114 23.8467Z" fill="url(#paint39_linear_2201_104547)"/>
<path d="M34.7113 23.8467L33.3301 26.2281L34.7113 28.6096V23.8467Z" fill="url(#paint40_linear_2201_104547)"/>
<path d="M34.7114 23.8469V19.084L36.0847 21.4654L34.7114 23.8469Z" fill="url(#paint41_linear_2201_104547)"/>
<path d="M34.7113 23.8469V19.084L33.3301 21.4654L34.7113 23.8469Z" fill="url(#paint42_linear_2201_104547)"/>
<path d="M36.0847 21.4653H38.8313L34.7114 23.8468L36.0847 21.4653Z" fill="url(#paint43_linear_2201_104547)"/>
<path d="M38.8313 21.4653L37.458 23.8468H34.7114L38.8313 21.4653Z" fill="url(#paint44_linear_2201_104547)"/>
<path d="M37.458 23.8467H34.7114L38.8313 26.2281L37.458 23.8467Z" fill="url(#paint45_linear_2201_104547)"/>
<path d="M34.7114 23.8467L38.8313 26.2281H36.0847L34.7114 23.8467Z" fill="url(#paint46_linear_2201_104547)"/>
<path d="M34.7114 23.8467L36.0847 26.2281L34.7114 28.6096V23.8467Z" fill="url(#paint47_linear_2201_104547)"/>
</g>
<g filter="url(#filter4_d_2201_104547)">
<path fill-rule="evenodd" clip-rule="evenodd" d="M44.0209 31.0448L42.4612 28.3494L40.9015 31.0448L37.7874 31.0478L39.3418 33.7463L37.7874 36.4447L40.9015 36.4478L42.4612 39.1432L44.0209 36.4478L47.1351 36.4447L45.5806 33.7463L47.1351 31.0478L44.0209 31.0448Z" fill="url(#paint48_radial_2201_104547)"/>
<path d="M42.4613 33.7458V28.9829L41.0801 31.3644L42.4613 33.7458Z" fill="url(#paint49_radial_2201_104547)"/>
<path d="M41.0801 31.3643H38.3335L42.4614 33.7457L41.0801 31.3643Z" fill="url(#paint50_linear_2201_104547)"/>
<path d="M38.3335 31.3643L39.7068 33.7457H42.4614L38.3335 31.3643Z" fill="url(#paint51_linear_2201_104547)"/>
<path d="M39.7068 33.7456H42.4614L38.3335 36.1271L39.7068 33.7456Z" fill="url(#paint52_linear_2201_104547)"/>
<path d="M42.4614 33.7456L38.3335 36.1271H41.0801L42.4614 33.7456Z" fill="url(#paint53_linear_2201_104547)"/>
<path d="M42.4613 33.7456L41.0801 36.1271L42.4613 38.5085V33.7456Z" fill="url(#paint54_linear_2201_104547)"/>
<path d="M42.4614 33.7458V28.9829L43.8347 31.3644L42.4614 33.7458Z" fill="url(#paint55_linear_2201_104547)"/>
<path d="M42.4613 33.7458V28.9829L41.0801 31.3644L42.4613 33.7458Z" fill="url(#paint56_linear_2201_104547)"/>
<path d="M43.8347 31.3643H46.5813L42.4614 33.7457L43.8347 31.3643Z" fill="url(#paint57_linear_2201_104547)"/>
<path d="M46.5813 31.3643L45.208 33.7457H42.4614L46.5813 31.3643Z" fill="url(#paint58_linear_2201_104547)"/>
<path d="M45.208 33.7456H42.4614L46.5813 36.1271L45.208 33.7456Z" fill="url(#paint59_linear_2201_104547)"/>
<path d="M42.4614 33.7456L46.5813 36.1271H43.8347L42.4614 33.7456Z" fill="url(#paint60_linear_2201_104547)"/>
<path d="M42.4614 33.7456L43.8347 36.1271L42.4614 38.5085V33.7456Z" fill="url(#paint61_linear_2201_104547)"/>
</g>
<g filter="url(#filter5_d_2201_104547)">
<path fill-rule="evenodd" clip-rule="evenodd" d="M13.6459 31.0448L12.0862 28.3494L10.5265 31.0448L7.41235 31.0478L8.9668 33.7463L7.41235 36.4447L10.5265 36.4478L12.0862 39.1432L13.6459 36.4478L16.7601 36.4447L15.2056 33.7463L16.7601 31.0478L13.6459 31.0448Z" fill="url(#paint62_radial_2201_104547)"/>
<path d="M12.0863 33.7458V28.9829L10.7051 31.3644L12.0863 33.7458Z" fill="url(#paint63_radial_2201_104547)"/>
<path d="M10.7051 31.3643H7.9585L12.0864 33.7457L10.7051 31.3643Z" fill="url(#paint64_linear_2201_104547)"/>
<path d="M7.9585 31.3643L9.3318 33.7457H12.0864L7.9585 31.3643Z" fill="url(#paint65_linear_2201_104547)"/>
<path d="M9.3318 33.7456H12.0864L7.9585 36.1271L9.3318 33.7456Z" fill="url(#paint66_linear_2201_104547)"/>
<path d="M12.0864 33.7456L7.9585 36.1271H10.7051L12.0864 33.7456Z" fill="url(#paint67_linear_2201_104547)"/>
<path d="M12.0863 33.7456L10.7051 36.1271L12.0863 38.5085V33.7456Z" fill="url(#paint68_linear_2201_104547)"/>
<path d="M12.0864 33.7458V28.9829L13.4597 31.3644L12.0864 33.7458Z" fill="url(#paint69_linear_2201_104547)"/>
<path d="M12.0863 33.7458V28.9829L10.7051 31.3644L12.0863 33.7458Z" fill="url(#paint70_linear_2201_104547)"/>
<path d="M13.4597 31.3643H16.2063L12.0864 33.7457L13.4597 31.3643Z" fill="url(#paint71_linear_2201_104547)"/>
<path d="M16.2063 31.3643L14.833 33.7457H12.0864L16.2063 31.3643Z" fill="url(#paint72_linear_2201_104547)"/>
<path d="M14.833 33.7456H12.0864L16.2063 36.1271L14.833 33.7456Z" fill="url(#paint73_linear_2201_104547)"/>
<path d="M12.0864 33.7456L16.2063 36.1271H13.4597L12.0864 33.7456Z" fill="url(#paint74_linear_2201_104547)"/>
<path d="M12.0864 33.7456L13.4597 36.1271L12.0864 38.5085V33.7456Z" fill="url(#paint75_linear_2201_104547)"/>
</g>
<rect x="2.4624" y="49.05" width="49.5" height="2.7" rx="0.45" fill="#191919"/>
<path d="M2.4624 50.175C2.4624 49.5537 2.96608 49.05 3.5874 49.05H27.2124V51.75H3.5874C2.96608 51.75 2.4624 51.2464 2.4624 50.625V50.175Z" fill="url(#paint76_linear_2201_104547)"/>
<g filter="url(#filter6_dd_2201_104547)">
<rect x="2.5749" y="49.1625" width="49.275" height="2.475" rx="0.3375" stroke="url(#paint77_linear_2201_104547)" stroke-width="0.225"/>
</g>
<g filter="url(#filter7_dd_2201_104547)">
<path d="M27.2124 49.05V51.75" stroke="url(#paint78_linear_2201_104547)" stroke-width="0.225"/>
</g>
</g>
<defs>
<filter id="filter0_i_2201_104547" x="0.212402" y="0" width="54" height="54.9" filterUnits="userSpaceOnUse" color-interpolation-filters="sRGB">
<feFlood flood-opacity="0" result="BackgroundImageFix"/>
<feBlend mode="normal" in="SourceGraphic" in2="BackgroundImageFix" result="shape"/>
<feColorMatrix in="SourceAlpha" type="matrix" values="0 0 0 0 0 0 0 0 0 0 0 0 0 0 0 0 0 0 127 0" result="hardAlpha"/>
<feOffset dy="0.9"/>
<feGaussianBlur stdDeviation="0.45"/>
<feComposite in2="hardAlpha" operator="arithmetic" k2="-1" k3="1"/>
<feColorMatrix type="matrix" values="0 0 0 0 0 0 0 0 0 0 0 0 0 0 0 0 0 0 0.25 0"/>
<feBlend mode="normal" in2="shape" result="effect1_innerShadow_2201_104547"/>
</filter>
<filter id="filter1_d_2201_104547" x="10.5862" y="-0.675049" width="31.8477" height="33.2939" filterUnits="userSpaceOnUse" color-interpolation-filters="sRGB">
<feFlood flood-opacity="0" result="BackgroundImageFix"/>
<feColorMatrix in="SourceAlpha" type="matrix" values="0 0 0 0 0 0 0 0 0 0 0 0 0 0 0 0 0 0 127 0" result="hardAlpha"/>
<feOffset/>
<feGaussianBlur stdDeviation="5.625"/>
<feColorMatrix type="matrix" values="0 0 0 0 0 0 0 0 0 0 0 0 0 0 0 0 0 0 0.8 0"/>
<feBlend mode="normal" in2="BackgroundImageFix" result="effect1_dropShadow_2201_104547"/>
<feBlend mode="normal" in="SourceGraphic" in2="effect1_dropShadow_2201_104547" result="shape"/>
</filter>
<filter id="filter2_d_2201_104547" x="3.2373" y="7.19995" width="31.8477" height="33.2939" filterUnits="userSpaceOnUse" color-interpolation-filters="sRGB">
<feFlood flood-opacity="0" result="BackgroundImageFix"/>
<feColorMatrix in="SourceAlpha" type="matrix" values="0 0 0 0 0 0 0 0 0 0 0 0 0 0 0 0 0 0 127 0" result="hardAlpha"/>
<feOffset/>
<feGaussianBlur stdDeviation="5.625"/>
<feColorMatrix type="matrix" values="0 0 0 0 0 0 0 0 0 0 0 0 0 0 0 0 0 0 0.8 0"/>
<feBlend mode="normal" in2="BackgroundImageFix" result="effect1_dropShadow_2201_104547"/>
<feBlend mode="normal" in="SourceGraphic" in2="effect1_dropShadow_2201_104547" result="shape"/>
</filter>
<filter id="filter3_d_2201_104547" x="18.7874" y="7.19995" width="31.8477" height="33.2939" filterUnits="userSpaceOnUse" color-interpolation-filters="sRGB">
<feFlood flood-opacity="0" result="BackgroundImageFix"/>
<feColorMatrix in="SourceAlpha" type="matrix" values="0 0 0 0 0 0 0 0 0 0 0 0 0 0 0 0 0 0 127 0" result="hardAlpha"/>
<feOffset/>
<feGaussianBlur stdDeviation="5.625"/>
<feColorMatrix type="matrix" values="0 0 0 0 0 0 0 0 0 0 0 0 0 0 0 0 0 0 0.8 0"/>
<feBlend mode="normal" in2="BackgroundImageFix" result="effect1_dropShadow_2201_104547"/>
<feBlend mode="normal" in="SourceGraphic" in2="effect1_dropShadow_2201_104547" result="shape"/>
</filter>
<filter id="filter4_d_2201_104547" x="26.5374" y="17.0994" width="31.8477" height="33.2939" filterUnits="userSpaceOnUse" color-interpolation-filters="sRGB">
<feFlood flood-opacity="0" result="BackgroundImageFix"/>
<feColorMatrix in="SourceAlpha" type="matrix" values="0 0 0 0 0 0 0 0 0 0 0 0 0 0 0 0 0 0 127 0" result="hardAlpha"/>
<feOffset/>
<feGaussianBlur stdDeviation="5.625"/>
<feColorMatrix type="matrix" values="0 0 0 0 0 0 0 0 0 0 0 0 0 0 0 0 0 0 0.8 0"/>
<feBlend mode="normal" in2="BackgroundImageFix" result="effect1_dropShadow_2201_104547"/>
<feBlend mode="normal" in="SourceGraphic" in2="effect1_dropShadow_2201_104547" result="shape"/>
</filter>
<filter id="filter5_d_2201_104547" x="-3.83765" y="17.0994" width="31.8477" height="33.2939" filterUnits="userSpaceOnUse" color-interpolation-filters="sRGB">
<feFlood flood-opacity="0" result="BackgroundImageFix"/>
<feColorMatrix in="SourceAlpha" type="matrix" values="0 0 0 0 0 0 0 0 0 0 0 0 0 0 0 0 0 0 127 0" result="hardAlpha"/>
<feOffset/>
<feGaussianBlur stdDeviation="5.625"/>
<feColorMatrix type="matrix" values="0 0 0 0 0 0 0 0 0 0 0 0 0 0 0 0 0 0 0.8 0"/>
<feBlend mode="normal" in2="BackgroundImageFix" result="effect1_dropShadow_2201_104547"/>
<feBlend mode="normal" in="SourceGraphic" in2="effect1_dropShadow_2201_104547" result="shape"/>
</filter>
<filter id="filter6_dd_2201_104547" x="1.5624" y="48.15" width="51.3" height="4.49995" filterUnits="userSpaceOnUse" color-interpolation-filters="sRGB">
<feFlood flood-opacity="0" result="BackgroundImageFix"/>
<feColorMatrix in="SourceAlpha" type="matrix" values="0 0 0 0 0 0 0 0 0 0 0 0 0 0 0 0 0 0 127 0" result="hardAlpha"/>
<feOffset/>
<feGaussianBlur stdDeviation="0.45"/>
<feColorMatrix type="matrix" values="0 0 0 0 0 0 0 0 0 0 0 0 0 0 0 0 0 0 1 0"/>
<feBlend mode="normal" in2="BackgroundImageFix" result="effect1_dropShadow_2201_104547"/>
<feColorMatrix in="SourceAlpha" type="matrix" values="0 0 0 0 0 0 0 0 0 0 0 0 0 0 0 0 0 0 127 0" result="hardAlpha"/>
<feOffset/>
<feGaussianBlur stdDeviation="0.225"/>
<feColorMatrix type="matrix" values="0 0 0 0 0 0 0 0 0 0 0 0 0 0 0 0 0 0 1 0"/>
<feBlend mode="normal" in2="effect1_dropShadow_2201_104547" result="effect2_dropShadow_2201_104547"/>
<feBlend mode="normal" in="SourceGraphic" in2="effect2_dropShadow_2201_104547" result="shape"/>
</filter>
<filter id="filter7_dd_2201_104547" x="26.1999" y="48.15" width="2.0251" height="4.49995" filterUnits="userSpaceOnUse" color-interpolation-filters="sRGB">
<feFlood flood-opacity="0" result="BackgroundImageFix"/>
<feColorMatrix in="SourceAlpha" type="matrix" values="0 0 0 0 0 0 0 0 0 0 0 0 0 0 0 0 0 0 127 0" result="hardAlpha"/>
<feOffset/>
<feGaussianBlur stdDeviation="0.45"/>
<feColorMatrix type="matrix" values="0 0 0 0 0 0 0 0 0 0 0 0 0 0 0 0 0 0 1 0"/>
<feBlend mode="normal" in2="BackgroundImageFix" result="effect1_dropShadow_2201_104547"/>
<feColorMatrix in="SourceAlpha" type="matrix" values="0 0 0 0 0 0 0 0 0 0 0 0 0 0 0 0 0 0 127 0" result="hardAlpha"/>
<feOffset/>
<feGaussianBlur stdDeviation="0.225"/>
<feColorMatrix type="matrix" values="0 0 0 0 0 0 0 0 0 0 0 0 0 0 0 0 0 0 1 0"/>
<feBlend mode="normal" in2="effect1_dropShadow_2201_104547" result="effect2_dropShadow_2201_104547"/>
<feBlend mode="normal" in="SourceGraphic" in2="effect2_dropShadow_2201_104547" result="shape"/>
</filter>
<linearGradient id="paint0_linear_2201_104547" x1="27.2124" y1="0" x2="27.2124" y2="54" gradientUnits="userSpaceOnUse">
<stop stop-color="#101010"/>
<stop offset="1" stop-color="#131313"/>
</linearGradient>
<linearGradient id="paint1_linear_2201_104547" x1="54.2124" y1="-1.83743e-06" x2="0.212401" y2="54" gradientUnits="userSpaceOnUse">
<stop stop-color="#F8BE4B"/>
<stop offset="0.685495" stop-color="#C828F7"/>
<stop offset="1" stop-color="#4991CA"/>
</linearGradient>
<linearGradient id="paint2_linear_2201_104547" x1="54.6139" y1="-2.87238" x2="45.6782" y2="59.9164" gradientUnits="userSpaceOnUse">
<stop stop-color="#FFF70E"/>
<stop offset="0.4119" stop-color="#DF14FF"/>
<stop offset="1" stop-color="#00CCB1"/>
</linearGradient>
<linearGradient id="paint3_linear_2201_104547" x1="54.6139" y1="-2.87238" x2="45.6782" y2="59.9164" gradientUnits="userSpaceOnUse">
<stop stop-color="#FFF70E"/>
<stop offset="0.4119" stop-color="#DF14FF"/>
<stop offset="1" stop-color="#00CCB1"/>
</linearGradient>
<linearGradient id="paint4_linear_2201_104547" x1="21.0249" y1="1.125" x2="21.0249" y2="52.875" gradientUnits="userSpaceOnUse">
<stop stop-color="#E120F3"/>
<stop offset="1" stop-color="#2BA9C0" stop-opacity="0"/>
</linearGradient>
<linearGradient id="paint5_linear_2201_104547" x1="33.3999" y1="1.125" x2="33.3999" y2="52.875" gradientUnits="userSpaceOnUse">
<stop stop-color="#E120F3"/>
<stop offset="1" stop-color="#2BA9C0" stop-opacity="0"/>
</linearGradient>
<radialGradient id="paint6_radial_2201_104547" cx="0" cy="0" r="1" gradientUnits="userSpaceOnUse" gradientTransform="translate(29.3031 17.7017) rotate(-146.622) scale(8.58354 8.57507)">
<stop stop-color="#FFF70E"/>
<stop offset="0.4119" stop-color="#DF14FF"/>
<stop offset="1" stop-color="#00CCB1"/>
</radialGradient>
<radialGradient id="paint7_radial_2201_104547" cx="0" cy="0" r="1" gradientUnits="userSpaceOnUse" gradientTransform="translate(25.2968 11.5011) scale(1.88595 5.62645)">
<stop stop-color="#FFF70E"/>
<stop offset="0.4119" stop-color="#DF14FF"/>
<stop offset="1" stop-color="#00CCB1"/>
</radialGradient>
<linearGradient id="paint8_linear_2201_104547" x1="24.581" y1="12.895" x2="25.2556" y2="16.3946" gradientUnits="userSpaceOnUse">
<stop stop-color="#FFF70E"/>
<stop offset="0.47281" stop-color="#DF14FF"/>
<stop offset="1" stop-color="#00CCB1"/>
</linearGradient>
<linearGradient id="paint9_linear_2201_104547" x1="21.7138" y1="13.8226" x2="26.5205" y2="15.973" gradientUnits="userSpaceOnUse">
<stop stop-color="#FFF70E"/>
<stop offset="0.4119" stop-color="#DF14FF"/>
<stop offset="1" stop-color="#00CCB1"/>
</linearGradient>
<linearGradient id="paint10_linear_2201_104547" x1="20.9549" y1="18.334" x2="26.3518" y2="16.2258" gradientUnits="userSpaceOnUse">
<stop stop-color="#FFF70E"/>
<stop offset="0.4119" stop-color="#DF14FF"/>
<stop offset="1" stop-color="#00CCB1"/>
</linearGradient>
<linearGradient id="paint11_linear_2201_104547" x1="26.8999" y1="15.9728" x2="17.118" y2="18.1653" gradientUnits="userSpaceOnUse">
<stop stop-color="#FFF70E"/>
<stop offset="0.4119" stop-color="#DF14FF"/>
<stop offset="1" stop-color="#00CCB1"/>
</linearGradient>
<linearGradient id="paint12_linear_2201_104547" x1="24.9182" y1="20.6108" x2="26.5204" y2="16.1836" gradientUnits="userSpaceOnUse">
<stop stop-color="#FFF70E"/>
<stop offset="0.4119" stop-color="#DF14FF"/>
<stop offset="1" stop-color="#00CCB1"/>
</linearGradient>
<linearGradient id="paint13_linear_2201_104547" x1="26.7314" y1="15.9731" x2="28.5866" y2="11.7989" gradientUnits="userSpaceOnUse">
<stop stop-color="#FFF70E"/>
<stop offset="0.4119" stop-color="#DF14FF"/>
<stop offset="1" stop-color="#00CCB1"/>
</linearGradient>
<linearGradient id="paint14_linear_2201_104547" x1="26.5204" y1="10.9556" x2="24.2858" y2="15.5093" gradientUnits="userSpaceOnUse">
<stop stop-color="#FFF70E"/>
<stop offset="0.4119" stop-color="#DF14FF"/>
<stop offset="1" stop-color="#00CCB1"/>
</linearGradient>
<linearGradient id="paint15_linear_2201_104547" x1="21.3858" y1="13.7364" x2="32.6364" y2="13.7364" gradientUnits="userSpaceOnUse">
<stop stop-color="#FFF70E"/>
<stop offset="0.4119" stop-color="#DF14FF"/>
<stop offset="1" stop-color="#00CCB1"/>
</linearGradient>
<linearGradient id="paint16_linear_2201_104547" x1="27.153" y1="14.3708" x2="31.1164" y2="17.3222" gradientUnits="userSpaceOnUse">
<stop stop-color="#FFF70E"/>
<stop offset="0.4119" stop-color="#DF14FF"/>
<stop offset="1" stop-color="#00CCB1"/>
</linearGradient>
<linearGradient id="paint17_linear_2201_104547" x1="28.5444" y1="20.653" x2="27.1108" y2="14.8766" gradientUnits="userSpaceOnUse">
<stop stop-color="#FFF70E"/>
<stop offset="0.4119" stop-color="#DF14FF"/>
<stop offset="1" stop-color="#00CCB1"/>
</linearGradient>
<linearGradient id="paint18_linear_2201_104547" x1="21.3858" y1="16.1178" x2="32.6364" y2="16.1178" gradientUnits="userSpaceOnUse">
<stop stop-color="#FFF70E"/>
<stop offset="0.4119" stop-color="#DF14FF"/>
<stop offset="1" stop-color="#00CCB1"/>
</linearGradient>
<linearGradient id="paint19_linear_2201_104547" x1="26.3941" y1="15.8463" x2="27.659" y2="20.1048" gradientUnits="userSpaceOnUse">
<stop stop-color="#FFF70E"/>
<stop offset="0.4119" stop-color="#DF14FF"/>
<stop offset="1" stop-color="#00CCB1"/>
</linearGradient>
<radialGradient id="paint20_radial_2201_104547" cx="0" cy="0" r="1" gradientUnits="userSpaceOnUse" gradientTransform="translate(21.9542 25.5767) rotate(-146.622) scale(8.58354 8.57507)">
<stop stop-color="#FFF70E"/>
<stop offset="0.4119" stop-color="#DF14FF"/>
<stop offset="1" stop-color="#00CCB1"/>
</radialGradient>
<radialGradient id="paint21_radial_2201_104547" cx="0" cy="0" r="1" gradientUnits="userSpaceOnUse" gradientTransform="translate(17.9479 19.3761) scale(1.88595 5.62645)">
<stop stop-color="#FFF70E"/>
<stop offset="0.4119" stop-color="#DF14FF"/>
<stop offset="1" stop-color="#00CCB1"/>
</radialGradient>
<linearGradient id="paint22_linear_2201_104547" x1="17.2321" y1="20.77" x2="17.9067" y2="24.2696" gradientUnits="userSpaceOnUse">
<stop stop-color="#FFF70E"/>
<stop offset="0.47281" stop-color="#DF14FF"/>
<stop offset="1" stop-color="#00CCB1"/>
</linearGradient>
<linearGradient id="paint23_linear_2201_104547" x1="14.365" y1="21.6976" x2="19.1716" y2="23.848" gradientUnits="userSpaceOnUse">
<stop stop-color="#FFF70E"/>
<stop offset="0.4119" stop-color="#DF14FF"/>
<stop offset="1" stop-color="#00CCB1"/>
</linearGradient>
<linearGradient id="paint24_linear_2201_104547" x1="13.606" y1="26.209" x2="19.0029" y2="24.1008" gradientUnits="userSpaceOnUse">
<stop stop-color="#FFF70E"/>
<stop offset="0.4119" stop-color="#DF14FF"/>
<stop offset="1" stop-color="#00CCB1"/>
</linearGradient>
<linearGradient id="paint25_linear_2201_104547" x1="19.5511" y1="23.8478" x2="9.76916" y2="26.0403" gradientUnits="userSpaceOnUse">
<stop stop-color="#FFF70E"/>
<stop offset="0.4119" stop-color="#DF14FF"/>
<stop offset="1" stop-color="#00CCB1"/>
</linearGradient>
<linearGradient id="paint26_linear_2201_104547" x1="17.5693" y1="28.4858" x2="19.1715" y2="24.0586" gradientUnits="userSpaceOnUse">
<stop stop-color="#FFF70E"/>
<stop offset="0.4119" stop-color="#DF14FF"/>
<stop offset="1" stop-color="#00CCB1"/>
</linearGradient>
<linearGradient id="paint27_linear_2201_104547" x1="19.3825" y1="23.8481" x2="21.2377" y2="19.6739" gradientUnits="userSpaceOnUse">
<stop stop-color="#FFF70E"/>
<stop offset="0.4119" stop-color="#DF14FF"/>
<stop offset="1" stop-color="#00CCB1"/>
</linearGradient>
<linearGradient id="paint28_linear_2201_104547" x1="19.1715" y1="18.8306" x2="16.9369" y2="23.3843" gradientUnits="userSpaceOnUse">
<stop stop-color="#FFF70E"/>
<stop offset="0.4119" stop-color="#DF14FF"/>
<stop offset="1" stop-color="#00CCB1"/>
</linearGradient>
<linearGradient id="paint29_linear_2201_104547" x1="14.0369" y1="21.6114" x2="25.2876" y2="21.6114" gradientUnits="userSpaceOnUse">
<stop stop-color="#FFF70E"/>
<stop offset="0.4119" stop-color="#DF14FF"/>
<stop offset="1" stop-color="#00CCB1"/>
</linearGradient>
<linearGradient id="paint30_linear_2201_104547" x1="19.8041" y1="22.2458" x2="23.7675" y2="25.1972" gradientUnits="userSpaceOnUse">
<stop stop-color="#FFF70E"/>
<stop offset="0.4119" stop-color="#DF14FF"/>
<stop offset="1" stop-color="#00CCB1"/>
</linearGradient>
<linearGradient id="paint31_linear_2201_104547" x1="21.1955" y1="28.528" x2="19.762" y2="22.7516" gradientUnits="userSpaceOnUse">
<stop stop-color="#FFF70E"/>
<stop offset="0.4119" stop-color="#DF14FF"/>
<stop offset="1" stop-color="#00CCB1"/>
</linearGradient>
<linearGradient id="paint32_linear_2201_104547" x1="14.0369" y1="23.9928" x2="25.2876" y2="23.9928" gradientUnits="userSpaceOnUse">
<stop stop-color="#FFF70E"/>
<stop offset="0.4119" stop-color="#DF14FF"/>
<stop offset="1" stop-color="#00CCB1"/>
</linearGradient>
<linearGradient id="paint33_linear_2201_104547" x1="19.0452" y1="23.7213" x2="20.3101" y2="27.9798" gradientUnits="userSpaceOnUse">
<stop stop-color="#FFF70E"/>
<stop offset="0.4119" stop-color="#DF14FF"/>
<stop offset="1" stop-color="#00CCB1"/>
</linearGradient>
<radialGradient id="paint34_radial_2201_104547" cx="0" cy="0" r="1" gradientUnits="userSpaceOnUse" gradientTransform="translate(37.5043 25.5767) rotate(-146.622) scale(8.58354 8.57507)">
<stop stop-color="#FFF70E"/>
<stop offset="0.4119" stop-color="#DF14FF"/>
<stop offset="1" stop-color="#00CCB1"/>
</radialGradient>
<radialGradient id="paint35_radial_2201_104547" cx="0" cy="0" r="1" gradientUnits="userSpaceOnUse" gradientTransform="translate(33.498 19.3761) scale(1.88595 5.62645)">
<stop stop-color="#FFF70E"/>
<stop offset="0.4119" stop-color="#DF14FF"/>
<stop offset="1" stop-color="#00CCB1"/>
</radialGradient>
<linearGradient id="paint36_linear_2201_104547" x1="32.7821" y1="20.77" x2="33.4567" y2="24.2696" gradientUnits="userSpaceOnUse">
<stop stop-color="#FFF70E"/>
<stop offset="0.47281" stop-color="#DF14FF"/>
<stop offset="1" stop-color="#00CCB1"/>
</linearGradient>
<linearGradient id="paint37_linear_2201_104547" x1="29.915" y1="21.6976" x2="34.7216" y2="23.848" gradientUnits="userSpaceOnUse">
<stop stop-color="#FFF70E"/>
<stop offset="0.4119" stop-color="#DF14FF"/>
<stop offset="1" stop-color="#00CCB1"/>
</linearGradient>
<linearGradient id="paint38_linear_2201_104547" x1="29.1561" y1="26.209" x2="34.553" y2="24.1008" gradientUnits="userSpaceOnUse">
<stop stop-color="#FFF70E"/>
<stop offset="0.4119" stop-color="#DF14FF"/>
<stop offset="1" stop-color="#00CCB1"/>
</linearGradient>
<linearGradient id="paint39_linear_2201_104547" x1="35.1011" y1="23.8478" x2="25.3192" y2="26.0403" gradientUnits="userSpaceOnUse">
<stop stop-color="#FFF70E"/>
<stop offset="0.4119" stop-color="#DF14FF"/>
<stop offset="1" stop-color="#00CCB1"/>
</linearGradient>
<linearGradient id="paint40_linear_2201_104547" x1="33.1194" y1="28.4858" x2="34.7216" y2="24.0586" gradientUnits="userSpaceOnUse">
<stop stop-color="#FFF70E"/>
<stop offset="0.4119" stop-color="#DF14FF"/>
<stop offset="1" stop-color="#00CCB1"/>
</linearGradient>
<linearGradient id="paint41_linear_2201_104547" x1="34.9325" y1="23.8481" x2="36.7877" y2="19.6739" gradientUnits="userSpaceOnUse">
<stop stop-color="#FFF70E"/>
<stop offset="0.4119" stop-color="#DF14FF"/>
<stop offset="1" stop-color="#00CCB1"/>
</linearGradient>
<linearGradient id="paint42_linear_2201_104547" x1="34.7216" y1="18.8306" x2="32.4869" y2="23.3843" gradientUnits="userSpaceOnUse">
<stop stop-color="#FFF70E"/>
<stop offset="0.4119" stop-color="#DF14FF"/>
<stop offset="1" stop-color="#00CCB1"/>
</linearGradient>
<linearGradient id="paint43_linear_2201_104547" x1="29.5869" y1="21.6114" x2="40.8376" y2="21.6114" gradientUnits="userSpaceOnUse">
<stop stop-color="#FFF70E"/>
<stop offset="0.4119" stop-color="#DF14FF"/>
<stop offset="1" stop-color="#00CCB1"/>
</linearGradient>
<linearGradient id="paint44_linear_2201_104547" x1="35.3542" y1="22.2458" x2="39.3175" y2="25.1972" gradientUnits="userSpaceOnUse">
<stop stop-color="#FFF70E"/>
<stop offset="0.4119" stop-color="#DF14FF"/>
<stop offset="1" stop-color="#00CCB1"/>
</linearGradient>
<linearGradient id="paint45_linear_2201_104547" x1="36.7456" y1="28.528" x2="35.312" y2="22.7516" gradientUnits="userSpaceOnUse">
<stop stop-color="#FFF70E"/>
<stop offset="0.4119" stop-color="#DF14FF"/>
<stop offset="1" stop-color="#00CCB1"/>
</linearGradient>
<linearGradient id="paint46_linear_2201_104547" x1="29.5869" y1="23.9928" x2="40.8376" y2="23.9928" gradientUnits="userSpaceOnUse">
<stop stop-color="#FFF70E"/>
<stop offset="0.4119" stop-color="#DF14FF"/>
<stop offset="1" stop-color="#00CCB1"/>
</linearGradient>
<linearGradient id="paint47_linear_2201_104547" x1="34.5952" y1="23.7213" x2="35.8601" y2="27.9798" gradientUnits="userSpaceOnUse">
<stop stop-color="#FFF70E"/>
<stop offset="0.4119" stop-color="#DF14FF"/>
<stop offset="1" stop-color="#00CCB1"/>
</linearGradient>
<radialGradient id="paint48_radial_2201_104547" cx="0" cy="0" r="1" gradientUnits="userSpaceOnUse" gradientTransform="translate(45.2543 35.4761) rotate(-146.622) scale(8.58354 8.57507)">
<stop stop-color="#FFF70E"/>
<stop offset="0.4119" stop-color="#DF14FF"/>
<stop offset="1" stop-color="#00CCB1"/>
</radialGradient>
<radialGradient id="paint49_radial_2201_104547" cx="0" cy="0" r="1" gradientUnits="userSpaceOnUse" gradientTransform="translate(41.248 29.2751) scale(1.88595 5.62645)">
<stop stop-color="#FFF70E"/>
<stop offset="0.4119" stop-color="#DF14FF"/>
<stop offset="1" stop-color="#00CCB1"/>
</radialGradient>
<linearGradient id="paint50_linear_2201_104547" x1="40.5321" y1="30.669" x2="41.2067" y2="34.1685" gradientUnits="userSpaceOnUse">
<stop stop-color="#FFF70E"/>
<stop offset="0.47281" stop-color="#DF14FF"/>
<stop offset="1" stop-color="#00CCB1"/>
</linearGradient>
<linearGradient id="paint51_linear_2201_104547" x1="37.665" y1="31.5966" x2="42.4716" y2="33.7469" gradientUnits="userSpaceOnUse">
<stop stop-color="#FFF70E"/>
<stop offset="0.4119" stop-color="#DF14FF"/>
<stop offset="1" stop-color="#00CCB1"/>
</linearGradient>
<linearGradient id="paint52_linear_2201_104547" x1="36.9061" y1="36.1079" x2="42.303" y2="33.9997" gradientUnits="userSpaceOnUse">
<stop stop-color="#FFF70E"/>
<stop offset="0.4119" stop-color="#DF14FF"/>
<stop offset="1" stop-color="#00CCB1"/>
</linearGradient>
<linearGradient id="paint53_linear_2201_104547" x1="42.8511" y1="33.7468" x2="33.0692" y2="35.9393" gradientUnits="userSpaceOnUse">
<stop stop-color="#FFF70E"/>
<stop offset="0.4119" stop-color="#DF14FF"/>
<stop offset="1" stop-color="#00CCB1"/>
</linearGradient>
<linearGradient id="paint54_linear_2201_104547" x1="40.8694" y1="38.3847" x2="42.4716" y2="33.9576" gradientUnits="userSpaceOnUse">
<stop stop-color="#FFF70E"/>
<stop offset="0.4119" stop-color="#DF14FF"/>
<stop offset="1" stop-color="#00CCB1"/>
</linearGradient>
<linearGradient id="paint55_linear_2201_104547" x1="42.6825" y1="33.747" x2="44.5377" y2="29.5728" gradientUnits="userSpaceOnUse">
<stop stop-color="#FFF70E"/>
<stop offset="0.4119" stop-color="#DF14FF"/>
<stop offset="1" stop-color="#00CCB1"/>
</linearGradient>
<linearGradient id="paint56_linear_2201_104547" x1="42.4716" y1="28.7296" x2="40.2369" y2="33.2832" gradientUnits="userSpaceOnUse">
<stop stop-color="#FFF70E"/>
<stop offset="0.4119" stop-color="#DF14FF"/>
<stop offset="1" stop-color="#00CCB1"/>
</linearGradient>
<linearGradient id="paint57_linear_2201_104547" x1="37.3369" y1="31.5103" x2="48.5876" y2="31.5103" gradientUnits="userSpaceOnUse">
<stop stop-color="#FFF70E"/>
<stop offset="0.4119" stop-color="#DF14FF"/>
<stop offset="1" stop-color="#00CCB1"/>
</linearGradient>
<linearGradient id="paint58_linear_2201_104547" x1="43.1042" y1="32.1447" x2="47.0675" y2="35.0961" gradientUnits="userSpaceOnUse">
<stop stop-color="#FFF70E"/>
<stop offset="0.4119" stop-color="#DF14FF"/>
<stop offset="1" stop-color="#00CCB1"/>
</linearGradient>
<linearGradient id="paint59_linear_2201_104547" x1="44.4956" y1="38.4269" x2="43.062" y2="32.6505" gradientUnits="userSpaceOnUse">
<stop stop-color="#FFF70E"/>
<stop offset="0.4119" stop-color="#DF14FF"/>
<stop offset="1" stop-color="#00CCB1"/>
</linearGradient>
<linearGradient id="paint60_linear_2201_104547" x1="37.3369" y1="33.8917" x2="48.5876" y2="33.8917" gradientUnits="userSpaceOnUse">
<stop stop-color="#FFF70E"/>
<stop offset="0.4119" stop-color="#DF14FF"/>
<stop offset="1" stop-color="#00CCB1"/>
</linearGradient>
<linearGradient id="paint61_linear_2201_104547" x1="42.3452" y1="33.6203" x2="43.6101" y2="37.8788" gradientUnits="userSpaceOnUse">
<stop stop-color="#FFF70E"/>
<stop offset="0.4119" stop-color="#DF14FF"/>
<stop offset="1" stop-color="#00CCB1"/>
</linearGradient>
<radialGradient id="paint62_radial_2201_104547" cx="0" cy="0" r="1" gradientUnits="userSpaceOnUse" gradientTransform="translate(14.8793 35.4761) rotate(-146.622) scale(8.58354 8.57507)">
<stop stop-color="#FFF70E"/>
<stop offset="0.4119" stop-color="#DF14FF"/>
<stop offset="1" stop-color="#00CCB1"/>
</radialGradient>
<radialGradient id="paint63_radial_2201_104547" cx="0" cy="0" r="1" gradientUnits="userSpaceOnUse" gradientTransform="translate(10.873 29.2751) scale(1.88595 5.62645)">
<stop stop-color="#FFF70E"/>
<stop offset="0.4119" stop-color="#DF14FF"/>
<stop offset="1" stop-color="#00CCB1"/>
</radialGradient>
<linearGradient id="paint64_linear_2201_104547" x1="10.1571" y1="30.669" x2="10.8317" y2="34.1685" gradientUnits="userSpaceOnUse">
<stop stop-color="#FFF70E"/>
<stop offset="0.47281" stop-color="#DF14FF"/>
<stop offset="1" stop-color="#00CCB1"/>
</linearGradient>
<linearGradient id="paint65_linear_2201_104547" x1="7.29002" y1="31.5966" x2="12.0966" y2="33.7469" gradientUnits="userSpaceOnUse">
<stop stop-color="#FFF70E"/>
<stop offset="0.4119" stop-color="#DF14FF"/>
<stop offset="1" stop-color="#00CCB1"/>
</linearGradient>
<linearGradient id="paint66_linear_2201_104547" x1="6.53108" y1="36.1079" x2="11.928" y2="33.9997" gradientUnits="userSpaceOnUse">
<stop stop-color="#FFF70E"/>
<stop offset="0.4119" stop-color="#DF14FF"/>
<stop offset="1" stop-color="#00CCB1"/>
</linearGradient>
<linearGradient id="paint67_linear_2201_104547" x1="12.4761" y1="33.7468" x2="2.6942" y2="35.9393" gradientUnits="userSpaceOnUse">
<stop stop-color="#FFF70E"/>
<stop offset="0.4119" stop-color="#DF14FF"/>
<stop offset="1" stop-color="#00CCB1"/>
</linearGradient>
<linearGradient id="paint68_linear_2201_104547" x1="10.4944" y1="38.3847" x2="12.0966" y2="33.9576" gradientUnits="userSpaceOnUse">
<stop stop-color="#FFF70E"/>
<stop offset="0.4119" stop-color="#DF14FF"/>
<stop offset="1" stop-color="#00CCB1"/>
</linearGradient>
<linearGradient id="paint69_linear_2201_104547" x1="12.3075" y1="33.747" x2="14.1627" y2="29.5728" gradientUnits="userSpaceOnUse">
<stop stop-color="#FFF70E"/>
<stop offset="0.4119" stop-color="#DF14FF"/>
<stop offset="1" stop-color="#00CCB1"/>
</linearGradient>
<linearGradient id="paint70_linear_2201_104547" x1="12.0966" y1="28.7296" x2="9.86193" y2="33.2832" gradientUnits="userSpaceOnUse">
<stop stop-color="#FFF70E"/>
<stop offset="0.4119" stop-color="#DF14FF"/>
<stop offset="1" stop-color="#00CCB1"/>
</linearGradient>
<linearGradient id="paint71_linear_2201_104547" x1="6.96195" y1="31.5103" x2="18.2126" y2="31.5103" gradientUnits="userSpaceOnUse">
<stop stop-color="#FFF70E"/>
<stop offset="0.4119" stop-color="#DF14FF"/>
<stop offset="1" stop-color="#00CCB1"/>
</linearGradient>
<linearGradient id="paint72_linear_2201_104547" x1="12.7292" y1="32.1447" x2="16.6925" y2="35.0961" gradientUnits="userSpaceOnUse">
<stop stop-color="#FFF70E"/>
<stop offset="0.4119" stop-color="#DF14FF"/>
<stop offset="1" stop-color="#00CCB1"/>
</linearGradient>
<linearGradient id="paint73_linear_2201_104547" x1="14.1206" y1="38.4269" x2="12.687" y2="32.6505" gradientUnits="userSpaceOnUse">
<stop stop-color="#FFF70E"/>
<stop offset="0.4119" stop-color="#DF14FF"/>
<stop offset="1" stop-color="#00CCB1"/>
</linearGradient>
<linearGradient id="paint74_linear_2201_104547" x1="6.96195" y1="33.8917" x2="18.2126" y2="33.8917" gradientUnits="userSpaceOnUse">
<stop stop-color="#FFF70E"/>
<stop offset="0.4119" stop-color="#DF14FF"/>
<stop offset="1" stop-color="#00CCB1"/>
</linearGradient>
<linearGradient id="paint75_linear_2201_104547" x1="11.9702" y1="33.6203" x2="13.2351" y2="37.8788" gradientUnits="userSpaceOnUse">
<stop stop-color="#FFF70E"/>
<stop offset="0.4119" stop-color="#DF14FF"/>
<stop offset="1" stop-color="#00CCB1"/>
</linearGradient>
<linearGradient id="paint76_linear_2201_104547" x1="27.2124" y1="49.725" x2="15.882" y2="62.0559" gradientUnits="userSpaceOnUse">
<stop stop-color="#FFF70E"/>
<stop offset="0.4119" stop-color="#DF14FF"/>
<stop offset="1" stop-color="#00CCB1"/>
</linearGradient>
<linearGradient id="paint77_linear_2201_104547" x1="27.2124" y1="49.05" x2="27.2124" y2="51.75" gradientUnits="userSpaceOnUse">
<stop stop-color="#E5E5E5"/>
<stop offset="1" stop-color="#444B53"/>
</linearGradient>
<linearGradient id="paint78_linear_2201_104547" x1="27.7124" y1="49.05" x2="27.7124" y2="51.75" gradientUnits="userSpaceOnUse">
<stop stop-color="#E5E5E5"/>
<stop offset="1" stop-color="#444B53"/>
</linearGradient>
<clipPath id="clip0_2201_104547">
<rect width="54" height="54" fill="white" transform="translate(0.212402)"/>
</clipPath>
</defs>
</svg>
