<svg width="56" height="54" viewBox="0 0 56 54" fill="none" xmlns="http://www.w3.org/2000/svg">
<rect x="1.5625" y="0.562497" width="52.8745" height="52.875" fill="url(#paint0_linear_2005_62237)"/>
<rect x="1.5625" y="0.562497" width="52.8745" height="52.875" fill="url(#paint1_linear_2005_62237)" fill-opacity="0.8"/>
<rect x="1.5625" y="0.562497" width="52.8745" height="52.875" stroke="url(#paint2_linear_2005_62237)" stroke-width="1.12499"/>
<g filter="url(#filter0_i_2005_62237)">
<rect x="1.1125" y="0.112499" width="53.7745" height="53.775" stroke="url(#paint3_linear_2005_62237)" stroke-width="0.224999"/>
</g>
<g style="mix-blend-mode:plus-lighter">
<rect x="12.0249" y="1.12451" width="6.97494" height="51.75" fill="url(#paint4_linear_2005_62237)" fill-opacity="0.2"/>
<rect x="24.3999" y="1.12451" width="6.97494" height="51.75" fill="url(#paint5_linear_2005_62237)" fill-opacity="0.2"/>
<rect x="36.7747" y="1.12451" width="6.97494" height="51.75" fill="url(#paint6_linear_2005_62237)" fill-opacity="0.2"/>
</g>
<g filter="url(#filter1_d_2005_62237)">
<path d="M22.5301 15.1044C23.1429 13.4024 22.9522 11.6595 22.9522 11.6595C22.9522 11.6595 22.9522 11.6595 22.9386 11.6731C20.6648 11.5506 19.6164 12.0816 19.5347 12.1224C19.5347 12.1224 19.5347 12.1225 19.5347 12.1088C19.5483 12.1088 18.8947 10.5021 16.757 9.3584C14.6057 10.5021 13.9522 12.1088 13.9522 12.1088C13.9522 12.1088 12.9173 11.5233 10.5482 11.6459C10.5482 11.6459 10.3576 13.3887 10.9703 15.0907C9.09129 16.003 8.13818 17.3646 8.13818 17.3646C9.02321 18.8215 10.7388 19.6657 10.7797 19.693C10.766 19.7474 10.698 20.0606 10.6299 20.7142C10.5754 21.3405 10.521 22.2528 10.5346 23.5054C10.5346 23.5054 11.3243 23.6552 12.3591 23.6552C13.7751 23.6416 15.6541 23.342 16.7298 21.9532C17.8054 23.342 19.6844 23.6416 21.1005 23.6552C22.1353 23.6688 22.925 23.5054 22.925 23.5054C22.9386 22.2664 22.8978 21.3541 22.8297 20.7278C22.7752 20.0606 22.6935 19.7474 22.6799 19.693C22.7344 19.6657 24.45 18.8215 25.3214 17.3646V17.351C25.3622 17.3646 24.4091 16.003 22.5301 15.1044Z" fill="url(#paint7_linear_2005_62237)"/>
<path fill-rule="evenodd" clip-rule="evenodd" d="M22.9803 12.3572C22.9782 13.0215 22.9024 14.0705 22.5302 15.1044C23.4663 15.5521 24.1726 16.1147 24.6407 16.565C24.7349 16.6556 24.8195 16.7417 24.8944 16.8214C25.1706 17.1154 25.3144 17.3221 25.3224 17.3484C25.3228 17.3499 25.3228 17.3508 25.3224 17.3511C25.3222 17.3512 25.3219 17.3512 25.3215 17.3511V17.3647C25.3181 17.3704 25.3147 17.376 25.3113 17.3816C24.4455 18.8137 22.7683 19.6491 22.6821 19.692L22.68 19.693L22.6812 19.6977C22.6978 19.7637 22.7767 20.0777 22.8298 20.7279C22.8978 21.3542 22.9387 22.2665 22.9251 23.5055C22.9251 23.5055 22.1354 23.6689 21.1006 23.6553C19.8739 23.6435 18.2998 23.4171 17.2015 22.454C17.0319 22.3053 16.8737 22.139 16.7299 21.9533C16.586 22.139 16.4278 22.3053 16.2582 22.454C15.1599 23.4171 13.5858 23.6435 12.3592 23.6553C11.3244 23.6553 10.5346 23.5055 10.5346 23.5055C10.521 22.2529 10.5755 21.3406 10.63 20.7142C10.698 20.0607 10.7661 19.7475 10.7797 19.693C10.7769 19.6912 10.7661 19.6854 10.7482 19.6758C10.5062 19.5465 8.96226 18.7212 8.13825 17.3647C8.13825 17.3647 9.09136 16.0031 10.9704 15.0908C10.3576 13.3888 10.5483 11.646 10.5483 11.646C12.0921 11.5661 13.0693 11.7869 13.5628 11.9504C13.8266 12.0379 13.9522 12.1089 13.9522 12.1089C13.9522 12.1089 14.0459 11.8786 14.2792 11.5302C14.6619 10.9585 15.4204 10.0691 16.7571 9.35849C18.0087 10.0281 18.7515 10.8565 19.1496 11.4281C19.1695 11.4568 19.1887 11.4849 19.2069 11.5122C19.2091 11.5155 19.2113 11.5188 19.2134 11.522C19.249 11.5755 19.2812 11.6262 19.3104 11.6739C19.4634 11.9238 19.5306 12.0875 19.5347 12.107C19.535 12.1083 19.535 12.1089 19.5347 12.1089V12.1225L19.536 12.1219C19.5414 12.1192 19.5502 12.1148 19.5625 12.1089C19.637 12.0732 19.8392 11.9834 20.1812 11.893C20.7168 11.7514 21.5953 11.6083 22.8631 11.6694C22.8881 11.6706 22.9133 11.6718 22.9387 11.6732L22.9523 11.6596C22.9523 11.6596 22.9534 11.6699 22.9552 11.6898C22.9571 11.7097 22.9596 11.7394 22.9623 11.7778C22.9707 11.8958 22.9811 12.097 22.9803 12.3572ZM22.9446 11.5633C22.9476 11.5936 22.9502 11.6257 22.9523 11.6596C23.6291 11.5856 23.6291 11.5857 23.6291 11.5859L23.6292 11.5871L23.6295 11.5893L23.6301 11.5955C23.6306 11.6005 23.6313 11.6072 23.6321 11.6155C23.6336 11.6321 23.6357 11.6552 23.638 11.6843C23.6426 11.7427 23.6481 11.8253 23.6527 11.9288C23.6617 12.1355 23.6666 12.4268 23.6511 12.7741C23.6266 13.3232 23.5504 14.0275 23.3502 14.7644C24.1106 15.1941 24.7011 15.6777 25.1182 16.0796C25.3729 16.3251 25.5659 16.5429 25.6963 16.7042C25.7608 16.7841 25.8134 16.8543 25.8519 16.9105C25.869 16.9355 25.8928 16.9713 25.914 17.0098L25.9146 17.011C25.9209 17.0222 25.9522 17.0786 25.9743 17.1524C25.9813 17.1755 25.9928 17.218 25.9991 17.2724C26.0017 17.295 26.0056 17.3371 26.0023 17.3916V17.5528L25.9057 17.7142C25.404 18.5529 24.6766 19.192 24.0951 19.6154C23.8494 19.7943 23.6229 19.9396 23.4395 20.0497C23.4631 20.213 23.4872 20.4162 23.5076 20.6634C23.579 21.3257 23.6196 22.2643 23.6058 23.513L23.5998 24.0612L23.063 24.1722L22.9251 23.5055C23.063 24.1722 23.0629 24.1722 23.0628 24.1723L23.061 24.1726L23.0578 24.1733L23.048 24.1752C23.0399 24.1768 23.0289 24.179 23.0149 24.1816C22.9871 24.1868 22.9477 24.194 22.8979 24.2023C22.7984 24.219 22.6568 24.2405 22.4818 24.2615C22.1331 24.3033 21.6466 24.3433 21.093 24.3361C19.8312 24.3238 18.0223 24.0966 16.7299 22.9462C15.4371 24.0969 13.6276 24.3239 12.3657 24.3361L12.3624 24.3361H12.3592C11.81 24.3361 11.3273 24.2964 10.9814 24.2568C10.8079 24.2369 10.6678 24.2169 10.5695 24.2016C10.5203 24.194 10.4816 24.1875 10.4543 24.1828C10.4406 24.1804 10.4298 24.1785 10.422 24.177L10.4126 24.1753L10.4096 24.1748L10.4081 24.1745L10.408 24.1744C10.4079 24.1744 10.4078 24.1744 10.5346 23.5055L10.4078 24.1744L9.85995 24.0705L9.85389 23.5129C9.84001 22.2359 9.89554 21.3014 9.95172 20.6553L9.95223 20.6495L9.95283 20.6437C9.97751 20.4068 10.0025 20.2103 10.0255 20.0509C9.42654 19.6879 8.25622 18.8702 7.55641 17.7182L7.32568 17.3384L7.58053 16.9743L8.13825 17.3647C7.58053 16.9743 7.58065 16.9741 7.58077 16.9739L7.58164 16.9727L7.58311 16.9706L7.58713 16.965C7.59028 16.9606 7.5944 16.9548 7.59947 16.9479C7.60961 16.934 7.62359 16.9151 7.6414 16.8918C7.67702 16.845 7.72801 16.7802 7.79437 16.7009C7.92698 16.5424 8.12161 16.3252 8.3781 16.0789C8.79848 15.6751 9.38973 15.1884 10.1512 14.7537C9.95036 14.0157 9.87396 13.3103 9.84942 12.7605C9.83393 12.4132 9.83888 12.1219 9.84791 11.9152C9.85242 11.8117 9.85798 11.729 9.86258 11.6707C9.86487 11.6416 9.86693 11.6185 9.8685 11.6019C9.86929 11.5936 9.86995 11.5869 9.87046 11.5819L9.87111 11.5756L9.87134 11.5735L9.87147 11.5723C9.87149 11.5721 9.8715 11.572 10.5483 11.646L9.8715 11.572L9.9345 10.996L10.5131 10.9661C11.7595 10.9016 12.6751 11.0225 13.2952 11.1689C13.4234 11.1992 13.5388 11.2305 13.6416 11.2615C13.7396 11.1077 13.8628 10.9308 14.0147 10.7394C14.497 10.1317 15.2682 9.379 16.4375 8.75736L16.7581 8.58691L17.0783 8.75821C18.2406 9.38008 19.0085 10.1331 19.4875 10.7414C19.6415 10.9369 19.7658 11.1177 19.864 11.2747C20.4517 11.1029 21.448 10.9181 22.9106 10.9901L22.91 10.9801L23.5584 10.9397L23.6291 11.5856L22.9523 11.6596L22.9454 11.5487L22.9446 11.5633Z" fill="black"/>
<path fill-rule="evenodd" clip-rule="evenodd" d="M22.9803 12.3572C22.9782 13.0215 22.9024 14.0705 22.5302 15.1044C23.4663 15.5521 24.1726 16.1147 24.6407 16.565C24.7349 16.6556 24.8195 16.7417 24.8944 16.8214C25.1706 17.1154 25.3144 17.3221 25.3224 17.3484C25.3228 17.3499 25.3228 17.3508 25.3224 17.3511C25.3222 17.3512 25.3219 17.3512 25.3215 17.3511V17.3647C25.3181 17.3704 25.3147 17.376 25.3113 17.3816C24.4455 18.8137 22.7683 19.6491 22.6821 19.692L22.68 19.693L22.6812 19.6977C22.6978 19.7637 22.7767 20.0777 22.8298 20.7279C22.8978 21.3542 22.9387 22.2665 22.9251 23.5055C22.9251 23.5055 22.1354 23.6689 21.1006 23.6553C19.8739 23.6435 18.2998 23.4171 17.2015 22.454C17.0319 22.3053 16.8737 22.139 16.7299 21.9533C16.586 22.139 16.4278 22.3053 16.2582 22.454C15.1599 23.4171 13.5858 23.6435 12.3592 23.6553C11.3244 23.6553 10.5346 23.5055 10.5346 23.5055C10.521 22.2529 10.5755 21.3406 10.63 20.7142C10.698 20.0607 10.7661 19.7475 10.7797 19.693C10.7769 19.6912 10.7661 19.6854 10.7482 19.6758C10.5062 19.5465 8.96226 18.7212 8.13825 17.3647C8.13825 17.3647 9.09136 16.0031 10.9704 15.0908C10.3576 13.3888 10.5483 11.646 10.5483 11.646C12.0921 11.5661 13.0693 11.7869 13.5628 11.9504C13.8266 12.0379 13.9522 12.1089 13.9522 12.1089C13.9522 12.1089 14.0459 11.8786 14.2792 11.5302C14.6619 10.9585 15.4204 10.0691 16.7571 9.35849C18.0087 10.0281 18.7515 10.8565 19.1496 11.4281C19.1695 11.4568 19.1887 11.4849 19.2069 11.5122C19.2091 11.5155 19.2113 11.5188 19.2134 11.522C19.249 11.5755 19.2812 11.6262 19.3104 11.6739C19.4634 11.9238 19.5306 12.0875 19.5347 12.107C19.535 12.1083 19.535 12.1089 19.5347 12.1089V12.1225L19.536 12.1219C19.5414 12.1192 19.5502 12.1148 19.5625 12.1089C19.637 12.0732 19.8392 11.9834 20.1812 11.893C20.7168 11.7514 21.5953 11.6083 22.8631 11.6694C22.8881 11.6706 22.9133 11.6718 22.9387 11.6732L22.9523 11.6596C22.9523 11.6596 22.9534 11.6699 22.9552 11.6898C22.9571 11.7097 22.9596 11.7394 22.9623 11.7778C22.9707 11.8958 22.9811 12.097 22.9803 12.3572ZM22.9446 11.5633C22.9476 11.5936 22.9502 11.6257 22.9523 11.6596C23.6291 11.5856 23.6291 11.5857 23.6291 11.5859L23.6292 11.5871L23.6295 11.5893L23.6301 11.5955C23.6306 11.6005 23.6313 11.6072 23.6321 11.6155C23.6336 11.6321 23.6357 11.6552 23.638 11.6843C23.6426 11.7427 23.6481 11.8253 23.6527 11.9288C23.6617 12.1355 23.6666 12.4268 23.6511 12.7741C23.6266 13.3232 23.5504 14.0275 23.3502 14.7644C24.1106 15.1941 24.7011 15.6777 25.1182 16.0796C25.3729 16.3251 25.5659 16.5429 25.6963 16.7042C25.7608 16.7841 25.8134 16.8543 25.8519 16.9105C25.869 16.9355 25.8928 16.9713 25.914 17.0098L25.9146 17.011C25.9209 17.0222 25.9522 17.0786 25.9743 17.1524C25.9813 17.1755 25.9928 17.218 25.9991 17.2724C26.0017 17.295 26.0056 17.3371 26.0023 17.3916V17.5528L25.9057 17.7142C25.404 18.5529 24.6766 19.192 24.0951 19.6154C23.8494 19.7943 23.6229 19.9396 23.4395 20.0497C23.4631 20.213 23.4872 20.4162 23.5076 20.6634C23.579 21.3257 23.6196 22.2643 23.6058 23.513L23.5998 24.0612L23.063 24.1722L22.9251 23.5055C23.063 24.1722 23.0629 24.1722 23.0628 24.1723L23.061 24.1726L23.0578 24.1733L23.048 24.1752C23.0399 24.1768 23.0289 24.179 23.0149 24.1816C22.9871 24.1868 22.9477 24.194 22.8979 24.2023C22.7984 24.219 22.6568 24.2405 22.4818 24.2615C22.1331 24.3033 21.6466 24.3433 21.093 24.3361C19.8312 24.3238 18.0223 24.0966 16.7299 22.9462C15.4371 24.0969 13.6276 24.3239 12.3657 24.3361L12.3624 24.3361H12.3592C11.81 24.3361 11.3273 24.2964 10.9814 24.2568C10.8079 24.2369 10.6678 24.2169 10.5695 24.2016C10.5203 24.194 10.4816 24.1875 10.4543 24.1828C10.4406 24.1804 10.4298 24.1785 10.422 24.177L10.4126 24.1753L10.4096 24.1748L10.4081 24.1745L10.408 24.1744C10.4079 24.1744 10.4078 24.1744 10.5346 23.5055L10.4078 24.1744L9.85995 24.0705L9.85389 23.5129C9.84001 22.2359 9.89554 21.3014 9.95172 20.6553L9.95223 20.6495L9.95283 20.6437C9.97751 20.4068 10.0025 20.2103 10.0255 20.0509C9.42654 19.6879 8.25622 18.8702 7.55641 17.7182L7.32568 17.3384L7.58053 16.9743L8.13825 17.3647C7.58053 16.9743 7.58065 16.9741 7.58077 16.9739L7.58164 16.9727L7.58311 16.9706L7.58713 16.965C7.59028 16.9606 7.5944 16.9548 7.59947 16.9479C7.60961 16.934 7.62359 16.9151 7.6414 16.8918C7.67702 16.845 7.72801 16.7802 7.79437 16.7009C7.92698 16.5424 8.12161 16.3252 8.3781 16.0789C8.79848 15.6751 9.38973 15.1884 10.1512 14.7537C9.95036 14.0157 9.87396 13.3103 9.84942 12.7605C9.83393 12.4132 9.83888 12.1219 9.84791 11.9152C9.85242 11.8117 9.85798 11.729 9.86258 11.6707C9.86487 11.6416 9.86693 11.6185 9.8685 11.6019C9.86929 11.5936 9.86995 11.5869 9.87046 11.5819L9.87111 11.5756L9.87134 11.5735L9.87147 11.5723C9.87149 11.5721 9.8715 11.572 10.5483 11.646L9.8715 11.572L9.9345 10.996L10.5131 10.9661C11.7595 10.9016 12.6751 11.0225 13.2952 11.1689C13.4234 11.1992 13.5388 11.2305 13.6416 11.2615C13.7396 11.1077 13.8628 10.9308 14.0147 10.7394C14.497 10.1317 15.2682 9.379 16.4375 8.75736L16.7581 8.58691L17.0783 8.75821C18.2406 9.38008 19.0085 10.1331 19.4875 10.7414C19.6415 10.9369 19.7658 11.1177 19.864 11.2747C20.4517 11.1029 21.448 10.9181 22.9106 10.9901L22.91 10.9801L23.5584 10.9397L23.6291 11.5856L22.9523 11.6596L22.9454 11.5487L22.9446 11.5633Z" fill="url(#paint8_angular_2005_62237)"/>
<path d="M16.7511 9.35791V18.8437V18.8333C16.6991 18.6047 15.8472 14.7917 13.9563 12.1112C13.9563 12.1112 14.6108 10.5008 16.7511 9.35791Z" fill="url(#paint9_linear_2005_62237)"/>
<path d="M16.7511 18.8435C14.9745 15.2279 10.5486 11.6538 10.5486 11.6538C12.9278 11.5188 13.9564 12.111 13.9564 12.111C15.8473 14.7915 16.6992 18.6045 16.7511 18.8435Z" fill="url(#paint10_linear_2005_62237)"/>
<path d="M16.7511 18.8437C13.946 16.2567 10.9746 15.1034 10.9746 15.1034C10.3616 13.3995 10.5486 11.6541 10.5486 11.6541C10.5486 11.6541 14.9745 15.2281 16.7511 18.8437Z" fill="url(#paint11_linear_2005_62237)"/>
<path d="M16.7512 18.8438C16.7512 18.8438 12.5434 19.0723 10.7876 19.6957C10.7876 19.6957 10.5071 20.8801 10.5486 23.5087C10.5486 23.5087 11.3382 23.6645 12.3772 23.6542C13.7902 23.6438 15.6707 23.3425 16.7512 21.9503V18.8438Z" fill="url(#paint12_linear_2005_62237)"/>
<path d="M16.7511 18.8438L10.5485 23.4983C10.5278 20.6723 10.7875 19.6853 10.7875 19.6853C12.5433 19.0723 16.7511 18.8438 16.7511 18.8438Z" fill="url(#paint13_linear_2005_62237)"/>
<path d="M16.7511 18.8435C13.9459 16.2565 10.9745 15.1033 10.9745 15.1033C9.09402 15.9968 8.13818 17.3682 8.13818 17.3682C8.13818 17.3682 13.0836 16.7552 16.7511 18.8435Z" fill="url(#paint14_linear_2005_62237)"/>
<path d="M10.7875 19.6956C12.5434 19.0722 16.7511 18.8436 16.7511 18.8436C13.0836 16.7553 8.13818 17.3683 8.13818 17.3683C9.03168 18.8436 10.7875 19.6956 10.7875 19.6956Z" fill="url(#paint15_linear_2005_62237)"/>
<path d="M16.751 9.35791V18.8437V18.8333C16.8029 18.5943 17.6549 14.7917 19.5458 12.1008C19.5458 12.1112 18.8912 10.5008 16.751 9.35791Z" fill="url(#paint16_linear_2005_62237)"/>
<path d="M16.751 18.8436C18.5276 15.228 22.9535 11.6644 22.9535 11.6644C20.5743 11.5293 19.5354 12.1111 19.5354 12.1111C17.6549 14.7917 16.8029 18.6047 16.751 18.8436Z" fill="url(#paint17_linear_2005_62237)"/>
<path d="M16.7512 18.8437C19.5564 16.2567 22.5278 15.1034 22.5278 15.1034C23.1408 13.3995 22.9538 11.6541 22.9538 11.6541C22.9538 11.6541 18.5278 15.2281 16.7512 18.8437Z" fill="url(#paint18_linear_2005_62237)"/>
<path d="M16.751 18.8438C16.751 18.8438 20.9587 19.0723 22.7146 19.6957C22.7146 19.6957 22.9951 20.8801 22.9535 23.5087C22.9535 23.5087 22.1639 23.6645 21.125 23.6542C19.712 23.6438 17.8315 23.3425 16.751 21.9503V18.8438Z" fill="url(#paint19_linear_2005_62237)"/>
<path d="M16.751 18.8438L22.9535 23.4983C22.9743 20.6723 22.7146 19.6853 22.7146 19.6853C20.9587 19.0723 16.751 18.8438 16.751 18.8438Z" fill="url(#paint20_linear_2005_62237)"/>
<path d="M16.751 18.8435C19.5562 16.2565 22.5276 15.1033 22.5276 15.1033C24.4081 15.9968 25.3639 17.3578 25.3639 17.3578C25.3639 17.3578 20.4081 16.7552 16.751 18.8435Z" fill="url(#paint21_linear_2005_62237)"/>
<path d="M22.7146 19.6956C20.9587 19.0722 16.751 18.8436 16.751 18.8436C20.4081 16.7553 25.3639 17.3683 25.3639 17.3683C24.4704 18.8436 22.7146 19.6956 22.7146 19.6956Z" fill="url(#paint22_linear_2005_62237)"/>
</g>
<g filter="url(#filter2_d_2005_62237)">
<path d="M45.0301 15.1044C45.6429 13.4024 45.4522 11.6595 45.4522 11.6595C45.4522 11.6595 45.4522 11.6595 45.4386 11.6731C43.1648 11.5506 42.1164 12.0816 42.0347 12.1224C42.0347 12.1224 42.0347 12.1225 42.0347 12.1088C42.0483 12.1088 41.3947 10.5021 39.257 9.3584C37.1057 10.5021 36.4522 12.1088 36.4522 12.1088C36.4522 12.1088 35.4173 11.5233 33.0482 11.6459C33.0482 11.6459 32.8576 13.3887 33.4703 15.0907C31.5913 16.003 30.6382 17.3646 30.6382 17.3646C31.5232 18.8215 33.2388 19.6657 33.2797 19.693C33.266 19.7474 33.198 20.0606 33.1299 20.7142C33.0754 21.3405 33.021 22.2528 33.0346 23.5054C33.0346 23.5054 33.8243 23.6552 34.8591 23.6552C36.2751 23.6416 38.1541 23.342 39.2298 21.9532C40.3054 23.342 42.1844 23.6416 43.6005 23.6552C44.6353 23.6688 45.425 23.5054 45.425 23.5054C45.4386 22.2664 45.3978 21.3541 45.3297 20.7278C45.2752 20.0606 45.1935 19.7474 45.1799 19.693C45.2344 19.6657 46.95 18.8215 47.8214 17.3646V17.351C47.8622 17.3646 46.9091 16.003 45.0301 15.1044Z" fill="url(#paint23_linear_2005_62237)"/>
<path fill-rule="evenodd" clip-rule="evenodd" d="M45.4801 12.3572C45.4779 13.0215 45.4022 14.0705 45.03 15.1044C45.9661 15.5521 46.6723 16.1147 47.1404 16.565C47.2347 16.6556 47.3193 16.7417 47.3941 16.8214C47.6703 17.1154 47.8142 17.3221 47.8221 17.3484C47.8226 17.3499 47.8226 17.3508 47.8221 17.3511C47.8219 17.3512 47.8216 17.3512 47.8212 17.3511V17.3647C47.8178 17.3704 47.8144 17.376 47.811 17.3816C46.9453 18.8137 45.2681 19.6491 45.1819 19.692L45.1797 19.693L45.1809 19.6977C45.1975 19.7637 45.2764 20.0777 45.3295 20.7279C45.3976 21.3542 45.4384 22.2665 45.4248 23.5055C45.4248 23.5055 44.6351 23.6689 43.6003 23.6553C42.3736 23.6435 40.7996 23.4171 39.7012 22.454C39.5317 22.3053 39.3735 22.139 39.2296 21.9533C39.0858 22.139 38.9275 22.3053 38.758 22.454C37.6597 23.4171 36.0856 23.6435 34.8589 23.6553C33.8241 23.6553 33.0344 23.5055 33.0344 23.5055C33.0208 22.2529 33.0752 21.3406 33.1297 20.7142C33.1978 20.0607 33.2659 19.7475 33.2795 19.693C33.2767 19.6912 33.2659 19.6854 33.248 19.6758C33.006 19.5465 31.462 18.7212 30.638 17.3647C30.638 17.3647 31.5911 16.0031 33.4701 15.0908C32.8574 13.3888 33.048 11.646 33.048 11.646C34.5918 11.5661 35.569 11.7869 36.0626 11.9504C36.3264 12.0379 36.452 12.1089 36.452 12.1089C36.452 12.1089 36.5457 11.8786 36.7789 11.5302C37.1617 10.9585 37.9202 10.0691 39.2568 9.35849C40.5084 10.0281 41.2513 10.8565 41.6493 11.4281C41.6693 11.4568 41.6884 11.4849 41.7067 11.5122C41.7089 11.5155 41.711 11.5188 41.7132 11.522C41.7487 11.5755 41.781 11.6262 41.8101 11.6739C41.9632 11.9238 42.0303 12.0875 42.0345 12.107C42.0348 12.1083 42.0348 12.1089 42.0345 12.1089V12.1225L42.0358 12.1219C42.0412 12.1192 42.05 12.1148 42.0622 12.1089C42.1367 12.0732 42.339 11.9834 42.681 11.893C43.2166 11.7514 44.0951 11.6083 45.3628 11.6694C45.3879 11.6706 45.4131 11.6718 45.4384 11.6732L45.4521 11.6596C45.4521 11.6596 45.4532 11.6699 45.455 11.6898C45.4568 11.7097 45.4593 11.7394 45.462 11.7778C45.4704 11.8958 45.4809 12.097 45.4801 12.3572ZM45.4444 11.5633C45.4474 11.5936 45.45 11.6257 45.4521 11.6596C46.1288 11.5856 46.1288 11.5857 46.1289 11.5859L46.129 11.5871L46.1292 11.5893L46.1299 11.5955C46.1304 11.6005 46.131 11.6072 46.1318 11.6155C46.1334 11.6321 46.1355 11.6552 46.1377 11.6843C46.1423 11.7427 46.1479 11.8253 46.1524 11.9288C46.1614 12.1355 46.1664 12.4268 46.1509 12.7741C46.1264 13.3232 46.0502 14.0275 45.85 14.7644C46.6104 15.1941 47.2009 15.6777 47.6179 16.0796C47.8726 16.3251 48.0657 16.5429 48.196 16.7042C48.2606 16.7841 48.3132 16.8543 48.3517 16.9105C48.3688 16.9355 48.3925 16.9713 48.4137 17.0098L48.4144 17.011C48.4206 17.0222 48.4519 17.0786 48.4741 17.1524C48.4811 17.1755 48.4926 17.218 48.4988 17.2724C48.5014 17.295 48.5054 17.3371 48.502 17.3916V17.5528L48.4055 17.7142C47.9038 18.5529 47.1764 19.192 46.5949 19.6154C46.3492 19.7943 46.1227 19.9396 45.9393 20.0497C45.9629 20.213 45.987 20.4162 46.0073 20.6634C46.0787 21.3257 46.1193 22.2643 46.1056 23.513L46.0996 24.0612L45.5628 24.1722L45.4248 23.5055C45.5628 24.1722 45.5627 24.1722 45.5626 24.1723L45.5607 24.1726L45.5576 24.1733L45.5477 24.1752C45.5397 24.1768 45.5286 24.179 45.5147 24.1816C45.4869 24.1868 45.4475 24.194 45.3977 24.2023C45.2982 24.219 45.1566 24.2405 44.9816 24.2615C44.6329 24.3033 44.1464 24.3433 43.5927 24.3361C42.3309 24.3238 40.522 24.0966 39.2296 22.9462C37.9369 24.0969 36.1273 24.3239 34.8655 24.3361L34.8622 24.3361H34.8589C34.3098 24.3361 33.8271 24.2964 33.4811 24.2568C33.3077 24.2369 33.1675 24.2169 33.0693 24.2016C33.0201 24.194 32.9813 24.1875 32.954 24.1828C32.9404 24.1804 32.9296 24.1785 32.9218 24.177L32.9124 24.1753L32.9094 24.1748L32.9079 24.1745L32.9077 24.1744C32.9076 24.1744 32.9075 24.1744 33.0344 23.5055L32.9075 24.1744L32.3597 24.0705L32.3536 23.5129C32.3398 22.2359 32.3953 21.3014 32.4515 20.6553L32.452 20.6495L32.4526 20.6437C32.4773 20.4068 32.5022 20.2103 32.5253 20.0509C31.9263 19.6879 30.756 18.8702 30.0562 17.7182L29.8254 17.3384L30.0803 16.9743L30.638 17.3647C30.0803 16.9743 30.0804 16.9741 30.0805 16.9739L30.0814 16.9727L30.0829 16.9706L30.0869 16.965C30.09 16.9606 30.0942 16.9548 30.0992 16.9479C30.1094 16.934 30.1233 16.9151 30.1412 16.8918C30.1768 16.845 30.2278 16.7802 30.2941 16.7009C30.4267 16.5424 30.6214 16.3252 30.8779 16.0789C31.2982 15.6751 31.8895 15.1884 32.6509 14.7537C32.4501 14.0157 32.3737 13.3103 32.3492 12.7605C32.3337 12.4132 32.3386 12.1219 32.3477 11.9152C32.3522 11.8117 32.3577 11.729 32.3623 11.6707C32.3646 11.6416 32.3667 11.6185 32.3683 11.6019C32.369 11.5936 32.3697 11.5869 32.3702 11.5819L32.3709 11.5756L32.3711 11.5735L32.3712 11.5723C32.3712 11.5721 32.3713 11.572 33.048 11.646L32.3713 11.572L32.4343 10.996L33.0129 10.9661C34.2592 10.9016 35.1748 11.0225 35.7949 11.1689C35.9231 11.1992 36.0385 11.2305 36.1413 11.2615C36.2393 11.1077 36.3625 10.9308 36.5144 10.7394C36.9968 10.1317 37.768 9.379 38.9373 8.75736L39.2579 8.58691L39.578 8.75821C40.7403 9.38008 41.5082 10.1331 41.9873 10.7414C42.1412 10.9369 42.2655 11.1177 42.3637 11.2747C42.9515 11.1029 43.9478 10.9181 45.4104 10.9901L45.4098 10.9801L46.0582 10.9397L46.1288 11.5856L45.4521 11.6596L45.4452 11.5487L45.4444 11.5633Z" fill="black"/>
<path fill-rule="evenodd" clip-rule="evenodd" d="M45.4801 12.3572C45.4779 13.0215 45.4022 14.0705 45.03 15.1044C45.9661 15.5521 46.6723 16.1147 47.1404 16.565C47.2347 16.6556 47.3193 16.7417 47.3941 16.8214C47.6703 17.1154 47.8142 17.3221 47.8221 17.3484C47.8226 17.3499 47.8226 17.3508 47.8221 17.3511C47.8219 17.3512 47.8216 17.3512 47.8212 17.3511V17.3647C47.8178 17.3704 47.8144 17.376 47.811 17.3816C46.9453 18.8137 45.2681 19.6491 45.1819 19.692L45.1797 19.693L45.1809 19.6977C45.1975 19.7637 45.2764 20.0777 45.3295 20.7279C45.3976 21.3542 45.4384 22.2665 45.4248 23.5055C45.4248 23.5055 44.6351 23.6689 43.6003 23.6553C42.3736 23.6435 40.7996 23.4171 39.7012 22.454C39.5317 22.3053 39.3735 22.139 39.2296 21.9533C39.0858 22.139 38.9275 22.3053 38.758 22.454C37.6597 23.4171 36.0856 23.6435 34.8589 23.6553C33.8241 23.6553 33.0344 23.5055 33.0344 23.5055C33.0208 22.2529 33.0752 21.3406 33.1297 20.7142C33.1978 20.0607 33.2659 19.7475 33.2795 19.693C33.2767 19.6912 33.2659 19.6854 33.248 19.6758C33.006 19.5465 31.462 18.7212 30.638 17.3647C30.638 17.3647 31.5911 16.0031 33.4701 15.0908C32.8574 13.3888 33.048 11.646 33.048 11.646C34.5918 11.5661 35.569 11.7869 36.0626 11.9504C36.3264 12.0379 36.452 12.1089 36.452 12.1089C36.452 12.1089 36.5457 11.8786 36.7789 11.5302C37.1617 10.9585 37.9202 10.0691 39.2568 9.35849C40.5084 10.0281 41.2513 10.8565 41.6493 11.4281C41.6693 11.4568 41.6884 11.4849 41.7067 11.5122C41.7089 11.5155 41.711 11.5188 41.7132 11.522C41.7487 11.5755 41.781 11.6262 41.8101 11.6739C41.9632 11.9238 42.0303 12.0875 42.0345 12.107C42.0348 12.1083 42.0348 12.1089 42.0345 12.1089V12.1225L42.0358 12.1219C42.0412 12.1192 42.05 12.1148 42.0622 12.1089C42.1367 12.0732 42.339 11.9834 42.681 11.893C43.2166 11.7514 44.0951 11.6083 45.3628 11.6694C45.3879 11.6706 45.4131 11.6718 45.4384 11.6732L45.4521 11.6596C45.4521 11.6596 45.4532 11.6699 45.455 11.6898C45.4568 11.7097 45.4593 11.7394 45.462 11.7778C45.4704 11.8958 45.4809 12.097 45.4801 12.3572ZM45.4444 11.5633C45.4474 11.5936 45.45 11.6257 45.4521 11.6596C46.1288 11.5856 46.1288 11.5857 46.1289 11.5859L46.129 11.5871L46.1292 11.5893L46.1299 11.5955C46.1304 11.6005 46.131 11.6072 46.1318 11.6155C46.1334 11.6321 46.1355 11.6552 46.1377 11.6843C46.1423 11.7427 46.1479 11.8253 46.1524 11.9288C46.1614 12.1355 46.1664 12.4268 46.1509 12.7741C46.1264 13.3232 46.0502 14.0275 45.85 14.7644C46.6104 15.1941 47.2009 15.6777 47.6179 16.0796C47.8726 16.3251 48.0657 16.5429 48.196 16.7042C48.2606 16.7841 48.3132 16.8543 48.3517 16.9105C48.3688 16.9355 48.3925 16.9713 48.4137 17.0098L48.4144 17.011C48.4206 17.0222 48.4519 17.0786 48.4741 17.1524C48.4811 17.1755 48.4926 17.218 48.4988 17.2724C48.5014 17.295 48.5054 17.3371 48.502 17.3916V17.5528L48.4055 17.7142C47.9038 18.5529 47.1764 19.192 46.5949 19.6154C46.3492 19.7943 46.1227 19.9396 45.9393 20.0497C45.9629 20.213 45.987 20.4162 46.0073 20.6634C46.0787 21.3257 46.1193 22.2643 46.1056 23.513L46.0996 24.0612L45.5628 24.1722L45.4248 23.5055C45.5628 24.1722 45.5627 24.1722 45.5626 24.1723L45.5607 24.1726L45.5576 24.1733L45.5477 24.1752C45.5397 24.1768 45.5286 24.179 45.5147 24.1816C45.4869 24.1868 45.4475 24.194 45.3977 24.2023C45.2982 24.219 45.1566 24.2405 44.9816 24.2615C44.6329 24.3033 44.1464 24.3433 43.5927 24.3361C42.3309 24.3238 40.522 24.0966 39.2296 22.9462C37.9369 24.0969 36.1273 24.3239 34.8655 24.3361L34.8622 24.3361H34.8589C34.3098 24.3361 33.8271 24.2964 33.4811 24.2568C33.3077 24.2369 33.1675 24.2169 33.0693 24.2016C33.0201 24.194 32.9813 24.1875 32.954 24.1828C32.9404 24.1804 32.9296 24.1785 32.9218 24.177L32.9124 24.1753L32.9094 24.1748L32.9079 24.1745L32.9077 24.1744C32.9076 24.1744 32.9075 24.1744 33.0344 23.5055L32.9075 24.1744L32.3597 24.0705L32.3536 23.5129C32.3398 22.2359 32.3953 21.3014 32.4515 20.6553L32.452 20.6495L32.4526 20.6437C32.4773 20.4068 32.5022 20.2103 32.5253 20.0509C31.9263 19.6879 30.756 18.8702 30.0562 17.7182L29.8254 17.3384L30.0803 16.9743L30.638 17.3647C30.0803 16.9743 30.0804 16.9741 30.0805 16.9739L30.0814 16.9727L30.0829 16.9706L30.0869 16.965C30.09 16.9606 30.0942 16.9548 30.0992 16.9479C30.1094 16.934 30.1233 16.9151 30.1412 16.8918C30.1768 16.845 30.2278 16.7802 30.2941 16.7009C30.4267 16.5424 30.6214 16.3252 30.8779 16.0789C31.2982 15.6751 31.8895 15.1884 32.6509 14.7537C32.4501 14.0157 32.3737 13.3103 32.3492 12.7605C32.3337 12.4132 32.3386 12.1219 32.3477 11.9152C32.3522 11.8117 32.3577 11.729 32.3623 11.6707C32.3646 11.6416 32.3667 11.6185 32.3683 11.6019C32.369 11.5936 32.3697 11.5869 32.3702 11.5819L32.3709 11.5756L32.3711 11.5735L32.3712 11.5723C32.3712 11.5721 32.3713 11.572 33.048 11.646L32.3713 11.572L32.4343 10.996L33.0129 10.9661C34.2592 10.9016 35.1748 11.0225 35.7949 11.1689C35.9231 11.1992 36.0385 11.2305 36.1413 11.2615C36.2393 11.1077 36.3625 10.9308 36.5144 10.7394C36.9968 10.1317 37.768 9.379 38.9373 8.75736L39.2579 8.58691L39.578 8.75821C40.7403 9.38008 41.5082 10.1331 41.9873 10.7414C42.1412 10.9369 42.2655 11.1177 42.3637 11.2747C42.9515 11.1029 43.9478 10.9181 45.4104 10.9901L45.4098 10.9801L46.0582 10.9397L46.1288 11.5856L45.4521 11.6596L45.4452 11.5487L45.4444 11.5633Z" fill="url(#paint24_angular_2005_62237)"/>
<path d="M39.2508 9.35791V18.8437V18.8333C39.1989 18.6047 38.347 14.7917 36.4561 12.1112C36.4561 12.1112 37.1106 10.5008 39.2508 9.35791Z" fill="url(#paint25_linear_2005_62237)"/>
<path d="M39.2509 18.8435C37.4743 15.2279 33.0483 11.6538 33.0483 11.6538C35.4275 11.5188 36.4561 12.111 36.4561 12.111C38.347 14.7915 39.199 18.6045 39.2509 18.8435Z" fill="url(#paint26_linear_2005_62237)"/>
<path d="M39.2509 18.8437C36.4457 16.2567 33.4743 15.1034 33.4743 15.1034C32.8613 13.3995 33.0483 11.6541 33.0483 11.6541C33.0483 11.6541 37.4743 15.2281 39.2509 18.8437Z" fill="url(#paint27_linear_2005_62237)"/>
<path d="M39.2509 18.8438C39.2509 18.8438 35.0432 19.0723 33.2873 19.6957C33.2873 19.6957 33.0068 20.8801 33.0484 23.5087C33.0484 23.5087 33.838 23.6645 34.8769 23.6542C36.2899 23.6438 38.1704 23.3425 39.2509 21.9503V18.8438Z" fill="url(#paint28_linear_2005_62237)"/>
<path d="M39.2509 18.8438L33.0483 23.4983C33.0275 20.6723 33.2873 19.6853 33.2873 19.6853C35.0431 19.0723 39.2509 18.8438 39.2509 18.8438Z" fill="url(#paint29_linear_2005_62237)"/>
<path d="M39.2509 18.8435C36.4457 16.2565 33.4743 15.1033 33.4743 15.1033C31.5938 15.9968 30.6379 17.3682 30.6379 17.3682C30.6379 17.3682 35.5834 16.7552 39.2509 18.8435Z" fill="url(#paint30_linear_2005_62237)"/>
<path d="M33.2873 19.6956C35.0431 19.0722 39.2509 18.8436 39.2509 18.8436C35.5834 16.7553 30.6379 17.3683 30.6379 17.3683C31.5314 18.8436 33.2873 19.6956 33.2873 19.6956Z" fill="url(#paint31_linear_2005_62237)"/>
<path d="M39.251 9.35791V18.8437V18.8333C39.3029 18.5943 40.1549 14.7917 42.0458 12.1008C42.0458 12.1112 41.3912 10.5008 39.251 9.35791Z" fill="url(#paint32_linear_2005_62237)"/>
<path d="M39.251 18.8436C41.0276 15.228 45.4535 11.6644 45.4535 11.6644C43.0743 11.5293 42.0354 12.1111 42.0354 12.1111C40.1549 14.7917 39.3029 18.6047 39.251 18.8436Z" fill="url(#paint33_linear_2005_62237)"/>
<path d="M39.251 18.8437C42.0562 16.2567 45.0276 15.1034 45.0276 15.1034C45.6405 13.3995 45.4535 11.6541 45.4535 11.6541C45.4535 11.6541 41.0276 15.2281 39.251 18.8437Z" fill="url(#paint34_linear_2005_62237)"/>
<path d="M39.251 18.8438C39.251 18.8438 43.4587 19.0723 45.2146 19.6957C45.2146 19.6957 45.4951 20.8801 45.4535 23.5087C45.4535 23.5087 44.6639 23.6645 43.625 23.6542C42.212 23.6438 40.3315 23.3425 39.251 21.9503V18.8438Z" fill="url(#paint35_linear_2005_62237)"/>
<path d="M39.251 18.8438L45.4535 23.4983C45.4743 20.6723 45.2146 19.6853 45.2146 19.6853C43.4587 19.0723 39.251 18.8438 39.251 18.8438Z" fill="url(#paint36_linear_2005_62237)"/>
<path d="M39.251 18.8435C42.0562 16.2565 45.0276 15.1033 45.0276 15.1033C46.9081 15.9968 47.8639 17.3578 47.8639 17.3578C47.8639 17.3578 42.9081 16.7552 39.251 18.8435Z" fill="url(#paint37_linear_2005_62237)"/>
<path d="M45.2146 19.6956C43.4587 19.0722 39.251 18.8436 39.251 18.8436C42.9081 16.7553 47.8639 17.3683 47.8639 17.3683C46.9704 18.8436 45.2146 19.6956 45.2146 19.6956Z" fill="url(#paint38_linear_2005_62237)"/>
</g>
<g filter="url(#filter3_d_2005_62237)">
<path d="M22.5301 33.5553C23.1429 31.8533 22.9522 30.1104 22.9522 30.1104C22.9522 30.1104 22.9522 30.1104 22.9386 30.124C20.6648 30.0015 19.6164 30.5325 19.5347 30.5734C19.5347 30.5734 19.5347 30.5734 19.5347 30.5598C19.5483 30.5598 18.8947 28.9531 16.757 27.8093C14.6057 28.9531 13.9522 30.5598 13.9522 30.5598C13.9522 30.5598 12.9173 29.9743 10.5482 30.0968C10.5482 30.0968 10.3576 31.8397 10.9703 33.5417C9.09129 34.4539 8.13818 35.8155 8.13818 35.8155C9.02321 37.2725 10.7388 38.1167 10.7797 38.1439C10.766 38.1983 10.698 38.5115 10.6299 39.1651C10.5754 39.7914 10.521 40.7037 10.5346 41.9564C10.5346 41.9564 11.3243 42.1061 12.3591 42.1061C13.7751 42.0925 15.6541 41.793 16.7298 40.4041C17.8054 41.793 19.6844 42.0925 21.1005 42.1061C22.1353 42.1198 22.925 41.9564 22.925 41.9564C22.9386 40.7173 22.8978 39.805 22.8297 39.1787C22.7752 38.5115 22.6935 38.1983 22.6799 38.1439C22.7344 38.1167 24.45 37.2725 25.3214 35.8155V35.8019C25.3622 35.8155 24.4091 34.4539 22.5301 33.5553Z" fill="url(#paint39_linear_2005_62237)"/>
<path fill-rule="evenodd" clip-rule="evenodd" d="M22.9803 30.8079C22.9782 31.4721 22.9024 32.5212 22.5302 33.5551C23.4663 34.0028 24.1726 34.5654 24.6407 35.0156C24.7349 35.1063 24.8195 35.1924 24.8944 35.272C25.1706 35.5661 25.3144 35.7728 25.3224 35.799C25.3228 35.8006 25.3228 35.8015 25.3224 35.8018C25.3222 35.8019 25.3219 35.8019 25.3215 35.8018V35.8154C25.3181 35.821 25.3147 35.8267 25.3113 35.8323C24.4455 37.2643 22.7683 38.0997 22.6821 38.1427L22.68 38.1437L22.6812 38.1484C22.6978 38.2144 22.7767 38.5284 22.8298 39.1785C22.8978 39.8049 22.9387 40.7172 22.9251 41.9562C22.9251 41.9562 22.1354 42.1196 21.1006 42.106C19.8739 42.0942 18.2998 41.8678 17.2015 40.9047C17.0319 40.756 16.8737 40.5897 16.7299 40.404C16.586 40.5897 16.4278 40.756 16.2582 40.9047C15.1599 41.8678 13.5858 42.0942 12.3592 42.106C11.3244 42.106 10.5346 41.9562 10.5346 41.9562C10.521 40.7035 10.5755 39.7913 10.63 39.1649C10.698 38.5114 10.7661 38.1982 10.7797 38.1437C10.7769 38.1419 10.7661 38.1361 10.7482 38.1265C10.5062 37.9972 8.96226 37.1718 8.13825 35.8154C8.13825 35.8154 9.09136 34.4538 10.9704 33.5415C10.3576 31.8395 10.5483 30.0967 10.5483 30.0967C12.0921 30.0168 13.0693 30.2376 13.5628 30.4011C13.8266 30.4886 13.9522 30.5596 13.9522 30.5596C13.9522 30.5596 14.0459 30.3292 14.2792 29.9809C14.6619 29.4092 15.4204 28.5198 16.7571 27.8092C18.0087 28.4788 18.7515 29.3071 19.1496 29.8788C19.1695 29.9075 19.1887 29.9356 19.2069 29.9629C19.2091 29.9662 19.2113 29.9695 19.2134 29.9727C19.249 30.0262 19.2812 30.0769 19.3104 30.1245C19.4634 30.3745 19.5306 30.5382 19.5347 30.5577C19.535 30.559 19.535 30.5596 19.5347 30.5596V30.5732L19.536 30.5726C19.5414 30.5699 19.5502 30.5655 19.5625 30.5596C19.637 30.5239 19.8392 30.4341 20.1812 30.3437C20.7168 30.2021 21.5953 30.059 22.8631 30.12C22.8881 30.1212 22.9133 30.1225 22.9387 30.1239L22.9523 30.1103C22.9523 30.1103 22.9534 30.1206 22.9552 30.1404C22.9571 30.1604 22.9596 30.19 22.9623 30.2285C22.9707 30.3465 22.9811 30.5477 22.9803 30.8079ZM22.9446 30.014C22.9476 30.0443 22.9502 30.0764 22.9523 30.1103C23.6291 30.0363 23.6291 30.0364 23.6291 30.0366L23.6292 30.0378L23.6295 30.0399L23.6301 30.0462C23.6306 30.0512 23.6313 30.0579 23.6321 30.0662C23.6336 30.0828 23.6357 30.1059 23.638 30.135C23.6426 30.1933 23.6481 30.276 23.6527 30.3795C23.6617 30.5862 23.6666 30.8775 23.6511 31.2248C23.6266 31.7739 23.5504 32.4781 23.3502 33.2151C24.1106 33.6448 24.7011 34.1284 25.1182 34.5303C25.3729 34.7758 25.5659 34.9936 25.6963 35.1549C25.7608 35.2348 25.8134 35.305 25.8519 35.3612C25.869 35.3862 25.8928 35.422 25.914 35.4605L25.9146 35.4617C25.9209 35.4729 25.9522 35.5293 25.9743 35.6031C25.9813 35.6262 25.9928 35.6687 25.9991 35.723C26.0017 35.7457 26.0056 35.7878 26.0023 35.8423V36.0035L25.9057 36.1649C25.404 37.0036 24.6766 37.6426 24.0951 38.0661C23.8494 38.245 23.6229 38.3903 23.4395 38.5003C23.4631 38.6637 23.4872 38.8669 23.5076 39.114C23.579 39.7764 23.6196 40.715 23.6058 41.9637L23.5998 42.5118L23.063 42.6229L22.9251 41.9562C23.063 42.6229 23.0629 42.6229 23.0628 42.6229L23.061 42.6233L23.0578 42.624L23.048 42.6259C23.0399 42.6275 23.0289 42.6297 23.0149 42.6323C22.9871 42.6375 22.9477 42.6446 22.8979 42.653C22.7984 42.6697 22.6568 42.6912 22.4818 42.7122C22.1331 42.754 21.6466 42.794 21.093 42.7868C19.8312 42.7745 18.0223 42.5473 16.7299 41.3969C15.4371 42.5476 13.6276 42.7746 12.3657 42.7868L12.3624 42.7868H12.3592C11.81 42.7868 11.3273 42.7471 10.9814 42.7075C10.8079 42.6876 10.6678 42.6676 10.5695 42.6523C10.5203 42.6447 10.4816 42.6382 10.4543 42.6334C10.4406 42.6311 10.4298 42.6291 10.422 42.6277L10.4126 42.626L10.4096 42.6254L10.4081 42.6252L10.408 42.6251C10.4079 42.6251 10.4078 42.6251 10.5346 41.9562L10.4078 42.6251L9.85995 42.5212L9.85389 41.9636C9.84001 40.6866 9.89554 39.7521 9.95172 39.106L9.95223 39.1002L9.95283 39.0944C9.97751 38.8575 10.0025 38.6609 10.0255 38.5016C9.42654 38.1386 8.25622 37.3209 7.55641 36.1689L7.32568 35.789L7.58053 35.425L8.13825 35.8154C7.58053 35.425 7.58065 35.4248 7.58077 35.4246L7.58164 35.4234L7.58311 35.4213L7.58713 35.4157C7.59028 35.4112 7.5944 35.4055 7.59947 35.3986C7.60961 35.3847 7.62359 35.3658 7.6414 35.3424C7.67702 35.2957 7.72801 35.2309 7.79437 35.1515C7.92698 34.993 8.12161 34.7759 8.3781 34.5295C8.79848 34.1258 9.38973 33.6391 10.1512 33.2044C9.95036 32.4664 9.87396 31.761 9.84942 31.2112C9.83393 30.8639 9.83888 30.5726 9.84791 30.3659C9.85242 30.2624 9.85798 30.1797 9.86258 30.1214C9.86487 30.0923 9.86693 30.0692 9.8685 30.0525C9.86929 30.0442 9.86995 30.0376 9.87046 30.0326L9.87111 30.0263L9.87134 30.0242L9.87147 30.023C9.87149 30.0228 9.8715 30.0226 10.5483 30.0967L9.8715 30.0226L9.9345 29.4467L10.5131 29.4168C11.7595 29.3523 12.6751 29.4731 13.2952 29.6196C13.4234 29.6499 13.5388 29.6812 13.6416 29.7121C13.7396 29.5583 13.8628 29.3814 14.0147 29.19C14.497 28.5824 15.2682 27.8297 16.4375 27.208L16.7581 27.0376L17.0783 27.2089C18.2406 27.8308 19.0085 28.5838 19.4875 29.1921C19.6415 29.3876 19.7658 29.5684 19.864 29.7253C20.4517 29.5536 21.448 29.3688 22.9106 29.4407L22.91 29.4308L23.5584 29.3904L23.6291 30.0363L22.9523 30.1103L22.9454 29.9994L22.9446 30.014Z" fill="black"/>
<path fill-rule="evenodd" clip-rule="evenodd" d="M22.9803 30.8079C22.9782 31.4721 22.9024 32.5212 22.5302 33.5551C23.4663 34.0028 24.1726 34.5654 24.6407 35.0156C24.7349 35.1063 24.8195 35.1924 24.8944 35.272C25.1706 35.5661 25.3144 35.7728 25.3224 35.799C25.3228 35.8006 25.3228 35.8015 25.3224 35.8018C25.3222 35.8019 25.3219 35.8019 25.3215 35.8018V35.8154C25.3181 35.821 25.3147 35.8267 25.3113 35.8323C24.4455 37.2643 22.7683 38.0997 22.6821 38.1427L22.68 38.1437L22.6812 38.1484C22.6978 38.2144 22.7767 38.5284 22.8298 39.1785C22.8978 39.8049 22.9387 40.7172 22.9251 41.9562C22.9251 41.9562 22.1354 42.1196 21.1006 42.106C19.8739 42.0942 18.2998 41.8678 17.2015 40.9047C17.0319 40.756 16.8737 40.5897 16.7299 40.404C16.586 40.5897 16.4278 40.756 16.2582 40.9047C15.1599 41.8678 13.5858 42.0942 12.3592 42.106C11.3244 42.106 10.5346 41.9562 10.5346 41.9562C10.521 40.7035 10.5755 39.7913 10.63 39.1649C10.698 38.5114 10.7661 38.1982 10.7797 38.1437C10.7769 38.1419 10.7661 38.1361 10.7482 38.1265C10.5062 37.9972 8.96226 37.1718 8.13825 35.8154C8.13825 35.8154 9.09136 34.4538 10.9704 33.5415C10.3576 31.8395 10.5483 30.0967 10.5483 30.0967C12.0921 30.0168 13.0693 30.2376 13.5628 30.4011C13.8266 30.4886 13.9522 30.5596 13.9522 30.5596C13.9522 30.5596 14.0459 30.3292 14.2792 29.9809C14.6619 29.4092 15.4204 28.5198 16.7571 27.8092C18.0087 28.4788 18.7515 29.3071 19.1496 29.8788C19.1695 29.9075 19.1887 29.9356 19.2069 29.9629C19.2091 29.9662 19.2113 29.9695 19.2134 29.9727C19.249 30.0262 19.2812 30.0769 19.3104 30.1245C19.4634 30.3745 19.5306 30.5382 19.5347 30.5577C19.535 30.559 19.535 30.5596 19.5347 30.5596V30.5732L19.536 30.5726C19.5414 30.5699 19.5502 30.5655 19.5625 30.5596C19.637 30.5239 19.8392 30.4341 20.1812 30.3437C20.7168 30.2021 21.5953 30.059 22.8631 30.12C22.8881 30.1212 22.9133 30.1225 22.9387 30.1239L22.9523 30.1103C22.9523 30.1103 22.9534 30.1206 22.9552 30.1404C22.9571 30.1604 22.9596 30.19 22.9623 30.2285C22.9707 30.3465 22.9811 30.5477 22.9803 30.8079ZM22.9446 30.014C22.9476 30.0443 22.9502 30.0764 22.9523 30.1103C23.6291 30.0363 23.6291 30.0364 23.6291 30.0366L23.6292 30.0378L23.6295 30.0399L23.6301 30.0462C23.6306 30.0512 23.6313 30.0579 23.6321 30.0662C23.6336 30.0828 23.6357 30.1059 23.638 30.135C23.6426 30.1933 23.6481 30.276 23.6527 30.3795C23.6617 30.5862 23.6666 30.8775 23.6511 31.2248C23.6266 31.7739 23.5504 32.4781 23.3502 33.2151C24.1106 33.6448 24.7011 34.1284 25.1182 34.5303C25.3729 34.7758 25.5659 34.9936 25.6963 35.1549C25.7608 35.2348 25.8134 35.305 25.8519 35.3612C25.869 35.3862 25.8928 35.422 25.914 35.4605L25.9146 35.4617C25.9209 35.4729 25.9522 35.5293 25.9743 35.6031C25.9813 35.6262 25.9928 35.6687 25.9991 35.723C26.0017 35.7457 26.0056 35.7878 26.0023 35.8423V36.0035L25.9057 36.1649C25.404 37.0036 24.6766 37.6426 24.0951 38.0661C23.8494 38.245 23.6229 38.3903 23.4395 38.5003C23.4631 38.6637 23.4872 38.8669 23.5076 39.114C23.579 39.7764 23.6196 40.715 23.6058 41.9637L23.5998 42.5118L23.063 42.6229L22.9251 41.9562C23.063 42.6229 23.0629 42.6229 23.0628 42.6229L23.061 42.6233L23.0578 42.624L23.048 42.6259C23.0399 42.6275 23.0289 42.6297 23.0149 42.6323C22.9871 42.6375 22.9477 42.6446 22.8979 42.653C22.7984 42.6697 22.6568 42.6912 22.4818 42.7122C22.1331 42.754 21.6466 42.794 21.093 42.7868C19.8312 42.7745 18.0223 42.5473 16.7299 41.3969C15.4371 42.5476 13.6276 42.7746 12.3657 42.7868L12.3624 42.7868H12.3592C11.81 42.7868 11.3273 42.7471 10.9814 42.7075C10.8079 42.6876 10.6678 42.6676 10.5695 42.6523C10.5203 42.6447 10.4816 42.6382 10.4543 42.6334C10.4406 42.6311 10.4298 42.6291 10.422 42.6277L10.4126 42.626L10.4096 42.6254L10.4081 42.6252L10.408 42.6251C10.4079 42.6251 10.4078 42.6251 10.5346 41.9562L10.4078 42.6251L9.85995 42.5212L9.85389 41.9636C9.84001 40.6866 9.89554 39.7521 9.95172 39.106L9.95223 39.1002L9.95283 39.0944C9.97751 38.8575 10.0025 38.6609 10.0255 38.5016C9.42654 38.1386 8.25622 37.3209 7.55641 36.1689L7.32568 35.789L7.58053 35.425L8.13825 35.8154C7.58053 35.425 7.58065 35.4248 7.58077 35.4246L7.58164 35.4234L7.58311 35.4213L7.58713 35.4157C7.59028 35.4112 7.5944 35.4055 7.59947 35.3986C7.60961 35.3847 7.62359 35.3658 7.6414 35.3424C7.67702 35.2957 7.72801 35.2309 7.79437 35.1515C7.92698 34.993 8.12161 34.7759 8.3781 34.5295C8.79848 34.1258 9.38973 33.6391 10.1512 33.2044C9.95036 32.4664 9.87396 31.761 9.84942 31.2112C9.83393 30.8639 9.83888 30.5726 9.84791 30.3659C9.85242 30.2624 9.85798 30.1797 9.86258 30.1214C9.86487 30.0923 9.86693 30.0692 9.8685 30.0525C9.86929 30.0442 9.86995 30.0376 9.87046 30.0326L9.87111 30.0263L9.87134 30.0242L9.87147 30.023C9.87149 30.0228 9.8715 30.0226 10.5483 30.0967L9.8715 30.0226L9.9345 29.4467L10.5131 29.4168C11.7595 29.3523 12.6751 29.4731 13.2952 29.6196C13.4234 29.6499 13.5388 29.6812 13.6416 29.7121C13.7396 29.5583 13.8628 29.3814 14.0147 29.19C14.497 28.5824 15.2682 27.8297 16.4375 27.208L16.7581 27.0376L17.0783 27.2089C18.2406 27.8308 19.0085 28.5838 19.4875 29.1921C19.6415 29.3876 19.7658 29.5684 19.864 29.7253C20.4517 29.5536 21.448 29.3688 22.9106 29.4407L22.91 29.4308L23.5584 29.3904L23.6291 30.0363L22.9523 30.1103L22.9454 29.9994L22.9446 30.014Z" fill="url(#paint40_angular_2005_62237)"/>
<path d="M16.7511 27.8093V37.2951V37.2847C16.6991 37.0561 15.8472 33.2431 13.9563 30.5626C13.9563 30.5626 14.6108 28.9522 16.7511 27.8093Z" fill="url(#paint41_linear_2005_62237)"/>
<path d="M16.7511 37.2949C14.9745 33.6793 10.5486 30.1052 10.5486 30.1052C12.9278 29.9702 13.9564 30.5624 13.9564 30.5624C15.8473 33.2429 16.6992 37.0559 16.7511 37.2949Z" fill="url(#paint42_linear_2005_62237)"/>
<path d="M16.7511 37.2951C13.946 34.7081 10.9746 33.5548 10.9746 33.5548C10.3616 31.8509 10.5486 30.1055 10.5486 30.1055C10.5486 30.1055 14.9745 33.6795 16.7511 37.2951Z" fill="url(#paint43_linear_2005_62237)"/>
<path d="M16.7512 37.2952C16.7512 37.2952 12.5434 37.5237 10.7876 38.1471C10.7876 38.1471 10.5071 39.3315 10.5486 41.9601C10.5486 41.9601 11.3382 42.116 12.3772 42.1056C13.7902 42.0952 15.6707 41.7939 16.7512 40.4017V37.2952Z" fill="url(#paint44_linear_2005_62237)"/>
<path d="M16.7511 37.2952L10.5485 41.9497C10.5278 39.1237 10.7875 38.1367 10.7875 38.1367C12.5433 37.5237 16.7511 37.2952 16.7511 37.2952Z" fill="url(#paint45_linear_2005_62237)"/>
<path d="M16.7511 37.295C13.9459 34.7079 10.9745 33.5547 10.9745 33.5547C9.09402 34.4482 8.13818 35.8196 8.13818 35.8196C8.13818 35.8196 13.0836 35.2066 16.7511 37.295Z" fill="url(#paint46_linear_2005_62237)"/>
<path d="M10.7875 38.147C12.5434 37.5236 16.7511 37.295 16.7511 37.295C13.0836 35.2067 8.13818 35.8197 8.13818 35.8197C9.03168 37.295 10.7875 38.147 10.7875 38.147Z" fill="url(#paint47_linear_2005_62237)"/>
<path d="M16.751 27.8093V37.2951V37.2847C16.8029 37.0457 17.6549 33.2431 19.5458 30.5522C19.5458 30.5626 18.8912 28.9522 16.751 27.8093Z" fill="url(#paint48_linear_2005_62237)"/>
<path d="M16.751 37.295C18.5276 33.6795 22.9535 30.1158 22.9535 30.1158C20.5743 29.9807 19.5354 30.5626 19.5354 30.5626C17.6549 33.2431 16.8029 37.0561 16.751 37.295Z" fill="url(#paint49_linear_2005_62237)"/>
<path d="M16.7512 37.2951C19.5564 34.7081 22.5278 33.5548 22.5278 33.5548C23.1408 31.8509 22.9538 30.1055 22.9538 30.1055C22.9538 30.1055 18.5278 33.6795 16.7512 37.2951Z" fill="url(#paint50_linear_2005_62237)"/>
<path d="M16.751 37.2952C16.751 37.2952 20.9587 37.5237 22.7146 38.1471C22.7146 38.1471 22.9951 39.3315 22.9535 41.9601C22.9535 41.9601 22.1639 42.116 21.125 42.1056C19.712 42.0952 17.8315 41.7939 16.751 40.4017V37.2952Z" fill="url(#paint51_linear_2005_62237)"/>
<path d="M16.751 37.2952L22.9535 41.9497C22.9743 39.1237 22.7146 38.1367 22.7146 38.1367C20.9587 37.5237 16.751 37.2952 16.751 37.2952Z" fill="url(#paint52_linear_2005_62237)"/>
<path d="M16.751 37.295C19.5562 34.7079 22.5276 33.5547 22.5276 33.5547C24.4081 34.4482 25.3639 35.8092 25.3639 35.8092C25.3639 35.8092 20.4081 35.2066 16.751 37.295Z" fill="url(#paint53_linear_2005_62237)"/>
<path d="M22.7146 38.147C20.9587 37.5236 16.751 37.295 16.751 37.295C20.4081 35.2067 25.3639 35.8197 25.3639 35.8197C24.4704 37.295 22.7146 38.147 22.7146 38.147Z" fill="url(#paint54_linear_2005_62237)"/>
</g>
<g filter="url(#filter4_d_2005_62237)">
<path d="M45.0299 33.5553C45.6426 31.8533 45.452 30.1104 45.452 30.1104C45.452 30.1104 45.452 30.1104 45.4384 30.124C43.1645 30.0015 42.1161 30.5325 42.0344 30.5734C42.0344 30.5734 42.0344 30.5734 42.0344 30.5598C42.048 30.5598 41.3945 28.9531 39.2568 27.8093C37.1055 28.9531 36.4519 30.5598 36.4519 30.5598C36.4519 30.5598 35.4171 29.9743 33.0479 30.0968C33.0479 30.0968 32.8573 31.8397 33.47 33.5417C31.591 34.4539 30.6379 35.8155 30.6379 35.8155C31.523 37.2725 33.2386 38.1167 33.2794 38.1439C33.2658 38.1983 33.1977 38.5115 33.1296 39.1651C33.0752 39.7914 33.0207 40.7037 33.0343 41.9564C33.0343 41.9564 33.8241 42.1061 34.8589 42.1061C36.2749 42.0925 38.1539 41.793 39.2295 40.4041C40.3052 41.793 42.1842 42.0925 43.6002 42.1061C44.635 42.1198 45.4248 41.9564 45.4248 41.9564C45.4384 40.7173 45.3975 39.805 45.3295 39.1787C45.275 38.5115 45.1933 38.1983 45.1797 38.1439C45.2341 38.1167 46.9497 37.2725 47.8212 35.8155V35.8019C47.862 35.8155 46.9089 34.4539 45.0299 33.5553Z" fill="url(#paint55_linear_2005_62237)"/>
<path fill-rule="evenodd" clip-rule="evenodd" d="M45.4801 30.8079C45.4779 31.4721 45.4022 32.5212 45.03 33.5551C45.9661 34.0028 46.6723 34.5654 47.1404 35.0156C47.2347 35.1063 47.3193 35.1924 47.3941 35.272C47.6703 35.5661 47.8142 35.7728 47.8221 35.799C47.8226 35.8006 47.8226 35.8015 47.8221 35.8018C47.8219 35.8019 47.8216 35.8019 47.8212 35.8018V35.8154C47.8178 35.821 47.8144 35.8267 47.811 35.8323C46.9453 37.2643 45.2681 38.0997 45.1819 38.1427L45.1797 38.1437L45.1809 38.1484C45.1975 38.2144 45.2764 38.5284 45.3295 39.1785C45.3976 39.8049 45.4384 40.7172 45.4248 41.9562C45.4248 41.9562 44.6351 42.1196 43.6003 42.106C42.3736 42.0942 40.7996 41.8678 39.7012 40.9047C39.5317 40.756 39.3735 40.5897 39.2296 40.404C39.0858 40.5897 38.9275 40.756 38.758 40.9047C37.6597 41.8678 36.0856 42.0942 34.8589 42.106C33.8241 42.106 33.0344 41.9562 33.0344 41.9562C33.0208 40.7035 33.0752 39.7913 33.1297 39.1649C33.1978 38.5114 33.2659 38.1982 33.2795 38.1437C33.2767 38.1419 33.2659 38.1361 33.248 38.1265C33.006 37.9972 31.462 37.1718 30.638 35.8154C30.638 35.8154 31.5911 34.4538 33.4701 33.5415C32.8574 31.8395 33.048 30.0967 33.048 30.0967C34.5918 30.0168 35.569 30.2376 36.0626 30.4011C36.3264 30.4886 36.452 30.5596 36.452 30.5596C36.452 30.5596 36.5457 30.3292 36.7789 29.9809C37.1617 29.4092 37.9202 28.5198 39.2568 27.8092C40.5084 28.4788 41.2513 29.3071 41.6493 29.8788C41.6693 29.9075 41.6884 29.9356 41.7067 29.9629C41.7089 29.9662 41.711 29.9695 41.7132 29.9727C41.7487 30.0262 41.781 30.0769 41.8101 30.1245C41.9632 30.3745 42.0303 30.5382 42.0345 30.5577C42.0348 30.559 42.0348 30.5596 42.0345 30.5596V30.5732L42.0358 30.5726C42.0412 30.5699 42.05 30.5655 42.0622 30.5596C42.1367 30.5239 42.339 30.4341 42.681 30.3437C43.2166 30.2021 44.0951 30.059 45.3628 30.12C45.3879 30.1212 45.4131 30.1225 45.4384 30.1239L45.4521 30.1103C45.4521 30.1103 45.4532 30.1206 45.455 30.1404C45.4568 30.1604 45.4593 30.19 45.462 30.2285C45.4704 30.3465 45.4809 30.5477 45.4801 30.8079ZM45.4444 30.014C45.4474 30.0443 45.45 30.0764 45.4521 30.1103C46.1288 30.0363 46.1288 30.0364 46.1289 30.0366L46.129 30.0378L46.1292 30.0399L46.1299 30.0462C46.1304 30.0512 46.131 30.0579 46.1318 30.0662C46.1334 30.0828 46.1355 30.1059 46.1377 30.135C46.1423 30.1933 46.1479 30.276 46.1524 30.3795C46.1614 30.5862 46.1664 30.8775 46.1509 31.2248C46.1264 31.7739 46.0502 32.4781 45.85 33.2151C46.6104 33.6448 47.2009 34.1284 47.6179 34.5303C47.8726 34.7758 48.0657 34.9936 48.196 35.1549C48.2606 35.2348 48.3132 35.305 48.3517 35.3612C48.3688 35.3862 48.3925 35.422 48.4137 35.4605L48.4144 35.4617C48.4206 35.4729 48.4519 35.5293 48.4741 35.6031C48.4811 35.6262 48.4926 35.6687 48.4988 35.723C48.5014 35.7457 48.5054 35.7878 48.502 35.8423V36.0035L48.4055 36.1649C47.9038 37.0036 47.1764 37.6426 46.5949 38.0661C46.3492 38.245 46.1227 38.3903 45.9393 38.5003C45.9629 38.6637 45.987 38.8669 46.0073 39.114C46.0787 39.7764 46.1193 40.715 46.1056 41.9637L46.0996 42.5118L45.5628 42.6229L45.4248 41.9562C45.5628 42.6229 45.5627 42.6229 45.5626 42.6229L45.5607 42.6233L45.5576 42.624L45.5477 42.6259C45.5397 42.6275 45.5286 42.6297 45.5147 42.6323C45.4869 42.6375 45.4475 42.6446 45.3977 42.653C45.2982 42.6697 45.1566 42.6912 44.9816 42.7122C44.6329 42.754 44.1464 42.794 43.5927 42.7868C42.3309 42.7745 40.522 42.5473 39.2296 41.3969C37.9369 42.5476 36.1273 42.7746 34.8655 42.7868L34.8622 42.7868H34.8589C34.3098 42.7868 33.8271 42.7471 33.4811 42.7075C33.3077 42.6876 33.1675 42.6676 33.0693 42.6523C33.0201 42.6447 32.9813 42.6382 32.954 42.6334C32.9404 42.6311 32.9296 42.6291 32.9218 42.6277L32.9124 42.626L32.9094 42.6254L32.9079 42.6252L32.9077 42.6251C32.9076 42.6251 32.9075 42.6251 33.0344 41.9562L32.9075 42.6251L32.3597 42.5212L32.3536 41.9636C32.3398 40.6866 32.3953 39.7521 32.4515 39.106L32.452 39.1002L32.4526 39.0944C32.4773 38.8575 32.5022 38.6609 32.5253 38.5016C31.9263 38.1386 30.756 37.3209 30.0562 36.1689L29.8254 35.789L30.0803 35.425L30.638 35.8154C30.0803 35.425 30.0804 35.4248 30.0805 35.4246L30.0814 35.4234L30.0829 35.4213L30.0869 35.4157C30.09 35.4112 30.0942 35.4055 30.0992 35.3986C30.1094 35.3847 30.1233 35.3658 30.1412 35.3424C30.1768 35.2957 30.2278 35.2309 30.2941 35.1515C30.4267 34.993 30.6214 34.7759 30.8779 34.5295C31.2982 34.1258 31.8895 33.6391 32.6509 33.2044C32.4501 32.4664 32.3737 31.761 32.3492 31.2112C32.3337 30.8639 32.3386 30.5726 32.3477 30.3659C32.3522 30.2624 32.3577 30.1797 32.3623 30.1214C32.3646 30.0923 32.3667 30.0692 32.3683 30.0525C32.369 30.0442 32.3697 30.0376 32.3702 30.0326L32.3709 30.0263L32.3711 30.0242L32.3712 30.023C32.3712 30.0228 32.3713 30.0226 33.048 30.0967L32.3713 30.0226L32.4343 29.4467L33.0129 29.4168C34.2592 29.3523 35.1748 29.4731 35.7949 29.6196C35.9231 29.6499 36.0385 29.6812 36.1413 29.7121C36.2393 29.5583 36.3625 29.3814 36.5144 29.19C36.9968 28.5824 37.768 27.8297 38.9373 27.208L39.2579 27.0376L39.578 27.2089C40.7403 27.8308 41.5082 28.5838 41.9873 29.1921C42.1412 29.3876 42.2655 29.5684 42.3637 29.7253C42.9515 29.5536 43.9478 29.3688 45.4104 29.4407L45.4098 29.4308L46.0582 29.3904L46.1288 30.0363L45.4521 30.1103L45.4452 29.9994L45.4444 30.014Z" fill="black"/>
<path fill-rule="evenodd" clip-rule="evenodd" d="M45.4801 30.8079C45.4779 31.4721 45.4022 32.5212 45.03 33.5551C45.9661 34.0028 46.6723 34.5654 47.1404 35.0156C47.2347 35.1063 47.3193 35.1924 47.3941 35.272C47.6703 35.5661 47.8142 35.7728 47.8221 35.799C47.8226 35.8006 47.8226 35.8015 47.8221 35.8018C47.8219 35.8019 47.8216 35.8019 47.8212 35.8018V35.8154C47.8178 35.821 47.8144 35.8267 47.811 35.8323C46.9453 37.2643 45.2681 38.0997 45.1819 38.1427L45.1797 38.1437L45.1809 38.1484C45.1975 38.2144 45.2764 38.5284 45.3295 39.1785C45.3976 39.8049 45.4384 40.7172 45.4248 41.9562C45.4248 41.9562 44.6351 42.1196 43.6003 42.106C42.3736 42.0942 40.7996 41.8678 39.7012 40.9047C39.5317 40.756 39.3735 40.5897 39.2296 40.404C39.0858 40.5897 38.9275 40.756 38.758 40.9047C37.6597 41.8678 36.0856 42.0942 34.8589 42.106C33.8241 42.106 33.0344 41.9562 33.0344 41.9562C33.0208 40.7035 33.0752 39.7913 33.1297 39.1649C33.1978 38.5114 33.2659 38.1982 33.2795 38.1437C33.2767 38.1419 33.2659 38.1361 33.248 38.1265C33.006 37.9972 31.462 37.1718 30.638 35.8154C30.638 35.8154 31.5911 34.4538 33.4701 33.5415C32.8574 31.8395 33.048 30.0967 33.048 30.0967C34.5918 30.0168 35.569 30.2376 36.0626 30.4011C36.3264 30.4886 36.452 30.5596 36.452 30.5596C36.452 30.5596 36.5457 30.3292 36.7789 29.9809C37.1617 29.4092 37.9202 28.5198 39.2568 27.8092C40.5084 28.4788 41.2513 29.3071 41.6493 29.8788C41.6693 29.9075 41.6884 29.9356 41.7067 29.9629C41.7089 29.9662 41.711 29.9695 41.7132 29.9727C41.7487 30.0262 41.781 30.0769 41.8101 30.1245C41.9632 30.3745 42.0303 30.5382 42.0345 30.5577C42.0348 30.559 42.0348 30.5596 42.0345 30.5596V30.5732L42.0358 30.5726C42.0412 30.5699 42.05 30.5655 42.0622 30.5596C42.1367 30.5239 42.339 30.4341 42.681 30.3437C43.2166 30.2021 44.0951 30.059 45.3628 30.12C45.3879 30.1212 45.4131 30.1225 45.4384 30.1239L45.4521 30.1103C45.4521 30.1103 45.4532 30.1206 45.455 30.1404C45.4568 30.1604 45.4593 30.19 45.462 30.2285C45.4704 30.3465 45.4809 30.5477 45.4801 30.8079ZM45.4444 30.014C45.4474 30.0443 45.45 30.0764 45.4521 30.1103C46.1288 30.0363 46.1288 30.0364 46.1289 30.0366L46.129 30.0378L46.1292 30.0399L46.1299 30.0462C46.1304 30.0512 46.131 30.0579 46.1318 30.0662C46.1334 30.0828 46.1355 30.1059 46.1377 30.135C46.1423 30.1933 46.1479 30.276 46.1524 30.3795C46.1614 30.5862 46.1664 30.8775 46.1509 31.2248C46.1264 31.7739 46.0502 32.4781 45.85 33.2151C46.6104 33.6448 47.2009 34.1284 47.6179 34.5303C47.8726 34.7758 48.0657 34.9936 48.196 35.1549C48.2606 35.2348 48.3132 35.305 48.3517 35.3612C48.3688 35.3862 48.3925 35.422 48.4137 35.4605L48.4144 35.4617C48.4206 35.4729 48.4519 35.5293 48.4741 35.6031C48.4811 35.6262 48.4926 35.6687 48.4988 35.723C48.5014 35.7457 48.5054 35.7878 48.502 35.8423V36.0035L48.4055 36.1649C47.9038 37.0036 47.1764 37.6426 46.5949 38.0661C46.3492 38.245 46.1227 38.3903 45.9393 38.5003C45.9629 38.6637 45.987 38.8669 46.0073 39.114C46.0787 39.7764 46.1193 40.715 46.1056 41.9637L46.0996 42.5118L45.5628 42.6229L45.4248 41.9562C45.5628 42.6229 45.5627 42.6229 45.5626 42.6229L45.5607 42.6233L45.5576 42.624L45.5477 42.6259C45.5397 42.6275 45.5286 42.6297 45.5147 42.6323C45.4869 42.6375 45.4475 42.6446 45.3977 42.653C45.2982 42.6697 45.1566 42.6912 44.9816 42.7122C44.6329 42.754 44.1464 42.794 43.5927 42.7868C42.3309 42.7745 40.522 42.5473 39.2296 41.3969C37.9369 42.5476 36.1273 42.7746 34.8655 42.7868L34.8622 42.7868H34.8589C34.3098 42.7868 33.8271 42.7471 33.4811 42.7075C33.3077 42.6876 33.1675 42.6676 33.0693 42.6523C33.0201 42.6447 32.9813 42.6382 32.954 42.6334C32.9404 42.6311 32.9296 42.6291 32.9218 42.6277L32.9124 42.626L32.9094 42.6254L32.9079 42.6252L32.9077 42.6251C32.9076 42.6251 32.9075 42.6251 33.0344 41.9562L32.9075 42.6251L32.3597 42.5212L32.3536 41.9636C32.3398 40.6866 32.3953 39.7521 32.4515 39.106L32.452 39.1002L32.4526 39.0944C32.4773 38.8575 32.5022 38.6609 32.5253 38.5016C31.9263 38.1386 30.756 37.3209 30.0562 36.1689L29.8254 35.789L30.0803 35.425L30.638 35.8154C30.0803 35.425 30.0804 35.4248 30.0805 35.4246L30.0814 35.4234L30.0829 35.4213L30.0869 35.4157C30.09 35.4112 30.0942 35.4055 30.0992 35.3986C30.1094 35.3847 30.1233 35.3658 30.1412 35.3424C30.1768 35.2957 30.2278 35.2309 30.2941 35.1515C30.4267 34.993 30.6214 34.7759 30.8779 34.5295C31.2982 34.1258 31.8895 33.6391 32.6509 33.2044C32.4501 32.4664 32.3737 31.761 32.3492 31.2112C32.3337 30.8639 32.3386 30.5726 32.3477 30.3659C32.3522 30.2624 32.3577 30.1797 32.3623 30.1214C32.3646 30.0923 32.3667 30.0692 32.3683 30.0525C32.369 30.0442 32.3697 30.0376 32.3702 30.0326L32.3709 30.0263L32.3711 30.0242L32.3712 30.023C32.3712 30.0228 32.3713 30.0226 33.048 30.0967L32.3713 30.0226L32.4343 29.4467L33.0129 29.4168C34.2592 29.3523 35.1748 29.4731 35.7949 29.6196C35.9231 29.6499 36.0385 29.6812 36.1413 29.7121C36.2393 29.5583 36.3625 29.3814 36.5144 29.19C36.9968 28.5824 37.768 27.8297 38.9373 27.208L39.2579 27.0376L39.578 27.2089C40.7403 27.8308 41.5082 28.5838 41.9873 29.1921C42.1412 29.3876 42.2655 29.5684 42.3637 29.7253C42.9515 29.5536 43.9478 29.3688 45.4104 29.4407L45.4098 29.4308L46.0582 29.3904L46.1288 30.0363L45.4521 30.1103L45.4452 29.9994L45.4444 30.014Z" fill="url(#paint56_angular_2005_62237)"/>
<path d="M39.2508 27.8093V37.2951V37.2847C39.1989 37.0561 38.347 33.2431 36.4561 30.5626C36.4561 30.5626 37.1106 28.9522 39.2508 27.8093Z" fill="url(#paint57_linear_2005_62237)"/>
<path d="M39.2509 37.2949C37.4743 33.6793 33.0483 30.1052 33.0483 30.1052C35.4275 29.9702 36.4561 30.5624 36.4561 30.5624C38.347 33.2429 39.199 37.0559 39.2509 37.2949Z" fill="url(#paint58_linear_2005_62237)"/>
<path d="M39.2509 37.2951C36.4457 34.7081 33.4743 33.5548 33.4743 33.5548C32.8613 31.8509 33.0483 30.1055 33.0483 30.1055C33.0483 30.1055 37.4743 33.6795 39.2509 37.2951Z" fill="url(#paint59_linear_2005_62237)"/>
<path d="M39.2509 37.2952C39.2509 37.2952 35.0432 37.5237 33.2873 38.1471C33.2873 38.1471 33.0068 39.3315 33.0484 41.9601C33.0484 41.9601 33.838 42.116 34.8769 42.1056C36.2899 42.0952 38.1704 41.7939 39.2509 40.4017V37.2952Z" fill="url(#paint60_linear_2005_62237)"/>
<path d="M39.2509 37.2952L33.0483 41.9497C33.0275 39.1237 33.2873 38.1367 33.2873 38.1367C35.0431 37.5237 39.2509 37.2952 39.2509 37.2952Z" fill="url(#paint61_linear_2005_62237)"/>
<path d="M39.2509 37.295C36.4457 34.7079 33.4743 33.5547 33.4743 33.5547C31.5938 34.4482 30.6379 35.8196 30.6379 35.8196C30.6379 35.8196 35.5834 35.2066 39.2509 37.295Z" fill="url(#paint62_linear_2005_62237)"/>
<path d="M33.2873 38.147C35.0431 37.5236 39.2509 37.295 39.2509 37.295C35.5834 35.2067 30.6379 35.8197 30.6379 35.8197C31.5314 37.295 33.2873 38.147 33.2873 38.147Z" fill="url(#paint63_linear_2005_62237)"/>
<path d="M39.2507 27.8093V37.2951V37.2847C39.3027 37.0457 40.1546 33.2431 42.0455 30.5522C42.0455 30.5626 41.391 28.9522 39.2507 27.8093Z" fill="url(#paint64_linear_2005_62237)"/>
<path d="M39.2507 37.295C41.0273 33.6795 45.4533 30.1158 45.4533 30.1158C43.0741 29.9807 42.0351 30.5626 42.0351 30.5626C40.1546 33.2431 39.3027 37.0561 39.2507 37.295Z" fill="url(#paint65_linear_2005_62237)"/>
<path d="M39.251 37.2951C42.0562 34.7081 45.0276 33.5548 45.0276 33.5548C45.6405 31.8509 45.4535 30.1055 45.4535 30.1055C45.4535 30.1055 41.0276 33.6795 39.251 37.2951Z" fill="url(#paint66_linear_2005_62237)"/>
<path d="M39.2507 37.2952C39.2507 37.2952 43.4585 37.5237 45.2143 38.1471C45.2143 38.1471 45.4948 39.3315 45.4533 41.9601C45.4533 41.9601 44.6637 42.116 43.6247 42.1056C42.2118 42.0952 40.3312 41.7939 39.2507 40.4017V37.2952Z" fill="url(#paint67_linear_2005_62237)"/>
<path d="M39.2507 37.2952L45.4533 41.9497C45.4741 39.1237 45.2143 38.1367 45.2143 38.1367C43.4585 37.5237 39.2507 37.2952 39.2507 37.2952Z" fill="url(#paint68_linear_2005_62237)"/>
<path d="M39.2507 37.295C42.0559 34.7079 45.0273 33.5547 45.0273 33.5547C46.9078 34.4482 47.8637 35.8092 47.8637 35.8092C47.8637 35.8092 42.9079 35.2066 39.2507 37.295Z" fill="url(#paint69_linear_2005_62237)"/>
<path d="M45.2143 38.147C43.4585 37.5236 39.2507 37.295 39.2507 37.295C42.9079 35.2067 47.8637 35.8197 47.8637 35.8197C46.9702 37.295 45.2143 38.147 45.2143 38.147Z" fill="url(#paint70_linear_2005_62237)"/>
</g>
<rect x="3.25" y="49.05" width="49.4995" height="2.7" rx="0.449998" fill="#191919"/>
<path d="M3.25 50.175C3.25 49.5537 3.75368 49.05 4.37499 49.05H27.9998V51.75H4.37499C3.75368 51.75 3.25 51.2464 3.25 50.6251V50.175Z" fill="url(#paint71_radial_2005_62237)"/>
<g filter="url(#filter5_dd_2005_62237)">
<rect x="3.3625" y="49.1625" width="49.2746" height="2.475" rx="0.337498" stroke="url(#paint72_linear_2005_62237)" stroke-width="0.224999"/>
</g>
<g filter="url(#filter6_dd_2005_62237)">
<path d="M27.9998 49.05V51.75" stroke="url(#paint73_linear_2005_62237)" stroke-width="0.224999"/>
</g>
<defs>
<filter id="filter0_i_2005_62237" x="1" y="0" width="53.9995" height="54.9" filterUnits="userSpaceOnUse" color-interpolation-filters="sRGB">
<feFlood flood-opacity="0" result="BackgroundImageFix"/>
<feBlend mode="normal" in="SourceGraphic" in2="BackgroundImageFix" result="shape"/>
<feColorMatrix in="SourceAlpha" type="matrix" values="0 0 0 0 0 0 0 0 0 0 0 0 0 0 0 0 0 0 127 0" result="hardAlpha"/>
<feOffset dy="0.899996"/>
<feGaussianBlur stdDeviation="0.449998"/>
<feComposite in2="hardAlpha" operator="arithmetic" k2="-1" k3="1"/>
<feColorMatrix type="matrix" values="0 0 0 0 0 0 0 0 0 0 0 0 0 0 0 0 0 0 0.25 0"/>
<feBlend mode="normal" in2="shape" result="effect1_innerShadow_2005_62237"/>
</filter>
<filter id="filter1_d_2005_62237" x="0.517714" y="1.77894" width="32.2939" height="29.3659" filterUnits="userSpaceOnUse" color-interpolation-filters="sRGB">
<feFlood flood-opacity="0" result="BackgroundImageFix"/>
<feColorMatrix in="SourceAlpha" type="matrix" values="0 0 0 0 0 0 0 0 0 0 0 0 0 0 0 0 0 0 127 0" result="hardAlpha"/>
<feOffset/>
<feGaussianBlur stdDeviation="3.40399"/>
<feColorMatrix type="matrix" values="0 0 0 0 0 0 0 0 0 0 0 0 0 0 0 0 0 0 0.8 0"/>
<feBlend mode="normal" in2="BackgroundImageFix" result="effect1_dropShadow_2005_62237"/>
<feBlend mode="normal" in="SourceGraphic" in2="effect1_dropShadow_2005_62237" result="shape"/>
</filter>
<filter id="filter2_d_2005_62237" x="23.0175" y="1.77894" width="32.2939" height="29.3659" filterUnits="userSpaceOnUse" color-interpolation-filters="sRGB">
<feFlood flood-opacity="0" result="BackgroundImageFix"/>
<feColorMatrix in="SourceAlpha" type="matrix" values="0 0 0 0 0 0 0 0 0 0 0 0 0 0 0 0 0 0 127 0" result="hardAlpha"/>
<feOffset/>
<feGaussianBlur stdDeviation="3.40399"/>
<feColorMatrix type="matrix" values="0 0 0 0 0 0 0 0 0 0 0 0 0 0 0 0 0 0 0.8 0"/>
<feBlend mode="normal" in2="BackgroundImageFix" result="effect1_dropShadow_2005_62237"/>
<feBlend mode="normal" in="SourceGraphic" in2="effect1_dropShadow_2005_62237" result="shape"/>
</filter>
<filter id="filter3_d_2005_62237" x="0.517714" y="20.2296" width="32.2939" height="29.3659" filterUnits="userSpaceOnUse" color-interpolation-filters="sRGB">
<feFlood flood-opacity="0" result="BackgroundImageFix"/>
<feColorMatrix in="SourceAlpha" type="matrix" values="0 0 0 0 0 0 0 0 0 0 0 0 0 0 0 0 0 0 127 0" result="hardAlpha"/>
<feOffset/>
<feGaussianBlur stdDeviation="3.40399"/>
<feColorMatrix type="matrix" values="0 0 0 0 0 0 0 0 0 0 0 0 0 0 0 0 0 0 0.8 0"/>
<feBlend mode="normal" in2="BackgroundImageFix" result="effect1_dropShadow_2005_62237"/>
<feBlend mode="normal" in="SourceGraphic" in2="effect1_dropShadow_2005_62237" result="shape"/>
</filter>
<filter id="filter4_d_2005_62237" x="23.0175" y="20.2296" width="32.2939" height="29.3659" filterUnits="userSpaceOnUse" color-interpolation-filters="sRGB">
<feFlood flood-opacity="0" result="BackgroundImageFix"/>
<feColorMatrix in="SourceAlpha" type="matrix" values="0 0 0 0 0 0 0 0 0 0 0 0 0 0 0 0 0 0 127 0" result="hardAlpha"/>
<feOffset/>
<feGaussianBlur stdDeviation="3.40399"/>
<feColorMatrix type="matrix" values="0 0 0 0 0 0 0 0 0 0 0 0 0 0 0 0 0 0 0.8 0"/>
<feBlend mode="normal" in2="BackgroundImageFix" result="effect1_dropShadow_2005_62237"/>
<feBlend mode="normal" in="SourceGraphic" in2="effect1_dropShadow_2005_62237" result="shape"/>
</filter>
<filter id="filter5_dd_2005_62237" x="2.35" y="48.1501" width="51.2995" height="4.49994" filterUnits="userSpaceOnUse" color-interpolation-filters="sRGB">
<feFlood flood-opacity="0" result="BackgroundImageFix"/>
<feColorMatrix in="SourceAlpha" type="matrix" values="0 0 0 0 0 0 0 0 0 0 0 0 0 0 0 0 0 0 127 0" result="hardAlpha"/>
<feOffset/>
<feGaussianBlur stdDeviation="0.449998"/>
<feColorMatrix type="matrix" values="0 0 0 0 0 0 0 0 0 0 0 0 0 0 0 0 0 0 1 0"/>
<feBlend mode="normal" in2="BackgroundImageFix" result="effect1_dropShadow_2005_62237"/>
<feColorMatrix in="SourceAlpha" type="matrix" values="0 0 0 0 0 0 0 0 0 0 0 0 0 0 0 0 0 0 127 0" result="hardAlpha"/>
<feOffset/>
<feGaussianBlur stdDeviation="0.224999"/>
<feColorMatrix type="matrix" values="0 0 0 0 0 0 0 0 0 0 0 0 0 0 0 0 0 0 1 0"/>
<feBlend mode="normal" in2="effect1_dropShadow_2005_62237" result="effect2_dropShadow_2005_62237"/>
<feBlend mode="normal" in="SourceGraphic" in2="effect2_dropShadow_2005_62237" result="shape"/>
</filter>
<filter id="filter6_dd_2005_62237" x="26.9872" y="48.1501" width="2.02509" height="4.49994" filterUnits="userSpaceOnUse" color-interpolation-filters="sRGB">
<feFlood flood-opacity="0" result="BackgroundImageFix"/>
<feColorMatrix in="SourceAlpha" type="matrix" values="0 0 0 0 0 0 0 0 0 0 0 0 0 0 0 0 0 0 127 0" result="hardAlpha"/>
<feOffset/>
<feGaussianBlur stdDeviation="0.449998"/>
<feColorMatrix type="matrix" values="0 0 0 0 0 0 0 0 0 0 0 0 0 0 0 0 0 0 1 0"/>
<feBlend mode="normal" in2="BackgroundImageFix" result="effect1_dropShadow_2005_62237"/>
<feColorMatrix in="SourceAlpha" type="matrix" values="0 0 0 0 0 0 0 0 0 0 0 0 0 0 0 0 0 0 127 0" result="hardAlpha"/>
<feOffset/>
<feGaussianBlur stdDeviation="0.224999"/>
<feColorMatrix type="matrix" values="0 0 0 0 0 0 0 0 0 0 0 0 0 0 0 0 0 0 1 0"/>
<feBlend mode="normal" in2="effect1_dropShadow_2005_62237" result="effect2_dropShadow_2005_62237"/>
<feBlend mode="normal" in="SourceGraphic" in2="effect2_dropShadow_2005_62237" result="shape"/>
</filter>
<linearGradient id="paint0_linear_2005_62237" x1="27.9998" y1="0" x2="27.9998" y2="54" gradientUnits="userSpaceOnUse">
<stop stop-color="#101010"/>
<stop offset="1" stop-color="#131313"/>
</linearGradient>
<linearGradient id="paint1_linear_2005_62237" x1="54.9995" y1="-1.83743e-06" x2="0.99951" y2="53.9995" gradientUnits="userSpaceOnUse">
<stop stop-color="#EDDE79"/>
<stop offset="0.685495" stop-color="#D69A2D"/>
<stop offset="1" stop-color="#F9F093"/>
</linearGradient>
<linearGradient id="paint2_linear_2005_62237" x1="204.938" y1="-15.0134" x2="163.737" y2="110.512" gradientUnits="userSpaceOnUse">
<stop stop-color="white"/>
<stop offset="0.3172" stop-color="#EDDE79"/>
<stop offset="0.6237" stop-color="#D69A2D"/>
<stop offset="0.8978" stop-color="#F9F093"/>
</linearGradient>
<linearGradient id="paint3_linear_2005_62237" x1="-2.14997" y1="-2.8125" x2="45.3032" y2="-10.0017" gradientUnits="userSpaceOnUse">
<stop stop-color="white"/>
<stop offset="0.3172" stop-color="#EDDE79"/>
<stop offset="0.6237" stop-color="#D69A2D"/>
<stop offset="0.8978" stop-color="#F9F093"/>
</linearGradient>
<linearGradient id="paint4_linear_2005_62237" x1="15.5124" y1="1.12451" x2="15.5124" y2="52.8745" gradientUnits="userSpaceOnUse">
<stop stop-color="#F4E181"/>
<stop offset="1" stop-color="#F4E181" stop-opacity="0"/>
</linearGradient>
<linearGradient id="paint5_linear_2005_62237" x1="27.8874" y1="1.12451" x2="27.8874" y2="52.8745" gradientUnits="userSpaceOnUse">
<stop stop-color="#F4E181"/>
<stop offset="1" stop-color="#F4E181" stop-opacity="0"/>
</linearGradient>
<linearGradient id="paint6_linear_2005_62237" x1="40.2621" y1="1.12451" x2="40.2621" y2="52.8745" gradientUnits="userSpaceOnUse">
<stop stop-color="#F4E181"/>
<stop offset="1" stop-color="#F4E181" stop-opacity="0"/>
</linearGradient>
<linearGradient id="paint7_linear_2005_62237" x1="21.3854" y1="-10.9043" x2="10.273" y2="56.889" gradientUnits="userSpaceOnUse">
<stop stop-color="white"/>
<stop offset="0.3172" stop-color="#EDDE79"/>
<stop offset="0.6237" stop-color="#D69A2D"/>
<stop offset="0.8978" stop-color="#F9F093"/>
</linearGradient>
<radialGradient id="paint8_angular_2005_62237" cx="0" cy="0" r="1" gradientUnits="userSpaceOnUse" gradientTransform="translate(16.7305 17.1775) rotate(-44.8888) scale(7.25297 7.25292)">
<stop offset="0.10135" stop-color="#EDDE79"/>
<stop offset="0.371555" stop-color="white"/>
<stop offset="0.619704" stop-color="#D69A2D"/>
<stop offset="0.879496" stop-color="#F9F093"/>
</radialGradient>
<linearGradient id="paint9_linear_2005_62237" x1="23.151" y1="26.0333" x2="11.1852" y2="12.305" gradientUnits="userSpaceOnUse">
<stop stop-color="white"/>
<stop offset="0.3172" stop-color="#EDDE79"/>
<stop offset="0.6237" stop-color="#D69A2D"/>
<stop offset="0.8978" stop-color="#F9F093"/>
</linearGradient>
<linearGradient id="paint10_linear_2005_62237" x1="6.21612" y1="2.91612" x2="20.7478" y2="6.03061" gradientUnits="userSpaceOnUse">
<stop stop-color="white"/>
<stop offset="0.3172" stop-color="#EDDE79"/>
<stop offset="0.6237" stop-color="#D69A2D"/>
<stop offset="0.8978" stop-color="#F9F093"/>
</linearGradient>
<linearGradient id="paint11_linear_2005_62237" x1="14.3648" y1="12.4193" x2="9.67506" y2="20.571" gradientUnits="userSpaceOnUse">
<stop stop-color="white"/>
<stop offset="0.3172" stop-color="#EDDE79"/>
<stop offset="0.6237" stop-color="#D69A2D"/>
<stop offset="0.8978" stop-color="#F9F093"/>
</linearGradient>
<linearGradient id="paint12_linear_2005_62237" x1="26.2099" y1="8.74499" x2="29.6176" y2="18.3265" gradientUnits="userSpaceOnUse">
<stop stop-color="white"/>
<stop offset="0.3172" stop-color="#EDDE79"/>
<stop offset="0.6237" stop-color="#D69A2D"/>
<stop offset="0.8978" stop-color="#F9F093"/>
</linearGradient>
<linearGradient id="paint13_linear_2005_62237" x1="18.2948" y1="27.8981" x2="9.44852" y2="18.6131" gradientUnits="userSpaceOnUse">
<stop stop-color="white"/>
<stop offset="0.3172" stop-color="#EDDE79"/>
<stop offset="0.6237" stop-color="#D69A2D"/>
<stop offset="0.8978" stop-color="#F9F093"/>
</linearGradient>
<linearGradient id="paint14_linear_2005_62237" x1="18.2957" y1="23.1691" x2="15.8742" y2="9.11632" gradientUnits="userSpaceOnUse">
<stop stop-color="white"/>
<stop offset="0.3172" stop-color="#EDDE79"/>
<stop offset="0.6237" stop-color="#D69A2D"/>
<stop offset="0.8978" stop-color="#F9F093"/>
</linearGradient>
<linearGradient id="paint15_linear_2005_62237" x1="18.2957" y1="22.4841" x2="16.4584" y2="11.2748" gradientUnits="userSpaceOnUse">
<stop stop-color="white"/>
<stop offset="0.3172" stop-color="#EDDE79"/>
<stop offset="0.6237" stop-color="#D69A2D"/>
<stop offset="0.8978" stop-color="#F9F093"/>
</linearGradient>
<linearGradient id="paint16_linear_2005_62237" x1="12.1046" y1="18.8291" x2="24.1251" y2="7.98906" gradientUnits="userSpaceOnUse">
<stop stop-color="white"/>
<stop offset="0.3172" stop-color="#EDDE79"/>
<stop offset="0.6237" stop-color="#D69A2D"/>
<stop offset="0.8978" stop-color="#F9F093"/>
</linearGradient>
<linearGradient id="paint17_linear_2005_62237" x1="17.1467" y1="11.0425" x2="22.8677" y2="15.9793" gradientUnits="userSpaceOnUse">
<stop stop-color="white"/>
<stop offset="0.3172" stop-color="#EDDE79"/>
<stop offset="0.6237" stop-color="#D69A2D"/>
<stop offset="0.8978" stop-color="#F9F093"/>
</linearGradient>
<linearGradient id="paint18_linear_2005_62237" x1="24.4228" y1="10.6597" x2="19.8046" y2="24.1361" gradientUnits="userSpaceOnUse">
<stop stop-color="white"/>
<stop offset="0.3172" stop-color="#EDDE79"/>
<stop offset="0.6237" stop-color="#D69A2D"/>
<stop offset="0.8978" stop-color="#F9F093"/>
</linearGradient>
<linearGradient id="paint19_linear_2005_62237" x1="24.5022" y1="28.2023" x2="15.3492" y2="18.903" gradientUnits="userSpaceOnUse">
<stop stop-color="white"/>
<stop offset="0.3172" stop-color="#EDDE79"/>
<stop offset="0.6237" stop-color="#D69A2D"/>
<stop offset="0.8978" stop-color="#F9F093"/>
</linearGradient>
<linearGradient id="paint20_linear_2005_62237" x1="29.337" y1="14.4892" x2="17.8948" y2="20.8604" gradientUnits="userSpaceOnUse">
<stop stop-color="white"/>
<stop offset="0.3172" stop-color="#EDDE79"/>
<stop offset="0.6237" stop-color="#D69A2D"/>
<stop offset="0.8978" stop-color="#F9F093"/>
</linearGradient>
<linearGradient id="paint21_linear_2005_62237" x1="26.9085" y1="23.1691" x2="24.487" y2="9.11632" gradientUnits="userSpaceOnUse">
<stop stop-color="white"/>
<stop offset="0.3172" stop-color="#EDDE79"/>
<stop offset="0.6237" stop-color="#D69A2D"/>
<stop offset="0.8978" stop-color="#F9F093"/>
</linearGradient>
<linearGradient id="paint22_linear_2005_62237" x1="26.9085" y1="22.4841" x2="25.0712" y2="11.2748" gradientUnits="userSpaceOnUse">
<stop stop-color="white"/>
<stop offset="0.3172" stop-color="#EDDE79"/>
<stop offset="0.6237" stop-color="#D69A2D"/>
<stop offset="0.8978" stop-color="#F9F093"/>
</linearGradient>
<linearGradient id="paint23_linear_2005_62237" x1="43.8854" y1="-10.9043" x2="32.773" y2="56.889" gradientUnits="userSpaceOnUse">
<stop stop-color="white"/>
<stop offset="0.3172" stop-color="#EDDE79"/>
<stop offset="0.6237" stop-color="#D69A2D"/>
<stop offset="0.8978" stop-color="#F9F093"/>
</linearGradient>
<radialGradient id="paint24_angular_2005_62237" cx="0" cy="0" r="1" gradientUnits="userSpaceOnUse" gradientTransform="translate(39.2302 17.1775) rotate(-44.8888) scale(7.25297 7.25292)">
<stop offset="0.10135" stop-color="#EDDE79"/>
<stop offset="0.371555" stop-color="white"/>
<stop offset="0.619704" stop-color="#D69A2D"/>
<stop offset="0.879496" stop-color="#F9F093"/>
</radialGradient>
<linearGradient id="paint25_linear_2005_62237" x1="45.6508" y1="26.0333" x2="33.685" y2="12.305" gradientUnits="userSpaceOnUse">
<stop stop-color="white"/>
<stop offset="0.3172" stop-color="#EDDE79"/>
<stop offset="0.6237" stop-color="#D69A2D"/>
<stop offset="0.8978" stop-color="#F9F093"/>
</linearGradient>
<linearGradient id="paint26_linear_2005_62237" x1="28.7159" y1="2.91612" x2="43.2475" y2="6.03061" gradientUnits="userSpaceOnUse">
<stop stop-color="white"/>
<stop offset="0.3172" stop-color="#EDDE79"/>
<stop offset="0.6237" stop-color="#D69A2D"/>
<stop offset="0.8978" stop-color="#F9F093"/>
</linearGradient>
<linearGradient id="paint27_linear_2005_62237" x1="36.8646" y1="12.4193" x2="32.1748" y2="20.571" gradientUnits="userSpaceOnUse">
<stop stop-color="white"/>
<stop offset="0.3172" stop-color="#EDDE79"/>
<stop offset="0.6237" stop-color="#D69A2D"/>
<stop offset="0.8978" stop-color="#F9F093"/>
</linearGradient>
<linearGradient id="paint28_linear_2005_62237" x1="48.7096" y1="8.74499" x2="52.1174" y2="18.3265" gradientUnits="userSpaceOnUse">
<stop stop-color="white"/>
<stop offset="0.3172" stop-color="#EDDE79"/>
<stop offset="0.6237" stop-color="#D69A2D"/>
<stop offset="0.8978" stop-color="#F9F093"/>
</linearGradient>
<linearGradient id="paint29_linear_2005_62237" x1="40.7945" y1="27.8981" x2="31.9483" y2="18.6131" gradientUnits="userSpaceOnUse">
<stop stop-color="white"/>
<stop offset="0.3172" stop-color="#EDDE79"/>
<stop offset="0.6237" stop-color="#D69A2D"/>
<stop offset="0.8978" stop-color="#F9F093"/>
</linearGradient>
<linearGradient id="paint30_linear_2005_62237" x1="40.7954" y1="23.1691" x2="38.374" y2="9.11632" gradientUnits="userSpaceOnUse">
<stop stop-color="white"/>
<stop offset="0.3172" stop-color="#EDDE79"/>
<stop offset="0.6237" stop-color="#D69A2D"/>
<stop offset="0.8978" stop-color="#F9F093"/>
</linearGradient>
<linearGradient id="paint31_linear_2005_62237" x1="40.7954" y1="22.4841" x2="38.9581" y2="11.2748" gradientUnits="userSpaceOnUse">
<stop stop-color="white"/>
<stop offset="0.3172" stop-color="#EDDE79"/>
<stop offset="0.6237" stop-color="#D69A2D"/>
<stop offset="0.8978" stop-color="#F9F093"/>
</linearGradient>
<linearGradient id="paint32_linear_2005_62237" x1="34.6046" y1="18.8291" x2="46.6251" y2="7.98906" gradientUnits="userSpaceOnUse">
<stop stop-color="white"/>
<stop offset="0.3172" stop-color="#EDDE79"/>
<stop offset="0.6237" stop-color="#D69A2D"/>
<stop offset="0.8978" stop-color="#F9F093"/>
</linearGradient>
<linearGradient id="paint33_linear_2005_62237" x1="39.6467" y1="11.0425" x2="45.3677" y2="15.9793" gradientUnits="userSpaceOnUse">
<stop stop-color="white"/>
<stop offset="0.3172" stop-color="#EDDE79"/>
<stop offset="0.6237" stop-color="#D69A2D"/>
<stop offset="0.8978" stop-color="#F9F093"/>
</linearGradient>
<linearGradient id="paint34_linear_2005_62237" x1="46.9226" y1="10.6597" x2="42.3044" y2="24.1361" gradientUnits="userSpaceOnUse">
<stop stop-color="white"/>
<stop offset="0.3172" stop-color="#EDDE79"/>
<stop offset="0.6237" stop-color="#D69A2D"/>
<stop offset="0.8978" stop-color="#F9F093"/>
</linearGradient>
<linearGradient id="paint35_linear_2005_62237" x1="47.0022" y1="28.2023" x2="37.8492" y2="18.903" gradientUnits="userSpaceOnUse">
<stop stop-color="white"/>
<stop offset="0.3172" stop-color="#EDDE79"/>
<stop offset="0.6237" stop-color="#D69A2D"/>
<stop offset="0.8978" stop-color="#F9F093"/>
</linearGradient>
<linearGradient id="paint36_linear_2005_62237" x1="51.837" y1="14.4892" x2="40.3948" y2="20.8604" gradientUnits="userSpaceOnUse">
<stop stop-color="white"/>
<stop offset="0.3172" stop-color="#EDDE79"/>
<stop offset="0.6237" stop-color="#D69A2D"/>
<stop offset="0.8978" stop-color="#F9F093"/>
</linearGradient>
<linearGradient id="paint37_linear_2005_62237" x1="49.4085" y1="23.1691" x2="46.987" y2="9.11632" gradientUnits="userSpaceOnUse">
<stop stop-color="white"/>
<stop offset="0.3172" stop-color="#EDDE79"/>
<stop offset="0.6237" stop-color="#D69A2D"/>
<stop offset="0.8978" stop-color="#F9F093"/>
</linearGradient>
<linearGradient id="paint38_linear_2005_62237" x1="49.4085" y1="22.4841" x2="47.5712" y2="11.2748" gradientUnits="userSpaceOnUse">
<stop stop-color="white"/>
<stop offset="0.3172" stop-color="#EDDE79"/>
<stop offset="0.6237" stop-color="#D69A2D"/>
<stop offset="0.8978" stop-color="#F9F093"/>
</linearGradient>
<linearGradient id="paint39_linear_2005_62237" x1="21.3854" y1="7.54665" x2="10.273" y2="75.3399" gradientUnits="userSpaceOnUse">
<stop stop-color="white"/>
<stop offset="0.3172" stop-color="#EDDE79"/>
<stop offset="0.6237" stop-color="#D69A2D"/>
<stop offset="0.8978" stop-color="#F9F093"/>
</linearGradient>
<radialGradient id="paint40_angular_2005_62237" cx="0" cy="0" r="1" gradientUnits="userSpaceOnUse" gradientTransform="translate(16.7305 35.6282) rotate(-44.8888) scale(7.25297 7.25292)">
<stop offset="0.10135" stop-color="#EDDE79"/>
<stop offset="0.371555" stop-color="white"/>
<stop offset="0.619704" stop-color="#D69A2D"/>
<stop offset="0.879496" stop-color="#F9F093"/>
</radialGradient>
<linearGradient id="paint41_linear_2005_62237" x1="23.151" y1="44.4847" x2="11.1852" y2="30.7564" gradientUnits="userSpaceOnUse">
<stop stop-color="white"/>
<stop offset="0.3172" stop-color="#EDDE79"/>
<stop offset="0.6237" stop-color="#D69A2D"/>
<stop offset="0.8978" stop-color="#F9F093"/>
</linearGradient>
<linearGradient id="paint42_linear_2005_62237" x1="6.21612" y1="21.3675" x2="20.7478" y2="24.482" gradientUnits="userSpaceOnUse">
<stop stop-color="white"/>
<stop offset="0.3172" stop-color="#EDDE79"/>
<stop offset="0.6237" stop-color="#D69A2D"/>
<stop offset="0.8978" stop-color="#F9F093"/>
</linearGradient>
<linearGradient id="paint43_linear_2005_62237" x1="14.3648" y1="30.8707" x2="9.67506" y2="39.0224" gradientUnits="userSpaceOnUse">
<stop stop-color="white"/>
<stop offset="0.3172" stop-color="#EDDE79"/>
<stop offset="0.6237" stop-color="#D69A2D"/>
<stop offset="0.8978" stop-color="#F9F093"/>
</linearGradient>
<linearGradient id="paint44_linear_2005_62237" x1="26.2099" y1="27.1964" x2="29.6176" y2="36.7779" gradientUnits="userSpaceOnUse">
<stop stop-color="white"/>
<stop offset="0.3172" stop-color="#EDDE79"/>
<stop offset="0.6237" stop-color="#D69A2D"/>
<stop offset="0.8978" stop-color="#F9F093"/>
</linearGradient>
<linearGradient id="paint45_linear_2005_62237" x1="18.2948" y1="46.3495" x2="9.44852" y2="37.0645" gradientUnits="userSpaceOnUse">
<stop stop-color="white"/>
<stop offset="0.3172" stop-color="#EDDE79"/>
<stop offset="0.6237" stop-color="#D69A2D"/>
<stop offset="0.8978" stop-color="#F9F093"/>
</linearGradient>
<linearGradient id="paint46_linear_2005_62237" x1="18.2957" y1="41.6205" x2="15.8742" y2="27.5677" gradientUnits="userSpaceOnUse">
<stop stop-color="white"/>
<stop offset="0.3172" stop-color="#EDDE79"/>
<stop offset="0.6237" stop-color="#D69A2D"/>
<stop offset="0.8978" stop-color="#F9F093"/>
</linearGradient>
<linearGradient id="paint47_linear_2005_62237" x1="18.2957" y1="40.9355" x2="16.4584" y2="29.7262" gradientUnits="userSpaceOnUse">
<stop stop-color="white"/>
<stop offset="0.3172" stop-color="#EDDE79"/>
<stop offset="0.6237" stop-color="#D69A2D"/>
<stop offset="0.8978" stop-color="#F9F093"/>
</linearGradient>
<linearGradient id="paint48_linear_2005_62237" x1="12.1046" y1="37.2806" x2="24.1251" y2="26.4405" gradientUnits="userSpaceOnUse">
<stop stop-color="white"/>
<stop offset="0.3172" stop-color="#EDDE79"/>
<stop offset="0.6237" stop-color="#D69A2D"/>
<stop offset="0.8978" stop-color="#F9F093"/>
</linearGradient>
<linearGradient id="paint49_linear_2005_62237" x1="17.1467" y1="29.4939" x2="22.8677" y2="34.4307" gradientUnits="userSpaceOnUse">
<stop stop-color="white"/>
<stop offset="0.3172" stop-color="#EDDE79"/>
<stop offset="0.6237" stop-color="#D69A2D"/>
<stop offset="0.8978" stop-color="#F9F093"/>
</linearGradient>
<linearGradient id="paint50_linear_2005_62237" x1="24.4228" y1="29.1111" x2="19.8046" y2="42.5875" gradientUnits="userSpaceOnUse">
<stop stop-color="white"/>
<stop offset="0.3172" stop-color="#EDDE79"/>
<stop offset="0.6237" stop-color="#D69A2D"/>
<stop offset="0.8978" stop-color="#F9F093"/>
</linearGradient>
<linearGradient id="paint51_linear_2005_62237" x1="24.5022" y1="46.6537" x2="15.3492" y2="37.3544" gradientUnits="userSpaceOnUse">
<stop stop-color="white"/>
<stop offset="0.3172" stop-color="#EDDE79"/>
<stop offset="0.6237" stop-color="#D69A2D"/>
<stop offset="0.8978" stop-color="#F9F093"/>
</linearGradient>
<linearGradient id="paint52_linear_2005_62237" x1="29.337" y1="32.9406" x2="17.8948" y2="39.3119" gradientUnits="userSpaceOnUse">
<stop stop-color="white"/>
<stop offset="0.3172" stop-color="#EDDE79"/>
<stop offset="0.6237" stop-color="#D69A2D"/>
<stop offset="0.8978" stop-color="#F9F093"/>
</linearGradient>
<linearGradient id="paint53_linear_2005_62237" x1="26.9085" y1="41.6205" x2="24.487" y2="27.5677" gradientUnits="userSpaceOnUse">
<stop stop-color="white"/>
<stop offset="0.3172" stop-color="#EDDE79"/>
<stop offset="0.6237" stop-color="#D69A2D"/>
<stop offset="0.8978" stop-color="#F9F093"/>
</linearGradient>
<linearGradient id="paint54_linear_2005_62237" x1="26.9085" y1="40.9355" x2="25.0712" y2="29.7262" gradientUnits="userSpaceOnUse">
<stop stop-color="white"/>
<stop offset="0.3172" stop-color="#EDDE79"/>
<stop offset="0.6237" stop-color="#D69A2D"/>
<stop offset="0.8978" stop-color="#F9F093"/>
</linearGradient>
<linearGradient id="paint55_linear_2005_62237" x1="43.8851" y1="7.54665" x2="32.7728" y2="75.3399" gradientUnits="userSpaceOnUse">
<stop stop-color="white"/>
<stop offset="0.3172" stop-color="#EDDE79"/>
<stop offset="0.6237" stop-color="#D69A2D"/>
<stop offset="0.8978" stop-color="#F9F093"/>
</linearGradient>
<radialGradient id="paint56_angular_2005_62237" cx="0" cy="0" r="1" gradientUnits="userSpaceOnUse" gradientTransform="translate(39.2302 35.6282) rotate(-44.8888) scale(7.25297 7.25292)">
<stop offset="0.10135" stop-color="#EDDE79"/>
<stop offset="0.371555" stop-color="white"/>
<stop offset="0.619704" stop-color="#D69A2D"/>
<stop offset="0.879496" stop-color="#F9F093"/>
</radialGradient>
<linearGradient id="paint57_linear_2005_62237" x1="45.6508" y1="44.4847" x2="33.685" y2="30.7564" gradientUnits="userSpaceOnUse">
<stop stop-color="white"/>
<stop offset="0.3172" stop-color="#EDDE79"/>
<stop offset="0.6237" stop-color="#D69A2D"/>
<stop offset="0.8978" stop-color="#F9F093"/>
</linearGradient>
<linearGradient id="paint58_linear_2005_62237" x1="28.7159" y1="21.3675" x2="43.2475" y2="24.482" gradientUnits="userSpaceOnUse">
<stop stop-color="white"/>
<stop offset="0.3172" stop-color="#EDDE79"/>
<stop offset="0.6237" stop-color="#D69A2D"/>
<stop offset="0.8978" stop-color="#F9F093"/>
</linearGradient>
<linearGradient id="paint59_linear_2005_62237" x1="36.8646" y1="30.8707" x2="32.1748" y2="39.0224" gradientUnits="userSpaceOnUse">
<stop stop-color="white"/>
<stop offset="0.3172" stop-color="#EDDE79"/>
<stop offset="0.6237" stop-color="#D69A2D"/>
<stop offset="0.8978" stop-color="#F9F093"/>
</linearGradient>
<linearGradient id="paint60_linear_2005_62237" x1="48.7096" y1="27.1964" x2="52.1174" y2="36.7779" gradientUnits="userSpaceOnUse">
<stop stop-color="white"/>
<stop offset="0.3172" stop-color="#EDDE79"/>
<stop offset="0.6237" stop-color="#D69A2D"/>
<stop offset="0.8978" stop-color="#F9F093"/>
</linearGradient>
<linearGradient id="paint61_linear_2005_62237" x1="40.7945" y1="46.3495" x2="31.9483" y2="37.0645" gradientUnits="userSpaceOnUse">
<stop stop-color="white"/>
<stop offset="0.3172" stop-color="#EDDE79"/>
<stop offset="0.6237" stop-color="#D69A2D"/>
<stop offset="0.8978" stop-color="#F9F093"/>
</linearGradient>
<linearGradient id="paint62_linear_2005_62237" x1="40.7954" y1="41.6205" x2="38.374" y2="27.5677" gradientUnits="userSpaceOnUse">
<stop stop-color="white"/>
<stop offset="0.3172" stop-color="#EDDE79"/>
<stop offset="0.6237" stop-color="#D69A2D"/>
<stop offset="0.8978" stop-color="#F9F093"/>
</linearGradient>
<linearGradient id="paint63_linear_2005_62237" x1="40.7954" y1="40.9355" x2="38.9581" y2="29.7262" gradientUnits="userSpaceOnUse">
<stop stop-color="white"/>
<stop offset="0.3172" stop-color="#EDDE79"/>
<stop offset="0.6237" stop-color="#D69A2D"/>
<stop offset="0.8978" stop-color="#F9F093"/>
</linearGradient>
<linearGradient id="paint64_linear_2005_62237" x1="34.6044" y1="37.2806" x2="46.6248" y2="26.4405" gradientUnits="userSpaceOnUse">
<stop stop-color="white"/>
<stop offset="0.3172" stop-color="#EDDE79"/>
<stop offset="0.6237" stop-color="#D69A2D"/>
<stop offset="0.8978" stop-color="#F9F093"/>
</linearGradient>
<linearGradient id="paint65_linear_2005_62237" x1="39.6465" y1="29.4939" x2="45.3674" y2="34.4307" gradientUnits="userSpaceOnUse">
<stop stop-color="white"/>
<stop offset="0.3172" stop-color="#EDDE79"/>
<stop offset="0.6237" stop-color="#D69A2D"/>
<stop offset="0.8978" stop-color="#F9F093"/>
</linearGradient>
<linearGradient id="paint66_linear_2005_62237" x1="46.9226" y1="29.1111" x2="42.3044" y2="42.5875" gradientUnits="userSpaceOnUse">
<stop stop-color="white"/>
<stop offset="0.3172" stop-color="#EDDE79"/>
<stop offset="0.6237" stop-color="#D69A2D"/>
<stop offset="0.8978" stop-color="#F9F093"/>
</linearGradient>
<linearGradient id="paint67_linear_2005_62237" x1="47.0019" y1="46.6537" x2="37.849" y2="37.3544" gradientUnits="userSpaceOnUse">
<stop stop-color="white"/>
<stop offset="0.3172" stop-color="#EDDE79"/>
<stop offset="0.6237" stop-color="#D69A2D"/>
<stop offset="0.8978" stop-color="#F9F093"/>
</linearGradient>
<linearGradient id="paint68_linear_2005_62237" x1="51.8368" y1="32.9406" x2="40.3945" y2="39.3119" gradientUnits="userSpaceOnUse">
<stop stop-color="white"/>
<stop offset="0.3172" stop-color="#EDDE79"/>
<stop offset="0.6237" stop-color="#D69A2D"/>
<stop offset="0.8978" stop-color="#F9F093"/>
</linearGradient>
<linearGradient id="paint69_linear_2005_62237" x1="49.4082" y1="41.6205" x2="46.9868" y2="27.5677" gradientUnits="userSpaceOnUse">
<stop stop-color="white"/>
<stop offset="0.3172" stop-color="#EDDE79"/>
<stop offset="0.6237" stop-color="#D69A2D"/>
<stop offset="0.8978" stop-color="#F9F093"/>
</linearGradient>
<linearGradient id="paint70_linear_2005_62237" x1="49.4082" y1="40.9355" x2="47.5709" y2="29.7262" gradientUnits="userSpaceOnUse">
<stop stop-color="white"/>
<stop offset="0.3172" stop-color="#EDDE79"/>
<stop offset="0.6237" stop-color="#D69A2D"/>
<stop offset="0.8978" stop-color="#F9F093"/>
</linearGradient>
<radialGradient id="paint71_radial_2005_62237" cx="0" cy="0" r="1" gradientUnits="userSpaceOnUse" gradientTransform="translate(16.5249 51.75) rotate(180) scale(13.2749 13.275)">
<stop stop-color="#FAF5D5"/>
<stop offset="0.246668" stop-color="#EFE182"/>
<stop offset="0.505747" stop-color="#EACB67"/>
<stop offset="0.745868" stop-color="#E2B850"/>
<stop offset="1" stop-color="#DDAB41"/>
</radialGradient>
<linearGradient id="paint72_linear_2005_62237" x1="27.9998" y1="49.05" x2="27.9998" y2="51.75" gradientUnits="userSpaceOnUse">
<stop stop-color="#E5E5E5"/>
<stop offset="1" stop-color="#444B53"/>
</linearGradient>
<linearGradient id="paint73_linear_2005_62237" x1="28.4998" y1="49.05" x2="28.4998" y2="51.75" gradientUnits="userSpaceOnUse">
<stop stop-color="#E5E5E5"/>
<stop offset="1" stop-color="#444B53"/>
</linearGradient>
</defs>
</svg>
