<svg width="56" height="54" viewBox="0 0 56 54" fill="none" xmlns="http://www.w3.org/2000/svg">
<rect x="1.5625" y="0.562501" width="52.8753" height="52.875" fill="url(#paint0_linear_2005_62121)"/>
<rect x="1.5625" y="0.562501" width="52.8753" height="52.875" fill="url(#paint1_linear_2005_62121)" fill-opacity="0.8"/>
<rect x="1.5625" y="0.562501" width="52.8753" height="52.875" stroke="url(#paint2_linear_2005_62121)" stroke-width="1.125"/>
<g filter="url(#filter0_i_2005_62121)">
<rect x="1.1125" y="0.1125" width="53.7753" height="53.775" stroke="url(#paint3_linear_2005_62121)" stroke-width="0.225001"/>
</g>
<g style="mix-blend-mode:plus-lighter">
<rect x="12.0251" y="1.125" width="6.97503" height="51.75" fill="url(#paint4_linear_2005_62121)" fill-opacity="0.2"/>
<rect x="24.4001" y="1.125" width="6.97503" height="51.75" fill="url(#paint5_linear_2005_62121)" fill-opacity="0.2"/>
<rect x="36.7751" y="1.125" width="6.97503" height="51.75" fill="url(#paint6_linear_2005_62121)" fill-opacity="0.2"/>
</g>
<g filter="url(#filter1_d_2005_62121)">
<path d="M22.5303 23.6556C23.1431 21.9536 22.9524 20.2108 22.9524 20.2108C22.9524 20.2108 22.9524 20.2108 22.9388 20.2244C20.6649 20.1018 19.6165 20.6329 19.5348 20.6737C19.5348 20.6737 19.5348 20.6737 19.5348 20.6601C19.5484 20.6601 18.8949 19.0534 16.7571 17.9097C14.6058 19.0534 13.9522 20.6601 13.9522 20.6601C13.9522 20.6601 12.9174 20.0746 10.5482 20.1972C10.5482 20.1972 10.3576 21.94 10.9703 23.642C9.09131 24.5543 8.13818 25.9159 8.13818 25.9159C9.02323 27.3728 10.7388 28.217 10.7797 28.2442C10.7661 28.2987 10.698 28.6119 10.6299 29.2654C10.5755 29.8918 10.521 30.804 10.5346 32.0567C10.5346 32.0567 11.3243 32.2065 12.3592 32.2065C13.7752 32.1929 15.6542 31.8933 16.7299 30.5045C17.8056 31.8933 19.6846 32.1929 21.1007 32.2065C22.1355 32.2201 22.9252 32.0567 22.9252 32.0567C22.9388 30.8177 22.898 29.9054 22.8299 29.279C22.7754 28.6119 22.6937 28.2987 22.6801 28.2442C22.7346 28.217 24.4502 27.3728 25.3216 25.9159V25.9023C25.3625 25.9159 24.4094 24.5543 22.5303 23.6556Z" fill="url(#paint7_linear_2005_62121)"/>
<path fill-rule="evenodd" clip-rule="evenodd" d="M22.9805 20.908C22.9784 21.5722 22.9027 22.6213 22.5304 23.6552C23.4665 24.1029 24.1728 24.6655 24.6409 25.1157C24.7352 25.2064 24.8197 25.2925 24.8946 25.3721C25.1708 25.6662 25.3147 25.8729 25.3226 25.8991C25.3231 25.9007 25.3231 25.9016 25.3226 25.9019C25.3224 25.902 25.3221 25.902 25.3217 25.9019V25.9155C25.3183 25.9211 25.3149 25.9268 25.3115 25.9324C24.4458 27.3644 22.7685 28.1998 22.6823 28.2428L22.6802 28.2438L22.6814 28.2485C22.698 28.3145 22.7769 28.6285 22.83 29.2786C22.8981 29.905 22.9389 30.8173 22.9253 32.0563C22.9253 32.0563 22.1356 32.2197 21.1007 32.2061C19.8741 32.1943 18.3 31.9679 17.2016 31.0048C17.0321 30.8561 16.8738 30.6898 16.73 30.5041C16.5861 30.6898 16.4279 30.8561 16.2584 31.0048C15.16 31.9679 13.5859 32.1943 12.3592 32.2061C11.3244 32.2061 10.5347 32.0563 10.5347 32.0563C10.5211 30.8036 10.5755 29.8914 10.63 29.265C10.6981 28.6115 10.7662 28.2983 10.7798 28.2438C10.777 28.242 10.7662 28.2362 10.7483 28.2266C10.5063 28.0973 8.96228 27.2719 8.13827 25.9155C8.13827 25.9155 9.09139 24.5539 10.9704 23.6416C10.3577 21.9396 10.5483 20.1968 10.5483 20.1968C12.0921 20.1169 13.0694 20.3377 13.5629 20.5012C13.8267 20.5886 13.9523 20.6597 13.9523 20.6597C13.9523 20.6597 14.046 20.4293 14.2793 20.081C14.662 19.5093 15.4205 18.6199 16.7572 17.9093C18.0088 18.5789 18.7517 19.4072 19.1497 19.9789C19.1697 20.0076 19.1888 20.0357 19.2071 20.063C19.2093 20.0663 19.2115 20.0696 19.2136 20.0728C19.2491 20.1263 19.2814 20.177 19.3106 20.2246C19.4636 20.4746 19.5307 20.6383 19.5349 20.6577C19.5352 20.659 19.5352 20.6597 19.5349 20.6597V20.6733L19.5362 20.6727C19.5416 20.67 19.5504 20.6656 19.5626 20.6597C19.6372 20.624 19.8394 20.5342 20.1814 20.4438C20.717 20.3022 21.5955 20.1591 22.8633 20.2201C22.8883 20.2213 22.9136 20.2226 22.9389 20.224L22.9525 20.2104C22.9525 20.2104 22.9537 20.2207 22.9555 20.2405C22.9573 20.2605 22.9598 20.2901 22.9625 20.3286C22.9709 20.4466 22.9814 20.6478 22.9805 20.908ZM22.9448 20.1141C22.9478 20.1444 22.9504 20.1765 22.9525 20.2104C23.6293 20.1364 23.6293 20.1365 23.6293 20.1367L23.6295 20.1379L23.6297 20.14L23.6303 20.1463C23.6308 20.1513 23.6315 20.158 23.6323 20.1663C23.6339 20.1829 23.6359 20.206 23.6382 20.2351C23.6428 20.2934 23.6484 20.3761 23.6529 20.4796C23.6619 20.6863 23.6669 20.9776 23.6514 21.3249C23.6269 21.874 23.5506 22.5782 23.3504 23.3152C24.1109 23.7449 24.7014 24.2285 25.1184 24.6304C25.3731 24.8759 25.5662 25.0937 25.6965 25.255C25.7611 25.3348 25.8137 25.4051 25.8522 25.4613C25.8693 25.4863 25.893 25.522 25.9142 25.5606L25.9149 25.5618C25.9211 25.573 25.9524 25.6294 25.9746 25.7032C25.9816 25.7263 25.9931 25.7688 25.9993 25.8231C26.0019 25.8458 26.0059 25.8879 26.0025 25.9424V26.1036L25.906 26.265C25.4043 27.1037 24.6768 27.7427 24.0953 28.1662C23.8496 28.3451 23.6232 28.4904 23.4398 28.6004C23.4634 28.7637 23.4874 28.967 23.5078 29.2141C23.5792 29.8765 23.6198 30.8151 23.6061 32.0638L23.6 32.6119L23.0632 32.723L22.9253 32.0563C23.0632 32.723 23.0631 32.723 23.063 32.723L23.0612 32.7234L23.058 32.7241L23.0482 32.726C23.0402 32.7276 23.0291 32.7298 23.0152 32.7324C22.9873 32.7376 22.948 32.7447 22.8982 32.7531C22.7986 32.7697 22.657 32.7913 22.4821 32.8123C22.1333 32.854 21.6468 32.8941 21.0932 32.8868C19.8314 32.8746 18.0224 32.6474 16.73 31.497C15.4372 32.6477 13.6276 32.8747 12.3658 32.8869L12.3625 32.8869H12.3592C11.8101 32.8869 11.3274 32.8472 10.9814 32.8076C10.808 32.7877 10.6678 32.7677 10.5695 32.7524C10.5204 32.7448 10.4816 32.7383 10.4543 32.7335C10.4407 32.7312 10.4299 32.7292 10.4221 32.7278L10.4127 32.7261L10.4097 32.7255L10.4082 32.7253L10.408 32.7252C10.4079 32.7252 10.4078 32.7252 10.5347 32.0563L10.4078 32.7252L9.85999 32.6213L9.85393 32.0637C9.84005 30.7867 9.89558 29.8522 9.95176 29.2061L9.95226 29.2003L9.95286 29.1945C9.97754 28.9576 10.0025 28.761 10.0255 28.6017C9.42657 28.2387 8.25623 27.421 7.55641 26.269L7.32568 25.8891L7.58053 25.5251L8.13827 25.9155C7.58053 25.5251 7.58065 25.5249 7.58077 25.5247L7.58164 25.5235L7.58311 25.5214L7.58713 25.5158C7.59029 25.5113 7.5944 25.5056 7.59948 25.4987C7.60962 25.4848 7.6236 25.4659 7.64141 25.4425C7.67702 25.3958 7.72802 25.331 7.79438 25.2516C7.92699 25.0931 8.12162 24.876 8.37812 24.6296C8.7985 24.2259 9.38976 23.7392 10.1512 23.3045C9.95039 22.5665 9.87399 21.8611 9.84946 21.3113C9.83396 20.964 9.83891 20.6727 9.84794 20.466C9.85246 20.3625 9.85802 20.2798 9.86261 20.2215C9.86491 20.1924 9.86697 20.1692 9.86854 20.1526C9.86932 20.1443 9.86999 20.1377 9.8705 20.1327L9.87114 20.1264L9.87137 20.1243L9.87151 20.1231C9.87152 20.1229 9.87154 20.1227 10.5483 20.1968L9.87154 20.1227L9.93453 19.5468L10.5131 19.5169C11.7595 19.4524 12.6752 19.5732 13.2953 19.7197C13.4235 19.75 13.5388 19.7813 13.6417 19.8122C13.7397 19.6584 13.8629 19.4815 14.0148 19.2901C14.4971 18.6825 15.2684 17.9298 16.4376 17.3081L16.7582 17.1377L17.0784 17.309C18.2407 17.9309 19.0086 18.6839 19.4877 19.2922C19.6417 19.4877 19.7659 19.6685 19.8641 19.8254C20.4519 19.6537 21.4482 19.4689 22.9108 19.5408L22.9102 19.5309L23.5587 19.4905L23.6293 20.1364L22.9525 20.2104L22.9456 20.0995L22.9448 20.1141Z" fill="black"/>
<path fill-rule="evenodd" clip-rule="evenodd" d="M22.9805 20.908C22.9784 21.5722 22.9027 22.6213 22.5304 23.6552C23.4665 24.1029 24.1728 24.6655 24.6409 25.1157C24.7352 25.2064 24.8197 25.2925 24.8946 25.3721C25.1708 25.6662 25.3147 25.8729 25.3226 25.8991C25.3231 25.9007 25.3231 25.9016 25.3226 25.9019C25.3224 25.902 25.3221 25.902 25.3217 25.9019V25.9155C25.3183 25.9211 25.3149 25.9268 25.3115 25.9324C24.4458 27.3644 22.7685 28.1998 22.6823 28.2428L22.6802 28.2438L22.6814 28.2485C22.698 28.3145 22.7769 28.6285 22.83 29.2786C22.8981 29.905 22.9389 30.8173 22.9253 32.0563C22.9253 32.0563 22.1356 32.2197 21.1007 32.2061C19.8741 32.1943 18.3 31.9679 17.2016 31.0048C17.0321 30.8561 16.8738 30.6898 16.73 30.5041C16.5861 30.6898 16.4279 30.8561 16.2584 31.0048C15.16 31.9679 13.5859 32.1943 12.3592 32.2061C11.3244 32.2061 10.5347 32.0563 10.5347 32.0563C10.5211 30.8036 10.5755 29.8914 10.63 29.265C10.6981 28.6115 10.7662 28.2983 10.7798 28.2438C10.777 28.242 10.7662 28.2362 10.7483 28.2266C10.5063 28.0973 8.96228 27.2719 8.13827 25.9155C8.13827 25.9155 9.09139 24.5539 10.9704 23.6416C10.3577 21.9396 10.5483 20.1968 10.5483 20.1968C12.0921 20.1169 13.0694 20.3377 13.5629 20.5012C13.8267 20.5886 13.9523 20.6597 13.9523 20.6597C13.9523 20.6597 14.046 20.4293 14.2793 20.081C14.662 19.5093 15.4205 18.6199 16.7572 17.9093C18.0088 18.5789 18.7517 19.4072 19.1497 19.9789C19.1697 20.0076 19.1888 20.0357 19.2071 20.063C19.2093 20.0663 19.2115 20.0696 19.2136 20.0728C19.2491 20.1263 19.2814 20.177 19.3106 20.2246C19.4636 20.4746 19.5307 20.6383 19.5349 20.6577C19.5352 20.659 19.5352 20.6597 19.5349 20.6597V20.6733L19.5362 20.6727C19.5416 20.67 19.5504 20.6656 19.5626 20.6597C19.6372 20.624 19.8394 20.5342 20.1814 20.4438C20.717 20.3022 21.5955 20.1591 22.8633 20.2201C22.8883 20.2213 22.9136 20.2226 22.9389 20.224L22.9525 20.2104C22.9525 20.2104 22.9537 20.2207 22.9555 20.2405C22.9573 20.2605 22.9598 20.2901 22.9625 20.3286C22.9709 20.4466 22.9814 20.6478 22.9805 20.908ZM22.9448 20.1141C22.9478 20.1444 22.9504 20.1765 22.9525 20.2104C23.6293 20.1364 23.6293 20.1365 23.6293 20.1367L23.6295 20.1379L23.6297 20.14L23.6303 20.1463C23.6308 20.1513 23.6315 20.158 23.6323 20.1663C23.6339 20.1829 23.6359 20.206 23.6382 20.2351C23.6428 20.2934 23.6484 20.3761 23.6529 20.4796C23.6619 20.6863 23.6669 20.9776 23.6514 21.3249C23.6269 21.874 23.5506 22.5782 23.3504 23.3152C24.1109 23.7449 24.7014 24.2285 25.1184 24.6304C25.3731 24.8759 25.5662 25.0937 25.6965 25.255C25.7611 25.3348 25.8137 25.4051 25.8522 25.4613C25.8693 25.4863 25.893 25.522 25.9142 25.5606L25.9149 25.5618C25.9211 25.573 25.9524 25.6294 25.9746 25.7032C25.9816 25.7263 25.9931 25.7688 25.9993 25.8231C26.0019 25.8458 26.0059 25.8879 26.0025 25.9424V26.1036L25.906 26.265C25.4043 27.1037 24.6768 27.7427 24.0953 28.1662C23.8496 28.3451 23.6232 28.4904 23.4398 28.6004C23.4634 28.7637 23.4874 28.967 23.5078 29.2141C23.5792 29.8765 23.6198 30.8151 23.6061 32.0638L23.6 32.6119L23.0632 32.723L22.9253 32.0563C23.0632 32.723 23.0631 32.723 23.063 32.723L23.0612 32.7234L23.058 32.7241L23.0482 32.726C23.0402 32.7276 23.0291 32.7298 23.0152 32.7324C22.9873 32.7376 22.948 32.7447 22.8982 32.7531C22.7986 32.7697 22.657 32.7913 22.4821 32.8123C22.1333 32.854 21.6468 32.8941 21.0932 32.8868C19.8314 32.8746 18.0224 32.6474 16.73 31.497C15.4372 32.6477 13.6276 32.8747 12.3658 32.8869L12.3625 32.8869H12.3592C11.8101 32.8869 11.3274 32.8472 10.9814 32.8076C10.808 32.7877 10.6678 32.7677 10.5695 32.7524C10.5204 32.7448 10.4816 32.7383 10.4543 32.7335C10.4407 32.7312 10.4299 32.7292 10.4221 32.7278L10.4127 32.7261L10.4097 32.7255L10.4082 32.7253L10.408 32.7252C10.4079 32.7252 10.4078 32.7252 10.5347 32.0563L10.4078 32.7252L9.85999 32.6213L9.85393 32.0637C9.84005 30.7867 9.89558 29.8522 9.95176 29.2061L9.95226 29.2003L9.95286 29.1945C9.97754 28.9576 10.0025 28.761 10.0255 28.6017C9.42657 28.2387 8.25623 27.421 7.55641 26.269L7.32568 25.8891L7.58053 25.5251L8.13827 25.9155C7.58053 25.5251 7.58065 25.5249 7.58077 25.5247L7.58164 25.5235L7.58311 25.5214L7.58713 25.5158C7.59029 25.5113 7.5944 25.5056 7.59948 25.4987C7.60962 25.4848 7.6236 25.4659 7.64141 25.4425C7.67702 25.3958 7.72802 25.331 7.79438 25.2516C7.92699 25.0931 8.12162 24.876 8.37812 24.6296C8.7985 24.2259 9.38976 23.7392 10.1512 23.3045C9.95039 22.5665 9.87399 21.8611 9.84946 21.3113C9.83396 20.964 9.83891 20.6727 9.84794 20.466C9.85246 20.3625 9.85802 20.2798 9.86261 20.2215C9.86491 20.1924 9.86697 20.1692 9.86854 20.1526C9.86932 20.1443 9.86999 20.1377 9.8705 20.1327L9.87114 20.1264L9.87137 20.1243L9.87151 20.1231C9.87152 20.1229 9.87154 20.1227 10.5483 20.1968L9.87154 20.1227L9.93453 19.5468L10.5131 19.5169C11.7595 19.4524 12.6752 19.5732 13.2953 19.7197C13.4235 19.75 13.5388 19.7813 13.6417 19.8122C13.7397 19.6584 13.8629 19.4815 14.0148 19.2901C14.4971 18.6825 15.2684 17.9298 16.4376 17.3081L16.7582 17.1377L17.0784 17.309C18.2407 17.9309 19.0086 18.6839 19.4877 19.2922C19.6417 19.4877 19.7659 19.6685 19.8641 19.8254C20.4519 19.6537 21.4482 19.4689 22.9108 19.5408L22.9102 19.5309L23.5587 19.4905L23.6293 20.1364L22.9525 20.2104L22.9456 20.0995L22.9448 20.1141Z" fill="url(#paint8_angular_2005_62121)"/>
<path d="M16.7511 17.9092V27.3949V27.3845C16.6992 27.156 15.8472 23.343 13.9563 20.6624C13.9563 20.6624 14.6108 19.052 16.7511 17.9092Z" fill="url(#paint9_linear_2005_62121)"/>
<path d="M16.7512 27.3945C14.9746 23.7789 10.5486 20.2048 10.5486 20.2048C12.9278 20.0698 13.9564 20.662 13.9564 20.662C15.8473 23.3425 16.6993 27.1555 16.7512 27.3945Z" fill="url(#paint10_linear_2005_62121)"/>
<path d="M16.7512 27.3945C13.946 24.8075 10.9746 23.6542 10.9746 23.6542C10.3616 21.9503 10.5486 20.2048 10.5486 20.2048C10.5486 20.2048 14.9746 23.7789 16.7512 27.3945Z" fill="url(#paint11_linear_2005_62121)"/>
<path d="M16.7513 27.395C16.7513 27.395 12.5435 27.6236 10.7876 28.247C10.7876 28.247 10.5071 29.4314 10.5486 32.06C10.5486 32.06 11.3383 32.2158 12.3772 32.2054C13.7902 32.195 15.6708 31.8937 16.7513 30.5015V27.395Z" fill="url(#paint12_linear_2005_62121)"/>
<path d="M16.7512 27.395L10.5485 32.0496C10.5278 29.2236 10.7875 28.2366 10.7875 28.2366C12.5434 27.6236 16.7512 27.395 16.7512 27.395Z" fill="url(#paint13_linear_2005_62121)"/>
<path d="M16.7512 27.3953C13.946 24.8083 10.9746 23.655 10.9746 23.655C9.09404 24.5485 8.13818 25.92 8.13818 25.92C8.13818 25.92 13.0837 25.307 16.7512 27.3953Z" fill="url(#paint14_linear_2005_62121)"/>
<path d="M10.7876 28.2469C12.5434 27.6235 16.7512 27.3949 16.7512 27.3949C13.0837 25.3066 8.13818 25.9196 8.13818 25.9196C9.0317 27.3949 10.7876 28.2469 10.7876 28.2469Z" fill="url(#paint15_linear_2005_62121)"/>
<path d="M16.7512 17.9092V27.3949V27.3845C16.8032 27.1456 17.6551 23.343 19.546 20.652C19.546 20.6624 18.8915 19.052 16.7512 17.9092Z" fill="url(#paint16_linear_2005_62121)"/>
<path d="M16.7512 27.3944C18.5279 23.7788 22.9539 20.2152 22.9539 20.2152C20.5746 20.0801 19.5357 20.6619 19.5357 20.6619C17.6551 23.3425 16.8032 27.1555 16.7512 27.3944Z" fill="url(#paint17_linear_2005_62121)"/>
<path d="M16.7512 27.3945C19.5564 24.8075 22.5279 23.6542 22.5279 23.6542C23.1409 21.9503 22.9539 20.2048 22.9539 20.2048C22.9539 20.2048 18.5279 23.7789 16.7512 27.3945Z" fill="url(#paint18_linear_2005_62121)"/>
<path d="M16.7512 27.395C16.7512 27.395 20.959 27.6236 22.7149 28.247C22.7149 28.247 22.9954 29.4314 22.9539 32.06C22.9539 32.06 22.1642 32.2158 21.1253 32.2054C19.7123 32.195 17.8317 31.8937 16.7512 30.5015V27.395Z" fill="url(#paint19_linear_2005_62121)"/>
<path d="M16.7512 27.395L22.9539 32.0496C22.9746 29.2236 22.7149 28.2366 22.7149 28.2366C20.959 27.6236 16.7512 27.395 16.7512 27.395Z" fill="url(#paint20_linear_2005_62121)"/>
<path d="M16.7512 27.3953C19.5564 24.8083 22.5279 23.655 22.5279 23.655C24.4084 24.5485 25.3643 25.9096 25.3643 25.9096C25.3643 25.9096 20.4084 25.307 16.7512 27.3953Z" fill="url(#paint21_linear_2005_62121)"/>
<path d="M22.7149 28.2469C20.959 27.6235 16.7512 27.3949 16.7512 27.3949C20.4084 25.3066 25.3643 25.9196 25.3643 25.9196C24.4708 27.3949 22.7149 28.2469 22.7149 28.2469Z" fill="url(#paint22_linear_2005_62121)"/>
</g>
<g filter="url(#filter2_d_2005_62121)">
<path d="M45.0303 23.6556C45.6431 21.9536 45.4524 20.2108 45.4524 20.2108C45.4524 20.2108 45.4524 20.2108 45.4388 20.2244C43.1649 20.1018 42.1165 20.6329 42.0348 20.6737C42.0348 20.6737 42.0348 20.6737 42.0348 20.6601C42.0484 20.6601 41.3949 19.0534 39.2571 17.9097C37.1058 19.0534 36.4522 20.6601 36.4522 20.6601C36.4522 20.6601 35.4174 20.0746 33.0482 20.1972C33.0482 20.1972 32.8576 21.94 33.4703 23.642C31.5913 24.5543 30.6382 25.9159 30.6382 25.9159C31.5232 27.3728 33.2388 28.217 33.2797 28.2442C33.2661 28.2987 33.198 28.6119 33.1299 29.2654C33.0755 29.8918 33.021 30.804 33.0346 32.0567C33.0346 32.0567 33.8243 32.2065 34.8592 32.2065C36.2752 32.1929 38.1542 31.8933 39.2299 30.5045C40.3056 31.8933 42.1846 32.1929 43.6007 32.2065C44.6355 32.2201 45.4252 32.0567 45.4252 32.0567C45.4388 30.8177 45.398 29.9054 45.3299 29.279C45.2754 28.6119 45.1937 28.2987 45.1801 28.2442C45.2346 28.217 46.9502 27.3728 47.8216 25.9159V25.9023C47.8625 25.9159 46.9094 24.5543 45.0303 23.6556Z" fill="url(#paint23_linear_2005_62121)"/>
<path fill-rule="evenodd" clip-rule="evenodd" d="M45.4805 20.908C45.4784 21.5722 45.4027 22.6213 45.0304 23.6552C45.9665 24.1029 46.6728 24.6655 47.1409 25.1157C47.2352 25.2064 47.3197 25.2925 47.3946 25.3721C47.6708 25.6662 47.8147 25.8729 47.8226 25.8991C47.8231 25.9007 47.8231 25.9016 47.8226 25.9019C47.8224 25.902 47.8221 25.902 47.8217 25.9019V25.9155C47.8183 25.9211 47.8149 25.9268 47.8115 25.9324C46.9458 27.3644 45.2685 28.1998 45.1823 28.2428L45.1802 28.2438L45.1814 28.2485C45.198 28.3145 45.2769 28.6285 45.33 29.2786C45.3981 29.905 45.4389 30.8173 45.4253 32.0563C45.4253 32.0563 44.6356 32.2197 43.6007 32.2061C42.3741 32.1943 40.8 31.9679 39.7016 31.0048C39.5321 30.8561 39.3738 30.6898 39.23 30.5041C39.0861 30.6898 38.9279 30.8561 38.7584 31.0048C37.66 31.9679 36.0859 32.1943 34.8592 32.2061C33.8244 32.2061 33.0347 32.0563 33.0347 32.0563C33.0211 30.8036 33.0755 29.8914 33.13 29.265C33.1981 28.6115 33.2662 28.2983 33.2798 28.2438C33.277 28.242 33.2662 28.2362 33.2483 28.2266C33.0063 28.0973 31.4623 27.2719 30.6383 25.9155C30.6383 25.9155 31.5914 24.5539 33.4704 23.6416C32.8577 21.9396 33.0483 20.1968 33.0483 20.1968C34.5921 20.1169 35.5694 20.3377 36.0629 20.5012C36.3267 20.5886 36.4523 20.6597 36.4523 20.6597C36.4523 20.6597 36.546 20.4293 36.7793 20.081C37.162 19.5093 37.9205 18.6199 39.2572 17.9093C40.5088 18.5789 41.2517 19.4072 41.6497 19.9789C41.6697 20.0076 41.6888 20.0357 41.7071 20.063C41.7093 20.0663 41.7115 20.0696 41.7136 20.0728C41.7491 20.1263 41.7814 20.177 41.8106 20.2246C41.9636 20.4746 42.0307 20.6383 42.0349 20.6577C42.0352 20.659 42.0352 20.6597 42.0349 20.6597V20.6733L42.0362 20.6727C42.0416 20.67 42.0504 20.6656 42.0626 20.6597C42.1372 20.624 42.3394 20.5342 42.6814 20.4438C43.217 20.3022 44.0955 20.1591 45.3633 20.2201C45.3883 20.2213 45.4136 20.2226 45.4389 20.224L45.4525 20.2104C45.4525 20.2104 45.4537 20.2207 45.4555 20.2405C45.4573 20.2605 45.4598 20.2901 45.4625 20.3286C45.4709 20.4466 45.4814 20.6478 45.4805 20.908ZM45.4448 20.1141C45.4478 20.1444 45.4504 20.1765 45.4525 20.2104C46.1293 20.1364 46.1293 20.1365 46.1293 20.1367L46.1295 20.1379L46.1297 20.14L46.1303 20.1463C46.1308 20.1513 46.1315 20.158 46.1323 20.1663C46.1339 20.1829 46.1359 20.206 46.1382 20.2351C46.1428 20.2934 46.1484 20.3761 46.1529 20.4796C46.1619 20.6863 46.1669 20.9776 46.1514 21.3249C46.1269 21.874 46.0506 22.5782 45.8504 23.3152C46.6109 23.7449 47.2014 24.2285 47.6184 24.6304C47.8731 24.8759 48.0662 25.0937 48.1965 25.255C48.2611 25.3348 48.3137 25.4051 48.3522 25.4613C48.3693 25.4863 48.393 25.522 48.4142 25.5606L48.4149 25.5618C48.4211 25.573 48.4524 25.6294 48.4746 25.7032C48.4816 25.7263 48.4931 25.7688 48.4993 25.8231C48.5019 25.8458 48.5059 25.8879 48.5025 25.9424V26.1036L48.406 26.265C47.9043 27.1037 47.1768 27.7427 46.5953 28.1662C46.3496 28.3451 46.1232 28.4904 45.9398 28.6004C45.9634 28.7637 45.9874 28.967 46.0078 29.2141C46.0792 29.8765 46.1198 30.8151 46.1061 32.0638L46.1 32.6119L45.5632 32.723L45.4253 32.0563C45.5632 32.723 45.5631 32.723 45.563 32.723L45.5612 32.7234L45.558 32.7241L45.5482 32.726C45.5402 32.7276 45.5291 32.7298 45.5152 32.7324C45.4873 32.7376 45.448 32.7447 45.3982 32.7531C45.2986 32.7697 45.157 32.7913 44.9821 32.8123C44.6333 32.854 44.1468 32.8941 43.5932 32.8868C42.3314 32.8746 40.5224 32.6474 39.23 31.497C37.9372 32.6477 36.1276 32.8747 34.8658 32.8869L34.8625 32.8869H34.8592C34.3101 32.8869 33.8274 32.8472 33.4814 32.8076C33.308 32.7877 33.1678 32.7677 33.0695 32.7524C33.0204 32.7448 32.9816 32.7383 32.9543 32.7335C32.9407 32.7312 32.9299 32.7292 32.9221 32.7278L32.9127 32.7261L32.9097 32.7255L32.9082 32.7253L32.908 32.7252C32.9079 32.7252 32.9078 32.7252 33.0347 32.0563L32.9078 32.7252L32.36 32.6213L32.3539 32.0637C32.34 30.7867 32.3956 29.8522 32.4518 29.2061L32.4523 29.2003L32.4529 29.1945C32.4775 28.9576 32.5025 28.761 32.5255 28.6017C31.9266 28.2387 30.7562 27.421 30.0564 26.269L29.8257 25.8891L30.0805 25.5251L30.6383 25.9155C30.0805 25.5251 30.0807 25.5249 30.0808 25.5247L30.0816 25.5235L30.0831 25.5214L30.0871 25.5158C30.0903 25.5113 30.0944 25.5056 30.0995 25.4987C30.1096 25.4848 30.1236 25.4659 30.1414 25.4425C30.177 25.3958 30.228 25.331 30.2944 25.2516C30.427 25.0931 30.6216 24.876 30.8781 24.6296C31.2985 24.2259 31.8898 23.7392 32.6512 23.3045C32.4504 22.5665 32.374 21.8611 32.3495 21.3113C32.334 20.964 32.3389 20.6727 32.3479 20.466C32.3525 20.3625 32.358 20.2798 32.3626 20.2215C32.3649 20.1924 32.367 20.1692 32.3685 20.1526C32.3693 20.1443 32.37 20.1377 32.3705 20.1327L32.3711 20.1264L32.3714 20.1243L32.3715 20.1231C32.3715 20.1229 32.3715 20.1227 33.0483 20.1968L32.3715 20.1227L32.4345 19.5468L33.0131 19.5169C34.2595 19.4524 35.1752 19.5732 35.7953 19.7197C35.9235 19.75 36.0388 19.7813 36.1417 19.8122C36.2397 19.6584 36.3629 19.4815 36.5148 19.2901C36.9971 18.6825 37.7684 17.9298 38.9376 17.3081L39.2582 17.1377L39.5784 17.309C40.7407 17.9309 41.5086 18.6839 41.9877 19.2922C42.1417 19.4877 42.2659 19.6685 42.3641 19.8254C42.9519 19.6537 43.9482 19.4689 45.4108 19.5408L45.4102 19.5309L46.0587 19.4905L46.1293 20.1364L45.4525 20.2104L45.4456 20.0995L45.4448 20.1141Z" fill="black"/>
<path fill-rule="evenodd" clip-rule="evenodd" d="M45.4805 20.908C45.4784 21.5722 45.4027 22.6213 45.0304 23.6552C45.9665 24.1029 46.6728 24.6655 47.1409 25.1157C47.2352 25.2064 47.3197 25.2925 47.3946 25.3721C47.6708 25.6662 47.8147 25.8729 47.8226 25.8991C47.8231 25.9007 47.8231 25.9016 47.8226 25.9019C47.8224 25.902 47.8221 25.902 47.8217 25.9019V25.9155C47.8183 25.9211 47.8149 25.9268 47.8115 25.9324C46.9458 27.3644 45.2685 28.1998 45.1823 28.2428L45.1802 28.2438L45.1814 28.2485C45.198 28.3145 45.2769 28.6285 45.33 29.2786C45.3981 29.905 45.4389 30.8173 45.4253 32.0563C45.4253 32.0563 44.6356 32.2197 43.6007 32.2061C42.3741 32.1943 40.8 31.9679 39.7016 31.0048C39.5321 30.8561 39.3738 30.6898 39.23 30.5041C39.0861 30.6898 38.9279 30.8561 38.7584 31.0048C37.66 31.9679 36.0859 32.1943 34.8592 32.2061C33.8244 32.2061 33.0347 32.0563 33.0347 32.0563C33.0211 30.8036 33.0755 29.8914 33.13 29.265C33.1981 28.6115 33.2662 28.2983 33.2798 28.2438C33.277 28.242 33.2662 28.2362 33.2483 28.2266C33.0063 28.0973 31.4623 27.2719 30.6383 25.9155C30.6383 25.9155 31.5914 24.5539 33.4704 23.6416C32.8577 21.9396 33.0483 20.1968 33.0483 20.1968C34.5921 20.1169 35.5694 20.3377 36.0629 20.5012C36.3267 20.5886 36.4523 20.6597 36.4523 20.6597C36.4523 20.6597 36.546 20.4293 36.7793 20.081C37.162 19.5093 37.9205 18.6199 39.2572 17.9093C40.5088 18.5789 41.2517 19.4072 41.6497 19.9789C41.6697 20.0076 41.6888 20.0357 41.7071 20.063C41.7093 20.0663 41.7115 20.0696 41.7136 20.0728C41.7491 20.1263 41.7814 20.177 41.8106 20.2246C41.9636 20.4746 42.0307 20.6383 42.0349 20.6577C42.0352 20.659 42.0352 20.6597 42.0349 20.6597V20.6733L42.0362 20.6727C42.0416 20.67 42.0504 20.6656 42.0626 20.6597C42.1372 20.624 42.3394 20.5342 42.6814 20.4438C43.217 20.3022 44.0955 20.1591 45.3633 20.2201C45.3883 20.2213 45.4136 20.2226 45.4389 20.224L45.4525 20.2104C45.4525 20.2104 45.4537 20.2207 45.4555 20.2405C45.4573 20.2605 45.4598 20.2901 45.4625 20.3286C45.4709 20.4466 45.4814 20.6478 45.4805 20.908ZM45.4448 20.1141C45.4478 20.1444 45.4504 20.1765 45.4525 20.2104C46.1293 20.1364 46.1293 20.1365 46.1293 20.1367L46.1295 20.1379L46.1297 20.14L46.1303 20.1463C46.1308 20.1513 46.1315 20.158 46.1323 20.1663C46.1339 20.1829 46.1359 20.206 46.1382 20.2351C46.1428 20.2934 46.1484 20.3761 46.1529 20.4796C46.1619 20.6863 46.1669 20.9776 46.1514 21.3249C46.1269 21.874 46.0506 22.5782 45.8504 23.3152C46.6109 23.7449 47.2014 24.2285 47.6184 24.6304C47.8731 24.8759 48.0662 25.0937 48.1965 25.255C48.2611 25.3348 48.3137 25.4051 48.3522 25.4613C48.3693 25.4863 48.393 25.522 48.4142 25.5606L48.4149 25.5618C48.4211 25.573 48.4524 25.6294 48.4746 25.7032C48.4816 25.7263 48.4931 25.7688 48.4993 25.8231C48.5019 25.8458 48.5059 25.8879 48.5025 25.9424V26.1036L48.406 26.265C47.9043 27.1037 47.1768 27.7427 46.5953 28.1662C46.3496 28.3451 46.1232 28.4904 45.9398 28.6004C45.9634 28.7637 45.9874 28.967 46.0078 29.2141C46.0792 29.8765 46.1198 30.8151 46.1061 32.0638L46.1 32.6119L45.5632 32.723L45.4253 32.0563C45.5632 32.723 45.5631 32.723 45.563 32.723L45.5612 32.7234L45.558 32.7241L45.5482 32.726C45.5402 32.7276 45.5291 32.7298 45.5152 32.7324C45.4873 32.7376 45.448 32.7447 45.3982 32.7531C45.2986 32.7697 45.157 32.7913 44.9821 32.8123C44.6333 32.854 44.1468 32.8941 43.5932 32.8868C42.3314 32.8746 40.5224 32.6474 39.23 31.497C37.9372 32.6477 36.1276 32.8747 34.8658 32.8869L34.8625 32.8869H34.8592C34.3101 32.8869 33.8274 32.8472 33.4814 32.8076C33.308 32.7877 33.1678 32.7677 33.0695 32.7524C33.0204 32.7448 32.9816 32.7383 32.9543 32.7335C32.9407 32.7312 32.9299 32.7292 32.9221 32.7278L32.9127 32.7261L32.9097 32.7255L32.9082 32.7253L32.908 32.7252C32.9079 32.7252 32.9078 32.7252 33.0347 32.0563L32.9078 32.7252L32.36 32.6213L32.3539 32.0637C32.34 30.7867 32.3956 29.8522 32.4518 29.2061L32.4523 29.2003L32.4529 29.1945C32.4775 28.9576 32.5025 28.761 32.5255 28.6017C31.9266 28.2387 30.7562 27.421 30.0564 26.269L29.8257 25.8891L30.0805 25.5251L30.6383 25.9155C30.0805 25.5251 30.0807 25.5249 30.0808 25.5247L30.0816 25.5235L30.0831 25.5214L30.0871 25.5158C30.0903 25.5113 30.0944 25.5056 30.0995 25.4987C30.1096 25.4848 30.1236 25.4659 30.1414 25.4425C30.177 25.3958 30.228 25.331 30.2944 25.2516C30.427 25.0931 30.6216 24.876 30.8781 24.6296C31.2985 24.2259 31.8898 23.7392 32.6512 23.3045C32.4504 22.5665 32.374 21.8611 32.3495 21.3113C32.334 20.964 32.3389 20.6727 32.3479 20.466C32.3525 20.3625 32.358 20.2798 32.3626 20.2215C32.3649 20.1924 32.367 20.1692 32.3685 20.1526C32.3693 20.1443 32.37 20.1377 32.3705 20.1327L32.3711 20.1264L32.3714 20.1243L32.3715 20.1231C32.3715 20.1229 32.3715 20.1227 33.0483 20.1968L32.3715 20.1227L32.4345 19.5468L33.0131 19.5169C34.2595 19.4524 35.1752 19.5732 35.7953 19.7197C35.9235 19.75 36.0388 19.7813 36.1417 19.8122C36.2397 19.6584 36.3629 19.4815 36.5148 19.2901C36.9971 18.6825 37.7684 17.9298 38.9376 17.3081L39.2582 17.1377L39.5784 17.309C40.7407 17.9309 41.5086 18.6839 41.9877 19.2922C42.1417 19.4877 42.2659 19.6685 42.3641 19.8254C42.9519 19.6537 43.9482 19.4689 45.4108 19.5408L45.4102 19.5309L46.0587 19.4905L46.1293 20.1364L45.4525 20.2104L45.4456 20.0995L45.4448 20.1141Z" fill="url(#paint24_angular_2005_62121)"/>
<path d="M39.2511 17.9102V27.3959V27.3855C39.1992 27.1569 38.3472 23.3439 36.4563 20.6634C36.4563 20.6634 37.1108 19.053 39.2511 17.9102Z" fill="url(#paint25_linear_2005_62121)"/>
<path d="M39.2512 27.3955C37.4746 23.7799 33.0486 20.2058 33.0486 20.2058C35.4278 20.0708 36.4564 20.663 36.4564 20.663C38.3473 23.3435 39.1993 27.1565 39.2512 27.3955Z" fill="url(#paint26_linear_2005_62121)"/>
<path d="M39.2512 27.3955C36.446 24.8084 33.4746 23.6552 33.4746 23.6552C32.8616 21.9513 33.0486 20.2058 33.0486 20.2058C33.0486 20.2058 37.4746 23.7799 39.2512 27.3955Z" fill="url(#paint27_linear_2005_62121)"/>
<path d="M39.2513 27.396C39.2513 27.396 35.0435 27.6246 33.2876 28.2479C33.2876 28.2479 33.0071 29.4324 33.0486 32.061C33.0486 32.061 33.8383 32.2168 34.8772 32.2064C36.2902 32.196 38.1708 31.8947 39.2513 30.5025V27.396Z" fill="url(#paint28_linear_2005_62121)"/>
<path d="M39.2512 27.396L33.0485 32.0506C33.0278 29.2246 33.2875 28.2376 33.2875 28.2376C35.0434 27.6246 39.2512 27.396 39.2512 27.396Z" fill="url(#paint29_linear_2005_62121)"/>
<path d="M39.2512 27.3963C36.446 24.8093 33.4746 23.656 33.4746 23.656C31.594 24.5495 30.6382 25.921 30.6382 25.921C30.6382 25.921 35.5837 25.308 39.2512 27.3963Z" fill="url(#paint30_linear_2005_62121)"/>
<path d="M33.2876 28.2478C35.0434 27.6244 39.2512 27.3959 39.2512 27.3959C35.5837 25.3076 30.6382 25.9205 30.6382 25.9205C31.5317 27.3959 33.2876 28.2478 33.2876 28.2478Z" fill="url(#paint31_linear_2005_62121)"/>
<path d="M39.2512 17.9102V27.3959V27.3855C39.3032 27.1466 40.1551 23.3439 42.046 20.653C42.046 20.6634 41.3915 19.053 39.2512 17.9102Z" fill="url(#paint32_linear_2005_62121)"/>
<path d="M39.2512 27.3954C41.0279 23.7798 45.4539 20.2161 45.4539 20.2161C43.0746 20.0811 42.0357 20.6629 42.0357 20.6629C40.1551 23.3434 39.3032 27.1564 39.2512 27.3954Z" fill="url(#paint33_linear_2005_62121)"/>
<path d="M39.2512 27.3955C42.0564 24.8084 45.0279 23.6552 45.0279 23.6552C45.6409 21.9513 45.4539 20.2058 45.4539 20.2058C45.4539 20.2058 41.0279 23.7799 39.2512 27.3955Z" fill="url(#paint34_linear_2005_62121)"/>
<path d="M39.2512 27.396C39.2512 27.396 43.459 27.6246 45.2149 28.2479C45.2149 28.2479 45.4954 29.4324 45.4539 32.061C45.4539 32.061 44.6642 32.2168 43.6253 32.2064C42.2123 32.196 40.3317 31.8947 39.2512 30.5025V27.396Z" fill="url(#paint35_linear_2005_62121)"/>
<path d="M39.2512 27.396L45.4539 32.0506C45.4746 29.2246 45.2149 28.2376 45.2149 28.2376C43.459 27.6246 39.2512 27.396 39.2512 27.396Z" fill="url(#paint36_linear_2005_62121)"/>
<path d="M39.2512 27.3963C42.0564 24.8093 45.0279 23.656 45.0279 23.656C46.9084 24.5495 47.8643 25.9106 47.8643 25.9106C47.8643 25.9106 42.9084 25.308 39.2512 27.3963Z" fill="url(#paint37_linear_2005_62121)"/>
<path d="M45.2149 28.2478C43.459 27.6244 39.2512 27.3959 39.2512 27.3959C42.9084 25.3076 47.8643 25.9205 47.8643 25.9205C46.9708 27.3959 45.2149 28.2478 45.2149 28.2478Z" fill="url(#paint38_linear_2005_62121)"/>
</g>
<rect x="3.25" y="49.05" width="49.5002" height="2.7" rx="0.450001" fill="#191919"/>
<path d="M3.25 50.1751C3.25 49.5537 3.75368 49.05 4.375 49.05H28.0001V51.75H4.375C3.75368 51.75 3.25 51.2464 3.25 50.625V50.1751Z" fill="url(#paint39_radial_2005_62121)"/>
<g filter="url(#filter3_dd_2005_62121)">
<rect x="3.3625" y="49.1625" width="49.2752" height="2.475" rx="0.337501" stroke="url(#paint40_linear_2005_62121)" stroke-width="0.225001"/>
</g>
<g filter="url(#filter4_dd_2005_62121)">
<path d="M28 49.05V51.75" stroke="url(#paint41_linear_2005_62121)" stroke-width="0.225001"/>
</g>
<defs>
<filter id="filter0_i_2005_62121" x="1" y="0" width="54.0002" height="54.9" filterUnits="userSpaceOnUse" color-interpolation-filters="sRGB">
<feFlood flood-opacity="0" result="BackgroundImageFix"/>
<feBlend mode="normal" in="SourceGraphic" in2="BackgroundImageFix" result="shape"/>
<feColorMatrix in="SourceAlpha" type="matrix" values="0 0 0 0 0 0 0 0 0 0 0 0 0 0 0 0 0 0 127 0" result="hardAlpha"/>
<feOffset dy="0.900002"/>
<feGaussianBlur stdDeviation="0.450001"/>
<feComposite in2="hardAlpha" operator="arithmetic" k2="-1" k3="1"/>
<feColorMatrix type="matrix" values="0 0 0 0 0 0 0 0 0 0 0 0 0 0 0 0 0 0 0.25 0"/>
<feBlend mode="normal" in2="shape" result="effect1_innerShadow_2005_62121"/>
</filter>
<filter id="filter1_d_2005_62121" x="0.517667" y="10.3297" width="32.2943" height="29.366" filterUnits="userSpaceOnUse" color-interpolation-filters="sRGB">
<feFlood flood-opacity="0" result="BackgroundImageFix"/>
<feColorMatrix in="SourceAlpha" type="matrix" values="0 0 0 0 0 0 0 0 0 0 0 0 0 0 0 0 0 0 127 0" result="hardAlpha"/>
<feOffset/>
<feGaussianBlur stdDeviation="3.40401"/>
<feColorMatrix type="matrix" values="0 0 0 0 0 0 0 0 0 0 0 0 0 0 0 0 0 0 0.8 0"/>
<feBlend mode="normal" in2="BackgroundImageFix" result="effect1_dropShadow_2005_62121"/>
<feBlend mode="normal" in="SourceGraphic" in2="effect1_dropShadow_2005_62121" result="shape"/>
</filter>
<filter id="filter2_d_2005_62121" x="23.0177" y="10.3297" width="32.2943" height="29.366" filterUnits="userSpaceOnUse" color-interpolation-filters="sRGB">
<feFlood flood-opacity="0" result="BackgroundImageFix"/>
<feColorMatrix in="SourceAlpha" type="matrix" values="0 0 0 0 0 0 0 0 0 0 0 0 0 0 0 0 0 0 127 0" result="hardAlpha"/>
<feOffset/>
<feGaussianBlur stdDeviation="3.40401"/>
<feColorMatrix type="matrix" values="0 0 0 0 0 0 0 0 0 0 0 0 0 0 0 0 0 0 0.8 0"/>
<feBlend mode="normal" in2="BackgroundImageFix" result="effect1_dropShadow_2005_62121"/>
<feBlend mode="normal" in="SourceGraphic" in2="effect1_dropShadow_2005_62121" result="shape"/>
</filter>
<filter id="filter3_dd_2005_62121" x="2.35" y="48.15" width="51.3002" height="4.49996" filterUnits="userSpaceOnUse" color-interpolation-filters="sRGB">
<feFlood flood-opacity="0" result="BackgroundImageFix"/>
<feColorMatrix in="SourceAlpha" type="matrix" values="0 0 0 0 0 0 0 0 0 0 0 0 0 0 0 0 0 0 127 0" result="hardAlpha"/>
<feOffset/>
<feGaussianBlur stdDeviation="0.450001"/>
<feColorMatrix type="matrix" values="0 0 0 0 0 0 0 0 0 0 0 0 0 0 0 0 0 0 1 0"/>
<feBlend mode="normal" in2="BackgroundImageFix" result="effect1_dropShadow_2005_62121"/>
<feColorMatrix in="SourceAlpha" type="matrix" values="0 0 0 0 0 0 0 0 0 0 0 0 0 0 0 0 0 0 127 0" result="hardAlpha"/>
<feOffset/>
<feGaussianBlur stdDeviation="0.225001"/>
<feColorMatrix type="matrix" values="0 0 0 0 0 0 0 0 0 0 0 0 0 0 0 0 0 0 1 0"/>
<feBlend mode="normal" in2="effect1_dropShadow_2005_62121" result="effect2_dropShadow_2005_62121"/>
<feBlend mode="normal" in="SourceGraphic" in2="effect2_dropShadow_2005_62121" result="shape"/>
</filter>
<filter id="filter4_dd_2005_62121" x="26.9874" y="48.15" width="2.0251" height="4.49996" filterUnits="userSpaceOnUse" color-interpolation-filters="sRGB">
<feFlood flood-opacity="0" result="BackgroundImageFix"/>
<feColorMatrix in="SourceAlpha" type="matrix" values="0 0 0 0 0 0 0 0 0 0 0 0 0 0 0 0 0 0 127 0" result="hardAlpha"/>
<feOffset/>
<feGaussianBlur stdDeviation="0.450001"/>
<feColorMatrix type="matrix" values="0 0 0 0 0 0 0 0 0 0 0 0 0 0 0 0 0 0 1 0"/>
<feBlend mode="normal" in2="BackgroundImageFix" result="effect1_dropShadow_2005_62121"/>
<feColorMatrix in="SourceAlpha" type="matrix" values="0 0 0 0 0 0 0 0 0 0 0 0 0 0 0 0 0 0 127 0" result="hardAlpha"/>
<feOffset/>
<feGaussianBlur stdDeviation="0.225001"/>
<feColorMatrix type="matrix" values="0 0 0 0 0 0 0 0 0 0 0 0 0 0 0 0 0 0 1 0"/>
<feBlend mode="normal" in2="effect1_dropShadow_2005_62121" result="effect2_dropShadow_2005_62121"/>
<feBlend mode="normal" in="SourceGraphic" in2="effect2_dropShadow_2005_62121" result="shape"/>
</filter>
<linearGradient id="paint0_linear_2005_62121" x1="28.0001" y1="0" x2="28.0001" y2="54" gradientUnits="userSpaceOnUse">
<stop stop-color="#101010"/>
<stop offset="1" stop-color="#131313"/>
</linearGradient>
<linearGradient id="paint1_linear_2005_62121" x1="55.0003" y1="-1.83743e-06" x2="1.00026" y2="54.0003" gradientUnits="userSpaceOnUse">
<stop stop-color="#EDDE79"/>
<stop offset="0.685495" stop-color="#D69A2D"/>
<stop offset="1" stop-color="#F9F093"/>
</linearGradient>
<linearGradient id="paint2_linear_2005_62121" x1="204.941" y1="-15.0134" x2="163.74" y2="110.512" gradientUnits="userSpaceOnUse">
<stop stop-color="white"/>
<stop offset="0.3172" stop-color="#EDDE79"/>
<stop offset="0.6237" stop-color="#D69A2D"/>
<stop offset="0.8978" stop-color="#F9F093"/>
</linearGradient>
<linearGradient id="paint3_linear_2005_62121" x1="-2.15002" y1="-2.8125" x2="45.3038" y2="-10.0019" gradientUnits="userSpaceOnUse">
<stop stop-color="white"/>
<stop offset="0.3172" stop-color="#EDDE79"/>
<stop offset="0.6237" stop-color="#D69A2D"/>
<stop offset="0.8978" stop-color="#F9F093"/>
</linearGradient>
<linearGradient id="paint4_linear_2005_62121" x1="15.5127" y1="1.125" x2="15.5127" y2="52.875" gradientUnits="userSpaceOnUse">
<stop stop-color="#F4E181"/>
<stop offset="1" stop-color="#F4E181" stop-opacity="0"/>
</linearGradient>
<linearGradient id="paint5_linear_2005_62121" x1="27.8877" y1="1.125" x2="27.8877" y2="52.875" gradientUnits="userSpaceOnUse">
<stop stop-color="#F4E181"/>
<stop offset="1" stop-color="#F4E181" stop-opacity="0"/>
</linearGradient>
<linearGradient id="paint6_linear_2005_62121" x1="40.2627" y1="1.125" x2="40.2627" y2="52.875" gradientUnits="userSpaceOnUse">
<stop stop-color="#F4E181"/>
<stop offset="1" stop-color="#F4E181" stop-opacity="0"/>
</linearGradient>
<linearGradient id="paint7_linear_2005_62121" x1="21.3855" y1="-2.35301" x2="10.2734" y2="65.4403" gradientUnits="userSpaceOnUse">
<stop stop-color="white"/>
<stop offset="0.3172" stop-color="#EDDE79"/>
<stop offset="0.6237" stop-color="#D69A2D"/>
<stop offset="0.8978" stop-color="#F9F093"/>
</linearGradient>
<radialGradient id="paint8_angular_2005_62121" cx="0" cy="0" r="1" gradientUnits="userSpaceOnUse" gradientTransform="translate(16.7306 25.7283) rotate(-44.8884) scale(7.25302 7.25297)">
<stop offset="0.10135" stop-color="#EDDE79"/>
<stop offset="0.371555" stop-color="white"/>
<stop offset="0.619704" stop-color="#D69A2D"/>
<stop offset="0.879496" stop-color="#F9F093"/>
</radialGradient>
<linearGradient id="paint9_linear_2005_62121" x1="23.1512" y1="34.5846" x2="11.1854" y2="20.8561" gradientUnits="userSpaceOnUse">
<stop stop-color="white"/>
<stop offset="0.3172" stop-color="#EDDE79"/>
<stop offset="0.6237" stop-color="#D69A2D"/>
<stop offset="0.8978" stop-color="#F9F093"/>
</linearGradient>
<linearGradient id="paint10_linear_2005_62121" x1="6.21606" y1="11.4671" x2="20.7479" y2="14.5817" gradientUnits="userSpaceOnUse">
<stop stop-color="white"/>
<stop offset="0.3172" stop-color="#EDDE79"/>
<stop offset="0.6237" stop-color="#D69A2D"/>
<stop offset="0.8978" stop-color="#F9F093"/>
</linearGradient>
<linearGradient id="paint11_linear_2005_62121" x1="14.3649" y1="20.9701" x2="9.67515" y2="29.1219" gradientUnits="userSpaceOnUse">
<stop stop-color="white"/>
<stop offset="0.3172" stop-color="#EDDE79"/>
<stop offset="0.6237" stop-color="#D69A2D"/>
<stop offset="0.8978" stop-color="#F9F093"/>
</linearGradient>
<linearGradient id="paint12_linear_2005_62121" x1="26.2101" y1="17.2963" x2="29.6178" y2="26.8778" gradientUnits="userSpaceOnUse">
<stop stop-color="white"/>
<stop offset="0.3172" stop-color="#EDDE79"/>
<stop offset="0.6237" stop-color="#D69A2D"/>
<stop offset="0.8978" stop-color="#F9F093"/>
</linearGradient>
<linearGradient id="paint13_linear_2005_62121" x1="18.2949" y1="36.4494" x2="9.44864" y2="27.1642" gradientUnits="userSpaceOnUse">
<stop stop-color="white"/>
<stop offset="0.3172" stop-color="#EDDE79"/>
<stop offset="0.6237" stop-color="#D69A2D"/>
<stop offset="0.8978" stop-color="#F9F093"/>
</linearGradient>
<linearGradient id="paint14_linear_2005_62121" x1="18.2958" y1="31.7209" x2="15.8744" y2="17.6681" gradientUnits="userSpaceOnUse">
<stop stop-color="white"/>
<stop offset="0.3172" stop-color="#EDDE79"/>
<stop offset="0.6237" stop-color="#D69A2D"/>
<stop offset="0.8978" stop-color="#F9F093"/>
</linearGradient>
<linearGradient id="paint15_linear_2005_62121" x1="18.2958" y1="31.0353" x2="16.4585" y2="19.8261" gradientUnits="userSpaceOnUse">
<stop stop-color="white"/>
<stop offset="0.3172" stop-color="#EDDE79"/>
<stop offset="0.6237" stop-color="#D69A2D"/>
<stop offset="0.8978" stop-color="#F9F093"/>
</linearGradient>
<linearGradient id="paint16_linear_2005_62121" x1="12.1048" y1="27.3804" x2="24.1253" y2="16.5402" gradientUnits="userSpaceOnUse">
<stop stop-color="white"/>
<stop offset="0.3172" stop-color="#EDDE79"/>
<stop offset="0.6237" stop-color="#D69A2D"/>
<stop offset="0.8978" stop-color="#F9F093"/>
</linearGradient>
<linearGradient id="paint17_linear_2005_62121" x1="17.1469" y1="19.5933" x2="22.8679" y2="24.5302" gradientUnits="userSpaceOnUse">
<stop stop-color="white"/>
<stop offset="0.3172" stop-color="#EDDE79"/>
<stop offset="0.6237" stop-color="#D69A2D"/>
<stop offset="0.8978" stop-color="#F9F093"/>
</linearGradient>
<linearGradient id="paint18_linear_2005_62121" x1="24.4229" y1="19.2104" x2="19.8048" y2="32.6869" gradientUnits="userSpaceOnUse">
<stop stop-color="white"/>
<stop offset="0.3172" stop-color="#EDDE79"/>
<stop offset="0.6237" stop-color="#D69A2D"/>
<stop offset="0.8978" stop-color="#F9F093"/>
</linearGradient>
<linearGradient id="paint19_linear_2005_62121" x1="24.5025" y1="36.7535" x2="15.3496" y2="27.4541" gradientUnits="userSpaceOnUse">
<stop stop-color="white"/>
<stop offset="0.3172" stop-color="#EDDE79"/>
<stop offset="0.6237" stop-color="#D69A2D"/>
<stop offset="0.8978" stop-color="#F9F093"/>
</linearGradient>
<linearGradient id="paint20_linear_2005_62121" x1="29.3374" y1="23.0404" x2="17.8951" y2="29.4119" gradientUnits="userSpaceOnUse">
<stop stop-color="white"/>
<stop offset="0.3172" stop-color="#EDDE79"/>
<stop offset="0.6237" stop-color="#D69A2D"/>
<stop offset="0.8978" stop-color="#F9F093"/>
</linearGradient>
<linearGradient id="paint21_linear_2005_62121" x1="26.9089" y1="31.7209" x2="24.4874" y2="17.6681" gradientUnits="userSpaceOnUse">
<stop stop-color="white"/>
<stop offset="0.3172" stop-color="#EDDE79"/>
<stop offset="0.6237" stop-color="#D69A2D"/>
<stop offset="0.8978" stop-color="#F9F093"/>
</linearGradient>
<linearGradient id="paint22_linear_2005_62121" x1="26.9089" y1="31.0353" x2="25.0716" y2="19.8261" gradientUnits="userSpaceOnUse">
<stop stop-color="white"/>
<stop offset="0.3172" stop-color="#EDDE79"/>
<stop offset="0.6237" stop-color="#D69A2D"/>
<stop offset="0.8978" stop-color="#F9F093"/>
</linearGradient>
<linearGradient id="paint23_linear_2005_62121" x1="43.8855" y1="-2.35301" x2="32.7734" y2="65.4403" gradientUnits="userSpaceOnUse">
<stop stop-color="white"/>
<stop offset="0.3172" stop-color="#EDDE79"/>
<stop offset="0.6237" stop-color="#D69A2D"/>
<stop offset="0.8978" stop-color="#F9F093"/>
</linearGradient>
<radialGradient id="paint24_angular_2005_62121" cx="0" cy="0" r="1" gradientUnits="userSpaceOnUse" gradientTransform="translate(39.2306 25.7283) rotate(-44.8884) scale(7.25302 7.25297)">
<stop offset="0.10135" stop-color="#EDDE79"/>
<stop offset="0.371555" stop-color="white"/>
<stop offset="0.619704" stop-color="#D69A2D"/>
<stop offset="0.879496" stop-color="#F9F093"/>
</radialGradient>
<linearGradient id="paint25_linear_2005_62121" x1="45.6512" y1="34.5856" x2="33.6854" y2="20.8571" gradientUnits="userSpaceOnUse">
<stop stop-color="white"/>
<stop offset="0.3172" stop-color="#EDDE79"/>
<stop offset="0.6237" stop-color="#D69A2D"/>
<stop offset="0.8978" stop-color="#F9F093"/>
</linearGradient>
<linearGradient id="paint26_linear_2005_62121" x1="28.7161" y1="11.4681" x2="43.2479" y2="14.5827" gradientUnits="userSpaceOnUse">
<stop stop-color="white"/>
<stop offset="0.3172" stop-color="#EDDE79"/>
<stop offset="0.6237" stop-color="#D69A2D"/>
<stop offset="0.8978" stop-color="#F9F093"/>
</linearGradient>
<linearGradient id="paint27_linear_2005_62121" x1="36.8649" y1="20.9711" x2="32.1751" y2="29.1228" gradientUnits="userSpaceOnUse">
<stop stop-color="white"/>
<stop offset="0.3172" stop-color="#EDDE79"/>
<stop offset="0.6237" stop-color="#D69A2D"/>
<stop offset="0.8978" stop-color="#F9F093"/>
</linearGradient>
<linearGradient id="paint28_linear_2005_62121" x1="48.7101" y1="17.2972" x2="52.1178" y2="26.8788" gradientUnits="userSpaceOnUse">
<stop stop-color="white"/>
<stop offset="0.3172" stop-color="#EDDE79"/>
<stop offset="0.6237" stop-color="#D69A2D"/>
<stop offset="0.8978" stop-color="#F9F093"/>
</linearGradient>
<linearGradient id="paint29_linear_2005_62121" x1="40.7949" y1="36.4504" x2="31.9486" y2="27.1652" gradientUnits="userSpaceOnUse">
<stop stop-color="white"/>
<stop offset="0.3172" stop-color="#EDDE79"/>
<stop offset="0.6237" stop-color="#D69A2D"/>
<stop offset="0.8978" stop-color="#F9F093"/>
</linearGradient>
<linearGradient id="paint30_linear_2005_62121" x1="40.7958" y1="31.7219" x2="38.3744" y2="17.669" gradientUnits="userSpaceOnUse">
<stop stop-color="white"/>
<stop offset="0.3172" stop-color="#EDDE79"/>
<stop offset="0.6237" stop-color="#D69A2D"/>
<stop offset="0.8978" stop-color="#F9F093"/>
</linearGradient>
<linearGradient id="paint31_linear_2005_62121" x1="40.7958" y1="31.0363" x2="38.9585" y2="19.827" gradientUnits="userSpaceOnUse">
<stop stop-color="white"/>
<stop offset="0.3172" stop-color="#EDDE79"/>
<stop offset="0.6237" stop-color="#D69A2D"/>
<stop offset="0.8978" stop-color="#F9F093"/>
</linearGradient>
<linearGradient id="paint32_linear_2005_62121" x1="34.6048" y1="27.3814" x2="46.6253" y2="16.5411" gradientUnits="userSpaceOnUse">
<stop stop-color="white"/>
<stop offset="0.3172" stop-color="#EDDE79"/>
<stop offset="0.6237" stop-color="#D69A2D"/>
<stop offset="0.8978" stop-color="#F9F093"/>
</linearGradient>
<linearGradient id="paint33_linear_2005_62121" x1="39.6469" y1="19.5943" x2="45.3679" y2="24.5311" gradientUnits="userSpaceOnUse">
<stop stop-color="white"/>
<stop offset="0.3172" stop-color="#EDDE79"/>
<stop offset="0.6237" stop-color="#D69A2D"/>
<stop offset="0.8978" stop-color="#F9F093"/>
</linearGradient>
<linearGradient id="paint34_linear_2005_62121" x1="46.9229" y1="19.2114" x2="42.3048" y2="32.6879" gradientUnits="userSpaceOnUse">
<stop stop-color="white"/>
<stop offset="0.3172" stop-color="#EDDE79"/>
<stop offset="0.6237" stop-color="#D69A2D"/>
<stop offset="0.8978" stop-color="#F9F093"/>
</linearGradient>
<linearGradient id="paint35_linear_2005_62121" x1="47.0025" y1="36.7545" x2="37.8496" y2="27.4551" gradientUnits="userSpaceOnUse">
<stop stop-color="white"/>
<stop offset="0.3172" stop-color="#EDDE79"/>
<stop offset="0.6237" stop-color="#D69A2D"/>
<stop offset="0.8978" stop-color="#F9F093"/>
</linearGradient>
<linearGradient id="paint36_linear_2005_62121" x1="51.8374" y1="23.0414" x2="40.3951" y2="29.4128" gradientUnits="userSpaceOnUse">
<stop stop-color="white"/>
<stop offset="0.3172" stop-color="#EDDE79"/>
<stop offset="0.6237" stop-color="#D69A2D"/>
<stop offset="0.8978" stop-color="#F9F093"/>
</linearGradient>
<linearGradient id="paint37_linear_2005_62121" x1="49.4089" y1="31.7219" x2="46.9874" y2="17.669" gradientUnits="userSpaceOnUse">
<stop stop-color="white"/>
<stop offset="0.3172" stop-color="#EDDE79"/>
<stop offset="0.6237" stop-color="#D69A2D"/>
<stop offset="0.8978" stop-color="#F9F093"/>
</linearGradient>
<linearGradient id="paint38_linear_2005_62121" x1="49.4089" y1="31.0363" x2="47.5716" y2="19.827" gradientUnits="userSpaceOnUse">
<stop stop-color="white"/>
<stop offset="0.3172" stop-color="#EDDE79"/>
<stop offset="0.6237" stop-color="#D69A2D"/>
<stop offset="0.8978" stop-color="#F9F093"/>
</linearGradient>
<radialGradient id="paint39_radial_2005_62121" cx="0" cy="0" r="1" gradientUnits="userSpaceOnUse" gradientTransform="translate(16.5251 51.75) rotate(180) scale(13.2751 13.275)">
<stop stop-color="#FAF5D5"/>
<stop offset="0.246668" stop-color="#EFE182"/>
<stop offset="0.505747" stop-color="#EACB67"/>
<stop offset="0.745868" stop-color="#E2B850"/>
<stop offset="1" stop-color="#DDAB41"/>
</radialGradient>
<linearGradient id="paint40_linear_2005_62121" x1="28.0001" y1="49.05" x2="28.0001" y2="51.75" gradientUnits="userSpaceOnUse">
<stop stop-color="#E5E5E5"/>
<stop offset="1" stop-color="#444B53"/>
</linearGradient>
<linearGradient id="paint41_linear_2005_62121" x1="28.5" y1="49.05" x2="28.5" y2="51.75" gradientUnits="userSpaceOnUse">
<stop stop-color="#E5E5E5"/>
<stop offset="1" stop-color="#444B53"/>
</linearGradient>
</defs>
</svg>
