<svg width="54" height="54" viewBox="0 0 54 54" fill="none" xmlns="http://www.w3.org/2000/svg">
<g clip-path="url(#clip0_2201_104553)">
<rect width="53.9995" height="54" fill="black" fill-opacity="0.01"/>
<rect x="0.562497" y="0.562497" width="52.8745" height="52.875" fill="url(#paint0_linear_2201_104553)"/>
<rect x="0.562497" y="0.562497" width="52.8745" height="52.875" fill="url(#paint1_linear_2201_104553)" fill-opacity="0.8"/>
<rect x="0.562497" y="0.562497" width="52.8745" height="52.875" stroke="url(#paint2_linear_2201_104553)" stroke-width="1.12499"/>
<g filter="url(#filter0_i_2201_104553)">
<rect x="0.112499" y="0.112499" width="53.7745" height="53.775" stroke="url(#paint3_linear_2201_104553)" stroke-width="0.224999"/>
</g>
<g style="mix-blend-mode:plus-lighter">
<rect x="11.0249" y="1.12451" width="6.97494" height="51.75" fill="url(#paint4_linear_2201_104553)" fill-opacity="0.2"/>
<rect x="23.3999" y="1.12451" width="6.97494" height="51.75" fill="url(#paint5_linear_2201_104553)" fill-opacity="0.2"/>
<rect x="35.7747" y="1.12451" width="6.97494" height="51.75" fill="url(#paint6_linear_2201_104553)" fill-opacity="0.2"/>
</g>
<g filter="url(#filter1_d_2201_104553)">
<path d="M21.5301 15.1044C22.1429 13.4024 21.9522 11.6595 21.9522 11.6595C21.9522 11.6595 21.9522 11.6595 21.9386 11.6731C19.6648 11.5506 18.6164 12.0816 18.5347 12.1224C18.5347 12.1224 18.5347 12.1225 18.5347 12.1088C18.5483 12.1088 17.8947 10.5021 15.757 9.3584C13.6057 10.5021 12.9522 12.1088 12.9522 12.1088C12.9522 12.1088 11.9173 11.5233 9.54819 11.6459C9.54819 11.6459 9.35757 13.3887 9.97028 15.0907C8.09129 16.003 7.13818 17.3646 7.13818 17.3646C8.02321 18.8215 9.73881 19.6657 9.77966 19.693C9.76604 19.7474 9.69796 20.0606 9.62989 20.7142C9.57542 21.3405 9.52096 22.2528 9.53457 23.5054C9.53457 23.5054 10.3243 23.6552 11.3591 23.6552C12.7751 23.6416 14.6541 23.342 15.7298 21.9532C16.8054 23.342 18.6844 23.6416 20.1005 23.6552C21.1353 23.6688 21.925 23.5054 21.925 23.5054C21.9386 22.2664 21.8978 21.3541 21.8297 20.7278C21.7752 20.0606 21.6935 19.7474 21.6799 19.693C21.7344 19.6657 23.45 18.8215 24.3214 17.3646V17.351C24.3622 17.3646 23.4091 16.003 21.5301 15.1044Z" fill="url(#paint7_linear_2201_104553)"/>
<path fill-rule="evenodd" clip-rule="evenodd" d="M21.9803 12.3572C21.9782 13.0215 21.9024 14.0705 21.5302 15.1044C22.4663 15.5521 23.1726 16.1147 23.6407 16.565C23.7349 16.6556 23.8195 16.7417 23.8944 16.8214C24.1706 17.1154 24.3144 17.3221 24.3224 17.3484C24.3228 17.3499 24.3228 17.3508 24.3224 17.3511C24.3222 17.3512 24.3219 17.3512 24.3215 17.3511V17.3647C24.3181 17.3704 24.3147 17.376 24.3113 17.3816C23.4455 18.8137 21.7683 19.6491 21.6821 19.692L21.68 19.693L21.6812 19.6977C21.6978 19.7637 21.7767 20.0777 21.8298 20.7279C21.8978 21.3542 21.9387 22.2665 21.9251 23.5055C21.9251 23.5055 21.1354 23.6689 20.1006 23.6553C18.8739 23.6435 17.2998 23.4171 16.2015 22.454C16.0319 22.3053 15.8737 22.139 15.7299 21.9533C15.586 22.139 15.4278 22.3053 15.2582 22.454C14.1599 23.4171 12.5858 23.6435 11.3592 23.6553C10.3244 23.6553 9.53465 23.5055 9.53465 23.5055C9.52103 22.2529 9.57549 21.3406 9.62996 20.7142C9.69804 20.0607 9.76611 19.7475 9.77973 19.693C9.77691 19.6912 9.76613 19.6854 9.74821 19.6758C9.50623 19.5465 7.96226 18.7212 7.13825 17.3647C7.13825 17.3647 8.09136 16.0031 9.97035 15.0908C9.35764 13.3888 9.54826 11.646 9.54826 11.646C11.0921 11.5661 12.0693 11.7869 12.5628 11.9504C12.8266 12.0379 12.9522 12.1089 12.9522 12.1089C12.9522 12.1089 13.0459 11.8786 13.2792 11.5302C13.6619 10.9585 14.4204 10.0691 15.7571 9.35849C17.0087 10.0281 17.7515 10.8565 18.1496 11.4281C18.1695 11.4568 18.1887 11.4849 18.2069 11.5122C18.2091 11.5155 18.2113 11.5188 18.2134 11.522C18.249 11.5755 18.2812 11.6262 18.3104 11.6739C18.4634 11.9238 18.5306 12.0875 18.5347 12.107C18.535 12.1083 18.535 12.1089 18.5347 12.1089V12.1225L18.536 12.1219C18.5414 12.1192 18.5502 12.1148 18.5625 12.1089C18.637 12.0732 18.8392 11.9834 19.1812 11.893C19.7168 11.7514 20.5953 11.6083 21.8631 11.6694C21.8881 11.6706 21.9133 11.6718 21.9387 11.6732L21.9523 11.6596C21.9523 11.6596 21.9534 11.6699 21.9552 11.6898C21.9571 11.7097 21.9596 11.7394 21.9623 11.7778C21.9707 11.8958 21.9811 12.097 21.9803 12.3572ZM21.9446 11.5633C21.9476 11.5936 21.9502 11.6257 21.9523 11.6596C22.6291 11.5856 22.6291 11.5857 22.6291 11.5859L22.6292 11.5871L22.6295 11.5893L22.6301 11.5955C22.6306 11.6005 22.6313 11.6072 22.6321 11.6155C22.6336 11.6321 22.6357 11.6552 22.638 11.6843C22.6426 11.7427 22.6481 11.8253 22.6527 11.9288C22.6617 12.1355 22.6666 12.4268 22.6511 12.7741C22.6266 13.3232 22.5504 14.0275 22.3502 14.7644C23.1106 15.1941 23.7011 15.6777 24.1182 16.0796C24.3729 16.3251 24.5659 16.5429 24.6963 16.7042C24.7608 16.7841 24.8134 16.8543 24.8519 16.9105C24.869 16.9355 24.8928 16.9713 24.914 17.0098L24.9146 17.011C24.9209 17.0222 24.9522 17.0786 24.9743 17.1524C24.9813 17.1755 24.9928 17.218 24.9991 17.2724C25.0017 17.295 25.0056 17.3371 25.0023 17.3916V17.5528L24.9057 17.7142C24.404 18.5529 23.6766 19.192 23.0951 19.6154C22.8494 19.7943 22.6229 19.9396 22.4395 20.0497C22.4631 20.213 22.4872 20.4162 22.5076 20.6634C22.579 21.3257 22.6196 22.2643 22.6058 23.513L22.5998 24.0612L22.063 24.1722L21.9251 23.5055C22.063 24.1722 22.0629 24.1722 22.0628 24.1723L22.061 24.1726L22.0578 24.1733L22.048 24.1752C22.0399 24.1768 22.0289 24.179 22.0149 24.1816C21.9871 24.1868 21.9477 24.194 21.8979 24.2023C21.7984 24.219 21.6568 24.2405 21.4818 24.2615C21.1331 24.3033 20.6466 24.3433 20.093 24.3361C18.8312 24.3238 17.0223 24.0966 15.7299 22.9462C14.4371 24.0969 12.6276 24.3239 11.3657 24.3361L11.3624 24.3361H11.3592C10.81 24.3361 10.3273 24.2964 9.98136 24.2568C9.80795 24.2369 9.66778 24.2169 9.5695 24.2016C9.52033 24.194 9.48156 24.1875 9.45427 24.1828C9.44062 24.1804 9.42984 24.1785 9.42205 24.177L9.41262 24.1753L9.40963 24.1748L9.40814 24.1745L9.40796 24.1744C9.40787 24.1744 9.40779 24.1744 9.53465 23.5055L9.40779 24.1744L8.85995 24.0705L8.85389 23.5129C8.84001 22.2359 8.89554 21.3014 8.95172 20.6553L8.95223 20.6495L8.95283 20.6437C8.97751 20.4068 9.00247 20.2103 9.0255 20.0509C8.42654 19.6879 7.25622 18.8702 6.55641 17.7182L6.32568 17.3384L6.58053 16.9743L7.13825 17.3647C6.58053 16.9743 6.58065 16.9741 6.58077 16.9739L6.58164 16.9727L6.58311 16.9706L6.58713 16.965C6.59028 16.9606 6.5944 16.9548 6.59947 16.9479C6.60961 16.934 6.62359 16.9151 6.6414 16.8918C6.67702 16.845 6.72801 16.7802 6.79437 16.7009C6.92698 16.5424 7.12161 16.3252 7.3781 16.0789C7.79848 15.6751 8.38973 15.1884 9.15115 14.7537C8.95036 14.0157 8.87396 13.3103 8.84942 12.7605C8.83393 12.4132 8.83888 12.1219 8.84791 11.9152C8.85242 11.8117 8.85798 11.729 8.86258 11.6707C8.86487 11.6416 8.86693 11.6185 8.8685 11.6019C8.86929 11.5936 8.86995 11.5869 8.87046 11.5819L8.87111 11.5756L8.87134 11.5735L8.87147 11.5723C8.87149 11.5721 8.8715 11.572 9.54826 11.646L8.8715 11.572L8.9345 10.996L9.51309 10.9661C10.7595 10.9016 11.6751 11.0225 12.2952 11.1689C12.4234 11.1992 12.5388 11.2305 12.6416 11.2615C12.7396 11.1077 12.8628 10.9308 13.0147 10.7394C13.497 10.1317 14.2682 9.379 15.4375 8.75736L15.7581 8.58691L16.0783 8.75821C17.2406 9.38008 18.0085 10.1331 18.4875 10.7414C18.6415 10.9369 18.7658 11.1177 18.864 11.2747C19.4517 11.1029 20.448 10.9181 21.9106 10.9901L21.91 10.9801L22.5584 10.9397L22.6291 11.5856L21.9523 11.6596L21.9454 11.5487L21.9446 11.5633Z" fill="black"/>
<path fill-rule="evenodd" clip-rule="evenodd" d="M21.9803 12.3572C21.9782 13.0215 21.9024 14.0705 21.5302 15.1044C22.4663 15.5521 23.1726 16.1147 23.6407 16.565C23.7349 16.6556 23.8195 16.7417 23.8944 16.8214C24.1706 17.1154 24.3144 17.3221 24.3224 17.3484C24.3228 17.3499 24.3228 17.3508 24.3224 17.3511C24.3222 17.3512 24.3219 17.3512 24.3215 17.3511V17.3647C24.3181 17.3704 24.3147 17.376 24.3113 17.3816C23.4455 18.8137 21.7683 19.6491 21.6821 19.692L21.68 19.693L21.6812 19.6977C21.6978 19.7637 21.7767 20.0777 21.8298 20.7279C21.8978 21.3542 21.9387 22.2665 21.9251 23.5055C21.9251 23.5055 21.1354 23.6689 20.1006 23.6553C18.8739 23.6435 17.2998 23.4171 16.2015 22.454C16.0319 22.3053 15.8737 22.139 15.7299 21.9533C15.586 22.139 15.4278 22.3053 15.2582 22.454C14.1599 23.4171 12.5858 23.6435 11.3592 23.6553C10.3244 23.6553 9.53465 23.5055 9.53465 23.5055C9.52103 22.2529 9.57549 21.3406 9.62996 20.7142C9.69804 20.0607 9.76611 19.7475 9.77973 19.693C9.77691 19.6912 9.76613 19.6854 9.74821 19.6758C9.50623 19.5465 7.96226 18.7212 7.13825 17.3647C7.13825 17.3647 8.09136 16.0031 9.97035 15.0908C9.35764 13.3888 9.54826 11.646 9.54826 11.646C11.0921 11.5661 12.0693 11.7869 12.5628 11.9504C12.8266 12.0379 12.9522 12.1089 12.9522 12.1089C12.9522 12.1089 13.0459 11.8786 13.2792 11.5302C13.6619 10.9585 14.4204 10.0691 15.7571 9.35849C17.0087 10.0281 17.7515 10.8565 18.1496 11.4281C18.1695 11.4568 18.1887 11.4849 18.2069 11.5122C18.2091 11.5155 18.2113 11.5188 18.2134 11.522C18.249 11.5755 18.2812 11.6262 18.3104 11.6739C18.4634 11.9238 18.5306 12.0875 18.5347 12.107C18.535 12.1083 18.535 12.1089 18.5347 12.1089V12.1225L18.536 12.1219C18.5414 12.1192 18.5502 12.1148 18.5625 12.1089C18.637 12.0732 18.8392 11.9834 19.1812 11.893C19.7168 11.7514 20.5953 11.6083 21.8631 11.6694C21.8881 11.6706 21.9133 11.6718 21.9387 11.6732L21.9523 11.6596C21.9523 11.6596 21.9534 11.6699 21.9552 11.6898C21.9571 11.7097 21.9596 11.7394 21.9623 11.7778C21.9707 11.8958 21.9811 12.097 21.9803 12.3572ZM21.9446 11.5633C21.9476 11.5936 21.9502 11.6257 21.9523 11.6596C22.6291 11.5856 22.6291 11.5857 22.6291 11.5859L22.6292 11.5871L22.6295 11.5893L22.6301 11.5955C22.6306 11.6005 22.6313 11.6072 22.6321 11.6155C22.6336 11.6321 22.6357 11.6552 22.638 11.6843C22.6426 11.7427 22.6481 11.8253 22.6527 11.9288C22.6617 12.1355 22.6666 12.4268 22.6511 12.7741C22.6266 13.3232 22.5504 14.0275 22.3502 14.7644C23.1106 15.1941 23.7011 15.6777 24.1182 16.0796C24.3729 16.3251 24.5659 16.5429 24.6963 16.7042C24.7608 16.7841 24.8134 16.8543 24.8519 16.9105C24.869 16.9355 24.8928 16.9713 24.914 17.0098L24.9146 17.011C24.9209 17.0222 24.9522 17.0786 24.9743 17.1524C24.9813 17.1755 24.9928 17.218 24.9991 17.2724C25.0017 17.295 25.0056 17.3371 25.0023 17.3916V17.5528L24.9057 17.7142C24.404 18.5529 23.6766 19.192 23.0951 19.6154C22.8494 19.7943 22.6229 19.9396 22.4395 20.0497C22.4631 20.213 22.4872 20.4162 22.5076 20.6634C22.579 21.3257 22.6196 22.2643 22.6058 23.513L22.5998 24.0612L22.063 24.1722L21.9251 23.5055C22.063 24.1722 22.0629 24.1722 22.0628 24.1723L22.061 24.1726L22.0578 24.1733L22.048 24.1752C22.0399 24.1768 22.0289 24.179 22.0149 24.1816C21.9871 24.1868 21.9477 24.194 21.8979 24.2023C21.7984 24.219 21.6568 24.2405 21.4818 24.2615C21.1331 24.3033 20.6466 24.3433 20.093 24.3361C18.8312 24.3238 17.0223 24.0966 15.7299 22.9462C14.4371 24.0969 12.6276 24.3239 11.3657 24.3361L11.3624 24.3361H11.3592C10.81 24.3361 10.3273 24.2964 9.98136 24.2568C9.80795 24.2369 9.66778 24.2169 9.5695 24.2016C9.52033 24.194 9.48156 24.1875 9.45427 24.1828C9.44062 24.1804 9.42984 24.1785 9.42205 24.177L9.41262 24.1753L9.40963 24.1748L9.40814 24.1745L9.40796 24.1744C9.40787 24.1744 9.40779 24.1744 9.53465 23.5055L9.40779 24.1744L8.85995 24.0705L8.85389 23.5129C8.84001 22.2359 8.89554 21.3014 8.95172 20.6553L8.95223 20.6495L8.95283 20.6437C8.97751 20.4068 9.00247 20.2103 9.0255 20.0509C8.42654 19.6879 7.25622 18.8702 6.55641 17.7182L6.32568 17.3384L6.58053 16.9743L7.13825 17.3647C6.58053 16.9743 6.58065 16.9741 6.58077 16.9739L6.58164 16.9727L6.58311 16.9706L6.58713 16.965C6.59028 16.9606 6.5944 16.9548 6.59947 16.9479C6.60961 16.934 6.62359 16.9151 6.6414 16.8918C6.67702 16.845 6.72801 16.7802 6.79437 16.7009C6.92698 16.5424 7.12161 16.3252 7.3781 16.0789C7.79848 15.6751 8.38973 15.1884 9.15115 14.7537C8.95036 14.0157 8.87396 13.3103 8.84942 12.7605C8.83393 12.4132 8.83888 12.1219 8.84791 11.9152C8.85242 11.8117 8.85798 11.729 8.86258 11.6707C8.86487 11.6416 8.86693 11.6185 8.8685 11.6019C8.86929 11.5936 8.86995 11.5869 8.87046 11.5819L8.87111 11.5756L8.87134 11.5735L8.87147 11.5723C8.87149 11.5721 8.8715 11.572 9.54826 11.646L8.8715 11.572L8.9345 10.996L9.51309 10.9661C10.7595 10.9016 11.6751 11.0225 12.2952 11.1689C12.4234 11.1992 12.5388 11.2305 12.6416 11.2615C12.7396 11.1077 12.8628 10.9308 13.0147 10.7394C13.497 10.1317 14.2682 9.379 15.4375 8.75736L15.7581 8.58691L16.0783 8.75821C17.2406 9.38008 18.0085 10.1331 18.4875 10.7414C18.6415 10.9369 18.7658 11.1177 18.864 11.2747C19.4517 11.1029 20.448 10.9181 21.9106 10.9901L21.91 10.9801L22.5584 10.9397L22.6291 11.5856L21.9523 11.6596L21.9454 11.5487L21.9446 11.5633Z" fill="url(#paint8_angular_2201_104553)"/>
<path d="M15.7511 9.35791V18.8437V18.8333C15.6991 18.6047 14.8472 14.7917 12.9563 12.1112C12.9563 12.1112 13.6108 10.5008 15.7511 9.35791Z" fill="url(#paint9_linear_2201_104553)"/>
<path d="M15.7511 18.8435C13.9745 15.2279 9.54858 11.6538 9.54858 11.6538C11.9278 11.5188 12.9564 12.111 12.9564 12.111C14.8473 14.7915 15.6992 18.6045 15.7511 18.8435Z" fill="url(#paint10_linear_2201_104553)"/>
<path d="M15.7511 18.8437C12.946 16.2567 9.97455 15.1034 9.97455 15.1034C9.36157 13.3995 9.54858 11.6541 9.54858 11.6541C9.54858 11.6541 13.9745 15.2281 15.7511 18.8437Z" fill="url(#paint11_linear_2201_104553)"/>
<path d="M15.7512 18.8438C15.7512 18.8438 11.5434 19.0723 9.78759 19.6957C9.78759 19.6957 9.50708 20.8801 9.54863 23.5087C9.54863 23.5087 10.3382 23.6645 11.3772 23.6542C12.7902 23.6438 14.6707 23.3425 15.7512 21.9503V18.8438Z" fill="url(#paint12_linear_2201_104553)"/>
<path d="M15.7511 18.8438L9.54855 23.4983C9.52777 20.6723 9.78751 19.6853 9.78751 19.6853C11.5433 19.0723 15.7511 18.8438 15.7511 18.8438Z" fill="url(#paint13_linear_2201_104553)"/>
<path d="M15.7511 18.8435C12.9459 16.2565 9.97453 15.1033 9.97453 15.1033C8.09402 15.9968 7.13818 17.3682 7.13818 17.3682C7.13818 17.3682 12.0836 16.7552 15.7511 18.8435Z" fill="url(#paint14_linear_2201_104553)"/>
<path d="M9.78752 19.6956C11.5434 19.0722 15.7511 18.8436 15.7511 18.8436C12.0836 16.7553 7.13818 17.3683 7.13818 17.3683C8.03168 18.8436 9.78752 19.6956 9.78752 19.6956Z" fill="url(#paint15_linear_2201_104553)"/>
<path d="M15.751 9.35791V18.8437V18.8333C15.8029 18.5943 16.6549 14.7917 18.5458 12.1008C18.5458 12.1112 17.8912 10.5008 15.751 9.35791Z" fill="url(#paint16_linear_2201_104553)"/>
<path d="M15.751 18.8436C17.5276 15.228 21.9535 11.6644 21.9535 11.6644C19.5743 11.5293 18.5354 12.1111 18.5354 12.1111C16.6549 14.7917 15.8029 18.6047 15.751 18.8436Z" fill="url(#paint17_linear_2201_104553)"/>
<path d="M15.7512 18.8437C18.5564 16.2567 21.5278 15.1034 21.5278 15.1034C22.1408 13.3995 21.9538 11.6541 21.9538 11.6541C21.9538 11.6541 17.5278 15.2281 15.7512 18.8437Z" fill="url(#paint18_linear_2201_104553)"/>
<path d="M15.751 18.8438C15.751 18.8438 19.9587 19.0723 21.7146 19.6957C21.7146 19.6957 21.9951 20.8801 21.9535 23.5087C21.9535 23.5087 21.1639 23.6645 20.125 23.6542C18.712 23.6438 16.8315 23.3425 15.751 21.9503V18.8438Z" fill="url(#paint19_linear_2201_104553)"/>
<path d="M15.751 18.8438L21.9535 23.4983C21.9743 20.6723 21.7146 19.6853 21.7146 19.6853C19.9587 19.0723 15.751 18.8438 15.751 18.8438Z" fill="url(#paint20_linear_2201_104553)"/>
<path d="M15.751 18.8435C18.5562 16.2565 21.5276 15.1033 21.5276 15.1033C23.4081 15.9968 24.3639 17.3578 24.3639 17.3578C24.3639 17.3578 19.4081 16.7552 15.751 18.8435Z" fill="url(#paint21_linear_2201_104553)"/>
<path d="M21.7146 19.6956C19.9587 19.0722 15.751 18.8436 15.751 18.8436C19.4081 16.7553 24.3639 17.3683 24.3639 17.3683C23.4704 18.8436 21.7146 19.6956 21.7146 19.6956Z" fill="url(#paint22_linear_2201_104553)"/>
</g>
<g filter="url(#filter2_d_2201_104553)">
<path d="M44.0301 15.1044C44.6429 13.4024 44.4522 11.6595 44.4522 11.6595C44.4522 11.6595 44.4522 11.6595 44.4386 11.6731C42.1648 11.5506 41.1164 12.0816 41.0347 12.1224C41.0347 12.1224 41.0347 12.1225 41.0347 12.1088C41.0483 12.1088 40.3947 10.5021 38.257 9.3584C36.1057 10.5021 35.4522 12.1088 35.4522 12.1088C35.4522 12.1088 34.4173 11.5233 32.0482 11.6459C32.0482 11.6459 31.8576 13.3887 32.4703 15.0907C30.5913 16.003 29.6382 17.3646 29.6382 17.3646C30.5232 18.8215 32.2388 19.6657 32.2797 19.693C32.266 19.7474 32.198 20.0606 32.1299 20.7142C32.0754 21.3405 32.021 22.2528 32.0346 23.5054C32.0346 23.5054 32.8243 23.6552 33.8591 23.6552C35.2751 23.6416 37.1541 23.342 38.2298 21.9532C39.3054 23.342 41.1844 23.6416 42.6005 23.6552C43.6353 23.6688 44.425 23.5054 44.425 23.5054C44.4386 22.2664 44.3978 21.3541 44.3297 20.7278C44.2752 20.0606 44.1935 19.7474 44.1799 19.693C44.2344 19.6657 45.95 18.8215 46.8214 17.3646V17.351C46.8622 17.3646 45.9091 16.003 44.0301 15.1044Z" fill="url(#paint23_linear_2201_104553)"/>
<path fill-rule="evenodd" clip-rule="evenodd" d="M44.4801 12.3572C44.4779 13.0215 44.4022 14.0705 44.03 15.1044C44.9661 15.5521 45.6723 16.1147 46.1404 16.565C46.2347 16.6556 46.3193 16.7417 46.3941 16.8214C46.6703 17.1154 46.8142 17.3221 46.8221 17.3484C46.8226 17.3499 46.8226 17.3508 46.8221 17.3511C46.8219 17.3512 46.8216 17.3512 46.8212 17.3511V17.3647C46.8178 17.3704 46.8144 17.376 46.811 17.3816C45.9453 18.8137 44.2681 19.6491 44.1819 19.692L44.1797 19.693L44.1809 19.6977C44.1975 19.7637 44.2764 20.0777 44.3295 20.7279C44.3976 21.3542 44.4384 22.2665 44.4248 23.5055C44.4248 23.5055 43.6351 23.6689 42.6003 23.6553C41.3736 23.6435 39.7996 23.4171 38.7012 22.454C38.5317 22.3053 38.3735 22.139 38.2296 21.9533C38.0858 22.139 37.9275 22.3053 37.758 22.454C36.6597 23.4171 35.0856 23.6435 33.8589 23.6553C32.8241 23.6553 32.0344 23.5055 32.0344 23.5055C32.0208 22.2529 32.0752 21.3406 32.1297 20.7142C32.1978 20.0607 32.2659 19.7475 32.2795 19.693C32.2767 19.6912 32.2659 19.6854 32.248 19.6758C32.006 19.5465 30.462 18.7212 29.638 17.3647C29.638 17.3647 30.5911 16.0031 32.4701 15.0908C31.8574 13.3888 32.048 11.646 32.048 11.646C33.5918 11.5661 34.569 11.7869 35.0626 11.9504C35.3264 12.0379 35.452 12.1089 35.452 12.1089C35.452 12.1089 35.5457 11.8786 35.7789 11.5302C36.1617 10.9585 36.9202 10.0691 38.2568 9.35849C39.5084 10.0281 40.2513 10.8565 40.6493 11.4281C40.6693 11.4568 40.6884 11.4849 40.7067 11.5122C40.7089 11.5155 40.711 11.5188 40.7132 11.522C40.7487 11.5755 40.781 11.6262 40.8101 11.6739C40.9632 11.9238 41.0303 12.0875 41.0345 12.107C41.0348 12.1083 41.0348 12.1089 41.0345 12.1089V12.1225L41.0358 12.1219C41.0412 12.1192 41.05 12.1148 41.0622 12.1089C41.1367 12.0732 41.339 11.9834 41.681 11.893C42.2166 11.7514 43.0951 11.6083 44.3628 11.6694C44.3879 11.6706 44.4131 11.6718 44.4384 11.6732L44.4521 11.6596C44.4521 11.6596 44.4532 11.6699 44.455 11.6898C44.4568 11.7097 44.4593 11.7394 44.462 11.7778C44.4704 11.8958 44.4809 12.097 44.4801 12.3572ZM44.4444 11.5633C44.4474 11.5936 44.45 11.6257 44.4521 11.6596C45.1288 11.5856 45.1288 11.5857 45.1289 11.5859L45.129 11.5871L45.1292 11.5893L45.1299 11.5955C45.1304 11.6005 45.131 11.6072 45.1318 11.6155C45.1334 11.6321 45.1355 11.6552 45.1377 11.6843C45.1423 11.7427 45.1479 11.8253 45.1524 11.9288C45.1614 12.1355 45.1664 12.4268 45.1509 12.7741C45.1264 13.3232 45.0502 14.0275 44.85 14.7644C45.6104 15.1941 46.2009 15.6777 46.6179 16.0796C46.8726 16.3251 47.0657 16.5429 47.196 16.7042C47.2606 16.7841 47.3132 16.8543 47.3517 16.9105C47.3688 16.9355 47.3925 16.9713 47.4137 17.0098L47.4144 17.011C47.4206 17.0222 47.4519 17.0786 47.4741 17.1524C47.4811 17.1755 47.4926 17.218 47.4988 17.2724C47.5014 17.295 47.5054 17.3371 47.502 17.3916V17.5528L47.4055 17.7142C46.9038 18.5529 46.1764 19.192 45.5949 19.6154C45.3492 19.7943 45.1227 19.9396 44.9393 20.0497C44.9629 20.213 44.987 20.4162 45.0073 20.6634C45.0787 21.3257 45.1193 22.2643 45.1056 23.513L45.0996 24.0612L44.5628 24.1722L44.4248 23.5055C44.5628 24.1722 44.5627 24.1722 44.5626 24.1723L44.5607 24.1726L44.5576 24.1733L44.5477 24.1752C44.5397 24.1768 44.5286 24.179 44.5147 24.1816C44.4869 24.1868 44.4475 24.194 44.3977 24.2023C44.2982 24.219 44.1566 24.2405 43.9816 24.2615C43.6329 24.3033 43.1464 24.3433 42.5927 24.3361C41.3309 24.3238 39.522 24.0966 38.2296 22.9462C36.9369 24.0969 35.1273 24.3239 33.8655 24.3361L33.8622 24.3361H33.8589C33.3098 24.3361 32.8271 24.2964 32.4811 24.2568C32.3077 24.2369 32.1675 24.2169 32.0693 24.2016C32.0201 24.194 31.9813 24.1875 31.954 24.1828C31.9404 24.1804 31.9296 24.1785 31.9218 24.177L31.9124 24.1753L31.9094 24.1748L31.9079 24.1745L31.9077 24.1744C31.9076 24.1744 31.9075 24.1744 32.0344 23.5055L31.9075 24.1744L31.3597 24.0705L31.3536 23.5129C31.3398 22.2359 31.3953 21.3014 31.4515 20.6553L31.452 20.6495L31.4526 20.6437C31.4773 20.4068 31.5022 20.2103 31.5253 20.0509C30.9263 19.6879 29.756 18.8702 29.0562 17.7182L28.8254 17.3384L29.0803 16.9743L29.638 17.3647C29.0803 16.9743 29.0804 16.9741 29.0805 16.9739L29.0814 16.9727L29.0829 16.9706L29.0869 16.965C29.09 16.9606 29.0942 16.9548 29.0992 16.9479C29.1094 16.934 29.1233 16.9151 29.1412 16.8918C29.1768 16.845 29.2278 16.7802 29.2941 16.7009C29.4267 16.5424 29.6214 16.3252 29.8779 16.0789C30.2982 15.6751 30.8895 15.1884 31.6509 14.7537C31.4501 14.0157 31.3737 13.3103 31.3492 12.7605C31.3337 12.4132 31.3386 12.1219 31.3477 11.9152C31.3522 11.8117 31.3577 11.729 31.3623 11.6707C31.3646 11.6416 31.3667 11.6185 31.3683 11.6019C31.369 11.5936 31.3697 11.5869 31.3702 11.5819L31.3709 11.5756L31.3711 11.5735L31.3712 11.5723C31.3712 11.5721 31.3713 11.572 32.048 11.646L31.3713 11.572L31.4343 10.996L32.0129 10.9661C33.2592 10.9016 34.1748 11.0225 34.7949 11.1689C34.9231 11.1992 35.0385 11.2305 35.1413 11.2615C35.2393 11.1077 35.3625 10.9308 35.5144 10.7394C35.9968 10.1317 36.768 9.379 37.9373 8.75736L38.2579 8.58691L38.578 8.75821C39.7403 9.38008 40.5082 10.1331 40.9873 10.7414C41.1412 10.9369 41.2655 11.1177 41.3637 11.2747C41.9515 11.1029 42.9478 10.9181 44.4104 10.9901L44.4098 10.9801L45.0582 10.9397L45.1288 11.5856L44.4521 11.6596L44.4452 11.5487L44.4444 11.5633Z" fill="black"/>
<path fill-rule="evenodd" clip-rule="evenodd" d="M44.4801 12.3572C44.4779 13.0215 44.4022 14.0705 44.03 15.1044C44.9661 15.5521 45.6723 16.1147 46.1404 16.565C46.2347 16.6556 46.3193 16.7417 46.3941 16.8214C46.6703 17.1154 46.8142 17.3221 46.8221 17.3484C46.8226 17.3499 46.8226 17.3508 46.8221 17.3511C46.8219 17.3512 46.8216 17.3512 46.8212 17.3511V17.3647C46.8178 17.3704 46.8144 17.376 46.811 17.3816C45.9453 18.8137 44.2681 19.6491 44.1819 19.692L44.1797 19.693L44.1809 19.6977C44.1975 19.7637 44.2764 20.0777 44.3295 20.7279C44.3976 21.3542 44.4384 22.2665 44.4248 23.5055C44.4248 23.5055 43.6351 23.6689 42.6003 23.6553C41.3736 23.6435 39.7996 23.4171 38.7012 22.454C38.5317 22.3053 38.3735 22.139 38.2296 21.9533C38.0858 22.139 37.9275 22.3053 37.758 22.454C36.6597 23.4171 35.0856 23.6435 33.8589 23.6553C32.8241 23.6553 32.0344 23.5055 32.0344 23.5055C32.0208 22.2529 32.0752 21.3406 32.1297 20.7142C32.1978 20.0607 32.2659 19.7475 32.2795 19.693C32.2767 19.6912 32.2659 19.6854 32.248 19.6758C32.006 19.5465 30.462 18.7212 29.638 17.3647C29.638 17.3647 30.5911 16.0031 32.4701 15.0908C31.8574 13.3888 32.048 11.646 32.048 11.646C33.5918 11.5661 34.569 11.7869 35.0626 11.9504C35.3264 12.0379 35.452 12.1089 35.452 12.1089C35.452 12.1089 35.5457 11.8786 35.7789 11.5302C36.1617 10.9585 36.9202 10.0691 38.2568 9.35849C39.5084 10.0281 40.2513 10.8565 40.6493 11.4281C40.6693 11.4568 40.6884 11.4849 40.7067 11.5122C40.7089 11.5155 40.711 11.5188 40.7132 11.522C40.7487 11.5755 40.781 11.6262 40.8101 11.6739C40.9632 11.9238 41.0303 12.0875 41.0345 12.107C41.0348 12.1083 41.0348 12.1089 41.0345 12.1089V12.1225L41.0358 12.1219C41.0412 12.1192 41.05 12.1148 41.0622 12.1089C41.1367 12.0732 41.339 11.9834 41.681 11.893C42.2166 11.7514 43.0951 11.6083 44.3628 11.6694C44.3879 11.6706 44.4131 11.6718 44.4384 11.6732L44.4521 11.6596C44.4521 11.6596 44.4532 11.6699 44.455 11.6898C44.4568 11.7097 44.4593 11.7394 44.462 11.7778C44.4704 11.8958 44.4809 12.097 44.4801 12.3572ZM44.4444 11.5633C44.4474 11.5936 44.45 11.6257 44.4521 11.6596C45.1288 11.5856 45.1288 11.5857 45.1289 11.5859L45.129 11.5871L45.1292 11.5893L45.1299 11.5955C45.1304 11.6005 45.131 11.6072 45.1318 11.6155C45.1334 11.6321 45.1355 11.6552 45.1377 11.6843C45.1423 11.7427 45.1479 11.8253 45.1524 11.9288C45.1614 12.1355 45.1664 12.4268 45.1509 12.7741C45.1264 13.3232 45.0502 14.0275 44.85 14.7644C45.6104 15.1941 46.2009 15.6777 46.6179 16.0796C46.8726 16.3251 47.0657 16.5429 47.196 16.7042C47.2606 16.7841 47.3132 16.8543 47.3517 16.9105C47.3688 16.9355 47.3925 16.9713 47.4137 17.0098L47.4144 17.011C47.4206 17.0222 47.4519 17.0786 47.4741 17.1524C47.4811 17.1755 47.4926 17.218 47.4988 17.2724C47.5014 17.295 47.5054 17.3371 47.502 17.3916V17.5528L47.4055 17.7142C46.9038 18.5529 46.1764 19.192 45.5949 19.6154C45.3492 19.7943 45.1227 19.9396 44.9393 20.0497C44.9629 20.213 44.987 20.4162 45.0073 20.6634C45.0787 21.3257 45.1193 22.2643 45.1056 23.513L45.0996 24.0612L44.5628 24.1722L44.4248 23.5055C44.5628 24.1722 44.5627 24.1722 44.5626 24.1723L44.5607 24.1726L44.5576 24.1733L44.5477 24.1752C44.5397 24.1768 44.5286 24.179 44.5147 24.1816C44.4869 24.1868 44.4475 24.194 44.3977 24.2023C44.2982 24.219 44.1566 24.2405 43.9816 24.2615C43.6329 24.3033 43.1464 24.3433 42.5927 24.3361C41.3309 24.3238 39.522 24.0966 38.2296 22.9462C36.9369 24.0969 35.1273 24.3239 33.8655 24.3361L33.8622 24.3361H33.8589C33.3098 24.3361 32.8271 24.2964 32.4811 24.2568C32.3077 24.2369 32.1675 24.2169 32.0693 24.2016C32.0201 24.194 31.9813 24.1875 31.954 24.1828C31.9404 24.1804 31.9296 24.1785 31.9218 24.177L31.9124 24.1753L31.9094 24.1748L31.9079 24.1745L31.9077 24.1744C31.9076 24.1744 31.9075 24.1744 32.0344 23.5055L31.9075 24.1744L31.3597 24.0705L31.3536 23.5129C31.3398 22.2359 31.3953 21.3014 31.4515 20.6553L31.452 20.6495L31.4526 20.6437C31.4773 20.4068 31.5022 20.2103 31.5253 20.0509C30.9263 19.6879 29.756 18.8702 29.0562 17.7182L28.8254 17.3384L29.0803 16.9743L29.638 17.3647C29.0803 16.9743 29.0804 16.9741 29.0805 16.9739L29.0814 16.9727L29.0829 16.9706L29.0869 16.965C29.09 16.9606 29.0942 16.9548 29.0992 16.9479C29.1094 16.934 29.1233 16.9151 29.1412 16.8918C29.1768 16.845 29.2278 16.7802 29.2941 16.7009C29.4267 16.5424 29.6214 16.3252 29.8779 16.0789C30.2982 15.6751 30.8895 15.1884 31.6509 14.7537C31.4501 14.0157 31.3737 13.3103 31.3492 12.7605C31.3337 12.4132 31.3386 12.1219 31.3477 11.9152C31.3522 11.8117 31.3577 11.729 31.3623 11.6707C31.3646 11.6416 31.3667 11.6185 31.3683 11.6019C31.369 11.5936 31.3697 11.5869 31.3702 11.5819L31.3709 11.5756L31.3711 11.5735L31.3712 11.5723C31.3712 11.5721 31.3713 11.572 32.048 11.646L31.3713 11.572L31.4343 10.996L32.0129 10.9661C33.2592 10.9016 34.1748 11.0225 34.7949 11.1689C34.9231 11.1992 35.0385 11.2305 35.1413 11.2615C35.2393 11.1077 35.3625 10.9308 35.5144 10.7394C35.9968 10.1317 36.768 9.379 37.9373 8.75736L38.2579 8.58691L38.578 8.75821C39.7403 9.38008 40.5082 10.1331 40.9873 10.7414C41.1412 10.9369 41.2655 11.1177 41.3637 11.2747C41.9515 11.1029 42.9478 10.9181 44.4104 10.9901L44.4098 10.9801L45.0582 10.9397L45.1288 11.5856L44.4521 11.6596L44.4452 11.5487L44.4444 11.5633Z" fill="url(#paint24_angular_2201_104553)"/>
<path d="M38.2508 9.35791V18.8437V18.8333C38.1989 18.6047 37.347 14.7917 35.4561 12.1112C35.4561 12.1112 36.1106 10.5008 38.2508 9.35791Z" fill="url(#paint25_linear_2201_104553)"/>
<path d="M38.2509 18.8435C36.4743 15.2279 32.0483 11.6538 32.0483 11.6538C34.4275 11.5188 35.4561 12.111 35.4561 12.111C37.347 14.7915 38.199 18.6045 38.2509 18.8435Z" fill="url(#paint26_linear_2201_104553)"/>
<path d="M38.2509 18.8437C35.4457 16.2567 32.4743 15.1034 32.4743 15.1034C31.8613 13.3995 32.0483 11.6541 32.0483 11.6541C32.0483 11.6541 36.4743 15.2281 38.2509 18.8437Z" fill="url(#paint27_linear_2201_104553)"/>
<path d="M38.2509 18.8438C38.2509 18.8438 34.0432 19.0723 32.2873 19.6957C32.2873 19.6957 32.0068 20.8801 32.0484 23.5087C32.0484 23.5087 32.838 23.6645 33.8769 23.6542C35.2899 23.6438 37.1704 23.3425 38.2509 21.9503V18.8438Z" fill="url(#paint28_linear_2201_104553)"/>
<path d="M38.2509 18.8438L32.0483 23.4983C32.0275 20.6723 32.2873 19.6853 32.2873 19.6853C34.0431 19.0723 38.2509 18.8438 38.2509 18.8438Z" fill="url(#paint29_linear_2201_104553)"/>
<path d="M38.2509 18.8435C35.4457 16.2565 32.4743 15.1033 32.4743 15.1033C30.5938 15.9968 29.6379 17.3682 29.6379 17.3682C29.6379 17.3682 34.5834 16.7552 38.2509 18.8435Z" fill="url(#paint30_linear_2201_104553)"/>
<path d="M32.2873 19.6956C34.0431 19.0722 38.2509 18.8436 38.2509 18.8436C34.5834 16.7553 29.6379 17.3683 29.6379 17.3683C30.5314 18.8436 32.2873 19.6956 32.2873 19.6956Z" fill="url(#paint31_linear_2201_104553)"/>
<path d="M38.251 9.35791V18.8437V18.8333C38.3029 18.5943 39.1549 14.7917 41.0458 12.1008C41.0458 12.1112 40.3912 10.5008 38.251 9.35791Z" fill="url(#paint32_linear_2201_104553)"/>
<path d="M38.251 18.8436C40.0276 15.228 44.4535 11.6644 44.4535 11.6644C42.0743 11.5293 41.0354 12.1111 41.0354 12.1111C39.1549 14.7917 38.3029 18.6047 38.251 18.8436Z" fill="url(#paint33_linear_2201_104553)"/>
<path d="M38.251 18.8437C41.0562 16.2567 44.0276 15.1034 44.0276 15.1034C44.6405 13.3995 44.4535 11.6541 44.4535 11.6541C44.4535 11.6541 40.0276 15.2281 38.251 18.8437Z" fill="url(#paint34_linear_2201_104553)"/>
<path d="M38.251 18.8438C38.251 18.8438 42.4587 19.0723 44.2146 19.6957C44.2146 19.6957 44.4951 20.8801 44.4535 23.5087C44.4535 23.5087 43.6639 23.6645 42.625 23.6542C41.212 23.6438 39.3315 23.3425 38.251 21.9503V18.8438Z" fill="url(#paint35_linear_2201_104553)"/>
<path d="M38.251 18.8438L44.4535 23.4983C44.4743 20.6723 44.2146 19.6853 44.2146 19.6853C42.4587 19.0723 38.251 18.8438 38.251 18.8438Z" fill="url(#paint36_linear_2201_104553)"/>
<path d="M38.251 18.8435C41.0562 16.2565 44.0276 15.1033 44.0276 15.1033C45.9081 15.9968 46.8639 17.3578 46.8639 17.3578C46.8639 17.3578 41.9081 16.7552 38.251 18.8435Z" fill="url(#paint37_linear_2201_104553)"/>
<path d="M44.2146 19.6956C42.4587 19.0722 38.251 18.8436 38.251 18.8436C41.9081 16.7553 46.8639 17.3683 46.8639 17.3683C45.9704 18.8436 44.2146 19.6956 44.2146 19.6956Z" fill="url(#paint38_linear_2201_104553)"/>
</g>
<g filter="url(#filter3_d_2201_104553)">
<path d="M21.5301 33.5553C22.1429 31.8533 21.9522 30.1104 21.9522 30.1104C21.9522 30.1104 21.9522 30.1104 21.9386 30.124C19.6648 30.0015 18.6164 30.5325 18.5347 30.5734C18.5347 30.5734 18.5347 30.5734 18.5347 30.5598C18.5483 30.5598 17.8947 28.9531 15.757 27.8093C13.6057 28.9531 12.9522 30.5598 12.9522 30.5598C12.9522 30.5598 11.9173 29.9743 9.54819 30.0968C9.54819 30.0968 9.35757 31.8397 9.97028 33.5417C8.09129 34.4539 7.13818 35.8155 7.13818 35.8155C8.02321 37.2725 9.73881 38.1167 9.77966 38.1439C9.76604 38.1983 9.69796 38.5115 9.62989 39.1651C9.57542 39.7914 9.52096 40.7037 9.53457 41.9564C9.53457 41.9564 10.3243 42.1061 11.3591 42.1061C12.7751 42.0925 14.6541 41.793 15.7298 40.4041C16.8054 41.793 18.6844 42.0925 20.1005 42.1061C21.1353 42.1198 21.925 41.9564 21.925 41.9564C21.9386 40.7173 21.8978 39.805 21.8297 39.1787C21.7752 38.5115 21.6935 38.1983 21.6799 38.1439C21.7344 38.1167 23.45 37.2725 24.3214 35.8155V35.8019C24.3622 35.8155 23.4091 34.4539 21.5301 33.5553Z" fill="url(#paint39_linear_2201_104553)"/>
<path fill-rule="evenodd" clip-rule="evenodd" d="M21.9803 30.8079C21.9782 31.4721 21.9024 32.5212 21.5302 33.5551C22.4663 34.0028 23.1726 34.5654 23.6407 35.0156C23.7349 35.1063 23.8195 35.1924 23.8944 35.272C24.1706 35.5661 24.3144 35.7728 24.3224 35.799C24.3228 35.8006 24.3228 35.8015 24.3224 35.8018C24.3222 35.8019 24.3219 35.8019 24.3215 35.8018V35.8154C24.3181 35.821 24.3147 35.8267 24.3113 35.8323C23.4455 37.2643 21.7683 38.0997 21.6821 38.1427L21.68 38.1437L21.6812 38.1484C21.6978 38.2144 21.7767 38.5284 21.8298 39.1785C21.8978 39.8049 21.9387 40.7172 21.9251 41.9562C21.9251 41.9562 21.1354 42.1196 20.1006 42.106C18.8739 42.0942 17.2998 41.8678 16.2015 40.9047C16.0319 40.756 15.8737 40.5897 15.7299 40.404C15.586 40.5897 15.4278 40.756 15.2582 40.9047C14.1599 41.8678 12.5858 42.0942 11.3592 42.106C10.3244 42.106 9.53465 41.9562 9.53465 41.9562C9.52103 40.7035 9.57549 39.7913 9.62996 39.1649C9.69804 38.5114 9.76611 38.1982 9.77973 38.1437C9.77691 38.1419 9.76613 38.1361 9.74821 38.1265C9.50623 37.9972 7.96226 37.1718 7.13825 35.8154C7.13825 35.8154 8.09136 34.4538 9.97035 33.5415C9.35764 31.8395 9.54826 30.0967 9.54826 30.0967C11.0921 30.0168 12.0693 30.2376 12.5628 30.4011C12.8266 30.4886 12.9522 30.5596 12.9522 30.5596C12.9522 30.5596 13.0459 30.3292 13.2792 29.9809C13.6619 29.4092 14.4204 28.5198 15.7571 27.8092C17.0087 28.4788 17.7515 29.3071 18.1496 29.8788C18.1695 29.9075 18.1887 29.9356 18.2069 29.9629C18.2091 29.9662 18.2113 29.9695 18.2134 29.9727C18.249 30.0262 18.2812 30.0769 18.3104 30.1245C18.4634 30.3745 18.5306 30.5382 18.5347 30.5577C18.535 30.559 18.535 30.5596 18.5347 30.5596V30.5732L18.536 30.5726C18.5414 30.5699 18.5502 30.5655 18.5625 30.5596C18.637 30.5239 18.8392 30.4341 19.1812 30.3437C19.7168 30.2021 20.5953 30.059 21.8631 30.12C21.8881 30.1212 21.9133 30.1225 21.9387 30.1239L21.9523 30.1103C21.9523 30.1103 21.9534 30.1206 21.9552 30.1404C21.9571 30.1604 21.9596 30.19 21.9623 30.2285C21.9707 30.3465 21.9811 30.5477 21.9803 30.8079ZM21.9446 30.014C21.9476 30.0443 21.9502 30.0764 21.9523 30.1103C22.6291 30.0363 22.6291 30.0364 22.6291 30.0366L22.6292 30.0378L22.6295 30.0399L22.6301 30.0462C22.6306 30.0512 22.6313 30.0579 22.6321 30.0662C22.6336 30.0828 22.6357 30.1059 22.638 30.135C22.6426 30.1933 22.6481 30.276 22.6527 30.3795C22.6617 30.5862 22.6666 30.8775 22.6511 31.2248C22.6266 31.7739 22.5504 32.4781 22.3502 33.2151C23.1106 33.6448 23.7011 34.1284 24.1182 34.5303C24.3729 34.7758 24.5659 34.9936 24.6963 35.1549C24.7608 35.2348 24.8134 35.305 24.8519 35.3612C24.869 35.3862 24.8928 35.422 24.914 35.4605L24.9146 35.4617C24.9209 35.4729 24.9522 35.5293 24.9743 35.6031C24.9813 35.6262 24.9928 35.6687 24.9991 35.723C25.0017 35.7457 25.0056 35.7878 25.0023 35.8423V36.0035L24.9057 36.1649C24.404 37.0036 23.6766 37.6426 23.0951 38.0661C22.8494 38.245 22.6229 38.3903 22.4395 38.5003C22.4631 38.6637 22.4872 38.8669 22.5076 39.114C22.579 39.7764 22.6196 40.715 22.6058 41.9637L22.5998 42.5118L22.063 42.6229L21.9251 41.9562C22.063 42.6229 22.0629 42.6229 22.0628 42.6229L22.061 42.6233L22.0578 42.624L22.048 42.6259C22.0399 42.6275 22.0289 42.6297 22.0149 42.6323C21.9871 42.6375 21.9477 42.6446 21.8979 42.653C21.7984 42.6696 21.6568 42.6912 21.4818 42.7122C21.1331 42.754 20.6466 42.794 20.093 42.7868C18.8312 42.7745 17.0223 42.5473 15.7299 41.3969C14.4371 42.5476 12.6276 42.7746 11.3657 42.7868L11.3624 42.7868H11.3592C10.81 42.7868 10.3273 42.7471 9.98136 42.7075C9.80795 42.6876 9.66778 42.6676 9.5695 42.6523C9.52033 42.6447 9.48156 42.6382 9.45427 42.6334C9.44062 42.6311 9.42984 42.6291 9.42205 42.6277L9.41262 42.626L9.40963 42.6254L9.40814 42.6252L9.40796 42.6251C9.40787 42.6251 9.40779 42.6251 9.53465 41.9562L9.40779 42.6251L8.85995 42.5212L8.85389 41.9636C8.84001 40.6866 8.89554 39.7521 8.95172 39.106L8.95223 39.1002L8.95283 39.0944C8.97751 38.8575 9.00247 38.6609 9.0255 38.5016C8.42654 38.1386 7.25622 37.3209 6.55641 36.1689L6.32568 35.789L6.58053 35.425L7.13825 35.8154C6.58053 35.425 6.58065 35.4248 6.58077 35.4246L6.58164 35.4234L6.58311 35.4213L6.58713 35.4157C6.59028 35.4112 6.5944 35.4055 6.59947 35.3986C6.60961 35.3847 6.62359 35.3658 6.6414 35.3424C6.67702 35.2957 6.72801 35.2309 6.79437 35.1515C6.92698 34.993 7.12161 34.7759 7.3781 34.5295C7.79848 34.1258 8.38973 33.6391 9.15115 33.2044C8.95036 32.4664 8.87396 31.761 8.84942 31.2112C8.83393 30.8639 8.83888 30.5726 8.84791 30.3659C8.85242 30.2624 8.85798 30.1797 8.86258 30.1214C8.86487 30.0923 8.86693 30.0692 8.8685 30.0525C8.86929 30.0442 8.86995 30.0376 8.87046 30.0326L8.87111 30.0263L8.87134 30.0242L8.87147 30.023C8.87149 30.0228 8.8715 30.0226 9.54826 30.0967L8.8715 30.0226L8.9345 29.4467L9.51309 29.4168C10.7595 29.3523 11.6751 29.4731 12.2952 29.6196C12.4234 29.6499 12.5388 29.6812 12.6416 29.7121C12.7396 29.5583 12.8628 29.3814 13.0147 29.19C13.497 28.5824 14.2682 27.8297 15.4375 27.208L15.7581 27.0376L16.0783 27.2089C17.2406 27.8308 18.0085 28.5838 18.4875 29.1921C18.6415 29.3876 18.7658 29.5684 18.864 29.7253C19.4517 29.5536 20.448 29.3688 21.9106 29.4407L21.91 29.4308L22.5584 29.3904L22.6291 30.0363L21.9523 30.1103L21.9454 29.9994L21.9446 30.014Z" fill="black"/>
<path fill-rule="evenodd" clip-rule="evenodd" d="M21.9803 30.8079C21.9782 31.4721 21.9024 32.5212 21.5302 33.5551C22.4663 34.0028 23.1726 34.5654 23.6407 35.0156C23.7349 35.1063 23.8195 35.1924 23.8944 35.272C24.1706 35.5661 24.3144 35.7728 24.3224 35.799C24.3228 35.8006 24.3228 35.8015 24.3224 35.8018C24.3222 35.8019 24.3219 35.8019 24.3215 35.8018V35.8154C24.3181 35.821 24.3147 35.8267 24.3113 35.8323C23.4455 37.2643 21.7683 38.0997 21.6821 38.1427L21.68 38.1437L21.6812 38.1484C21.6978 38.2144 21.7767 38.5284 21.8298 39.1785C21.8978 39.8049 21.9387 40.7172 21.9251 41.9562C21.9251 41.9562 21.1354 42.1196 20.1006 42.106C18.8739 42.0942 17.2998 41.8678 16.2015 40.9047C16.0319 40.756 15.8737 40.5897 15.7299 40.404C15.586 40.5897 15.4278 40.756 15.2582 40.9047C14.1599 41.8678 12.5858 42.0942 11.3592 42.106C10.3244 42.106 9.53465 41.9562 9.53465 41.9562C9.52103 40.7035 9.57549 39.7913 9.62996 39.1649C9.69804 38.5114 9.76611 38.1982 9.77973 38.1437C9.77691 38.1419 9.76613 38.1361 9.74821 38.1265C9.50623 37.9972 7.96226 37.1718 7.13825 35.8154C7.13825 35.8154 8.09136 34.4538 9.97035 33.5415C9.35764 31.8395 9.54826 30.0967 9.54826 30.0967C11.0921 30.0168 12.0693 30.2376 12.5628 30.4011C12.8266 30.4886 12.9522 30.5596 12.9522 30.5596C12.9522 30.5596 13.0459 30.3292 13.2792 29.9809C13.6619 29.4092 14.4204 28.5198 15.7571 27.8092C17.0087 28.4788 17.7515 29.3071 18.1496 29.8788C18.1695 29.9075 18.1887 29.9356 18.2069 29.9629C18.2091 29.9662 18.2113 29.9695 18.2134 29.9727C18.249 30.0262 18.2812 30.0769 18.3104 30.1245C18.4634 30.3745 18.5306 30.5382 18.5347 30.5577C18.535 30.559 18.535 30.5596 18.5347 30.5596V30.5732L18.536 30.5726C18.5414 30.5699 18.5502 30.5655 18.5625 30.5596C18.637 30.5239 18.8392 30.4341 19.1812 30.3437C19.7168 30.2021 20.5953 30.059 21.8631 30.12C21.8881 30.1212 21.9133 30.1225 21.9387 30.1239L21.9523 30.1103C21.9523 30.1103 21.9534 30.1206 21.9552 30.1404C21.9571 30.1604 21.9596 30.19 21.9623 30.2285C21.9707 30.3465 21.9811 30.5477 21.9803 30.8079ZM21.9446 30.014C21.9476 30.0443 21.9502 30.0764 21.9523 30.1103C22.6291 30.0363 22.6291 30.0364 22.6291 30.0366L22.6292 30.0378L22.6295 30.0399L22.6301 30.0462C22.6306 30.0512 22.6313 30.0579 22.6321 30.0662C22.6336 30.0828 22.6357 30.1059 22.638 30.135C22.6426 30.1933 22.6481 30.276 22.6527 30.3795C22.6617 30.5862 22.6666 30.8775 22.6511 31.2248C22.6266 31.7739 22.5504 32.4781 22.3502 33.2151C23.1106 33.6448 23.7011 34.1284 24.1182 34.5303C24.3729 34.7758 24.5659 34.9936 24.6963 35.1549C24.7608 35.2348 24.8134 35.305 24.8519 35.3612C24.869 35.3862 24.8928 35.422 24.914 35.4605L24.9146 35.4617C24.9209 35.4729 24.9522 35.5293 24.9743 35.6031C24.9813 35.6262 24.9928 35.6687 24.9991 35.723C25.0017 35.7457 25.0056 35.7878 25.0023 35.8423V36.0035L24.9057 36.1649C24.404 37.0036 23.6766 37.6426 23.0951 38.0661C22.8494 38.245 22.6229 38.3903 22.4395 38.5003C22.4631 38.6637 22.4872 38.8669 22.5076 39.114C22.579 39.7764 22.6196 40.715 22.6058 41.9637L22.5998 42.5118L22.063 42.6229L21.9251 41.9562C22.063 42.6229 22.0629 42.6229 22.0628 42.6229L22.061 42.6233L22.0578 42.624L22.048 42.6259C22.0399 42.6275 22.0289 42.6297 22.0149 42.6323C21.9871 42.6375 21.9477 42.6446 21.8979 42.653C21.7984 42.6696 21.6568 42.6912 21.4818 42.7122C21.1331 42.754 20.6466 42.794 20.093 42.7868C18.8312 42.7745 17.0223 42.5473 15.7299 41.3969C14.4371 42.5476 12.6276 42.7746 11.3657 42.7868L11.3624 42.7868H11.3592C10.81 42.7868 10.3273 42.7471 9.98136 42.7075C9.80795 42.6876 9.66778 42.6676 9.5695 42.6523C9.52033 42.6447 9.48156 42.6382 9.45427 42.6334C9.44062 42.6311 9.42984 42.6291 9.42205 42.6277L9.41262 42.626L9.40963 42.6254L9.40814 42.6252L9.40796 42.6251C9.40787 42.6251 9.40779 42.6251 9.53465 41.9562L9.40779 42.6251L8.85995 42.5212L8.85389 41.9636C8.84001 40.6866 8.89554 39.7521 8.95172 39.106L8.95223 39.1002L8.95283 39.0944C8.97751 38.8575 9.00247 38.6609 9.0255 38.5016C8.42654 38.1386 7.25622 37.3209 6.55641 36.1689L6.32568 35.789L6.58053 35.425L7.13825 35.8154C6.58053 35.425 6.58065 35.4248 6.58077 35.4246L6.58164 35.4234L6.58311 35.4213L6.58713 35.4157C6.59028 35.4112 6.5944 35.4055 6.59947 35.3986C6.60961 35.3847 6.62359 35.3658 6.6414 35.3424C6.67702 35.2957 6.72801 35.2309 6.79437 35.1515C6.92698 34.993 7.12161 34.7759 7.3781 34.5295C7.79848 34.1258 8.38973 33.6391 9.15115 33.2044C8.95036 32.4664 8.87396 31.761 8.84942 31.2112C8.83393 30.8639 8.83888 30.5726 8.84791 30.3659C8.85242 30.2624 8.85798 30.1797 8.86258 30.1214C8.86487 30.0923 8.86693 30.0692 8.8685 30.0525C8.86929 30.0442 8.86995 30.0376 8.87046 30.0326L8.87111 30.0263L8.87134 30.0242L8.87147 30.023C8.87149 30.0228 8.8715 30.0226 9.54826 30.0967L8.8715 30.0226L8.9345 29.4467L9.51309 29.4168C10.7595 29.3523 11.6751 29.4731 12.2952 29.6196C12.4234 29.6499 12.5388 29.6812 12.6416 29.7121C12.7396 29.5583 12.8628 29.3814 13.0147 29.19C13.497 28.5824 14.2682 27.8297 15.4375 27.208L15.7581 27.0376L16.0783 27.2089C17.2406 27.8308 18.0085 28.5838 18.4875 29.1921C18.6415 29.3876 18.7658 29.5684 18.864 29.7253C19.4517 29.5536 20.448 29.3688 21.9106 29.4407L21.91 29.4308L22.5584 29.3904L22.6291 30.0363L21.9523 30.1103L21.9454 29.9994L21.9446 30.014Z" fill="url(#paint40_angular_2201_104553)"/>
<path d="M15.7511 27.8093V37.2951V37.2847C15.6991 37.0561 14.8472 33.2431 12.9563 30.5626C12.9563 30.5626 13.6108 28.9522 15.7511 27.8093Z" fill="url(#paint41_linear_2201_104553)"/>
<path d="M15.7511 37.2949C13.9745 33.6793 9.54858 30.1052 9.54858 30.1052C11.9278 29.9702 12.9564 30.5624 12.9564 30.5624C14.8473 33.2429 15.6992 37.0559 15.7511 37.2949Z" fill="url(#paint42_linear_2201_104553)"/>
<path d="M15.7511 37.2951C12.946 34.7081 9.97455 33.5548 9.97455 33.5548C9.36157 31.8509 9.54858 30.1055 9.54858 30.1055C9.54858 30.1055 13.9745 33.6795 15.7511 37.2951Z" fill="url(#paint43_linear_2201_104553)"/>
<path d="M15.7512 37.2952C15.7512 37.2952 11.5434 37.5237 9.78759 38.1471C9.78759 38.1471 9.50708 39.3315 9.54863 41.9601C9.54863 41.9601 10.3382 42.116 11.3772 42.1056C12.7902 42.0952 14.6707 41.7939 15.7512 40.4017V37.2952Z" fill="url(#paint44_linear_2201_104553)"/>
<path d="M15.7511 37.2952L9.54855 41.9497C9.52777 39.1237 9.78751 38.1367 9.78751 38.1367C11.5433 37.5237 15.7511 37.2952 15.7511 37.2952Z" fill="url(#paint45_linear_2201_104553)"/>
<path d="M15.7511 37.295C12.9459 34.7079 9.97453 33.5547 9.97453 33.5547C8.09402 34.4482 7.13818 35.8196 7.13818 35.8196C7.13818 35.8196 12.0836 35.2066 15.7511 37.295Z" fill="url(#paint46_linear_2201_104553)"/>
<path d="M9.78752 38.147C11.5434 37.5236 15.7511 37.295 15.7511 37.295C12.0836 35.2067 7.13818 35.8197 7.13818 35.8197C8.03168 37.295 9.78752 38.147 9.78752 38.147Z" fill="url(#paint47_linear_2201_104553)"/>
<path d="M15.751 27.8093V37.2951V37.2847C15.8029 37.0457 16.6549 33.2431 18.5458 30.5522C18.5458 30.5626 17.8912 28.9522 15.751 27.8093Z" fill="url(#paint48_linear_2201_104553)"/>
<path d="M15.751 37.295C17.5276 33.6795 21.9535 30.1158 21.9535 30.1158C19.5743 29.9807 18.5354 30.5626 18.5354 30.5626C16.6549 33.2431 15.8029 37.0561 15.751 37.295Z" fill="url(#paint49_linear_2201_104553)"/>
<path d="M15.7512 37.2951C18.5564 34.7081 21.5278 33.5548 21.5278 33.5548C22.1408 31.8509 21.9538 30.1055 21.9538 30.1055C21.9538 30.1055 17.5278 33.6795 15.7512 37.2951Z" fill="url(#paint50_linear_2201_104553)"/>
<path d="M15.751 37.2952C15.751 37.2952 19.9587 37.5237 21.7146 38.1471C21.7146 38.1471 21.9951 39.3315 21.9535 41.9601C21.9535 41.9601 21.1639 42.116 20.125 42.1056C18.712 42.0952 16.8315 41.7939 15.751 40.4017V37.2952Z" fill="url(#paint51_linear_2201_104553)"/>
<path d="M15.751 37.2952L21.9535 41.9497C21.9743 39.1237 21.7146 38.1367 21.7146 38.1367C19.9587 37.5237 15.751 37.2952 15.751 37.2952Z" fill="url(#paint52_linear_2201_104553)"/>
<path d="M15.751 37.295C18.5562 34.7079 21.5276 33.5547 21.5276 33.5547C23.4081 34.4482 24.3639 35.8092 24.3639 35.8092C24.3639 35.8092 19.4081 35.2066 15.751 37.295Z" fill="url(#paint53_linear_2201_104553)"/>
<path d="M21.7146 38.147C19.9587 37.5236 15.751 37.295 15.751 37.295C19.4081 35.2067 24.3639 35.8197 24.3639 35.8197C23.4704 37.295 21.7146 38.147 21.7146 38.147Z" fill="url(#paint54_linear_2201_104553)"/>
</g>
<g filter="url(#filter4_d_2201_104553)">
<path d="M44.0299 33.5553C44.6426 31.8533 44.452 30.1104 44.452 30.1104C44.452 30.1104 44.452 30.1104 44.4384 30.124C42.1645 30.0015 41.1161 30.5325 41.0344 30.5734C41.0344 30.5734 41.0344 30.5734 41.0344 30.5598C41.048 30.5598 40.3945 28.9531 38.2568 27.8093C36.1055 28.9531 35.4519 30.5598 35.4519 30.5598C35.4519 30.5598 34.4171 29.9743 32.0479 30.0968C32.0479 30.0968 31.8573 31.8397 32.47 33.5417C30.591 34.4539 29.6379 35.8155 29.6379 35.8155C30.523 37.2725 32.2386 38.1167 32.2794 38.1439C32.2658 38.1983 32.1977 38.5115 32.1296 39.1651C32.0752 39.7914 32.0207 40.7037 32.0343 41.9564C32.0343 41.9564 32.8241 42.1061 33.8589 42.1061C35.2749 42.0925 37.1539 41.793 38.2295 40.4041C39.3052 41.793 41.1842 42.0925 42.6002 42.1061C43.635 42.1198 44.4248 41.9564 44.4248 41.9564C44.4384 40.7173 44.3975 39.805 44.3295 39.1787C44.275 38.5115 44.1933 38.1983 44.1797 38.1439C44.2341 38.1167 45.9497 37.2725 46.8212 35.8155V35.8019C46.862 35.8155 45.9089 34.4539 44.0299 33.5553Z" fill="url(#paint55_linear_2201_104553)"/>
<path fill-rule="evenodd" clip-rule="evenodd" d="M44.4801 30.8079C44.4779 31.4721 44.4022 32.5212 44.03 33.5551C44.9661 34.0028 45.6723 34.5654 46.1404 35.0156C46.2347 35.1063 46.3193 35.1924 46.3941 35.272C46.6703 35.5661 46.8142 35.7728 46.8221 35.799C46.8226 35.8006 46.8226 35.8015 46.8221 35.8018C46.8219 35.8019 46.8216 35.8019 46.8212 35.8018V35.8154C46.8178 35.821 46.8144 35.8267 46.811 35.8323C45.9453 37.2643 44.2681 38.0997 44.1819 38.1427L44.1797 38.1437L44.1809 38.1484C44.1975 38.2144 44.2764 38.5284 44.3295 39.1785C44.3976 39.8049 44.4384 40.7172 44.4248 41.9562C44.4248 41.9562 43.6351 42.1196 42.6003 42.106C41.3736 42.0942 39.7996 41.8678 38.7012 40.9047C38.5317 40.756 38.3735 40.5897 38.2296 40.404C38.0858 40.5897 37.9275 40.756 37.758 40.9047C36.6597 41.8678 35.0856 42.0942 33.8589 42.106C32.8241 42.106 32.0344 41.9562 32.0344 41.9562C32.0208 40.7035 32.0752 39.7913 32.1297 39.1649C32.1978 38.5114 32.2659 38.1982 32.2795 38.1437C32.2767 38.1419 32.2659 38.1361 32.248 38.1265C32.006 37.9972 30.462 37.1718 29.638 35.8154C29.638 35.8154 30.5911 34.4538 32.4701 33.5415C31.8574 31.8395 32.048 30.0967 32.048 30.0967C33.5918 30.0168 34.569 30.2376 35.0626 30.4011C35.3264 30.4886 35.452 30.5596 35.452 30.5596C35.452 30.5596 35.5457 30.3292 35.7789 29.9809C36.1617 29.4092 36.9202 28.5198 38.2568 27.8092C39.5084 28.4788 40.2513 29.3071 40.6493 29.8788C40.6693 29.9075 40.6884 29.9356 40.7067 29.9629C40.7089 29.9662 40.711 29.9695 40.7132 29.9727C40.7487 30.0262 40.781 30.0769 40.8101 30.1245C40.9632 30.3745 41.0303 30.5382 41.0345 30.5577C41.0348 30.559 41.0348 30.5596 41.0345 30.5596V30.5732L41.0358 30.5726C41.0412 30.5699 41.05 30.5655 41.0622 30.5596C41.1367 30.5239 41.339 30.4341 41.681 30.3437C42.2166 30.2021 43.0951 30.059 44.3628 30.12C44.3879 30.1212 44.4131 30.1225 44.4384 30.1239L44.4521 30.1103C44.4521 30.1103 44.4532 30.1206 44.455 30.1404C44.4568 30.1604 44.4593 30.19 44.462 30.2285C44.4704 30.3465 44.4809 30.5477 44.4801 30.8079ZM44.4444 30.014C44.4474 30.0443 44.45 30.0764 44.4521 30.1103C45.1288 30.0363 45.1288 30.0364 45.1289 30.0366L45.129 30.0378L45.1292 30.0399L45.1299 30.0462C45.1304 30.0512 45.131 30.0579 45.1318 30.0662C45.1334 30.0828 45.1355 30.1059 45.1377 30.135C45.1423 30.1933 45.1479 30.276 45.1524 30.3795C45.1614 30.5862 45.1664 30.8775 45.1509 31.2248C45.1264 31.7739 45.0502 32.4781 44.85 33.2151C45.6104 33.6448 46.2009 34.1284 46.6179 34.5303C46.8726 34.7758 47.0657 34.9936 47.196 35.1549C47.2606 35.2348 47.3132 35.305 47.3517 35.3612C47.3688 35.3862 47.3925 35.422 47.4137 35.4605L47.4144 35.4617C47.4206 35.4729 47.4519 35.5293 47.4741 35.6031C47.4811 35.6262 47.4926 35.6687 47.4988 35.723C47.5014 35.7457 47.5054 35.7878 47.502 35.8423V36.0035L47.4055 36.1649C46.9038 37.0036 46.1764 37.6426 45.5949 38.0661C45.3492 38.245 45.1227 38.3903 44.9393 38.5003C44.9629 38.6637 44.987 38.8669 45.0073 39.114C45.0787 39.7764 45.1193 40.715 45.1056 41.9637L45.0996 42.5118L44.5628 42.6229L44.4248 41.9562C44.5628 42.6229 44.5627 42.6229 44.5626 42.6229L44.5607 42.6233L44.5576 42.624L44.5477 42.6259C44.5397 42.6275 44.5286 42.6297 44.5147 42.6323C44.4869 42.6375 44.4475 42.6446 44.3977 42.653C44.2982 42.6696 44.1566 42.6912 43.9816 42.7122C43.6329 42.754 43.1464 42.794 42.5927 42.7868C41.3309 42.7745 39.522 42.5473 38.2296 41.3969C36.9369 42.5476 35.1273 42.7746 33.8655 42.7868L33.8622 42.7868H33.8589C33.3098 42.7868 32.8271 42.7471 32.4811 42.7075C32.3077 42.6876 32.1675 42.6676 32.0693 42.6523C32.0201 42.6447 31.9813 42.6382 31.954 42.6334C31.9404 42.6311 31.9296 42.6291 31.9218 42.6277L31.9124 42.626L31.9094 42.6254L31.9079 42.6252L31.9077 42.6251C31.9076 42.6251 31.9075 42.6251 32.0344 41.9562L31.9075 42.6251L31.3597 42.5212L31.3536 41.9636C31.3398 40.6866 31.3953 39.7521 31.4515 39.106L31.452 39.1002L31.4526 39.0944C31.4773 38.8575 31.5022 38.6609 31.5253 38.5016C30.9263 38.1386 29.756 37.3209 29.0562 36.1689L28.8254 35.789L29.0803 35.425L29.638 35.8154C29.0803 35.425 29.0804 35.4248 29.0805 35.4246L29.0814 35.4234L29.0829 35.4213L29.0869 35.4157C29.09 35.4112 29.0942 35.4055 29.0992 35.3986C29.1094 35.3847 29.1233 35.3658 29.1412 35.3424C29.1768 35.2957 29.2278 35.2309 29.2941 35.1515C29.4267 34.993 29.6214 34.7759 29.8779 34.5295C30.2982 34.1258 30.8895 33.6391 31.6509 33.2044C31.4501 32.4664 31.3737 31.761 31.3492 31.2112C31.3337 30.8639 31.3386 30.5726 31.3477 30.3659C31.3522 30.2624 31.3577 30.1797 31.3623 30.1214C31.3646 30.0923 31.3667 30.0692 31.3683 30.0525C31.369 30.0442 31.3697 30.0376 31.3702 30.0326L31.3709 30.0263L31.3711 30.0242L31.3712 30.023C31.3712 30.0228 31.3713 30.0226 32.048 30.0967L31.3713 30.0226L31.4343 29.4467L32.0129 29.4168C33.2592 29.3523 34.1748 29.4731 34.7949 29.6196C34.9231 29.6499 35.0385 29.6812 35.1413 29.7121C35.2393 29.5583 35.3625 29.3814 35.5144 29.19C35.9968 28.5824 36.768 27.8297 37.9373 27.208L38.2579 27.0376L38.578 27.2089C39.7403 27.8308 40.5082 28.5838 40.9873 29.1921C41.1412 29.3876 41.2655 29.5684 41.3637 29.7253C41.9515 29.5536 42.9478 29.3688 44.4104 29.4407L44.4098 29.4308L45.0582 29.3904L45.1288 30.0363L44.4521 30.1103L44.4452 29.9994L44.4444 30.014Z" fill="black"/>
<path fill-rule="evenodd" clip-rule="evenodd" d="M44.4801 30.8079C44.4779 31.4721 44.4022 32.5212 44.03 33.5551C44.9661 34.0028 45.6723 34.5654 46.1404 35.0156C46.2347 35.1063 46.3193 35.1924 46.3941 35.272C46.6703 35.5661 46.8142 35.7728 46.8221 35.799C46.8226 35.8006 46.8226 35.8015 46.8221 35.8018C46.8219 35.8019 46.8216 35.8019 46.8212 35.8018V35.8154C46.8178 35.821 46.8144 35.8267 46.811 35.8323C45.9453 37.2643 44.2681 38.0997 44.1819 38.1427L44.1797 38.1437L44.1809 38.1484C44.1975 38.2144 44.2764 38.5284 44.3295 39.1785C44.3976 39.8049 44.4384 40.7172 44.4248 41.9562C44.4248 41.9562 43.6351 42.1196 42.6003 42.106C41.3736 42.0942 39.7996 41.8678 38.7012 40.9047C38.5317 40.756 38.3735 40.5897 38.2296 40.404C38.0858 40.5897 37.9275 40.756 37.758 40.9047C36.6597 41.8678 35.0856 42.0942 33.8589 42.106C32.8241 42.106 32.0344 41.9562 32.0344 41.9562C32.0208 40.7035 32.0752 39.7913 32.1297 39.1649C32.1978 38.5114 32.2659 38.1982 32.2795 38.1437C32.2767 38.1419 32.2659 38.1361 32.248 38.1265C32.006 37.9972 30.462 37.1718 29.638 35.8154C29.638 35.8154 30.5911 34.4538 32.4701 33.5415C31.8574 31.8395 32.048 30.0967 32.048 30.0967C33.5918 30.0168 34.569 30.2376 35.0626 30.4011C35.3264 30.4886 35.452 30.5596 35.452 30.5596C35.452 30.5596 35.5457 30.3292 35.7789 29.9809C36.1617 29.4092 36.9202 28.5198 38.2568 27.8092C39.5084 28.4788 40.2513 29.3071 40.6493 29.8788C40.6693 29.9075 40.6884 29.9356 40.7067 29.9629C40.7089 29.9662 40.711 29.9695 40.7132 29.9727C40.7487 30.0262 40.781 30.0769 40.8101 30.1245C40.9632 30.3745 41.0303 30.5382 41.0345 30.5577C41.0348 30.559 41.0348 30.5596 41.0345 30.5596V30.5732L41.0358 30.5726C41.0412 30.5699 41.05 30.5655 41.0622 30.5596C41.1367 30.5239 41.339 30.4341 41.681 30.3437C42.2166 30.2021 43.0951 30.059 44.3628 30.12C44.3879 30.1212 44.4131 30.1225 44.4384 30.1239L44.4521 30.1103C44.4521 30.1103 44.4532 30.1206 44.455 30.1404C44.4568 30.1604 44.4593 30.19 44.462 30.2285C44.4704 30.3465 44.4809 30.5477 44.4801 30.8079ZM44.4444 30.014C44.4474 30.0443 44.45 30.0764 44.4521 30.1103C45.1288 30.0363 45.1288 30.0364 45.1289 30.0366L45.129 30.0378L45.1292 30.0399L45.1299 30.0462C45.1304 30.0512 45.131 30.0579 45.1318 30.0662C45.1334 30.0828 45.1355 30.1059 45.1377 30.135C45.1423 30.1933 45.1479 30.276 45.1524 30.3795C45.1614 30.5862 45.1664 30.8775 45.1509 31.2248C45.1264 31.7739 45.0502 32.4781 44.85 33.2151C45.6104 33.6448 46.2009 34.1284 46.6179 34.5303C46.8726 34.7758 47.0657 34.9936 47.196 35.1549C47.2606 35.2348 47.3132 35.305 47.3517 35.3612C47.3688 35.3862 47.3925 35.422 47.4137 35.4605L47.4144 35.4617C47.4206 35.4729 47.4519 35.5293 47.4741 35.6031C47.4811 35.6262 47.4926 35.6687 47.4988 35.723C47.5014 35.7457 47.5054 35.7878 47.502 35.8423V36.0035L47.4055 36.1649C46.9038 37.0036 46.1764 37.6426 45.5949 38.0661C45.3492 38.245 45.1227 38.3903 44.9393 38.5003C44.9629 38.6637 44.987 38.8669 45.0073 39.114C45.0787 39.7764 45.1193 40.715 45.1056 41.9637L45.0996 42.5118L44.5628 42.6229L44.4248 41.9562C44.5628 42.6229 44.5627 42.6229 44.5626 42.6229L44.5607 42.6233L44.5576 42.624L44.5477 42.6259C44.5397 42.6275 44.5286 42.6297 44.5147 42.6323C44.4869 42.6375 44.4475 42.6446 44.3977 42.653C44.2982 42.6696 44.1566 42.6912 43.9816 42.7122C43.6329 42.754 43.1464 42.794 42.5927 42.7868C41.3309 42.7745 39.522 42.5473 38.2296 41.3969C36.9369 42.5476 35.1273 42.7746 33.8655 42.7868L33.8622 42.7868H33.8589C33.3098 42.7868 32.8271 42.7471 32.4811 42.7075C32.3077 42.6876 32.1675 42.6676 32.0693 42.6523C32.0201 42.6447 31.9813 42.6382 31.954 42.6334C31.9404 42.6311 31.9296 42.6291 31.9218 42.6277L31.9124 42.626L31.9094 42.6254L31.9079 42.6252L31.9077 42.6251C31.9076 42.6251 31.9075 42.6251 32.0344 41.9562L31.9075 42.6251L31.3597 42.5212L31.3536 41.9636C31.3398 40.6866 31.3953 39.7521 31.4515 39.106L31.452 39.1002L31.4526 39.0944C31.4773 38.8575 31.5022 38.6609 31.5253 38.5016C30.9263 38.1386 29.756 37.3209 29.0562 36.1689L28.8254 35.789L29.0803 35.425L29.638 35.8154C29.0803 35.425 29.0804 35.4248 29.0805 35.4246L29.0814 35.4234L29.0829 35.4213L29.0869 35.4157C29.09 35.4112 29.0942 35.4055 29.0992 35.3986C29.1094 35.3847 29.1233 35.3658 29.1412 35.3424C29.1768 35.2957 29.2278 35.2309 29.2941 35.1515C29.4267 34.993 29.6214 34.7759 29.8779 34.5295C30.2982 34.1258 30.8895 33.6391 31.6509 33.2044C31.4501 32.4664 31.3737 31.761 31.3492 31.2112C31.3337 30.8639 31.3386 30.5726 31.3477 30.3659C31.3522 30.2624 31.3577 30.1797 31.3623 30.1214C31.3646 30.0923 31.3667 30.0692 31.3683 30.0525C31.369 30.0442 31.3697 30.0376 31.3702 30.0326L31.3709 30.0263L31.3711 30.0242L31.3712 30.023C31.3712 30.0228 31.3713 30.0226 32.048 30.0967L31.3713 30.0226L31.4343 29.4467L32.0129 29.4168C33.2592 29.3523 34.1748 29.4731 34.7949 29.6196C34.9231 29.6499 35.0385 29.6812 35.1413 29.7121C35.2393 29.5583 35.3625 29.3814 35.5144 29.19C35.9968 28.5824 36.768 27.8297 37.9373 27.208L38.2579 27.0376L38.578 27.2089C39.7403 27.8308 40.5082 28.5838 40.9873 29.1921C41.1412 29.3876 41.2655 29.5684 41.3637 29.7253C41.9515 29.5536 42.9478 29.3688 44.4104 29.4407L44.4098 29.4308L45.0582 29.3904L45.1288 30.0363L44.4521 30.1103L44.4452 29.9994L44.4444 30.014Z" fill="url(#paint56_angular_2201_104553)"/>
<path d="M38.2508 27.8093V37.2951V37.2847C38.1989 37.0561 37.347 33.2431 35.4561 30.5626C35.4561 30.5626 36.1106 28.9522 38.2508 27.8093Z" fill="url(#paint57_linear_2201_104553)"/>
<path d="M38.2509 37.2949C36.4743 33.6793 32.0483 30.1052 32.0483 30.1052C34.4275 29.9702 35.4561 30.5624 35.4561 30.5624C37.347 33.2429 38.199 37.0559 38.2509 37.2949Z" fill="url(#paint58_linear_2201_104553)"/>
<path d="M38.2509 37.2951C35.4457 34.7081 32.4743 33.5548 32.4743 33.5548C31.8613 31.8509 32.0483 30.1055 32.0483 30.1055C32.0483 30.1055 36.4743 33.6795 38.2509 37.2951Z" fill="url(#paint59_linear_2201_104553)"/>
<path d="M38.2509 37.2952C38.2509 37.2952 34.0432 37.5237 32.2873 38.1471C32.2873 38.1471 32.0068 39.3315 32.0484 41.9601C32.0484 41.9601 32.838 42.116 33.8769 42.1056C35.2899 42.0952 37.1704 41.7939 38.2509 40.4017V37.2952Z" fill="url(#paint60_linear_2201_104553)"/>
<path d="M38.2509 37.2952L32.0483 41.9497C32.0275 39.1237 32.2873 38.1367 32.2873 38.1367C34.0431 37.5237 38.2509 37.2952 38.2509 37.2952Z" fill="url(#paint61_linear_2201_104553)"/>
<path d="M38.2509 37.295C35.4457 34.7079 32.4743 33.5547 32.4743 33.5547C30.5938 34.4482 29.6379 35.8196 29.6379 35.8196C29.6379 35.8196 34.5834 35.2066 38.2509 37.295Z" fill="url(#paint62_linear_2201_104553)"/>
<path d="M32.2873 38.147C34.0431 37.5236 38.2509 37.295 38.2509 37.295C34.5834 35.2067 29.6379 35.8197 29.6379 35.8197C30.5314 37.295 32.2873 38.147 32.2873 38.147Z" fill="url(#paint63_linear_2201_104553)"/>
<path d="M38.2507 27.8093V37.2951V37.2847C38.3027 37.0457 39.1546 33.2431 41.0455 30.5522C41.0455 30.5626 40.391 28.9522 38.2507 27.8093Z" fill="url(#paint64_linear_2201_104553)"/>
<path d="M38.2507 37.295C40.0273 33.6795 44.4533 30.1158 44.4533 30.1158C42.0741 29.9807 41.0351 30.5626 41.0351 30.5626C39.1546 33.2431 38.3027 37.0561 38.2507 37.295Z" fill="url(#paint65_linear_2201_104553)"/>
<path d="M38.251 37.2951C41.0562 34.7081 44.0276 33.5548 44.0276 33.5548C44.6405 31.8509 44.4535 30.1055 44.4535 30.1055C44.4535 30.1055 40.0276 33.6795 38.251 37.2951Z" fill="url(#paint66_linear_2201_104553)"/>
<path d="M38.2507 37.2952C38.2507 37.2952 42.4585 37.5237 44.2143 38.1471C44.2143 38.1471 44.4948 39.3315 44.4533 41.9601C44.4533 41.9601 43.6637 42.116 42.6247 42.1056C41.2118 42.0952 39.3312 41.7939 38.2507 40.4017V37.2952Z" fill="url(#paint67_linear_2201_104553)"/>
<path d="M38.2507 37.2952L44.4533 41.9497C44.4741 39.1237 44.2143 38.1367 44.2143 38.1367C42.4585 37.5237 38.2507 37.2952 38.2507 37.2952Z" fill="url(#paint68_linear_2201_104553)"/>
<path d="M38.2507 37.295C41.0559 34.7079 44.0273 33.5547 44.0273 33.5547C45.9078 34.4482 46.8637 35.8092 46.8637 35.8092C46.8637 35.8092 41.9079 35.2066 38.2507 37.295Z" fill="url(#paint69_linear_2201_104553)"/>
<path d="M44.2143 38.147C42.4585 37.5236 38.2507 37.295 38.2507 37.295C41.9079 35.2067 46.8637 35.8197 46.8637 35.8197C45.9702 37.295 44.2143 38.147 44.2143 38.147Z" fill="url(#paint70_linear_2201_104553)"/>
</g>
<rect x="2.25" y="49.05" width="49.4995" height="2.7" rx="0.449998" fill="#191919"/>
<path d="M2.25 50.175C2.25 49.5537 2.75368 49.05 3.37499 49.05H26.9998V51.75H3.37499C2.75368 51.75 2.25 51.2464 2.25 50.6251V50.175Z" fill="url(#paint71_radial_2201_104553)"/>
<g filter="url(#filter5_dd_2201_104553)">
<rect x="2.3625" y="49.1625" width="49.2746" height="2.475" rx="0.337498" stroke="url(#paint72_linear_2201_104553)" stroke-width="0.224999"/>
</g>
<g filter="url(#filter6_dd_2201_104553)">
<path d="M26.9998 49.05V51.75" stroke="url(#paint73_linear_2201_104553)" stroke-width="0.224999"/>
</g>
</g>
<defs>
<filter id="filter0_i_2201_104553" x="0" y="0" width="53.9995" height="54.9" filterUnits="userSpaceOnUse" color-interpolation-filters="sRGB">
<feFlood flood-opacity="0" result="BackgroundImageFix"/>
<feBlend mode="normal" in="SourceGraphic" in2="BackgroundImageFix" result="shape"/>
<feColorMatrix in="SourceAlpha" type="matrix" values="0 0 0 0 0 0 0 0 0 0 0 0 0 0 0 0 0 0 127 0" result="hardAlpha"/>
<feOffset dy="0.899996"/>
<feGaussianBlur stdDeviation="0.449998"/>
<feComposite in2="hardAlpha" operator="arithmetic" k2="-1" k3="1"/>
<feColorMatrix type="matrix" values="0 0 0 0 0 0 0 0 0 0 0 0 0 0 0 0 0 0 0.25 0"/>
<feBlend mode="normal" in2="shape" result="effect1_innerShadow_2201_104553"/>
</filter>
<filter id="filter1_d_2201_104553" x="-0.482286" y="1.77894" width="32.2939" height="29.3659" filterUnits="userSpaceOnUse" color-interpolation-filters="sRGB">
<feFlood flood-opacity="0" result="BackgroundImageFix"/>
<feColorMatrix in="SourceAlpha" type="matrix" values="0 0 0 0 0 0 0 0 0 0 0 0 0 0 0 0 0 0 127 0" result="hardAlpha"/>
<feOffset/>
<feGaussianBlur stdDeviation="3.40399"/>
<feColorMatrix type="matrix" values="0 0 0 0 0 0 0 0 0 0 0 0 0 0 0 0 0 0 0.8 0"/>
<feBlend mode="normal" in2="BackgroundImageFix" result="effect1_dropShadow_2201_104553"/>
<feBlend mode="normal" in="SourceGraphic" in2="effect1_dropShadow_2201_104553" result="shape"/>
</filter>
<filter id="filter2_d_2201_104553" x="22.0175" y="1.77894" width="32.2939" height="29.3659" filterUnits="userSpaceOnUse" color-interpolation-filters="sRGB">
<feFlood flood-opacity="0" result="BackgroundImageFix"/>
<feColorMatrix in="SourceAlpha" type="matrix" values="0 0 0 0 0 0 0 0 0 0 0 0 0 0 0 0 0 0 127 0" result="hardAlpha"/>
<feOffset/>
<feGaussianBlur stdDeviation="3.40399"/>
<feColorMatrix type="matrix" values="0 0 0 0 0 0 0 0 0 0 0 0 0 0 0 0 0 0 0.8 0"/>
<feBlend mode="normal" in2="BackgroundImageFix" result="effect1_dropShadow_2201_104553"/>
<feBlend mode="normal" in="SourceGraphic" in2="effect1_dropShadow_2201_104553" result="shape"/>
</filter>
<filter id="filter3_d_2201_104553" x="-0.482286" y="20.2296" width="32.2939" height="29.3659" filterUnits="userSpaceOnUse" color-interpolation-filters="sRGB">
<feFlood flood-opacity="0" result="BackgroundImageFix"/>
<feColorMatrix in="SourceAlpha" type="matrix" values="0 0 0 0 0 0 0 0 0 0 0 0 0 0 0 0 0 0 127 0" result="hardAlpha"/>
<feOffset/>
<feGaussianBlur stdDeviation="3.40399"/>
<feColorMatrix type="matrix" values="0 0 0 0 0 0 0 0 0 0 0 0 0 0 0 0 0 0 0.8 0"/>
<feBlend mode="normal" in2="BackgroundImageFix" result="effect1_dropShadow_2201_104553"/>
<feBlend mode="normal" in="SourceGraphic" in2="effect1_dropShadow_2201_104553" result="shape"/>
</filter>
<filter id="filter4_d_2201_104553" x="22.0175" y="20.2296" width="32.2939" height="29.3659" filterUnits="userSpaceOnUse" color-interpolation-filters="sRGB">
<feFlood flood-opacity="0" result="BackgroundImageFix"/>
<feColorMatrix in="SourceAlpha" type="matrix" values="0 0 0 0 0 0 0 0 0 0 0 0 0 0 0 0 0 0 127 0" result="hardAlpha"/>
<feOffset/>
<feGaussianBlur stdDeviation="3.40399"/>
<feColorMatrix type="matrix" values="0 0 0 0 0 0 0 0 0 0 0 0 0 0 0 0 0 0 0.8 0"/>
<feBlend mode="normal" in2="BackgroundImageFix" result="effect1_dropShadow_2201_104553"/>
<feBlend mode="normal" in="SourceGraphic" in2="effect1_dropShadow_2201_104553" result="shape"/>
</filter>
<filter id="filter5_dd_2201_104553" x="1.35" y="48.1501" width="51.2995" height="4.49994" filterUnits="userSpaceOnUse" color-interpolation-filters="sRGB">
<feFlood flood-opacity="0" result="BackgroundImageFix"/>
<feColorMatrix in="SourceAlpha" type="matrix" values="0 0 0 0 0 0 0 0 0 0 0 0 0 0 0 0 0 0 127 0" result="hardAlpha"/>
<feOffset/>
<feGaussianBlur stdDeviation="0.449998"/>
<feColorMatrix type="matrix" values="0 0 0 0 0 0 0 0 0 0 0 0 0 0 0 0 0 0 1 0"/>
<feBlend mode="normal" in2="BackgroundImageFix" result="effect1_dropShadow_2201_104553"/>
<feColorMatrix in="SourceAlpha" type="matrix" values="0 0 0 0 0 0 0 0 0 0 0 0 0 0 0 0 0 0 127 0" result="hardAlpha"/>
<feOffset/>
<feGaussianBlur stdDeviation="0.224999"/>
<feColorMatrix type="matrix" values="0 0 0 0 0 0 0 0 0 0 0 0 0 0 0 0 0 0 1 0"/>
<feBlend mode="normal" in2="effect1_dropShadow_2201_104553" result="effect2_dropShadow_2201_104553"/>
<feBlend mode="normal" in="SourceGraphic" in2="effect2_dropShadow_2201_104553" result="shape"/>
</filter>
<filter id="filter6_dd_2201_104553" x="25.9872" y="48.1501" width="2.02509" height="4.49994" filterUnits="userSpaceOnUse" color-interpolation-filters="sRGB">
<feFlood flood-opacity="0" result="BackgroundImageFix"/>
<feColorMatrix in="SourceAlpha" type="matrix" values="0 0 0 0 0 0 0 0 0 0 0 0 0 0 0 0 0 0 127 0" result="hardAlpha"/>
<feOffset/>
<feGaussianBlur stdDeviation="0.449998"/>
<feColorMatrix type="matrix" values="0 0 0 0 0 0 0 0 0 0 0 0 0 0 0 0 0 0 1 0"/>
<feBlend mode="normal" in2="BackgroundImageFix" result="effect1_dropShadow_2201_104553"/>
<feColorMatrix in="SourceAlpha" type="matrix" values="0 0 0 0 0 0 0 0 0 0 0 0 0 0 0 0 0 0 127 0" result="hardAlpha"/>
<feOffset/>
<feGaussianBlur stdDeviation="0.224999"/>
<feColorMatrix type="matrix" values="0 0 0 0 0 0 0 0 0 0 0 0 0 0 0 0 0 0 1 0"/>
<feBlend mode="normal" in2="effect1_dropShadow_2201_104553" result="effect2_dropShadow_2201_104553"/>
<feBlend mode="normal" in="SourceGraphic" in2="effect2_dropShadow_2201_104553" result="shape"/>
</filter>
<linearGradient id="paint0_linear_2201_104553" x1="26.9998" y1="0" x2="26.9998" y2="54" gradientUnits="userSpaceOnUse">
<stop stop-color="#101010"/>
<stop offset="1" stop-color="#131313"/>
</linearGradient>
<linearGradient id="paint1_linear_2201_104553" x1="53.9995" y1="-1.83743e-06" x2="-0.000490116" y2="53.9995" gradientUnits="userSpaceOnUse">
<stop stop-color="#EDDE79"/>
<stop offset="0.685495" stop-color="#D69A2D"/>
<stop offset="1" stop-color="#F9F093"/>
</linearGradient>
<linearGradient id="paint2_linear_2201_104553" x1="203.938" y1="-15.0134" x2="162.737" y2="110.512" gradientUnits="userSpaceOnUse">
<stop stop-color="white"/>
<stop offset="0.3172" stop-color="#EDDE79"/>
<stop offset="0.6237" stop-color="#D69A2D"/>
<stop offset="0.8978" stop-color="#F9F093"/>
</linearGradient>
<linearGradient id="paint3_linear_2201_104553" x1="-3.14997" y1="-2.8125" x2="44.3032" y2="-10.0017" gradientUnits="userSpaceOnUse">
<stop stop-color="white"/>
<stop offset="0.3172" stop-color="#EDDE79"/>
<stop offset="0.6237" stop-color="#D69A2D"/>
<stop offset="0.8978" stop-color="#F9F093"/>
</linearGradient>
<linearGradient id="paint4_linear_2201_104553" x1="14.5124" y1="1.12451" x2="14.5124" y2="52.8745" gradientUnits="userSpaceOnUse">
<stop stop-color="#F4E181"/>
<stop offset="1" stop-color="#F4E181" stop-opacity="0"/>
</linearGradient>
<linearGradient id="paint5_linear_2201_104553" x1="26.8874" y1="1.12451" x2="26.8874" y2="52.8745" gradientUnits="userSpaceOnUse">
<stop stop-color="#F4E181"/>
<stop offset="1" stop-color="#F4E181" stop-opacity="0"/>
</linearGradient>
<linearGradient id="paint6_linear_2201_104553" x1="39.2621" y1="1.12451" x2="39.2621" y2="52.8745" gradientUnits="userSpaceOnUse">
<stop stop-color="#F4E181"/>
<stop offset="1" stop-color="#F4E181" stop-opacity="0"/>
</linearGradient>
<linearGradient id="paint7_linear_2201_104553" x1="20.3854" y1="-10.9043" x2="9.27304" y2="56.889" gradientUnits="userSpaceOnUse">
<stop stop-color="white"/>
<stop offset="0.3172" stop-color="#EDDE79"/>
<stop offset="0.6237" stop-color="#D69A2D"/>
<stop offset="0.8978" stop-color="#F9F093"/>
</linearGradient>
<radialGradient id="paint8_angular_2201_104553" cx="0" cy="0" r="1" gradientUnits="userSpaceOnUse" gradientTransform="translate(15.7305 17.1775) rotate(-44.8888) scale(7.25297 7.25292)">
<stop offset="0.10135" stop-color="#EDDE79"/>
<stop offset="0.371555" stop-color="white"/>
<stop offset="0.619704" stop-color="#D69A2D"/>
<stop offset="0.879496" stop-color="#F9F093"/>
</radialGradient>
<linearGradient id="paint9_linear_2201_104553" x1="22.151" y1="26.0333" x2="10.1852" y2="12.305" gradientUnits="userSpaceOnUse">
<stop stop-color="white"/>
<stop offset="0.3172" stop-color="#EDDE79"/>
<stop offset="0.6237" stop-color="#D69A2D"/>
<stop offset="0.8978" stop-color="#F9F093"/>
</linearGradient>
<linearGradient id="paint10_linear_2201_104553" x1="5.21612" y1="2.91612" x2="19.7478" y2="6.03061" gradientUnits="userSpaceOnUse">
<stop stop-color="white"/>
<stop offset="0.3172" stop-color="#EDDE79"/>
<stop offset="0.6237" stop-color="#D69A2D"/>
<stop offset="0.8978" stop-color="#F9F093"/>
</linearGradient>
<linearGradient id="paint11_linear_2201_104553" x1="13.3648" y1="12.4193" x2="8.67506" y2="20.571" gradientUnits="userSpaceOnUse">
<stop stop-color="white"/>
<stop offset="0.3172" stop-color="#EDDE79"/>
<stop offset="0.6237" stop-color="#D69A2D"/>
<stop offset="0.8978" stop-color="#F9F093"/>
</linearGradient>
<linearGradient id="paint12_linear_2201_104553" x1="25.2099" y1="8.74499" x2="28.6176" y2="18.3265" gradientUnits="userSpaceOnUse">
<stop stop-color="white"/>
<stop offset="0.3172" stop-color="#EDDE79"/>
<stop offset="0.6237" stop-color="#D69A2D"/>
<stop offset="0.8978" stop-color="#F9F093"/>
</linearGradient>
<linearGradient id="paint13_linear_2201_104553" x1="17.2948" y1="27.8981" x2="8.44852" y2="18.6131" gradientUnits="userSpaceOnUse">
<stop stop-color="white"/>
<stop offset="0.3172" stop-color="#EDDE79"/>
<stop offset="0.6237" stop-color="#D69A2D"/>
<stop offset="0.8978" stop-color="#F9F093"/>
</linearGradient>
<linearGradient id="paint14_linear_2201_104553" x1="17.2957" y1="23.1691" x2="14.8742" y2="9.11632" gradientUnits="userSpaceOnUse">
<stop stop-color="white"/>
<stop offset="0.3172" stop-color="#EDDE79"/>
<stop offset="0.6237" stop-color="#D69A2D"/>
<stop offset="0.8978" stop-color="#F9F093"/>
</linearGradient>
<linearGradient id="paint15_linear_2201_104553" x1="17.2957" y1="22.4841" x2="15.4584" y2="11.2748" gradientUnits="userSpaceOnUse">
<stop stop-color="white"/>
<stop offset="0.3172" stop-color="#EDDE79"/>
<stop offset="0.6237" stop-color="#D69A2D"/>
<stop offset="0.8978" stop-color="#F9F093"/>
</linearGradient>
<linearGradient id="paint16_linear_2201_104553" x1="11.1046" y1="18.8291" x2="23.1251" y2="7.98906" gradientUnits="userSpaceOnUse">
<stop stop-color="white"/>
<stop offset="0.3172" stop-color="#EDDE79"/>
<stop offset="0.6237" stop-color="#D69A2D"/>
<stop offset="0.8978" stop-color="#F9F093"/>
</linearGradient>
<linearGradient id="paint17_linear_2201_104553" x1="16.1467" y1="11.0425" x2="21.8677" y2="15.9793" gradientUnits="userSpaceOnUse">
<stop stop-color="white"/>
<stop offset="0.3172" stop-color="#EDDE79"/>
<stop offset="0.6237" stop-color="#D69A2D"/>
<stop offset="0.8978" stop-color="#F9F093"/>
</linearGradient>
<linearGradient id="paint18_linear_2201_104553" x1="23.4228" y1="10.6597" x2="18.8046" y2="24.1361" gradientUnits="userSpaceOnUse">
<stop stop-color="white"/>
<stop offset="0.3172" stop-color="#EDDE79"/>
<stop offset="0.6237" stop-color="#D69A2D"/>
<stop offset="0.8978" stop-color="#F9F093"/>
</linearGradient>
<linearGradient id="paint19_linear_2201_104553" x1="23.5022" y1="28.2023" x2="14.3492" y2="18.903" gradientUnits="userSpaceOnUse">
<stop stop-color="white"/>
<stop offset="0.3172" stop-color="#EDDE79"/>
<stop offset="0.6237" stop-color="#D69A2D"/>
<stop offset="0.8978" stop-color="#F9F093"/>
</linearGradient>
<linearGradient id="paint20_linear_2201_104553" x1="28.337" y1="14.4892" x2="16.8948" y2="20.8604" gradientUnits="userSpaceOnUse">
<stop stop-color="white"/>
<stop offset="0.3172" stop-color="#EDDE79"/>
<stop offset="0.6237" stop-color="#D69A2D"/>
<stop offset="0.8978" stop-color="#F9F093"/>
</linearGradient>
<linearGradient id="paint21_linear_2201_104553" x1="25.9085" y1="23.1691" x2="23.487" y2="9.11632" gradientUnits="userSpaceOnUse">
<stop stop-color="white"/>
<stop offset="0.3172" stop-color="#EDDE79"/>
<stop offset="0.6237" stop-color="#D69A2D"/>
<stop offset="0.8978" stop-color="#F9F093"/>
</linearGradient>
<linearGradient id="paint22_linear_2201_104553" x1="25.9085" y1="22.4841" x2="24.0712" y2="11.2748" gradientUnits="userSpaceOnUse">
<stop stop-color="white"/>
<stop offset="0.3172" stop-color="#EDDE79"/>
<stop offset="0.6237" stop-color="#D69A2D"/>
<stop offset="0.8978" stop-color="#F9F093"/>
</linearGradient>
<linearGradient id="paint23_linear_2201_104553" x1="42.8854" y1="-10.9043" x2="31.773" y2="56.889" gradientUnits="userSpaceOnUse">
<stop stop-color="white"/>
<stop offset="0.3172" stop-color="#EDDE79"/>
<stop offset="0.6237" stop-color="#D69A2D"/>
<stop offset="0.8978" stop-color="#F9F093"/>
</linearGradient>
<radialGradient id="paint24_angular_2201_104553" cx="0" cy="0" r="1" gradientUnits="userSpaceOnUse" gradientTransform="translate(38.2302 17.1775) rotate(-44.8888) scale(7.25297 7.25292)">
<stop offset="0.10135" stop-color="#EDDE79"/>
<stop offset="0.371555" stop-color="white"/>
<stop offset="0.619704" stop-color="#D69A2D"/>
<stop offset="0.879496" stop-color="#F9F093"/>
</radialGradient>
<linearGradient id="paint25_linear_2201_104553" x1="44.6508" y1="26.0333" x2="32.685" y2="12.305" gradientUnits="userSpaceOnUse">
<stop stop-color="white"/>
<stop offset="0.3172" stop-color="#EDDE79"/>
<stop offset="0.6237" stop-color="#D69A2D"/>
<stop offset="0.8978" stop-color="#F9F093"/>
</linearGradient>
<linearGradient id="paint26_linear_2201_104553" x1="27.7159" y1="2.91612" x2="42.2475" y2="6.03061" gradientUnits="userSpaceOnUse">
<stop stop-color="white"/>
<stop offset="0.3172" stop-color="#EDDE79"/>
<stop offset="0.6237" stop-color="#D69A2D"/>
<stop offset="0.8978" stop-color="#F9F093"/>
</linearGradient>
<linearGradient id="paint27_linear_2201_104553" x1="35.8646" y1="12.4193" x2="31.1748" y2="20.571" gradientUnits="userSpaceOnUse">
<stop stop-color="white"/>
<stop offset="0.3172" stop-color="#EDDE79"/>
<stop offset="0.6237" stop-color="#D69A2D"/>
<stop offset="0.8978" stop-color="#F9F093"/>
</linearGradient>
<linearGradient id="paint28_linear_2201_104553" x1="47.7096" y1="8.74499" x2="51.1174" y2="18.3265" gradientUnits="userSpaceOnUse">
<stop stop-color="white"/>
<stop offset="0.3172" stop-color="#EDDE79"/>
<stop offset="0.6237" stop-color="#D69A2D"/>
<stop offset="0.8978" stop-color="#F9F093"/>
</linearGradient>
<linearGradient id="paint29_linear_2201_104553" x1="39.7945" y1="27.8981" x2="30.9483" y2="18.6131" gradientUnits="userSpaceOnUse">
<stop stop-color="white"/>
<stop offset="0.3172" stop-color="#EDDE79"/>
<stop offset="0.6237" stop-color="#D69A2D"/>
<stop offset="0.8978" stop-color="#F9F093"/>
</linearGradient>
<linearGradient id="paint30_linear_2201_104553" x1="39.7954" y1="23.1691" x2="37.374" y2="9.11632" gradientUnits="userSpaceOnUse">
<stop stop-color="white"/>
<stop offset="0.3172" stop-color="#EDDE79"/>
<stop offset="0.6237" stop-color="#D69A2D"/>
<stop offset="0.8978" stop-color="#F9F093"/>
</linearGradient>
<linearGradient id="paint31_linear_2201_104553" x1="39.7954" y1="22.4841" x2="37.9581" y2="11.2748" gradientUnits="userSpaceOnUse">
<stop stop-color="white"/>
<stop offset="0.3172" stop-color="#EDDE79"/>
<stop offset="0.6237" stop-color="#D69A2D"/>
<stop offset="0.8978" stop-color="#F9F093"/>
</linearGradient>
<linearGradient id="paint32_linear_2201_104553" x1="33.6046" y1="18.8291" x2="45.6251" y2="7.98906" gradientUnits="userSpaceOnUse">
<stop stop-color="white"/>
<stop offset="0.3172" stop-color="#EDDE79"/>
<stop offset="0.6237" stop-color="#D69A2D"/>
<stop offset="0.8978" stop-color="#F9F093"/>
</linearGradient>
<linearGradient id="paint33_linear_2201_104553" x1="38.6467" y1="11.0425" x2="44.3677" y2="15.9793" gradientUnits="userSpaceOnUse">
<stop stop-color="white"/>
<stop offset="0.3172" stop-color="#EDDE79"/>
<stop offset="0.6237" stop-color="#D69A2D"/>
<stop offset="0.8978" stop-color="#F9F093"/>
</linearGradient>
<linearGradient id="paint34_linear_2201_104553" x1="45.9226" y1="10.6597" x2="41.3044" y2="24.1361" gradientUnits="userSpaceOnUse">
<stop stop-color="white"/>
<stop offset="0.3172" stop-color="#EDDE79"/>
<stop offset="0.6237" stop-color="#D69A2D"/>
<stop offset="0.8978" stop-color="#F9F093"/>
</linearGradient>
<linearGradient id="paint35_linear_2201_104553" x1="46.0022" y1="28.2023" x2="36.8492" y2="18.903" gradientUnits="userSpaceOnUse">
<stop stop-color="white"/>
<stop offset="0.3172" stop-color="#EDDE79"/>
<stop offset="0.6237" stop-color="#D69A2D"/>
<stop offset="0.8978" stop-color="#F9F093"/>
</linearGradient>
<linearGradient id="paint36_linear_2201_104553" x1="50.837" y1="14.4892" x2="39.3948" y2="20.8604" gradientUnits="userSpaceOnUse">
<stop stop-color="white"/>
<stop offset="0.3172" stop-color="#EDDE79"/>
<stop offset="0.6237" stop-color="#D69A2D"/>
<stop offset="0.8978" stop-color="#F9F093"/>
</linearGradient>
<linearGradient id="paint37_linear_2201_104553" x1="48.4085" y1="23.1691" x2="45.987" y2="9.11632" gradientUnits="userSpaceOnUse">
<stop stop-color="white"/>
<stop offset="0.3172" stop-color="#EDDE79"/>
<stop offset="0.6237" stop-color="#D69A2D"/>
<stop offset="0.8978" stop-color="#F9F093"/>
</linearGradient>
<linearGradient id="paint38_linear_2201_104553" x1="48.4085" y1="22.4841" x2="46.5712" y2="11.2748" gradientUnits="userSpaceOnUse">
<stop stop-color="white"/>
<stop offset="0.3172" stop-color="#EDDE79"/>
<stop offset="0.6237" stop-color="#D69A2D"/>
<stop offset="0.8978" stop-color="#F9F093"/>
</linearGradient>
<linearGradient id="paint39_linear_2201_104553" x1="20.3854" y1="7.54665" x2="9.27304" y2="75.3399" gradientUnits="userSpaceOnUse">
<stop stop-color="white"/>
<stop offset="0.3172" stop-color="#EDDE79"/>
<stop offset="0.6237" stop-color="#D69A2D"/>
<stop offset="0.8978" stop-color="#F9F093"/>
</linearGradient>
<radialGradient id="paint40_angular_2201_104553" cx="0" cy="0" r="1" gradientUnits="userSpaceOnUse" gradientTransform="translate(15.7305 35.6282) rotate(-44.8888) scale(7.25297 7.25292)">
<stop offset="0.10135" stop-color="#EDDE79"/>
<stop offset="0.371555" stop-color="white"/>
<stop offset="0.619704" stop-color="#D69A2D"/>
<stop offset="0.879496" stop-color="#F9F093"/>
</radialGradient>
<linearGradient id="paint41_linear_2201_104553" x1="22.151" y1="44.4847" x2="10.1852" y2="30.7564" gradientUnits="userSpaceOnUse">
<stop stop-color="white"/>
<stop offset="0.3172" stop-color="#EDDE79"/>
<stop offset="0.6237" stop-color="#D69A2D"/>
<stop offset="0.8978" stop-color="#F9F093"/>
</linearGradient>
<linearGradient id="paint42_linear_2201_104553" x1="5.21612" y1="21.3675" x2="19.7478" y2="24.482" gradientUnits="userSpaceOnUse">
<stop stop-color="white"/>
<stop offset="0.3172" stop-color="#EDDE79"/>
<stop offset="0.6237" stop-color="#D69A2D"/>
<stop offset="0.8978" stop-color="#F9F093"/>
</linearGradient>
<linearGradient id="paint43_linear_2201_104553" x1="13.3648" y1="30.8707" x2="8.67506" y2="39.0224" gradientUnits="userSpaceOnUse">
<stop stop-color="white"/>
<stop offset="0.3172" stop-color="#EDDE79"/>
<stop offset="0.6237" stop-color="#D69A2D"/>
<stop offset="0.8978" stop-color="#F9F093"/>
</linearGradient>
<linearGradient id="paint44_linear_2201_104553" x1="25.2099" y1="27.1964" x2="28.6176" y2="36.7779" gradientUnits="userSpaceOnUse">
<stop stop-color="white"/>
<stop offset="0.3172" stop-color="#EDDE79"/>
<stop offset="0.6237" stop-color="#D69A2D"/>
<stop offset="0.8978" stop-color="#F9F093"/>
</linearGradient>
<linearGradient id="paint45_linear_2201_104553" x1="17.2948" y1="46.3495" x2="8.44852" y2="37.0645" gradientUnits="userSpaceOnUse">
<stop stop-color="white"/>
<stop offset="0.3172" stop-color="#EDDE79"/>
<stop offset="0.6237" stop-color="#D69A2D"/>
<stop offset="0.8978" stop-color="#F9F093"/>
</linearGradient>
<linearGradient id="paint46_linear_2201_104553" x1="17.2957" y1="41.6205" x2="14.8742" y2="27.5677" gradientUnits="userSpaceOnUse">
<stop stop-color="white"/>
<stop offset="0.3172" stop-color="#EDDE79"/>
<stop offset="0.6237" stop-color="#D69A2D"/>
<stop offset="0.8978" stop-color="#F9F093"/>
</linearGradient>
<linearGradient id="paint47_linear_2201_104553" x1="17.2957" y1="40.9355" x2="15.4584" y2="29.7262" gradientUnits="userSpaceOnUse">
<stop stop-color="white"/>
<stop offset="0.3172" stop-color="#EDDE79"/>
<stop offset="0.6237" stop-color="#D69A2D"/>
<stop offset="0.8978" stop-color="#F9F093"/>
</linearGradient>
<linearGradient id="paint48_linear_2201_104553" x1="11.1046" y1="37.2806" x2="23.1251" y2="26.4405" gradientUnits="userSpaceOnUse">
<stop stop-color="white"/>
<stop offset="0.3172" stop-color="#EDDE79"/>
<stop offset="0.6237" stop-color="#D69A2D"/>
<stop offset="0.8978" stop-color="#F9F093"/>
</linearGradient>
<linearGradient id="paint49_linear_2201_104553" x1="16.1467" y1="29.4939" x2="21.8677" y2="34.4307" gradientUnits="userSpaceOnUse">
<stop stop-color="white"/>
<stop offset="0.3172" stop-color="#EDDE79"/>
<stop offset="0.6237" stop-color="#D69A2D"/>
<stop offset="0.8978" stop-color="#F9F093"/>
</linearGradient>
<linearGradient id="paint50_linear_2201_104553" x1="23.4228" y1="29.1111" x2="18.8046" y2="42.5875" gradientUnits="userSpaceOnUse">
<stop stop-color="white"/>
<stop offset="0.3172" stop-color="#EDDE79"/>
<stop offset="0.6237" stop-color="#D69A2D"/>
<stop offset="0.8978" stop-color="#F9F093"/>
</linearGradient>
<linearGradient id="paint51_linear_2201_104553" x1="23.5022" y1="46.6537" x2="14.3492" y2="37.3544" gradientUnits="userSpaceOnUse">
<stop stop-color="white"/>
<stop offset="0.3172" stop-color="#EDDE79"/>
<stop offset="0.6237" stop-color="#D69A2D"/>
<stop offset="0.8978" stop-color="#F9F093"/>
</linearGradient>
<linearGradient id="paint52_linear_2201_104553" x1="28.337" y1="32.9406" x2="16.8948" y2="39.3119" gradientUnits="userSpaceOnUse">
<stop stop-color="white"/>
<stop offset="0.3172" stop-color="#EDDE79"/>
<stop offset="0.6237" stop-color="#D69A2D"/>
<stop offset="0.8978" stop-color="#F9F093"/>
</linearGradient>
<linearGradient id="paint53_linear_2201_104553" x1="25.9085" y1="41.6205" x2="23.487" y2="27.5677" gradientUnits="userSpaceOnUse">
<stop stop-color="white"/>
<stop offset="0.3172" stop-color="#EDDE79"/>
<stop offset="0.6237" stop-color="#D69A2D"/>
<stop offset="0.8978" stop-color="#F9F093"/>
</linearGradient>
<linearGradient id="paint54_linear_2201_104553" x1="25.9085" y1="40.9355" x2="24.0712" y2="29.7262" gradientUnits="userSpaceOnUse">
<stop stop-color="white"/>
<stop offset="0.3172" stop-color="#EDDE79"/>
<stop offset="0.6237" stop-color="#D69A2D"/>
<stop offset="0.8978" stop-color="#F9F093"/>
</linearGradient>
<linearGradient id="paint55_linear_2201_104553" x1="42.8851" y1="7.54665" x2="31.7728" y2="75.3399" gradientUnits="userSpaceOnUse">
<stop stop-color="white"/>
<stop offset="0.3172" stop-color="#EDDE79"/>
<stop offset="0.6237" stop-color="#D69A2D"/>
<stop offset="0.8978" stop-color="#F9F093"/>
</linearGradient>
<radialGradient id="paint56_angular_2201_104553" cx="0" cy="0" r="1" gradientUnits="userSpaceOnUse" gradientTransform="translate(38.2302 35.6282) rotate(-44.8888) scale(7.25297 7.25292)">
<stop offset="0.10135" stop-color="#EDDE79"/>
<stop offset="0.371555" stop-color="white"/>
<stop offset="0.619704" stop-color="#D69A2D"/>
<stop offset="0.879496" stop-color="#F9F093"/>
</radialGradient>
<linearGradient id="paint57_linear_2201_104553" x1="44.6508" y1="44.4847" x2="32.685" y2="30.7564" gradientUnits="userSpaceOnUse">
<stop stop-color="white"/>
<stop offset="0.3172" stop-color="#EDDE79"/>
<stop offset="0.6237" stop-color="#D69A2D"/>
<stop offset="0.8978" stop-color="#F9F093"/>
</linearGradient>
<linearGradient id="paint58_linear_2201_104553" x1="27.7159" y1="21.3675" x2="42.2475" y2="24.482" gradientUnits="userSpaceOnUse">
<stop stop-color="white"/>
<stop offset="0.3172" stop-color="#EDDE79"/>
<stop offset="0.6237" stop-color="#D69A2D"/>
<stop offset="0.8978" stop-color="#F9F093"/>
</linearGradient>
<linearGradient id="paint59_linear_2201_104553" x1="35.8646" y1="30.8707" x2="31.1748" y2="39.0224" gradientUnits="userSpaceOnUse">
<stop stop-color="white"/>
<stop offset="0.3172" stop-color="#EDDE79"/>
<stop offset="0.6237" stop-color="#D69A2D"/>
<stop offset="0.8978" stop-color="#F9F093"/>
</linearGradient>
<linearGradient id="paint60_linear_2201_104553" x1="47.7096" y1="27.1964" x2="51.1174" y2="36.7779" gradientUnits="userSpaceOnUse">
<stop stop-color="white"/>
<stop offset="0.3172" stop-color="#EDDE79"/>
<stop offset="0.6237" stop-color="#D69A2D"/>
<stop offset="0.8978" stop-color="#F9F093"/>
</linearGradient>
<linearGradient id="paint61_linear_2201_104553" x1="39.7945" y1="46.3495" x2="30.9483" y2="37.0645" gradientUnits="userSpaceOnUse">
<stop stop-color="white"/>
<stop offset="0.3172" stop-color="#EDDE79"/>
<stop offset="0.6237" stop-color="#D69A2D"/>
<stop offset="0.8978" stop-color="#F9F093"/>
</linearGradient>
<linearGradient id="paint62_linear_2201_104553" x1="39.7954" y1="41.6205" x2="37.374" y2="27.5677" gradientUnits="userSpaceOnUse">
<stop stop-color="white"/>
<stop offset="0.3172" stop-color="#EDDE79"/>
<stop offset="0.6237" stop-color="#D69A2D"/>
<stop offset="0.8978" stop-color="#F9F093"/>
</linearGradient>
<linearGradient id="paint63_linear_2201_104553" x1="39.7954" y1="40.9355" x2="37.9581" y2="29.7262" gradientUnits="userSpaceOnUse">
<stop stop-color="white"/>
<stop offset="0.3172" stop-color="#EDDE79"/>
<stop offset="0.6237" stop-color="#D69A2D"/>
<stop offset="0.8978" stop-color="#F9F093"/>
</linearGradient>
<linearGradient id="paint64_linear_2201_104553" x1="33.6044" y1="37.2806" x2="45.6248" y2="26.4405" gradientUnits="userSpaceOnUse">
<stop stop-color="white"/>
<stop offset="0.3172" stop-color="#EDDE79"/>
<stop offset="0.6237" stop-color="#D69A2D"/>
<stop offset="0.8978" stop-color="#F9F093"/>
</linearGradient>
<linearGradient id="paint65_linear_2201_104553" x1="38.6465" y1="29.4939" x2="44.3674" y2="34.4307" gradientUnits="userSpaceOnUse">
<stop stop-color="white"/>
<stop offset="0.3172" stop-color="#EDDE79"/>
<stop offset="0.6237" stop-color="#D69A2D"/>
<stop offset="0.8978" stop-color="#F9F093"/>
</linearGradient>
<linearGradient id="paint66_linear_2201_104553" x1="45.9226" y1="29.1111" x2="41.3044" y2="42.5875" gradientUnits="userSpaceOnUse">
<stop stop-color="white"/>
<stop offset="0.3172" stop-color="#EDDE79"/>
<stop offset="0.6237" stop-color="#D69A2D"/>
<stop offset="0.8978" stop-color="#F9F093"/>
</linearGradient>
<linearGradient id="paint67_linear_2201_104553" x1="46.0019" y1="46.6537" x2="36.849" y2="37.3544" gradientUnits="userSpaceOnUse">
<stop stop-color="white"/>
<stop offset="0.3172" stop-color="#EDDE79"/>
<stop offset="0.6237" stop-color="#D69A2D"/>
<stop offset="0.8978" stop-color="#F9F093"/>
</linearGradient>
<linearGradient id="paint68_linear_2201_104553" x1="50.8368" y1="32.9406" x2="39.3945" y2="39.3119" gradientUnits="userSpaceOnUse">
<stop stop-color="white"/>
<stop offset="0.3172" stop-color="#EDDE79"/>
<stop offset="0.6237" stop-color="#D69A2D"/>
<stop offset="0.8978" stop-color="#F9F093"/>
</linearGradient>
<linearGradient id="paint69_linear_2201_104553" x1="48.4082" y1="41.6205" x2="45.9868" y2="27.5677" gradientUnits="userSpaceOnUse">
<stop stop-color="white"/>
<stop offset="0.3172" stop-color="#EDDE79"/>
<stop offset="0.6237" stop-color="#D69A2D"/>
<stop offset="0.8978" stop-color="#F9F093"/>
</linearGradient>
<linearGradient id="paint70_linear_2201_104553" x1="48.4082" y1="40.9355" x2="46.5709" y2="29.7262" gradientUnits="userSpaceOnUse">
<stop stop-color="white"/>
<stop offset="0.3172" stop-color="#EDDE79"/>
<stop offset="0.6237" stop-color="#D69A2D"/>
<stop offset="0.8978" stop-color="#F9F093"/>
</linearGradient>
<radialGradient id="paint71_radial_2201_104553" cx="0" cy="0" r="1" gradientUnits="userSpaceOnUse" gradientTransform="translate(15.5249 51.75) rotate(180) scale(13.2749 13.275)">
<stop stop-color="#FAF5D5"/>
<stop offset="0.246668" stop-color="#EFE182"/>
<stop offset="0.505747" stop-color="#EACB67"/>
<stop offset="0.745868" stop-color="#E2B850"/>
<stop offset="1" stop-color="#DDAB41"/>
</radialGradient>
<linearGradient id="paint72_linear_2201_104553" x1="26.9998" y1="49.05" x2="26.9998" y2="51.75" gradientUnits="userSpaceOnUse">
<stop stop-color="#E5E5E5"/>
<stop offset="1" stop-color="#444B53"/>
</linearGradient>
<linearGradient id="paint73_linear_2201_104553" x1="27.4998" y1="49.05" x2="27.4998" y2="51.75" gradientUnits="userSpaceOnUse">
<stop stop-color="#E5E5E5"/>
<stop offset="1" stop-color="#444B53"/>
</linearGradient>
<clipPath id="clip0_2201_104553">
<rect width="53.9995" height="54" fill="white"/>
</clipPath>
</defs>
</svg>
