<svg width="54" height="54" viewBox="0 0 54 54" fill="none" xmlns="http://www.w3.org/2000/svg">
<g clip-path="url(#clip0_2201_104551)">
<rect width="54.0004" height="54" fill="black" fill-opacity="0.01"/>
<rect x="0.562502" y="0.562502" width="52.8754" height="52.875" fill="url(#paint0_linear_2201_104551)"/>
<rect x="0.562502" y="0.562502" width="52.8754" height="52.875" fill="url(#paint1_linear_2201_104551)" fill-opacity="0.8"/>
<rect x="0.562502" y="0.562502" width="52.8754" height="52.875" stroke="url(#paint2_linear_2201_104551)" stroke-width="1.125"/>
<g filter="url(#filter0_i_2201_104551)">
<rect x="0.1125" y="0.1125" width="53.7754" height="53.775" stroke="url(#paint3_linear_2201_104551)" stroke-width="0.225001"/>
</g>
<g style="mix-blend-mode:plus-lighter">
<rect x="11.0249" y="1.12451" width="6.97505" height="51.75" fill="url(#paint4_linear_2201_104551)" fill-opacity="0.2"/>
<rect x="23.3999" y="1.12451" width="6.97505" height="51.75" fill="url(#paint5_linear_2201_104551)" fill-opacity="0.2"/>
<rect x="35.7751" y="1.12451" width="6.97505" height="51.75" fill="url(#paint6_linear_2201_104551)" fill-opacity="0.2"/>
</g>
<g filter="url(#filter1_d_2201_104551)">
<path d="M21.5304 32.2059C22.1431 30.5039 21.9525 28.7611 21.9525 28.7611C21.9525 28.7611 21.9525 28.7611 21.9389 28.7747C19.665 28.6521 18.6165 29.1832 18.5348 29.224C18.5348 29.224 18.5348 29.224 18.5348 29.2104C18.5485 29.2104 17.8949 27.6037 15.7572 26.46C13.6058 27.6037 12.9522 29.2104 12.9522 29.2104C12.9522 29.2104 11.9174 28.6249 9.54823 28.7475C9.54823 28.7475 9.3576 30.4903 9.97033 32.1923C8.09131 33.1046 7.13818 34.4662 7.13818 34.4662C8.02323 35.9231 9.73885 36.7673 9.7797 36.7945C9.76609 36.849 9.69801 37.1622 9.62993 37.8157C9.57546 38.4421 9.521 39.3543 9.53461 40.607C9.53461 40.607 10.3243 40.7568 11.3592 40.7568C12.7752 40.7432 14.6543 40.4436 15.7299 39.0548C16.8056 40.4436 18.6846 40.7432 20.1007 40.7568C21.1355 40.7704 21.9252 40.607 21.9252 40.607C21.9389 39.3679 21.898 38.4557 21.8299 37.8293C21.7755 37.1622 21.6938 36.849 21.6802 36.7945C21.7346 36.7673 23.4502 35.9231 24.3217 34.4662V34.4526C24.3625 34.4662 23.4094 33.1046 21.5304 32.2059Z" fill="url(#paint7_linear_2201_104551)"/>
<path fill-rule="evenodd" clip-rule="evenodd" d="M21.9806 29.4586C21.9784 30.1228 21.9027 31.1718 21.5305 32.2058C22.4666 32.6535 23.1729 33.2161 23.6409 33.6663C23.7352 33.7569 23.8198 33.843 23.8946 33.9227C24.1709 34.2167 24.3147 34.4234 24.3227 34.4497C24.3231 34.4512 24.3231 34.4521 24.3227 34.4524C24.3225 34.4525 24.3222 34.4525 24.3218 34.4524V34.466C24.3184 34.4717 24.315 34.4773 24.3116 34.483C23.4458 35.915 21.7685 36.7504 21.6824 36.7933L21.6802 36.7944L21.6814 36.799C21.698 36.865 21.7769 37.179 21.83 37.8292C21.8981 38.4555 21.9389 39.3678 21.9253 40.6069C21.9253 40.6069 21.1356 40.7702 20.1008 40.7566C18.8741 40.7448 17.3 40.5185 16.2016 39.5553C16.0321 39.4066 15.8739 39.2404 15.73 39.0546C15.5862 39.2404 15.4279 39.4066 15.2584 39.5553C14.16 40.5185 12.5859 40.7448 11.3592 40.7566C10.3244 40.7566 9.5347 40.6069 9.5347 40.6069C9.52108 39.3542 9.57554 38.4419 9.63001 37.8156C9.69809 37.162 9.76617 36.8488 9.77979 36.7944C9.77697 36.7925 9.76619 36.7867 9.74826 36.7771C9.50628 36.6478 7.96228 35.8225 7.13827 34.466C7.13827 34.466 8.09139 33.1044 9.97041 32.1922C9.35769 30.4901 9.54831 28.7473 9.54831 28.7473C11.0921 28.6674 12.0694 28.8882 12.5629 29.0518C12.8267 29.1392 12.9523 29.2102 12.9523 29.2102C12.9523 29.2102 13.046 28.9799 13.2793 28.6315C13.662 28.0598 14.4205 27.1705 15.7572 26.4598C17.0088 27.1294 17.7517 27.9578 18.1497 28.5294C18.1697 28.5581 18.1888 28.5862 18.2071 28.6135C18.2093 28.6168 18.2115 28.6201 18.2136 28.6233C18.2492 28.6768 18.2814 28.7276 18.3106 28.7752C18.4636 29.0251 18.5308 29.1888 18.5349 29.2083C18.5352 29.2096 18.5352 29.2102 18.5349 29.2102V29.2239L18.5362 29.2232C18.5416 29.2205 18.5504 29.2161 18.5627 29.2102C18.6372 29.1746 18.8394 29.0847 19.1814 28.9943C19.7171 28.8527 20.5955 28.7097 21.8633 28.7707C21.8884 28.7719 21.9136 28.7732 21.9389 28.7745L21.9526 28.7609C21.9526 28.7609 21.9537 28.7712 21.9555 28.7911C21.9573 28.8111 21.9598 28.8407 21.9625 28.8791C21.9709 28.9971 21.9814 29.1983 21.9806 29.4586ZM21.9449 28.6647C21.9479 28.695 21.9504 28.727 21.9526 28.7609C22.6293 28.6869 22.6293 28.6871 22.6294 28.6872L22.6295 28.6884L22.6297 28.6906L22.6304 28.6968C22.6309 28.7018 22.6315 28.7085 22.6323 28.7168C22.6339 28.7334 22.636 28.7565 22.6383 28.7857C22.6428 28.844 22.6484 28.9266 22.6529 29.0301C22.662 29.2368 22.6669 29.5282 22.6514 29.8754C22.6269 30.4246 22.5507 31.1288 22.3505 31.8658C23.1109 32.2954 23.7014 32.7791 24.1185 33.181C24.3732 33.4264 24.5662 33.6443 24.6966 33.8055C24.7611 33.8854 24.8137 33.9556 24.8522 34.0118C24.8693 34.0368 24.8931 34.0726 24.9143 34.1111L24.9149 34.1123C24.9212 34.1235 24.9525 34.1799 24.9746 34.2537C24.9816 34.2769 24.9931 34.3193 24.9994 34.3737C25.002 34.3964 25.0059 34.4384 25.0026 34.4929V34.6541L24.906 34.8155C24.4043 35.6543 23.6769 36.2933 23.0954 36.7167C22.8497 36.8956 22.6232 37.0409 22.4398 37.151C22.4634 37.3143 22.4875 37.5175 22.5078 37.7647C22.5792 38.427 22.6198 39.3657 22.6061 40.6143L22.6001 41.1625L22.0633 41.2735L21.9253 40.6069C22.0633 41.2735 22.0632 41.2736 22.0631 41.2736L22.0612 41.2739L22.058 41.2746L22.0482 41.2766C22.0402 41.2782 22.0291 41.2803 22.0152 41.2829C21.9874 41.2882 21.948 41.2953 21.8982 41.3036C21.7987 41.3203 21.6571 41.3419 21.4821 41.3628C21.1333 41.4046 20.6469 41.4446 20.0932 41.4374C18.8314 41.4251 17.0224 41.1979 15.73 40.0476C14.4372 41.1983 12.6277 41.4253 11.3658 41.4374L11.3625 41.4374H11.3592C10.8101 41.4374 10.3274 41.3978 9.98141 41.3581C9.808 41.3382 9.66783 41.3183 9.56955 41.303C9.52038 41.2953 9.48161 41.2888 9.45432 41.2841C9.44067 41.2817 9.42989 41.2798 9.4221 41.2784L9.41267 41.2766L9.40968 41.2761L9.40819 41.2758L9.40801 41.2758C9.40792 41.2757 9.40784 41.2757 9.5347 40.6069L9.40784 41.2757L8.85999 41.1718L8.85393 40.6143C8.84005 39.3372 8.89558 38.4027 8.95176 37.7566L8.95227 37.7508L8.95287 37.745C8.97755 37.5081 9.00251 37.3116 9.02555 37.1522C8.42657 36.7893 7.25623 35.9715 6.55641 34.8195L6.32568 34.4397L6.58053 34.0756L7.13827 34.466C6.58053 34.0756 6.58065 34.0754 6.58078 34.0753L6.58164 34.074L6.58311 34.0719L6.58713 34.0663C6.59029 34.0619 6.5944 34.0562 6.59948 34.0492C6.60962 34.0353 6.6236 34.0164 6.64141 33.9931C6.67702 33.9463 6.72802 33.8815 6.79438 33.8022C6.92699 33.6437 7.12162 33.4265 7.37812 33.1802C7.7985 32.7764 8.38977 32.2897 9.1512 31.855C8.9504 31.117 8.874 30.4117 8.84946 29.8618C8.83397 29.5145 8.83892 29.2232 8.84795 29.0165C8.85247 28.913 8.85802 28.8304 8.86262 28.7721C8.86491 28.7429 8.86697 28.7198 8.86854 28.7032C8.86933 28.6949 8.86999 28.6882 8.8705 28.6832L8.87115 28.677L8.87138 28.6748L8.87151 28.6736C8.87153 28.6734 8.87154 28.6733 9.54831 28.7473L8.87154 28.6733L8.93454 28.0973L9.51315 28.0674C10.7595 28.0029 11.6752 28.1238 12.2953 28.2702C12.4235 28.3005 12.5389 28.3319 12.6417 28.3628C12.7397 28.209 12.8629 28.0321 13.0148 27.8407C13.4971 27.233 14.2684 26.4803 15.4377 25.8587L15.7583 25.6882L16.0784 25.8595C17.2407 26.4814 18.0086 27.2344 18.4877 27.8427C18.6417 28.0383 18.766 28.219 18.8642 28.376C19.452 28.2042 20.4482 28.0194 21.9109 28.0914L21.9102 28.0814L22.5587 28.0411L22.6293 28.6869L21.9526 28.7609L21.9457 28.65L21.9449 28.6647Z" fill="black"/>
<path fill-rule="evenodd" clip-rule="evenodd" d="M21.9806 29.4586C21.9784 30.1228 21.9027 31.1718 21.5305 32.2058C22.4666 32.6535 23.1729 33.2161 23.6409 33.6663C23.7352 33.7569 23.8198 33.843 23.8946 33.9227C24.1709 34.2167 24.3147 34.4234 24.3227 34.4497C24.3231 34.4512 24.3231 34.4521 24.3227 34.4524C24.3225 34.4525 24.3222 34.4525 24.3218 34.4524V34.466C24.3184 34.4717 24.315 34.4773 24.3116 34.483C23.4458 35.915 21.7685 36.7504 21.6824 36.7933L21.6802 36.7944L21.6814 36.799C21.698 36.865 21.7769 37.179 21.83 37.8292C21.8981 38.4555 21.9389 39.3678 21.9253 40.6069C21.9253 40.6069 21.1356 40.7702 20.1008 40.7566C18.8741 40.7448 17.3 40.5185 16.2016 39.5553C16.0321 39.4066 15.8739 39.2404 15.73 39.0546C15.5862 39.2404 15.4279 39.4066 15.2584 39.5553C14.16 40.5185 12.5859 40.7448 11.3592 40.7566C10.3244 40.7566 9.5347 40.6069 9.5347 40.6069C9.52108 39.3542 9.57554 38.4419 9.63001 37.8156C9.69809 37.162 9.76617 36.8488 9.77979 36.7944C9.77697 36.7925 9.76619 36.7867 9.74826 36.7771C9.50628 36.6478 7.96228 35.8225 7.13827 34.466C7.13827 34.466 8.09139 33.1044 9.97041 32.1922C9.35769 30.4901 9.54831 28.7473 9.54831 28.7473C11.0921 28.6674 12.0694 28.8882 12.5629 29.0518C12.8267 29.1392 12.9523 29.2102 12.9523 29.2102C12.9523 29.2102 13.046 28.9799 13.2793 28.6315C13.662 28.0598 14.4205 27.1705 15.7572 26.4598C17.0088 27.1294 17.7517 27.9578 18.1497 28.5294C18.1697 28.5581 18.1888 28.5862 18.2071 28.6135C18.2093 28.6168 18.2115 28.6201 18.2136 28.6233C18.2492 28.6768 18.2814 28.7276 18.3106 28.7752C18.4636 29.0251 18.5308 29.1888 18.5349 29.2083C18.5352 29.2096 18.5352 29.2102 18.5349 29.2102V29.2239L18.5362 29.2232C18.5416 29.2205 18.5504 29.2161 18.5627 29.2102C18.6372 29.1746 18.8394 29.0847 19.1814 28.9943C19.7171 28.8527 20.5955 28.7097 21.8633 28.7707C21.8884 28.7719 21.9136 28.7732 21.9389 28.7745L21.9526 28.7609C21.9526 28.7609 21.9537 28.7712 21.9555 28.7911C21.9573 28.8111 21.9598 28.8407 21.9625 28.8791C21.9709 28.9971 21.9814 29.1983 21.9806 29.4586ZM21.9449 28.6647C21.9479 28.695 21.9504 28.727 21.9526 28.7609C22.6293 28.6869 22.6293 28.6871 22.6294 28.6872L22.6295 28.6884L22.6297 28.6906L22.6304 28.6968C22.6309 28.7018 22.6315 28.7085 22.6323 28.7168C22.6339 28.7334 22.636 28.7565 22.6383 28.7857C22.6428 28.844 22.6484 28.9266 22.6529 29.0301C22.662 29.2368 22.6669 29.5282 22.6514 29.8754C22.6269 30.4246 22.5507 31.1288 22.3505 31.8658C23.1109 32.2954 23.7014 32.7791 24.1185 33.181C24.3732 33.4264 24.5662 33.6443 24.6966 33.8055C24.7611 33.8854 24.8137 33.9556 24.8522 34.0118C24.8693 34.0368 24.8931 34.0726 24.9143 34.1111L24.9149 34.1123C24.9212 34.1235 24.9525 34.1799 24.9746 34.2537C24.9816 34.2769 24.9931 34.3193 24.9994 34.3737C25.002 34.3964 25.0059 34.4384 25.0026 34.4929V34.6541L24.906 34.8155C24.4043 35.6543 23.6769 36.2933 23.0954 36.7167C22.8497 36.8956 22.6232 37.0409 22.4398 37.151C22.4634 37.3143 22.4875 37.5175 22.5078 37.7647C22.5792 38.427 22.6198 39.3657 22.6061 40.6143L22.6001 41.1625L22.0633 41.2735L21.9253 40.6069C22.0633 41.2735 22.0632 41.2736 22.0631 41.2736L22.0612 41.2739L22.058 41.2746L22.0482 41.2766C22.0402 41.2782 22.0291 41.2803 22.0152 41.2829C21.9874 41.2882 21.948 41.2953 21.8982 41.3036C21.7987 41.3203 21.6571 41.3419 21.4821 41.3628C21.1333 41.4046 20.6469 41.4446 20.0932 41.4374C18.8314 41.4251 17.0224 41.1979 15.73 40.0476C14.4372 41.1983 12.6277 41.4253 11.3658 41.4374L11.3625 41.4374H11.3592C10.8101 41.4374 10.3274 41.3978 9.98141 41.3581C9.808 41.3382 9.66783 41.3183 9.56955 41.303C9.52038 41.2953 9.48161 41.2888 9.45432 41.2841C9.44067 41.2817 9.42989 41.2798 9.4221 41.2784L9.41267 41.2766L9.40968 41.2761L9.40819 41.2758L9.40801 41.2758C9.40792 41.2757 9.40784 41.2757 9.5347 40.6069L9.40784 41.2757L8.85999 41.1718L8.85393 40.6143C8.84005 39.3372 8.89558 38.4027 8.95176 37.7566L8.95227 37.7508L8.95287 37.745C8.97755 37.5081 9.00251 37.3116 9.02555 37.1522C8.42657 36.7893 7.25623 35.9715 6.55641 34.8195L6.32568 34.4397L6.58053 34.0756L7.13827 34.466C6.58053 34.0756 6.58065 34.0754 6.58078 34.0753L6.58164 34.074L6.58311 34.0719L6.58713 34.0663C6.59029 34.0619 6.5944 34.0562 6.59948 34.0492C6.60962 34.0353 6.6236 34.0164 6.64141 33.9931C6.67702 33.9463 6.72802 33.8815 6.79438 33.8022C6.92699 33.6437 7.12162 33.4265 7.37812 33.1802C7.7985 32.7764 8.38977 32.2897 9.1512 31.855C8.9504 31.117 8.874 30.4117 8.84946 29.8618C8.83397 29.5145 8.83892 29.2232 8.84795 29.0165C8.85247 28.913 8.85802 28.8304 8.86262 28.7721C8.86491 28.7429 8.86697 28.7198 8.86854 28.7032C8.86933 28.6949 8.86999 28.6882 8.8705 28.6832L8.87115 28.677L8.87138 28.6748L8.87151 28.6736C8.87153 28.6734 8.87154 28.6733 9.54831 28.7473L8.87154 28.6733L8.93454 28.0973L9.51315 28.0674C10.7595 28.0029 11.6752 28.1238 12.2953 28.2702C12.4235 28.3005 12.5389 28.3319 12.6417 28.3628C12.7397 28.209 12.8629 28.0321 13.0148 27.8407C13.4971 27.233 14.2684 26.4803 15.4377 25.8587L15.7583 25.6882L16.0784 25.8595C17.2407 26.4814 18.0086 27.2344 18.4877 27.8427C18.6417 28.0383 18.766 28.219 18.8642 28.376C19.452 28.2042 20.4482 28.0194 21.9109 28.0914L21.9102 28.0814L22.5587 28.0411L22.6293 28.6869L21.9526 28.7609L21.9457 28.65L21.9449 28.6647Z" fill="url(#paint8_angular_2201_104551)"/>
<path d="M15.7511 26.4602V35.946V35.9356C15.6992 35.707 14.8472 31.894 12.9563 29.2135C12.9563 29.2135 13.6109 27.6031 15.7511 26.4602Z" fill="url(#paint9_linear_2201_104551)"/>
<path d="M15.7512 35.9453C13.9746 32.3297 9.54858 28.7556 9.54858 28.7556C11.9278 28.6206 12.9564 29.2128 12.9564 29.2128C14.8473 31.8933 15.6993 35.7063 15.7512 35.9453Z" fill="url(#paint10_linear_2201_104551)"/>
<path d="M15.7512 35.9455C12.946 33.3585 9.97456 32.2052 9.97456 32.2052C9.36157 30.5013 9.54858 28.7559 9.54858 28.7559C9.54858 28.7559 13.9746 32.3299 15.7512 35.9455Z" fill="url(#paint11_linear_2201_104551)"/>
<path d="M15.7513 35.9456C15.7513 35.9456 11.5435 36.1741 9.7876 36.7975C9.7876 36.7975 9.50708 37.9819 9.54863 40.6105C9.54863 40.6105 10.3383 40.7664 11.3772 40.756C12.7902 40.7456 14.6708 40.4443 15.7513 39.0521V35.9456Z" fill="url(#paint12_linear_2201_104551)"/>
<path d="M15.7512 35.9456L9.54855 40.6001C9.52777 37.7741 9.78751 36.7871 9.78751 36.7871C11.5434 36.1741 15.7512 35.9456 15.7512 35.9456Z" fill="url(#paint13_linear_2201_104551)"/>
<path d="M15.7513 35.9458C12.946 33.3588 9.97457 32.2056 9.97457 32.2056C8.09404 33.0991 7.13818 34.4705 7.13818 34.4705C7.13818 34.4705 12.0837 33.8575 15.7513 35.9458Z" fill="url(#paint14_linear_2201_104551)"/>
<path d="M9.78756 36.7974C11.5434 36.174 15.7513 35.9454 15.7513 35.9454C12.0837 33.8571 7.13818 34.4701 7.13818 34.4701C8.0317 35.9454 9.78756 36.7974 9.78756 36.7974Z" fill="url(#paint15_linear_2201_104551)"/>
<path d="M15.7512 26.4602V35.946V35.9356C15.8032 35.6966 16.6551 31.894 18.5461 29.2031C18.5461 29.2135 17.8915 27.6031 15.7512 26.4602Z" fill="url(#paint16_linear_2201_104551)"/>
<path d="M15.7512 35.9454C17.5279 32.3298 21.9539 28.7662 21.9539 28.7662C19.5746 28.6311 18.5357 29.2129 18.5357 29.2129C16.6551 31.8935 15.8032 35.7065 15.7512 35.9454Z" fill="url(#paint17_linear_2201_104551)"/>
<path d="M15.7512 35.9455C18.5564 33.3585 21.5279 32.2052 21.5279 32.2052C22.1409 30.5013 21.9539 28.7559 21.9539 28.7559C21.9539 28.7559 17.5279 32.3299 15.7512 35.9455Z" fill="url(#paint18_linear_2201_104551)"/>
<path d="M15.7512 35.9456C15.7512 35.9456 19.9591 36.1741 21.7149 36.7975C21.7149 36.7975 21.9954 37.9819 21.9539 40.6105C21.9539 40.6105 21.1643 40.7664 20.1253 40.756C18.7123 40.7456 16.8318 40.4443 15.7512 39.0521V35.9456Z" fill="url(#paint19_linear_2201_104551)"/>
<path d="M15.7512 35.9456L21.9539 40.6001C21.9747 37.7741 21.7149 36.7871 21.7149 36.7871C19.9591 36.1741 15.7512 35.9456 15.7512 35.9456Z" fill="url(#paint20_linear_2201_104551)"/>
<path d="M15.7512 35.9458C18.5564 33.3588 21.5279 32.2056 21.5279 32.2056C23.4084 33.0991 24.3643 34.4601 24.3643 34.4601C24.3643 34.4601 19.4084 33.8575 15.7512 35.9458Z" fill="url(#paint21_linear_2201_104551)"/>
<path d="M21.7149 36.7974C19.9591 36.174 15.7512 35.9454 15.7512 35.9454C19.4084 33.8571 24.3643 34.4701 24.3643 34.4701C23.4708 35.9454 21.7149 36.7974 21.7149 36.7974Z" fill="url(#paint22_linear_2201_104551)"/>
</g>
<g filter="url(#filter2_d_2201_104551)">
<path d="M44.0304 32.2059C44.6431 30.5039 44.4525 28.7611 44.4525 28.7611C44.4525 28.7611 44.4525 28.7611 44.4389 28.7747C42.165 28.6521 41.1165 29.1832 41.0348 29.224C41.0348 29.224 41.0348 29.224 41.0348 29.2104C41.0485 29.2104 40.3949 27.6037 38.2572 26.46C36.1058 27.6037 35.4522 29.2104 35.4522 29.2104C35.4522 29.2104 34.4174 28.6249 32.0482 28.7475C32.0482 28.7475 31.8576 30.4903 32.4703 32.1923C30.5913 33.1046 29.6382 34.4662 29.6382 34.4662C30.5232 35.9231 32.2389 36.7673 32.2797 36.7945C32.2661 36.849 32.198 37.1622 32.1299 37.8157C32.0755 38.4421 32.021 39.3543 32.0346 40.607C32.0346 40.607 32.8243 40.7568 33.8592 40.7568C35.2752 40.7432 37.1543 40.4436 38.2299 39.0548C39.3056 40.4436 41.1846 40.7432 42.6007 40.7568C43.6355 40.7704 44.4252 40.607 44.4252 40.607C44.4389 39.3679 44.398 38.4557 44.3299 37.8293C44.2755 37.1622 44.1938 36.849 44.1802 36.7945C44.2346 36.7673 45.9502 35.9231 46.8217 34.4662V34.4526C46.8625 34.4662 45.9094 33.1046 44.0304 32.2059Z" fill="url(#paint23_linear_2201_104551)"/>
<path fill-rule="evenodd" clip-rule="evenodd" d="M44.4806 29.4586C44.4784 30.1228 44.4027 31.1718 44.0305 32.2058C44.9666 32.6535 45.6729 33.2161 46.1409 33.6663C46.2352 33.7569 46.3198 33.843 46.3946 33.9227C46.6709 34.2167 46.8147 34.4234 46.8227 34.4497C46.8231 34.4512 46.8231 34.4521 46.8227 34.4524C46.8225 34.4525 46.8222 34.4525 46.8218 34.4524V34.466C46.8184 34.4717 46.815 34.4773 46.8116 34.483C45.9458 35.915 44.2685 36.7504 44.1824 36.7933L44.1802 36.7944L44.1814 36.799C44.198 36.865 44.2769 37.179 44.33 37.8292C44.3981 38.4555 44.4389 39.3678 44.4253 40.6069C44.4253 40.6069 43.6356 40.7702 42.6008 40.7566C41.3741 40.7448 39.8 40.5185 38.7016 39.5553C38.5321 39.4066 38.3739 39.2404 38.23 39.0546C38.0862 39.2404 37.9279 39.4066 37.7584 39.5553C36.66 40.5185 35.0859 40.7448 33.8592 40.7566C32.8244 40.7566 32.0347 40.6069 32.0347 40.6069C32.0211 39.3542 32.0755 38.4419 32.13 37.8156C32.1981 37.162 32.2662 36.8488 32.2798 36.7944C32.277 36.7925 32.2662 36.7867 32.2483 36.7771C32.0063 36.6478 30.4623 35.8225 29.6383 34.466C29.6383 34.466 30.5914 33.1044 32.4704 32.1922C31.8577 30.4901 32.0483 28.7473 32.0483 28.7473C33.5921 28.6674 34.5694 28.8882 35.0629 29.0518C35.3267 29.1392 35.4523 29.2102 35.4523 29.2102C35.4523 29.2102 35.546 28.9799 35.7793 28.6315C36.162 28.0598 36.9205 27.1705 38.2572 26.4598C39.5088 27.1294 40.2517 27.9578 40.6497 28.5294C40.6697 28.5581 40.6888 28.5862 40.7071 28.6135C40.7093 28.6168 40.7115 28.6201 40.7136 28.6233C40.7492 28.6768 40.7814 28.7276 40.8106 28.7752C40.9636 29.0251 41.0308 29.1888 41.0349 29.2083C41.0352 29.2096 41.0352 29.2102 41.0349 29.2102V29.2239L41.0362 29.2232C41.0416 29.2205 41.0504 29.2161 41.0627 29.2102C41.1372 29.1746 41.3394 29.0847 41.6814 28.9943C42.2171 28.8527 43.0955 28.7097 44.3633 28.7707C44.3884 28.7719 44.4136 28.7732 44.4389 28.7745L44.4526 28.7609C44.4526 28.7609 44.4537 28.7712 44.4555 28.7911C44.4573 28.8111 44.4598 28.8407 44.4625 28.8791C44.4709 28.9971 44.4814 29.1983 44.4806 29.4586ZM44.4449 28.6647C44.4479 28.695 44.4504 28.727 44.4526 28.7609C45.1293 28.6869 45.1293 28.6871 45.1294 28.6872L45.1295 28.6884L45.1297 28.6906L45.1304 28.6968C45.1309 28.7018 45.1315 28.7085 45.1323 28.7168C45.1339 28.7334 45.136 28.7565 45.1383 28.7857C45.1428 28.844 45.1484 28.9266 45.1529 29.0301C45.162 29.2368 45.1669 29.5282 45.1514 29.8754C45.1269 30.4246 45.0507 31.1288 44.8505 31.8658C45.6109 32.2954 46.2014 32.7791 46.6185 33.181C46.8732 33.4264 47.0662 33.6443 47.1966 33.8055C47.2611 33.8854 47.3137 33.9556 47.3522 34.0118C47.3693 34.0368 47.3931 34.0726 47.4143 34.1111L47.4149 34.1123C47.4212 34.1235 47.4525 34.1799 47.4746 34.2537C47.4816 34.2769 47.4931 34.3193 47.4994 34.3737C47.502 34.3964 47.5059 34.4384 47.5026 34.4929V34.6541L47.406 34.8155C46.9043 35.6543 46.1769 36.2933 45.5954 36.7167C45.3497 36.8956 45.1232 37.0409 44.9398 37.151C44.9634 37.3143 44.9875 37.5175 45.0078 37.7647C45.0792 38.427 45.1198 39.3657 45.1061 40.6143L45.1001 41.1625L44.5633 41.2735L44.4253 40.6069C44.5633 41.2735 44.5632 41.2736 44.5631 41.2736L44.5612 41.2739L44.558 41.2746L44.5482 41.2766C44.5402 41.2782 44.5291 41.2803 44.5152 41.2829C44.4874 41.2882 44.448 41.2953 44.3982 41.3036C44.2987 41.3203 44.1571 41.3419 43.9821 41.3628C43.6333 41.4046 43.1469 41.4446 42.5932 41.4374C41.3314 41.4251 39.5224 41.1979 38.23 40.0476C36.9372 41.1983 35.1277 41.4253 33.8658 41.4374L33.8625 41.4374H33.8592C33.3101 41.4374 32.8274 41.3978 32.4814 41.3581C32.308 41.3382 32.1678 41.3183 32.0695 41.303C32.0204 41.2953 31.9816 41.2888 31.9543 41.2841C31.9407 41.2817 31.9299 41.2798 31.9221 41.2784L31.9127 41.2766L31.9097 41.2761L31.9082 41.2758L31.908 41.2758C31.9079 41.2757 31.9078 41.2757 32.0347 40.6069L31.9078 41.2757L31.36 41.1718L31.3539 40.6143C31.3401 39.3372 31.3956 38.4027 31.4518 37.7566L31.4523 37.7508L31.4529 37.745C31.4775 37.5081 31.5025 37.3116 31.5255 37.1522C30.9266 36.7893 29.7562 35.9715 29.0564 34.8195L28.8257 34.4397L29.0805 34.0756L29.6383 34.466C29.0805 34.0756 29.0807 34.0754 29.0808 34.0753L29.0816 34.074L29.0831 34.0719L29.0871 34.0663C29.0903 34.0619 29.0944 34.0562 29.0995 34.0492C29.1096 34.0353 29.1236 34.0164 29.1414 33.9931C29.177 33.9463 29.228 33.8815 29.2944 33.8022C29.427 33.6437 29.6216 33.4265 29.8781 33.1802C30.2985 32.7764 30.8898 32.2897 31.6512 31.855C31.4504 31.117 31.374 30.4117 31.3495 29.8618C31.334 29.5145 31.3389 29.2232 31.3479 29.0165C31.3525 28.913 31.358 28.8304 31.3626 28.7721C31.3649 28.7429 31.367 28.7198 31.3685 28.7032C31.3693 28.6949 31.37 28.6882 31.3705 28.6832L31.3711 28.677L31.3714 28.6748L31.3715 28.6736C31.3715 28.6734 31.3715 28.6733 32.0483 28.7473L31.3715 28.6733L31.4345 28.0973L32.0131 28.0674C33.2595 28.0029 34.1752 28.1238 34.7953 28.2702C34.9235 28.3005 35.0389 28.3319 35.1417 28.3628C35.2397 28.209 35.3629 28.0321 35.5148 27.8407C35.9971 27.233 36.7684 26.4803 37.9377 25.8587L38.2583 25.6882L38.5784 25.8595C39.7407 26.4814 40.5086 27.2344 40.9877 27.8427C41.1417 28.0383 41.266 28.219 41.3642 28.376C41.952 28.2042 42.9482 28.0194 44.4109 28.0914L44.4102 28.0814L45.0587 28.0411L45.1293 28.6869L44.4526 28.7609L44.4457 28.65L44.4449 28.6647Z" fill="black"/>
<path fill-rule="evenodd" clip-rule="evenodd" d="M44.4806 29.4586C44.4784 30.1228 44.4027 31.1718 44.0305 32.2058C44.9666 32.6535 45.6729 33.2161 46.1409 33.6663C46.2352 33.7569 46.3198 33.843 46.3946 33.9227C46.6709 34.2167 46.8147 34.4234 46.8227 34.4497C46.8231 34.4512 46.8231 34.4521 46.8227 34.4524C46.8225 34.4525 46.8222 34.4525 46.8218 34.4524V34.466C46.8184 34.4717 46.815 34.4773 46.8116 34.483C45.9458 35.915 44.2685 36.7504 44.1824 36.7933L44.1802 36.7944L44.1814 36.799C44.198 36.865 44.2769 37.179 44.33 37.8292C44.3981 38.4555 44.4389 39.3678 44.4253 40.6069C44.4253 40.6069 43.6356 40.7702 42.6008 40.7566C41.3741 40.7448 39.8 40.5185 38.7016 39.5553C38.5321 39.4066 38.3739 39.2404 38.23 39.0546C38.0862 39.2404 37.9279 39.4066 37.7584 39.5553C36.66 40.5185 35.0859 40.7448 33.8592 40.7566C32.8244 40.7566 32.0347 40.6069 32.0347 40.6069C32.0211 39.3542 32.0755 38.4419 32.13 37.8156C32.1981 37.162 32.2662 36.8488 32.2798 36.7944C32.277 36.7925 32.2662 36.7867 32.2483 36.7771C32.0063 36.6478 30.4623 35.8225 29.6383 34.466C29.6383 34.466 30.5914 33.1044 32.4704 32.1922C31.8577 30.4901 32.0483 28.7473 32.0483 28.7473C33.5921 28.6674 34.5694 28.8882 35.0629 29.0518C35.3267 29.1392 35.4523 29.2102 35.4523 29.2102C35.4523 29.2102 35.546 28.9799 35.7793 28.6315C36.162 28.0598 36.9205 27.1705 38.2572 26.4598C39.5088 27.1294 40.2517 27.9578 40.6497 28.5294C40.6697 28.5581 40.6888 28.5862 40.7071 28.6135C40.7093 28.6168 40.7115 28.6201 40.7136 28.6233C40.7492 28.6768 40.7814 28.7276 40.8106 28.7752C40.9636 29.0251 41.0308 29.1888 41.0349 29.2083C41.0352 29.2096 41.0352 29.2102 41.0349 29.2102V29.2239L41.0362 29.2232C41.0416 29.2205 41.0504 29.2161 41.0627 29.2102C41.1372 29.1746 41.3394 29.0847 41.6814 28.9943C42.2171 28.8527 43.0955 28.7097 44.3633 28.7707C44.3884 28.7719 44.4136 28.7732 44.4389 28.7745L44.4526 28.7609C44.4526 28.7609 44.4537 28.7712 44.4555 28.7911C44.4573 28.8111 44.4598 28.8407 44.4625 28.8791C44.4709 28.9971 44.4814 29.1983 44.4806 29.4586ZM44.4449 28.6647C44.4479 28.695 44.4504 28.727 44.4526 28.7609C45.1293 28.6869 45.1293 28.6871 45.1294 28.6872L45.1295 28.6884L45.1297 28.6906L45.1304 28.6968C45.1309 28.7018 45.1315 28.7085 45.1323 28.7168C45.1339 28.7334 45.136 28.7565 45.1383 28.7857C45.1428 28.844 45.1484 28.9266 45.1529 29.0301C45.162 29.2368 45.1669 29.5282 45.1514 29.8754C45.1269 30.4246 45.0507 31.1288 44.8505 31.8658C45.6109 32.2954 46.2014 32.7791 46.6185 33.181C46.8732 33.4264 47.0662 33.6443 47.1966 33.8055C47.2611 33.8854 47.3137 33.9556 47.3522 34.0118C47.3693 34.0368 47.3931 34.0726 47.4143 34.1111L47.4149 34.1123C47.4212 34.1235 47.4525 34.1799 47.4746 34.2537C47.4816 34.2769 47.4931 34.3193 47.4994 34.3737C47.502 34.3964 47.5059 34.4384 47.5026 34.4929V34.6541L47.406 34.8155C46.9043 35.6543 46.1769 36.2933 45.5954 36.7167C45.3497 36.8956 45.1232 37.0409 44.9398 37.151C44.9634 37.3143 44.9875 37.5175 45.0078 37.7647C45.0792 38.427 45.1198 39.3657 45.1061 40.6143L45.1001 41.1625L44.5633 41.2735L44.4253 40.6069C44.5633 41.2735 44.5632 41.2736 44.5631 41.2736L44.5612 41.2739L44.558 41.2746L44.5482 41.2766C44.5402 41.2782 44.5291 41.2803 44.5152 41.2829C44.4874 41.2882 44.448 41.2953 44.3982 41.3036C44.2987 41.3203 44.1571 41.3419 43.9821 41.3628C43.6333 41.4046 43.1469 41.4446 42.5932 41.4374C41.3314 41.4251 39.5224 41.1979 38.23 40.0476C36.9372 41.1983 35.1277 41.4253 33.8658 41.4374L33.8625 41.4374H33.8592C33.3101 41.4374 32.8274 41.3978 32.4814 41.3581C32.308 41.3382 32.1678 41.3183 32.0695 41.303C32.0204 41.2953 31.9816 41.2888 31.9543 41.2841C31.9407 41.2817 31.9299 41.2798 31.9221 41.2784L31.9127 41.2766L31.9097 41.2761L31.9082 41.2758L31.908 41.2758C31.9079 41.2757 31.9078 41.2757 32.0347 40.6069L31.9078 41.2757L31.36 41.1718L31.3539 40.6143C31.3401 39.3372 31.3956 38.4027 31.4518 37.7566L31.4523 37.7508L31.4529 37.745C31.4775 37.5081 31.5025 37.3116 31.5255 37.1522C30.9266 36.7893 29.7562 35.9715 29.0564 34.8195L28.8257 34.4397L29.0805 34.0756L29.6383 34.466C29.0805 34.0756 29.0807 34.0754 29.0808 34.0753L29.0816 34.074L29.0831 34.0719L29.0871 34.0663C29.0903 34.0619 29.0944 34.0562 29.0995 34.0492C29.1096 34.0353 29.1236 34.0164 29.1414 33.9931C29.177 33.9463 29.228 33.8815 29.2944 33.8022C29.427 33.6437 29.6216 33.4265 29.8781 33.1802C30.2985 32.7764 30.8898 32.2897 31.6512 31.855C31.4504 31.117 31.374 30.4117 31.3495 29.8618C31.334 29.5145 31.3389 29.2232 31.3479 29.0165C31.3525 28.913 31.358 28.8304 31.3626 28.7721C31.3649 28.7429 31.367 28.7198 31.3685 28.7032C31.3693 28.6949 31.37 28.6882 31.3705 28.6832L31.3711 28.677L31.3714 28.6748L31.3715 28.6736C31.3715 28.6734 31.3715 28.6733 32.0483 28.7473L31.3715 28.6733L31.4345 28.0973L32.0131 28.0674C33.2595 28.0029 34.1752 28.1238 34.7953 28.2702C34.9235 28.3005 35.0389 28.3319 35.1417 28.3628C35.2397 28.209 35.3629 28.0321 35.5148 27.8407C35.9971 27.233 36.7684 26.4803 37.9377 25.8587L38.2583 25.6882L38.5784 25.8595C39.7407 26.4814 40.5086 27.2344 40.9877 27.8427C41.1417 28.0383 41.266 28.219 41.3642 28.376C41.952 28.2042 42.9482 28.0194 44.4109 28.0914L44.4102 28.0814L45.0587 28.0411L45.1293 28.6869L44.4526 28.7609L44.4457 28.65L44.4449 28.6647Z" fill="url(#paint24_angular_2201_104551)"/>
<path d="M38.2511 26.4602V35.946V35.9356C38.1992 35.707 37.3472 31.894 35.4563 29.2135C35.4563 29.2135 36.1109 27.6031 38.2511 26.4602Z" fill="url(#paint25_linear_2201_104551)"/>
<path d="M38.2512 35.9453C36.4746 32.3297 32.0486 28.7556 32.0486 28.7556C34.4278 28.6206 35.4564 29.2128 35.4564 29.2128C37.3473 31.8933 38.1993 35.7063 38.2512 35.9453Z" fill="url(#paint26_linear_2201_104551)"/>
<path d="M38.2512 35.9455C35.446 33.3585 32.4746 32.2052 32.4746 32.2052C31.8616 30.5013 32.0486 28.7559 32.0486 28.7559C32.0486 28.7559 36.4746 32.3299 38.2512 35.9455Z" fill="url(#paint27_linear_2201_104551)"/>
<path d="M38.2513 35.9456C38.2513 35.9456 34.0435 36.1741 32.2876 36.7975C32.2876 36.7975 32.0071 37.9819 32.0486 40.6105C32.0486 40.6105 32.8383 40.7664 33.8772 40.756C35.2902 40.7456 37.1708 40.4443 38.2513 39.0521V35.9456Z" fill="url(#paint28_linear_2201_104551)"/>
<path d="M38.2512 35.9456L32.0485 40.6001C32.0278 37.7741 32.2875 36.7871 32.2875 36.7871C34.0434 36.1741 38.2512 35.9456 38.2512 35.9456Z" fill="url(#paint29_linear_2201_104551)"/>
<path d="M38.2513 35.9458C35.446 33.3588 32.4746 32.2056 32.4746 32.2056C30.594 33.0991 29.6382 34.4705 29.6382 34.4705C29.6382 34.4705 34.5837 33.8575 38.2513 35.9458Z" fill="url(#paint30_linear_2201_104551)"/>
<path d="M32.2876 36.7974C34.0434 36.174 38.2513 35.9454 38.2513 35.9454C34.5837 33.8571 29.6382 34.4701 29.6382 34.4701C30.5317 35.9454 32.2876 36.7974 32.2876 36.7974Z" fill="url(#paint31_linear_2201_104551)"/>
<path d="M38.2512 26.4602V35.946V35.9356C38.3032 35.6966 39.1551 31.894 41.0461 29.2031C41.0461 29.2135 40.3915 27.6031 38.2512 26.4602Z" fill="url(#paint32_linear_2201_104551)"/>
<path d="M38.2512 35.9454C40.0279 32.3298 44.4539 28.7662 44.4539 28.7662C42.0746 28.6311 41.0357 29.2129 41.0357 29.2129C39.1551 31.8935 38.3032 35.7065 38.2512 35.9454Z" fill="url(#paint33_linear_2201_104551)"/>
<path d="M38.2512 35.9455C41.0564 33.3585 44.0279 32.2052 44.0279 32.2052C44.6409 30.5013 44.4539 28.7559 44.4539 28.7559C44.4539 28.7559 40.0279 32.3299 38.2512 35.9455Z" fill="url(#paint34_linear_2201_104551)"/>
<path d="M38.2512 35.9456C38.2512 35.9456 42.4591 36.1741 44.2149 36.7975C44.2149 36.7975 44.4954 37.9819 44.4539 40.6105C44.4539 40.6105 43.6643 40.7664 42.6253 40.756C41.2123 40.7456 39.3318 40.4443 38.2512 39.0521V35.9456Z" fill="url(#paint35_linear_2201_104551)"/>
<path d="M38.2512 35.9456L44.4539 40.6001C44.4747 37.7741 44.2149 36.7871 44.2149 36.7871C42.4591 36.1741 38.2512 35.9456 38.2512 35.9456Z" fill="url(#paint36_linear_2201_104551)"/>
<path d="M38.2512 35.9458C41.0564 33.3588 44.0279 32.2056 44.0279 32.2056C45.9084 33.0991 46.8643 34.4601 46.8643 34.4601C46.8643 34.4601 41.9084 33.8575 38.2512 35.9458Z" fill="url(#paint37_linear_2201_104551)"/>
<path d="M44.2149 36.7974C42.4591 36.174 38.2512 35.9454 38.2512 35.9454C41.9084 33.8571 46.8643 34.4701 46.8643 34.4701C45.9708 35.9454 44.2149 36.7974 44.2149 36.7974Z" fill="url(#paint38_linear_2201_104551)"/>
</g>
<g filter="url(#filter3_d_2201_104551)">
<path d="M32.7806 13.5306C33.3933 11.8286 33.2027 10.0858 33.2027 10.0858C33.2027 10.0858 33.2027 10.0858 33.1891 10.0994C30.9152 9.97685 29.8668 10.5079 29.7851 10.5487C29.7851 10.5487 29.7851 10.5487 29.7851 10.5351C29.7987 10.5351 29.1451 8.92841 27.0074 7.78467C24.8561 8.92841 24.2025 10.5351 24.2025 10.5351C24.2025 10.5351 23.1677 9.94961 20.7985 10.0722C20.7985 10.0722 20.6078 11.815 21.2206 13.517C19.3416 14.4293 18.3884 15.7909 18.3884 15.7909C19.2735 17.2478 20.9891 18.092 21.0299 18.1192C21.0163 18.1737 20.9482 18.4869 20.8802 19.1404C20.8257 19.7668 20.7712 20.679 20.7849 21.9317C20.7849 21.9317 21.5746 22.0815 22.6094 22.0815C24.0255 22.0679 25.9045 21.7683 26.9802 20.3795C28.0558 21.7683 29.9349 22.0679 31.3509 22.0815C32.3858 22.0951 33.1755 21.9317 33.1755 21.9317C33.1891 20.6927 33.1483 19.7804 33.0802 19.154C33.0257 18.4869 32.944 18.1737 32.9304 18.1192C32.9849 18.092 34.7005 17.2478 35.5719 15.7909V15.7773C35.6128 15.7909 34.6596 14.4293 32.7806 13.5306Z" fill="url(#paint39_linear_2201_104551)"/>
<path fill-rule="evenodd" clip-rule="evenodd" d="M33.2308 10.7833C33.2287 11.4475 33.1529 12.4965 32.7807 13.5305C33.7168 13.9782 34.4231 14.5408 34.8912 14.991C34.9854 15.0816 35.07 15.1677 35.1449 15.2474C35.4211 15.5414 35.5649 15.7481 35.5729 15.7744C35.5734 15.7759 35.5734 15.7768 35.5729 15.7771C35.5727 15.7773 35.5724 15.7773 35.572 15.7771V15.7907C35.5686 15.7964 35.5652 15.802 35.5618 15.8077C34.696 17.2397 33.0188 18.0751 32.9326 18.118L32.9305 18.1191L32.9317 18.1237C32.9482 18.1897 33.0272 18.5037 33.0803 19.1539C33.1483 19.7802 33.1892 20.6925 33.1756 21.9316C33.1756 21.9316 32.3858 22.095 31.351 22.0813C30.1243 22.0695 28.5502 21.8432 27.4519 20.88C27.2823 20.7313 27.1241 20.5651 26.9803 20.3793C26.8364 20.5651 26.6782 20.7313 26.5086 20.88C25.4103 21.8432 23.8362 22.0695 22.6095 22.0813C21.5747 22.0813 20.7849 21.9316 20.7849 21.9316C20.7713 20.6789 20.8258 19.7666 20.8803 19.1403C20.9483 18.4867 21.0164 18.1735 21.03 18.1191C21.0272 18.1172 21.0164 18.1114 20.9985 18.1019C20.7565 17.9725 19.2125 17.1472 18.3885 15.7907C18.3885 15.7907 19.3416 14.4291 21.2207 13.5169C20.6079 11.8149 20.7986 10.072 20.7986 10.072C22.3424 9.99215 23.3196 10.2129 23.8131 10.3765C24.077 10.4639 24.2026 10.535 24.2026 10.535C24.2026 10.535 24.2963 10.3046 24.5295 9.9562C24.9123 9.38455 25.6708 8.49517 27.0075 7.78451C28.2591 8.45416 29.0019 9.28249 29.4 9.85415C29.42 9.88285 29.4391 9.9109 29.4574 9.93826C29.4595 9.94153 29.4617 9.94479 29.4639 9.94805C29.4994 10.0015 29.5317 10.0523 29.5608 10.0999C29.7138 10.3498 29.781 10.5135 29.7852 10.533C29.7854 10.5343 29.7854 10.535 29.7852 10.535V10.5486L29.7865 10.5479C29.7919 10.5452 29.8007 10.5408 29.8129 10.535C29.8874 10.4993 30.0897 10.4094 30.4317 10.319C30.9673 10.1774 31.8458 10.0344 33.1136 10.0954C33.1386 10.0966 33.1638 10.0979 33.1892 10.0992L33.2028 10.0856C33.2028 10.0856 33.2039 10.0959 33.2057 10.1158C33.2076 10.1358 33.2101 10.1654 33.2128 10.2038C33.2212 10.3219 33.2316 10.523 33.2308 10.7833ZM33.1951 9.98936C33.1981 10.0197 33.2007 10.0517 33.2028 10.0856C33.8796 10.0116 33.8796 10.0118 33.8796 10.0119L33.8797 10.0131L33.88 10.0153L33.8806 10.0215C33.8811 10.0265 33.8818 10.0332 33.8826 10.0415C33.8841 10.0581 33.8862 10.0812 33.8885 10.1104C33.8931 10.1687 33.8986 10.2513 33.9032 10.3548C33.9122 10.5615 33.9171 10.8529 33.9017 11.2001C33.8771 11.7493 33.8009 12.4535 33.6007 13.1905C34.3611 13.6201 34.9516 14.1038 35.3687 14.5057C35.6234 14.7511 35.8165 14.969 35.9468 15.1303C36.0113 15.2101 36.064 15.2803 36.1025 15.3365C36.1196 15.3615 36.1433 15.3973 36.1645 15.4358L36.1652 15.437C36.1714 15.4482 36.2027 15.5046 36.2249 15.5784C36.2319 15.6016 36.2434 15.644 36.2496 15.6984C36.2522 15.7211 36.2561 15.7631 36.2528 15.8176V15.9788L36.1563 16.1402C35.6546 16.979 34.9271 17.618 34.3456 18.0414C34.0999 18.2203 33.8734 18.3656 33.69 18.4757C33.7136 18.639 33.7377 18.8422 33.7581 19.0894C33.8295 19.7517 33.8701 20.6904 33.8563 21.939L33.8503 22.4872L33.3135 22.5982L33.1756 21.9316C33.3135 22.5982 33.3134 22.5983 33.3133 22.5983L33.3115 22.5987L33.3083 22.5993L33.2985 22.6013C33.2904 22.6029 33.2794 22.605 33.2654 22.6076C33.2376 22.6129 33.1982 22.62 33.1484 22.6283C33.0489 22.645 32.9073 22.6666 32.7323 22.6875C32.3836 22.7293 31.8971 22.7693 31.3434 22.7621C30.0816 22.7498 28.2727 22.5226 26.9803 21.3723C25.6875 22.523 23.8779 22.75 22.616 22.7621L22.6128 22.7621H22.6095C22.0604 22.7621 21.5776 22.7225 21.2317 22.6828C21.0582 22.663 20.9181 22.643 20.8198 22.6277C20.7706 22.62 20.7319 22.6135 20.7046 22.6088C20.6909 22.6064 20.6801 22.6045 20.6723 22.6031L20.6629 22.6013L20.6599 22.6008L20.6584 22.6005L20.6582 22.6005C20.6582 22.6005 20.6581 22.6004 20.7849 21.9316L20.6581 22.6004L20.1102 22.4965L20.1042 21.939C20.0903 20.6619 20.1458 19.7274 20.202 19.0813L20.2025 19.0755L20.2031 19.0697C20.2278 18.8328 20.2528 18.6363 20.2758 18.4769C19.6768 18.114 18.5065 17.2962 17.8067 16.1442L17.5759 15.7644L17.8308 15.4003L18.3885 15.7907C17.8308 15.4003 17.8309 15.4001 17.831 15.4L17.8319 15.3987L17.8334 15.3967L17.8374 15.391C17.8405 15.3866 17.8446 15.3809 17.8497 15.3739C17.8599 15.36 17.8738 15.3412 17.8917 15.3178C17.9273 15.2711 17.9783 15.2062 18.0446 15.1269C18.1772 14.9684 18.3719 14.7512 18.6284 14.5049C19.0487 14.1011 19.64 13.6144 20.4014 13.1797C20.2006 12.4417 20.1242 11.7364 20.0997 11.1865C20.0842 10.8392 20.0892 10.5479 20.0982 10.3412C20.1027 10.2377 20.1083 10.1551 20.1129 10.0968C20.1152 10.0676 20.1172 10.0445 20.1188 10.0279C20.1196 10.0196 20.1202 10.0129 20.1207 10.0079L20.1214 10.0017L20.1216 9.99951L20.1218 9.9983C20.1218 9.99814 20.1218 9.99798 20.7986 10.072L20.1218 9.99798L20.1848 9.42204L20.7634 9.39211C22.0098 9.32765 22.9254 9.44849 23.5455 9.59495C23.6737 9.62524 23.7891 9.65657 23.8919 9.68749C23.9899 9.53368 24.1131 9.35678 24.265 9.16538C24.7474 8.55773 25.5186 7.80503 26.6879 7.18339L27.0085 7.01294L27.3287 7.18423C28.491 7.80611 29.2589 8.55911 29.7379 9.16743C29.8919 9.36297 30.0162 9.54372 30.1144 9.70069C30.7022 9.52893 31.6985 9.34412 33.1611 9.41609L33.1605 9.40614L33.8089 9.36576L33.8796 10.0116L33.2028 10.0856L33.1959 9.97472L33.1951 9.98936Z" fill="black"/>
<path fill-rule="evenodd" clip-rule="evenodd" d="M33.2308 10.7833C33.2287 11.4475 33.1529 12.4965 32.7807 13.5305C33.7168 13.9782 34.4231 14.5408 34.8912 14.991C34.9854 15.0816 35.07 15.1677 35.1449 15.2474C35.4211 15.5414 35.5649 15.7481 35.5729 15.7744C35.5734 15.7759 35.5734 15.7768 35.5729 15.7771C35.5727 15.7773 35.5724 15.7773 35.572 15.7771V15.7907C35.5686 15.7964 35.5652 15.802 35.5618 15.8077C34.696 17.2397 33.0188 18.0751 32.9326 18.118L32.9305 18.1191L32.9317 18.1237C32.9482 18.1897 33.0272 18.5037 33.0803 19.1539C33.1483 19.7802 33.1892 20.6925 33.1756 21.9316C33.1756 21.9316 32.3858 22.095 31.351 22.0813C30.1243 22.0695 28.5502 21.8432 27.4519 20.88C27.2823 20.7313 27.1241 20.5651 26.9803 20.3793C26.8364 20.5651 26.6782 20.7313 26.5086 20.88C25.4103 21.8432 23.8362 22.0695 22.6095 22.0813C21.5747 22.0813 20.7849 21.9316 20.7849 21.9316C20.7713 20.6789 20.8258 19.7666 20.8803 19.1403C20.9483 18.4867 21.0164 18.1735 21.03 18.1191C21.0272 18.1172 21.0164 18.1114 20.9985 18.1019C20.7565 17.9725 19.2125 17.1472 18.3885 15.7907C18.3885 15.7907 19.3416 14.4291 21.2207 13.5169C20.6079 11.8149 20.7986 10.072 20.7986 10.072C22.3424 9.99215 23.3196 10.2129 23.8131 10.3765C24.077 10.4639 24.2026 10.535 24.2026 10.535C24.2026 10.535 24.2963 10.3046 24.5295 9.9562C24.9123 9.38455 25.6708 8.49517 27.0075 7.78451C28.2591 8.45416 29.0019 9.28249 29.4 9.85415C29.42 9.88285 29.4391 9.9109 29.4574 9.93826C29.4595 9.94153 29.4617 9.94479 29.4639 9.94805C29.4994 10.0015 29.5317 10.0523 29.5608 10.0999C29.7138 10.3498 29.781 10.5135 29.7852 10.533C29.7854 10.5343 29.7854 10.535 29.7852 10.535V10.5486L29.7865 10.5479C29.7919 10.5452 29.8007 10.5408 29.8129 10.535C29.8874 10.4993 30.0897 10.4094 30.4317 10.319C30.9673 10.1774 31.8458 10.0344 33.1136 10.0954C33.1386 10.0966 33.1638 10.0979 33.1892 10.0992L33.2028 10.0856C33.2028 10.0856 33.2039 10.0959 33.2057 10.1158C33.2076 10.1358 33.2101 10.1654 33.2128 10.2038C33.2212 10.3219 33.2316 10.523 33.2308 10.7833ZM33.1951 9.98936C33.1981 10.0197 33.2007 10.0517 33.2028 10.0856C33.8796 10.0116 33.8796 10.0118 33.8796 10.0119L33.8797 10.0131L33.88 10.0153L33.8806 10.0215C33.8811 10.0265 33.8818 10.0332 33.8826 10.0415C33.8841 10.0581 33.8862 10.0812 33.8885 10.1104C33.8931 10.1687 33.8986 10.2513 33.9032 10.3548C33.9122 10.5615 33.9171 10.8529 33.9017 11.2001C33.8771 11.7493 33.8009 12.4535 33.6007 13.1905C34.3611 13.6201 34.9516 14.1038 35.3687 14.5057C35.6234 14.7511 35.8165 14.969 35.9468 15.1303C36.0113 15.2101 36.064 15.2803 36.1025 15.3365C36.1196 15.3615 36.1433 15.3973 36.1645 15.4358L36.1652 15.437C36.1714 15.4482 36.2027 15.5046 36.2249 15.5784C36.2319 15.6016 36.2434 15.644 36.2496 15.6984C36.2522 15.7211 36.2561 15.7631 36.2528 15.8176V15.9788L36.1563 16.1402C35.6546 16.979 34.9271 17.618 34.3456 18.0414C34.0999 18.2203 33.8734 18.3656 33.69 18.4757C33.7136 18.639 33.7377 18.8422 33.7581 19.0894C33.8295 19.7517 33.8701 20.6904 33.8563 21.939L33.8503 22.4872L33.3135 22.5982L33.1756 21.9316C33.3135 22.5982 33.3134 22.5983 33.3133 22.5983L33.3115 22.5987L33.3083 22.5993L33.2985 22.6013C33.2904 22.6029 33.2794 22.605 33.2654 22.6076C33.2376 22.6129 33.1982 22.62 33.1484 22.6283C33.0489 22.645 32.9073 22.6666 32.7323 22.6875C32.3836 22.7293 31.8971 22.7693 31.3434 22.7621C30.0816 22.7498 28.2727 22.5226 26.9803 21.3723C25.6875 22.523 23.8779 22.75 22.616 22.7621L22.6128 22.7621H22.6095C22.0604 22.7621 21.5776 22.7225 21.2317 22.6828C21.0582 22.663 20.9181 22.643 20.8198 22.6277C20.7706 22.62 20.7319 22.6135 20.7046 22.6088C20.6909 22.6064 20.6801 22.6045 20.6723 22.6031L20.6629 22.6013L20.6599 22.6008L20.6584 22.6005L20.6582 22.6005C20.6582 22.6005 20.6581 22.6004 20.7849 21.9316L20.6581 22.6004L20.1102 22.4965L20.1042 21.939C20.0903 20.6619 20.1458 19.7274 20.202 19.0813L20.2025 19.0755L20.2031 19.0697C20.2278 18.8328 20.2528 18.6363 20.2758 18.4769C19.6768 18.114 18.5065 17.2962 17.8067 16.1442L17.5759 15.7644L17.8308 15.4003L18.3885 15.7907C17.8308 15.4003 17.8309 15.4001 17.831 15.4L17.8319 15.3987L17.8334 15.3967L17.8374 15.391C17.8405 15.3866 17.8446 15.3809 17.8497 15.3739C17.8599 15.36 17.8738 15.3412 17.8917 15.3178C17.9273 15.2711 17.9783 15.2062 18.0446 15.1269C18.1772 14.9684 18.3719 14.7512 18.6284 14.5049C19.0487 14.1011 19.64 13.6144 20.4014 13.1797C20.2006 12.4417 20.1242 11.7364 20.0997 11.1865C20.0842 10.8392 20.0892 10.5479 20.0982 10.3412C20.1027 10.2377 20.1083 10.1551 20.1129 10.0968C20.1152 10.0676 20.1172 10.0445 20.1188 10.0279C20.1196 10.0196 20.1202 10.0129 20.1207 10.0079L20.1214 10.0017L20.1216 9.99951L20.1218 9.9983C20.1218 9.99814 20.1218 9.99798 20.7986 10.072L20.1218 9.99798L20.1848 9.42204L20.7634 9.39211C22.0098 9.32765 22.9254 9.44849 23.5455 9.59495C23.6737 9.62524 23.7891 9.65657 23.8919 9.68749C23.9899 9.53368 24.1131 9.35678 24.265 9.16538C24.7474 8.55773 25.5186 7.80503 26.6879 7.18339L27.0085 7.01294L27.3287 7.18423C28.491 7.80611 29.2589 8.55911 29.7379 9.16743C29.8919 9.36297 30.0162 9.54372 30.1144 9.70069C30.7022 9.52893 31.6985 9.34412 33.1611 9.41609L33.1605 9.40614L33.8089 9.36576L33.8796 10.0116L33.2028 10.0856L33.1959 9.97472L33.1951 9.98936Z" fill="url(#paint40_angular_2201_104551)"/>
<path d="M27.0014 7.78491V17.2707V17.2603C26.9494 17.0317 26.0975 13.2187 24.2065 10.5382C24.2065 10.5382 24.8611 8.92777 27.0014 7.78491Z" fill="url(#paint41_linear_2201_104551)"/>
<path d="M27.0015 17.27C25.2248 13.6544 20.7988 10.0803 20.7988 10.0803C23.1781 9.94527 24.2067 10.5375 24.2067 10.5375C26.0976 13.218 26.9495 17.031 27.0015 17.27Z" fill="url(#paint42_linear_2201_104551)"/>
<path d="M27.0015 17.2702C24.1963 14.6832 21.2248 13.5299 21.2248 13.5299C20.6118 11.826 20.7988 10.0806 20.7988 10.0806C20.7988 10.0806 25.2248 13.6546 27.0015 17.2702Z" fill="url(#paint43_linear_2201_104551)"/>
<path d="M27.0015 17.2703C27.0015 17.2703 22.7937 17.4988 21.0378 18.1222C21.0378 18.1222 20.7573 19.3066 20.7989 21.9352C20.7989 21.9352 21.5885 22.0911 22.6275 22.0807C24.0405 22.0703 25.921 21.769 27.0015 20.3768V17.2703Z" fill="url(#paint44_linear_2201_104551)"/>
<path d="M27.0014 17.2703L20.7988 21.9248C20.778 19.0988 21.0378 18.1118 21.0378 18.1118C22.7936 17.4988 27.0014 17.2703 27.0014 17.2703Z" fill="url(#paint45_linear_2201_104551)"/>
<path d="M27.0015 17.2705C24.1963 14.6835 21.2248 13.5303 21.2248 13.5303C19.3443 14.4238 18.3884 15.7952 18.3884 15.7952C18.3884 15.7952 23.3339 15.1822 27.0015 17.2705Z" fill="url(#paint46_linear_2201_104551)"/>
<path d="M21.0378 18.1221C22.7937 17.4987 27.0015 17.2701 27.0015 17.2701C23.3339 15.1818 18.3884 15.7948 18.3884 15.7948C19.2819 17.2701 21.0378 18.1221 21.0378 18.1221Z" fill="url(#paint47_linear_2201_104551)"/>
<path d="M27.0015 7.78491V17.2707V17.2603C27.0534 17.0213 27.9054 13.2187 29.7963 10.5278C29.7963 10.5382 29.1417 8.92777 27.0015 7.78491Z" fill="url(#paint48_linear_2201_104551)"/>
<path d="M27.0015 17.2701C28.7781 13.6545 33.2041 10.0909 33.2041 10.0909C30.8249 9.95583 29.7859 10.5377 29.7859 10.5377C27.9054 13.2182 27.0534 17.0312 27.0015 17.2701Z" fill="url(#paint49_linear_2201_104551)"/>
<path d="M27.0015 17.2702C29.8067 14.6832 32.7781 13.5299 32.7781 13.5299C33.3911 11.826 33.2041 10.0806 33.2041 10.0806C33.2041 10.0806 28.7781 13.6546 27.0015 17.2702Z" fill="url(#paint50_linear_2201_104551)"/>
<path d="M27.0015 17.2703C27.0015 17.2703 31.2093 17.4988 32.9652 18.1222C32.9652 18.1222 33.2457 19.3066 33.2041 21.9352C33.2041 21.9352 32.4145 22.0911 31.3755 22.0807C29.9625 22.0703 28.082 21.769 27.0015 20.3768V17.2703Z" fill="url(#paint51_linear_2201_104551)"/>
<path d="M27.0015 17.2703L33.2041 21.9248C33.2249 19.0988 32.9652 18.1118 32.9652 18.1118C31.2093 17.4988 27.0015 17.2703 27.0015 17.2703Z" fill="url(#paint52_linear_2201_104551)"/>
<path d="M27.0015 17.2705C29.8067 14.6835 32.7781 13.5303 32.7781 13.5303C34.6587 14.4238 35.6145 15.7848 35.6145 15.7848C35.6145 15.7848 30.6586 15.1822 27.0015 17.2705Z" fill="url(#paint53_linear_2201_104551)"/>
<path d="M32.9652 18.1221C31.2093 17.4987 27.0015 17.2701 27.0015 17.2701C30.6586 15.1818 35.6145 15.7948 35.6145 15.7948C34.721 17.2701 32.9652 18.1221 32.9652 18.1221Z" fill="url(#paint54_linear_2201_104551)"/>
</g>
<rect x="2.25" y="49.0503" width="49.5003" height="2.7" rx="0.450002" fill="#191919"/>
<path d="M2.25 50.1753C2.25 49.554 2.75368 49.0503 3.375 49.0503H27.0002V51.7503H3.375C2.75368 51.7503 2.25 51.2466 2.25 50.6253V50.1753Z" fill="url(#paint55_radial_2201_104551)"/>
<g filter="url(#filter4_dd_2201_104551)">
<rect x="2.3625" y="49.1628" width="49.2753" height="2.475" rx="0.337501" stroke="url(#paint56_linear_2201_104551)" stroke-width="0.225001"/>
</g>
<g filter="url(#filter5_dd_2201_104551)">
<path d="M27.0002 49.0503V51.7503" stroke="url(#paint57_linear_2201_104551)" stroke-width="0.225001"/>
</g>
</g>
<defs>
<filter id="filter0_i_2201_104551" x="0" y="0" width="54.0002" height="54.9" filterUnits="userSpaceOnUse" color-interpolation-filters="sRGB">
<feFlood flood-opacity="0" result="BackgroundImageFix"/>
<feBlend mode="normal" in="SourceGraphic" in2="BackgroundImageFix" result="shape"/>
<feColorMatrix in="SourceAlpha" type="matrix" values="0 0 0 0 0 0 0 0 0 0 0 0 0 0 0 0 0 0 127 0" result="hardAlpha"/>
<feOffset dy="0.900003"/>
<feGaussianBlur stdDeviation="0.450002"/>
<feComposite in2="hardAlpha" operator="arithmetic" k2="-1" k3="1"/>
<feColorMatrix type="matrix" values="0 0 0 0 0 0 0 0 0 0 0 0 0 0 0 0 0 0 0.25 0"/>
<feBlend mode="normal" in2="shape" result="effect1_innerShadow_2201_104551"/>
</filter>
<filter id="filter1_d_2201_104551" x="-0.48234" y="18.8802" width="32.2943" height="29.366" filterUnits="userSpaceOnUse" color-interpolation-filters="sRGB">
<feFlood flood-opacity="0" result="BackgroundImageFix"/>
<feColorMatrix in="SourceAlpha" type="matrix" values="0 0 0 0 0 0 0 0 0 0 0 0 0 0 0 0 0 0 127 0" result="hardAlpha"/>
<feOffset/>
<feGaussianBlur stdDeviation="3.40401"/>
<feColorMatrix type="matrix" values="0 0 0 0 0 0 0 0 0 0 0 0 0 0 0 0 0 0 0.8 0"/>
<feBlend mode="normal" in2="BackgroundImageFix" result="effect1_dropShadow_2201_104551"/>
<feBlend mode="normal" in="SourceGraphic" in2="effect1_dropShadow_2201_104551" result="shape"/>
</filter>
<filter id="filter2_d_2201_104551" x="22.0177" y="18.8802" width="32.2943" height="29.366" filterUnits="userSpaceOnUse" color-interpolation-filters="sRGB">
<feFlood flood-opacity="0" result="BackgroundImageFix"/>
<feColorMatrix in="SourceAlpha" type="matrix" values="0 0 0 0 0 0 0 0 0 0 0 0 0 0 0 0 0 0 127 0" result="hardAlpha"/>
<feOffset/>
<feGaussianBlur stdDeviation="3.40401"/>
<feColorMatrix type="matrix" values="0 0 0 0 0 0 0 0 0 0 0 0 0 0 0 0 0 0 0.8 0"/>
<feBlend mode="normal" in2="BackgroundImageFix" result="effect1_dropShadow_2201_104551"/>
<feBlend mode="normal" in="SourceGraphic" in2="effect1_dropShadow_2201_104551" result="shape"/>
</filter>
<filter id="filter3_d_2201_104551" x="10.7679" y="0.204916" width="32.2943" height="29.366" filterUnits="userSpaceOnUse" color-interpolation-filters="sRGB">
<feFlood flood-opacity="0" result="BackgroundImageFix"/>
<feColorMatrix in="SourceAlpha" type="matrix" values="0 0 0 0 0 0 0 0 0 0 0 0 0 0 0 0 0 0 127 0" result="hardAlpha"/>
<feOffset/>
<feGaussianBlur stdDeviation="3.40401"/>
<feColorMatrix type="matrix" values="0 0 0 0 0 0 0 0 0 0 0 0 0 0 0 0 0 0 0.8 0"/>
<feBlend mode="normal" in2="BackgroundImageFix" result="effect1_dropShadow_2201_104551"/>
<feBlend mode="normal" in="SourceGraphic" in2="effect1_dropShadow_2201_104551" result="shape"/>
</filter>
<filter id="filter4_dd_2201_104551" x="1.35" y="48.1503" width="51.3003" height="4.49996" filterUnits="userSpaceOnUse" color-interpolation-filters="sRGB">
<feFlood flood-opacity="0" result="BackgroundImageFix"/>
<feColorMatrix in="SourceAlpha" type="matrix" values="0 0 0 0 0 0 0 0 0 0 0 0 0 0 0 0 0 0 127 0" result="hardAlpha"/>
<feOffset/>
<feGaussianBlur stdDeviation="0.450002"/>
<feColorMatrix type="matrix" values="0 0 0 0 0 0 0 0 0 0 0 0 0 0 0 0 0 0 1 0"/>
<feBlend mode="normal" in2="BackgroundImageFix" result="effect1_dropShadow_2201_104551"/>
<feColorMatrix in="SourceAlpha" type="matrix" values="0 0 0 0 0 0 0 0 0 0 0 0 0 0 0 0 0 0 127 0" result="hardAlpha"/>
<feOffset/>
<feGaussianBlur stdDeviation="0.225001"/>
<feColorMatrix type="matrix" values="0 0 0 0 0 0 0 0 0 0 0 0 0 0 0 0 0 0 1 0"/>
<feBlend mode="normal" in2="effect1_dropShadow_2201_104551" result="effect2_dropShadow_2201_104551"/>
<feBlend mode="normal" in="SourceGraphic" in2="effect2_dropShadow_2201_104551" result="shape"/>
</filter>
<filter id="filter5_dd_2201_104551" x="25.9877" y="48.1503" width="2.0251" height="4.49996" filterUnits="userSpaceOnUse" color-interpolation-filters="sRGB">
<feFlood flood-opacity="0" result="BackgroundImageFix"/>
<feColorMatrix in="SourceAlpha" type="matrix" values="0 0 0 0 0 0 0 0 0 0 0 0 0 0 0 0 0 0 127 0" result="hardAlpha"/>
<feOffset/>
<feGaussianBlur stdDeviation="0.450002"/>
<feColorMatrix type="matrix" values="0 0 0 0 0 0 0 0 0 0 0 0 0 0 0 0 0 0 1 0"/>
<feBlend mode="normal" in2="BackgroundImageFix" result="effect1_dropShadow_2201_104551"/>
<feColorMatrix in="SourceAlpha" type="matrix" values="0 0 0 0 0 0 0 0 0 0 0 0 0 0 0 0 0 0 127 0" result="hardAlpha"/>
<feOffset/>
<feGaussianBlur stdDeviation="0.225001"/>
<feColorMatrix type="matrix" values="0 0 0 0 0 0 0 0 0 0 0 0 0 0 0 0 0 0 1 0"/>
<feBlend mode="normal" in2="effect1_dropShadow_2201_104551" result="effect2_dropShadow_2201_104551"/>
<feBlend mode="normal" in="SourceGraphic" in2="effect2_dropShadow_2201_104551" result="shape"/>
</filter>
<linearGradient id="paint0_linear_2201_104551" x1="27.0002" y1="0" x2="27.0002" y2="54" gradientUnits="userSpaceOnUse">
<stop stop-color="#101010"/>
<stop offset="1" stop-color="#131313"/>
</linearGradient>
<linearGradient id="paint1_linear_2201_104551" x1="54.0004" y1="-1.83743e-06" x2="0.000356745" y2="54.0004" gradientUnits="userSpaceOnUse">
<stop stop-color="#EDDE79"/>
<stop offset="0.685495" stop-color="#D69A2D"/>
<stop offset="1" stop-color="#F9F093"/>
</linearGradient>
<linearGradient id="paint2_linear_2201_104551" x1="203.941" y1="-15.0134" x2="162.741" y2="110.512" gradientUnits="userSpaceOnUse">
<stop stop-color="white"/>
<stop offset="0.3172" stop-color="#EDDE79"/>
<stop offset="0.6237" stop-color="#D69A2D"/>
<stop offset="0.8978" stop-color="#F9F093"/>
</linearGradient>
<linearGradient id="paint3_linear_2201_104551" x1="-3.15002" y1="-2.8125" x2="44.3039" y2="-10.0019" gradientUnits="userSpaceOnUse">
<stop stop-color="white"/>
<stop offset="0.3172" stop-color="#EDDE79"/>
<stop offset="0.6237" stop-color="#D69A2D"/>
<stop offset="0.8978" stop-color="#F9F093"/>
</linearGradient>
<linearGradient id="paint4_linear_2201_104551" x1="14.5124" y1="1.12451" x2="14.5124" y2="52.8745" gradientUnits="userSpaceOnUse">
<stop stop-color="#F4E181"/>
<stop offset="1" stop-color="#F4E181" stop-opacity="0"/>
</linearGradient>
<linearGradient id="paint5_linear_2201_104551" x1="26.8874" y1="1.12451" x2="26.8874" y2="52.8745" gradientUnits="userSpaceOnUse">
<stop stop-color="#F4E181"/>
<stop offset="1" stop-color="#F4E181" stop-opacity="0"/>
</linearGradient>
<linearGradient id="paint6_linear_2201_104551" x1="39.2627" y1="1.12451" x2="39.2627" y2="52.8745" gradientUnits="userSpaceOnUse">
<stop stop-color="#F4E181"/>
<stop offset="1" stop-color="#F4E181" stop-opacity="0"/>
</linearGradient>
<linearGradient id="paint7_linear_2201_104551" x1="20.3856" y1="6.19728" x2="9.27342" y2="73.9906" gradientUnits="userSpaceOnUse">
<stop stop-color="white"/>
<stop offset="0.3172" stop-color="#EDDE79"/>
<stop offset="0.6237" stop-color="#D69A2D"/>
<stop offset="0.8978" stop-color="#F9F093"/>
</linearGradient>
<radialGradient id="paint8_angular_2201_104551" cx="0" cy="0" r="1" gradientUnits="userSpaceOnUse" gradientTransform="translate(15.7306 34.2788) rotate(-44.8884) scale(7.25303 7.25297)">
<stop offset="0.10135" stop-color="#EDDE79"/>
<stop offset="0.371555" stop-color="white"/>
<stop offset="0.619704" stop-color="#D69A2D"/>
<stop offset="0.879496" stop-color="#F9F093"/>
</radialGradient>
<linearGradient id="paint9_linear_2201_104551" x1="22.1512" y1="43.1356" x2="10.1854" y2="29.4071" gradientUnits="userSpaceOnUse">
<stop stop-color="white"/>
<stop offset="0.3172" stop-color="#EDDE79"/>
<stop offset="0.6237" stop-color="#D69A2D"/>
<stop offset="0.8978" stop-color="#F9F093"/>
</linearGradient>
<linearGradient id="paint10_linear_2201_104551" x1="5.21605" y1="20.0179" x2="19.7479" y2="23.1325" gradientUnits="userSpaceOnUse">
<stop stop-color="white"/>
<stop offset="0.3172" stop-color="#EDDE79"/>
<stop offset="0.6237" stop-color="#D69A2D"/>
<stop offset="0.8978" stop-color="#F9F093"/>
</linearGradient>
<linearGradient id="paint11_linear_2201_104551" x1="13.3649" y1="29.5211" x2="8.67516" y2="37.6729" gradientUnits="userSpaceOnUse">
<stop stop-color="white"/>
<stop offset="0.3172" stop-color="#EDDE79"/>
<stop offset="0.6237" stop-color="#D69A2D"/>
<stop offset="0.8978" stop-color="#F9F093"/>
</linearGradient>
<linearGradient id="paint12_linear_2201_104551" x1="25.2101" y1="25.8468" x2="28.6178" y2="35.4284" gradientUnits="userSpaceOnUse">
<stop stop-color="white"/>
<stop offset="0.3172" stop-color="#EDDE79"/>
<stop offset="0.6237" stop-color="#D69A2D"/>
<stop offset="0.8978" stop-color="#F9F093"/>
</linearGradient>
<linearGradient id="paint13_linear_2201_104551" x1="17.2949" y1="44.9999" x2="8.44865" y2="35.7148" gradientUnits="userSpaceOnUse">
<stop stop-color="white"/>
<stop offset="0.3172" stop-color="#EDDE79"/>
<stop offset="0.6237" stop-color="#D69A2D"/>
<stop offset="0.8978" stop-color="#F9F093"/>
</linearGradient>
<linearGradient id="paint14_linear_2201_104551" x1="17.2958" y1="40.2714" x2="14.8744" y2="26.2186" gradientUnits="userSpaceOnUse">
<stop stop-color="white"/>
<stop offset="0.3172" stop-color="#EDDE79"/>
<stop offset="0.6237" stop-color="#D69A2D"/>
<stop offset="0.8978" stop-color="#F9F093"/>
</linearGradient>
<linearGradient id="paint15_linear_2201_104551" x1="17.2958" y1="39.5859" x2="15.4585" y2="28.3766" gradientUnits="userSpaceOnUse">
<stop stop-color="white"/>
<stop offset="0.3172" stop-color="#EDDE79"/>
<stop offset="0.6237" stop-color="#D69A2D"/>
<stop offset="0.8978" stop-color="#F9F093"/>
</linearGradient>
<linearGradient id="paint16_linear_2201_104551" x1="11.1048" y1="35.9314" x2="23.1253" y2="25.0912" gradientUnits="userSpaceOnUse">
<stop stop-color="white"/>
<stop offset="0.3172" stop-color="#EDDE79"/>
<stop offset="0.6237" stop-color="#D69A2D"/>
<stop offset="0.8978" stop-color="#F9F093"/>
</linearGradient>
<linearGradient id="paint17_linear_2201_104551" x1="16.1469" y1="28.1443" x2="21.8679" y2="33.0812" gradientUnits="userSpaceOnUse">
<stop stop-color="white"/>
<stop offset="0.3172" stop-color="#EDDE79"/>
<stop offset="0.6237" stop-color="#D69A2D"/>
<stop offset="0.8978" stop-color="#F9F093"/>
</linearGradient>
<linearGradient id="paint18_linear_2201_104551" x1="23.423" y1="27.7615" x2="18.8048" y2="41.238" gradientUnits="userSpaceOnUse">
<stop stop-color="white"/>
<stop offset="0.3172" stop-color="#EDDE79"/>
<stop offset="0.6237" stop-color="#D69A2D"/>
<stop offset="0.8978" stop-color="#F9F093"/>
</linearGradient>
<linearGradient id="paint19_linear_2201_104551" x1="23.5025" y1="45.3041" x2="14.3496" y2="36.0047" gradientUnits="userSpaceOnUse">
<stop stop-color="white"/>
<stop offset="0.3172" stop-color="#EDDE79"/>
<stop offset="0.6237" stop-color="#D69A2D"/>
<stop offset="0.8978" stop-color="#F9F093"/>
</linearGradient>
<linearGradient id="paint20_linear_2201_104551" x1="28.3374" y1="31.591" x2="16.8951" y2="37.9624" gradientUnits="userSpaceOnUse">
<stop stop-color="white"/>
<stop offset="0.3172" stop-color="#EDDE79"/>
<stop offset="0.6237" stop-color="#D69A2D"/>
<stop offset="0.8978" stop-color="#F9F093"/>
</linearGradient>
<linearGradient id="paint21_linear_2201_104551" x1="25.9089" y1="40.2714" x2="23.4874" y2="26.2186" gradientUnits="userSpaceOnUse">
<stop stop-color="white"/>
<stop offset="0.3172" stop-color="#EDDE79"/>
<stop offset="0.6237" stop-color="#D69A2D"/>
<stop offset="0.8978" stop-color="#F9F093"/>
</linearGradient>
<linearGradient id="paint22_linear_2201_104551" x1="25.9089" y1="39.5859" x2="24.0716" y2="28.3766" gradientUnits="userSpaceOnUse">
<stop stop-color="white"/>
<stop offset="0.3172" stop-color="#EDDE79"/>
<stop offset="0.6237" stop-color="#D69A2D"/>
<stop offset="0.8978" stop-color="#F9F093"/>
</linearGradient>
<linearGradient id="paint23_linear_2201_104551" x1="42.8856" y1="6.19728" x2="31.7734" y2="73.9906" gradientUnits="userSpaceOnUse">
<stop stop-color="white"/>
<stop offset="0.3172" stop-color="#EDDE79"/>
<stop offset="0.6237" stop-color="#D69A2D"/>
<stop offset="0.8978" stop-color="#F9F093"/>
</linearGradient>
<radialGradient id="paint24_angular_2201_104551" cx="0" cy="0" r="1" gradientUnits="userSpaceOnUse" gradientTransform="translate(38.2306 34.2788) rotate(-44.8884) scale(7.25303 7.25297)">
<stop offset="0.10135" stop-color="#EDDE79"/>
<stop offset="0.371555" stop-color="white"/>
<stop offset="0.619704" stop-color="#D69A2D"/>
<stop offset="0.879496" stop-color="#F9F093"/>
</radialGradient>
<linearGradient id="paint25_linear_2201_104551" x1="44.6512" y1="43.1356" x2="32.6854" y2="29.4071" gradientUnits="userSpaceOnUse">
<stop stop-color="white"/>
<stop offset="0.3172" stop-color="#EDDE79"/>
<stop offset="0.6237" stop-color="#D69A2D"/>
<stop offset="0.8978" stop-color="#F9F093"/>
</linearGradient>
<linearGradient id="paint26_linear_2201_104551" x1="27.7161" y1="20.0179" x2="42.2479" y2="23.1325" gradientUnits="userSpaceOnUse">
<stop stop-color="white"/>
<stop offset="0.3172" stop-color="#EDDE79"/>
<stop offset="0.6237" stop-color="#D69A2D"/>
<stop offset="0.8978" stop-color="#F9F093"/>
</linearGradient>
<linearGradient id="paint27_linear_2201_104551" x1="35.8649" y1="29.5211" x2="31.1752" y2="37.6729" gradientUnits="userSpaceOnUse">
<stop stop-color="white"/>
<stop offset="0.3172" stop-color="#EDDE79"/>
<stop offset="0.6237" stop-color="#D69A2D"/>
<stop offset="0.8978" stop-color="#F9F093"/>
</linearGradient>
<linearGradient id="paint28_linear_2201_104551" x1="47.7101" y1="25.8468" x2="51.1178" y2="35.4284" gradientUnits="userSpaceOnUse">
<stop stop-color="white"/>
<stop offset="0.3172" stop-color="#EDDE79"/>
<stop offset="0.6237" stop-color="#D69A2D"/>
<stop offset="0.8978" stop-color="#F9F093"/>
</linearGradient>
<linearGradient id="paint29_linear_2201_104551" x1="39.7949" y1="44.9999" x2="30.9487" y2="35.7148" gradientUnits="userSpaceOnUse">
<stop stop-color="white"/>
<stop offset="0.3172" stop-color="#EDDE79"/>
<stop offset="0.6237" stop-color="#D69A2D"/>
<stop offset="0.8978" stop-color="#F9F093"/>
</linearGradient>
<linearGradient id="paint30_linear_2201_104551" x1="39.7958" y1="40.2714" x2="37.3744" y2="26.2186" gradientUnits="userSpaceOnUse">
<stop stop-color="white"/>
<stop offset="0.3172" stop-color="#EDDE79"/>
<stop offset="0.6237" stop-color="#D69A2D"/>
<stop offset="0.8978" stop-color="#F9F093"/>
</linearGradient>
<linearGradient id="paint31_linear_2201_104551" x1="39.7958" y1="39.5859" x2="37.9585" y2="28.3766" gradientUnits="userSpaceOnUse">
<stop stop-color="white"/>
<stop offset="0.3172" stop-color="#EDDE79"/>
<stop offset="0.6237" stop-color="#D69A2D"/>
<stop offset="0.8978" stop-color="#F9F093"/>
</linearGradient>
<linearGradient id="paint32_linear_2201_104551" x1="33.6048" y1="35.9314" x2="45.6253" y2="25.0912" gradientUnits="userSpaceOnUse">
<stop stop-color="white"/>
<stop offset="0.3172" stop-color="#EDDE79"/>
<stop offset="0.6237" stop-color="#D69A2D"/>
<stop offset="0.8978" stop-color="#F9F093"/>
</linearGradient>
<linearGradient id="paint33_linear_2201_104551" x1="38.6469" y1="28.1443" x2="44.3679" y2="33.0812" gradientUnits="userSpaceOnUse">
<stop stop-color="white"/>
<stop offset="0.3172" stop-color="#EDDE79"/>
<stop offset="0.6237" stop-color="#D69A2D"/>
<stop offset="0.8978" stop-color="#F9F093"/>
</linearGradient>
<linearGradient id="paint34_linear_2201_104551" x1="45.923" y1="27.7615" x2="41.3048" y2="41.238" gradientUnits="userSpaceOnUse">
<stop stop-color="white"/>
<stop offset="0.3172" stop-color="#EDDE79"/>
<stop offset="0.6237" stop-color="#D69A2D"/>
<stop offset="0.8978" stop-color="#F9F093"/>
</linearGradient>
<linearGradient id="paint35_linear_2201_104551" x1="46.0025" y1="45.3041" x2="36.8496" y2="36.0047" gradientUnits="userSpaceOnUse">
<stop stop-color="white"/>
<stop offset="0.3172" stop-color="#EDDE79"/>
<stop offset="0.6237" stop-color="#D69A2D"/>
<stop offset="0.8978" stop-color="#F9F093"/>
</linearGradient>
<linearGradient id="paint36_linear_2201_104551" x1="50.8374" y1="31.591" x2="39.3951" y2="37.9624" gradientUnits="userSpaceOnUse">
<stop stop-color="white"/>
<stop offset="0.3172" stop-color="#EDDE79"/>
<stop offset="0.6237" stop-color="#D69A2D"/>
<stop offset="0.8978" stop-color="#F9F093"/>
</linearGradient>
<linearGradient id="paint37_linear_2201_104551" x1="48.4089" y1="40.2714" x2="45.9874" y2="26.2186" gradientUnits="userSpaceOnUse">
<stop stop-color="white"/>
<stop offset="0.3172" stop-color="#EDDE79"/>
<stop offset="0.6237" stop-color="#D69A2D"/>
<stop offset="0.8978" stop-color="#F9F093"/>
</linearGradient>
<linearGradient id="paint38_linear_2201_104551" x1="48.4089" y1="39.5859" x2="46.5716" y2="28.3766" gradientUnits="userSpaceOnUse">
<stop stop-color="white"/>
<stop offset="0.3172" stop-color="#EDDE79"/>
<stop offset="0.6237" stop-color="#D69A2D"/>
<stop offset="0.8978" stop-color="#F9F093"/>
</linearGradient>
<linearGradient id="paint39_linear_2201_104551" x1="31.6358" y1="-12.478" x2="20.5237" y2="55.3153" gradientUnits="userSpaceOnUse">
<stop stop-color="white"/>
<stop offset="0.3172" stop-color="#EDDE79"/>
<stop offset="0.6237" stop-color="#D69A2D"/>
<stop offset="0.8978" stop-color="#F9F093"/>
</linearGradient>
<radialGradient id="paint40_angular_2201_104551" cx="0" cy="0" r="1" gradientUnits="userSpaceOnUse" gradientTransform="translate(26.9809 15.6035) rotate(-44.8884) scale(7.25303 7.25297)">
<stop offset="0.10135" stop-color="#EDDE79"/>
<stop offset="0.371555" stop-color="white"/>
<stop offset="0.619704" stop-color="#D69A2D"/>
<stop offset="0.879496" stop-color="#F9F093"/>
</radialGradient>
<linearGradient id="paint41_linear_2201_104551" x1="33.4014" y1="24.4603" x2="21.4357" y2="10.7318" gradientUnits="userSpaceOnUse">
<stop stop-color="white"/>
<stop offset="0.3172" stop-color="#EDDE79"/>
<stop offset="0.6237" stop-color="#D69A2D"/>
<stop offset="0.8978" stop-color="#F9F093"/>
</linearGradient>
<linearGradient id="paint42_linear_2201_104551" x1="16.4663" y1="1.34263" x2="30.9981" y2="4.45722" gradientUnits="userSpaceOnUse">
<stop stop-color="white"/>
<stop offset="0.3172" stop-color="#EDDE79"/>
<stop offset="0.6237" stop-color="#D69A2D"/>
<stop offset="0.8978" stop-color="#F9F093"/>
</linearGradient>
<linearGradient id="paint43_linear_2201_104551" x1="24.6151" y1="10.8458" x2="19.9254" y2="18.9976" gradientUnits="userSpaceOnUse">
<stop stop-color="white"/>
<stop offset="0.3172" stop-color="#EDDE79"/>
<stop offset="0.6237" stop-color="#D69A2D"/>
<stop offset="0.8978" stop-color="#F9F093"/>
</linearGradient>
<linearGradient id="paint44_linear_2201_104551" x1="36.4604" y1="7.1715" x2="39.868" y2="16.7531" gradientUnits="userSpaceOnUse">
<stop stop-color="white"/>
<stop offset="0.3172" stop-color="#EDDE79"/>
<stop offset="0.6237" stop-color="#D69A2D"/>
<stop offset="0.8978" stop-color="#F9F093"/>
</linearGradient>
<linearGradient id="paint45_linear_2201_104551" x1="28.5451" y1="26.3246" x2="19.6989" y2="17.0395" gradientUnits="userSpaceOnUse">
<stop stop-color="white"/>
<stop offset="0.3172" stop-color="#EDDE79"/>
<stop offset="0.6237" stop-color="#D69A2D"/>
<stop offset="0.8978" stop-color="#F9F093"/>
</linearGradient>
<linearGradient id="paint46_linear_2201_104551" x1="28.5461" y1="21.5961" x2="26.1247" y2="7.54331" gradientUnits="userSpaceOnUse">
<stop stop-color="white"/>
<stop offset="0.3172" stop-color="#EDDE79"/>
<stop offset="0.6237" stop-color="#D69A2D"/>
<stop offset="0.8978" stop-color="#F9F093"/>
</linearGradient>
<linearGradient id="paint47_linear_2201_104551" x1="28.5461" y1="20.9106" x2="26.7088" y2="9.7013" gradientUnits="userSpaceOnUse">
<stop stop-color="white"/>
<stop offset="0.3172" stop-color="#EDDE79"/>
<stop offset="0.6237" stop-color="#D69A2D"/>
<stop offset="0.8978" stop-color="#F9F093"/>
</linearGradient>
<linearGradient id="paint48_linear_2201_104551" x1="22.355" y1="17.2562" x2="34.3755" y2="6.41588" gradientUnits="userSpaceOnUse">
<stop stop-color="white"/>
<stop offset="0.3172" stop-color="#EDDE79"/>
<stop offset="0.6237" stop-color="#D69A2D"/>
<stop offset="0.8978" stop-color="#F9F093"/>
</linearGradient>
<linearGradient id="paint49_linear_2201_104551" x1="27.3972" y1="9.46903" x2="33.1182" y2="14.4059" gradientUnits="userSpaceOnUse">
<stop stop-color="white"/>
<stop offset="0.3172" stop-color="#EDDE79"/>
<stop offset="0.6237" stop-color="#D69A2D"/>
<stop offset="0.8978" stop-color="#F9F093"/>
</linearGradient>
<linearGradient id="paint50_linear_2201_104551" x1="34.6732" y1="9.08618" x2="30.055" y2="22.5627" gradientUnits="userSpaceOnUse">
<stop stop-color="white"/>
<stop offset="0.3172" stop-color="#EDDE79"/>
<stop offset="0.6237" stop-color="#D69A2D"/>
<stop offset="0.8978" stop-color="#F9F093"/>
</linearGradient>
<linearGradient id="paint51_linear_2201_104551" x1="34.7528" y1="26.6288" x2="25.5998" y2="17.3294" gradientUnits="userSpaceOnUse">
<stop stop-color="white"/>
<stop offset="0.3172" stop-color="#EDDE79"/>
<stop offset="0.6237" stop-color="#D69A2D"/>
<stop offset="0.8978" stop-color="#F9F093"/>
</linearGradient>
<linearGradient id="paint52_linear_2201_104551" x1="39.5877" y1="12.9157" x2="28.1454" y2="19.2871" gradientUnits="userSpaceOnUse">
<stop stop-color="white"/>
<stop offset="0.3172" stop-color="#EDDE79"/>
<stop offset="0.6237" stop-color="#D69A2D"/>
<stop offset="0.8978" stop-color="#F9F093"/>
</linearGradient>
<linearGradient id="paint53_linear_2201_104551" x1="37.1591" y1="21.5961" x2="34.7377" y2="7.54331" gradientUnits="userSpaceOnUse">
<stop stop-color="white"/>
<stop offset="0.3172" stop-color="#EDDE79"/>
<stop offset="0.6237" stop-color="#D69A2D"/>
<stop offset="0.8978" stop-color="#F9F093"/>
</linearGradient>
<linearGradient id="paint54_linear_2201_104551" x1="37.1591" y1="20.9106" x2="35.3218" y2="9.7013" gradientUnits="userSpaceOnUse">
<stop stop-color="white"/>
<stop offset="0.3172" stop-color="#EDDE79"/>
<stop offset="0.6237" stop-color="#D69A2D"/>
<stop offset="0.8978" stop-color="#F9F093"/>
</linearGradient>
<radialGradient id="paint55_radial_2201_104551" cx="0" cy="0" r="1" gradientUnits="userSpaceOnUse" gradientTransform="translate(15.5251 51.7503) rotate(180) scale(13.2751 13.275)">
<stop stop-color="#FAF5D5"/>
<stop offset="0.246668" stop-color="#EFE182"/>
<stop offset="0.505747" stop-color="#EACB67"/>
<stop offset="0.745868" stop-color="#E2B850"/>
<stop offset="1" stop-color="#DDAB41"/>
</radialGradient>
<linearGradient id="paint56_linear_2201_104551" x1="27.0002" y1="49.0503" x2="27.0002" y2="51.7503" gradientUnits="userSpaceOnUse">
<stop stop-color="#E5E5E5"/>
<stop offset="1" stop-color="#444B53"/>
</linearGradient>
<linearGradient id="paint57_linear_2201_104551" x1="27.5002" y1="49.0503" x2="27.5002" y2="51.7503" gradientUnits="userSpaceOnUse">
<stop stop-color="#E5E5E5"/>
<stop offset="1" stop-color="#444B53"/>
</linearGradient>
<clipPath id="clip0_2201_104551">
<rect width="54.0004" height="54" fill="white"/>
</clipPath>
</defs>
</svg>
