<svg width="56" height="54" viewBox="0 0 56 54" fill="none" xmlns="http://www.w3.org/2000/svg">
<rect x="1.5625" y="0.562502" width="52.8754" height="52.875" fill="url(#paint0_linear_2005_62170)"/>
<rect x="1.5625" y="0.562502" width="52.8754" height="52.875" fill="url(#paint1_linear_2005_62170)" fill-opacity="0.8"/>
<rect x="1.5625" y="0.562502" width="52.8754" height="52.875" stroke="url(#paint2_linear_2005_62170)" stroke-width="1.125"/>
<g filter="url(#filter0_i_2005_62170)">
<rect x="1.1125" y="0.1125" width="53.7754" height="53.775" stroke="url(#paint3_linear_2005_62170)" stroke-width="0.225001"/>
</g>
<g style="mix-blend-mode:plus-lighter">
<rect x="12.0249" y="1.12451" width="6.97505" height="51.75" fill="url(#paint4_linear_2005_62170)" fill-opacity="0.2"/>
<rect x="24.3999" y="1.12451" width="6.97505" height="51.75" fill="url(#paint5_linear_2005_62170)" fill-opacity="0.2"/>
<rect x="36.7751" y="1.12451" width="6.97505" height="51.75" fill="url(#paint6_linear_2005_62170)" fill-opacity="0.2"/>
</g>
<g filter="url(#filter1_d_2005_62170)">
<path d="M22.5304 32.2059C23.1431 30.5039 22.9525 28.7611 22.9525 28.7611C22.9525 28.7611 22.9525 28.7611 22.9389 28.7747C20.665 28.6521 19.6165 29.1832 19.5348 29.224C19.5348 29.224 19.5348 29.224 19.5348 29.2104C19.5485 29.2104 18.8949 27.6037 16.7572 26.46C14.6058 27.6037 13.9522 29.2104 13.9522 29.2104C13.9522 29.2104 12.9174 28.6249 10.5482 28.7475C10.5482 28.7475 10.3576 30.4903 10.9703 32.1923C9.09131 33.1046 8.13818 34.4662 8.13818 34.4662C9.02323 35.9231 10.7389 36.7673 10.7797 36.7945C10.7661 36.849 10.698 37.1622 10.6299 37.8157C10.5755 38.4421 10.521 39.3543 10.5346 40.607C10.5346 40.607 11.3243 40.7568 12.3592 40.7568C13.7752 40.7432 15.6543 40.4436 16.7299 39.0548C17.8056 40.4436 19.6846 40.7432 21.1007 40.7568C22.1355 40.7704 22.9252 40.607 22.9252 40.607C22.9389 39.3679 22.898 38.4557 22.8299 37.8293C22.7755 37.1622 22.6938 36.849 22.6802 36.7945C22.7346 36.7673 24.4502 35.9231 25.3217 34.4662V34.4526C25.3625 34.4662 24.4094 33.1046 22.5304 32.2059Z" fill="url(#paint7_linear_2005_62170)"/>
<path fill-rule="evenodd" clip-rule="evenodd" d="M22.9806 29.4586C22.9784 30.1228 22.9027 31.1718 22.5305 32.2058C23.4666 32.6535 24.1729 33.2161 24.6409 33.6663C24.7352 33.7569 24.8198 33.843 24.8946 33.9227C25.1709 34.2167 25.3147 34.4234 25.3227 34.4497C25.3231 34.4512 25.3231 34.4521 25.3227 34.4524C25.3225 34.4525 25.3222 34.4525 25.3218 34.4524V34.466C25.3184 34.4717 25.315 34.4773 25.3116 34.483C24.4458 35.915 22.7685 36.7504 22.6824 36.7933L22.6802 36.7944L22.6814 36.799C22.698 36.865 22.7769 37.179 22.83 37.8292C22.8981 38.4555 22.9389 39.3678 22.9253 40.6069C22.9253 40.6069 22.1356 40.7702 21.1008 40.7566C19.8741 40.7448 18.3 40.5185 17.2016 39.5553C17.0321 39.4066 16.8739 39.2404 16.73 39.0546C16.5862 39.2404 16.4279 39.4066 16.2584 39.5553C15.16 40.5185 13.5859 40.7448 12.3593 40.7566C11.3244 40.7566 10.5347 40.6069 10.5347 40.6069C10.5211 39.3542 10.5755 38.4419 10.63 37.8156C10.6981 37.162 10.7662 36.8488 10.7798 36.7944C10.777 36.7925 10.7662 36.7867 10.7483 36.7771C10.5063 36.6478 8.96228 35.8225 8.13827 34.466C8.13827 34.466 9.09139 33.1044 10.9704 32.1922C10.3577 30.4901 10.5483 28.7473 10.5483 28.7473C12.0921 28.6674 13.0694 28.8882 13.5629 29.0518C13.8267 29.1392 13.9523 29.2102 13.9523 29.2102C13.9523 29.2102 14.046 28.9799 14.2793 28.6315C14.662 28.0598 15.4205 27.1705 16.7572 26.4598C18.0088 27.1294 18.7517 27.9578 19.1497 28.5294C19.1697 28.5581 19.1888 28.5862 19.2071 28.6135C19.2093 28.6168 19.2115 28.6201 19.2136 28.6233C19.2492 28.6768 19.2814 28.7276 19.3106 28.7752C19.4636 29.0251 19.5308 29.1888 19.5349 29.2083C19.5352 29.2096 19.5352 29.2102 19.5349 29.2102V29.2239L19.5362 29.2232C19.5416 29.2205 19.5504 29.2161 19.5627 29.2102C19.6372 29.1746 19.8394 29.0847 20.1814 28.9943C20.7171 28.8527 21.5955 28.7097 22.8633 28.7707C22.8884 28.7719 22.9136 28.7732 22.9389 28.7745L22.9526 28.7609C22.9526 28.7609 22.9537 28.7712 22.9555 28.7911C22.9573 28.8111 22.9598 28.8407 22.9625 28.8791C22.9709 28.9971 22.9814 29.1983 22.9806 29.4586ZM22.9449 28.6647C22.9479 28.695 22.9504 28.727 22.9526 28.7609C23.6293 28.6869 23.6293 28.6871 23.6294 28.6872L23.6295 28.6884L23.6297 28.6906L23.6304 28.6968C23.6309 28.7018 23.6315 28.7085 23.6323 28.7168C23.6339 28.7334 23.636 28.7565 23.6383 28.7857C23.6428 28.844 23.6484 28.9266 23.6529 29.0301C23.662 29.2368 23.6669 29.5282 23.6514 29.8754C23.6269 30.4246 23.5507 31.1288 23.3505 31.8658C24.1109 32.2954 24.7014 32.7791 25.1185 33.181C25.3732 33.4264 25.5662 33.6443 25.6966 33.8055C25.7611 33.8854 25.8137 33.9556 25.8522 34.0118C25.8693 34.0368 25.8931 34.0726 25.9143 34.1111L25.9149 34.1123C25.9212 34.1235 25.9525 34.1799 25.9746 34.2537C25.9816 34.2769 25.9931 34.3193 25.9994 34.3737C26.002 34.3963 26.0059 34.4384 26.0026 34.4929V34.6541L25.906 34.8155C25.4043 35.6543 24.6769 36.2933 24.0954 36.7167C23.8497 36.8956 23.6232 37.0409 23.4398 37.151C23.4634 37.3143 23.4875 37.5175 23.5078 37.7647C23.5792 38.427 23.6198 39.3657 23.6061 40.6143L23.6001 41.1625L23.0633 41.2735L22.9253 40.6069C23.0633 41.2735 23.0632 41.2736 23.0631 41.2736L23.0612 41.2739L23.058 41.2746L23.0482 41.2766C23.0402 41.2782 23.0291 41.2803 23.0152 41.2829C22.9874 41.2882 22.948 41.2953 22.8982 41.3036C22.7987 41.3203 22.6571 41.3419 22.4821 41.3628C22.1333 41.4046 21.6469 41.4446 21.0932 41.4374C19.8314 41.4251 18.0224 41.1979 16.73 40.0476C15.4372 41.1983 13.6277 41.4253 12.3658 41.4374L12.3625 41.4374H12.3593C11.8101 41.4374 11.3274 41.3978 10.9814 41.3581C10.808 41.3382 10.6678 41.3183 10.5695 41.303C10.5204 41.2953 10.4816 41.2888 10.4543 41.2841C10.4407 41.2817 10.4299 41.2798 10.4221 41.2784L10.4127 41.2766L10.4097 41.2761L10.4082 41.2758L10.408 41.2758C10.4079 41.2757 10.4078 41.2757 10.5347 40.6069L10.4078 41.2757L9.85999 41.1718L9.85393 40.6143C9.84005 39.3372 9.89558 38.4027 9.95176 37.7566L9.95227 37.7508L9.95287 37.745C9.97755 37.5081 10.0025 37.3116 10.0255 37.1522C9.42657 36.7893 8.25623 35.9715 7.55641 34.8195L7.32568 34.4397L7.58053 34.0756L8.13827 34.466C7.58053 34.0756 7.58065 34.0754 7.58078 34.0753L7.58164 34.074L7.58311 34.0719L7.58713 34.0663C7.59029 34.0619 7.5944 34.0562 7.59948 34.0492C7.60962 34.0353 7.6236 34.0164 7.64141 33.9931C7.67702 33.9463 7.72802 33.8815 7.79438 33.8022C7.92699 33.6437 8.12162 33.4265 8.37812 33.1802C8.7985 32.7764 9.38977 32.2897 10.1512 31.855C9.9504 31.117 9.874 30.4117 9.84946 29.8618C9.83397 29.5145 9.83892 29.2232 9.84795 29.0165C9.85247 28.913 9.85802 28.8304 9.86262 28.7721C9.86491 28.7429 9.86697 28.7198 9.86854 28.7032C9.86933 28.6949 9.86999 28.6882 9.8705 28.6832L9.87115 28.677L9.87138 28.6748L9.87151 28.6736C9.87153 28.6734 9.87154 28.6733 10.5483 28.7473L9.87154 28.6733L9.93454 28.0973L10.5131 28.0674C11.7595 28.0029 12.6752 28.1238 13.2953 28.2702C13.4235 28.3005 13.5389 28.3319 13.6417 28.3628C13.7397 28.209 13.8629 28.0321 14.0148 27.8407C14.4971 27.233 15.2684 26.4803 16.4377 25.8587L16.7583 25.6882L17.0784 25.8595C18.2407 26.4814 19.0086 27.2344 19.4877 27.8427C19.6417 28.0383 19.766 28.219 19.8642 28.376C20.452 28.2042 21.4482 28.0194 22.9109 28.0914L22.9102 28.0814L23.5587 28.0411L23.6293 28.6869L22.9526 28.7609L22.9457 28.65L22.9449 28.6647Z" fill="black"/>
<path fill-rule="evenodd" clip-rule="evenodd" d="M22.9806 29.4586C22.9784 30.1228 22.9027 31.1718 22.5305 32.2058C23.4666 32.6535 24.1729 33.2161 24.6409 33.6663C24.7352 33.7569 24.8198 33.843 24.8946 33.9227C25.1709 34.2167 25.3147 34.4234 25.3227 34.4497C25.3231 34.4512 25.3231 34.4521 25.3227 34.4524C25.3225 34.4525 25.3222 34.4525 25.3218 34.4524V34.466C25.3184 34.4717 25.315 34.4773 25.3116 34.483C24.4458 35.915 22.7685 36.7504 22.6824 36.7933L22.6802 36.7944L22.6814 36.799C22.698 36.865 22.7769 37.179 22.83 37.8292C22.8981 38.4555 22.9389 39.3678 22.9253 40.6069C22.9253 40.6069 22.1356 40.7702 21.1008 40.7566C19.8741 40.7448 18.3 40.5185 17.2016 39.5553C17.0321 39.4066 16.8739 39.2404 16.73 39.0546C16.5862 39.2404 16.4279 39.4066 16.2584 39.5553C15.16 40.5185 13.5859 40.7448 12.3593 40.7566C11.3244 40.7566 10.5347 40.6069 10.5347 40.6069C10.5211 39.3542 10.5755 38.4419 10.63 37.8156C10.6981 37.162 10.7662 36.8488 10.7798 36.7944C10.777 36.7925 10.7662 36.7867 10.7483 36.7771C10.5063 36.6478 8.96228 35.8225 8.13827 34.466C8.13827 34.466 9.09139 33.1044 10.9704 32.1922C10.3577 30.4901 10.5483 28.7473 10.5483 28.7473C12.0921 28.6674 13.0694 28.8882 13.5629 29.0518C13.8267 29.1392 13.9523 29.2102 13.9523 29.2102C13.9523 29.2102 14.046 28.9799 14.2793 28.6315C14.662 28.0598 15.4205 27.1705 16.7572 26.4598C18.0088 27.1294 18.7517 27.9578 19.1497 28.5294C19.1697 28.5581 19.1888 28.5862 19.2071 28.6135C19.2093 28.6168 19.2115 28.6201 19.2136 28.6233C19.2492 28.6768 19.2814 28.7276 19.3106 28.7752C19.4636 29.0251 19.5308 29.1888 19.5349 29.2083C19.5352 29.2096 19.5352 29.2102 19.5349 29.2102V29.2239L19.5362 29.2232C19.5416 29.2205 19.5504 29.2161 19.5627 29.2102C19.6372 29.1746 19.8394 29.0847 20.1814 28.9943C20.7171 28.8527 21.5955 28.7097 22.8633 28.7707C22.8884 28.7719 22.9136 28.7732 22.9389 28.7745L22.9526 28.7609C22.9526 28.7609 22.9537 28.7712 22.9555 28.7911C22.9573 28.8111 22.9598 28.8407 22.9625 28.8791C22.9709 28.9971 22.9814 29.1983 22.9806 29.4586ZM22.9449 28.6647C22.9479 28.695 22.9504 28.727 22.9526 28.7609C23.6293 28.6869 23.6293 28.6871 23.6294 28.6872L23.6295 28.6884L23.6297 28.6906L23.6304 28.6968C23.6309 28.7018 23.6315 28.7085 23.6323 28.7168C23.6339 28.7334 23.636 28.7565 23.6383 28.7857C23.6428 28.844 23.6484 28.9266 23.6529 29.0301C23.662 29.2368 23.6669 29.5282 23.6514 29.8754C23.6269 30.4246 23.5507 31.1288 23.3505 31.8658C24.1109 32.2954 24.7014 32.7791 25.1185 33.181C25.3732 33.4264 25.5662 33.6443 25.6966 33.8055C25.7611 33.8854 25.8137 33.9556 25.8522 34.0118C25.8693 34.0368 25.8931 34.0726 25.9143 34.1111L25.9149 34.1123C25.9212 34.1235 25.9525 34.1799 25.9746 34.2537C25.9816 34.2769 25.9931 34.3193 25.9994 34.3737C26.002 34.3963 26.0059 34.4384 26.0026 34.4929V34.6541L25.906 34.8155C25.4043 35.6543 24.6769 36.2933 24.0954 36.7167C23.8497 36.8956 23.6232 37.0409 23.4398 37.151C23.4634 37.3143 23.4875 37.5175 23.5078 37.7647C23.5792 38.427 23.6198 39.3657 23.6061 40.6143L23.6001 41.1625L23.0633 41.2735L22.9253 40.6069C23.0633 41.2735 23.0632 41.2736 23.0631 41.2736L23.0612 41.2739L23.058 41.2746L23.0482 41.2766C23.0402 41.2782 23.0291 41.2803 23.0152 41.2829C22.9874 41.2882 22.948 41.2953 22.8982 41.3036C22.7987 41.3203 22.6571 41.3419 22.4821 41.3628C22.1333 41.4046 21.6469 41.4446 21.0932 41.4374C19.8314 41.4251 18.0224 41.1979 16.73 40.0476C15.4372 41.1983 13.6277 41.4253 12.3658 41.4374L12.3625 41.4374H12.3593C11.8101 41.4374 11.3274 41.3978 10.9814 41.3581C10.808 41.3382 10.6678 41.3183 10.5695 41.303C10.5204 41.2953 10.4816 41.2888 10.4543 41.2841C10.4407 41.2817 10.4299 41.2798 10.4221 41.2784L10.4127 41.2766L10.4097 41.2761L10.4082 41.2758L10.408 41.2758C10.4079 41.2757 10.4078 41.2757 10.5347 40.6069L10.4078 41.2757L9.85999 41.1718L9.85393 40.6143C9.84005 39.3372 9.89558 38.4027 9.95176 37.7566L9.95227 37.7508L9.95287 37.745C9.97755 37.5081 10.0025 37.3116 10.0255 37.1522C9.42657 36.7893 8.25623 35.9715 7.55641 34.8195L7.32568 34.4397L7.58053 34.0756L8.13827 34.466C7.58053 34.0756 7.58065 34.0754 7.58078 34.0753L7.58164 34.074L7.58311 34.0719L7.58713 34.0663C7.59029 34.0619 7.5944 34.0562 7.59948 34.0492C7.60962 34.0353 7.6236 34.0164 7.64141 33.9931C7.67702 33.9463 7.72802 33.8815 7.79438 33.8022C7.92699 33.6437 8.12162 33.4265 8.37812 33.1802C8.7985 32.7764 9.38977 32.2897 10.1512 31.855C9.9504 31.117 9.874 30.4117 9.84946 29.8618C9.83397 29.5145 9.83892 29.2232 9.84795 29.0165C9.85247 28.913 9.85802 28.8304 9.86262 28.7721C9.86491 28.7429 9.86697 28.7198 9.86854 28.7032C9.86933 28.6949 9.86999 28.6882 9.8705 28.6832L9.87115 28.677L9.87138 28.6748L9.87151 28.6736C9.87153 28.6734 9.87154 28.6733 10.5483 28.7473L9.87154 28.6733L9.93454 28.0973L10.5131 28.0674C11.7595 28.0029 12.6752 28.1238 13.2953 28.2702C13.4235 28.3005 13.5389 28.3319 13.6417 28.3628C13.7397 28.209 13.8629 28.0321 14.0148 27.8407C14.4971 27.233 15.2684 26.4803 16.4377 25.8587L16.7583 25.6882L17.0784 25.8595C18.2407 26.4814 19.0086 27.2344 19.4877 27.8427C19.6417 28.0383 19.766 28.219 19.8642 28.376C20.452 28.2042 21.4482 28.0194 22.9109 28.0914L22.9102 28.0814L23.5587 28.0411L23.6293 28.6869L22.9526 28.7609L22.9457 28.65L22.9449 28.6647Z" fill="url(#paint8_angular_2005_62170)"/>
<path d="M16.7511 26.4602V35.946V35.9356C16.6992 35.707 15.8472 31.894 13.9563 29.2135C13.9563 29.2135 14.6109 27.6031 16.7511 26.4602Z" fill="url(#paint9_linear_2005_62170)"/>
<path d="M16.7512 35.9453C14.9746 32.3297 10.5486 28.7556 10.5486 28.7556C12.9278 28.6206 13.9564 29.2128 13.9564 29.2128C15.8473 31.8933 16.6993 35.7063 16.7512 35.9453Z" fill="url(#paint10_linear_2005_62170)"/>
<path d="M16.7512 35.9455C13.946 33.3585 10.9746 32.2052 10.9746 32.2052C10.3616 30.5013 10.5486 28.7559 10.5486 28.7559C10.5486 28.7559 14.9746 32.3299 16.7512 35.9455Z" fill="url(#paint11_linear_2005_62170)"/>
<path d="M16.7513 35.9456C16.7513 35.9456 12.5435 36.1741 10.7876 36.7975C10.7876 36.7975 10.5071 37.9819 10.5486 40.6105C10.5486 40.6105 11.3383 40.7664 12.3772 40.756C13.7902 40.7456 15.6708 40.4443 16.7513 39.0521V35.9456Z" fill="url(#paint12_linear_2005_62170)"/>
<path d="M16.7512 35.9456L10.5485 40.6001C10.5278 37.7741 10.7875 36.7871 10.7875 36.7871C12.5434 36.1741 16.7512 35.9456 16.7512 35.9456Z" fill="url(#paint13_linear_2005_62170)"/>
<path d="M16.7513 35.9458C13.946 33.3588 10.9746 32.2056 10.9746 32.2056C9.09404 33.0991 8.13818 34.4705 8.13818 34.4705C8.13818 34.4705 13.0837 33.8575 16.7513 35.9458Z" fill="url(#paint14_linear_2005_62170)"/>
<path d="M10.7876 36.7974C12.5434 36.174 16.7513 35.9454 16.7513 35.9454C13.0837 33.8571 8.13818 34.4701 8.13818 34.4701C9.0317 35.9454 10.7876 36.7974 10.7876 36.7974Z" fill="url(#paint15_linear_2005_62170)"/>
<path d="M16.7512 26.4602V35.946V35.9356C16.8032 35.6966 17.6551 31.894 19.5461 29.2031C19.5461 29.2135 18.8915 27.6031 16.7512 26.4602Z" fill="url(#paint16_linear_2005_62170)"/>
<path d="M16.7512 35.9454C18.5279 32.3298 22.9539 28.7662 22.9539 28.7662C20.5746 28.6311 19.5357 29.2129 19.5357 29.2129C17.6551 31.8935 16.8032 35.7065 16.7512 35.9454Z" fill="url(#paint17_linear_2005_62170)"/>
<path d="M16.7512 35.9455C19.5564 33.3585 22.5279 32.2052 22.5279 32.2052C23.1409 30.5013 22.9539 28.7559 22.9539 28.7559C22.9539 28.7559 18.5279 32.3299 16.7512 35.9455Z" fill="url(#paint18_linear_2005_62170)"/>
<path d="M16.7512 35.9456C16.7512 35.9456 20.9591 36.1741 22.7149 36.7975C22.7149 36.7975 22.9954 37.9819 22.9539 40.6105C22.9539 40.6105 22.1643 40.7664 21.1253 40.756C19.7123 40.7456 17.8318 40.4443 16.7512 39.0521V35.9456Z" fill="url(#paint19_linear_2005_62170)"/>
<path d="M16.7512 35.9456L22.9539 40.6001C22.9747 37.7741 22.7149 36.7871 22.7149 36.7871C20.9591 36.1741 16.7512 35.9456 16.7512 35.9456Z" fill="url(#paint20_linear_2005_62170)"/>
<path d="M16.7512 35.9458C19.5564 33.3588 22.5279 32.2056 22.5279 32.2056C24.4084 33.0991 25.3643 34.4601 25.3643 34.4601C25.3643 34.4601 20.4084 33.8575 16.7512 35.9458Z" fill="url(#paint21_linear_2005_62170)"/>
<path d="M22.7149 36.7974C20.9591 36.174 16.7512 35.9454 16.7512 35.9454C20.4084 33.8571 25.3643 34.4701 25.3643 34.4701C24.4708 35.9454 22.7149 36.7974 22.7149 36.7974Z" fill="url(#paint22_linear_2005_62170)"/>
</g>
<g filter="url(#filter2_d_2005_62170)">
<path d="M45.0304 32.2059C45.6431 30.5039 45.4525 28.7611 45.4525 28.7611C45.4525 28.7611 45.4525 28.7611 45.4389 28.7747C43.165 28.6521 42.1165 29.1832 42.0348 29.224C42.0348 29.224 42.0348 29.224 42.0348 29.2104C42.0485 29.2104 41.3949 27.6037 39.2572 26.46C37.1058 27.6037 36.4522 29.2104 36.4522 29.2104C36.4522 29.2104 35.4174 28.6249 33.0482 28.7475C33.0482 28.7475 32.8576 30.4903 33.4703 32.1923C31.5913 33.1046 30.6382 34.4662 30.6382 34.4662C31.5232 35.9231 33.2389 36.7673 33.2797 36.7945C33.2661 36.849 33.198 37.1622 33.1299 37.8157C33.0755 38.4421 33.021 39.3543 33.0346 40.607C33.0346 40.607 33.8243 40.7568 34.8592 40.7568C36.2752 40.7432 38.1543 40.4436 39.2299 39.0548C40.3056 40.4436 42.1846 40.7432 43.6007 40.7568C44.6355 40.7704 45.4252 40.607 45.4252 40.607C45.4389 39.3679 45.398 38.4557 45.3299 37.8293C45.2755 37.1622 45.1938 36.849 45.1802 36.7945C45.2346 36.7673 46.9502 35.9231 47.8217 34.4662V34.4526C47.8625 34.4662 46.9094 33.1046 45.0304 32.2059Z" fill="url(#paint23_linear_2005_62170)"/>
<path fill-rule="evenodd" clip-rule="evenodd" d="M45.4806 29.4586C45.4784 30.1228 45.4027 31.1718 45.0305 32.2058C45.9666 32.6535 46.6729 33.2161 47.1409 33.6663C47.2352 33.7569 47.3198 33.843 47.3946 33.9227C47.6709 34.2167 47.8147 34.4234 47.8227 34.4497C47.8231 34.4512 47.8231 34.4521 47.8227 34.4524C47.8225 34.4525 47.8222 34.4525 47.8218 34.4524V34.466C47.8184 34.4717 47.815 34.4773 47.8116 34.483C46.9458 35.915 45.2685 36.7504 45.1824 36.7933L45.1802 36.7944L45.1814 36.799C45.198 36.865 45.2769 37.179 45.33 37.8292C45.3981 38.4555 45.4389 39.3678 45.4253 40.6069C45.4253 40.6069 44.6356 40.7702 43.6008 40.7566C42.3741 40.7448 40.8 40.5185 39.7016 39.5553C39.5321 39.4066 39.3739 39.2404 39.23 39.0546C39.0862 39.2404 38.9279 39.4066 38.7584 39.5553C37.66 40.5185 36.0859 40.7448 34.8593 40.7566C33.8244 40.7566 33.0347 40.6069 33.0347 40.6069C33.0211 39.3542 33.0755 38.4419 33.13 37.8156C33.1981 37.162 33.2662 36.8488 33.2798 36.7944C33.277 36.7925 33.2662 36.7867 33.2483 36.7771C33.0063 36.6478 31.4623 35.8225 30.6383 34.466C30.6383 34.466 31.5914 33.1044 33.4704 32.1922C32.8577 30.4901 33.0483 28.7473 33.0483 28.7473C34.5921 28.6674 35.5694 28.8882 36.0629 29.0518C36.3267 29.1392 36.4523 29.2102 36.4523 29.2102C36.4523 29.2102 36.546 28.9799 36.7793 28.6315C37.162 28.0598 37.9205 27.1705 39.2572 26.4598C40.5088 27.1294 41.2517 27.9578 41.6497 28.5294C41.6697 28.5581 41.6888 28.5862 41.7071 28.6135C41.7093 28.6168 41.7115 28.6201 41.7136 28.6233C41.7492 28.6768 41.7814 28.7276 41.8106 28.7752C41.9636 29.0251 42.0308 29.1888 42.0349 29.2083C42.0352 29.2096 42.0352 29.2102 42.0349 29.2102V29.2239L42.0362 29.2232C42.0416 29.2205 42.0504 29.2161 42.0627 29.2102C42.1372 29.1746 42.3394 29.0847 42.6814 28.9943C43.2171 28.8527 44.0955 28.7097 45.3633 28.7707C45.3884 28.7719 45.4136 28.7732 45.4389 28.7745L45.4526 28.7609C45.4526 28.7609 45.4537 28.7712 45.4555 28.7911C45.4573 28.8111 45.4598 28.8407 45.4625 28.8791C45.4709 28.9971 45.4814 29.1983 45.4806 29.4586ZM45.4449 28.6647C45.4479 28.695 45.4504 28.727 45.4526 28.7609C46.1293 28.6869 46.1293 28.6871 46.1294 28.6872L46.1295 28.6884L46.1297 28.6906L46.1304 28.6968C46.1309 28.7018 46.1315 28.7085 46.1323 28.7168C46.1339 28.7334 46.136 28.7565 46.1383 28.7857C46.1428 28.844 46.1484 28.9266 46.1529 29.0301C46.162 29.2368 46.1669 29.5282 46.1514 29.8754C46.1269 30.4246 46.0507 31.1288 45.8505 31.8658C46.6109 32.2954 47.2014 32.7791 47.6185 33.181C47.8732 33.4264 48.0662 33.6443 48.1966 33.8055C48.2611 33.8854 48.3137 33.9556 48.3522 34.0118C48.3693 34.0368 48.3931 34.0726 48.4143 34.1111L48.4149 34.1123C48.4212 34.1235 48.4525 34.1799 48.4746 34.2537C48.4816 34.2769 48.4931 34.3193 48.4994 34.3737C48.502 34.3963 48.5059 34.4384 48.5026 34.4929V34.6541L48.406 34.8155C47.9043 35.6543 47.1769 36.2933 46.5954 36.7167C46.3497 36.8956 46.1232 37.0409 45.9398 37.151C45.9634 37.3143 45.9875 37.5175 46.0078 37.7647C46.0792 38.427 46.1198 39.3657 46.1061 40.6143L46.1001 41.1625L45.5633 41.2735L45.4253 40.6069C45.5633 41.2735 45.5632 41.2736 45.5631 41.2736L45.5612 41.2739L45.558 41.2746L45.5482 41.2766C45.5402 41.2782 45.5291 41.2803 45.5152 41.2829C45.4874 41.2882 45.448 41.2953 45.3982 41.3036C45.2987 41.3203 45.1571 41.3419 44.9821 41.3628C44.6333 41.4046 44.1469 41.4446 43.5932 41.4374C42.3314 41.4251 40.5224 41.1979 39.23 40.0476C37.9372 41.1983 36.1277 41.4253 34.8658 41.4374L34.8625 41.4374H34.8593C34.3101 41.4374 33.8274 41.3978 33.4814 41.3581C33.308 41.3382 33.1678 41.3183 33.0695 41.303C33.0204 41.2953 32.9816 41.2888 32.9543 41.2841C32.9407 41.2817 32.9299 41.2798 32.9221 41.2784L32.9127 41.2766L32.9097 41.2761L32.9082 41.2758L32.908 41.2758C32.9079 41.2757 32.9078 41.2757 33.0347 40.6069L32.9078 41.2757L32.36 41.1718L32.3539 40.6143C32.3401 39.3372 32.3956 38.4027 32.4518 37.7566L32.4523 37.7508L32.4529 37.745C32.4775 37.5081 32.5025 37.3116 32.5255 37.1522C31.9266 36.7893 30.7562 35.9715 30.0564 34.8195L29.8257 34.4397L30.0805 34.0756L30.6383 34.466C30.0805 34.0756 30.0807 34.0754 30.0808 34.0753L30.0816 34.074L30.0831 34.0719L30.0871 34.0663C30.0903 34.0619 30.0944 34.0562 30.0995 34.0492C30.1096 34.0353 30.1236 34.0164 30.1414 33.9931C30.177 33.9463 30.228 33.8815 30.2944 33.8022C30.427 33.6437 30.6216 33.4265 30.8781 33.1802C31.2985 32.7764 31.8898 32.2897 32.6512 31.855C32.4504 31.117 32.374 30.4117 32.3495 29.8618C32.334 29.5145 32.3389 29.2232 32.3479 29.0165C32.3525 28.913 32.358 28.8304 32.3626 28.7721C32.3649 28.7429 32.367 28.7198 32.3685 28.7032C32.3693 28.6949 32.37 28.6882 32.3705 28.6832L32.3711 28.677L32.3714 28.6748L32.3715 28.6736C32.3715 28.6734 32.3715 28.6733 33.0483 28.7473L32.3715 28.6733L32.4345 28.0973L33.0131 28.0674C34.2595 28.0029 35.1752 28.1238 35.7953 28.2702C35.9235 28.3005 36.0389 28.3319 36.1417 28.3628C36.2397 28.209 36.3629 28.0321 36.5148 27.8407C36.9971 27.233 37.7684 26.4803 38.9377 25.8587L39.2583 25.6882L39.5784 25.8595C40.7407 26.4814 41.5086 27.2344 41.9877 27.8427C42.1417 28.0383 42.266 28.219 42.3642 28.376C42.952 28.2042 43.9482 28.0194 45.4109 28.0914L45.4102 28.0814L46.0587 28.0411L46.1293 28.6869L45.4526 28.7609L45.4457 28.65L45.4449 28.6647Z" fill="black"/>
<path fill-rule="evenodd" clip-rule="evenodd" d="M45.4806 29.4586C45.4784 30.1228 45.4027 31.1718 45.0305 32.2058C45.9666 32.6535 46.6729 33.2161 47.1409 33.6663C47.2352 33.7569 47.3198 33.843 47.3946 33.9227C47.6709 34.2167 47.8147 34.4234 47.8227 34.4497C47.8231 34.4512 47.8231 34.4521 47.8227 34.4524C47.8225 34.4525 47.8222 34.4525 47.8218 34.4524V34.466C47.8184 34.4717 47.815 34.4773 47.8116 34.483C46.9458 35.915 45.2685 36.7504 45.1824 36.7933L45.1802 36.7944L45.1814 36.799C45.198 36.865 45.2769 37.179 45.33 37.8292C45.3981 38.4555 45.4389 39.3678 45.4253 40.6069C45.4253 40.6069 44.6356 40.7702 43.6008 40.7566C42.3741 40.7448 40.8 40.5185 39.7016 39.5553C39.5321 39.4066 39.3739 39.2404 39.23 39.0546C39.0862 39.2404 38.9279 39.4066 38.7584 39.5553C37.66 40.5185 36.0859 40.7448 34.8593 40.7566C33.8244 40.7566 33.0347 40.6069 33.0347 40.6069C33.0211 39.3542 33.0755 38.4419 33.13 37.8156C33.1981 37.162 33.2662 36.8488 33.2798 36.7944C33.277 36.7925 33.2662 36.7867 33.2483 36.7771C33.0063 36.6478 31.4623 35.8225 30.6383 34.466C30.6383 34.466 31.5914 33.1044 33.4704 32.1922C32.8577 30.4901 33.0483 28.7473 33.0483 28.7473C34.5921 28.6674 35.5694 28.8882 36.0629 29.0518C36.3267 29.1392 36.4523 29.2102 36.4523 29.2102C36.4523 29.2102 36.546 28.9799 36.7793 28.6315C37.162 28.0598 37.9205 27.1705 39.2572 26.4598C40.5088 27.1294 41.2517 27.9578 41.6497 28.5294C41.6697 28.5581 41.6888 28.5862 41.7071 28.6135C41.7093 28.6168 41.7115 28.6201 41.7136 28.6233C41.7492 28.6768 41.7814 28.7276 41.8106 28.7752C41.9636 29.0251 42.0308 29.1888 42.0349 29.2083C42.0352 29.2096 42.0352 29.2102 42.0349 29.2102V29.2239L42.0362 29.2232C42.0416 29.2205 42.0504 29.2161 42.0627 29.2102C42.1372 29.1746 42.3394 29.0847 42.6814 28.9943C43.2171 28.8527 44.0955 28.7097 45.3633 28.7707C45.3884 28.7719 45.4136 28.7732 45.4389 28.7745L45.4526 28.7609C45.4526 28.7609 45.4537 28.7712 45.4555 28.7911C45.4573 28.8111 45.4598 28.8407 45.4625 28.8791C45.4709 28.9971 45.4814 29.1983 45.4806 29.4586ZM45.4449 28.6647C45.4479 28.695 45.4504 28.727 45.4526 28.7609C46.1293 28.6869 46.1293 28.6871 46.1294 28.6872L46.1295 28.6884L46.1297 28.6906L46.1304 28.6968C46.1309 28.7018 46.1315 28.7085 46.1323 28.7168C46.1339 28.7334 46.136 28.7565 46.1383 28.7857C46.1428 28.844 46.1484 28.9266 46.1529 29.0301C46.162 29.2368 46.1669 29.5282 46.1514 29.8754C46.1269 30.4246 46.0507 31.1288 45.8505 31.8658C46.6109 32.2954 47.2014 32.7791 47.6185 33.181C47.8732 33.4264 48.0662 33.6443 48.1966 33.8055C48.2611 33.8854 48.3137 33.9556 48.3522 34.0118C48.3693 34.0368 48.3931 34.0726 48.4143 34.1111L48.4149 34.1123C48.4212 34.1235 48.4525 34.1799 48.4746 34.2537C48.4816 34.2769 48.4931 34.3193 48.4994 34.3737C48.502 34.3963 48.5059 34.4384 48.5026 34.4929V34.6541L48.406 34.8155C47.9043 35.6543 47.1769 36.2933 46.5954 36.7167C46.3497 36.8956 46.1232 37.0409 45.9398 37.151C45.9634 37.3143 45.9875 37.5175 46.0078 37.7647C46.0792 38.427 46.1198 39.3657 46.1061 40.6143L46.1001 41.1625L45.5633 41.2735L45.4253 40.6069C45.5633 41.2735 45.5632 41.2736 45.5631 41.2736L45.5612 41.2739L45.558 41.2746L45.5482 41.2766C45.5402 41.2782 45.5291 41.2803 45.5152 41.2829C45.4874 41.2882 45.448 41.2953 45.3982 41.3036C45.2987 41.3203 45.1571 41.3419 44.9821 41.3628C44.6333 41.4046 44.1469 41.4446 43.5932 41.4374C42.3314 41.4251 40.5224 41.1979 39.23 40.0476C37.9372 41.1983 36.1277 41.4253 34.8658 41.4374L34.8625 41.4374H34.8593C34.3101 41.4374 33.8274 41.3978 33.4814 41.3581C33.308 41.3382 33.1678 41.3183 33.0695 41.303C33.0204 41.2953 32.9816 41.2888 32.9543 41.2841C32.9407 41.2817 32.9299 41.2798 32.9221 41.2784L32.9127 41.2766L32.9097 41.2761L32.9082 41.2758L32.908 41.2758C32.9079 41.2757 32.9078 41.2757 33.0347 40.6069L32.9078 41.2757L32.36 41.1718L32.3539 40.6143C32.3401 39.3372 32.3956 38.4027 32.4518 37.7566L32.4523 37.7508L32.4529 37.745C32.4775 37.5081 32.5025 37.3116 32.5255 37.1522C31.9266 36.7893 30.7562 35.9715 30.0564 34.8195L29.8257 34.4397L30.0805 34.0756L30.6383 34.466C30.0805 34.0756 30.0807 34.0754 30.0808 34.0753L30.0816 34.074L30.0831 34.0719L30.0871 34.0663C30.0903 34.0619 30.0944 34.0562 30.0995 34.0492C30.1096 34.0353 30.1236 34.0164 30.1414 33.9931C30.177 33.9463 30.228 33.8815 30.2944 33.8022C30.427 33.6437 30.6216 33.4265 30.8781 33.1802C31.2985 32.7764 31.8898 32.2897 32.6512 31.855C32.4504 31.117 32.374 30.4117 32.3495 29.8618C32.334 29.5145 32.3389 29.2232 32.3479 29.0165C32.3525 28.913 32.358 28.8304 32.3626 28.7721C32.3649 28.7429 32.367 28.7198 32.3685 28.7032C32.3693 28.6949 32.37 28.6882 32.3705 28.6832L32.3711 28.677L32.3714 28.6748L32.3715 28.6736C32.3715 28.6734 32.3715 28.6733 33.0483 28.7473L32.3715 28.6733L32.4345 28.0973L33.0131 28.0674C34.2595 28.0029 35.1752 28.1238 35.7953 28.2702C35.9235 28.3005 36.0389 28.3319 36.1417 28.3628C36.2397 28.209 36.3629 28.0321 36.5148 27.8407C36.9971 27.233 37.7684 26.4803 38.9377 25.8587L39.2583 25.6882L39.5784 25.8595C40.7407 26.4814 41.5086 27.2344 41.9877 27.8427C42.1417 28.0383 42.266 28.219 42.3642 28.376C42.952 28.2042 43.9482 28.0194 45.4109 28.0914L45.4102 28.0814L46.0587 28.0411L46.1293 28.6869L45.4526 28.7609L45.4457 28.65L45.4449 28.6647Z" fill="url(#paint24_angular_2005_62170)"/>
<path d="M39.2511 26.4602V35.946V35.9356C39.1992 35.707 38.3472 31.894 36.4563 29.2135C36.4563 29.2135 37.1109 27.6031 39.2511 26.4602Z" fill="url(#paint25_linear_2005_62170)"/>
<path d="M39.2512 35.9453C37.4746 32.3297 33.0486 28.7556 33.0486 28.7556C35.4278 28.6206 36.4564 29.2128 36.4564 29.2128C38.3473 31.8933 39.1993 35.7063 39.2512 35.9453Z" fill="url(#paint26_linear_2005_62170)"/>
<path d="M39.2512 35.9455C36.446 33.3585 33.4746 32.2052 33.4746 32.2052C32.8616 30.5013 33.0486 28.7559 33.0486 28.7559C33.0486 28.7559 37.4746 32.3299 39.2512 35.9455Z" fill="url(#paint27_linear_2005_62170)"/>
<path d="M39.2513 35.9456C39.2513 35.9456 35.0435 36.1741 33.2876 36.7975C33.2876 36.7975 33.0071 37.9819 33.0486 40.6105C33.0486 40.6105 33.8383 40.7664 34.8772 40.756C36.2902 40.7456 38.1708 40.4443 39.2513 39.0521V35.9456Z" fill="url(#paint28_linear_2005_62170)"/>
<path d="M39.2512 35.9456L33.0485 40.6001C33.0278 37.7741 33.2875 36.7871 33.2875 36.7871C35.0434 36.1741 39.2512 35.9456 39.2512 35.9456Z" fill="url(#paint29_linear_2005_62170)"/>
<path d="M39.2513 35.9458C36.446 33.3588 33.4746 32.2056 33.4746 32.2056C31.594 33.0991 30.6382 34.4705 30.6382 34.4705C30.6382 34.4705 35.5837 33.8575 39.2513 35.9458Z" fill="url(#paint30_linear_2005_62170)"/>
<path d="M33.2876 36.7974C35.0434 36.174 39.2513 35.9454 39.2513 35.9454C35.5837 33.8571 30.6382 34.4701 30.6382 34.4701C31.5317 35.9454 33.2876 36.7974 33.2876 36.7974Z" fill="url(#paint31_linear_2005_62170)"/>
<path d="M39.2512 26.4602V35.946V35.9356C39.3032 35.6966 40.1551 31.894 42.0461 29.2031C42.0461 29.2135 41.3915 27.6031 39.2512 26.4602Z" fill="url(#paint32_linear_2005_62170)"/>
<path d="M39.2512 35.9454C41.0279 32.3298 45.4539 28.7662 45.4539 28.7662C43.0746 28.6311 42.0357 29.2129 42.0357 29.2129C40.1551 31.8935 39.3032 35.7065 39.2512 35.9454Z" fill="url(#paint33_linear_2005_62170)"/>
<path d="M39.2512 35.9455C42.0564 33.3585 45.0279 32.2052 45.0279 32.2052C45.6409 30.5013 45.4539 28.7559 45.4539 28.7559C45.4539 28.7559 41.0279 32.3299 39.2512 35.9455Z" fill="url(#paint34_linear_2005_62170)"/>
<path d="M39.2512 35.9456C39.2512 35.9456 43.4591 36.1741 45.2149 36.7975C45.2149 36.7975 45.4954 37.9819 45.4539 40.6105C45.4539 40.6105 44.6643 40.7664 43.6253 40.756C42.2123 40.7456 40.3318 40.4443 39.2512 39.0521V35.9456Z" fill="url(#paint35_linear_2005_62170)"/>
<path d="M39.2512 35.9456L45.4539 40.6001C45.4747 37.7741 45.2149 36.7871 45.2149 36.7871C43.4591 36.1741 39.2512 35.9456 39.2512 35.9456Z" fill="url(#paint36_linear_2005_62170)"/>
<path d="M39.2512 35.9458C42.0564 33.3588 45.0279 32.2056 45.0279 32.2056C46.9084 33.0991 47.8643 34.4601 47.8643 34.4601C47.8643 34.4601 42.9084 33.8575 39.2512 35.9458Z" fill="url(#paint37_linear_2005_62170)"/>
<path d="M45.2149 36.7974C43.4591 36.174 39.2512 35.9454 39.2512 35.9454C42.9084 33.8571 47.8643 34.4701 47.8643 34.4701C46.9708 35.9454 45.2149 36.7974 45.2149 36.7974Z" fill="url(#paint38_linear_2005_62170)"/>
</g>
<g filter="url(#filter3_d_2005_62170)">
<path d="M33.7806 13.5306C34.3933 11.8286 34.2027 10.0858 34.2027 10.0858C34.2027 10.0858 34.2027 10.0858 34.1891 10.0994C31.9152 9.97685 30.8668 10.5079 30.7851 10.5487C30.7851 10.5487 30.7851 10.5487 30.7851 10.5351C30.7987 10.5351 30.1451 8.92841 28.0074 7.78467C25.8561 8.92841 25.2025 10.5351 25.2025 10.5351C25.2025 10.5351 24.1677 9.94961 21.7985 10.0722C21.7985 10.0722 21.6078 11.815 22.2206 13.517C20.3416 14.4293 19.3884 15.7909 19.3884 15.7909C20.2735 17.2478 21.9891 18.092 22.0299 18.1192C22.0163 18.1737 21.9482 18.4869 21.8802 19.1404C21.8257 19.7668 21.7712 20.679 21.7849 21.9317C21.7849 21.9317 22.5746 22.0815 23.6094 22.0815C25.0255 22.0679 26.9045 21.7683 27.9802 20.3795C29.0558 21.7683 30.9349 22.0679 32.3509 22.0815C33.3858 22.0951 34.1755 21.9317 34.1755 21.9317C34.1891 20.6927 34.1483 19.7804 34.0802 19.154C34.0257 18.4869 33.944 18.1737 33.9304 18.1192C33.9849 18.092 35.7005 17.2478 36.5719 15.7909V15.7773C36.6128 15.7909 35.6596 14.4293 33.7806 13.5306Z" fill="url(#paint39_linear_2005_62170)"/>
<path fill-rule="evenodd" clip-rule="evenodd" d="M34.2308 10.7833C34.2287 11.4475 34.1529 12.4965 33.7807 13.5305C34.7168 13.9782 35.4231 14.5408 35.8912 14.991C35.9854 15.0816 36.07 15.1677 36.1449 15.2474C36.4211 15.5414 36.5649 15.7481 36.5729 15.7744C36.5734 15.7759 36.5734 15.7768 36.5729 15.7771C36.5727 15.7773 36.5724 15.7773 36.572 15.7771V15.7907C36.5686 15.7964 36.5652 15.802 36.5618 15.8077C35.696 17.2397 34.0188 18.0751 33.9326 18.118L33.9305 18.1191L33.9317 18.1237C33.9482 18.1897 34.0272 18.5037 34.0803 19.1539C34.1483 19.7802 34.1892 20.6925 34.1756 21.9316C34.1756 21.9316 33.3858 22.095 32.351 22.0813C31.1243 22.0695 29.5502 21.8432 28.4519 20.88C28.2823 20.7313 28.1241 20.5651 27.9803 20.3793C27.8364 20.5651 27.6782 20.7313 27.5086 20.88C26.4103 21.8432 24.8362 22.0695 23.6095 22.0813C22.5747 22.0813 21.7849 21.9316 21.7849 21.9316C21.7713 20.6789 21.8258 19.7666 21.8803 19.1403C21.9483 18.4867 22.0164 18.1735 22.03 18.1191C22.0272 18.1172 22.0164 18.1114 21.9985 18.1019C21.7565 17.9725 20.2125 17.1472 19.3885 15.7907C19.3885 15.7907 20.3416 14.4291 22.2207 13.5169C21.6079 11.8149 21.7986 10.072 21.7986 10.072C23.3424 9.99215 24.3196 10.2129 24.8131 10.3765C25.077 10.4639 25.2026 10.535 25.2026 10.535C25.2026 10.535 25.2963 10.3046 25.5295 9.9562C25.9123 9.38455 26.6708 8.49517 28.0075 7.78451C29.2591 8.45416 30.0019 9.28249 30.4 9.85415C30.42 9.88285 30.4391 9.9109 30.4574 9.93826C30.4595 9.94153 30.4617 9.94479 30.4639 9.94805C30.4994 10.0015 30.5317 10.0523 30.5608 10.0999C30.7138 10.3498 30.781 10.5135 30.7852 10.533C30.7854 10.5343 30.7854 10.535 30.7852 10.535V10.5486L30.7865 10.5479C30.7919 10.5452 30.8007 10.5408 30.8129 10.535C30.8874 10.4993 31.0897 10.4094 31.4317 10.319C31.9673 10.1774 32.8458 10.0344 34.1136 10.0954C34.1386 10.0966 34.1638 10.0979 34.1892 10.0992L34.2028 10.0856C34.2028 10.0856 34.2039 10.0959 34.2057 10.1158C34.2076 10.1358 34.2101 10.1654 34.2128 10.2038C34.2212 10.3219 34.2316 10.523 34.2308 10.7833ZM34.1951 9.98936C34.1981 10.0197 34.2007 10.0517 34.2028 10.0856C34.8796 10.0116 34.8796 10.0118 34.8796 10.0119L34.8797 10.0131L34.88 10.0153L34.8806 10.0215C34.8811 10.0265 34.8818 10.0332 34.8826 10.0415C34.8841 10.0581 34.8862 10.0812 34.8885 10.1104C34.8931 10.1687 34.8986 10.2513 34.9032 10.3548C34.9122 10.5615 34.9171 10.8529 34.9016 11.2001C34.8771 11.7493 34.8009 12.4535 34.6007 13.1905C35.3611 13.6201 35.9516 14.1038 36.3687 14.5057C36.6234 14.7511 36.8165 14.969 36.9468 15.1303C37.0113 15.2101 37.064 15.2803 37.1025 15.3365C37.1196 15.3615 37.1433 15.3973 37.1645 15.4358L37.1652 15.437C37.1714 15.4482 37.2027 15.5046 37.2249 15.5784C37.2319 15.6016 37.2434 15.644 37.2496 15.6984C37.2522 15.7211 37.2561 15.7631 37.2528 15.8176V15.9788L37.1563 16.1402C36.6546 16.979 35.9271 17.618 35.3456 18.0414C35.0999 18.2203 34.8734 18.3656 34.69 18.4757C34.7136 18.639 34.7377 18.8422 34.7581 19.0894C34.8295 19.7517 34.8701 20.6904 34.8563 21.939L34.8503 22.4872L34.3135 22.5982L34.1756 21.9316C34.3135 22.5982 34.3134 22.5983 34.3133 22.5983L34.3115 22.5987L34.3083 22.5993L34.2985 22.6013C34.2904 22.6029 34.2794 22.605 34.2654 22.6076C34.2376 22.6129 34.1982 22.62 34.1484 22.6283C34.0489 22.645 33.9073 22.6666 33.7323 22.6875C33.3836 22.7293 32.8971 22.7693 32.3434 22.7621C31.0816 22.7498 29.2727 22.5226 27.9803 21.3723C26.6875 22.523 24.8779 22.75 23.616 22.7621L23.6128 22.7621H23.6095C23.0604 22.7621 22.5776 22.7225 22.2317 22.6828C22.0582 22.663 21.9181 22.643 21.8198 22.6277C21.7706 22.62 21.7319 22.6135 21.7046 22.6088C21.6909 22.6064 21.6801 22.6045 21.6723 22.6031L21.6629 22.6013L21.6599 22.6008L21.6584 22.6005L21.6582 22.6005C21.6582 22.6005 21.6581 22.6004 21.7849 21.9316L21.6581 22.6004L21.1102 22.4965L21.1042 21.939C21.0903 20.6619 21.1458 19.7274 21.202 19.0813L21.2025 19.0755L21.2031 19.0697C21.2278 18.8328 21.2528 18.6363 21.2758 18.4769C20.6768 18.114 19.5065 17.2962 18.8067 16.1442L18.5759 15.7644L18.8308 15.4003L19.3885 15.7907C18.8308 15.4003 18.8309 15.4001 18.831 15.4L18.8319 15.3987L18.8334 15.3967L18.8374 15.391C18.8405 15.3866 18.8446 15.3809 18.8497 15.3739C18.8599 15.36 18.8738 15.3412 18.8917 15.3178C18.9273 15.2711 18.9783 15.2062 19.0446 15.1269C19.1772 14.9684 19.3719 14.7512 19.6284 14.5049C20.0487 14.1011 20.64 13.6144 21.4014 13.1797C21.2006 12.4417 21.1242 11.7364 21.0997 11.1865C21.0842 10.8392 21.0892 10.5479 21.0982 10.3412C21.1027 10.2377 21.1083 10.1551 21.1129 10.0968C21.1152 10.0676 21.1172 10.0445 21.1188 10.0279C21.1196 10.0196 21.1202 10.0129 21.1207 10.0079L21.1214 10.0017L21.1216 9.99951L21.1218 9.9983C21.1218 9.99814 21.1218 9.99798 21.7986 10.072L21.1218 9.99798L21.1848 9.42204L21.7634 9.39211C23.0098 9.32765 23.9254 9.44849 24.5455 9.59495C24.6737 9.62524 24.7891 9.65657 24.8919 9.68749C24.9899 9.53368 25.1131 9.35678 25.265 9.16538C25.7474 8.55773 26.5186 7.80503 27.6879 7.18339L28.0085 7.01294L28.3287 7.18423C29.491 7.80611 30.2589 8.55911 30.7379 9.16743C30.8919 9.36297 31.0162 9.54372 31.1144 9.70069C31.7022 9.52893 32.6985 9.34412 34.1611 9.41609L34.1605 9.40614L34.8089 9.36576L34.8796 10.0116L34.2028 10.0856L34.1959 9.97472L34.1951 9.98936Z" fill="black"/>
<path fill-rule="evenodd" clip-rule="evenodd" d="M34.2308 10.7833C34.2287 11.4475 34.1529 12.4965 33.7807 13.5305C34.7168 13.9782 35.4231 14.5408 35.8912 14.991C35.9854 15.0816 36.07 15.1677 36.1449 15.2474C36.4211 15.5414 36.5649 15.7481 36.5729 15.7744C36.5734 15.7759 36.5734 15.7768 36.5729 15.7771C36.5727 15.7773 36.5724 15.7773 36.572 15.7771V15.7907C36.5686 15.7964 36.5652 15.802 36.5618 15.8077C35.696 17.2397 34.0188 18.0751 33.9326 18.118L33.9305 18.1191L33.9317 18.1237C33.9482 18.1897 34.0272 18.5037 34.0803 19.1539C34.1483 19.7802 34.1892 20.6925 34.1756 21.9316C34.1756 21.9316 33.3858 22.095 32.351 22.0813C31.1243 22.0695 29.5502 21.8432 28.4519 20.88C28.2823 20.7313 28.1241 20.5651 27.9803 20.3793C27.8364 20.5651 27.6782 20.7313 27.5086 20.88C26.4103 21.8432 24.8362 22.0695 23.6095 22.0813C22.5747 22.0813 21.7849 21.9316 21.7849 21.9316C21.7713 20.6789 21.8258 19.7666 21.8803 19.1403C21.9483 18.4867 22.0164 18.1735 22.03 18.1191C22.0272 18.1172 22.0164 18.1114 21.9985 18.1019C21.7565 17.9725 20.2125 17.1472 19.3885 15.7907C19.3885 15.7907 20.3416 14.4291 22.2207 13.5169C21.6079 11.8149 21.7986 10.072 21.7986 10.072C23.3424 9.99215 24.3196 10.2129 24.8131 10.3765C25.077 10.4639 25.2026 10.535 25.2026 10.535C25.2026 10.535 25.2963 10.3046 25.5295 9.9562C25.9123 9.38455 26.6708 8.49517 28.0075 7.78451C29.2591 8.45416 30.0019 9.28249 30.4 9.85415C30.42 9.88285 30.4391 9.9109 30.4574 9.93826C30.4595 9.94153 30.4617 9.94479 30.4639 9.94805C30.4994 10.0015 30.5317 10.0523 30.5608 10.0999C30.7138 10.3498 30.781 10.5135 30.7852 10.533C30.7854 10.5343 30.7854 10.535 30.7852 10.535V10.5486L30.7865 10.5479C30.7919 10.5452 30.8007 10.5408 30.8129 10.535C30.8874 10.4993 31.0897 10.4094 31.4317 10.319C31.9673 10.1774 32.8458 10.0344 34.1136 10.0954C34.1386 10.0966 34.1638 10.0979 34.1892 10.0992L34.2028 10.0856C34.2028 10.0856 34.2039 10.0959 34.2057 10.1158C34.2076 10.1358 34.2101 10.1654 34.2128 10.2038C34.2212 10.3219 34.2316 10.523 34.2308 10.7833ZM34.1951 9.98936C34.1981 10.0197 34.2007 10.0517 34.2028 10.0856C34.8796 10.0116 34.8796 10.0118 34.8796 10.0119L34.8797 10.0131L34.88 10.0153L34.8806 10.0215C34.8811 10.0265 34.8818 10.0332 34.8826 10.0415C34.8841 10.0581 34.8862 10.0812 34.8885 10.1104C34.8931 10.1687 34.8986 10.2513 34.9032 10.3548C34.9122 10.5615 34.9171 10.8529 34.9016 11.2001C34.8771 11.7493 34.8009 12.4535 34.6007 13.1905C35.3611 13.6201 35.9516 14.1038 36.3687 14.5057C36.6234 14.7511 36.8165 14.969 36.9468 15.1303C37.0113 15.2101 37.064 15.2803 37.1025 15.3365C37.1196 15.3615 37.1433 15.3973 37.1645 15.4358L37.1652 15.437C37.1714 15.4482 37.2027 15.5046 37.2249 15.5784C37.2319 15.6016 37.2434 15.644 37.2496 15.6984C37.2522 15.7211 37.2561 15.7631 37.2528 15.8176V15.9788L37.1563 16.1402C36.6546 16.979 35.9271 17.618 35.3456 18.0414C35.0999 18.2203 34.8734 18.3656 34.69 18.4757C34.7136 18.639 34.7377 18.8422 34.7581 19.0894C34.8295 19.7517 34.8701 20.6904 34.8563 21.939L34.8503 22.4872L34.3135 22.5982L34.1756 21.9316C34.3135 22.5982 34.3134 22.5983 34.3133 22.5983L34.3115 22.5987L34.3083 22.5993L34.2985 22.6013C34.2904 22.6029 34.2794 22.605 34.2654 22.6076C34.2376 22.6129 34.1982 22.62 34.1484 22.6283C34.0489 22.645 33.9073 22.6666 33.7323 22.6875C33.3836 22.7293 32.8971 22.7693 32.3434 22.7621C31.0816 22.7498 29.2727 22.5226 27.9803 21.3723C26.6875 22.523 24.8779 22.75 23.616 22.7621L23.6128 22.7621H23.6095C23.0604 22.7621 22.5776 22.7225 22.2317 22.6828C22.0582 22.663 21.9181 22.643 21.8198 22.6277C21.7706 22.62 21.7319 22.6135 21.7046 22.6088C21.6909 22.6064 21.6801 22.6045 21.6723 22.6031L21.6629 22.6013L21.6599 22.6008L21.6584 22.6005L21.6582 22.6005C21.6582 22.6005 21.6581 22.6004 21.7849 21.9316L21.6581 22.6004L21.1102 22.4965L21.1042 21.939C21.0903 20.6619 21.1458 19.7274 21.202 19.0813L21.2025 19.0755L21.2031 19.0697C21.2278 18.8328 21.2528 18.6363 21.2758 18.4769C20.6768 18.114 19.5065 17.2962 18.8067 16.1442L18.5759 15.7644L18.8308 15.4003L19.3885 15.7907C18.8308 15.4003 18.8309 15.4001 18.831 15.4L18.8319 15.3987L18.8334 15.3967L18.8374 15.391C18.8405 15.3866 18.8446 15.3809 18.8497 15.3739C18.8599 15.36 18.8738 15.3412 18.8917 15.3178C18.9273 15.2711 18.9783 15.2062 19.0446 15.1269C19.1772 14.9684 19.3719 14.7512 19.6284 14.5049C20.0487 14.1011 20.64 13.6144 21.4014 13.1797C21.2006 12.4417 21.1242 11.7364 21.0997 11.1865C21.0842 10.8392 21.0892 10.5479 21.0982 10.3412C21.1027 10.2377 21.1083 10.1551 21.1129 10.0968C21.1152 10.0676 21.1172 10.0445 21.1188 10.0279C21.1196 10.0196 21.1202 10.0129 21.1207 10.0079L21.1214 10.0017L21.1216 9.99951L21.1218 9.9983C21.1218 9.99814 21.1218 9.99798 21.7986 10.072L21.1218 9.99798L21.1848 9.42204L21.7634 9.39211C23.0098 9.32765 23.9254 9.44849 24.5455 9.59495C24.6737 9.62524 24.7891 9.65657 24.8919 9.68749C24.9899 9.53368 25.1131 9.35678 25.265 9.16538C25.7474 8.55773 26.5186 7.80503 27.6879 7.18339L28.0085 7.01294L28.3287 7.18423C29.491 7.80611 30.2589 8.55911 30.7379 9.16743C30.8919 9.36297 31.0162 9.54372 31.1144 9.70069C31.7022 9.52893 32.6985 9.34412 34.1611 9.41609L34.1605 9.40614L34.8089 9.36576L34.8796 10.0116L34.2028 10.0856L34.1959 9.97472L34.1951 9.98936Z" fill="url(#paint40_angular_2005_62170)"/>
<path d="M28.0014 7.78491V17.2707V17.2603C27.9494 17.0317 27.0975 13.2187 25.2065 10.5382C25.2065 10.5382 25.8611 8.92777 28.0014 7.78491Z" fill="url(#paint41_linear_2005_62170)"/>
<path d="M28.0015 17.27C26.2248 13.6544 21.7988 10.0803 21.7988 10.0803C24.1781 9.94527 25.2067 10.5375 25.2067 10.5375C27.0976 13.218 27.9495 17.031 28.0015 17.27Z" fill="url(#paint42_linear_2005_62170)"/>
<path d="M28.0015 17.2702C25.1963 14.6832 22.2248 13.5299 22.2248 13.5299C21.6118 11.826 21.7988 10.0806 21.7988 10.0806C21.7988 10.0806 26.2248 13.6546 28.0015 17.2702Z" fill="url(#paint43_linear_2005_62170)"/>
<path d="M28.0015 17.2703C28.0015 17.2703 23.7937 17.4988 22.0378 18.1222C22.0378 18.1222 21.7573 19.3066 21.7989 21.9352C21.7989 21.9352 22.5885 22.0911 23.6275 22.0807C25.0405 22.0703 26.921 21.769 28.0015 20.3768V17.2703Z" fill="url(#paint44_linear_2005_62170)"/>
<path d="M28.0014 17.2703L21.7988 21.9248C21.778 19.0988 22.0378 18.1118 22.0378 18.1118C23.7936 17.4988 28.0014 17.2703 28.0014 17.2703Z" fill="url(#paint45_linear_2005_62170)"/>
<path d="M28.0015 17.2705C25.1963 14.6835 22.2248 13.5303 22.2248 13.5303C20.3443 14.4238 19.3884 15.7952 19.3884 15.7952C19.3884 15.7952 24.3339 15.1822 28.0015 17.2705Z" fill="url(#paint46_linear_2005_62170)"/>
<path d="M22.0378 18.1221C23.7937 17.4987 28.0015 17.2701 28.0015 17.2701C24.3339 15.1818 19.3884 15.7948 19.3884 15.7948C20.2819 17.2701 22.0378 18.1221 22.0378 18.1221Z" fill="url(#paint47_linear_2005_62170)"/>
<path d="M28.0015 7.78491V17.2707V17.2603C28.0534 17.0213 28.9054 13.2187 30.7963 10.5278C30.7963 10.5382 30.1417 8.92777 28.0015 7.78491Z" fill="url(#paint48_linear_2005_62170)"/>
<path d="M28.0015 17.2701C29.7781 13.6545 34.2041 10.0909 34.2041 10.0909C31.8249 9.95583 30.7859 10.5377 30.7859 10.5377C28.9054 13.2182 28.0534 17.0312 28.0015 17.2701Z" fill="url(#paint49_linear_2005_62170)"/>
<path d="M28.0015 17.2702C30.8067 14.6832 33.7781 13.5299 33.7781 13.5299C34.3911 11.826 34.2041 10.0806 34.2041 10.0806C34.2041 10.0806 29.7781 13.6546 28.0015 17.2702Z" fill="url(#paint50_linear_2005_62170)"/>
<path d="M28.0015 17.2703C28.0015 17.2703 32.2093 17.4988 33.9652 18.1222C33.9652 18.1222 34.2457 19.3066 34.2041 21.9352C34.2041 21.9352 33.4145 22.0911 32.3755 22.0807C30.9625 22.0703 29.082 21.769 28.0015 20.3768V17.2703Z" fill="url(#paint51_linear_2005_62170)"/>
<path d="M28.0015 17.2703L34.2041 21.9248C34.2249 19.0988 33.9652 18.1118 33.9652 18.1118C32.2093 17.4988 28.0015 17.2703 28.0015 17.2703Z" fill="url(#paint52_linear_2005_62170)"/>
<path d="M28.0015 17.2705C30.8067 14.6835 33.7781 13.5303 33.7781 13.5303C35.6587 14.4238 36.6145 15.7848 36.6145 15.7848C36.6145 15.7848 31.6586 15.1822 28.0015 17.2705Z" fill="url(#paint53_linear_2005_62170)"/>
<path d="M33.9652 18.1221C32.2093 17.4987 28.0015 17.2701 28.0015 17.2701C31.6586 15.1818 36.6145 15.7948 36.6145 15.7948C35.721 17.2701 33.9652 18.1221 33.9652 18.1221Z" fill="url(#paint54_linear_2005_62170)"/>
</g>
<rect x="3.25" y="49.0503" width="49.5003" height="2.7" rx="0.450002" fill="#191919"/>
<path d="M3.25 50.1753C3.25 49.554 3.75368 49.0503 4.375 49.0503H28.0002V51.7503H4.375C3.75368 51.7503 3.25 51.2466 3.25 50.6253V50.1753Z" fill="url(#paint55_radial_2005_62170)"/>
<g filter="url(#filter4_dd_2005_62170)">
<rect x="3.3625" y="49.1628" width="49.2753" height="2.475" rx="0.337501" stroke="url(#paint56_linear_2005_62170)" stroke-width="0.225001"/>
</g>
<g filter="url(#filter5_dd_2005_62170)">
<path d="M28.0002 49.0503V51.7503" stroke="url(#paint57_linear_2005_62170)" stroke-width="0.225001"/>
</g>
<defs>
<filter id="filter0_i_2005_62170" x="1" y="0" width="54.0002" height="54.9" filterUnits="userSpaceOnUse" color-interpolation-filters="sRGB">
<feFlood flood-opacity="0" result="BackgroundImageFix"/>
<feBlend mode="normal" in="SourceGraphic" in2="BackgroundImageFix" result="shape"/>
<feColorMatrix in="SourceAlpha" type="matrix" values="0 0 0 0 0 0 0 0 0 0 0 0 0 0 0 0 0 0 127 0" result="hardAlpha"/>
<feOffset dy="0.900003"/>
<feGaussianBlur stdDeviation="0.450002"/>
<feComposite in2="hardAlpha" operator="arithmetic" k2="-1" k3="1"/>
<feColorMatrix type="matrix" values="0 0 0 0 0 0 0 0 0 0 0 0 0 0 0 0 0 0 0.25 0"/>
<feBlend mode="normal" in2="shape" result="effect1_innerShadow_2005_62170"/>
</filter>
<filter id="filter1_d_2005_62170" x="0.51766" y="18.8802" width="32.2943" height="29.366" filterUnits="userSpaceOnUse" color-interpolation-filters="sRGB">
<feFlood flood-opacity="0" result="BackgroundImageFix"/>
<feColorMatrix in="SourceAlpha" type="matrix" values="0 0 0 0 0 0 0 0 0 0 0 0 0 0 0 0 0 0 127 0" result="hardAlpha"/>
<feOffset/>
<feGaussianBlur stdDeviation="3.40401"/>
<feColorMatrix type="matrix" values="0 0 0 0 0 0 0 0 0 0 0 0 0 0 0 0 0 0 0.8 0"/>
<feBlend mode="normal" in2="BackgroundImageFix" result="effect1_dropShadow_2005_62170"/>
<feBlend mode="normal" in="SourceGraphic" in2="effect1_dropShadow_2005_62170" result="shape"/>
</filter>
<filter id="filter2_d_2005_62170" x="23.0177" y="18.8802" width="32.2943" height="29.366" filterUnits="userSpaceOnUse" color-interpolation-filters="sRGB">
<feFlood flood-opacity="0" result="BackgroundImageFix"/>
<feColorMatrix in="SourceAlpha" type="matrix" values="0 0 0 0 0 0 0 0 0 0 0 0 0 0 0 0 0 0 127 0" result="hardAlpha"/>
<feOffset/>
<feGaussianBlur stdDeviation="3.40401"/>
<feColorMatrix type="matrix" values="0 0 0 0 0 0 0 0 0 0 0 0 0 0 0 0 0 0 0.8 0"/>
<feBlend mode="normal" in2="BackgroundImageFix" result="effect1_dropShadow_2005_62170"/>
<feBlend mode="normal" in="SourceGraphic" in2="effect1_dropShadow_2005_62170" result="shape"/>
</filter>
<filter id="filter3_d_2005_62170" x="11.7679" y="0.204916" width="32.2943" height="29.366" filterUnits="userSpaceOnUse" color-interpolation-filters="sRGB">
<feFlood flood-opacity="0" result="BackgroundImageFix"/>
<feColorMatrix in="SourceAlpha" type="matrix" values="0 0 0 0 0 0 0 0 0 0 0 0 0 0 0 0 0 0 127 0" result="hardAlpha"/>
<feOffset/>
<feGaussianBlur stdDeviation="3.40401"/>
<feColorMatrix type="matrix" values="0 0 0 0 0 0 0 0 0 0 0 0 0 0 0 0 0 0 0.8 0"/>
<feBlend mode="normal" in2="BackgroundImageFix" result="effect1_dropShadow_2005_62170"/>
<feBlend mode="normal" in="SourceGraphic" in2="effect1_dropShadow_2005_62170" result="shape"/>
</filter>
<filter id="filter4_dd_2005_62170" x="2.35" y="48.1503" width="51.3003" height="4.49996" filterUnits="userSpaceOnUse" color-interpolation-filters="sRGB">
<feFlood flood-opacity="0" result="BackgroundImageFix"/>
<feColorMatrix in="SourceAlpha" type="matrix" values="0 0 0 0 0 0 0 0 0 0 0 0 0 0 0 0 0 0 127 0" result="hardAlpha"/>
<feOffset/>
<feGaussianBlur stdDeviation="0.450002"/>
<feColorMatrix type="matrix" values="0 0 0 0 0 0 0 0 0 0 0 0 0 0 0 0 0 0 1 0"/>
<feBlend mode="normal" in2="BackgroundImageFix" result="effect1_dropShadow_2005_62170"/>
<feColorMatrix in="SourceAlpha" type="matrix" values="0 0 0 0 0 0 0 0 0 0 0 0 0 0 0 0 0 0 127 0" result="hardAlpha"/>
<feOffset/>
<feGaussianBlur stdDeviation="0.225001"/>
<feColorMatrix type="matrix" values="0 0 0 0 0 0 0 0 0 0 0 0 0 0 0 0 0 0 1 0"/>
<feBlend mode="normal" in2="effect1_dropShadow_2005_62170" result="effect2_dropShadow_2005_62170"/>
<feBlend mode="normal" in="SourceGraphic" in2="effect2_dropShadow_2005_62170" result="shape"/>
</filter>
<filter id="filter5_dd_2005_62170" x="26.9877" y="48.1503" width="2.0251" height="4.49996" filterUnits="userSpaceOnUse" color-interpolation-filters="sRGB">
<feFlood flood-opacity="0" result="BackgroundImageFix"/>
<feColorMatrix in="SourceAlpha" type="matrix" values="0 0 0 0 0 0 0 0 0 0 0 0 0 0 0 0 0 0 127 0" result="hardAlpha"/>
<feOffset/>
<feGaussianBlur stdDeviation="0.450002"/>
<feColorMatrix type="matrix" values="0 0 0 0 0 0 0 0 0 0 0 0 0 0 0 0 0 0 1 0"/>
<feBlend mode="normal" in2="BackgroundImageFix" result="effect1_dropShadow_2005_62170"/>
<feColorMatrix in="SourceAlpha" type="matrix" values="0 0 0 0 0 0 0 0 0 0 0 0 0 0 0 0 0 0 127 0" result="hardAlpha"/>
<feOffset/>
<feGaussianBlur stdDeviation="0.225001"/>
<feColorMatrix type="matrix" values="0 0 0 0 0 0 0 0 0 0 0 0 0 0 0 0 0 0 1 0"/>
<feBlend mode="normal" in2="effect1_dropShadow_2005_62170" result="effect2_dropShadow_2005_62170"/>
<feBlend mode="normal" in="SourceGraphic" in2="effect2_dropShadow_2005_62170" result="shape"/>
</filter>
<linearGradient id="paint0_linear_2005_62170" x1="28.0002" y1="0" x2="28.0002" y2="54" gradientUnits="userSpaceOnUse">
<stop stop-color="#101010"/>
<stop offset="1" stop-color="#131313"/>
</linearGradient>
<linearGradient id="paint1_linear_2005_62170" x1="55.0004" y1="-1.83743e-06" x2="1.00036" y2="54.0004" gradientUnits="userSpaceOnUse">
<stop stop-color="#EDDE79"/>
<stop offset="0.685495" stop-color="#D69A2D"/>
<stop offset="1" stop-color="#F9F093"/>
</linearGradient>
<linearGradient id="paint2_linear_2005_62170" x1="204.941" y1="-15.0134" x2="163.741" y2="110.512" gradientUnits="userSpaceOnUse">
<stop stop-color="white"/>
<stop offset="0.3172" stop-color="#EDDE79"/>
<stop offset="0.6237" stop-color="#D69A2D"/>
<stop offset="0.8978" stop-color="#F9F093"/>
</linearGradient>
<linearGradient id="paint3_linear_2005_62170" x1="-2.15002" y1="-2.8125" x2="45.3039" y2="-10.0019" gradientUnits="userSpaceOnUse">
<stop stop-color="white"/>
<stop offset="0.3172" stop-color="#EDDE79"/>
<stop offset="0.6237" stop-color="#D69A2D"/>
<stop offset="0.8978" stop-color="#F9F093"/>
</linearGradient>
<linearGradient id="paint4_linear_2005_62170" x1="15.5124" y1="1.12451" x2="15.5124" y2="52.8745" gradientUnits="userSpaceOnUse">
<stop stop-color="#F4E181"/>
<stop offset="1" stop-color="#F4E181" stop-opacity="0"/>
</linearGradient>
<linearGradient id="paint5_linear_2005_62170" x1="27.8874" y1="1.12451" x2="27.8874" y2="52.8745" gradientUnits="userSpaceOnUse">
<stop stop-color="#F4E181"/>
<stop offset="1" stop-color="#F4E181" stop-opacity="0"/>
</linearGradient>
<linearGradient id="paint6_linear_2005_62170" x1="40.2627" y1="1.12451" x2="40.2627" y2="52.8745" gradientUnits="userSpaceOnUse">
<stop stop-color="#F4E181"/>
<stop offset="1" stop-color="#F4E181" stop-opacity="0"/>
</linearGradient>
<linearGradient id="paint7_linear_2005_62170" x1="21.3856" y1="6.19728" x2="10.2734" y2="73.9906" gradientUnits="userSpaceOnUse">
<stop stop-color="white"/>
<stop offset="0.3172" stop-color="#EDDE79"/>
<stop offset="0.6237" stop-color="#D69A2D"/>
<stop offset="0.8978" stop-color="#F9F093"/>
</linearGradient>
<radialGradient id="paint8_angular_2005_62170" cx="0" cy="0" r="1" gradientUnits="userSpaceOnUse" gradientTransform="translate(16.7306 34.2788) rotate(-44.8884) scale(7.25303 7.25297)">
<stop offset="0.10135" stop-color="#EDDE79"/>
<stop offset="0.371555" stop-color="white"/>
<stop offset="0.619704" stop-color="#D69A2D"/>
<stop offset="0.879496" stop-color="#F9F093"/>
</radialGradient>
<linearGradient id="paint9_linear_2005_62170" x1="23.1512" y1="43.1356" x2="11.1854" y2="29.4071" gradientUnits="userSpaceOnUse">
<stop stop-color="white"/>
<stop offset="0.3172" stop-color="#EDDE79"/>
<stop offset="0.6237" stop-color="#D69A2D"/>
<stop offset="0.8978" stop-color="#F9F093"/>
</linearGradient>
<linearGradient id="paint10_linear_2005_62170" x1="6.21605" y1="20.0179" x2="20.7479" y2="23.1325" gradientUnits="userSpaceOnUse">
<stop stop-color="white"/>
<stop offset="0.3172" stop-color="#EDDE79"/>
<stop offset="0.6237" stop-color="#D69A2D"/>
<stop offset="0.8978" stop-color="#F9F093"/>
</linearGradient>
<linearGradient id="paint11_linear_2005_62170" x1="14.3649" y1="29.5211" x2="9.67516" y2="37.6729" gradientUnits="userSpaceOnUse">
<stop stop-color="white"/>
<stop offset="0.3172" stop-color="#EDDE79"/>
<stop offset="0.6237" stop-color="#D69A2D"/>
<stop offset="0.8978" stop-color="#F9F093"/>
</linearGradient>
<linearGradient id="paint12_linear_2005_62170" x1="26.2101" y1="25.8468" x2="29.6178" y2="35.4284" gradientUnits="userSpaceOnUse">
<stop stop-color="white"/>
<stop offset="0.3172" stop-color="#EDDE79"/>
<stop offset="0.6237" stop-color="#D69A2D"/>
<stop offset="0.8978" stop-color="#F9F093"/>
</linearGradient>
<linearGradient id="paint13_linear_2005_62170" x1="18.2949" y1="44.9999" x2="9.44865" y2="35.7148" gradientUnits="userSpaceOnUse">
<stop stop-color="white"/>
<stop offset="0.3172" stop-color="#EDDE79"/>
<stop offset="0.6237" stop-color="#D69A2D"/>
<stop offset="0.8978" stop-color="#F9F093"/>
</linearGradient>
<linearGradient id="paint14_linear_2005_62170" x1="18.2958" y1="40.2714" x2="15.8744" y2="26.2186" gradientUnits="userSpaceOnUse">
<stop stop-color="white"/>
<stop offset="0.3172" stop-color="#EDDE79"/>
<stop offset="0.6237" stop-color="#D69A2D"/>
<stop offset="0.8978" stop-color="#F9F093"/>
</linearGradient>
<linearGradient id="paint15_linear_2005_62170" x1="18.2958" y1="39.5859" x2="16.4585" y2="28.3766" gradientUnits="userSpaceOnUse">
<stop stop-color="white"/>
<stop offset="0.3172" stop-color="#EDDE79"/>
<stop offset="0.6237" stop-color="#D69A2D"/>
<stop offset="0.8978" stop-color="#F9F093"/>
</linearGradient>
<linearGradient id="paint16_linear_2005_62170" x1="12.1048" y1="35.9314" x2="24.1253" y2="25.0912" gradientUnits="userSpaceOnUse">
<stop stop-color="white"/>
<stop offset="0.3172" stop-color="#EDDE79"/>
<stop offset="0.6237" stop-color="#D69A2D"/>
<stop offset="0.8978" stop-color="#F9F093"/>
</linearGradient>
<linearGradient id="paint17_linear_2005_62170" x1="17.1469" y1="28.1443" x2="22.8679" y2="33.0812" gradientUnits="userSpaceOnUse">
<stop stop-color="white"/>
<stop offset="0.3172" stop-color="#EDDE79"/>
<stop offset="0.6237" stop-color="#D69A2D"/>
<stop offset="0.8978" stop-color="#F9F093"/>
</linearGradient>
<linearGradient id="paint18_linear_2005_62170" x1="24.423" y1="27.7615" x2="19.8048" y2="41.238" gradientUnits="userSpaceOnUse">
<stop stop-color="white"/>
<stop offset="0.3172" stop-color="#EDDE79"/>
<stop offset="0.6237" stop-color="#D69A2D"/>
<stop offset="0.8978" stop-color="#F9F093"/>
</linearGradient>
<linearGradient id="paint19_linear_2005_62170" x1="24.5025" y1="45.3041" x2="15.3496" y2="36.0047" gradientUnits="userSpaceOnUse">
<stop stop-color="white"/>
<stop offset="0.3172" stop-color="#EDDE79"/>
<stop offset="0.6237" stop-color="#D69A2D"/>
<stop offset="0.8978" stop-color="#F9F093"/>
</linearGradient>
<linearGradient id="paint20_linear_2005_62170" x1="29.3374" y1="31.591" x2="17.8951" y2="37.9624" gradientUnits="userSpaceOnUse">
<stop stop-color="white"/>
<stop offset="0.3172" stop-color="#EDDE79"/>
<stop offset="0.6237" stop-color="#D69A2D"/>
<stop offset="0.8978" stop-color="#F9F093"/>
</linearGradient>
<linearGradient id="paint21_linear_2005_62170" x1="26.9089" y1="40.2714" x2="24.4874" y2="26.2186" gradientUnits="userSpaceOnUse">
<stop stop-color="white"/>
<stop offset="0.3172" stop-color="#EDDE79"/>
<stop offset="0.6237" stop-color="#D69A2D"/>
<stop offset="0.8978" stop-color="#F9F093"/>
</linearGradient>
<linearGradient id="paint22_linear_2005_62170" x1="26.9089" y1="39.5859" x2="25.0716" y2="28.3766" gradientUnits="userSpaceOnUse">
<stop stop-color="white"/>
<stop offset="0.3172" stop-color="#EDDE79"/>
<stop offset="0.6237" stop-color="#D69A2D"/>
<stop offset="0.8978" stop-color="#F9F093"/>
</linearGradient>
<linearGradient id="paint23_linear_2005_62170" x1="43.8856" y1="6.19728" x2="32.7734" y2="73.9906" gradientUnits="userSpaceOnUse">
<stop stop-color="white"/>
<stop offset="0.3172" stop-color="#EDDE79"/>
<stop offset="0.6237" stop-color="#D69A2D"/>
<stop offset="0.8978" stop-color="#F9F093"/>
</linearGradient>
<radialGradient id="paint24_angular_2005_62170" cx="0" cy="0" r="1" gradientUnits="userSpaceOnUse" gradientTransform="translate(39.2306 34.2788) rotate(-44.8884) scale(7.25303 7.25297)">
<stop offset="0.10135" stop-color="#EDDE79"/>
<stop offset="0.371555" stop-color="white"/>
<stop offset="0.619704" stop-color="#D69A2D"/>
<stop offset="0.879496" stop-color="#F9F093"/>
</radialGradient>
<linearGradient id="paint25_linear_2005_62170" x1="45.6512" y1="43.1356" x2="33.6854" y2="29.4071" gradientUnits="userSpaceOnUse">
<stop stop-color="white"/>
<stop offset="0.3172" stop-color="#EDDE79"/>
<stop offset="0.6237" stop-color="#D69A2D"/>
<stop offset="0.8978" stop-color="#F9F093"/>
</linearGradient>
<linearGradient id="paint26_linear_2005_62170" x1="28.7161" y1="20.0179" x2="43.2479" y2="23.1325" gradientUnits="userSpaceOnUse">
<stop stop-color="white"/>
<stop offset="0.3172" stop-color="#EDDE79"/>
<stop offset="0.6237" stop-color="#D69A2D"/>
<stop offset="0.8978" stop-color="#F9F093"/>
</linearGradient>
<linearGradient id="paint27_linear_2005_62170" x1="36.8649" y1="29.5211" x2="32.1752" y2="37.6729" gradientUnits="userSpaceOnUse">
<stop stop-color="white"/>
<stop offset="0.3172" stop-color="#EDDE79"/>
<stop offset="0.6237" stop-color="#D69A2D"/>
<stop offset="0.8978" stop-color="#F9F093"/>
</linearGradient>
<linearGradient id="paint28_linear_2005_62170" x1="48.7101" y1="25.8468" x2="52.1178" y2="35.4284" gradientUnits="userSpaceOnUse">
<stop stop-color="white"/>
<stop offset="0.3172" stop-color="#EDDE79"/>
<stop offset="0.6237" stop-color="#D69A2D"/>
<stop offset="0.8978" stop-color="#F9F093"/>
</linearGradient>
<linearGradient id="paint29_linear_2005_62170" x1="40.7949" y1="44.9999" x2="31.9487" y2="35.7148" gradientUnits="userSpaceOnUse">
<stop stop-color="white"/>
<stop offset="0.3172" stop-color="#EDDE79"/>
<stop offset="0.6237" stop-color="#D69A2D"/>
<stop offset="0.8978" stop-color="#F9F093"/>
</linearGradient>
<linearGradient id="paint30_linear_2005_62170" x1="40.7958" y1="40.2714" x2="38.3744" y2="26.2186" gradientUnits="userSpaceOnUse">
<stop stop-color="white"/>
<stop offset="0.3172" stop-color="#EDDE79"/>
<stop offset="0.6237" stop-color="#D69A2D"/>
<stop offset="0.8978" stop-color="#F9F093"/>
</linearGradient>
<linearGradient id="paint31_linear_2005_62170" x1="40.7958" y1="39.5859" x2="38.9585" y2="28.3766" gradientUnits="userSpaceOnUse">
<stop stop-color="white"/>
<stop offset="0.3172" stop-color="#EDDE79"/>
<stop offset="0.6237" stop-color="#D69A2D"/>
<stop offset="0.8978" stop-color="#F9F093"/>
</linearGradient>
<linearGradient id="paint32_linear_2005_62170" x1="34.6048" y1="35.9314" x2="46.6253" y2="25.0912" gradientUnits="userSpaceOnUse">
<stop stop-color="white"/>
<stop offset="0.3172" stop-color="#EDDE79"/>
<stop offset="0.6237" stop-color="#D69A2D"/>
<stop offset="0.8978" stop-color="#F9F093"/>
</linearGradient>
<linearGradient id="paint33_linear_2005_62170" x1="39.6469" y1="28.1443" x2="45.3679" y2="33.0812" gradientUnits="userSpaceOnUse">
<stop stop-color="white"/>
<stop offset="0.3172" stop-color="#EDDE79"/>
<stop offset="0.6237" stop-color="#D69A2D"/>
<stop offset="0.8978" stop-color="#F9F093"/>
</linearGradient>
<linearGradient id="paint34_linear_2005_62170" x1="46.923" y1="27.7615" x2="42.3048" y2="41.238" gradientUnits="userSpaceOnUse">
<stop stop-color="white"/>
<stop offset="0.3172" stop-color="#EDDE79"/>
<stop offset="0.6237" stop-color="#D69A2D"/>
<stop offset="0.8978" stop-color="#F9F093"/>
</linearGradient>
<linearGradient id="paint35_linear_2005_62170" x1="47.0025" y1="45.3041" x2="37.8496" y2="36.0047" gradientUnits="userSpaceOnUse">
<stop stop-color="white"/>
<stop offset="0.3172" stop-color="#EDDE79"/>
<stop offset="0.6237" stop-color="#D69A2D"/>
<stop offset="0.8978" stop-color="#F9F093"/>
</linearGradient>
<linearGradient id="paint36_linear_2005_62170" x1="51.8374" y1="31.591" x2="40.3951" y2="37.9624" gradientUnits="userSpaceOnUse">
<stop stop-color="white"/>
<stop offset="0.3172" stop-color="#EDDE79"/>
<stop offset="0.6237" stop-color="#D69A2D"/>
<stop offset="0.8978" stop-color="#F9F093"/>
</linearGradient>
<linearGradient id="paint37_linear_2005_62170" x1="49.4089" y1="40.2714" x2="46.9874" y2="26.2186" gradientUnits="userSpaceOnUse">
<stop stop-color="white"/>
<stop offset="0.3172" stop-color="#EDDE79"/>
<stop offset="0.6237" stop-color="#D69A2D"/>
<stop offset="0.8978" stop-color="#F9F093"/>
</linearGradient>
<linearGradient id="paint38_linear_2005_62170" x1="49.4089" y1="39.5859" x2="47.5716" y2="28.3766" gradientUnits="userSpaceOnUse">
<stop stop-color="white"/>
<stop offset="0.3172" stop-color="#EDDE79"/>
<stop offset="0.6237" stop-color="#D69A2D"/>
<stop offset="0.8978" stop-color="#F9F093"/>
</linearGradient>
<linearGradient id="paint39_linear_2005_62170" x1="32.6358" y1="-12.478" x2="21.5237" y2="55.3153" gradientUnits="userSpaceOnUse">
<stop stop-color="white"/>
<stop offset="0.3172" stop-color="#EDDE79"/>
<stop offset="0.6237" stop-color="#D69A2D"/>
<stop offset="0.8978" stop-color="#F9F093"/>
</linearGradient>
<radialGradient id="paint40_angular_2005_62170" cx="0" cy="0" r="1" gradientUnits="userSpaceOnUse" gradientTransform="translate(27.9809 15.6035) rotate(-44.8884) scale(7.25303 7.25297)">
<stop offset="0.10135" stop-color="#EDDE79"/>
<stop offset="0.371555" stop-color="white"/>
<stop offset="0.619704" stop-color="#D69A2D"/>
<stop offset="0.879496" stop-color="#F9F093"/>
</radialGradient>
<linearGradient id="paint41_linear_2005_62170" x1="34.4014" y1="24.4603" x2="22.4357" y2="10.7318" gradientUnits="userSpaceOnUse">
<stop stop-color="white"/>
<stop offset="0.3172" stop-color="#EDDE79"/>
<stop offset="0.6237" stop-color="#D69A2D"/>
<stop offset="0.8978" stop-color="#F9F093"/>
</linearGradient>
<linearGradient id="paint42_linear_2005_62170" x1="17.4663" y1="1.34263" x2="31.9981" y2="4.45722" gradientUnits="userSpaceOnUse">
<stop stop-color="white"/>
<stop offset="0.3172" stop-color="#EDDE79"/>
<stop offset="0.6237" stop-color="#D69A2D"/>
<stop offset="0.8978" stop-color="#F9F093"/>
</linearGradient>
<linearGradient id="paint43_linear_2005_62170" x1="25.6151" y1="10.8458" x2="20.9254" y2="18.9976" gradientUnits="userSpaceOnUse">
<stop stop-color="white"/>
<stop offset="0.3172" stop-color="#EDDE79"/>
<stop offset="0.6237" stop-color="#D69A2D"/>
<stop offset="0.8978" stop-color="#F9F093"/>
</linearGradient>
<linearGradient id="paint44_linear_2005_62170" x1="37.4604" y1="7.1715" x2="40.868" y2="16.7531" gradientUnits="userSpaceOnUse">
<stop stop-color="white"/>
<stop offset="0.3172" stop-color="#EDDE79"/>
<stop offset="0.6237" stop-color="#D69A2D"/>
<stop offset="0.8978" stop-color="#F9F093"/>
</linearGradient>
<linearGradient id="paint45_linear_2005_62170" x1="29.5451" y1="26.3246" x2="20.6989" y2="17.0395" gradientUnits="userSpaceOnUse">
<stop stop-color="white"/>
<stop offset="0.3172" stop-color="#EDDE79"/>
<stop offset="0.6237" stop-color="#D69A2D"/>
<stop offset="0.8978" stop-color="#F9F093"/>
</linearGradient>
<linearGradient id="paint46_linear_2005_62170" x1="29.5461" y1="21.5961" x2="27.1247" y2="7.54331" gradientUnits="userSpaceOnUse">
<stop stop-color="white"/>
<stop offset="0.3172" stop-color="#EDDE79"/>
<stop offset="0.6237" stop-color="#D69A2D"/>
<stop offset="0.8978" stop-color="#F9F093"/>
</linearGradient>
<linearGradient id="paint47_linear_2005_62170" x1="29.5461" y1="20.9106" x2="27.7088" y2="9.7013" gradientUnits="userSpaceOnUse">
<stop stop-color="white"/>
<stop offset="0.3172" stop-color="#EDDE79"/>
<stop offset="0.6237" stop-color="#D69A2D"/>
<stop offset="0.8978" stop-color="#F9F093"/>
</linearGradient>
<linearGradient id="paint48_linear_2005_62170" x1="23.355" y1="17.2562" x2="35.3755" y2="6.41588" gradientUnits="userSpaceOnUse">
<stop stop-color="white"/>
<stop offset="0.3172" stop-color="#EDDE79"/>
<stop offset="0.6237" stop-color="#D69A2D"/>
<stop offset="0.8978" stop-color="#F9F093"/>
</linearGradient>
<linearGradient id="paint49_linear_2005_62170" x1="28.3972" y1="9.46903" x2="34.1182" y2="14.4059" gradientUnits="userSpaceOnUse">
<stop stop-color="white"/>
<stop offset="0.3172" stop-color="#EDDE79"/>
<stop offset="0.6237" stop-color="#D69A2D"/>
<stop offset="0.8978" stop-color="#F9F093"/>
</linearGradient>
<linearGradient id="paint50_linear_2005_62170" x1="35.6732" y1="9.08618" x2="31.055" y2="22.5627" gradientUnits="userSpaceOnUse">
<stop stop-color="white"/>
<stop offset="0.3172" stop-color="#EDDE79"/>
<stop offset="0.6237" stop-color="#D69A2D"/>
<stop offset="0.8978" stop-color="#F9F093"/>
</linearGradient>
<linearGradient id="paint51_linear_2005_62170" x1="35.7528" y1="26.6288" x2="26.5998" y2="17.3294" gradientUnits="userSpaceOnUse">
<stop stop-color="white"/>
<stop offset="0.3172" stop-color="#EDDE79"/>
<stop offset="0.6237" stop-color="#D69A2D"/>
<stop offset="0.8978" stop-color="#F9F093"/>
</linearGradient>
<linearGradient id="paint52_linear_2005_62170" x1="40.5877" y1="12.9157" x2="29.1454" y2="19.2871" gradientUnits="userSpaceOnUse">
<stop stop-color="white"/>
<stop offset="0.3172" stop-color="#EDDE79"/>
<stop offset="0.6237" stop-color="#D69A2D"/>
<stop offset="0.8978" stop-color="#F9F093"/>
</linearGradient>
<linearGradient id="paint53_linear_2005_62170" x1="38.1591" y1="21.5961" x2="35.7377" y2="7.54331" gradientUnits="userSpaceOnUse">
<stop stop-color="white"/>
<stop offset="0.3172" stop-color="#EDDE79"/>
<stop offset="0.6237" stop-color="#D69A2D"/>
<stop offset="0.8978" stop-color="#F9F093"/>
</linearGradient>
<linearGradient id="paint54_linear_2005_62170" x1="38.1591" y1="20.9106" x2="36.3218" y2="9.7013" gradientUnits="userSpaceOnUse">
<stop stop-color="white"/>
<stop offset="0.3172" stop-color="#EDDE79"/>
<stop offset="0.6237" stop-color="#D69A2D"/>
<stop offset="0.8978" stop-color="#F9F093"/>
</linearGradient>
<radialGradient id="paint55_radial_2005_62170" cx="0" cy="0" r="1" gradientUnits="userSpaceOnUse" gradientTransform="translate(16.5251 51.7503) rotate(180) scale(13.2751 13.275)">
<stop stop-color="#FAF5D5"/>
<stop offset="0.246668" stop-color="#EFE182"/>
<stop offset="0.505747" stop-color="#EACB67"/>
<stop offset="0.745868" stop-color="#E2B850"/>
<stop offset="1" stop-color="#DDAB41"/>
</radialGradient>
<linearGradient id="paint56_linear_2005_62170" x1="28.0002" y1="49.0503" x2="28.0002" y2="51.7503" gradientUnits="userSpaceOnUse">
<stop stop-color="#E5E5E5"/>
<stop offset="1" stop-color="#444B53"/>
</linearGradient>
<linearGradient id="paint57_linear_2005_62170" x1="28.5002" y1="49.0503" x2="28.5002" y2="51.7503" gradientUnits="userSpaceOnUse">
<stop stop-color="#E5E5E5"/>
<stop offset="1" stop-color="#444B53"/>
</linearGradient>
</defs>
</svg>
