<svg width="54" height="54" viewBox="0 0 54 54" fill="none" xmlns="http://www.w3.org/2000/svg">
<g clip-path="url(#clip0_2201_104549)">
<rect width="54.0003" height="54" fill="black" fill-opacity="0.01"/>
<rect x="0.562501" y="0.562501" width="52.8753" height="52.875" fill="url(#paint0_linear_2201_104549)"/>
<rect x="0.562501" y="0.562501" width="52.8753" height="52.875" fill="url(#paint1_linear_2201_104549)" fill-opacity="0.8"/>
<rect x="0.562501" y="0.562501" width="52.8753" height="52.875" stroke="url(#paint2_linear_2201_104549)" stroke-width="1.125"/>
<g filter="url(#filter0_i_2201_104549)">
<rect x="0.1125" y="0.1125" width="53.7753" height="53.775" stroke="url(#paint3_linear_2201_104549)" stroke-width="0.225001"/>
</g>
<g style="mix-blend-mode:plus-lighter">
<rect x="11.0251" y="1.125" width="6.97503" height="51.75" fill="url(#paint4_linear_2201_104549)" fill-opacity="0.2"/>
<rect x="23.4001" y="1.125" width="6.97503" height="51.75" fill="url(#paint5_linear_2201_104549)" fill-opacity="0.2"/>
<rect x="35.7751" y="1.125" width="6.97503" height="51.75" fill="url(#paint6_linear_2201_104549)" fill-opacity="0.2"/>
</g>
<g filter="url(#filter1_d_2201_104549)">
<path d="M21.5303 23.6556C22.1431 21.9536 21.9524 20.2108 21.9524 20.2108C21.9524 20.2108 21.9524 20.2108 21.9388 20.2244C19.6649 20.1018 18.6165 20.6329 18.5348 20.6737C18.5348 20.6737 18.5348 20.6737 18.5348 20.6601C18.5484 20.6601 17.8949 19.0534 15.7571 17.9097C13.6058 19.0534 12.9522 20.6601 12.9522 20.6601C12.9522 20.6601 11.9174 20.0746 9.54822 20.1972C9.54822 20.1972 9.3576 21.94 9.97032 23.642C8.09131 24.5543 7.13818 25.9159 7.13818 25.9159C8.02323 27.3728 9.73885 28.217 9.7797 28.2442C9.76608 28.2987 9.698 28.6119 9.62992 29.2654C9.57546 29.8918 9.52099 30.804 9.53461 32.0567C9.53461 32.0567 10.3243 32.2065 11.3592 32.2065C12.7752 32.1929 14.6542 31.8933 15.7299 30.5045C16.8056 31.8933 18.6846 32.1929 20.1007 32.2065C21.1355 32.2201 21.9252 32.0567 21.9252 32.0567C21.9388 30.8177 21.898 29.9054 21.8299 29.279C21.7754 28.6119 21.6937 28.2987 21.6801 28.2442C21.7346 28.217 23.4502 27.3728 24.3216 25.9159V25.9023C24.3625 25.9159 23.4094 24.5543 21.5303 23.6556Z" fill="url(#paint7_linear_2201_104549)"/>
<path fill-rule="evenodd" clip-rule="evenodd" d="M21.9805 20.908C21.9784 21.5722 21.9027 22.6213 21.5304 23.6552C22.4665 24.1029 23.1728 24.6655 23.6409 25.1157C23.7352 25.2064 23.8197 25.2925 23.8946 25.3721C24.1708 25.6662 24.3147 25.8729 24.3226 25.8991C24.3231 25.9007 24.3231 25.9016 24.3226 25.9019C24.3224 25.902 24.3221 25.902 24.3217 25.9019V25.9155C24.3183 25.9211 24.3149 25.9268 24.3115 25.9324C23.4458 27.3644 21.7685 28.1998 21.6823 28.2428L21.6802 28.2438L21.6814 28.2485C21.698 28.3145 21.7769 28.6285 21.83 29.2786C21.8981 29.905 21.9389 30.8173 21.9253 32.0563C21.9253 32.0563 21.1356 32.2197 20.1007 32.2061C18.8741 32.1943 17.3 31.9679 16.2016 31.0048C16.0321 30.8561 15.8738 30.6898 15.73 30.5041C15.5861 30.6898 15.4279 30.8561 15.2584 31.0048C14.16 31.9679 12.5859 32.1943 11.3592 32.2061C10.3244 32.2061 9.53469 32.0563 9.53469 32.0563C9.52107 30.8036 9.57554 29.8914 9.63 29.265C9.69808 28.6115 9.76616 28.2983 9.77978 28.2438C9.77696 28.242 9.76618 28.2362 9.74826 28.2266C9.50627 28.0973 7.96228 27.2719 7.13827 25.9155C7.13827 25.9155 8.09139 24.5539 9.9704 23.6416C9.35768 21.9396 9.54831 20.1968 9.54831 20.1968C11.0921 20.1169 12.0694 20.3377 12.5629 20.5012C12.8267 20.5886 12.9523 20.6597 12.9523 20.6597C12.9523 20.6597 13.046 20.4293 13.2793 20.081C13.662 19.5093 14.4205 18.6199 15.7572 17.9093C17.0088 18.5789 17.7517 19.4072 18.1497 19.9789C18.1697 20.0076 18.1888 20.0357 18.2071 20.063C18.2093 20.0663 18.2115 20.0696 18.2136 20.0728C18.2491 20.1263 18.2814 20.177 18.3106 20.2246C18.4636 20.4746 18.5307 20.6383 18.5349 20.6577C18.5352 20.659 18.5352 20.6597 18.5349 20.6597V20.6733L18.5362 20.6727C18.5416 20.67 18.5504 20.6656 18.5626 20.6597C18.6372 20.624 18.8394 20.5342 19.1814 20.4438C19.717 20.3022 20.5955 20.1591 21.8633 20.2201C21.8883 20.2213 21.9136 20.2226 21.9389 20.224L21.9525 20.2104C21.9525 20.2104 21.9537 20.2207 21.9555 20.2405C21.9573 20.2605 21.9598 20.2901 21.9625 20.3286C21.9709 20.4466 21.9814 20.6478 21.9805 20.908ZM21.9448 20.1141C21.9478 20.1444 21.9504 20.1765 21.9525 20.2104C22.6293 20.1364 22.6293 20.1365 22.6293 20.1367L22.6295 20.1379L22.6297 20.14L22.6303 20.1463C22.6308 20.1513 22.6315 20.158 22.6323 20.1663C22.6339 20.1829 22.6359 20.206 22.6382 20.2351C22.6428 20.2934 22.6484 20.3761 22.6529 20.4796C22.6619 20.6863 22.6669 20.9776 22.6514 21.3249C22.6269 21.874 22.5506 22.5782 22.3504 23.3152C23.1109 23.7449 23.7014 24.2285 24.1184 24.6304C24.3731 24.8759 24.5662 25.0937 24.6965 25.255C24.7611 25.3348 24.8137 25.4051 24.8522 25.4613C24.8693 25.4863 24.893 25.522 24.9142 25.5606L24.9149 25.5618C24.9211 25.573 24.9524 25.6294 24.9746 25.7032C24.9816 25.7263 24.9931 25.7688 24.9993 25.8231C25.0019 25.8458 25.0059 25.8879 25.0025 25.9424V26.1036L24.906 26.265C24.4043 27.1037 23.6768 27.7427 23.0953 28.1662C22.8496 28.3451 22.6232 28.4904 22.4398 28.6004C22.4633 28.7637 22.4874 28.967 22.5078 29.2141C22.5792 29.8765 22.6198 30.8151 22.6061 32.0638L22.6 32.6119L22.0632 32.723L21.9253 32.0563C22.0632 32.723 22.0631 32.723 22.063 32.723L22.0612 32.7234L22.058 32.7241L22.0482 32.726C22.0402 32.7276 22.0291 32.7298 22.0152 32.7324C21.9873 32.7376 21.948 32.7447 21.8982 32.7531C21.7986 32.7697 21.657 32.7913 21.4821 32.8123C21.1333 32.854 20.6468 32.8941 20.0932 32.8868C18.8314 32.8746 17.0224 32.6474 15.73 31.497C14.4372 32.6477 12.6276 32.8747 11.3658 32.8869L11.3625 32.8869H11.3592C10.8101 32.8869 10.3274 32.8472 9.98141 32.8076C9.80799 32.7877 9.66782 32.7677 9.56954 32.7524C9.52037 32.7448 9.48161 32.7383 9.45431 32.7335C9.44067 32.7312 9.42988 32.7292 9.42209 32.7278L9.41267 32.7261L9.40967 32.7255L9.40818 32.7253L9.408 32.7252C9.40792 32.7252 9.40783 32.7252 9.53469 32.0563L9.40783 32.7252L8.85999 32.6213L8.85393 32.0637C8.84005 30.7867 8.89558 29.8522 8.95176 29.2061L8.95226 29.2003L8.95286 29.1945C8.97754 28.9576 9.00251 28.761 9.02554 28.6017C8.42657 28.2387 7.25623 27.421 6.55641 26.269L6.32568 25.8891L6.58053 25.5251L7.13827 25.9155C6.58053 25.5251 6.58065 25.5249 6.58077 25.5247L6.58164 25.5235L6.58311 25.5214L6.58713 25.5158C6.59029 25.5113 6.5944 25.5056 6.59948 25.4987C6.60962 25.4848 6.6236 25.4659 6.64141 25.4425C6.67702 25.3958 6.72802 25.331 6.79438 25.2516C6.92699 25.0931 7.12162 24.876 7.37812 24.6296C7.7985 24.2259 8.38976 23.7392 9.15119 23.3045C8.95039 22.5665 8.87399 21.8611 8.84946 21.3113C8.83396 20.964 8.83891 20.6727 8.84794 20.466C8.85246 20.3625 8.85802 20.2798 8.86261 20.2215C8.86491 20.1924 8.86697 20.1692 8.86854 20.1526C8.86932 20.1443 8.86999 20.1377 8.8705 20.1327L8.87114 20.1264L8.87137 20.1243L8.8715 20.1231C8.87152 20.1229 8.87154 20.1227 9.54831 20.1968L8.87154 20.1227L8.93453 19.5468L9.51314 19.5169C10.7595 19.4524 11.6752 19.5732 12.2953 19.7197C12.4235 19.75 12.5388 19.7813 12.6417 19.8122C12.7397 19.6584 12.8629 19.4815 13.0148 19.2901C13.4971 18.6825 14.2684 17.9298 15.4376 17.3081L15.7582 17.1377L16.0784 17.309C17.2407 17.9309 18.0086 18.6839 18.4877 19.2922C18.6417 19.4877 18.7659 19.6685 18.8641 19.8254C19.4519 19.6537 20.4482 19.4689 21.9108 19.5408L21.9102 19.5309L22.5587 19.4905L22.6293 20.1364L21.9525 20.2104L21.9456 20.0995L21.9448 20.1141Z" fill="black"/>
<path fill-rule="evenodd" clip-rule="evenodd" d="M21.9805 20.908C21.9784 21.5722 21.9027 22.6213 21.5304 23.6552C22.4665 24.1029 23.1728 24.6655 23.6409 25.1157C23.7352 25.2064 23.8197 25.2925 23.8946 25.3721C24.1708 25.6662 24.3147 25.8729 24.3226 25.8991C24.3231 25.9007 24.3231 25.9016 24.3226 25.9019C24.3224 25.902 24.3221 25.902 24.3217 25.9019V25.9155C24.3183 25.9211 24.3149 25.9268 24.3115 25.9324C23.4458 27.3644 21.7685 28.1998 21.6823 28.2428L21.6802 28.2438L21.6814 28.2485C21.698 28.3145 21.7769 28.6285 21.83 29.2786C21.8981 29.905 21.9389 30.8173 21.9253 32.0563C21.9253 32.0563 21.1356 32.2197 20.1007 32.2061C18.8741 32.1943 17.3 31.9679 16.2016 31.0048C16.0321 30.8561 15.8738 30.6898 15.73 30.5041C15.5861 30.6898 15.4279 30.8561 15.2584 31.0048C14.16 31.9679 12.5859 32.1943 11.3592 32.2061C10.3244 32.2061 9.53469 32.0563 9.53469 32.0563C9.52107 30.8036 9.57554 29.8914 9.63 29.265C9.69808 28.6115 9.76616 28.2983 9.77978 28.2438C9.77696 28.242 9.76618 28.2362 9.74826 28.2266C9.50627 28.0973 7.96228 27.2719 7.13827 25.9155C7.13827 25.9155 8.09139 24.5539 9.9704 23.6416C9.35768 21.9396 9.54831 20.1968 9.54831 20.1968C11.0921 20.1169 12.0694 20.3377 12.5629 20.5012C12.8267 20.5886 12.9523 20.6597 12.9523 20.6597C12.9523 20.6597 13.046 20.4293 13.2793 20.081C13.662 19.5093 14.4205 18.6199 15.7572 17.9093C17.0088 18.5789 17.7517 19.4072 18.1497 19.9789C18.1697 20.0076 18.1888 20.0357 18.2071 20.063C18.2093 20.0663 18.2115 20.0696 18.2136 20.0728C18.2491 20.1263 18.2814 20.177 18.3106 20.2246C18.4636 20.4746 18.5307 20.6383 18.5349 20.6577C18.5352 20.659 18.5352 20.6597 18.5349 20.6597V20.6733L18.5362 20.6727C18.5416 20.67 18.5504 20.6656 18.5626 20.6597C18.6372 20.624 18.8394 20.5342 19.1814 20.4438C19.717 20.3022 20.5955 20.1591 21.8633 20.2201C21.8883 20.2213 21.9136 20.2226 21.9389 20.224L21.9525 20.2104C21.9525 20.2104 21.9537 20.2207 21.9555 20.2405C21.9573 20.2605 21.9598 20.2901 21.9625 20.3286C21.9709 20.4466 21.9814 20.6478 21.9805 20.908ZM21.9448 20.1141C21.9478 20.1444 21.9504 20.1765 21.9525 20.2104C22.6293 20.1364 22.6293 20.1365 22.6293 20.1367L22.6295 20.1379L22.6297 20.14L22.6303 20.1463C22.6308 20.1513 22.6315 20.158 22.6323 20.1663C22.6339 20.1829 22.6359 20.206 22.6382 20.2351C22.6428 20.2934 22.6484 20.3761 22.6529 20.4796C22.6619 20.6863 22.6669 20.9776 22.6514 21.3249C22.6269 21.874 22.5506 22.5782 22.3504 23.3152C23.1109 23.7449 23.7014 24.2285 24.1184 24.6304C24.3731 24.8759 24.5662 25.0937 24.6965 25.255C24.7611 25.3348 24.8137 25.4051 24.8522 25.4613C24.8693 25.4863 24.893 25.522 24.9142 25.5606L24.9149 25.5618C24.9211 25.573 24.9524 25.6294 24.9746 25.7032C24.9816 25.7263 24.9931 25.7688 24.9993 25.8231C25.0019 25.8458 25.0059 25.8879 25.0025 25.9424V26.1036L24.906 26.265C24.4043 27.1037 23.6768 27.7427 23.0953 28.1662C22.8496 28.3451 22.6232 28.4904 22.4398 28.6004C22.4633 28.7637 22.4874 28.967 22.5078 29.2141C22.5792 29.8765 22.6198 30.8151 22.6061 32.0638L22.6 32.6119L22.0632 32.723L21.9253 32.0563C22.0632 32.723 22.0631 32.723 22.063 32.723L22.0612 32.7234L22.058 32.7241L22.0482 32.726C22.0402 32.7276 22.0291 32.7298 22.0152 32.7324C21.9873 32.7376 21.948 32.7447 21.8982 32.7531C21.7986 32.7697 21.657 32.7913 21.4821 32.8123C21.1333 32.854 20.6468 32.8941 20.0932 32.8868C18.8314 32.8746 17.0224 32.6474 15.73 31.497C14.4372 32.6477 12.6276 32.8747 11.3658 32.8869L11.3625 32.8869H11.3592C10.8101 32.8869 10.3274 32.8472 9.98141 32.8076C9.80799 32.7877 9.66782 32.7677 9.56954 32.7524C9.52037 32.7448 9.48161 32.7383 9.45431 32.7335C9.44067 32.7312 9.42988 32.7292 9.42209 32.7278L9.41267 32.7261L9.40967 32.7255L9.40818 32.7253L9.408 32.7252C9.40792 32.7252 9.40783 32.7252 9.53469 32.0563L9.40783 32.7252L8.85999 32.6213L8.85393 32.0637C8.84005 30.7867 8.89558 29.8522 8.95176 29.2061L8.95226 29.2003L8.95286 29.1945C8.97754 28.9576 9.00251 28.761 9.02554 28.6017C8.42657 28.2387 7.25623 27.421 6.55641 26.269L6.32568 25.8891L6.58053 25.5251L7.13827 25.9155C6.58053 25.5251 6.58065 25.5249 6.58077 25.5247L6.58164 25.5235L6.58311 25.5214L6.58713 25.5158C6.59029 25.5113 6.5944 25.5056 6.59948 25.4987C6.60962 25.4848 6.6236 25.4659 6.64141 25.4425C6.67702 25.3958 6.72802 25.331 6.79438 25.2516C6.92699 25.0931 7.12162 24.876 7.37812 24.6296C7.7985 24.2259 8.38976 23.7392 9.15119 23.3045C8.95039 22.5665 8.87399 21.8611 8.84946 21.3113C8.83396 20.964 8.83891 20.6727 8.84794 20.466C8.85246 20.3625 8.85802 20.2798 8.86261 20.2215C8.86491 20.1924 8.86697 20.1692 8.86854 20.1526C8.86932 20.1443 8.86999 20.1377 8.8705 20.1327L8.87114 20.1264L8.87137 20.1243L8.8715 20.1231C8.87152 20.1229 8.87154 20.1227 9.54831 20.1968L8.87154 20.1227L8.93453 19.5468L9.51314 19.5169C10.7595 19.4524 11.6752 19.5732 12.2953 19.7197C12.4235 19.75 12.5388 19.7813 12.6417 19.8122C12.7397 19.6584 12.8629 19.4815 13.0148 19.2901C13.4971 18.6825 14.2684 17.9298 15.4376 17.3081L15.7582 17.1377L16.0784 17.309C17.2407 17.9309 18.0086 18.6839 18.4877 19.2922C18.6417 19.4877 18.7659 19.6685 18.8641 19.8254C19.4519 19.6537 20.4482 19.4689 21.9108 19.5408L21.9102 19.5309L22.5587 19.4905L22.6293 20.1364L21.9525 20.2104L21.9456 20.0995L21.9448 20.1141Z" fill="url(#paint8_angular_2201_104549)"/>
<path d="M15.7511 17.9092V27.3949V27.3845C15.6992 27.156 14.8472 23.343 12.9563 20.6624C12.9563 20.6624 13.6108 19.052 15.7511 17.9092Z" fill="url(#paint9_linear_2201_104549)"/>
<path d="M15.7512 27.3945C13.9746 23.7789 9.54858 20.2048 9.54858 20.2048C11.9278 20.0698 12.9564 20.662 12.9564 20.662C14.8473 23.3425 15.6993 27.1555 15.7512 27.3945Z" fill="url(#paint10_linear_2201_104549)"/>
<path d="M15.7512 27.3945C12.946 24.8075 9.97456 23.6542 9.97456 23.6542C9.36157 21.9503 9.54858 20.2048 9.54858 20.2048C9.54858 20.2048 13.9746 23.7789 15.7512 27.3945Z" fill="url(#paint11_linear_2201_104549)"/>
<path d="M15.7513 27.395C15.7513 27.395 11.5435 27.6236 9.7876 28.247C9.7876 28.247 9.50708 29.4314 9.54863 32.06C9.54863 32.06 10.3383 32.2158 11.3772 32.2054C12.7902 32.195 14.6708 31.8937 15.7513 30.5015V27.395Z" fill="url(#paint12_linear_2201_104549)"/>
<path d="M15.7512 27.395L9.54855 32.0496C9.52777 29.2236 9.78751 28.2366 9.78751 28.2366C11.5434 27.6236 15.7512 27.395 15.7512 27.395Z" fill="url(#paint13_linear_2201_104549)"/>
<path d="M15.7512 27.3953C12.946 24.8083 9.97457 23.655 9.97457 23.655C8.09404 24.5485 7.13818 25.92 7.13818 25.92C7.13818 25.92 12.0837 25.307 15.7512 27.3953Z" fill="url(#paint14_linear_2201_104549)"/>
<path d="M9.78756 28.2469C11.5434 27.6235 15.7512 27.3949 15.7512 27.3949C12.0837 25.3066 7.13818 25.9196 7.13818 25.9196C8.0317 27.3949 9.78756 28.2469 9.78756 28.2469Z" fill="url(#paint15_linear_2201_104549)"/>
<path d="M15.7512 17.9092V27.3949V27.3845C15.8032 27.1456 16.6551 23.343 18.546 20.652C18.546 20.6624 17.8915 19.052 15.7512 17.9092Z" fill="url(#paint16_linear_2201_104549)"/>
<path d="M15.7512 27.3944C17.5279 23.7788 21.9539 20.2152 21.9539 20.2152C19.5746 20.0801 18.5357 20.6619 18.5357 20.6619C16.6551 23.3425 15.8032 27.1555 15.7512 27.3944Z" fill="url(#paint17_linear_2201_104549)"/>
<path d="M15.7512 27.3945C18.5564 24.8075 21.5279 23.6542 21.5279 23.6542C22.1409 21.9503 21.9539 20.2048 21.9539 20.2048C21.9539 20.2048 17.5279 23.7789 15.7512 27.3945Z" fill="url(#paint18_linear_2201_104549)"/>
<path d="M15.7512 27.395C15.7512 27.395 19.959 27.6236 21.7149 28.247C21.7149 28.247 21.9954 29.4314 21.9539 32.06C21.9539 32.06 21.1642 32.2158 20.1253 32.2054C18.7123 32.195 16.8317 31.8937 15.7512 30.5015V27.395Z" fill="url(#paint19_linear_2201_104549)"/>
<path d="M15.7512 27.395L21.9539 32.0496C21.9746 29.2236 21.7149 28.2366 21.7149 28.2366C19.959 27.6236 15.7512 27.395 15.7512 27.395Z" fill="url(#paint20_linear_2201_104549)"/>
<path d="M15.7512 27.3953C18.5564 24.8083 21.5279 23.655 21.5279 23.655C23.4084 24.5485 24.3643 25.9096 24.3643 25.9096C24.3643 25.9096 19.4084 25.307 15.7512 27.3953Z" fill="url(#paint21_linear_2201_104549)"/>
<path d="M21.7149 28.2469C19.959 27.6235 15.7512 27.3949 15.7512 27.3949C19.4084 25.3066 24.3643 25.9196 24.3643 25.9196C23.4708 27.3949 21.7149 28.2469 21.7149 28.2469Z" fill="url(#paint22_linear_2201_104549)"/>
</g>
<g filter="url(#filter2_d_2201_104549)">
<path d="M44.0303 23.6556C44.6431 21.9536 44.4524 20.2108 44.4524 20.2108C44.4524 20.2108 44.4524 20.2108 44.4388 20.2244C42.1649 20.1018 41.1165 20.6329 41.0348 20.6737C41.0348 20.6737 41.0348 20.6737 41.0348 20.6601C41.0484 20.6601 40.3949 19.0534 38.2571 17.9097C36.1058 19.0534 35.4522 20.6601 35.4522 20.6601C35.4522 20.6601 34.4174 20.0746 32.0482 20.1972C32.0482 20.1972 31.8576 21.94 32.4703 23.642C30.5913 24.5543 29.6382 25.9159 29.6382 25.9159C30.5232 27.3728 32.2388 28.217 32.2797 28.2442C32.2661 28.2987 32.198 28.6119 32.1299 29.2654C32.0755 29.8918 32.021 30.804 32.0346 32.0567C32.0346 32.0567 32.8243 32.2065 33.8592 32.2065C35.2752 32.1929 37.1542 31.8933 38.2299 30.5045C39.3056 31.8933 41.1846 32.1929 42.6007 32.2065C43.6355 32.2201 44.4252 32.0567 44.4252 32.0567C44.4388 30.8177 44.398 29.9054 44.3299 29.279C44.2754 28.6119 44.1937 28.2987 44.1801 28.2442C44.2346 28.217 45.9502 27.3728 46.8216 25.9159V25.9023C46.8625 25.9159 45.9094 24.5543 44.0303 23.6556Z" fill="url(#paint23_linear_2201_104549)"/>
<path fill-rule="evenodd" clip-rule="evenodd" d="M44.4805 20.908C44.4784 21.5722 44.4027 22.6213 44.0304 23.6552C44.9665 24.1029 45.6728 24.6655 46.1409 25.1157C46.2352 25.2064 46.3197 25.2925 46.3946 25.3721C46.6708 25.6662 46.8147 25.8729 46.8226 25.8991C46.8231 25.9007 46.8231 25.9016 46.8226 25.9019C46.8224 25.902 46.8221 25.902 46.8217 25.9019V25.9155C46.8183 25.9211 46.8149 25.9268 46.8115 25.9324C45.9458 27.3644 44.2685 28.1998 44.1823 28.2428L44.1802 28.2438L44.1814 28.2485C44.198 28.3145 44.2769 28.6285 44.33 29.2786C44.3981 29.905 44.4389 30.8173 44.4253 32.0563C44.4253 32.0563 43.6356 32.2197 42.6007 32.2061C41.3741 32.1943 39.8 31.9679 38.7016 31.0048C38.5321 30.8561 38.3738 30.6898 38.23 30.5041C38.0861 30.6898 37.9279 30.8561 37.7584 31.0048C36.66 31.9679 35.0859 32.1943 33.8592 32.2061C32.8244 32.2061 32.0347 32.0563 32.0347 32.0563C32.0211 30.8036 32.0755 29.8914 32.13 29.265C32.1981 28.6115 32.2662 28.2983 32.2798 28.2438C32.277 28.242 32.2662 28.2362 32.2483 28.2266C32.0063 28.0973 30.4623 27.2719 29.6383 25.9155C29.6383 25.9155 30.5914 24.5539 32.4704 23.6416C31.8577 21.9396 32.0483 20.1968 32.0483 20.1968C33.5921 20.1169 34.5694 20.3377 35.0629 20.5012C35.3267 20.5886 35.4523 20.6597 35.4523 20.6597C35.4523 20.6597 35.546 20.4293 35.7793 20.081C36.162 19.5093 36.9205 18.6199 38.2572 17.9093C39.5088 18.5789 40.2517 19.4072 40.6497 19.9789C40.6697 20.0076 40.6888 20.0357 40.7071 20.063C40.7093 20.0663 40.7115 20.0696 40.7136 20.0728C40.7491 20.1263 40.7814 20.177 40.8106 20.2246C40.9636 20.4746 41.0307 20.6383 41.0349 20.6577C41.0352 20.659 41.0352 20.6597 41.0349 20.6597V20.6733L41.0362 20.6727C41.0416 20.67 41.0504 20.6656 41.0626 20.6597C41.1372 20.624 41.3394 20.5342 41.6814 20.4438C42.217 20.3022 43.0955 20.1591 44.3633 20.2201C44.3883 20.2213 44.4136 20.2226 44.4389 20.224L44.4525 20.2104C44.4525 20.2104 44.4537 20.2207 44.4555 20.2405C44.4573 20.2605 44.4598 20.2901 44.4625 20.3286C44.4709 20.4466 44.4814 20.6478 44.4805 20.908ZM44.4448 20.1141C44.4478 20.1444 44.4504 20.1765 44.4525 20.2104C45.1293 20.1364 45.1293 20.1365 45.1293 20.1367L45.1295 20.1379L45.1297 20.14L45.1303 20.1463C45.1308 20.1513 45.1315 20.158 45.1323 20.1663C45.1339 20.1829 45.1359 20.206 45.1382 20.2351C45.1428 20.2934 45.1484 20.3761 45.1529 20.4796C45.1619 20.6863 45.1669 20.9776 45.1514 21.3249C45.1269 21.874 45.0506 22.5782 44.8504 23.3152C45.6109 23.7449 46.2014 24.2285 46.6184 24.6304C46.8731 24.8759 47.0662 25.0937 47.1965 25.255C47.2611 25.3348 47.3137 25.4051 47.3522 25.4613C47.3693 25.4863 47.393 25.522 47.4142 25.5606L47.4149 25.5618C47.4211 25.573 47.4524 25.6294 47.4746 25.7032C47.4816 25.7263 47.4931 25.7688 47.4993 25.8231C47.5019 25.8458 47.5059 25.8879 47.5025 25.9424V26.1036L47.406 26.265C46.9043 27.1037 46.1768 27.7427 45.5953 28.1662C45.3496 28.3451 45.1232 28.4904 44.9398 28.6004C44.9633 28.7637 44.9874 28.967 45.0078 29.2141C45.0792 29.8765 45.1198 30.8151 45.1061 32.0638L45.1 32.6119L44.5632 32.723L44.4253 32.0563C44.5632 32.723 44.5631 32.723 44.563 32.723L44.5612 32.7234L44.558 32.7241L44.5482 32.726C44.5402 32.7276 44.5291 32.7298 44.5152 32.7324C44.4873 32.7376 44.448 32.7447 44.3982 32.7531C44.2986 32.7697 44.157 32.7913 43.9821 32.8123C43.6333 32.854 43.1468 32.8941 42.5932 32.8868C41.3314 32.8746 39.5224 32.6474 38.23 31.497C36.9372 32.6477 35.1276 32.8747 33.8658 32.8869L33.8625 32.8869H33.8592C33.3101 32.8869 32.8274 32.8472 32.4814 32.8076C32.308 32.7877 32.1678 32.7677 32.0695 32.7524C32.0204 32.7448 31.9816 32.7383 31.9543 32.7335C31.9407 32.7312 31.9299 32.7292 31.9221 32.7278L31.9127 32.7261L31.9097 32.7255L31.9082 32.7253L31.908 32.7252C31.9079 32.7252 31.9078 32.7252 32.0347 32.0563L31.9078 32.7252L31.36 32.6213L31.3539 32.0637C31.34 30.7867 31.3956 29.8522 31.4518 29.2061L31.4523 29.2003L31.4529 29.1945C31.4775 28.9576 31.5025 28.761 31.5255 28.6017C30.9266 28.2387 29.7562 27.421 29.0564 26.269L28.8257 25.8891L29.0805 25.5251L29.6383 25.9155C29.0805 25.5251 29.0807 25.5249 29.0808 25.5247L29.0816 25.5235L29.0831 25.5214L29.0871 25.5158C29.0903 25.5113 29.0944 25.5056 29.0995 25.4987C29.1096 25.4848 29.1236 25.4659 29.1414 25.4425C29.177 25.3958 29.228 25.331 29.2944 25.2516C29.427 25.0931 29.6216 24.876 29.8781 24.6296C30.2985 24.2259 30.8898 23.7392 31.6512 23.3045C31.4504 22.5665 31.374 21.8611 31.3495 21.3113C31.334 20.964 31.3389 20.6727 31.3479 20.466C31.3525 20.3625 31.358 20.2798 31.3626 20.2215C31.3649 20.1924 31.367 20.1692 31.3685 20.1526C31.3693 20.1443 31.37 20.1377 31.3705 20.1327L31.3711 20.1264L31.3714 20.1243L31.3715 20.1231C31.3715 20.1229 31.3715 20.1227 32.0483 20.1968L31.3715 20.1227L31.4345 19.5468L32.0131 19.5169C33.2595 19.4524 34.1752 19.5732 34.7953 19.7197C34.9235 19.75 35.0388 19.7813 35.1417 19.8122C35.2397 19.6584 35.3629 19.4815 35.5148 19.2901C35.9971 18.6825 36.7684 17.9298 37.9376 17.3081L38.2582 17.1377L38.5784 17.309C39.7407 17.9309 40.5086 18.6839 40.9877 19.2922C41.1417 19.4877 41.2659 19.6685 41.3641 19.8254C41.9519 19.6537 42.9482 19.4689 44.4108 19.5408L44.4102 19.5309L45.0587 19.4905L45.1293 20.1364L44.4525 20.2104L44.4456 20.0995L44.4448 20.1141Z" fill="black"/>
<path fill-rule="evenodd" clip-rule="evenodd" d="M44.4805 20.908C44.4784 21.5722 44.4027 22.6213 44.0304 23.6552C44.9665 24.1029 45.6728 24.6655 46.1409 25.1157C46.2352 25.2064 46.3197 25.2925 46.3946 25.3721C46.6708 25.6662 46.8147 25.8729 46.8226 25.8991C46.8231 25.9007 46.8231 25.9016 46.8226 25.9019C46.8224 25.902 46.8221 25.902 46.8217 25.9019V25.9155C46.8183 25.9211 46.8149 25.9268 46.8115 25.9324C45.9458 27.3644 44.2685 28.1998 44.1823 28.2428L44.1802 28.2438L44.1814 28.2485C44.198 28.3145 44.2769 28.6285 44.33 29.2786C44.3981 29.905 44.4389 30.8173 44.4253 32.0563C44.4253 32.0563 43.6356 32.2197 42.6007 32.2061C41.3741 32.1943 39.8 31.9679 38.7016 31.0048C38.5321 30.8561 38.3738 30.6898 38.23 30.5041C38.0861 30.6898 37.9279 30.8561 37.7584 31.0048C36.66 31.9679 35.0859 32.1943 33.8592 32.2061C32.8244 32.2061 32.0347 32.0563 32.0347 32.0563C32.0211 30.8036 32.0755 29.8914 32.13 29.265C32.1981 28.6115 32.2662 28.2983 32.2798 28.2438C32.277 28.242 32.2662 28.2362 32.2483 28.2266C32.0063 28.0973 30.4623 27.2719 29.6383 25.9155C29.6383 25.9155 30.5914 24.5539 32.4704 23.6416C31.8577 21.9396 32.0483 20.1968 32.0483 20.1968C33.5921 20.1169 34.5694 20.3377 35.0629 20.5012C35.3267 20.5886 35.4523 20.6597 35.4523 20.6597C35.4523 20.6597 35.546 20.4293 35.7793 20.081C36.162 19.5093 36.9205 18.6199 38.2572 17.9093C39.5088 18.5789 40.2517 19.4072 40.6497 19.9789C40.6697 20.0076 40.6888 20.0357 40.7071 20.063C40.7093 20.0663 40.7115 20.0696 40.7136 20.0728C40.7491 20.1263 40.7814 20.177 40.8106 20.2246C40.9636 20.4746 41.0307 20.6383 41.0349 20.6577C41.0352 20.659 41.0352 20.6597 41.0349 20.6597V20.6733L41.0362 20.6727C41.0416 20.67 41.0504 20.6656 41.0626 20.6597C41.1372 20.624 41.3394 20.5342 41.6814 20.4438C42.217 20.3022 43.0955 20.1591 44.3633 20.2201C44.3883 20.2213 44.4136 20.2226 44.4389 20.224L44.4525 20.2104C44.4525 20.2104 44.4537 20.2207 44.4555 20.2405C44.4573 20.2605 44.4598 20.2901 44.4625 20.3286C44.4709 20.4466 44.4814 20.6478 44.4805 20.908ZM44.4448 20.1141C44.4478 20.1444 44.4504 20.1765 44.4525 20.2104C45.1293 20.1364 45.1293 20.1365 45.1293 20.1367L45.1295 20.1379L45.1297 20.14L45.1303 20.1463C45.1308 20.1513 45.1315 20.158 45.1323 20.1663C45.1339 20.1829 45.1359 20.206 45.1382 20.2351C45.1428 20.2934 45.1484 20.3761 45.1529 20.4796C45.1619 20.6863 45.1669 20.9776 45.1514 21.3249C45.1269 21.874 45.0506 22.5782 44.8504 23.3152C45.6109 23.7449 46.2014 24.2285 46.6184 24.6304C46.8731 24.8759 47.0662 25.0937 47.1965 25.255C47.2611 25.3348 47.3137 25.4051 47.3522 25.4613C47.3693 25.4863 47.393 25.522 47.4142 25.5606L47.4149 25.5618C47.4211 25.573 47.4524 25.6294 47.4746 25.7032C47.4816 25.7263 47.4931 25.7688 47.4993 25.8231C47.5019 25.8458 47.5059 25.8879 47.5025 25.9424V26.1036L47.406 26.265C46.9043 27.1037 46.1768 27.7427 45.5953 28.1662C45.3496 28.3451 45.1232 28.4904 44.9398 28.6004C44.9633 28.7637 44.9874 28.967 45.0078 29.2141C45.0792 29.8765 45.1198 30.8151 45.1061 32.0638L45.1 32.6119L44.5632 32.723L44.4253 32.0563C44.5632 32.723 44.5631 32.723 44.563 32.723L44.5612 32.7234L44.558 32.7241L44.5482 32.726C44.5402 32.7276 44.5291 32.7298 44.5152 32.7324C44.4873 32.7376 44.448 32.7447 44.3982 32.7531C44.2986 32.7697 44.157 32.7913 43.9821 32.8123C43.6333 32.854 43.1468 32.8941 42.5932 32.8868C41.3314 32.8746 39.5224 32.6474 38.23 31.497C36.9372 32.6477 35.1276 32.8747 33.8658 32.8869L33.8625 32.8869H33.8592C33.3101 32.8869 32.8274 32.8472 32.4814 32.8076C32.308 32.7877 32.1678 32.7677 32.0695 32.7524C32.0204 32.7448 31.9816 32.7383 31.9543 32.7335C31.9407 32.7312 31.9299 32.7292 31.9221 32.7278L31.9127 32.7261L31.9097 32.7255L31.9082 32.7253L31.908 32.7252C31.9079 32.7252 31.9078 32.7252 32.0347 32.0563L31.9078 32.7252L31.36 32.6213L31.3539 32.0637C31.34 30.7867 31.3956 29.8522 31.4518 29.2061L31.4523 29.2003L31.4529 29.1945C31.4775 28.9576 31.5025 28.761 31.5255 28.6017C30.9266 28.2387 29.7562 27.421 29.0564 26.269L28.8257 25.8891L29.0805 25.5251L29.6383 25.9155C29.0805 25.5251 29.0807 25.5249 29.0808 25.5247L29.0816 25.5235L29.0831 25.5214L29.0871 25.5158C29.0903 25.5113 29.0944 25.5056 29.0995 25.4987C29.1096 25.4848 29.1236 25.4659 29.1414 25.4425C29.177 25.3958 29.228 25.331 29.2944 25.2516C29.427 25.0931 29.6216 24.876 29.8781 24.6296C30.2985 24.2259 30.8898 23.7392 31.6512 23.3045C31.4504 22.5665 31.374 21.8611 31.3495 21.3113C31.334 20.964 31.3389 20.6727 31.3479 20.466C31.3525 20.3625 31.358 20.2798 31.3626 20.2215C31.3649 20.1924 31.367 20.1692 31.3685 20.1526C31.3693 20.1443 31.37 20.1377 31.3705 20.1327L31.3711 20.1264L31.3714 20.1243L31.3715 20.1231C31.3715 20.1229 31.3715 20.1227 32.0483 20.1968L31.3715 20.1227L31.4345 19.5468L32.0131 19.5169C33.2595 19.4524 34.1752 19.5732 34.7953 19.7197C34.9235 19.75 35.0388 19.7813 35.1417 19.8122C35.2397 19.6584 35.3629 19.4815 35.5148 19.2901C35.9971 18.6825 36.7684 17.9298 37.9376 17.3081L38.2582 17.1377L38.5784 17.309C39.7407 17.9309 40.5086 18.6839 40.9877 19.2922C41.1417 19.4877 41.2659 19.6685 41.3641 19.8254C41.9519 19.6537 42.9482 19.4689 44.4108 19.5408L44.4102 19.5309L45.0587 19.4905L45.1293 20.1364L44.4525 20.2104L44.4456 20.0995L44.4448 20.1141Z" fill="url(#paint24_angular_2201_104549)"/>
<path d="M38.2511 17.9102V27.3959V27.3855C38.1992 27.1569 37.3472 23.3439 35.4563 20.6634C35.4563 20.6634 36.1108 19.053 38.2511 17.9102Z" fill="url(#paint25_linear_2201_104549)"/>
<path d="M38.2512 27.3955C36.4746 23.7799 32.0486 20.2058 32.0486 20.2058C34.4278 20.0708 35.4564 20.663 35.4564 20.663C37.3473 23.3435 38.1993 27.1565 38.2512 27.3955Z" fill="url(#paint26_linear_2201_104549)"/>
<path d="M38.2512 27.3955C35.446 24.8084 32.4746 23.6552 32.4746 23.6552C31.8616 21.9513 32.0486 20.2058 32.0486 20.2058C32.0486 20.2058 36.4746 23.7799 38.2512 27.3955Z" fill="url(#paint27_linear_2201_104549)"/>
<path d="M38.2513 27.396C38.2513 27.396 34.0435 27.6246 32.2876 28.2479C32.2876 28.2479 32.0071 29.4324 32.0486 32.061C32.0486 32.061 32.8383 32.2168 33.8772 32.2064C35.2902 32.196 37.1708 31.8947 38.2513 30.5025V27.396Z" fill="url(#paint28_linear_2201_104549)"/>
<path d="M38.2512 27.396L32.0485 32.0506C32.0278 29.2246 32.2875 28.2376 32.2875 28.2376C34.0434 27.6246 38.2512 27.396 38.2512 27.396Z" fill="url(#paint29_linear_2201_104549)"/>
<path d="M38.2512 27.3963C35.446 24.8093 32.4746 23.656 32.4746 23.656C30.594 24.5495 29.6382 25.921 29.6382 25.921C29.6382 25.921 34.5837 25.308 38.2512 27.3963Z" fill="url(#paint30_linear_2201_104549)"/>
<path d="M32.2876 28.2478C34.0434 27.6244 38.2512 27.3959 38.2512 27.3959C34.5837 25.3076 29.6382 25.9205 29.6382 25.9205C30.5317 27.3959 32.2876 28.2478 32.2876 28.2478Z" fill="url(#paint31_linear_2201_104549)"/>
<path d="M38.2512 17.9102V27.3959V27.3855C38.3032 27.1466 39.1551 23.3439 41.046 20.653C41.046 20.6634 40.3915 19.053 38.2512 17.9102Z" fill="url(#paint32_linear_2201_104549)"/>
<path d="M38.2512 27.3954C40.0279 23.7798 44.4539 20.2161 44.4539 20.2161C42.0746 20.0811 41.0357 20.6629 41.0357 20.6629C39.1551 23.3434 38.3032 27.1564 38.2512 27.3954Z" fill="url(#paint33_linear_2201_104549)"/>
<path d="M38.2512 27.3955C41.0564 24.8084 44.0279 23.6552 44.0279 23.6552C44.6409 21.9513 44.4539 20.2058 44.4539 20.2058C44.4539 20.2058 40.0279 23.7799 38.2512 27.3955Z" fill="url(#paint34_linear_2201_104549)"/>
<path d="M38.2512 27.396C38.2512 27.396 42.459 27.6246 44.2149 28.2479C44.2149 28.2479 44.4954 29.4324 44.4539 32.061C44.4539 32.061 43.6642 32.2168 42.6253 32.2064C41.2123 32.196 39.3317 31.8947 38.2512 30.5025V27.396Z" fill="url(#paint35_linear_2201_104549)"/>
<path d="M38.2512 27.396L44.4539 32.0506C44.4746 29.2246 44.2149 28.2376 44.2149 28.2376C42.459 27.6246 38.2512 27.396 38.2512 27.396Z" fill="url(#paint36_linear_2201_104549)"/>
<path d="M38.2512 27.3963C41.0564 24.8093 44.0279 23.656 44.0279 23.656C45.9084 24.5495 46.8643 25.9106 46.8643 25.9106C46.8643 25.9106 41.9084 25.308 38.2512 27.3963Z" fill="url(#paint37_linear_2201_104549)"/>
<path d="M44.2149 28.2478C42.459 27.6244 38.2512 27.3959 38.2512 27.3959C41.9084 25.3076 46.8643 25.9205 46.8643 25.9205C45.9708 27.3959 44.2149 28.2478 44.2149 28.2478Z" fill="url(#paint38_linear_2201_104549)"/>
</g>
<rect x="2.25" y="49.05" width="49.5002" height="2.7" rx="0.450001" fill="#191919"/>
<path d="M2.25 50.1751C2.25 49.5537 2.75368 49.05 3.375 49.05H27.0001V51.75H3.375C2.75368 51.75 2.25 51.2464 2.25 50.625V50.1751Z" fill="url(#paint39_radial_2201_104549)"/>
<g filter="url(#filter3_dd_2201_104549)">
<rect x="2.3625" y="49.1625" width="49.2752" height="2.475" rx="0.337501" stroke="url(#paint40_linear_2201_104549)" stroke-width="0.225001"/>
</g>
<g filter="url(#filter4_dd_2201_104549)">
<path d="M27 49.05V51.75" stroke="url(#paint41_linear_2201_104549)" stroke-width="0.225001"/>
</g>
</g>
<defs>
<filter id="filter0_i_2201_104549" x="0" y="0" width="54.0002" height="54.9" filterUnits="userSpaceOnUse" color-interpolation-filters="sRGB">
<feFlood flood-opacity="0" result="BackgroundImageFix"/>
<feBlend mode="normal" in="SourceGraphic" in2="BackgroundImageFix" result="shape"/>
<feColorMatrix in="SourceAlpha" type="matrix" values="0 0 0 0 0 0 0 0 0 0 0 0 0 0 0 0 0 0 127 0" result="hardAlpha"/>
<feOffset dy="0.900002"/>
<feGaussianBlur stdDeviation="0.450001"/>
<feComposite in2="hardAlpha" operator="arithmetic" k2="-1" k3="1"/>
<feColorMatrix type="matrix" values="0 0 0 0 0 0 0 0 0 0 0 0 0 0 0 0 0 0 0.25 0"/>
<feBlend mode="normal" in2="shape" result="effect1_innerShadow_2201_104549"/>
</filter>
<filter id="filter1_d_2201_104549" x="-0.482333" y="10.3297" width="32.2943" height="29.366" filterUnits="userSpaceOnUse" color-interpolation-filters="sRGB">
<feFlood flood-opacity="0" result="BackgroundImageFix"/>
<feColorMatrix in="SourceAlpha" type="matrix" values="0 0 0 0 0 0 0 0 0 0 0 0 0 0 0 0 0 0 127 0" result="hardAlpha"/>
<feOffset/>
<feGaussianBlur stdDeviation="3.40401"/>
<feColorMatrix type="matrix" values="0 0 0 0 0 0 0 0 0 0 0 0 0 0 0 0 0 0 0.8 0"/>
<feBlend mode="normal" in2="BackgroundImageFix" result="effect1_dropShadow_2201_104549"/>
<feBlend mode="normal" in="SourceGraphic" in2="effect1_dropShadow_2201_104549" result="shape"/>
</filter>
<filter id="filter2_d_2201_104549" x="22.0177" y="10.3297" width="32.2943" height="29.366" filterUnits="userSpaceOnUse" color-interpolation-filters="sRGB">
<feFlood flood-opacity="0" result="BackgroundImageFix"/>
<feColorMatrix in="SourceAlpha" type="matrix" values="0 0 0 0 0 0 0 0 0 0 0 0 0 0 0 0 0 0 127 0" result="hardAlpha"/>
<feOffset/>
<feGaussianBlur stdDeviation="3.40401"/>
<feColorMatrix type="matrix" values="0 0 0 0 0 0 0 0 0 0 0 0 0 0 0 0 0 0 0.8 0"/>
<feBlend mode="normal" in2="BackgroundImageFix" result="effect1_dropShadow_2201_104549"/>
<feBlend mode="normal" in="SourceGraphic" in2="effect1_dropShadow_2201_104549" result="shape"/>
</filter>
<filter id="filter3_dd_2201_104549" x="1.35" y="48.15" width="51.3002" height="4.49996" filterUnits="userSpaceOnUse" color-interpolation-filters="sRGB">
<feFlood flood-opacity="0" result="BackgroundImageFix"/>
<feColorMatrix in="SourceAlpha" type="matrix" values="0 0 0 0 0 0 0 0 0 0 0 0 0 0 0 0 0 0 127 0" result="hardAlpha"/>
<feOffset/>
<feGaussianBlur stdDeviation="0.450001"/>
<feColorMatrix type="matrix" values="0 0 0 0 0 0 0 0 0 0 0 0 0 0 0 0 0 0 1 0"/>
<feBlend mode="normal" in2="BackgroundImageFix" result="effect1_dropShadow_2201_104549"/>
<feColorMatrix in="SourceAlpha" type="matrix" values="0 0 0 0 0 0 0 0 0 0 0 0 0 0 0 0 0 0 127 0" result="hardAlpha"/>
<feOffset/>
<feGaussianBlur stdDeviation="0.225001"/>
<feColorMatrix type="matrix" values="0 0 0 0 0 0 0 0 0 0 0 0 0 0 0 0 0 0 1 0"/>
<feBlend mode="normal" in2="effect1_dropShadow_2201_104549" result="effect2_dropShadow_2201_104549"/>
<feBlend mode="normal" in="SourceGraphic" in2="effect2_dropShadow_2201_104549" result="shape"/>
</filter>
<filter id="filter4_dd_2201_104549" x="25.9874" y="48.15" width="2.0251" height="4.49996" filterUnits="userSpaceOnUse" color-interpolation-filters="sRGB">
<feFlood flood-opacity="0" result="BackgroundImageFix"/>
<feColorMatrix in="SourceAlpha" type="matrix" values="0 0 0 0 0 0 0 0 0 0 0 0 0 0 0 0 0 0 127 0" result="hardAlpha"/>
<feOffset/>
<feGaussianBlur stdDeviation="0.450001"/>
<feColorMatrix type="matrix" values="0 0 0 0 0 0 0 0 0 0 0 0 0 0 0 0 0 0 1 0"/>
<feBlend mode="normal" in2="BackgroundImageFix" result="effect1_dropShadow_2201_104549"/>
<feColorMatrix in="SourceAlpha" type="matrix" values="0 0 0 0 0 0 0 0 0 0 0 0 0 0 0 0 0 0 127 0" result="hardAlpha"/>
<feOffset/>
<feGaussianBlur stdDeviation="0.225001"/>
<feColorMatrix type="matrix" values="0 0 0 0 0 0 0 0 0 0 0 0 0 0 0 0 0 0 1 0"/>
<feBlend mode="normal" in2="effect1_dropShadow_2201_104549" result="effect2_dropShadow_2201_104549"/>
<feBlend mode="normal" in="SourceGraphic" in2="effect2_dropShadow_2201_104549" result="shape"/>
</filter>
<linearGradient id="paint0_linear_2201_104549" x1="27.0001" y1="0" x2="27.0001" y2="54" gradientUnits="userSpaceOnUse">
<stop stop-color="#101010"/>
<stop offset="1" stop-color="#131313"/>
</linearGradient>
<linearGradient id="paint1_linear_2201_104549" x1="54.0003" y1="-1.83743e-06" x2="0.000257563" y2="54.0003" gradientUnits="userSpaceOnUse">
<stop stop-color="#EDDE79"/>
<stop offset="0.685495" stop-color="#D69A2D"/>
<stop offset="1" stop-color="#F9F093"/>
</linearGradient>
<linearGradient id="paint2_linear_2201_104549" x1="203.941" y1="-15.0134" x2="162.74" y2="110.512" gradientUnits="userSpaceOnUse">
<stop stop-color="white"/>
<stop offset="0.3172" stop-color="#EDDE79"/>
<stop offset="0.6237" stop-color="#D69A2D"/>
<stop offset="0.8978" stop-color="#F9F093"/>
</linearGradient>
<linearGradient id="paint3_linear_2201_104549" x1="-3.15002" y1="-2.8125" x2="44.3038" y2="-10.0019" gradientUnits="userSpaceOnUse">
<stop stop-color="white"/>
<stop offset="0.3172" stop-color="#EDDE79"/>
<stop offset="0.6237" stop-color="#D69A2D"/>
<stop offset="0.8978" stop-color="#F9F093"/>
</linearGradient>
<linearGradient id="paint4_linear_2201_104549" x1="14.5127" y1="1.125" x2="14.5127" y2="52.875" gradientUnits="userSpaceOnUse">
<stop stop-color="#F4E181"/>
<stop offset="1" stop-color="#F4E181" stop-opacity="0"/>
</linearGradient>
<linearGradient id="paint5_linear_2201_104549" x1="26.8877" y1="1.125" x2="26.8877" y2="52.875" gradientUnits="userSpaceOnUse">
<stop stop-color="#F4E181"/>
<stop offset="1" stop-color="#F4E181" stop-opacity="0"/>
</linearGradient>
<linearGradient id="paint6_linear_2201_104549" x1="39.2627" y1="1.125" x2="39.2627" y2="52.875" gradientUnits="userSpaceOnUse">
<stop stop-color="#F4E181"/>
<stop offset="1" stop-color="#F4E181" stop-opacity="0"/>
</linearGradient>
<linearGradient id="paint7_linear_2201_104549" x1="20.3855" y1="-2.35301" x2="9.27338" y2="65.4403" gradientUnits="userSpaceOnUse">
<stop stop-color="white"/>
<stop offset="0.3172" stop-color="#EDDE79"/>
<stop offset="0.6237" stop-color="#D69A2D"/>
<stop offset="0.8978" stop-color="#F9F093"/>
</linearGradient>
<radialGradient id="paint8_angular_2201_104549" cx="0" cy="0" r="1" gradientUnits="userSpaceOnUse" gradientTransform="translate(15.7306 25.7283) rotate(-44.8884) scale(7.25302 7.25297)">
<stop offset="0.10135" stop-color="#EDDE79"/>
<stop offset="0.371555" stop-color="white"/>
<stop offset="0.619704" stop-color="#D69A2D"/>
<stop offset="0.879496" stop-color="#F9F093"/>
</radialGradient>
<linearGradient id="paint9_linear_2201_104549" x1="22.1512" y1="34.5846" x2="10.1854" y2="20.8561" gradientUnits="userSpaceOnUse">
<stop stop-color="white"/>
<stop offset="0.3172" stop-color="#EDDE79"/>
<stop offset="0.6237" stop-color="#D69A2D"/>
<stop offset="0.8978" stop-color="#F9F093"/>
</linearGradient>
<linearGradient id="paint10_linear_2201_104549" x1="5.21606" y1="11.4671" x2="19.7479" y2="14.5817" gradientUnits="userSpaceOnUse">
<stop stop-color="white"/>
<stop offset="0.3172" stop-color="#EDDE79"/>
<stop offset="0.6237" stop-color="#D69A2D"/>
<stop offset="0.8978" stop-color="#F9F093"/>
</linearGradient>
<linearGradient id="paint11_linear_2201_104549" x1="13.3649" y1="20.9701" x2="8.67515" y2="29.1219" gradientUnits="userSpaceOnUse">
<stop stop-color="white"/>
<stop offset="0.3172" stop-color="#EDDE79"/>
<stop offset="0.6237" stop-color="#D69A2D"/>
<stop offset="0.8978" stop-color="#F9F093"/>
</linearGradient>
<linearGradient id="paint12_linear_2201_104549" x1="25.2101" y1="17.2963" x2="28.6178" y2="26.8778" gradientUnits="userSpaceOnUse">
<stop stop-color="white"/>
<stop offset="0.3172" stop-color="#EDDE79"/>
<stop offset="0.6237" stop-color="#D69A2D"/>
<stop offset="0.8978" stop-color="#F9F093"/>
</linearGradient>
<linearGradient id="paint13_linear_2201_104549" x1="17.2949" y1="36.4494" x2="8.44864" y2="27.1642" gradientUnits="userSpaceOnUse">
<stop stop-color="white"/>
<stop offset="0.3172" stop-color="#EDDE79"/>
<stop offset="0.6237" stop-color="#D69A2D"/>
<stop offset="0.8978" stop-color="#F9F093"/>
</linearGradient>
<linearGradient id="paint14_linear_2201_104549" x1="17.2958" y1="31.7209" x2="14.8744" y2="17.6681" gradientUnits="userSpaceOnUse">
<stop stop-color="white"/>
<stop offset="0.3172" stop-color="#EDDE79"/>
<stop offset="0.6237" stop-color="#D69A2D"/>
<stop offset="0.8978" stop-color="#F9F093"/>
</linearGradient>
<linearGradient id="paint15_linear_2201_104549" x1="17.2958" y1="31.0353" x2="15.4585" y2="19.8261" gradientUnits="userSpaceOnUse">
<stop stop-color="white"/>
<stop offset="0.3172" stop-color="#EDDE79"/>
<stop offset="0.6237" stop-color="#D69A2D"/>
<stop offset="0.8978" stop-color="#F9F093"/>
</linearGradient>
<linearGradient id="paint16_linear_2201_104549" x1="11.1048" y1="27.3804" x2="23.1253" y2="16.5402" gradientUnits="userSpaceOnUse">
<stop stop-color="white"/>
<stop offset="0.3172" stop-color="#EDDE79"/>
<stop offset="0.6237" stop-color="#D69A2D"/>
<stop offset="0.8978" stop-color="#F9F093"/>
</linearGradient>
<linearGradient id="paint17_linear_2201_104549" x1="16.1469" y1="19.5933" x2="21.8679" y2="24.5302" gradientUnits="userSpaceOnUse">
<stop stop-color="white"/>
<stop offset="0.3172" stop-color="#EDDE79"/>
<stop offset="0.6237" stop-color="#D69A2D"/>
<stop offset="0.8978" stop-color="#F9F093"/>
</linearGradient>
<linearGradient id="paint18_linear_2201_104549" x1="23.4229" y1="19.2104" x2="18.8048" y2="32.6869" gradientUnits="userSpaceOnUse">
<stop stop-color="white"/>
<stop offset="0.3172" stop-color="#EDDE79"/>
<stop offset="0.6237" stop-color="#D69A2D"/>
<stop offset="0.8978" stop-color="#F9F093"/>
</linearGradient>
<linearGradient id="paint19_linear_2201_104549" x1="23.5025" y1="36.7535" x2="14.3496" y2="27.4541" gradientUnits="userSpaceOnUse">
<stop stop-color="white"/>
<stop offset="0.3172" stop-color="#EDDE79"/>
<stop offset="0.6237" stop-color="#D69A2D"/>
<stop offset="0.8978" stop-color="#F9F093"/>
</linearGradient>
<linearGradient id="paint20_linear_2201_104549" x1="28.3374" y1="23.0404" x2="16.8951" y2="29.4119" gradientUnits="userSpaceOnUse">
<stop stop-color="white"/>
<stop offset="0.3172" stop-color="#EDDE79"/>
<stop offset="0.6237" stop-color="#D69A2D"/>
<stop offset="0.8978" stop-color="#F9F093"/>
</linearGradient>
<linearGradient id="paint21_linear_2201_104549" x1="25.9089" y1="31.7209" x2="23.4874" y2="17.6681" gradientUnits="userSpaceOnUse">
<stop stop-color="white"/>
<stop offset="0.3172" stop-color="#EDDE79"/>
<stop offset="0.6237" stop-color="#D69A2D"/>
<stop offset="0.8978" stop-color="#F9F093"/>
</linearGradient>
<linearGradient id="paint22_linear_2201_104549" x1="25.9089" y1="31.0353" x2="24.0716" y2="19.8261" gradientUnits="userSpaceOnUse">
<stop stop-color="white"/>
<stop offset="0.3172" stop-color="#EDDE79"/>
<stop offset="0.6237" stop-color="#D69A2D"/>
<stop offset="0.8978" stop-color="#F9F093"/>
</linearGradient>
<linearGradient id="paint23_linear_2201_104549" x1="42.8855" y1="-2.35301" x2="31.7734" y2="65.4403" gradientUnits="userSpaceOnUse">
<stop stop-color="white"/>
<stop offset="0.3172" stop-color="#EDDE79"/>
<stop offset="0.6237" stop-color="#D69A2D"/>
<stop offset="0.8978" stop-color="#F9F093"/>
</linearGradient>
<radialGradient id="paint24_angular_2201_104549" cx="0" cy="0" r="1" gradientUnits="userSpaceOnUse" gradientTransform="translate(38.2306 25.7283) rotate(-44.8884) scale(7.25302 7.25297)">
<stop offset="0.10135" stop-color="#EDDE79"/>
<stop offset="0.371555" stop-color="white"/>
<stop offset="0.619704" stop-color="#D69A2D"/>
<stop offset="0.879496" stop-color="#F9F093"/>
</radialGradient>
<linearGradient id="paint25_linear_2201_104549" x1="44.6512" y1="34.5856" x2="32.6854" y2="20.8571" gradientUnits="userSpaceOnUse">
<stop stop-color="white"/>
<stop offset="0.3172" stop-color="#EDDE79"/>
<stop offset="0.6237" stop-color="#D69A2D"/>
<stop offset="0.8978" stop-color="#F9F093"/>
</linearGradient>
<linearGradient id="paint26_linear_2201_104549" x1="27.7161" y1="11.4681" x2="42.2479" y2="14.5827" gradientUnits="userSpaceOnUse">
<stop stop-color="white"/>
<stop offset="0.3172" stop-color="#EDDE79"/>
<stop offset="0.6237" stop-color="#D69A2D"/>
<stop offset="0.8978" stop-color="#F9F093"/>
</linearGradient>
<linearGradient id="paint27_linear_2201_104549" x1="35.8649" y1="20.9711" x2="31.1751" y2="29.1228" gradientUnits="userSpaceOnUse">
<stop stop-color="white"/>
<stop offset="0.3172" stop-color="#EDDE79"/>
<stop offset="0.6237" stop-color="#D69A2D"/>
<stop offset="0.8978" stop-color="#F9F093"/>
</linearGradient>
<linearGradient id="paint28_linear_2201_104549" x1="47.7101" y1="17.2972" x2="51.1178" y2="26.8788" gradientUnits="userSpaceOnUse">
<stop stop-color="white"/>
<stop offset="0.3172" stop-color="#EDDE79"/>
<stop offset="0.6237" stop-color="#D69A2D"/>
<stop offset="0.8978" stop-color="#F9F093"/>
</linearGradient>
<linearGradient id="paint29_linear_2201_104549" x1="39.7949" y1="36.4504" x2="30.9486" y2="27.1652" gradientUnits="userSpaceOnUse">
<stop stop-color="white"/>
<stop offset="0.3172" stop-color="#EDDE79"/>
<stop offset="0.6237" stop-color="#D69A2D"/>
<stop offset="0.8978" stop-color="#F9F093"/>
</linearGradient>
<linearGradient id="paint30_linear_2201_104549" x1="39.7958" y1="31.7219" x2="37.3744" y2="17.669" gradientUnits="userSpaceOnUse">
<stop stop-color="white"/>
<stop offset="0.3172" stop-color="#EDDE79"/>
<stop offset="0.6237" stop-color="#D69A2D"/>
<stop offset="0.8978" stop-color="#F9F093"/>
</linearGradient>
<linearGradient id="paint31_linear_2201_104549" x1="39.7958" y1="31.0363" x2="37.9585" y2="19.827" gradientUnits="userSpaceOnUse">
<stop stop-color="white"/>
<stop offset="0.3172" stop-color="#EDDE79"/>
<stop offset="0.6237" stop-color="#D69A2D"/>
<stop offset="0.8978" stop-color="#F9F093"/>
</linearGradient>
<linearGradient id="paint32_linear_2201_104549" x1="33.6048" y1="27.3814" x2="45.6253" y2="16.5411" gradientUnits="userSpaceOnUse">
<stop stop-color="white"/>
<stop offset="0.3172" stop-color="#EDDE79"/>
<stop offset="0.6237" stop-color="#D69A2D"/>
<stop offset="0.8978" stop-color="#F9F093"/>
</linearGradient>
<linearGradient id="paint33_linear_2201_104549" x1="38.6469" y1="19.5943" x2="44.3679" y2="24.5311" gradientUnits="userSpaceOnUse">
<stop stop-color="white"/>
<stop offset="0.3172" stop-color="#EDDE79"/>
<stop offset="0.6237" stop-color="#D69A2D"/>
<stop offset="0.8978" stop-color="#F9F093"/>
</linearGradient>
<linearGradient id="paint34_linear_2201_104549" x1="45.9229" y1="19.2114" x2="41.3048" y2="32.6879" gradientUnits="userSpaceOnUse">
<stop stop-color="white"/>
<stop offset="0.3172" stop-color="#EDDE79"/>
<stop offset="0.6237" stop-color="#D69A2D"/>
<stop offset="0.8978" stop-color="#F9F093"/>
</linearGradient>
<linearGradient id="paint35_linear_2201_104549" x1="46.0025" y1="36.7545" x2="36.8496" y2="27.4551" gradientUnits="userSpaceOnUse">
<stop stop-color="white"/>
<stop offset="0.3172" stop-color="#EDDE79"/>
<stop offset="0.6237" stop-color="#D69A2D"/>
<stop offset="0.8978" stop-color="#F9F093"/>
</linearGradient>
<linearGradient id="paint36_linear_2201_104549" x1="50.8374" y1="23.0414" x2="39.3951" y2="29.4128" gradientUnits="userSpaceOnUse">
<stop stop-color="white"/>
<stop offset="0.3172" stop-color="#EDDE79"/>
<stop offset="0.6237" stop-color="#D69A2D"/>
<stop offset="0.8978" stop-color="#F9F093"/>
</linearGradient>
<linearGradient id="paint37_linear_2201_104549" x1="48.4089" y1="31.7219" x2="45.9874" y2="17.669" gradientUnits="userSpaceOnUse">
<stop stop-color="white"/>
<stop offset="0.3172" stop-color="#EDDE79"/>
<stop offset="0.6237" stop-color="#D69A2D"/>
<stop offset="0.8978" stop-color="#F9F093"/>
</linearGradient>
<linearGradient id="paint38_linear_2201_104549" x1="48.4089" y1="31.0363" x2="46.5716" y2="19.827" gradientUnits="userSpaceOnUse">
<stop stop-color="white"/>
<stop offset="0.3172" stop-color="#EDDE79"/>
<stop offset="0.6237" stop-color="#D69A2D"/>
<stop offset="0.8978" stop-color="#F9F093"/>
</linearGradient>
<radialGradient id="paint39_radial_2201_104549" cx="0" cy="0" r="1" gradientUnits="userSpaceOnUse" gradientTransform="translate(15.5251 51.75) rotate(180) scale(13.2751 13.275)">
<stop stop-color="#FAF5D5"/>
<stop offset="0.246668" stop-color="#EFE182"/>
<stop offset="0.505747" stop-color="#EACB67"/>
<stop offset="0.745868" stop-color="#E2B850"/>
<stop offset="1" stop-color="#DDAB41"/>
</radialGradient>
<linearGradient id="paint40_linear_2201_104549" x1="27.0001" y1="49.05" x2="27.0001" y2="51.75" gradientUnits="userSpaceOnUse">
<stop stop-color="#E5E5E5"/>
<stop offset="1" stop-color="#444B53"/>
</linearGradient>
<linearGradient id="paint41_linear_2201_104549" x1="27.5" y1="49.05" x2="27.5" y2="51.75" gradientUnits="userSpaceOnUse">
<stop stop-color="#E5E5E5"/>
<stop offset="1" stop-color="#444B53"/>
</linearGradient>
<clipPath id="clip0_2201_104549">
<rect width="54.0003" height="54" fill="white"/>
</clipPath>
</defs>
</svg>
