<svg width="45" height="45" viewBox="0 0 45 45" fill="none" xmlns="http://www.w3.org/2000/svg">
<circle cx="22.5" cy="22.5" r="22" fill="#2A2D36" stroke="#2D313F"/>
<g clip-path="url(#clip0_384_23880)">
<path fill-rule="evenodd" clip-rule="evenodd" d="M30.1275 16.2838C30.518 15.8932 30.518 15.2601 30.1275 14.8696C29.737 14.479 29.1038 14.479 28.7133 14.8696L22.4973 21.0855L16.2813 14.8696C15.8908 14.479 15.2576 14.479 14.8671 14.8696C14.4766 15.2601 14.4766 15.8932 14.8671 16.2838L21.0831 22.4997L14.8671 28.7157C14.4766 29.1062 14.4766 29.7394 14.8671 30.1299C15.2576 30.5204 15.8908 30.5204 16.2813 30.1299L22.4973 23.9139L28.7133 30.1299C29.1038 30.5204 29.737 30.5204 30.1275 30.1299C30.518 29.7394 30.518 29.1062 30.1275 28.7157L23.9115 22.4997L30.1275 16.2838Z" fill="#A9A4B4"/>
</g>
<defs>
<clipPath id="clip0_384_23880">
<rect width="15.8462" height="15.8462" fill="white" transform="translate(14.5742 14.5767)"/>
</clipPath>
</defs>
</svg>
