<svg width="33" height="33" viewBox="0 0 33 33" xmlns="http://www.w3.org/2000/svg">
    <g fill="none" fill-rule="evenodd">
        <path d="M-5.994-5.63h44v44h-44z"/>
        <path d="M23.006.37a9 9 0 0 1 9 9v14a9 9 0 0 1-9 9h-14a9 9 0 0 1-9-9v-14a9 9 0 0 1 9-9h14zm-10.062 8h-.052c-.375.005-2.73.115-5.196 2 0 0-2.69 4.971-2.69 11.105 0 0 1.57 2.76 5.697 2.895 0 0 .69-.856 1.253-1.58-2.373-.726-3.268-2.25-3.268-2.25s.185.135.52.325c.019.018.037.038.075.056.056.04.113.058.17.096.466.267.933.476 1.361.648.766.305 1.682.61 2.748.82 1.597.313 3.239.319 4.838.018.931-.166 1.84-.44 2.708-.818a10.73 10.73 0 0 0 2.148-1.125s-.933 1.562-3.382 2.268a79.101 79.101 0 0 0 1.235 1.542c4.126-.133 5.716-2.895 5.716-2.895 0-6.134-2.692-11.106-2.692-11.106-2.464-1.884-4.82-1.994-5.196-1.999h-.052l-.262.305c3.176.99 4.651 2.42 4.651 2.42a15.018 15.018 0 0 0-5.622-1.829 15.503 15.503 0 0 0-3.772.036c-.113 0-.207.02-.318.039-.654.058-2.243.304-4.24 1.2-.69.323-1.103.554-1.103.554s.115-.112.351-.295l.176-.132c.708-.52 2.144-1.41 4.385-2.07l-.187-.228zm-.635 7.45c1.09 0 1.972.817 1.952 1.814 0 .998-.86 1.814-1.952 1.814-1.072 0-1.954-.816-1.954-1.814 0-.997.862-1.814 1.954-1.814zm6.988 0c1.091 0 1.954.817 1.954 1.814 0 .998-.863 1.814-1.954 1.814-1.072 0-1.952-.816-1.952-1.814 0-.997.86-1.814 1.952-1.814z" fill="#FFF" fill-rule="nonzero"/>
    </g>
</svg>
