<svg width="46" height="46" viewBox="0 0 46 46" xmlns="http://www.w3.org/2000/svg">
    <path d="M34.395.136c6.312 0 11.429 5.117 11.429 11.429v22.857c0 6.312-5.117 11.428-11.429 11.428H11.538C5.226 45.85.11 40.734.11 34.422V11.565C.11 5.253 5.226.136 11.538.136h22.857zm-3.81 14.315H15.349a.953.953 0 0 0-.942.812l-.01.14v15.239c0 .478.352.874.811.942l.14.01h8.197V24.96h-2.227v-2.58h2.227v-1.9c0-2.208 1.348-3.41 3.316-3.41.443-.001.886.013 1.328.044l.663.058v2.307h-1.366c-1 0-1.247.444-1.275 1.11l-.003.146v1.646h2.554l-.332 2.579h-2.222v6.634h4.379a.953.953 0 0 0 .942-.812l.01-.14V15.404a.953.953 0 0 0-.811-.942l-.141-.01z" fill="#F5E1D6" fill-rule="nonzero"/>
</svg>
