<svg width="134" height="32" viewBox="0 0 134 32" fill="none" xmlns="http://www.w3.org/2000/svg">
    <g clip-path="url(#bq4nhb15oa)">
        <path fill="#000" fill-opacity=".01" d="M0 0h133.438v32H0z"/>
        <path d="m27.56 4.963.167 1.012c.01.059.184 1.136.184 2.84 0 1.622-.157 3.81-.755 6.233a23.417 23.417 0 0 1-3.476 7.743c-1.874 2.696-4.582 5.346-8.533 7.477l-.483.262-.484-.262c-3.948-2.129-6.657-4.78-8.533-7.477a23.329 23.329 0 0 1-3.476-7.743 26.21 26.21 0 0 1-.755-6.232c0-1.705.173-2.782.184-2.84l.167-1.013a.637.637 0 0 0-.523-.73.637.637 0 0 0-.73.523L.347 5.768c-.019.115-.2 1.26-.2 3.05 0 1.702.162 3.99.79 6.536a24.664 24.664 0 0 0 3.666 8.163c1.979 2.846 4.848 5.647 8.973 7.868l.784.423a.628.628 0 0 0 .603 0l.784-.423c4.124-2.223 6.994-5.022 8.972-7.868a24.643 24.643 0 0 0 3.667-8.163c.627-2.546.79-4.834.79-6.536 0-1.79-.181-2.932-.2-3.05l-.168-1.012a.633.633 0 1 0-1.249.207z" fill="#fff"/>
        <path d="m5.233 4.273 9.43-2.88 9.64 2.943a.635.635 0 1 0 .37-1.216L14.848.121a.62.62 0 0 0-.37 0L4.86 3.058a.637.637 0 0 0-.423.792.637.637 0 0 0 .795.423z" fill="#fff"/>
        <path d="M.577 5.15 14.1 31.537a.632.632 0 0 0 1.123.01l8.245-15.42.012-.023 5.277-10.968a.634.634 0 1 0-1.144-.55l-5.27 10.955-7.668 14.34L1.707 4.57a.635.635 0 1 0-1.13.58z" fill="#fff"/>
        <path d="M7.048 16.901h15.036a.633.633 0 1 0 0-1.267H7.048a.633.633 0 1 0 0 1.267zM48.983 11.426h-9.78a.611.611 0 0 0-.45.188.615.615 0 0 0-.188.45v7.85c0 .173.063.323.189.449a.615.615 0 0 0 .45.188h9.779v1.324h-9.78c-.546 0-1.008-.19-1.39-.573a1.888 1.888 0 0 1-.574-1.391v-7.85c0-.545.19-1.008.573-1.39.381-.38.845-.573 1.391-.573h9.78v1.328zM67.349 10.102v1.324h-9.42v3.892h7.57v1.34h-7.57v3.893h9.42v1.324H56.602V10.1H67.35v.002zM86.745 12.08v3.451c0 .546-.19 1.008-.573 1.391a1.891 1.891 0 0 1-1.39.573h-1.8l3.696 4.384h-1.75l-3.68-4.384h-4.316a6.16 6.16 0 0 1-.638-.065v4.449H74.97V10.121h9.813c.546 0 1.008.19 1.391.573.38.378.571.84.571 1.386zm-9.811 4.072h7.85a.595.595 0 0 0 .44-.18c.12-.119.18-.267.18-.44V12.08a.632.632 0 0 0-.18-.45.587.587 0 0 0-.44-.188h-7.85a.612.612 0 0 0-.45.189.615.615 0 0 0-.188.45v3.45c0 .176.063.322.188.442.124.12.274.18.45.18zM93.779 10.102h11.775v1.324h-5.218v10.451h-1.324V11.426h-5.233v-1.324zM112.684 21.877V10.102h1.324v11.775h-1.324zM131.687 10.102h1.701l-4.924 5.887 4.938 5.888h-1.717l-4.384-5.216h-3.794v5.216h-1.34V10.102h1.34v5.216h3.794l4.386-5.216z" fill="#fff"/>
    </g>
    <defs>
        <clipPath id="bq4nhb15oa">
            <path fill="#fff" d="M0 0h133.438v32H0z"/>
        </clipPath>
    </defs>
</svg>
