<svg width="40" height="40" viewBox="0 0 40 40" fill="none" xmlns="http://www.w3.org/2000/svg">
    <g clip-path="url(#siw6xgkc0a)">
        <path fill="#000" fill-opacity=".01" d="M0 0h40v40H0z"/>
        <rect width="40" height="40" rx="8" fill="#11CDE9"/>
        <path d="M16.999 20a3 3 0 1 1 5.999-.001 3 3 0 0 1-6 .001zm-1.622 0a4.62 4.62 0 1 0 4.62-4.621A4.62 4.62 0 0 0 15.377 20zm8.344-4.805a1.08 1.08 0 1 0 1.08-1.08 1.08 1.08 0 0 0-1.08 1.08zm-7.358 12.13c-.878-.04-1.354-.185-1.671-.309a2.797 2.797 0 0 1-1.035-.673 2.777 2.777 0 0 1-.673-1.035c-.124-.316-.27-.793-.31-1.67-.043-.95-.052-1.235-.052-3.638 0-2.403.01-2.688.052-3.637.04-.877.187-1.354.31-1.671.163-.42.358-.72.673-1.036.314-.315.614-.51 1.035-.673.316-.123.793-.27 1.67-.31.949-.043 1.234-.052 3.636-.052 2.401 0 2.686.01 3.636.053.877.04 1.353.187 1.67.31.42.162.72.358 1.035.672.316.315.51.615.673 1.036.124.316.27.793.31 1.671.044.95.052 1.234.052 3.637 0 2.404-.008 2.688-.052 3.637-.04.878-.187 1.354-.31 1.671-.163.42-.358.72-.673 1.035-.314.314-.614.51-1.035.673-.316.124-.793.27-1.67.31-.949.043-1.234.052-3.637.052-2.402 0-2.686-.009-3.634-.052zm-.075-16.27c-.958.043-1.612.195-2.184.418a4.414 4.414 0 0 0-1.594 1.038c-.5.5-.808 1.002-1.038 1.594-.222.572-.374 1.226-.417 2.184C11.01 17.25 11 17.556 11 20s.01 2.75.055 3.71c.043.959.195 1.613.417 2.185.23.592.538 1.095 1.038 1.594.5.5 1.002.808 1.594 1.038.573.223 1.226.375 2.184.418.96.044 1.266.055 3.71.055 2.443 0 2.75-.01 3.709-.055.958-.043 1.612-.195 2.184-.418a4.424 4.424 0 0 0 1.594-1.038c.5-.5.807-1.002 1.038-1.594.222-.572.375-1.226.418-2.184.043-.96.053-1.267.053-3.711s-.01-2.75-.053-3.71c-.044-.959-.196-1.613-.418-2.185a4.426 4.426 0 0 0-1.038-1.594c-.5-.501-1.002-.809-1.593-1.038-.573-.223-1.227-.376-2.184-.418-.96-.044-1.266-.055-3.71-.055-2.443 0-2.75.01-3.71.055z" fill="#13151F"/>
    </g>
    <defs>
        <clipPath id="siw6xgkc0a">
            <path fill="#fff" d="M0 0h40v40H0z"/>
        </clipPath>
    </defs>
</svg>
