<svg width="40" height="40" viewBox="0 0 40 40" fill="none" xmlns="http://www.w3.org/2000/svg">
<g clip-path="url(#clip0_1125_7587)">
<rect width="40" height="40" fill="black" fill-opacity="0.01"/>
<rect width="40" height="40" rx="8" fill="#11CDE9"/>
<path d="M21.7145 18.6226L28.4161 11H26.8282L21.0066 17.6172L16.3602 11H11L18.0278 21.0073L11 29H12.5879L18.7319 22.0104L23.6398 29H29L21.7145 18.6226ZM19.539 21.0951L18.8258 20.098L13.1605 12.1713H15.5998L20.1732 18.5708L20.8834 19.5679L26.8275 27.8857H24.3882L19.539 21.0951Z" fill="#0F1419"/>
<g clip-path="url(#clip1_1125_7587)">
<rect width="40" height="40" fill="black" fill-opacity="0.01"/>
<rect width="40" height="40" rx="8" fill="#11CDE9"/>
<path d="M21.4287 18.8521L27.0134 12.5H25.6902L20.8388 18.0143L16.9669 12.5H12.5L18.3565 20.8394L12.5 27.5H13.8232L18.9432 21.6753L23.0331 27.5H27.5L21.4287 18.8521ZM19.6158 20.9126L19.0215 20.0817L14.3004 13.4761H16.3331L20.1443 18.809L20.7361 19.6399L25.6896 26.5715H23.6568L19.6158 20.9126Z" fill="#0F1419"/>
</g>
</g>
<defs>
<clipPath id="clip0_1125_7587">
<rect width="40" height="40" fill="white"/>
</clipPath>
<clipPath id="clip1_1125_7587">
<rect width="40" height="40" fill="white"/>
</clipPath>
</defs>
</svg>
