<svg width="40" height="41" viewBox="0 0 40 41" fill="none" xmlns="http://www.w3.org/2000/svg">
    <g clip-path="url(#lgc1dgmuba)">
        <path fill="#000" fill-opacity=".01" d="M0 .667h40v40H0z"/>
        <rect y=".667" width="40" height="40" rx="8" fill="#11CDE9"/>
        <path d="M27.303 14.004a17.32 17.32 0 0 0-4.34-1.337c-.191.329-.403.774-.552 1.124a16.598 16.598 0 0 0-4.809 0c-.148-.35-.37-.795-.551-1.124a17.077 17.077 0 0 0-4.342 1.337c-2.748 4.054-3.491 8.012-3.12 11.918a17.69 17.69 0 0 0 5.318 2.663c.425-.573.807-1.188 1.136-1.836-.627-.233-1.22-.52-1.794-.86.149-.105.297-.222.435-.339 3.46 1.581 7.207 1.581 10.624 0 .149.117.287.234.435.34-.573.34-1.167.626-1.793.86a12.94 12.94 0 0 0 1.135 1.835 17.594 17.594 0 0 0 5.318-2.663c.457-4.521-.722-8.448-3.1-11.918zM16.52 23.512c-1.04 0-1.889-.944-1.889-2.1 0-1.157.828-2.102 1.89-2.102 1.05 0 1.91.945 1.888 2.101 0 1.157-.838 2.101-1.889 2.101zm6.974 0c-1.04 0-1.89-.944-1.89-2.1 0-1.157.828-2.102 1.89-2.102 1.05 0 1.91.945 1.889 2.101 0 1.157-.828 2.101-1.89 2.101z" fill="#13151F"/>
    </g>
    <defs>
        <clipPath id="lgc1dgmuba">
            <path fill="#fff" transform="translate(0 .667)" d="M0 0h40v40H0z"/>
        </clipPath>
    </defs>
</svg>
