<svg width="40" height="40" viewBox="0 0 40 40" fill="none" xmlns="http://www.w3.org/2000/svg">
    <g clip-path="url(#cejbjdo8wa)">
        <path fill="#000" fill-opacity=".01" d="M0 0h40v40H0z"/>
        <rect width="40" height="40" rx="8" fill="#11CDE9"/>
        <path d="M30 19.94a2.164 2.164 0 0 1-1.216 1.979 4.039 4.039 0 0 1 0 .655c0 3.333-3.92 6.042-8.754 6.042s-8.753-2.709-8.753-6.042a4.039 4.039 0 0 1 0-.655 2.191 2.191 0 0 1-1.195-1.387 2.154 2.154 0 0 1 .292-1.802 2.183 2.183 0 0 1 1.574-.945 2.213 2.213 0 0 1 1.746.577 10.788 10.788 0 0 1 5.856-1.83l1.11-5.164a.457.457 0 0 1 .203-.294.476.476 0 0 1 .353-.063l3.679.729a1.508 1.508 0 0 1 1.838-.64c.688.264 1.082.984.928 1.699a1.499 1.499 0 0 1-1.545 1.176 1.496 1.496 0 0 1-1.416-1.327l-3.213-.67-.976 4.643a10.754 10.754 0 0 1 5.78 1.83 2.21 2.21 0 0 1 2.34-.447c.393.158.73.425.973.768s.38.749.396 1.168zm-14.9 2.057a1.49 1.49 0 0 0 .812.806 1.503 1.503 0 0 0 1.962-.806 1.479 1.479 0 0 0-.325-1.621 1.511 1.511 0 0 0-1.637-.323 1.489 1.489 0 0 0-.812 1.944zm8.599 3.573a.4.4 0 0 0-.278-.69.494.494 0 0 0-.298.105 4.927 4.927 0 0 1-2.306.882c-.276.032-.554.04-.832.025a4.95 4.95 0 0 1-3.123-.937.408.408 0 0 0-.662.29.4.4 0 0 0 .092.275 5.773 5.773 0 0 0 2.72 1.103c.328.042.658.056.988.043a5.813 5.813 0 0 0 3.709-1.146l-.01.05zm-.276-2.535a1.515 1.515 0 0 0 1.094-.451 1.486 1.486 0 0 0 .423-1.097c0-.602-.366-1.144-.927-1.375a1.511 1.511 0 0 0-1.636.323 1.479 1.479 0 0 0-.326 1.622c.233.556.78.919 1.388.919l-.015.059z" fill="#13151F"/>
    </g>
    <defs>
        <clipPath id="cejbjdo8wa">
            <path fill="#fff" d="M0 0h40v40H0z"/>
        </clipPath>
    </defs>
</svg>
