<svg width="40" height="40" viewBox="0 0 40 40" fill="none" xmlns="http://www.w3.org/2000/svg">
    <g clip-path="url(#0q2djs8p0a)">
        <path fill="#000" fill-opacity=".01" d="M0 0h40v40H0z"/>
        <rect width="40" height="40" rx="8" fill="#11CDE9"/>
        <path d="M21.157 19.986c0 2.752-2.269 4.987-5.079 4.987-2.81 0-5.078-2.235-5.078-4.986C11 17.235 13.268 15 16.078 15c2.81 0 5.079 2.235 5.079 4.986zm5.563 0c0 2.587-1.14 4.69-2.539 4.69-1.4 0-2.539-2.103-2.539-4.69 0-2.586 1.14-4.689 2.54-4.689 1.399 0 2.538 2.092 2.538 4.69zm2.28 0c0 2.323-.395 4.206-.892 4.206-.496 0-.891-1.883-.891-4.206 0-2.322.395-4.205.892-4.205.496 0 .891 1.883.891 4.205z" fill="#13151F"/>
    </g>
    <defs>
        <clipPath id="0q2djs8p0a">
            <path fill="#fff" d="M0 0h40v40H0z"/>
        </clipPath>
    </defs>
</svg>
