<svg width="35" height="35" viewBox="0 0 35 35" fill="none" xmlns="http://www.w3.org/2000/svg">
    <g clip-path="url(#q0gzi3gdka)">
        <path fill="#000" fill-opacity=".01" d="M0 0h35v35H0z"/>
        <circle cx="17.5" cy="17.5" r="17.5" fill="#34363D"/>
        <g clip-path="url(#bvt6ysrkeb)">
            <path d="m17.046 8-.132.456V21.68l.132.134 6.045-3.628L17.046 8z" fill="#343434"/>
            <path d="M17.045 8 11 18.186l6.045 3.628V8z" fill="#8C8C8C"/>
            <path d="m17.043 22.976-.074.092v4.711l.074.22 6.049-8.65-6.049 3.627z" fill="#3C3C3B"/>
            <path d="M17.045 28v-5.024L11 19.35 17.045 28z" fill="#8C8C8C"/>
            <path d="m17.047 21.813 6.044-3.628-6.044-2.79v6.418z" fill="#141414"/>
            <path d="m11 18.185 6.045 3.628v-6.418L11 18.184z" fill="#393939"/>
        </g>
    </g>
    <defs>
        <clipPath id="q0gzi3gdka">
            <path fill="#fff" d="M0 0h35v35H0z"/>
        </clipPath>
        <clipPath id="bvt6ysrkeb">
            <path fill="#fff" transform="translate(11 8)" d="M0 0h12.093v20H0z"/>
        </clipPath>
    </defs>
</svg>
