<svg width="46" height="46" viewBox="0 0 46 46" xmlns="http://www.w3.org/2000/svg">
    <path d="M34.395.136c6.312 0 11.429 5.117 11.429 11.429v22.857c0 6.312-5.117 11.428-11.429 11.428H11.538C5.226 45.85.11 40.734.11 34.422V11.565C.11 5.253 5.226.136 11.538.136h22.857zM24.872 13.5h-9.526l-.118.007a.958.958 0 0 0-.822.8l-.01.138v17.158l.007.116c.052.421.38.756.798.818l.14.01h15.251l.126-.009a.952.952 0 0 0 .81-.8l.01-.15V20.165h-5.714l-.118-.007a.953.953 0 0 1-.824-.804l-.01-.14v-5.715zm1.904 12.38v1.906h-7.619V25.88h7.62zm0-3.809v1.905h-7.619V22.07h7.62zm-4.762-3.81v1.905h-2.857v-1.904h2.857zm4.762-4.758v4.759h4.762l-4.762-4.76z" fill="#F5E1D6" fill-rule="nonzero"/>
</svg>
