<svg width="40" height="41" viewBox="0 0 40 41" fill="none" xmlns="http://www.w3.org/2000/svg">
    <g clip-path="url(#6rux2bsi2a)">
        <path fill="#000" fill-opacity=".01" d="M0 .667h40v40H0z"/>
        <rect y=".667" width="40" height="40" rx="8" fill="#11CDE9"/>
        <g clip-path="url(#97aqsm21rb)">
            <path d="M28.5 15.621a7.45 7.45 0 0 1-2.089.565 3.601 3.601 0 0 0 1.6-1.98 7.301 7.301 0 0 1-2.31.869 3.662 3.662 0 0 0-2.656-1.134c-2.01 0-3.636 1.603-3.636 3.579-.002.274.03.549.094.816a10.368 10.368 0 0 1-7.497-3.741 3.535 3.535 0 0 0-.495 1.798 3.57 3.57 0 0 0 1.625 2.98 3.6 3.6 0 0 1-1.654-.446v.044c0 1.736 1.256 3.18 2.918 3.509a3.72 3.72 0 0 1-.958.125c-.23 0-.459-.022-.684-.066.462 1.421 1.807 2.456 3.4 2.485a7.371 7.371 0 0 1-5.386 1.481 10.292 10.292 0 0 0 5.568 1.618c6.698 0 10.357-5.455 10.357-10.186 0-.155-.004-.31-.012-.462a7.33 7.33 0 0 0 1.815-1.854z" fill="#13151F"/>
        </g>
    </g>
    <defs>
        <clipPath id="6rux2bsi2a">
            <path fill="#fff" transform="translate(0 .667)" d="M0 0h40v40H0z"/>
        </clipPath>
        <clipPath id="97aqsm21rb">
            <path fill="#fff" transform="translate(10.183 11.576)" d="M0 0h18.909v18.909H0z"/>
        </clipPath>
    </defs>
</svg>
