<svg width="33" height="33" viewBox="0 0 33 33" xmlns="http://www.w3.org/2000/svg">
    <g fill="none" fill-rule="evenodd">
        <path d="M-5.994-5.63h44v44h-44z"/>
        <path d="M23.006.37a9 9 0 0 1 9 9v14a9 9 0 0 1-9 9h-14a9 9 0 0 1-9-9v-14a9 9 0 0 1 9-9h14zm-5.084 8.183a4.182 4.182 0 0 0-2.098 4.646 11.874 11.874 0 0 1-8.62-4.37 4.168 4.168 0 0 0-.566 2.103c0 1.45.738 2.73 1.86 3.48a4.168 4.168 0 0 1-1.894-.522v.052a4.185 4.185 0 0 0 3.355 4.1 4.21 4.21 0 0 1-1.89.073 4.185 4.185 0 0 0 3.907 2.905 8.394 8.394 0 0 1-6.19 1.732 11.83 11.83 0 0 0 6.41 1.88c7.692 0 11.9-6.373 11.9-11.9 0-.18-.006-.362-.014-.54a8.496 8.496 0 0 0 2.087-2.165 8.43 8.43 0 0 1-2.403.657 4.196 4.196 0 0 0 1.84-2.314c-.82.488-1.719.83-2.656 1.015a4.182 4.182 0 0 0-5.028-.832z" fill="#FFF" fill-rule="nonzero"/>
    </g>
</svg>
