<svg width="46" height="46" viewBox="0 0 46 46" xmlns="http://www.w3.org/2000/svg">
    <path d="M34.395.165c6.312 0 11.429 5.117 11.429 11.429v22.857c0 6.312-5.117 11.429-11.429 11.429H11.538C5.226 45.88.11 40.763.11 34.45V11.594C.11 5.282 5.226.165 11.538.165h22.857zm-9.604 15.413a3.983 3.983 0 0 0-1.998 4.425 11.309 11.309 0 0 1-8.21-4.162 3.97 3.97 0 0 0-.538 2.003c0 1.38.703 2.6 1.771 3.315a3.97 3.97 0 0 1-1.804-.498v.05a3.986 3.986 0 0 0 3.196 3.905 4.01 4.01 0 0 1-1.8.069 3.986 3.986 0 0 0 3.72 2.766 7.994 7.994 0 0 1-5.896 1.65 11.267 11.267 0 0 0 6.105 1.79c7.327 0 11.334-6.07 11.334-11.333 0-.172-.005-.345-.013-.514a8.091 8.091 0 0 0 1.75-1.726l.237-.337a7.985 7.985 0 0 1-2.288.626 3.996 3.996 0 0 0 1.753-2.203 7.96 7.96 0 0 1-2.53.966 3.983 3.983 0 0 0-4.79-.792z" fill="#F5E1D6" fill-rule="evenodd"/>
</svg>
