<svg width="46" height="46" viewBox="0 0 46 46" xmlns="http://www.w3.org/2000/svg">
    <path d="M11.538.136h22.857c6.312 0 11.429 5.117 11.429 11.429v22.857c0 6.312-5.117 11.428-11.429 11.428H11.538C5.226 45.85.11 40.734.11 34.422V11.565C.11 5.253 5.226.136 11.538.136zm13.263 15.29-.906-.015-1.609-.003-1.152.019-1.076.03-.765.03-.772.04-.749.05c-.85.065-1.6.155-2.048.28-.896.25-1.604.988-1.846 1.926-.15.583-.248 1.386-.312 2.187l-.048.682-.033.65-.034 1.084-.007.503.007.77.034 1.084.033.65.048.682c.064.801.162 1.604.312 2.188.24.935.946 1.672 1.846 1.925.448.125 1.197.215 2.048.28l.75.051.77.04.766.03 1.076.03 1.684.022 1.354-.01 1.333-.03 1.137-.042.771-.04.75-.05c.85-.066 1.6-.156 2.047-.28.896-.25 1.603-.988 1.845-1.926.15-.584.248-1.387.313-2.188l.047-.681.033-.65.035-1.085.007-.503-.007-.77-.035-1.084-.033-.65-.047-.682c-.065-.801-.163-1.604-.313-2.187-.239-.936-.945-1.673-1.845-1.926-.448-.125-1.197-.215-2.047-.28l-.75-.05-.77-.04-.766-.03-1.076-.03zm-3.739 4.263 5.714 3.334-5.714 3.333v-6.667z" fill="#F5E1D6" fill-rule="nonzero"/>
</svg>
