<svg width="40" height="41" viewBox="0 0 40 41" fill="none" xmlns="http://www.w3.org/2000/svg">
    <g clip-path="url(#6vj2gkk9ba)">
        <path fill="#000" fill-opacity=".01" d="M0 .667h40v40H0z"/>
        <rect y=".667" width="40" height="40" rx="8" fill="#11CDE9"/>
        <g clip-path="url(#n78sje8pvb)">
            <path fill-rule="evenodd" clip-rule="evenodd" d="M20 12.667c.855 0 1.732.022 2.582.058l1.004.048.961.057.9.06.822.065a3.802 3.802 0 0 1 3.494 3.423l.04.425.075.91c.07.943.122 1.97.122 2.954 0 .983-.052 2.01-.122 2.954l-.075.91c-.013.146-.026.287-.04.425a3.802 3.802 0 0 1-3.495 3.423l-.82.063-.9.062-.962.057-1.004.048c-.86.037-1.721.056-2.582.058a61.752 61.752 0 0 1-2.582-.058l-1.004-.048-.961-.057-.9-.062-.822-.063a3.802 3.802 0 0 1-3.494-3.423l-.04-.425-.075-.91A40.617 40.617 0 0 1 10 20.667c0-.983.052-2.011.122-2.954l.075-.91c.013-.146.026-.287.04-.425a3.802 3.802 0 0 1 3.493-3.423l.821-.064.9-.061.962-.057 1.004-.048c.86-.038 1.722-.057 2.583-.058zm-2 5.575v4.85c0 .462.5.75.9.52l4.2-2.425a.6.6 0 0 0 0-1.04l-4.2-2.424a.6.6 0 0 0-.9.52v-.001z" fill="#13151F"/>
        </g>
    </g>
    <defs>
        <clipPath id="6vj2gkk9ba">
            <path fill="#fff" transform="translate(0 .667)" d="M0 0h40v40H0z"/>
        </clipPath>
        <clipPath id="n78sje8pvb">
            <path fill="#fff" transform="translate(8 8.667)" d="M0 0h24v24H0z"/>
        </clipPath>
    </defs>
</svg>
