<svg width="510" height="499" viewBox="0 0 510 499" fill="none" xmlns="http://www.w3.org/2000/svg">
<path d="M97.3 0H288V2.19995H97.3V0Z" fill="#FAD54D"/>
<path d="M0 89.5H2.20001V150.9L8.5 160.5V185.5L2.20001 196V234.4H0V89.5Z" fill="#FAD54D"/>
<path d="M2.20001 249.2H0V286.6H2.20001V249.2Z" fill="#FAD54D"/>
<path fill-rule="evenodd" clip-rule="evenodd" d="M64 0L68.6 4.6001H21.6L4.59998 21.7V53.5L0 58.1001V0H64ZM4.5 15.1001V18.5L18.5 4.6001H15.1L4.5 15.1001Z" fill="#FAD54D"/>
<path d="M67.9 0L72.5 4.6001H79.6L75.1 0H67.9Z" fill="#FAD54D"/>
<path d="M0 63.5L4.5 58.8999V66L0 70.5999V63.5Z" fill="#FAD54D"/>
<path d="M0 82.3L4.5 77.7002V70.6001L0 75.2002V82.3Z" fill="#FAD54D"/>
<path d="M84.2 4.6001L79.6 0H86.8L91.3 4.6001H84.2Z" fill="#FAD54D"/>
<path d="M0.0999756 412.1H2.29999V403.4L6.29999 409.2V441.6H10.3V408L2.29999 396.4V300.4H0.0999756V412.1Z" fill="#FAD54D"/>
<path d="M30.9 492.7H63.5L71.1 499H0V441.6L6.29999 449.2V467.6L8.59998 470.4V483.3L12.6 486.5V475.2L14.9 478.1V487.3L19.3 490.7H29.3L30.9 492.7Z" fill="#FAD54D"/>
<path d="M446.5 6.30005H479.1L480.7 8.30005H490.7L495.1 11.7002V20.9001L497.4 23.8V12.5L501.4 15.7002V28.6001L503.7 31.4001V49.8L510 57.4001V0H438.9L446.5 6.30005Z" fill="#FAD54D"/>
<path d="M507.7 86.9001H509.9V203.6H507.7V102.6L499.7 91V57.4001H503.7V89.8L507.7 95.6001V86.9001Z" fill="#FAD54D"/>
<path d="M507.8 254.8H510V217.4H507.8V254.8Z" fill="#FAD54D"/>
<path d="M507.8 409.5H510V269.6H507.8V308L501.5 318.5V343.5L507.8 353.1V409.5Z" fill="#FAD54D"/>
<path d="M412.7 499H222V496.8H412.7V499Z" fill="#FAD54D"/>
<path fill-rule="evenodd" clip-rule="evenodd" d="M441.4 494.4L446 499H510V440.9L505.4 445.5V477.3L488.4 494.4H441.4ZM505.5 480.5V483.9L494.9 494.4H491.5L505.5 480.5Z" fill="#FAD54D"/>
<path d="M505.5 440.1L510 435.5V428.4L505.5 433V440.1Z" fill="#FAD54D"/>
<path d="M510 416.7L505.5 421.3V428.4L510 423.8V416.7Z" fill="#FAD54D"/>
<path d="M417 499L421.6 494.4H428.7L424.2 499H417Z" fill="#FAD54D"/>
<path d="M432.4 494.4L427.9 499H435L439.6 494.4H432.4Z" fill="#FAD54D"/>
</svg>
