<svg width="20" height="20" viewBox="0 0 20 20" fill="none" xmlns="http://www.w3.org/2000/svg">
<g clip-path="url(#clip0_2109_77583)">
<path d="M15.8334 7.50011H11.6667C10.562 7.50143 9.50299 7.94084 8.72187 8.72196C7.94076 9.50307 7.50134 10.5621 7.50002 11.6668V15.8334C7.50134 16.9381 7.94076 17.9971 8.72187 18.7783C9.50299 19.5594 10.562 19.9988 11.6667 20.0001H15.8334C16.938 19.9988 17.9971 19.5594 18.7782 18.7783C19.5593 17.9971 19.9987 16.9381 20 15.8334V11.6668C19.9987 10.5621 19.5593 9.50307 18.7782 8.72196C17.9971 7.94084 16.938 7.50143 15.8334 7.50011ZM11.6667 12.5001C11.5019 12.5001 11.3408 12.4512 11.2037 12.3597C11.0667 12.2681 10.9599 12.1379 10.8968 11.9857C10.8337 11.8334 10.8172 11.6658 10.8494 11.5042C10.8815 11.3425 10.9609 11.1941 11.0774 11.0775C11.194 10.961 11.3425 10.8816 11.5041 10.8495C11.6658 10.8173 11.8333 10.8338 11.9856 10.8969C12.1379 10.9599 12.268 11.0668 12.3596 11.2038C12.4511 11.3408 12.5 11.502 12.5 11.6668C12.5 11.8878 12.4122 12.0997 12.2559 12.256C12.0997 12.4123 11.8877 12.5001 11.6667 12.5001ZM15.8334 16.6668C15.6685 16.6668 15.5074 16.6179 15.3704 16.5263C15.2333 16.4348 15.1265 16.3046 15.0635 16.1523C15.0004 16.0001 14.9839 15.8325 15.016 15.6709C15.0482 15.5092 15.1276 15.3607 15.2441 15.2442C15.3606 15.1276 15.5091 15.0483 15.6708 15.0161C15.8324 14.984 16 15.0005 16.1523 15.0635C16.3045 15.1266 16.4347 15.2334 16.5262 15.3705C16.6178 15.5075 16.6667 15.6686 16.6667 15.8334C16.6667 16.0545 16.5789 16.2664 16.4226 16.4227C16.2663 16.579 16.0544 16.6668 15.8334 16.6668ZM13 4.16677L10.0575 1.21844C9.27554 0.438786 8.21635 0.000976563 7.1121 0.000976562C6.00786 0.000976563 4.94867 0.438786 4.16669 1.21844L1.21835 4.16677C0.438193 4.94882 6.10352e-05 6.00837 6.10352e-05 7.11302C6.10352e-05 8.21767 0.438193 9.27723 1.21835 10.0593L4.16669 13.0001C4.63285 13.4681 5.20436 13.8176 5.83335 14.0193V11.6668C5.83512 10.1202 6.45027 8.63751 7.54385 7.54393C8.63743 6.45035 10.1201 5.8352 11.6667 5.83344H14.0225C13.8199 5.20412 13.4692 4.63257 13 4.16677ZM4.16669 8.33344C4.00187 8.33344 3.84075 8.28457 3.70371 8.193C3.56667 8.10143 3.45986 7.97128 3.39679 7.81901C3.33371 7.66674 3.31721 7.49918 3.34937 7.33753C3.38152 7.17588 3.46089 7.02739 3.57743 6.91085C3.69398 6.79431 3.84246 6.71494 4.00411 6.68278C4.16576 6.65063 4.33332 6.66713 4.48559 6.73021C4.63786 6.79328 4.76801 6.90009 4.85958 7.03713C4.95115 7.17417 5.00002 7.33529 5.00002 7.50011C5.00002 7.72112 4.91222 7.93308 4.75594 8.08936C4.59966 8.24564 4.3877 8.33344 4.16669 8.33344ZM7.50002 5.00011C7.3352 5.00011 7.17409 4.95123 7.03705 4.85966C6.9 4.7681 6.79319 4.63795 6.73012 4.48568C6.66705 4.3334 6.65055 4.16585 6.6827 4.0042C6.71485 3.84255 6.79422 3.69406 6.91077 3.57752C7.02731 3.46097 7.1758 3.38161 7.33745 3.34945C7.4991 3.3173 7.66665 3.3338 7.81892 3.39687C7.9712 3.45995 8.10134 3.56676 8.19291 3.7038C8.28448 3.84084 8.33335 4.00195 8.33335 4.16677C8.33335 4.38779 8.24556 4.59975 8.08928 4.75603C7.933 4.91231 7.72103 5.00011 7.50002 5.00011Z" fill="#FAD54D"/>
</g>
<defs>
<clipPath id="clip0_2109_77583">
<rect width="20" height="20" fill="white"/>
</clipPath>
</defs>
</svg>
