<svg width="160" height="160" viewBox="0 0 160 160" fill="none" xmlns="http://www.w3.org/2000/svg">
    <g clip-path="url(#fz3n3jwvra)">
        <path fill="#000" fill-opacity=".01" d="M0 0h160v160H0z"/>
        <path d="M125.653 74.196h-.571V52.791c0-4.34-3.531-7.871-7.871-7.871h-10.864l-30.31-30.31c-3.953-3.959-10.394-3.962-14.347 0L37.451 38.847c-1.725 1.725-2.707 3.975-2.895 6.383-3.4.587-6.56 2.142-9.011 4.592-3.139 3.143-4.838 7.368-4.878 11.753-.003.05-.028.091-.028.142v71.933c0 8.12 6.604 14.724 14.723 14.724h3.506c.005 0 .008.003.014.003.005 0 .008-.003.013-.003h86.759c7.489 0 13.584-6.092 13.584-13.582V87.778c0-7.489-6.094-13.581-13.583-13.581h-.002zm-8.443-24.958a3.558 3.558 0 0 1 3.553 3.553v21.405h-8.658l4.588-4.585c3.952-3.958 3.952-10.393 0-14.346l-6.027-6.027h6.544zM64.743 17.66c2.192-2.199 6.035-2.204 8.24 0L113.64 58.32a5.834 5.834 0 0 1 0 8.24l-7.642 7.638h-16.94L48.63 33.772 64.743 17.66zM40.503 41.9l5.075-5.074 37.373 37.37H64.559L40.503 50.14a5.832 5.832 0 0 1 0-8.24zM28.599 52.875c1.778-1.778 4.063-2.922 6.524-3.382.5 1.37 1.266 2.638 2.328 3.7l21.004 21.004h-20.47c-6.27 0-11.644-4.203-12.783-9.992-.818-4.15.453-8.384 3.397-11.33zm97.054 91.183H41.041v-28.72a2.16 2.16 0 0 0-4.32 0v28.72h-1.36c-5.737 0-10.404-4.667-10.404-10.404v-60.8c3.003 3.274 7.321 5.332 12.085 5.582.133.025.255.08.395.08h88.216c5.108 0 9.265 4.155 9.265 9.263v6.284h-15.96c-9.502 0-17.23 7.728-17.23 17.23s7.728 17.231 17.23 17.231h15.96v6.272c0 5.107-4.158 9.262-9.265 9.262h-.001zm9.26-45.68v25.825h-15.955c-7.121 0-12.912-5.792-12.912-12.912 0-7.121 5.792-12.912 12.912-12.912l15.955-.001z" fill="#FAD54D"/>
        <path d="M38.88 96.04a2.16 2.16 0 0 0-2.159 2.159v8.152a2.16 2.16 0 0 0 4.319 0v-8.152a2.16 2.16 0 0 0-2.16-2.16zM113.32 111.312c0 3.93 3.199 7.129 7.13 7.129 3.961 0 7.186-3.199 7.186-7.129 0-3.962-3.225-7.186-7.186-7.186-3.931.001-7.13 3.224-7.13 7.186zm7.13-2.867a2.836 2.836 0 0 1 2.867 2.867c0 1.548-1.288 2.811-2.867 2.811a2.816 2.816 0 0 1-2.812-2.811c0-1.58 1.262-2.867 2.812-2.867zM61.937 38.687a8.504 8.504 0 0 0 4.956 2.404c.243 1.841 1.043 3.594 2.395 4.944a8.484 8.484 0 0 0 6.042 2.508c2.28 0 4.427-.89 6.042-2.508 3.331-3.33 3.331-8.751 0-12.082-1.356-1.356-3.112-2.159-4.959-2.4-.234-1.84-1.033-3.594-2.393-4.953-3.33-3.334-8.755-3.334-12.083 0-3.331 3.332-3.331 8.755 0 12.086zm16.381 4.295c-1.602 1.603-4.374 1.603-5.977 0a4.24 4.24 0 0 1-1.203-2.398c.091-.036.17-.097.261-.136.345-.15.676-.322.998-.518.133-.081.268-.155.397-.244.432-.296.847-.62 1.226-1a8.63 8.63 0 0 0 .999-1.222c.088-.129.163-.262.244-.394a8.37 8.37 0 0 0 .537-1.035c.034-.08.089-.152.12-.232.891.13 1.737.544 2.398 1.203a4.23 4.23 0 0 1 0 5.976zM64.99 29.654a4.214 4.214 0 0 1 2.989-1.236c1.082 0 2.165.412 2.989 1.236a4.166 4.166 0 0 1 1.166 3.706 4.05 4.05 0 0 1-1.166 2.275 4.094 4.094 0 0 1-2.326 1.172c-1.319.24-2.679-.2-3.651-1.172a4.236 4.236 0 0 1 0-5.98zM97.335 69.79a2.155 2.155 0 0 0 3.053 0 2.16 2.16 0 0 0 0-3.054L89.519 55.865a2.16 2.16 0 0 0-3.053 3.053l10.87 10.872zM104.047 63.086a2.15 2.15 0 0 0 1.526.632 2.16 2.16 0 0 0 1.526-3.686L96.231 49.161a2.159 2.159 0 1 0-3.054 3.053l10.87 10.872z" fill="#FAD54D"/>
        <path fill="#000" fill-opacity=".01" d="M0 0h160v160H0z"/>
    </g>
    <defs>
        <clipPath id="fz3n3jwvra">
            <path fill="#fff" d="M0 0h160v160H0z"/>
        </clipPath>
    </defs>
</svg>
