<svg width="148" height="141" viewBox="0 0 148 141" fill="none" xmlns="http://www.w3.org/2000/svg">
<g filter="url(#filter0_d_2113_79876)">
<path fill-rule="evenodd" clip-rule="evenodd" d="M72.4119 50.3497V44.1944C68.8497 44.0111 66.1519 43.3039 66.1519 42.4657C66.1519 41.6014 68.8235 40.8942 72.4119 40.737V38.825H68.0115V35.8914H80.0077V38.825H75.6073V40.737C79.1957 40.9204 81.8674 41.6276 81.8674 42.4657C81.8674 43.3301 79.1695 44.0373 75.6073 44.1944V50.3497H72.4119ZM72.4119 43.1205V40.9728C69.2688 41.1037 66.9114 41.6538 66.9114 42.3086C66.9114 42.9634 69.2688 43.5134 72.4381 43.6444C72.6476 43.6444 73.2238 43.6706 74.0358 43.6706C74.8355 43.6706 75.2981 43.6545 75.499 43.6476L75.5583 43.6455C75.5812 43.6448 75.5974 43.6444 75.6073 43.6444C78.7504 43.5134 81.1078 42.9634 81.1078 42.3086C81.1078 41.6538 78.7504 41.1037 75.6073 40.9728V43.1205C75.5814 43.1205 75.5315 43.1237 75.4562 43.1286C75.2274 43.1433 74.7651 43.1729 74.0358 43.1729C73.2238 43.1729 72.6214 43.1467 72.4119 43.1205Z" fill="#FAD54D"/>
<path fill-rule="evenodd" clip-rule="evenodd" d="M74.0096 62.2411C84.5652 62.2411 93.1301 53.6761 93.1301 43.1205C93.1301 32.5649 84.5652 24 74.0096 24C63.454 24 54.8891 32.5649 54.8891 43.1205C54.8891 53.6761 63.454 62.2411 74.0096 62.2411ZM74.0096 29.7624C81.3697 29.7624 87.3678 35.7343 87.3678 43.1205C87.3678 50.4806 81.3959 56.4787 74.0096 56.4787C66.6233 56.4787 60.6514 50.5068 60.6514 43.1205C60.6514 35.7343 66.6233 29.7624 74.0096 29.7624Z" fill="#FAD54D"/>
<path d="M111.36 44.404C111.36 39.0345 107.012 34.6865 101.643 34.6865C99.3378 34.6865 97.2423 35.4985 95.5398 36.8081C95.0946 35.2628 94.4921 33.796 93.7325 32.4078C95.9851 30.9148 98.7091 30.0505 101.616 30.0505C109.553 30.0505 115.97 36.4676 115.97 44.404C115.97 52.3403 109.553 58.7575 101.616 58.7575C98.2377 58.7575 95.1208 57.5788 92.6587 55.6144C93.5492 54.3047 94.2826 52.8903 94.885 51.3974C96.6399 53.0737 99.0234 54.1214 101.643 54.1214C107.012 54.1214 111.36 49.7734 111.36 44.404Z" fill="#FAD54D"/>
<path d="M55.3343 55.6144C52.8984 57.5788 49.7815 58.7575 46.3765 58.7575C38.4402 58.7575 32.023 52.3665 32.023 44.4302C32.023 36.4938 38.4402 30.0767 46.3765 30.0767C49.2839 30.0767 52.0079 30.941 54.2604 32.434C53.5008 33.8222 52.8984 35.289 52.4531 36.8343C50.7768 35.4985 48.6814 34.6865 46.3765 34.6865C41.007 34.6865 36.6591 39.0345 36.6591 44.4039C36.6591 49.7734 41.007 54.1214 46.3765 54.1214C48.9957 54.1214 51.3793 53.0737 53.108 51.3974C53.7104 52.8903 54.4438 54.3047 55.3343 55.6144Z" fill="#FAD54D"/>
<path d="M60.5466 88.4074C61.0967 88.4074 61.28 88.5384 61.28 89.1146C61.2538 93.2268 61.2538 97.339 61.28 101.477C61.28 102.054 61.0967 102.185 60.5466 102.185C58.4774 102.158 56.382 102.132 54.2866 102.185C53.6056 102.185 53.3699 102.028 53.3961 101.32C53.4354 99.8068 53.4305 98.2785 53.4255 96.7576C53.4247 96.5012 53.4239 96.245 53.4233 95.9891C53.4227 95.7403 53.4223 95.4918 53.4223 95.2436C53.4223 94.7461 53.4239 94.2485 53.4255 93.7509V93.7493C53.4304 92.2568 53.4354 90.7643 53.3961 89.2717C53.3961 88.5646 53.6056 88.3812 54.2866 88.4074C56.3558 88.4336 58.4512 88.4336 60.5466 88.4074Z" fill="#FAD54D"/>
<path d="M75.534 88.4369C77.0514 88.4417 78.5762 88.4467 80.0863 88.4074C80.7411 88.4074 80.8982 88.617 80.8982 89.2456C80.872 93.3054 80.872 97.339 80.8982 101.399C80.8982 101.975 80.7673 102.185 80.1386 102.185C76.0788 102.158 71.9928 102.158 67.9067 102.185C67.2781 102.185 67.1471 101.975 67.1471 101.399C67.1733 97.339 67.1733 93.3054 67.1471 89.2456C67.121 88.5122 67.4091 88.4074 68.0377 88.4074C69.5307 88.4467 71.0237 88.4418 72.5166 88.4369C73.0143 88.4352 73.5119 88.4336 74.0096 88.4336C74.5122 88.4336 75.0164 88.4352 75.5214 88.4369H75.534Z" fill="#FAD54D"/>
<path d="M93.9159 88.4074C91.7681 88.4336 89.5942 88.4336 87.4464 88.4074C86.8701 88.4074 86.7392 88.5907 86.7392 89.1408C86.7566 90.5018 86.7508 91.8745 86.745 93.2511C86.7421 93.9408 86.7392 94.6315 86.7392 95.3222V101.504C86.7392 102.001 86.8439 102.185 87.394 102.185C89.5679 102.158 91.7681 102.158 93.9421 102.185C94.4659 102.185 94.5969 102.001 94.5969 101.504C94.5707 97.3914 94.5707 93.2792 94.5969 89.167C94.5969 88.617 94.4921 88.4074 93.9159 88.4074Z" fill="#FAD54D"/>
<path fill-rule="evenodd" clip-rule="evenodd" d="M123.33 53.4142C122.23 52.0522 120.423 51.9998 118.904 53.257C115.66 55.9509 112.443 58.6448 109.226 61.3387L109.212 61.3505C108.741 61.7434 108.269 61.953 107.641 61.953H86.2415C82.7317 64.2317 78.5409 65.5675 74.0358 65.5675C69.5307 65.5675 65.3399 64.2317 61.8301 61.953H40.4832C39.8022 61.953 39.3307 61.7434 38.8069 61.3243C35.5852 58.6003 32.3373 55.9025 29.0894 53.2308C27.5965 51.9998 25.8416 52.0522 24.7153 53.3618C23.5628 54.6976 23.8247 56.4787 25.3439 57.7622C28.5636 60.4583 31.8095 63.1545 35.0554 65.8507L35.0613 65.8557C35.5852 66.3009 35.7947 66.7462 35.7947 67.4272C35.7685 82.645 35.7685 97.8891 35.7685 113.107C35.7685 115.831 36.79 116.852 39.4617 116.852H108.558C111.177 116.852 112.224 115.805 112.224 113.159C112.224 97.8891 112.224 82.645 112.198 67.3748C112.198 66.72 112.382 66.3009 112.879 65.8818C116.127 63.2102 119.375 60.5124 122.597 57.7883C124.168 56.5311 124.43 54.8024 123.33 53.4142ZM97.0066 108.026H51.0388C48.6029 108.026 47.5028 106.925 47.5028 104.516V85.9977C47.5028 83.6928 48.629 82.5403 50.9078 82.5403H97.059C99.2854 82.5403 100.438 83.6928 100.438 85.9191V104.621C100.464 106.899 99.3116 108.026 97.0066 108.026ZM100.228 74.8397C99.7568 75.966 98.8663 76.5684 97.6615 76.6731C97.2763 76.7082 96.8795 76.6964 96.4866 76.6847C96.2917 76.6789 96.0977 76.6731 95.9065 76.6731H51.1435C51.074 76.6731 51.0038 76.6739 50.9333 76.6746H50.9329C50.5779 76.6782 50.2139 76.6819 49.8863 76.5946C48.3933 76.2803 47.398 74.8921 47.5552 73.4253C47.7123 71.9061 48.9696 70.806 50.5935 70.806C54.4874 70.7886 58.3814 70.7944 62.2753 70.8002C64.2223 70.8031 66.1693 70.806 68.1163 70.806H97.2948C99.5997 70.7798 101.093 72.8229 100.228 74.8397Z" fill="#FAD54D"/>
<path fill-rule="evenodd" clip-rule="evenodd" d="M47.4242 45.1112C49.7553 45.0064 51.5102 44.5349 51.5102 43.9849C51.5102 43.4349 49.7553 42.9634 47.4242 42.8586V41.6014H50.3054V39.6893H42.4738V41.6014H45.355V42.8586C43.0239 42.9634 41.269 43.4349 41.269 43.9849C41.269 44.5349 43.0239 45.0064 45.355 45.1112V49.1448H47.4242V45.1112ZM41.7404 43.8801C41.7404 43.4611 43.2858 43.0944 45.355 42.9896V44.404C45.3824 44.404 45.4214 44.4051 45.4707 44.4069C45.4997 44.408 45.5324 44.4093 45.5684 44.4108C45.7624 44.4185 46.0535 44.4302 46.4027 44.4302C46.8886 44.4302 47.2024 44.4145 47.344 44.4074L47.3456 44.4073C47.3863 44.4053 47.4125 44.404 47.4242 44.404V42.9896C49.4934 43.0944 51.0126 43.4349 51.0126 43.8801C51.0126 44.2992 49.4672 44.6659 47.4242 44.7707C47.4128 44.7707 47.3889 44.772 47.3518 44.7738L47.3505 44.7739C47.2167 44.781 46.9131 44.7969 46.4027 44.7969C46.0535 44.7969 45.7624 44.7852 45.5684 44.7775L45.4941 44.7745C45.4336 44.7722 45.3867 44.7707 45.355 44.7707C43.2858 44.6659 41.7404 44.3254 41.7404 43.8801Z" fill="#FAD54D"/>
<path fill-rule="evenodd" clip-rule="evenodd" d="M100.595 45.1112C98.2639 45.0064 96.509 44.5349 96.509 43.9849C96.509 43.4349 98.2639 42.9634 100.595 42.8586V41.6014H97.7138V39.6893H105.545V41.6014H102.664V42.8586C104.995 42.9634 106.75 43.4349 106.75 43.9849C106.75 44.5349 104.995 45.0064 102.664 45.1112V49.1448H100.595V45.1112ZM100.621 44.404V42.9896C98.552 43.0944 97.0066 43.4611 97.0066 43.8801C97.0066 44.3254 98.552 44.6921 100.621 44.7707C100.665 44.7707 100.738 44.7736 100.835 44.7775C101.029 44.7852 101.32 44.7969 101.669 44.7969C102.324 44.7969 102.638 44.7707 102.69 44.7707C104.733 44.6659 106.279 44.2992 106.279 43.8801C106.279 43.4349 104.76 43.0944 102.69 42.9896V44.404C102.679 44.404 102.652 44.4053 102.612 44.4073C102.471 44.4144 102.157 44.4302 101.669 44.4302C101.32 44.4302 101.029 44.4185 100.835 44.4108C100.738 44.4069 100.665 44.404 100.621 44.404Z" fill="#FAD54D"/>
</g>
<defs>
<filter id="filter0_d_2113_79876" x="0" y="0" width="148" height="140.852" filterUnits="userSpaceOnUse" color-interpolation-filters="sRGB">
<feFlood flood-opacity="0" result="BackgroundImageFix"/>
<feColorMatrix in="SourceAlpha" type="matrix" values="0 0 0 0 0 0 0 0 0 0 0 0 0 0 0 0 0 0 127 0" result="hardAlpha"/>
<feOffset/>
<feGaussianBlur stdDeviation="12"/>
<feComposite in2="hardAlpha" operator="out"/>
<feColorMatrix type="matrix" values="0 0 0 0 0.780392 0 0 0 0 0.164706 0 0 0 0 0.913725 0 0 0 1 0"/>
<feBlend mode="normal" in2="BackgroundImageFix" result="effect1_dropShadow_2113_79876"/>
<feBlend mode="normal" in="SourceGraphic" in2="effect1_dropShadow_2113_79876" result="shape"/>
</filter>
</defs>
</svg>
