<svg width="24" height="24" viewBox="0 0 24 24" fill="none" xmlns="http://www.w3.org/2000/svg">
    <path d="M23.082 5.704a.886.886 0 0 0-1.248-.27 9.271 9.271 0 0 0-1.096.847c-1.41-1.267-3.757-2.182-6.57-2.497-.453-.623-1.034-1.23-1.563-1.736a.883.883 0 0 0-1.256.03c-.469.495-.983 1.087-1.384 1.691-2.794.292-5.141 1.174-6.585 2.411a8.402 8.402 0 0 0-1.215-.964.885.885 0 0 0-1.245.267C.212 6.619-.092 7.493.024 8.073A2.04 2.04 0 0 0 1.43 9.669l.994 4.413h-.292c-.593 0-1.077.48-1.077 1.076 0 .593.484 1.073 1.077 1.073h.157v3.814h-.157c-.593 0-1.077.483-1.077 1.076 0 .592.484 1.076 1.077 1.076h19.735c.593 0 1.076-.484 1.076-1.076 0-.593-.483-1.076-1.076-1.076h-.157V16.23h.157a1.076 1.076 0 1 0 0-2.149h-.232l.933-4.203a2.081 2.081 0 0 0 1.41-1.587c.11-.585-.195-1.458-.896-2.587zm.158 2.452a1.324 1.324 0 0 1-1.058 1.046c-.003 0-.011.004-.015.004a.382.382 0 0 0-.281.285l-1.016 4.59H3.197L2.113 9.278a.377.377 0 0 0-.281-.282l-.015-.003A1.313 1.313 0 0 1 .759 7.935c-.071-.371.225-1.14.795-2.055a.139.139 0 0 1 .191-.041c.442.296 1.508 1.082 1.613 1.605.09.484-.101.986-.488 1.279a.372.372 0 0 0-.138.393l.105.41a1.451 1.451 0 0 0 1.406 1.09h.716c.834 0 1.482-.691 1.451-1.51a.38.38 0 0 0-.229-.33 1.322 1.322 0 0 1-.824-1.253c.007-.38.453-1.073 1.2-1.853a.137.137 0 0 1 .194 0c.777.799 1.257 1.53 1.25 1.901a1.308 1.308 0 0 1-.74 1.167c-.28.132-.2.435-.21.483.03.784.668 1.395 1.452 1.395h.626a2.577 2.577 0 0 0 2.576-2.572v-.038a.375.375 0 0 0-.262-.356 2.094 2.094 0 0 1-1.47-2.01c0-.592.615-1.487.975-1.95.266-.345.585-.716.945-1.095a.136.136 0 0 1 .195-.007c.4.382.753.757 1.053 1.106.378.453 1.065 1.34 1.065 1.935a2.098 2.098 0 0 1-1.57 2.051.38.38 0 0 0-.282.364 2.576 2.576 0 0 0 2.572 2.572h.529c.784 0 1.421-.611 1.451-1.395-.006-.037.078-.357-.206-.49a1.308 1.308 0 0 1-.735-1.163c-.011-.372.469-1.1 1.249-1.898.056-.062.154-.045.195 0 .746.78 1.196 1.474 1.2 1.856a1.323 1.323 0 0 1-.822 1.25.377.377 0 0 0-.232.33 1.453 1.453 0 0 0 1.451 1.51h.799c.671 0 1.248-.454 1.41-1.102.004-.063.176-.375-.09-.574a1.278 1.278 0 0 1-.484-1.286c.057-.284.41-.636.623-.833a7.92 7.92 0 0 1 .99-.765.14.14 0 0 1 .19.042c.28.45.9 1.54.796 2.058zm-2.28 11.888H3.04V16.23h17.92v3.814z" fill="#FAD54D"/>
    <path d="M19.119 19.03a.892.892 0 0 0 .892-.892.893.893 0 1 0-1.785 0c0 .492.398.893.893.893zM16.272 19.03a.894.894 0 1 0-.004-1.788.894.894 0 0 0 .004 1.789zM13.422 19.03a.895.895 0 1 0 0-1.788.895.895 0 0 0 0 1.789zM10.576 19.03a.894.894 0 1 0-.004-1.788.894.894 0 0 0 .004 1.789zM7.726 19.03a.895.895 0 1 0 0-1.788.895.895 0 0 0 0 1.789zM4.88 19.03a.892.892 0 0 0 .893-.892.893.893 0 1 0-1.785 0c0 .492.397.893.892.893zM6.965 11.31a.631.631 0 0 0-.544-.311h-.558a.625.625 0 0 0-.54.311l-.281.484a.629.629 0 0 0 0 .626c.021.037.303.521.28.484a.625.625 0 0 0 .54.31h.56c.532 0 .641-.56.82-.794a.623.623 0 0 0 0-.626l-.277-.484zM18.676 11.31a.625.625 0 0 0-.54-.311h-.559a.631.631 0 0 0-.543.311l-.278.484a.623.623 0 0 0 0 .626l.278.484a.63.63 0 0 0 .543.31h.56c.442 0 .577-.396.61-.434l.21-.36a.634.634 0 0 0 0-.626l-.28-.484zM13.018 10.973a.632.632 0 0 0-.544-.316h-.949a.631.631 0 0 0-.544.316l-.472.82a.623.623 0 0 0 0 .627l.472.821a.635.635 0 0 0 .544.311h.949c.221 0 .431-.12.544-.31l.472-.822a.624.624 0 0 0 0-.626l-.472-.822z" fill="#FAD54D"/>
</svg>
