<svg width="139" height="154" viewBox="0 0 139 154" fill="none" xmlns="http://www.w3.org/2000/svg">
<g filter="url(#filter0_d_2113_79852)">
<path d="M91.6976 50.0516C92.2979 47.1575 92.3638 44.1647 91.878 41.215L94.7619 40.4421L96.9592 48.642L91.6976 50.0516ZM95.183 67.5933L108.361 64.0625L111.878 77.1893L98.7002 80.7201C95.0899 81.6871 91.3446 79.525 90.3776 75.9159C89.4106 72.3056 91.5727 68.5603 95.183 67.5933ZM94.906 74.7015C95.2738 76.0725 96.6822 76.8851 98.0532 76.5186C99.4243 76.1508 100.237 74.7424 99.8703 73.3714C99.5026 72.0003 98.0941 71.1877 96.7231 71.5543C95.3521 71.922 94.5395 73.3316 94.906 74.7015ZM73.5577 51.3171C74.3386 50.1708 74.6348 48.7419 74.2137 47.1711C73.4034 44.1454 70.4957 42.822 67.5709 43.6063C66.8854 43.7901 66.2271 43.7504 65.7221 43.4883C64.7994 43.0093 64.4419 41.6156 65.0275 40.7553C66.0251 39.2912 68.4823 39.34 68.9737 41.1752C69.2007 42.023 70.0712 42.527 70.919 42.3C71.7668 42.073 72.2707 41.2025 72.0437 40.3547C71.4638 38.1881 69.5366 36.6559 67.3212 36.5356L67.0409 35.4892C66.8139 34.6414 65.9434 34.1374 65.0956 34.3644C64.2478 34.5914 63.7439 35.4619 63.9709 36.3097L64.2376 37.3051C63.4942 37.725 62.8666 38.2879 62.4058 38.9655C60.7442 41.4056 61.6386 44.9501 64.2557 46.3097C65.4713 46.9408 66.9433 47.0645 68.3915 46.6763C69.5968 46.354 70.7953 46.6865 71.1448 47.9917C71.3071 48.5978 71.2095 49.1244 70.936 49.5273C70.3163 50.4375 68.9056 50.8801 67.9182 50.3104C67.4767 50.055 67.1317 49.634 66.991 49.1074C66.764 48.2596 65.8935 47.7556 65.0457 47.9826C64.1979 48.2096 63.6939 49.0801 63.9209 49.9279C64.2886 51.3001 65.183 52.3964 66.327 53.057C67.0273 53.461 67.8195 53.7028 68.6434 53.747L68.9238 54.7923C69.0645 55.3212 69.4572 55.7161 69.9373 55.883L71.6612 55.4211C71.9926 55.0363 72.1357 54.4995 71.9938 53.9717L71.7271 52.9764C72.4682 52.5565 73.097 51.9935 73.5577 51.3171ZM114.68 87.6433L112.702 80.2627L99.5241 83.7936C94.2398 85.21 88.7206 82.023 87.3053 76.7387C85.8889 71.4544 89.0758 65.9352 94.3601 64.5199L107.538 60.9891L105.561 53.6086C105.014 51.5679 102.897 50.3456 100.857 50.8926L98.177 51.6111L46.3486 65.4971C44.9969 65.8592 43.6247 65.8172 42.3627 65.446L48.5595 88.5739C52.0108 88.6999 58.8602 93.4542 61.5636 95.0147C63.9323 96.3824 66.4076 96.7035 69.0486 95.9965L75.9831 94.1386C80.137 93.0252 84.5054 95.2951 86.0024 99.3048L97.6344 96.1883L103.416 92.8504C103.449 92.8311 103.483 92.813 103.517 92.7971C105.704 91.577 108.357 91.5611 110.56 92.7256L111.964 92.3499C114.004 91.8006 115.226 89.6828 114.68 87.6433ZM53.4057 60.3115L61.188 58.2266C57.6435 56.3858 54.8539 53.1194 53.7393 48.9564C51.6318 41.0912 56.2998 33.0059 64.1649 30.8983C72.0301 28.7907 80.1154 33.4587 82.223 41.3239C83.3387 45.4858 82.5556 49.7089 80.4071 53.0763L88.1894 50.9914C89.2256 47.4265 89.3312 43.5427 88.2995 39.6964C85.2931 28.4752 73.7586 21.8153 62.5363 24.8218C51.3151 27.8283 44.6552 39.3627 47.6617 50.5851C48.6934 54.4325 50.7261 57.7432 53.4057 60.3115ZM45.5246 62.4237L49.8942 61.2524C47.9284 59.0472 46.3747 56.489 45.3215 53.6891L43.3274 54.2237C41.0722 54.8275 39.7216 57.1666 40.3266 59.4217C40.9304 61.6769 43.2706 63.0275 45.5246 62.4237ZM31.9575 93.3929C31.7838 92.7449 31.112 92.3567 30.4628 92.5304L25.5507 93.8469C24.9027 94.0205 24.5145 94.6936 24.6882 95.3416L33.4919 128.196C33.6656 128.844 34.3386 129.232 34.9867 129.059L39.8987 127.742C40.5467 127.568 40.9349 126.895 40.7613 126.247L31.9575 93.3929ZM105.006 95.5958L84.8731 107.22C83.7859 108.691 82.214 109.819 80.3186 110.327L70.1779 113.044C69.052 113.346 67.9273 113.502 66.806 113.511C65.6756 113.52 64.5747 113.38 63.5044 113.091C62.6566 112.864 62.1527 111.994 62.3797 111.146C62.6067 110.298 63.4772 109.794 64.325 110.021C66.0206 110.478 67.6674 110.427 69.3584 109.974L79.4992 107.257C82.2548 106.52 83.9186 103.656 83.1764 100.886C82.4364 98.1245 79.5639 96.4686 76.8037 97.2086L69.8692 99.0665C66.4235 99.9892 63.0743 99.5443 59.9861 97.7613C51.7975 93.0331 50.8884 90.0891 41.7532 93.5178C39.9747 94.1851 38.0215 94.9183 35.8242 95.5243L43.1424 122.836C49.9316 121.809 54.6575 123.157 60.6398 124.863C61.7895 125.191 62.9869 125.532 64.1876 125.853C65.3839 126.175 66.5438 126.261 67.6594 126.113C68.8341 125.959 69.9168 125.558 70.9394 124.967L109.134 102.914C111.062 101.662 112.081 99.34 110.8 97.2279C109.535 95.1453 107.176 94.3372 105.006 95.5958Z" fill="#FAD54D"/>
</g>
<defs>
<filter id="filter0_d_2113_79852" x="0.646729" y="0.100006" width="138.164" height="153" filterUnits="userSpaceOnUse" color-interpolation-filters="sRGB">
<feFlood flood-opacity="0" result="BackgroundImageFix"/>
<feColorMatrix in="SourceAlpha" type="matrix" values="0 0 0 0 0 0 0 0 0 0 0 0 0 0 0 0 0 0 127 0" result="hardAlpha"/>
<feOffset/>
<feGaussianBlur stdDeviation="12"/>
<feComposite in2="hardAlpha" operator="out"/>
<feColorMatrix type="matrix" values="0 0 0 0 0.780392 0 0 0 0 0.164706 0 0 0 0 0.913725 0 0 0 1 0"/>
<feBlend mode="normal" in2="BackgroundImageFix" result="effect1_dropShadow_2113_79852"/>
<feBlend mode="normal" in="SourceGraphic" in2="effect1_dropShadow_2113_79852" result="shape"/>
</filter>
</defs>
</svg>
