<svg width="146" height="145" viewBox="0 0 146 145" fill="none" xmlns="http://www.w3.org/2000/svg">
<g filter="url(#filter0_d_2113_79868)">
<path d="M40.9418 55.0532L41.2046 54.9875C41.8399 54.8341 42.4971 54.7684 43.1323 54.7684C45.3448 54.7684 47.3821 55.6008 49.2003 57.2438C49.8356 57.1123 50.4927 57.0247 51.1499 57.0247C52.3985 57.0247 53.6034 57.2876 54.6987 57.7695L56.9112 51.1977L57.8312 50.4091C59.036 49.3795 60.4818 48.8319 62.0152 48.8319C62.8258 48.8319 63.6363 48.9852 64.4687 49.2919C65.3355 49.6194 66.2362 49.9129 67.1706 50.2173L67.1725 50.2179L67.175 50.2187L67.1764 50.2192L67.1785 50.2199L67.1817 50.2209L67.184 50.2216L67.1848 50.2219L67.1854 50.2221C67.3088 50.2623 67.4328 50.3027 67.5574 50.3434L67.5647 50.3455C68.1757 50.5419 68.7866 50.7384 69.3756 50.9568C71.0843 51.5482 72.3329 52.5997 73.012 53.936C73.6911 52.5997 74.9397 51.5482 76.6484 50.9568C77.0186 50.8378 77.3888 50.7108 77.7542 50.5855L77.7687 50.5805C77.9558 50.5163 78.1416 50.4526 78.3255 50.3907C78.3726 50.3748 78.4197 50.359 78.4666 50.3434L78.4985 50.333C79.56 49.9864 80.5576 49.6606 81.5553 49.2919C82.3877 48.9852 83.1983 48.8319 84.0088 48.8319C85.5422 48.8319 86.988 49.3795 88.1928 50.4091L89.1129 51.1977L91.3253 57.7695C92.4206 57.2876 93.6036 57.0247 94.8741 57.0247C95.5313 57.0247 96.1666 57.0904 96.8238 57.2438C98.6419 55.6008 100.679 54.7684 102.892 54.7684C103.527 54.7684 104.184 54.8341 104.819 54.9875L104.85 54.9936C104.879 54.9994 104.908 55.0053 104.937 55.0111C105.005 55.0251 105.07 55.0392 105.126 55.0532C106.783 52.33 108.453 49.6137 110.124 46.8969L110.128 46.8905L110.134 46.8809L110.135 46.8798L110.137 46.8752C113.61 41.2288 117.084 35.58 120.438 29.8613C121.096 28.7223 121.336 27.5832 120.942 26.3126C120.373 24.5163 118.927 23.6182 117.065 23.9249C115.772 24.1439 114.699 24.7792 113.713 25.6554C106.068 32.512 98.401 39.3466 90.7339 46.1813C90.6838 46.2189 90.6336 46.2565 90.563 46.3064C90.5102 46.3437 90.4459 46.3879 90.3615 46.4441C90.2346 45.8889 90.257 45.3681 90.279 44.8568C90.2874 44.6621 90.2958 44.4688 90.2958 44.2755C90.2958 43.9608 90.3017 43.6442 90.3076 43.3274V43.3224C90.3214 42.5822 90.3352 41.8409 90.2739 41.121C90.1424 39.6314 89.3538 38.5361 87.8642 38.0542C86.3965 37.5723 85.0603 37.8132 83.9212 38.8866C83.8423 38.9654 83.7635 39.0487 83.6767 39.1404C83.5705 39.2525 83.4524 39.3772 83.3078 39.5219C82.804 37.2656 82.4754 35.0969 82.1906 32.9063C81.9496 31.0224 81.6867 29.1604 80.8981 27.4079C80.2848 26.0059 79.4523 24.8011 77.7656 24.7135C76.035 24.6259 74.7864 25.524 73.9759 26.9917C72.5511 29.5562 71.1263 32.1153 69.7016 34.6744C68.2786 37.2303 66.8556 39.7863 65.4326 42.3477C65.2998 42.569 65.167 42.8002 65.0209 43.0547L64.9492 43.1795C64.9004 43.2646 64.8499 43.3522 64.7973 43.443C64.5057 42.94 64.2481 42.4321 63.9945 41.9323C63.4862 40.9303 62.9943 39.9606 62.2781 39.1276C60.6133 37.1998 57.8093 37.3313 56.3854 39.3685C55.8159 40.1791 55.6625 41.0772 55.7063 42.063C55.7389 43.0715 55.7351 44.0923 55.7311 45.2057V45.2176C55.7297 45.5998 55.7282 45.993 55.7282 46.4003L55.6614 46.3436C54.97 45.757 54.4188 45.2894 53.8881 44.8012C46.2868 38.098 38.7073 31.3729 31.1498 24.6478C29.6383 23.3115 27.5572 23.2458 26.0676 24.4944C24.578 25.765 24.2713 27.8022 25.3228 29.5328C30.5145 38.0323 35.7281 46.5537 40.9418 55.0532Z" fill="#FAD54D"/>
<path d="M72.9901 74.659C74.3264 72.6436 76.276 71.1102 78.5323 70.234C76.6046 69.5768 74.7645 68.9634 72.9901 68.372C71.3341 68.924 69.6398 69.4951 67.8362 70.1031L67.4479 70.234C69.7042 71.1102 71.6538 72.6655 72.9901 74.659Z" fill="#FAD54D"/>
<path d="M112.092 103.224C112.508 103.356 112.947 103.465 113.363 103.553L113.366 103.556C114.153 104.343 114.941 105.131 115.772 105.941C117.109 107.277 117.437 109.073 116.517 110.607C115.488 112.315 113.888 112.929 112.026 112.315C111.457 112.118 110.887 111.855 110.34 111.57C108.368 110.541 106.402 109.517 104.436 108.493C102.47 107.469 100.504 106.444 98.5324 105.415C97.1011 104.662 95.6698 103.92 94.2319 103.174L94.2229 103.169C93.5291 102.809 92.8337 102.448 92.1359 102.085C91.9888 102.526 92.0578 102.906 92.1226 103.263C92.135 103.331 92.1472 103.398 92.1578 103.465C92.3166 104.582 92.4767 105.699 92.6369 106.816C93.1175 110.168 93.5981 113.52 94.0417 116.872C94.2827 118.69 93.2531 120.552 91.9169 121.078C90.493 121.625 87.9957 120.837 86.988 119.522C85.7527 117.906 84.5156 116.291 83.2788 114.677L83.2701 114.665C80.1014 110.529 76.934 106.395 73.8006 102.239C73.1216 101.34 72.8587 101.559 72.311 102.282C69.9865 105.322 67.6425 108.349 65.3003 111.373L65.2701 111.412C63.3182 113.933 61.3675 116.451 59.4304 118.975C58.5979 120.048 57.7217 121.034 56.4293 121.538H54.8958C52.6614 120.399 51.7633 118.843 52.0261 116.324C52.2452 114.353 52.5081 112.425 52.8148 110.475C52.9299 109.737 53.0303 108.993 53.131 108.246L53.1311 108.246L53.1311 108.246L53.1312 108.245C53.3562 106.578 53.5824 104.902 53.9758 103.268C54.0634 102.94 54.151 102.523 53.9101 102.217C53.7395 102.029 53.5557 102.147 53.3792 102.26C53.3669 102.268 53.3546 102.276 53.3424 102.283C53.3048 102.307 53.2676 102.33 53.231 102.348L35.5529 111.614C35.0272 111.877 34.4795 112.118 33.9319 112.271C31.0622 113.06 28.9811 111.286 29.2659 108.328C29.3754 107.255 29.8574 106.401 30.6022 105.656C31.325 104.933 32.0261 104.232 32.7489 103.531C33.1433 103.443 33.5156 103.356 33.8881 103.224C37.7873 101.932 41.7304 100.617 45.542 99.325C46.3743 99.0403 47.2065 98.7611 48.0388 98.4818C48.8714 98.2025 49.704 97.9231 50.5366 97.6383C51.3359 97.3755 52.1354 97.1072 52.9348 96.8389C53.1657 96.7614 53.3966 96.6839 53.6275 96.6065C53.7842 96.554 53.941 96.5016 54.0977 96.4492L54.4266 96.3395C54.5133 96.3106 54.5999 96.2818 54.6865 96.2531C54.7884 96.2193 54.8904 96.1855 54.9923 96.1518L55.1194 96.1098C55.1909 96.0862 55.2624 96.0626 55.334 96.0391C56.7018 95.578 58.0892 95.114 59.4851 94.6473L59.5719 94.6183C62.0599 93.7864 64.5745 92.9457 67.0536 92.0961C69.4852 91.2856 71.5662 89.6645 72.9901 87.5616C74.3921 89.6645 76.4951 91.2637 78.9266 92.0961C81.4058 92.9457 83.9203 93.7864 86.4084 94.6183L86.4952 94.6473C87.891 95.114 89.2784 95.578 90.6463 96.0391C91.4459 96.302 92.2454 96.5704 93.045 96.8387L93.0565 96.8426C93.8523 97.1096 94.648 97.3767 95.4437 97.6383C96.2721 97.9217 97.1005 98.1997 97.9289 98.4776L97.941 98.4817L97.9531 98.4857C98.7815 98.7637 99.6098 99.0416 100.438 99.325C104.25 100.617 108.193 101.932 112.092 103.224Z" fill="#FAD54D"/>
<path d="M86.5061 67.8024C87.0756 66.6852 87.6452 65.5899 88.2366 64.4946C88.4995 64.0127 88.39 63.8375 87.8862 63.6841C87.5138 63.5746 87.1413 63.4431 86.7909 63.3117C86.7598 63.3221 86.7288 63.3336 86.6975 63.3458C86.6869 63.3499 86.6763 63.3541 86.6657 63.3584L86.6456 63.3664L86.6251 63.3746C86.5462 63.4064 86.4642 63.4395 86.3746 63.465C85.644 63.6843 84.9035 63.9327 84.1728 64.1779L84.165 64.1805C83.8031 64.3019 83.4435 64.4226 83.0888 64.5384C82.8038 64.6371 82.5134 64.7357 82.2229 64.8344C81.9908 64.9132 81.7586 64.992 81.5293 65.0709C81.472 65.0906 81.415 65.1102 81.3582 65.1299C80.8325 65.3051 80.3505 65.3928 79.8905 65.3928C79.3647 65.3928 78.3571 65.2832 77.5027 64.4508C77.2837 64.6042 77.0208 64.7356 76.7141 64.8451C76.6484 64.867 76.5608 64.8889 76.4951 64.9109L76.5173 64.9184C79.6205 65.9673 82.7238 67.0163 85.8489 68.0653C86.1337 68.1748 86.3308 68.131 86.5061 67.8024Z" fill="#FAD54D"/>
<path d="M109.048 60.946C110.077 61.2745 111.106 61.6031 112.07 62.0412C113.516 62.6984 114.261 63.9032 114.568 65.5461C112.918 64.9914 111.28 64.4414 109.647 63.8931L109.578 63.8699C106.269 62.7587 102.979 61.6539 99.6496 60.5297C100.876 59.4125 102.235 58.9086 103.79 59.2591C105.012 59.5274 106.194 59.9479 107.376 60.3686L107.378 60.3691C107.933 60.5665 108.488 60.764 109.047 60.9459L109.048 60.946Z" fill="#FAD54D"/>
<path d="M63.3734 59.6096C63.7235 59.4893 64.0681 59.3744 64.4127 59.2595C64.7581 59.1444 65.1036 59.0292 65.4545 58.9086C65.792 58.7888 66.1349 58.6745 66.4778 58.5602L66.4803 58.5594L66.4878 58.5568C66.8316 58.4422 67.1754 58.3277 67.5136 58.2076C67.9956 58.0543 68.4556 57.9009 68.9375 57.7257C68.9813 57.5942 69.0252 57.4847 69.069 57.3533C69.4414 56.1923 69.1128 55.5132 67.9299 55.1189C67.3479 54.9198 66.7632 54.726 66.1777 54.532L66.1763 54.5316L66.1731 54.5305C65.0853 54.17 63.9947 53.8086 62.9134 53.4102C62.0591 53.1035 61.3362 53.1693 60.6352 53.7388C60.3066 54.7246 59.9725 55.7158 59.6385 56.707C59.3044 57.6983 58.9703 58.6895 58.6417 59.6753C58.7294 60.223 58.9922 60.6173 59.3647 60.9021C60.4967 60.5734 61.6135 60.1991 62.7152 59.8298L62.7162 59.8295L62.7454 59.8197C62.9553 59.7494 63.1646 59.6792 63.3734 59.6096Z" fill="#FAD54D"/>
<path d="M96.5299 75.9069C93.4054 74.8551 90.2776 73.8022 87.1413 72.7751C86.4842 72.556 86.4184 72.3589 86.747 71.7893C87.4699 70.4531 88.1764 69.1113 88.8829 67.7696C89.5893 66.4279 90.2958 65.0861 91.0187 63.7498C92.0921 61.7564 94.2388 60.9459 96.3856 61.6688C103.089 63.9032 109.792 66.1595 116.495 68.4158C118.708 69.1606 119.913 71.1102 119.562 73.4323C119.321 74.9654 119.064 76.4985 118.806 78.0315C118.549 79.5653 118.292 81.099 118.051 82.6328C117.974 83.1325 117.745 83.042 117.483 82.9383L117.482 82.9379C117.465 82.931 117.447 82.924 117.429 82.9171C117.41 82.9097 117.391 82.9025 117.372 82.8956C115.735 82.3499 114.103 81.7988 112.471 81.2477L112.454 81.2417L112.448 81.2397C110.812 80.6873 109.177 80.1348 107.536 79.5878C106.637 79.2919 105.738 78.9904 104.839 78.6889C103.942 78.388 103.044 78.087 102.147 77.7915C100.275 77.1675 98.403 76.5374 96.5299 75.9069Z" fill="#FAD54D"/>
<path d="M83.2859 78.9306C82.1249 78.5363 80.8324 79.1716 80.4381 80.3107C80.0219 81.4717 80.701 82.8299 81.862 83.2242C83.023 83.6185 84.2936 82.9832 84.7098 81.8222C85.1041 80.6174 84.4907 79.3249 83.2859 78.9306Z" fill="#FAD54D"/>
<path d="M94.4798 82.6765C93.3188 82.2603 91.9826 82.8956 91.5883 84.0785C91.1939 85.2614 91.8511 86.5977 93.034 86.9701C94.1951 87.3425 95.4656 86.6853 95.8599 85.5243C96.2542 84.3633 95.6409 83.1146 94.4798 82.6765Z" fill="#FAD54D"/>
<path d="M105.608 86.4225C104.447 86.0281 103.177 86.6415 102.76 87.8025C102.344 88.9854 102.957 90.2998 104.14 90.716C105.279 91.1103 106.594 90.4751 107.01 89.336C107.426 88.153 106.791 86.8168 105.608 86.4225Z" fill="#FAD54D"/>
<path d="M113.845 91.6142C114.217 90.4531 115.51 89.796 116.671 90.1464C117.875 90.497 118.554 91.8113 118.16 93.0161C117.788 94.1771 116.43 94.8562 115.269 94.4619C114.129 94.0676 113.472 92.7533 113.845 91.6142Z" fill="#FAD54D"/>
<path fill-rule="evenodd" clip-rule="evenodd" d="M89.3757 75.7324C98.861 78.9087 108.346 82.0851 117.832 85.2833C121.84 86.6196 123.921 90.6941 122.607 94.5934C121.336 98.2955 117.284 100.333 113.494 99.0841C109.605 97.7981 105.728 96.4907 101.853 95.1844L101.827 95.1756C100.166 94.6156 98.506 94.0559 96.8457 93.4981C91.3473 91.658 85.8489 89.8179 80.3505 87.9558C76.8894 86.7729 74.874 83.2899 75.5531 79.7631C76.3636 75.4914 80.6572 72.9284 84.8412 74.2208C85.8637 74.5276 86.8666 74.8732 87.8695 75.2189C88.0541 75.2825 88.2386 75.3461 88.4233 75.4095C88.7402 75.5182 89.0575 75.6263 89.3757 75.7324ZM81.161 85.1957C83.4173 85.9843 85.9146 84.7357 86.6813 82.4575C87.4699 80.1793 86.2432 77.7039 83.965 76.9372C81.7087 76.1924 79.2552 77.3972 78.4666 79.6316C77.678 81.8879 78.9047 84.4071 81.161 85.1957ZM92.3111 88.9416C94.5675 89.7302 97.0647 88.4816 97.8314 86.2034C98.6201 83.9033 97.3933 81.4498 95.0932 80.705C92.8369 79.9383 90.3834 81.1431 89.6167 83.3994C88.8281 85.6777 90.0329 88.153 92.3111 88.9416ZM103.527 92.6875C105.761 93.4323 108.237 92.2056 109.003 89.9712C109.77 87.693 108.543 85.2176 106.287 84.429C103.987 83.6404 101.534 84.8671 100.767 87.1672C100 89.4674 101.249 91.9427 103.527 92.6875ZM114.633 96.4335C116.89 97.2002 119.409 95.9296 120.154 93.6733C120.898 91.3951 119.65 88.8978 117.372 88.153C115.093 87.4301 112.662 88.635 111.895 90.8912C111.128 93.1476 112.377 95.6886 114.633 96.4335Z" fill="#FAD54D"/>
<path d="M27.4378 79.5653L27.4371 79.5611C27.0918 77.5182 26.7465 75.4752 26.44 73.4322C26.0895 71.1102 27.2944 69.1606 29.5069 68.4158C36.2101 66.1595 42.9133 63.9032 49.6165 61.6687C51.7633 60.9678 53.91 61.7783 54.9834 63.7498C55.7063 65.0861 56.4128 66.4278 57.1193 67.7695C57.8257 69.1113 58.5322 70.453 59.2551 71.7893C59.5837 72.3588 59.518 72.556 58.8608 72.7751C53.8443 74.418 48.8498 76.1047 43.8552 77.7915C42.9573 78.0872 42.0593 78.3883 41.1613 78.6895C40.263 78.9908 39.3647 79.292 38.4664 79.5878C36.8294 80.1335 35.1978 80.6846 33.5663 81.2357L33.5485 81.2417C31.911 81.7948 30.2736 82.3479 28.6306 82.8956C28.5934 82.9089 28.5564 82.9235 28.5201 82.9379L28.5191 82.9383C28.257 83.0419 28.0284 83.1324 27.9515 82.6327C27.7835 81.6102 27.6107 80.5878 27.4378 79.5653Z" fill="#FAD54D"/>
<path d="M60.1971 68.0653C65.4545 66.2909 70.7119 64.5165 75.9693 62.7641C76.4074 62.6107 76.4074 62.3916 76.276 62.0412C75.8817 60.924 75.4874 59.7849 75.1369 58.6457C74.9836 58.1419 74.7864 58.0762 74.2826 58.2295C71.5886 59.1713 68.8728 60.0693 66.1569 60.9673L66.1555 60.9678C65.1754 61.2945 64.1982 61.6241 63.2218 61.9534L63.2055 61.959C61.503 62.5332 59.803 63.1065 58.0941 63.6622C57.5903 63.8375 57.4807 64.0127 57.7436 64.4727L57.7445 64.4743C58.3356 65.5691 58.9268 66.6638 59.4742 67.7805C59.6494 68.131 59.8466 68.1748 60.1971 68.0653Z" fill="#FAD54D"/>
<path d="M38.5716 60.3768L38.572 60.3767C39.7579 59.9597 40.9428 59.5431 42.1685 59.2591C43.7238 58.9086 45.082 59.4125 46.2868 60.5297C42.9348 61.6617 39.6223 62.774 36.2897 63.893C34.6566 64.4414 33.0187 64.9914 31.3689 65.5461C31.7194 63.9032 32.4423 62.6984 33.8881 62.0412C34.8192 61.6272 35.7896 61.3112 36.7435 61.0005L36.7464 60.9996L36.9111 60.9459C37.4667 60.7653 38.0179 60.5714 38.5688 60.3776L38.5716 60.3768Z" fill="#FAD54D"/>
<path d="M80.6572 63.0489C81.1163 62.8938 81.5755 62.7355 82.0351 62.5771C83.2639 62.1535 84.4958 61.7288 85.7394 61.3621C86.6156 61.0992 87.1632 60.6173 87.3166 59.7191C86.9896 58.7382 86.6572 57.7517 86.3248 56.7653L86.3199 56.7509C85.9858 55.7596 85.6517 54.7684 85.3231 53.7826C84.6441 53.1912 83.8993 53.1255 83.0449 53.454C81.8704 53.8868 80.6958 54.2759 79.5136 54.6675C79.0201 54.831 78.5252 54.995 78.0285 55.1627C76.8675 55.557 76.517 56.258 76.8894 57.3971C77.1413 58.1638 77.3987 58.9305 77.6561 59.6972C77.9135 60.4639 78.1709 61.2306 78.4228 61.9974C78.839 63.0708 79.5181 63.4212 80.6572 63.0489Z" fill="#FAD54D"/>
<path d="M65.564 80.3107C65.9583 81.4717 65.3012 82.8299 64.1401 83.2242C62.9791 83.6185 61.7086 82.9832 61.3143 81.8222C60.8981 80.6393 61.5333 79.3249 62.7162 78.9306C63.8554 78.5363 65.1478 79.1716 65.564 80.3107Z" fill="#FAD54D"/>
<path d="M52.9681 86.9701C54.151 86.5977 54.8082 85.2614 54.4139 84.0785C54.0196 82.8956 52.6833 82.2603 51.5223 82.6765C50.3613 83.0927 49.748 84.3633 50.1642 85.5243C50.5366 86.6853 51.8071 87.3425 52.9681 86.9701Z" fill="#FAD54D"/>
<path d="M43.22 87.8025C43.6581 89.0074 43.0228 90.3217 41.8399 90.716C40.7008 91.0884 39.3864 90.4532 38.9921 89.314C38.554 88.153 39.2112 86.8168 40.3722 86.4225C41.5332 86.0281 42.8038 86.6415 43.22 87.8025Z" fill="#FAD54D"/>
<path d="M29.3097 90.1465C30.4926 89.796 31.7632 90.4751 32.1356 91.6142C32.4861 92.7533 31.8289 94.0676 30.6898 94.44C29.5288 94.8343 28.1706 94.1552 27.7982 92.9942C27.4258 91.8113 28.1268 90.497 29.3097 90.1465Z" fill="#FAD54D"/>
<path fill-rule="evenodd" clip-rule="evenodd" d="M42.7437 95.633L42.7474 95.6317C44.8806 94.9125 47.0153 94.1927 49.1565 93.4762L49.1766 93.4694C54.6683 91.6316 60.1599 89.7937 65.6516 87.934C69.1128 86.751 71.1281 83.268 70.449 79.7412C69.6166 75.4695 65.345 72.9065 61.1609 74.1989C60.1532 74.5057 59.1454 74.8513 58.1376 75.197C57.6339 75.3698 57.1301 75.5426 56.6264 75.7105C51.8847 77.2983 47.1431 78.8916 42.4014 80.485C37.6578 82.079 32.9142 83.6729 28.1706 85.2614C24.1399 86.6196 22.0808 90.6941 23.3951 94.5715C24.6876 98.2736 28.7402 100.311 32.508 99.0622C35.927 97.9315 39.3295 96.7842 42.7357 95.6357L42.7437 95.633ZM62.0372 76.9372C64.2935 76.1924 66.7469 77.3972 67.5355 79.6316C68.3242 81.8879 67.0974 84.4071 64.8411 85.1957C62.5848 85.9843 60.0875 84.7576 59.3208 82.4575C58.5322 80.1793 59.737 77.7039 62.0372 76.9372ZM50.887 80.6831C53.1433 79.9383 55.5968 81.1431 56.3635 83.3775C57.1521 85.6558 55.9473 88.153 53.6691 88.9197C51.4128 89.7083 48.9155 88.4597 48.1488 86.1815C47.3821 83.9033 48.6088 81.4498 50.887 80.6831ZM39.715 84.429C41.9932 83.6623 44.4686 84.8671 45.2353 87.1673C46.002 89.4674 44.7534 91.9427 42.4752 92.6875C40.2188 93.4324 37.7654 92.2056 36.9987 89.9712C36.2101 87.693 37.4368 85.2176 39.715 84.429ZM25.8267 93.6733C25.0819 91.3951 26.3524 88.8978 28.6306 88.1749C30.9088 87.452 33.3404 88.6569 34.1071 90.9132C34.8738 93.1695 33.6252 95.6886 31.3689 96.4554C29.0907 97.2002 26.5715 95.9296 25.8267 93.6733Z" fill="#FAD54D"/>
</g>
<defs>
<filter id="filter0_d_2113_79868" x="0.142857" y="0.742863" width="145.714" height="143.652" filterUnits="userSpaceOnUse" color-interpolation-filters="sRGB">
<feFlood flood-opacity="0" result="BackgroundImageFix"/>
<feColorMatrix in="SourceAlpha" type="matrix" values="0 0 0 0 0 0 0 0 0 0 0 0 0 0 0 0 0 0 127 0" result="hardAlpha"/>
<feOffset/>
<feGaussianBlur stdDeviation="11.4286"/>
<feComposite in2="hardAlpha" operator="out"/>
<feColorMatrix type="matrix" values="0 0 0 0 0.780392 0 0 0 0 0.164706 0 0 0 0 0.913725 0 0 0 1 0"/>
<feBlend mode="normal" in2="BackgroundImageFix" result="effect1_dropShadow_2113_79868"/>
<feBlend mode="normal" in="SourceGraphic" in2="effect1_dropShadow_2113_79868" result="shape"/>
</filter>
</defs>
</svg>
