<svg width="24" height="24" viewBox="0 0 24 24" fill="none" xmlns="http://www.w3.org/2000/svg">
    <path d="M12.002 12.121a3.694 3.694 0 1 0 0 7.39 3.694 3.694 0 0 0 3.693-3.697 3.693 3.693 0 0 0-3.693-3.693zm1.308 1.833a.39.39 0 1 1 0 .547.39.39 0 0 1 0-.547zm-1.308-.772c.214 0 .386.172.386.39a.389.389 0 1 1-.776 0c0-.217.172-.39.39-.39zm-2.636 2.632c0-.214.176-.386.39-.386a.389.389 0 1 1 0 .776.39.39 0 0 1-.39-.39zm1.324 1.863a.394.394 0 0 1-.551 0 .387.387 0 0 1 0-.55c.15-.15.397-.15.55 0 .15.153.15.397 0 .55zm0-3.175a.387.387 0 0 1-.551 0 .383.383 0 0 1 0-.548.387.387 0 0 1 .55 0 .39.39 0 0 1 0 .548zm1.312 3.948a.39.39 0 1 1 0-.78c.214 0 .386.176.386.39 0 .214-.172.39-.386.39zm0-1.586a1.048 1.048 0 1 1-.003-2.096 1.048 1.048 0 0 1 .003 2.096zm1.86.813a.394.394 0 0 1-.552 0 .394.394 0 0 1 0-.55.394.394 0 0 1 .551 0 .387.387 0 0 1 0 .55zm.382-1.473a.389.389 0 1 1 0-.776.389.389 0 1 1 0 .776zM17.88 10.254v-3.43c0-.646-.52-1.167-1.165-1.167h-9.43c-.645 0-1.166.521-1.166 1.166v3.43c0 .646.521 1.167 1.166 1.167h2.73c.672 0 .97-.533 1.008-.566.408-.518.994-.434 1.039-.443.676 0 .968.528 1.008.563.222.28.559.446.915.446h2.73c.645 0 1.166-.521 1.166-1.166z" fill="#FAD54D"/>
    <path d="M23.535 18.806a.414.414 0 0 0-.094-.113l-2.268-1.848.138-.172a.378.378 0 0 0-.052-.529.38.38 0 0 0-.529.056l-.967 1.189-.495-.416a.861.861 0 0 1-.21-1.039 12.957 12.957 0 0 0 1.252-4.825h1.841a.837.837 0 0 0 .836-.836V9.185a.84.84 0 0 0-.836-.84h-1.998c-.341-1.848-1.151-3.434-2.317-4.637l.798-1.204a.842.842 0 0 0-.232-1.162l-.907-.6a.838.838 0 0 0-1.163.232l-.742 1.118a8.233 8.233 0 0 0-3.588-.795 8.25 8.25 0 0 0-3.592.795L7.668.974A.836.836 0 0 0 6.505.742l-.903.6a.836.836 0 0 0-.236 1.162l.802 1.204c-1.17 1.203-1.98 2.79-2.32 4.637H2.07a.843.843 0 0 0-.84.84v1.088a.84.84 0 0 0 .84.836h1.616c.101 1.657.529 3.31 1.256 4.825a.868.868 0 0 1-.21 1.039l-.495.416L3.27 16.2a.372.372 0 0 0-.525-.056.375.375 0 0 0-.056.529l.138.172c-2.324 1.9-2.313 1.862-2.362 1.96a2.92 2.92 0 0 0 .195 3.431c.04.028 1.29 1.928 3.498 1.088.004 0 .008-.004.012-.004.114-.046.015-.005 2.377-1.904l.138.172c.14.174.383.174.525.056a.376.376 0 0 0 .057-.528l-.994-1.219.36-.304a.868.868 0 0 1 1.098-.003c1.301 1.076 2.779 1.642 4.27 1.642 1.49 0 2.967-.566 4.271-1.642a.855.855 0 0 1 1.095.003h.004l.356.304-.994 1.219a.375.375 0 0 0 .293.61c.253 0 .334-.22.431-.314 2.386 1.926 2.258 1.862 2.373 1.908.004 0 .008.004.012.004 2.118.806 3.457-1.054 3.498-1.088a2.92 2.92 0 0 0 .195-3.43zm-11.533 1.676c-1.316 0-2.628-.506-3.794-1.47a1.556 1.556 0 0 0-.522-.289c-1.207-1.893-1.765-2.77-2.08-3.141a12.287 12.287 0 0 1-1.193-5.223c0-4.796 3.176-8.312 7.589-8.312 2.058 0 3.99.777 5.399 2.31 1.719 1.843 2.182 4.039 2.182 6.377-.098 1.614-.363 3.118-1.189 4.848-.314.37-.873 1.248-2.084 3.145-.184.06-.356.158-.514.285-1.17.964-2.482 1.47-3.794 1.47zm-7.915 1.96-.78-.963-1.983-2.44 1.98-1.609 2.767 3.404-1.984 1.609zm16.61-5.012 1.983 1.608-2.767 3.405-1.984-1.609c1.155-1.42 1.047-1.29 2.767-3.404z" fill="#FAD54D"/>
</svg>
