<svg width="24" height="24" viewBox="0 0 24 24" fill="none" xmlns="http://www.w3.org/2000/svg">
<g clip-path="url(#clip0_2100_67187)">
<rect width="24" height="24" fill="black" fill-opacity="0.01"/>
<path fill-rule="evenodd" clip-rule="evenodd" d="M11.5394 2.04589C11.4072 2.09396 4.1984 5.96726 4.00366 6.09485C3.94376 6.13412 3.84075 6.25803 3.77479 6.37026L3.65486 6.57426L3.6414 10.1159C3.62737 13.8097 3.64685 14.3963 3.8118 15.2512C4.26437 17.5964 5.75422 19.7057 7.81427 20.9179C10.6557 22.59 14.3109 22.3034 16.9329 20.2028C18.6793 18.8037 19.7571 16.7777 19.9675 14.4987C19.9938 14.2134 20.0116 12.499 20.0105 10.3594C20.0085 6.43595 20.0141 6.53689 19.78 6.23107C19.6951 6.12017 18.8431 5.64191 16.0535 4.13936C14.0645 3.06801 12.3338 2.14722 12.2074 2.09321C11.9595 1.98723 11.7429 1.97187 11.5394 2.04589ZM14.6609 11.9532H17.4987L17.4767 13.2702C17.4529 14.6881 17.4283 14.8825 17.1773 15.6375C16.9041 16.4594 16.4732 17.1426 15.8126 17.8011C14.7993 18.8112 13.6223 19.356 12.2257 19.4615L11.8226 19.4919V15.7229V11.9538L9.00043 11.9424L6.17823 11.931L6.16823 9.85029L6.15822 7.76957L8.97936 6.25502L11.8005 4.74052L11.8118 8.34681L11.8232 11.9532H14.6609Z" fill="#A9A4B4"/>
<rect width="24" height="24" fill="black" fill-opacity="0.01"/>
</g>
<defs>
<clipPath id="clip0_2100_67187">
<rect width="24" height="24" fill="white"/>
</clipPath>
</defs>
</svg>
