<svg width="160" height="160" viewBox="0 0 160 160" fill="none" xmlns="http://www.w3.org/2000/svg">
    <g clip-path="url(#87vlyyk6sa)">
        <path fill="#000" fill-opacity=".01" d="M0 0h160v160H0z"/>
        <path d="M55.824 62.494h48.254a2.16 2.16 0 0 0 2.16-2.16c0-8.93-6.551-16.344-15.095-17.736 3.858-3.216 6.32-8.054 6.32-13.459 0-9.65-7.86-17.5-17.523-17.5-9.648 0-17.5 7.85-17.5 17.5 0 5.405 2.46 10.243 6.315 13.46-8.54 1.394-15.088 8.805-15.088 17.736a2.159 2.159 0 0 0 2.158 2.159h-.002zM66.755 29.14c0-7.27 5.912-13.183 13.182-13.183 7.282 0 13.205 5.914 13.205 13.183 0 7.28-5.924 13.203-13.205 13.203-7.27 0-13.182-5.923-13.182-13.203zm4.898 17.521h16.592c6.803 0 12.462 4.997 13.5 11.514H58.153c1.038-6.517 6.697-11.514 13.5-11.514zM71.577 123.679c0-8.932-6.552-16.344-15.097-17.736 3.858-3.216 6.32-8.054 6.32-13.458 0-9.65-7.86-17.5-17.522-17.5-9.65 0-17.5 7.85-17.5 17.5 0 5.404 2.46 10.243 6.314 13.46-8.54 1.394-15.088 8.805-15.088 17.735a2.16 2.16 0 0 0 2.16 2.16H69.42a2.163 2.163 0 0 0 2.157-2.161h-.001zM32.095 92.483c0-7.269 5.912-13.182 13.183-13.182 7.282 0 13.204 5.913 13.204 13.182 0 7.28-5.924 13.204-13.204 13.204-7.27 0-13.183-5.923-13.183-13.204zm-8.602 29.036c1.037-6.517 6.696-11.514 13.5-11.514h16.592c6.806 0 12.465 4.997 13.503 11.514H23.493zM125.801 105.943c3.858-3.217 6.321-8.055 6.321-13.46 0-9.649-7.861-17.5-17.523-17.5-9.649 0-17.5 7.851-17.5 17.5 0 5.405 2.46 10.244 6.314 13.46-8.543 1.394-15.09 8.804-15.09 17.735a2.16 2.16 0 0 0 2.16 2.159h48.257a2.16 2.16 0 0 0 2.159-2.159c-.002-8.931-6.553-16.343-15.097-17.735h-.001zm-24.384-13.46c0-7.268 5.912-13.181 13.183-13.181 7.282 0 13.204 5.913 13.204 13.182 0 7.28-5.923 13.203-13.204 13.203-7.271 0-13.183-5.922-13.183-13.203zm-8.605 29.036c1.037-6.516 6.696-11.513 13.502-11.513h16.592c6.803 0 12.463 4.997 13.501 11.513H92.812zM95.859 135.95a2.159 2.159 0 0 0-2.876 1.022c-2.02 4.238-7.358 7.086-13.28 7.086-5.516 0-10.574-2.453-12.89-6.249a2.157 2.157 0 0 0-2.968-.718 2.159 2.159 0 0 0-.72 2.967c3.13 5.131 9.481 8.319 16.578 8.319 7.554 0 14.458-3.838 17.177-9.549a2.158 2.158 0 0 0-1.021-2.878zM31.109 67.657a2.159 2.159 0 0 0 1.802-3.345c-2.232-3.395-1.937-8.637.736-13.043 2.488-4.103 6.584-6.761 10.436-6.77a2.16 2.16 0 0 0-.007-4.319h-.005c-5.407.014-10.815 3.405-14.119 8.85-3.573 5.893-3.83 12.822-.652 17.655.418.63 1.107.972 1.809.972zM115.815 44.498c3.852.01 7.949 2.668 10.436 6.77 2.673 4.408 2.968 9.65.736 13.045a2.16 2.16 0 0 0 3.609 2.372c3.177-4.832 2.922-11.762-.652-17.656-3.304-5.444-8.713-8.835-14.119-8.849h-.005a2.161 2.161 0 0 0-2.16 2.153 2.162 2.162 0 0 0 2.155 2.165z" fill="#FAD54D"/>
        <path fill="#000" fill-opacity=".01" d="M0 0h160v160H0z"/>
    </g>
    <defs>
        <clipPath id="87vlyyk6sa">
            <path fill="#fff" d="M0 0h160v160H0z"/>
        </clipPath>
    </defs>
</svg>
