<svg width="24" height="24" viewBox="0 0 24 24" fill="none" xmlns="http://www.w3.org/2000/svg">
<g clip-path="url(#clip0_2113_79905)">
<rect width="24" height="24" fill="black" fill-opacity="0.01"/>
<path d="M3.42522 18.1141V20.3027L12.0141 16.2235L20.5701 20.312V18.1234L12.0187 14.0349L3.42522 18.1141ZM3.42522 21.8021V23.9907L12.0141 19.9115L20.5701 24V21.8114L12.0187 17.7229L3.42522 21.8021ZM0 1.62049H2.02889V0H0V1.62049ZM21.9711 0V1.62049H24V0H21.9711ZM10.4116 8.46566L12.0187 8.1071L13.5931 8.48894L13.7384 6.84051L14.6193 5.42026L13.0871 4.7823L11.9906 3.54831L10.9036 4.79627L9.40882 5.42491L10.2476 6.85448L10.4116 8.46566ZM3.42522 0V16.5541L12.0141 12.475L20.5701 16.5634V0C20.5701 0 3.39242 0.032596 3.42522 0ZM11.9766 1.42026L13.9258 3.6135L16.6763 4.75902L15.1066 7.28754L14.8489 10.2258L12.0047 9.53667L9.17454 10.17L8.87934 7.28289L7.3893 4.74971L10.0508 3.62747L11.9766 1.42026Z" fill="#FAD54D"/>
</g>
<defs>
<clipPath id="clip0_2113_79905">
<rect width="24" height="24" fill="white"/>
</clipPath>
</defs>
</svg>
