<svg width="20" height="20" viewBox="0 0 20 20" fill="none" xmlns="http://www.w3.org/2000/svg">
<g clip-path="url(#clip0_2396_121539)">
<rect width="20" height="20" fill="black" fill-opacity="0.01"/>
<path d="M10 20.0001C4.47715 20.0001 0 15.5229 0 10C0 4.47717 4.47715 0 10 0C15.5228 0 20 4.47717 20 10C20 15.5229 15.5228 20.0001 10 20.0001ZM10 18.0001C14.4183 18.0001 18 14.4184 18 10C18 5.58174 14.4183 2.00001 10 2.00001C5.58172 2.00001 2 5.58174 2 10C2 14.4184 5.58172 18.0001 10 18.0001ZM11 10H15V12H9V5.00002H11V10Z" fill="#79BCC6"/>
</g>
<defs>
<clipPath id="clip0_2396_121539">
<rect width="20" height="20" fill="white"/>
</clipPath>
</defs>
</svg>
