<svg width="131" height="146" viewBox="0 0 131 146" fill="none" xmlns="http://www.w3.org/2000/svg">
<g filter="url(#filter0_d_2113_79860)">
<path d="M61.763 69.596C61.5357 69.596 61.3407 69.531 61.2108 69.3686C61.0808 69.2062 60.9184 68.9788 60.7885 68.6214C60.626 67.7118 61.2108 66.5748 62.1204 66.25V67.1271C62.1204 67.2895 62.1854 67.4194 62.2828 67.5494C62.6077 67.8742 63.3873 68.459 65.1091 68.5564C66.8308 68.4915 67.643 67.8742 67.9353 67.5494C68.0328 67.4519 68.0978 67.2895 68.0978 67.1271V66.25C69.0399 66.5748 69.5921 67.7118 69.4297 68.6214C69.3647 68.9788 69.2023 69.2062 69.0723 69.3686C68.9099 69.531 68.715 69.596 68.5201 69.596C68.0978 69.5635 67.1882 69.596 66.7009 69.8559C65.9862 70.2457 65.1416 70.2132 65.1416 70.2132C65.1416 70.2132 64.3294 70.2457 63.5822 69.8559C63.0949 69.596 62.2178 69.596 61.763 69.596Z" fill="#FAD54D"/>
<path d="M60.8535 79.3092C60.6585 78.5946 59.619 76.2231 59.619 76.2231C61.3407 76.8078 65.1416 77.0027 65.1416 77.0027C65.1416 77.0027 68.9424 76.8078 70.6641 76.2231C70.6641 76.2231 69.5921 78.5946 69.4297 79.3092C69.4297 79.3092 65.6613 78.692 65.1416 78.757C64.6218 78.692 60.8535 79.3092 60.8535 79.3092Z" fill="#FAD54D"/>
<path d="M69.1048 73.1369C67.7729 72.6171 66.5384 72.7146 66.2136 72.8445C65.8887 73.007 65.1416 73.0719 65.1416 73.0719C65.1416 73.0719 64.3944 72.9745 64.0695 72.8445C63.7447 72.6821 62.5102 72.5846 61.1783 73.1369C59.8464 73.6567 59.1317 74.2089 59.0342 74.3389C58.9368 74.4364 58.6119 74.9236 59.5865 74.9236H70.6966C71.6712 74.9236 71.3463 74.4688 71.2489 74.3389C71.1189 74.2089 70.4042 73.6892 69.1048 73.1369Z" fill="#FAD54D"/>
<path fill-rule="evenodd" clip-rule="evenodd" d="M87.9466 32.5622C87.9466 32.5622 99.0567 34.154 106.918 37.2726C106.918 37.2726 107.243 73.9491 107.308 75.8007C107.308 78.6595 106.821 86.586 104.222 92.1736C104.067 92.5079 103.901 92.8874 103.716 93.3072C101.967 97.2927 98.6214 104.913 88.6288 112.055C85.6952 114.137 82.2409 115.637 78.4145 117.298L78.0709 117.447C75.9926 118.357 73.9571 119.236 72.1335 120.024L72.1316 120.024C68.6828 121.514 65.9927 122.675 65.2065 123.1C64.3827 122.632 61.4833 121.386 57.7949 119.802C56.1021 119.074 54.243 118.275 52.3422 117.447L51.9984 117.298L51.9974 117.298C48.1715 115.636 44.7176 114.137 41.7843 112.055C31.7917 104.913 28.4464 97.2927 26.6968 93.3072C26.5125 92.8874 26.3459 92.5079 26.1911 92.1736C23.5923 86.586 23.105 78.627 23.105 75.8007C23.105 73.8841 23.4298 37.2077 23.4298 37.2077C31.2914 34.089 42.4015 32.4972 42.4015 32.4972C40.7122 34.219 38.1459 39.839 38.1459 39.839C38.1459 39.839 35.4171 40.3588 33.8902 40.7161C32.4284 41.041 29.6346 41.8531 29.6346 41.8531C29.6346 41.8531 29.4397 76.0282 29.4072 77.1327C29.3747 78.2372 29.3098 81.3233 31.4213 88.3078C32.201 90.8417 33.338 93.0832 34.5075 95.1298C40.9072 106.435 51.4001 110.301 51.4001 110.301C38.3083 103.771 34.7349 92.0436 34.7349 92.0436C34.7349 92.0436 35.1247 91.7512 36.2617 91.0041C36.9764 90.5493 38.2433 89.8996 38.2433 89.8996C39.0555 92.4335 41.1671 94.1227 41.1671 94.1227C36.9114 87.1383 49.0286 83.11 49.0286 83.11L48.249 75.4434L45.8775 72.3573L43.8959 64.6581C32.5908 60.4675 37.2688 53.0282 37.2688 53.0282C37.5936 43.5099 40.9072 37.4026 45.1953 32.3023C53.5116 22.4591 65.1416 23.1088 65.1416 23.1088C65.1416 23.1088 76.7714 22.4591 85.0878 32.3023C89.3759 37.4026 92.6895 43.5099 93.0793 53.0932C93.0793 53.0932 97.7573 60.5324 86.4522 64.7231L84.4706 72.4223L82.0991 75.5084L81.3195 83.175C81.3195 83.175 93.4367 87.2033 89.181 94.1877C89.181 94.1877 91.2926 92.4984 92.1048 89.9646C92.1048 89.9646 93.3717 90.6142 94.0864 91.0691C95.2234 91.8162 95.6132 92.1086 95.6132 92.1086C95.6132 92.1086 92.0398 103.836 78.948 110.366C78.948 110.366 89.4084 106.467 95.8406 95.1948C97.0101 93.1482 98.1471 90.9066 98.9268 88.3728C101.065 81.4081 100.974 78.3197 100.941 77.2071L100.941 77.1976C100.908 76.0931 100.713 41.9181 100.713 41.9181C100.713 41.9181 97.9197 41.106 96.4579 40.7811C94.931 40.4237 92.2022 39.904 92.2022 39.904C92.2022 39.904 89.6358 34.284 87.9466 32.5622ZM53.2193 49.7796C42.2391 49.5523 38.7631 55.4647 38.7631 55.4647C41.5244 52.7683 47.5993 51.3065 51.9524 51.4364C57.5399 51.5664 62.9325 51.7613 64.6218 51.8263C64.9791 51.8587 65.174 51.8587 65.174 51.8587H65.2065C65.2065 51.8587 65.4014 51.8263 65.7588 51.8263C67.448 51.7613 72.8082 51.5664 78.4283 51.4364C82.7164 51.339 88.8237 52.7683 91.585 55.4647C91.585 55.4647 88.109 49.5523 77.1288 49.7796C75.9369 49.8053 74.5021 49.8512 72.9344 49.9012L72.9287 49.9015L72.9211 49.9017L72.9142 49.9019C70.5135 49.9786 67.8023 50.0653 65.174 50.1045C62.5458 50.0653 59.8346 49.9786 57.4339 49.9019L57.427 49.9017L57.4194 49.9015C55.8495 49.8513 54.4127 49.8053 53.2193 49.7796ZM76.0568 74.9236C76.5765 72.2923 76.8364 69.4985 76.8364 69.4985C76.8364 69.4985 79.6952 66.8672 80.6373 63.6836C80.6373 63.6836 76.4791 61.9293 68.3901 61.9618L68.1952 65.0155C68.1952 65.0155 67.6754 63.6511 67.0257 61.6045C66.7659 60.7273 66.3435 59.8827 65.6613 59.6553C65.4989 59.5903 65.304 59.5903 65.1091 59.6229C64.9141 59.5903 64.7192 59.5903 64.5568 59.6553C63.8746 59.8502 63.4848 60.7273 63.1924 61.6045C62.5427 63.6511 62.0229 65.0155 62.0229 65.0155L61.828 61.9618C53.7391 61.9618 49.5809 63.6836 49.5809 63.6836C50.5879 66.8672 53.4467 69.4985 53.4467 69.4985C53.4467 69.4985 53.7066 72.2923 54.2264 74.9236C54.4862 76.3205 54.7786 77.6525 55.2659 78.4971C56.5653 80.8036 57.4749 82.2005 59.0018 82.8827C60.3661 83.5324 65.1416 83.5649 65.1416 83.5649C65.1416 83.5649 69.917 83.4999 71.2814 82.8827C72.8082 82.2005 73.7178 80.8036 75.0172 78.4971C75.472 77.6525 75.7969 76.3205 76.0568 74.9236Z" fill="#FAD54D"/>
<path d="M40.16 72.9095L38.1783 68.8813L36.1967 72.9095L31.7787 73.5268L34.9623 76.6454L34.2151 81.0635L38.1783 78.9844L42.1416 81.0635L41.362 76.6454L44.5781 73.5268L40.16 72.9095Z" fill="#FAD54D"/>
<path d="M92.1047 68.8813L94.0864 72.9095L98.5369 73.5268L95.3208 76.6454L96.068 81.0635L92.1047 78.9844L88.1415 81.0635L88.9211 76.6454L85.705 73.5268L90.1231 72.9095L92.1047 68.8813Z" fill="#FAD54D"/>
</g>
<defs>
<filter id="filter0_d_2113_79860" x="0.247837" y="0.242863" width="129.917" height="145.714" filterUnits="userSpaceOnUse" color-interpolation-filters="sRGB">
<feFlood flood-opacity="0" result="BackgroundImageFix"/>
<feColorMatrix in="SourceAlpha" type="matrix" values="0 0 0 0 0 0 0 0 0 0 0 0 0 0 0 0 0 0 127 0" result="hardAlpha"/>
<feOffset/>
<feGaussianBlur stdDeviation="11.4286"/>
<feComposite in2="hardAlpha" operator="out"/>
<feColorMatrix type="matrix" values="0 0 0 0 0.780392 0 0 0 0 0.164706 0 0 0 0 0.913725 0 0 0 1 0"/>
<feBlend mode="normal" in2="BackgroundImageFix" result="effect1_dropShadow_2113_79860"/>
<feBlend mode="normal" in="SourceGraphic" in2="effect1_dropShadow_2113_79860" result="shape"/>
</filter>
</defs>
</svg>
