<svg width="32" height="32" viewBox="0 0 32 32" fill="none" xmlns="http://www.w3.org/2000/svg">
    <path d="M15.99 9.329c-1.485 0-2.975 0-4.466.006-.406 0-.644.15-.745.451-.1.313.02.557.25.776.737.677 1.47 1.354 2.205 2.032.734.678 1.469 1.356 2.204 2.032.401.37.714.363 1.121-.006.372-.334.738-.674 1.104-1.013l.55-.509 1.377-1.27c.459-.425.917-.85 1.378-1.272.238-.22.35-.47.238-.783-.12-.319-.376-.432-.69-.444H15.99z" fill="#FAD54D"/>
    <path fill-rule="evenodd" clip-rule="evenodd" d="M4.511 32h22.982c.219-.113.388-.276.507-.495v-1.252c-.058-.03-.062-.08-.066-.132a.346.346 0 0 0-.01-.062c-.137-.532-.369-1.027-.813-1.334-.395-.269-.457-.588-.451-1.02.019-.927.031-1.853-.031-2.78-.126-1.853-.764-3.519-1.879-5.003-.616-.816-1.378-1.487-2.142-2.158-.308-.27-.615-.541-.914-.822l-.142-.13a18.75 18.75 0 0 0-.697-.615c-.175-.144-.17-.225 0-.375.287-.258.576-.512.864-.766.76-.668 1.517-1.335 2.23-2.052 1.446-1.459 2.31-3.212 2.604-5.24.137-.93.125-1.867.113-2.803-.004-.312-.008-.624-.006-.935 0-.257.05-.432.282-.595.513-.357.82-.87.977-1.478.005-.02.007-.04.01-.06.005-.052.011-.102.065-.134V.507C27.812.113 27.499 0 27.086 0c-7.39.006-14.779.006-22.168.006-.695 0-.89.22-.914.914-.044 1.096.288 2.01 1.227 2.636.11.079.106.18.102.28l-.002.058c.007.38.006.76.004 1.14-.002.684-.004 1.367.04 2.047.125 1.86.764 3.525 1.879 5.009.621.824 1.391 1.502 2.162 2.18.324.286.649.572.963.87l.096.089c.219.203.44.407.674.593.188.15.15.231-.006.375-.312.281-.627.559-.943.837-.731.644-1.464 1.29-2.15 1.98-1.441 1.447-2.3 3.194-2.6 5.21-.14.938-.127 1.884-.114 2.83.005.324.01.647.008.97 0 .238-.056.388-.263.539-.676.5-1.027 1.19-1.065 2.028a4.562 4.562 0 0 0 0 .217c0 .096.001.191-.006.284-.031.413.113.726.501.908zM8.3 4c2.567.007 5.14.007 7.708.007h7.69c.238 0 .32.056.307.307-.016.378-.011.756-.007 1.135.008.682.015 1.365-.093 2.045-.257 1.603-1.021 2.924-2.223 4.008l-1.857 1.671-1.857 1.672c-.852.764-.852 1.559 0 2.329l1.107.993c.974.87 1.946 1.74 2.895 2.638 1.352 1.284 1.991 2.912 2.022 4.777.006.36.005.719.003 1.077-.001.359-.003.717.003 1.077.007.226-.068.276-.281.27a4.17 4.17 0 0 0-.473.017c-.319.024-.634.047-.88-.074-.26-.128-.443-.415-.625-.7a5.154 5.154 0 0 0-.233-.345 2462.893 2462.893 0 0 1-3.4-4.53l-1.453-1.938c-.42-.557-.89-.564-1.309-.006a2033.93 2033.93 0 0 0-5.504 7.344c-.125.169-.257.238-.463.232-.282-.014-.564-.011-.846-.009L8.193 28h-.028c-.086.002-.172.004-.166-.131.01-.376.006-.752 0-1.13-.013-.935-.026-1.87.207-2.79.344-1.358 1.064-2.498 2.104-3.43 1.27-1.14 2.542-2.28 3.807-3.425.52-.476.676-1.034.445-1.597-.107-.27-.307-.463-.52-.651-.369-.333-.738-.663-1.107-.993-.974-.87-1.946-1.74-2.895-2.639-1.377-1.308-2.016-2.948-2.035-4.84a57.954 57.954 0 0 1 0-.835c.003-.42.005-.838-.006-1.255-.006-.245.081-.282.3-.282z" fill="#FAD54D"/>
</svg>
