<svg width="24" height="24" viewBox="0 0 24 24" fill="none" xmlns="http://www.w3.org/2000/svg">
<path d="M8.98031 6.27515C9.07943 6.05842 9.11483 5.94328 8.77499 5.95005C7.52892 5.9636 6.28285 5.9636 5.03678 5.95005C4.72527 5.94328 4.75359 6.05164 4.84563 6.26161C5.19962 7.05404 6.0209 7.58233 6.92713 7.58233C7.8192 7.57556 8.62631 7.06082 8.98031 6.27515ZM3.7978 4.87992C3.96771 4.87315 4.11639 4.90024 4.10223 4.64287C4.08099 4.23649 4.09515 3.83011 4.09515 3.43051C4.09515 2.89544 4.27923 2.71257 4.82439 2.71257C5.51822 2.71257 6.21205 2.71257 6.90589 2.71257C7.61388 2.71257 8.3148 2.71257 9.02279 2.71257C9.5467 2.71257 9.73786 2.90222 9.73786 3.41019C9.73786 3.81657 9.75202 4.22294 9.73078 4.62255C9.71662 4.84606 9.81574 4.87992 10.0211 4.87992C10.2193 4.87992 10.3113 4.85283 10.3113 4.62932C10.2972 3.61338 10.3184 2.60421 10.2972 1.58826C10.283 0.721321 9.55378 0.0237054 8.64755 0.0101594C7.49352 0.00338648 6.32533 -0.00338648 5.16422 0.0169324C4.27923 0.0304783 3.55 0.728094 3.53584 1.57471C3.5146 2.59743 3.53584 3.62015 3.52168 4.64964C3.52168 4.85283 3.60664 4.88669 3.7978 4.87992ZM10.3113 9.07239C10.3113 9.38394 10.3113 9.6955 10.3113 10.0138C10.6724 10.0071 11.0406 10.0071 11.4087 10.0003C11.3308 9.53972 11.0618 9.17398 10.6229 8.90984C10.5379 8.85565 10.4459 8.76083 10.3397 8.82179C10.2689 8.87597 10.3113 8.99111 10.3113 9.07239ZM5.99966 8.65924C5.78018 8.65246 5.7731 8.74051 5.81558 8.90306C5.93594 9.38394 6.40321 9.74291 6.92005 9.74291C7.43688 9.74291 7.90416 9.38394 8.02452 8.90306C8.067 8.74051 8.05284 8.65246 7.84044 8.65924C7.22449 8.66601 6.61561 8.66601 5.99966 8.65924ZM9.17855 9.14012C9.05111 9.47876 8.87411 9.77678 8.66879 10.0206C8.84579 10.0206 9.01571 10.0409 9.17855 10.0748V9.14012ZM2.46677 12.9872C2.46677 12.8517 2.46677 12.7095 2.47385 12.574C2.48801 11.768 2.89864 11.0433 3.52876 10.5692C3.52876 10.068 3.52876 9.57359 3.52876 9.07239C3.52876 8.98434 3.57832 8.8692 3.49336 8.82179C3.39424 8.76083 3.29512 8.86243 3.21016 8.90984C2.68625 9.22817 2.40305 9.68873 2.40305 10.2847C2.39597 11.1856 2.40305 12.0864 2.40305 12.9804H2.46677V12.9872ZM4.66155 10.068C4.81731 10.0341 4.98015 10.0206 5.15006 10.0138C5.15714 10.0138 5.15714 10.0138 5.16422 10.0138C4.94475 9.75646 4.78899 9.45845 4.66155 9.13334V10.068ZM5.47574 4.87992C5.95718 4.86638 6.43861 4.87315 6.92005 4.87315C7.20325 4.87315 7.48644 4.87315 7.76964 4.87315C8.63339 4.87315 8.62631 4.87315 8.61923 4.04685C8.61923 3.83688 8.55551 3.7827 8.34312 3.7827C7.57848 3.80302 6.81385 3.79625 6.04922 3.79625C5.19254 3.79625 5.19962 3.79625 5.21378 4.63609C5.22086 4.82574 5.2775 4.88669 5.47574 4.87992ZM13.9433 4.87992C14.1133 4.87315 14.2619 4.90024 14.2478 4.64287C14.2265 4.23649 14.2407 3.83011 14.2407 3.43051C14.2407 2.89544 14.4248 2.71935 14.977 2.71257C15.6708 2.71257 16.3647 2.71257 17.0585 2.71257C17.7665 2.71257 18.4674 2.71257 19.1754 2.71257C19.6993 2.71257 19.8905 2.90222 19.8905 3.41019C19.8905 3.81657 19.9047 4.22294 19.8834 4.62255C19.8693 4.84606 19.9684 4.87992 20.1737 4.87992C20.3719 4.87992 20.464 4.85283 20.464 4.62932C20.4498 3.61338 20.471 2.60421 20.4498 1.58826C20.4356 0.721321 19.7064 0.0237054 18.8002 0.0101594C17.6391 -0.00338648 16.4709 -0.00338648 15.3027 0.0101594C14.4177 0.0237054 13.6885 0.721321 13.6743 1.56794C13.6531 2.59066 13.6743 3.61338 13.6601 4.64287C13.6672 4.85283 13.7593 4.88669 13.9433 4.87992ZM3.49336 19.8414C3.39424 19.7804 3.29512 19.882 3.21016 19.9295C2.68625 20.2478 2.40305 20.7083 2.40305 21.3044C2.39597 22.2052 2.40305 23.106 2.40305 24H3.53584C3.53584 22.6996 3.53584 21.3924 3.53584 20.092C3.52876 20.004 3.57124 19.8888 3.49336 19.8414ZM19.1329 6.27515C19.2321 6.05842 19.2675 5.94328 18.9276 5.95005C17.6816 5.9636 16.4355 5.9636 15.1894 5.95005C14.8779 5.94328 14.9062 6.05164 14.9983 6.26161C15.3523 7.05404 16.1735 7.58233 17.0798 7.58233C17.9647 7.57556 18.7719 7.06082 19.1329 6.27515ZM13.6743 9.07239C13.6743 8.98434 13.7239 8.8692 13.6389 8.82179C13.5398 8.76083 13.4407 8.86243 13.3557 8.90984C12.9168 9.17398 12.6548 9.53972 12.5698 10.0003C12.9309 10.0003 13.2991 10.0071 13.6672 10.0071C13.6743 9.70227 13.6743 9.39072 13.6743 9.07239ZM16.1523 8.65924C15.9328 8.65246 15.9257 8.74051 15.9682 8.90306C16.0886 9.38394 16.5558 9.74291 17.0727 9.74291C17.5895 9.74291 18.0568 9.38394 18.1771 8.90306C18.2196 8.74051 18.2055 8.65246 17.9931 8.65924C17.37 8.66601 16.7612 8.66601 16.1523 8.65924ZM20.464 9.07239C20.464 9.56681 20.464 10.0612 20.464 10.5557C21.0941 11.023 21.5047 11.7545 21.5189 12.5876C21.5189 12.7162 21.526 12.8517 21.526 12.9872H21.5968C21.5968 12.0864 21.6038 11.1856 21.5968 10.2915C21.5897 9.6955 21.3136 9.23494 20.7896 8.91661C20.7047 8.86243 20.6126 8.7676 20.5064 8.82856C20.4144 8.87597 20.464 8.99111 20.464 9.07239ZM19.3312 9.14012C19.2037 9.47876 19.0267 9.77678 18.8214 10.0206C18.9984 10.0206 19.1683 10.0409 19.3312 10.0748V9.14012ZM14.8071 10.068C14.9629 10.0341 15.1257 10.0206 15.2956 10.0138C15.3027 10.0138 15.3027 10.0138 15.3098 10.0138C15.0903 9.75646 14.9345 9.45845 14.8071 9.13334V10.068ZM15.6284 4.87992C16.1098 4.86638 16.5912 4.87315 17.0727 4.87315C17.3559 4.87315 17.6391 4.87315 17.9223 4.87315C18.786 4.87315 18.7789 4.87315 18.7719 4.04685C18.7719 3.83688 18.7081 3.7827 18.4957 3.7827C17.724 3.80302 16.9665 3.79625 16.2018 3.79625C15.3452 3.79625 15.3523 3.79625 15.3664 4.63609C15.3735 4.82574 15.4301 4.88669 15.6284 4.87992ZM17.0727 18.5952C17.9647 18.5952 18.7719 18.0737 19.1259 17.2948C19.225 17.078 19.2604 16.9629 18.9205 16.9697C17.6745 16.9832 16.4284 16.9832 15.1823 16.9697H15.1753C15.1965 17.1729 15.154 17.3557 15.1045 17.498C15.508 18.1617 16.2585 18.5952 17.0727 18.5952ZM17.5754 21.7852C17.5754 22.2593 17.5754 22.7335 17.5754 23.194C17.5754 23.4649 17.5754 23.7291 17.5754 24H19.3241V20.153C18.9843 21.0402 18.3754 21.6159 17.5754 21.7852ZM18.1701 19.9159C18.2125 19.7534 18.1984 19.6653 17.986 19.6721C17.6532 19.6788 17.3205 19.6788 16.9877 19.6788C17.2284 19.9701 17.4054 20.302 17.4975 20.6677C17.8231 20.539 18.0851 20.2613 18.1701 19.9159ZM17.0727 15.8928C17.3559 15.8928 17.6391 15.8928 17.9223 15.8928C18.786 15.8928 18.7789 15.8928 18.7719 15.0665C18.7719 14.8565 18.7081 14.8023 18.4957 14.8023C17.8161 14.8159 17.1364 14.8091 16.4496 14.8091C16.4496 15.08 16.4496 15.3577 16.4567 15.6286C16.4567 15.7167 16.4496 15.8047 16.4355 15.886C16.6479 15.8928 16.8603 15.8928 17.0727 15.8928ZM4.82439 13.7322C5.51822 13.7322 6.21205 13.7322 6.90589 13.7322C7.11829 13.7322 7.3236 13.7322 7.536 13.7322C7.536 13.3461 7.536 12.9601 7.54308 12.574C7.55016 11.9983 7.76964 11.4565 8.12364 11.0298C7.13953 11.023 6.14833 11.023 5.16422 11.0365C4.27923 11.0501 3.55 11.7477 3.53584 12.5943C3.5146 13.617 3.53584 14.6398 3.52168 15.6693C3.52168 15.8792 3.60664 15.9131 3.79072 15.9063C3.96063 15.8995 4.10931 15.9266 4.09515 15.6693C4.07391 15.2629 4.08807 14.8565 4.08807 14.4569C4.09515 13.9083 4.27923 13.7322 4.82439 13.7322ZM20.7755 19.9295C20.6905 19.8753 20.5985 19.7804 20.4923 19.8414C20.4073 19.8888 20.4569 20.004 20.4569 20.092C20.4569 21.3924 20.4569 22.6996 20.4569 24H21.5897C21.5897 23.0992 21.5968 22.1984 21.5897 21.3044C21.5826 20.7083 21.3065 20.2478 20.7755 19.9295ZM20.4569 12.6079C20.4427 11.7409 19.7135 11.0433 18.8073 11.0298C17.8302 11.0162 16.8532 11.0162 15.8762 11.023C16.2231 11.4565 16.4355 11.9983 16.4426 12.5876C16.4496 12.9668 16.4496 13.3529 16.4496 13.7254C16.655 13.7254 16.8532 13.7254 17.0585 13.7254C17.7665 13.7254 18.4674 13.7254 19.1754 13.7254C19.6993 13.7254 19.8905 13.9151 19.8905 14.423C19.8905 14.8294 19.9047 15.2358 19.8834 15.6354C19.8693 15.8589 19.9684 15.8928 20.1737 15.8928C20.3719 15.8928 20.464 15.8657 20.464 15.6422C20.4498 14.633 20.471 13.617 20.4569 12.6079ZM5.81558 19.9159C5.90054 20.2546 6.16249 20.539 6.49525 20.6677C6.58729 20.302 6.75721 19.9701 7.00501 19.6788C6.67225 19.6788 6.33949 19.6788 6.00674 19.6721C5.78726 19.6721 5.7731 19.7601 5.81558 19.9159ZM6.41029 21.7785C6.10586 21.7107 5.82266 21.5821 5.5607 21.3924C5.11466 21.0741 4.85271 20.6406 4.66155 20.1462V23.9932H6.41029C6.41029 23.7291 6.41029 23.4582 6.41029 23.194C6.41029 22.7335 6.41029 22.2593 6.41029 21.7785ZM8.80331 16.9697C8.79623 16.9697 8.78915 16.9697 8.77499 16.9697C7.52892 16.9832 6.28285 16.9832 5.03678 16.9697C4.72527 16.9629 4.75359 17.0713 4.84563 17.2812C5.19962 18.0737 6.0209 18.6019 6.92713 18.6019C7.73424 18.6019 8.47763 18.1685 8.87411 17.5047C8.82455 17.3625 8.78207 17.1729 8.80331 16.9697ZM6.04922 14.8091C5.19254 14.8091 5.19962 14.8091 5.21378 15.6489C5.22086 15.8386 5.2775 15.8995 5.47574 15.8928C5.95718 15.8792 6.43861 15.886 6.92005 15.886C7.13245 15.886 7.33776 15.886 7.55016 15.886C7.536 15.8115 7.52892 15.7302 7.536 15.6422C7.536 15.3645 7.54308 15.08 7.536 14.8023C7.04041 14.8159 6.54481 14.8091 6.04922 14.8091ZM10.5521 15.8928C11.0335 15.8792 11.5149 15.886 11.9964 15.886C12.2796 15.886 12.5628 15.886 12.846 15.886C13.7097 15.886 13.7026 15.886 13.6955 15.0597C13.6955 14.8497 13.6318 14.7955 13.4194 14.7955C12.6548 14.8091 11.8902 14.8023 11.1255 14.8023C10.2689 14.8023 10.2759 14.8023 10.2901 15.6422C10.2972 15.8454 10.3538 15.8995 10.5521 15.8928ZM15.3877 15.6422C15.3735 14.6262 15.3947 13.617 15.3735 12.6011C15.3593 11.7342 14.6301 11.0365 13.7239 11.023C12.5628 11.0095 11.3946 11.0095 10.2264 11.023C9.34139 11.0365 8.61215 11.7342 8.59799 12.5808C8.57675 13.6035 8.59799 14.6262 8.58383 15.6557C8.58383 15.8657 8.66879 15.8995 8.85287 15.8928C9.02279 15.886 9.17147 15.9131 9.15731 15.6557C9.13607 15.2493 9.15023 14.843 9.15023 14.4433C9.15023 13.9083 9.33431 13.7322 9.88654 13.7254C10.5804 13.7254 11.2742 13.7254 11.968 13.7254C12.676 13.7254 13.3769 13.7254 14.0849 13.7254C14.6089 13.7254 14.8 13.9151 14.8 14.423C14.8 14.8294 14.8142 15.2358 14.7929 15.6354C14.7788 15.8589 14.8779 15.8928 15.0832 15.8928C15.2956 15.8995 15.3947 15.8724 15.3877 15.6422ZM12.1167 21.8327C11.5645 21.8597 11.0689 21.7107 10.6299 21.3924C10.1839 21.0741 9.92194 20.6406 9.73078 20.1462V23.9932H14.2549V20.1462C13.8584 21.1824 13.1008 21.792 12.1167 21.8327ZM9.92194 17.2744C10.2759 18.0669 11.0972 18.5952 12.0034 18.5952C12.8955 18.5952 13.7026 18.0737 14.0566 17.2948C14.1557 17.078 14.1911 16.9629 13.8513 16.9697C12.6052 16.9832 11.3592 16.9832 10.1131 16.9697C9.80866 16.9629 9.8299 17.0713 9.92194 17.2744ZM11.076 19.6721C10.8565 19.6653 10.8494 19.7534 10.8919 19.9159C11.0123 20.3968 11.4795 20.7558 11.9964 20.7558C12.5132 20.7558 12.9805 20.3968 13.1008 19.9159C13.1433 19.7534 13.1292 19.6653 12.9168 19.6721C12.3008 19.6856 11.6848 19.6856 11.076 19.6721ZM8.56259 19.8414C8.46347 19.7804 8.36435 19.882 8.2794 19.9295C7.75548 20.2478 7.47228 20.7083 7.47228 21.3044C7.4652 22.2052 7.47228 23.106 7.47228 24H8.60507C8.60507 22.6996 8.60507 21.3924 8.60507 20.092C8.59799 20.004 8.64755 19.8888 8.56259 19.8414ZM15.6992 19.9295C15.6142 19.8753 15.5222 19.7804 15.416 19.8414C15.331 19.8888 15.3806 20.004 15.3806 20.092C15.3806 21.3924 15.3806 22.6996 15.3806 24H16.5134C16.5134 23.0992 16.5204 22.1984 16.5134 21.3044C16.5063 20.7083 16.2302 20.2478 15.6992 19.9295Z" fill="#FAD54D"/>
</svg>
