<svg width="20" height="20" viewBox="0 0 20 20" fill="none" xmlns="http://www.w3.org/2000/svg">
<g clip-path="url(#clip0_2396_121542)">
<rect width="20" height="20" fill="black" fill-opacity="0.01"/>
<path d="M5.0943 3.6801L16.3199 14.9058C17.3736 13.5506 18 11.8491 18 10C18 5.58174 14.4183 2.00001 10 2.00001C8.1509 2.00001 6.44939 2.62645 5.0943 3.6801ZM14.9057 16.32L3.68009 5.09432C2.62644 6.44941 2 8.15093 2 10C2 14.4184 5.58172 18.0001 10 18.0001C11.8491 18.0001 13.5506 17.3737 14.9057 16.32ZM2.92893 2.92894C4.73748 1.12038 7.23885 0 10 0C15.5228 0 20 4.47717 20 10C20 12.7611 18.8796 15.2626 17.0711 17.0712C15.2625 18.8797 12.7611 20.0001 10 20.0001C4.47715 20.0001 0 15.5229 0 10C0 7.23888 1.12038 4.7375 2.92893 2.92894Z" fill="#DF4328"/>
</g>
<defs>
<clipPath id="clip0_2396_121542">
<rect width="20" height="20" fill="white"/>
</clipPath>
</defs>
</svg>
