<svg width="4" height="28" viewBox="0 0 4 28" fill="none" xmlns="http://www.w3.org/2000/svg">
<path d="M2 0.666667C1.26362 0.666667 0.666667 1.26362 0.666667 2C0.666667 2.73638 1.26362 3.33333 2 3.33333C2.73638 3.33333 3.33333 2.73638 3.33333 2C3.33333 1.26362 2.73638 0.666667 2 0.666667ZM2 24.6667C1.26362 24.6667 0.666666 25.2636 0.666666 26C0.666666 26.7364 1.26362 27.3333 2 27.3333C2.73638 27.3333 3.33333 26.7364 3.33333 26C3.33333 25.2636 2.73638 24.6667 2 24.6667ZM1.75 2L1.75 2.5L2.25 2.5L2.25 2L1.75 2ZM1.75 3.5L1.75 4.5L2.25 4.5L2.25 3.5L1.75 3.5ZM1.75 5.5L1.75 6.5L2.25 6.5L2.25 5.5L1.75 5.5ZM1.75 7.5L1.75 8.5L2.25 8.5L2.25 7.5L1.75 7.5ZM1.75 9.5L1.75 10.5L2.25 10.5L2.25 9.5L1.75 9.5ZM1.75 11.5L1.75 12.5L2.25 12.5L2.25 11.5L1.75 11.5ZM1.75 13.5L1.75 14.5L2.25 14.5L2.25 13.5L1.75 13.5ZM1.75 15.5L1.75 16.5L2.25 16.5L2.25 15.5L1.75 15.5ZM1.75 17.5L1.75 18.5L2.25 18.5L2.25 17.5L1.75 17.5ZM1.75 19.5L1.75 20.5L2.25 20.5L2.25 19.5L1.75 19.5ZM1.75 21.5L1.75 22.5L2.25 22.5L2.25 21.5L1.75 21.5ZM1.75 23.5L1.75 24.5L2.25 24.5L2.25 23.5L1.75 23.5ZM1.75 25.5L1.75 26L2.25 26L2.25 25.5L1.75 25.5Z" fill="#25293E"/>
</svg>
