<svg width="320" height="347" viewBox="0 0 320 347" fill="none" xmlns="http://www.w3.org/2000/svg">
<g clip-path="url(#clip0_2419_135009)">
<g filter="url(#filter0_di_2419_135009)">
<path fill-rule="evenodd" clip-rule="evenodd" d="M181.314 44.5665C178.87 44.204 176.683 42.8046 175.412 40.6863L161.715 17.8584C160.938 16.5637 159.062 16.5637 158.285 17.8584L144.588 40.6863C143.317 42.8046 141.13 44.204 138.686 44.5665C69.2643 54.8661 16 114.713 16 187C16 266.529 80.4709 331 160 331C239.529 331 304 266.529 304 187C304 114.713 250.736 54.8661 181.314 44.5665ZM296 187C296 262.111 235.111 323 160 323C84.8893 323 24 262.111 24 187C24 111.889 84.8893 51.0001 160 51.0001C235.111 51.0001 296 111.889 296 187Z" fill="url(#paint0_linear_2419_135009)"/>
</g>
</g>
<defs>
<filter id="filter0_di_2419_135009" x="0" y="0.887329" width="320" height="346.113" filterUnits="userSpaceOnUse" color-interpolation-filters="sRGB">
<feFlood flood-opacity="0" result="BackgroundImageFix"/>
<feColorMatrix in="SourceAlpha" type="matrix" values="0 0 0 0 0 0 0 0 0 0 0 0 0 0 0 0 0 0 127 0" result="hardAlpha"/>
<feOffset/>
<feGaussianBlur stdDeviation="8"/>
<feColorMatrix type="matrix" values="0 0 0 0 0.0745098 0 0 0 0 0.027451 0 0 0 0 0.105882 0 0 0 0.5 0"/>
<feBlend mode="normal" in2="BackgroundImageFix" result="effect1_dropShadow_2419_135009"/>
<feBlend mode="normal" in="SourceGraphic" in2="effect1_dropShadow_2419_135009" result="shape"/>
<feColorMatrix in="SourceAlpha" type="matrix" values="0 0 0 0 0 0 0 0 0 0 0 0 0 0 0 0 0 0 127 0" result="hardAlpha"/>
<feOffset/>
<feGaussianBlur stdDeviation="2"/>
<feComposite in2="hardAlpha" operator="arithmetic" k2="-1" k3="1"/>
<feColorMatrix type="matrix" values="0 0 0 0 0.980392 0 0 0 0 0.835294 0 0 0 0 0.301961 0 0 0 1 0"/>
<feBlend mode="normal" in2="shape" result="effect2_innerShadow_2419_135009"/>
</filter>
<linearGradient id="paint0_linear_2419_135009" x1="198.88" y1="331" x2="170.043" y2="17.6539" gradientUnits="userSpaceOnUse">
<stop stop-color="#E3A406"/>
<stop offset="1" stop-color="#FBD851"/>
</linearGradient>
<clipPath id="clip0_2419_135009">
<rect width="320" height="347" fill="white"/>
</clipPath>
</defs>
</svg>
