<svg width="174" height="64" viewBox="0 0 174 64" fill="none" xmlns="http://www.w3.org/2000/svg">
<path d="M71.8118 1.10986C61.072 6.62905 53.7249 17.8188 53.7249 30.7245C53.7249 49.102 68.6227 63.9999 87.0002 63.9999C105.378 63.9999 120.275 49.102 120.275 30.7245C120.275 17.9119 113.034 6.79058 102.42 1.23019V2.5459C112.37 8.00247 119.116 18.5757 119.116 30.7245C119.116 48.4617 104.737 62.8405 87.0002 62.8405C69.2631 62.8405 54.8843 48.4617 54.8843 30.7245C54.8843 18.4816 61.7348 7.8387 71.8118 2.41997V1.10986Z" fill="url(#paint0_linear_2132_82368)" fill-opacity="0.5"/>
<path d="M119.274 28.6539L121.898 30.8406L119.275 33.0269C118.684 41.8536 114.542 49.7159 108.24 55.2079V56.988C105.922 58.8838 103.348 60.479 100.565 61.6811V59.115C111.093 54.0288 118.351 43.2785 118.351 30.8406C118.351 18.4026 111.093 7.65235 100.565 2.56619L100.565 0C103.348 1.2253 105.922 2.79738 108.24 4.69313V6.47328C114.52 11.9652 118.681 19.8273 119.274 28.6539Z" fill="url(#paint1_linear_2132_82368)"/>
<path fill-rule="evenodd" clip-rule="evenodd" d="M86.9653 1.62331C78.3263 1.61432 70.5668 5.38949 65.2426 11.3817H63.7135C59.3575 16.6202 56.7393 23.3653 56.7393 30.7131C56.7393 38.0609 59.3575 44.806 63.7135 50.0445H65.2345C70.5642 56.0463 78.3386 59.8262 87.0004 59.8262L87.0346 59.8262C95.6736 59.8352 103.433 56.06 108.757 50.0677H110.286C114.642 44.8293 117.261 38.0841 117.261 30.7363C117.261 23.3885 114.643 16.6434 110.286 11.4049H108.766C103.436 5.40311 95.6614 1.62329 86.9996 1.62329L86.9653 1.62331ZM103.654 7.98218C110.63 13.1145 115.152 21.389 115.152 30.7132C115.152 46.2664 102.548 58.899 86.9772 58.899C80.7514 58.899 75.0034 56.883 70.3465 53.4674C63.3696 48.3352 58.8478 40.0606 58.8478 30.7363C58.8478 15.1831 71.4524 2.55045 87.0228 2.55045C93.2487 2.55045 98.9968 4.56651 103.654 7.98218Z" fill="url(#paint2_linear_2132_82368)"/>
<path d="M52.1016 30.8406L54.7256 33.0273C55.3193 41.8538 59.4795 49.716 65.7595 55.2079V56.988C68.0783 58.8838 70.6523 60.4559 73.4349 61.6812V59.115C62.9073 54.0288 55.6494 43.2785 55.6494 30.8406C55.6494 18.4026 62.9073 7.65235 73.4349 2.56619V2.04792e-06C70.6523 1.20218 68.0783 2.79738 65.7595 4.69313V6.47328C59.458 11.9652 55.316 19.8275 54.7252 28.6542L52.1016 30.8406Z" fill="url(#paint3_linear_2132_82368)"/>
<path d="M106.581 54.2607C107.843 53.1974 109.019 52.0339 110.094 50.7825H109.065C107.923 52.0444 106.676 53.2085 105.336 54.2607H106.581Z" fill="url(#paint4_linear_2132_82368)"/>
<path d="M103.414 55.652H104.801C99.7619 59.2992 93.5684 61.4491 86.8727 61.4491C80.177 61.4491 73.9835 59.2992 68.9448 55.652H70.3319C75.0697 58.8021 80.7569 60.6375 86.8728 60.6375C92.9886 60.6375 98.6758 58.8021 103.414 55.652Z" fill="url(#paint5_linear_2132_82368)"/>
<path d="M68.409 54.2607C67.0696 53.2085 65.8222 52.0444 64.6809 50.7825H63.6512C64.7269 52.0339 65.902 53.1974 67.1643 54.2607H68.409Z" fill="url(#paint6_linear_2132_82368)"/>
<path d="M63.6958 10.6667C64.7715 9.41532 65.9466 8.25181 67.2089 7.18849H68.4535C67.1141 8.24073 65.8667 9.40484 64.7254 10.6667H63.6958Z" fill="url(#paint7_linear_2132_82368)"/>
<path d="M68.9893 5.79719L70.3765 5.79719C75.1142 2.64712 80.8014 0.811702 86.9173 0.811702C93.0332 0.811701 98.7204 2.64712 103.458 5.79719H104.845C99.8066 2.15 93.613 8.26156e-05 86.9173 8.29083e-05C80.2216 8.3201e-05 74.0281 2.15001 68.9893 5.79719Z" fill="url(#paint8_linear_2132_82368)"/>
<path d="M109.109 10.6667C107.968 9.40484 106.72 8.24073 105.381 7.18849H106.626C107.888 8.25181 109.063 9.41531 110.139 10.6667H109.109Z" fill="url(#paint9_linear_2132_82368)"/>
<g filter="url(#filter0_i_2132_82368)">
<path d="M12.912 7.3523L1.10156 0L4.34364 5.38293L15.3436 15.0985L20.7856 18.9059H23.4488L19.1646 15.0985L12.912 7.3523Z" fill="url(#paint10_linear_2132_82368)" fill-opacity="0.6"/>
<path d="M34.2171 18.2495L15.3436 8.27133L18.4699 12.9978L25.7645 18.9059H29.4698L47.5617 29.5405L51.1016 26.9147L34.5645 19.5624L34.2171 18.2495Z" fill="url(#paint11_linear_2132_82368)" fill-opacity="0.6"/>
<path d="M24.7224 21.2691H30.3961L46.7223 30.7221H40.8171L32.9434 29.5405L24.7224 21.2691Z" fill="url(#paint12_linear_2132_82368)" fill-opacity="0.6"/>
<path d="M15.6909 28.7527H12.912L16.2699 31.7724L33.2908 37.0241L36.6487 34.5295L43.7118 34L46.7223 33L15.6909 28.7527Z" fill="url(#paint13_linear_2132_82368)" fill-opacity="0.6"/>
<path d="M37.2276 37.0241L47.0696 34.5295L44.1749 38.5996L40.0065 42.9322L31.9013 48.4464L27.7329 48.8403L37.575 39.9125L37.2276 37.0241Z" fill="url(#paint14_linear_2132_82368)" fill-opacity="0.6"/>
<path d="M43.7118 42.2757L42.3223 42.9322L40.4697 50.6783L44.7539 44.1138L43.7118 42.2757Z" fill="url(#paint15_linear_2132_82368)" fill-opacity="0.6"/>
<path d="M49.5012 33L45.3328 41.7505L47.0696 45.558L48.2275 60L49.5012 58.0306L51.1016 35L49.5012 33Z" fill="url(#paint16_linear_2132_82368)" fill-opacity="0.6"/>
<path d="M23.6679 10L35.6148 16.5L36.0573 18L51.1016 24.5V21L43.5794 16.5L40.4821 12L31.1901 10H23.6679Z" fill="url(#paint17_linear_2132_82368)" fill-opacity="0.6"/>
</g>
<path d="M18.9701 15.2555L18.983 15.2716L18.9985 15.2853L22.7911 18.6559H20.8644L15.4985 14.9017L4.53796 5.22101L1.85222 0.761789L12.744 7.5422L18.9701 15.2555ZM29.5965 18.6904L29.5378 18.6559H29.4698H25.8531L18.6571 12.8278L16.0921 8.94987L34.0034 18.4193L34.3228 19.6263L34.3534 19.7421L34.4629 19.7908L50.6086 26.9691L47.5457 29.2411L29.5965 18.6904ZM36.63 34.2802L36.5577 34.2857L36.4996 34.3289L33.2434 36.7478L16.3961 31.5498L13.5639 29.0027H15.6739L45.6227 33.1018L43.6623 33.753L36.63 34.2802ZM37.5021 37.2124L46.4716 34.939L43.9819 38.4396L39.8444 42.7401L31.8138 48.2035L28.4573 48.5207L37.7429 40.0976L37.8386 40.0109L37.8232 39.8826L37.5021 37.2124ZM47.3188 45.538L47.3153 45.4942L47.2971 45.4542L45.6086 41.7528L49.5553 33.4678L50.8454 35.08L49.2563 57.949L48.4178 59.2454L47.3188 45.538ZM35.8546 16.4293L35.8253 16.3299L35.7343 16.2804L24.6505 10.25H31.1635L40.3324 12.2235L43.3735 16.6417L43.4044 16.6866L43.4511 16.7145L50.8516 21.1418V24.1196L36.264 17.8169L35.8546 16.4293ZM30.3289 21.5191L45.7916 30.4721H40.8357L33.0624 29.3055L25.3234 21.5191H30.3289ZM41.0481 49.3346L42.5375 43.107L43.6087 42.6009L44.4613 44.1046L41.0481 49.3346Z" stroke="url(#paint18_linear_2132_82368)" stroke-width="0.5"/>
<path d="M18.0479 16.1927L18.0557 16.2023L18.0649 16.2106L22.0542 19.7559H19.8329L14.4365 15.9804L3.46023 6.28578L0.551958 1.45707L11.8112 8.46624L18.0479 16.1927ZM28.5458 19.7766L28.5106 19.7559H28.4698H24.8177L17.5822 13.8958L14.7927 9.67846L33.0889 19.3513L33.4195 20.6007L33.4378 20.6702L33.5035 20.6994L49.8058 27.9473L46.5521 30.3608L28.5458 19.7766ZM35.6374 35.38L35.5941 35.3832L35.5592 35.4091L32.2624 37.8583L15.3456 32.6388L12.3031 29.9027H14.6807L45.0625 34.0611L42.6821 34.8518L35.6374 35.38ZM36.3923 38.1371L45.7108 35.7752L43.0591 39.5036L38.9093 43.8169L30.8488 49.3007L27.1676 49.6485L36.6758 41.0236L36.7332 40.9715L36.7239 40.8946L36.3923 38.1371ZM46.2192 46.546L46.217 46.5197L46.2061 46.4957L44.4983 42.7519L48.5337 34.2806L49.9479 36.048L48.3542 58.9817L47.3417 60.5472L46.2192 46.546ZM34.7587 17.4576L34.7411 17.3979L34.6865 17.3682L23.2575 11.15H30.1741L39.3923 13.1341L42.4559 17.585L42.4744 17.612L42.5024 17.6287L49.9516 22.0851V25.2718L35.1813 18.8902L34.7587 17.4576ZM29.3558 22.4191L45.1638 31.5721H39.8282L32.0148 30.3995L24.083 22.4191H29.3558ZM39.8167 50.8721L41.4514 44.0371L42.65 43.4708L43.5783 45.1083L39.8167 50.8721Z" stroke="#FFDF5B" stroke-width="0.3"/>
<g filter="url(#filter1_i_2132_82368)">
<path d="M161.088 7.3523L172.898 0L169.656 5.38293L158.656 15.0985L153.214 18.9059H150.551L154.835 15.0985L161.088 7.3523Z" fill="url(#paint19_linear_2132_82368)" fill-opacity="0.6"/>
<path d="M139.783 18.2495L158.656 8.27133L155.53 12.9978L148.235 18.9059H144.53L126.438 29.5405L122.898 26.9147L139.436 19.5624L139.783 18.2495Z" fill="url(#paint20_linear_2132_82368)" fill-opacity="0.6"/>
<path d="M149.278 21.2691H143.604L127.278 30.7221H133.183L141.057 29.5405L149.278 21.2691Z" fill="url(#paint21_linear_2132_82368)" fill-opacity="0.6"/>
<path d="M158.309 28.7527H161.088L157.73 31.7724L140.709 37.0241L137.351 34.5295L130.288 34L127.278 33L158.309 28.7527Z" fill="url(#paint22_linear_2132_82368)" fill-opacity="0.6"/>
<path d="M136.772 37.0241L126.93 34.5295L129.825 38.5996L133.993 42.9322L142.099 48.4464L146.267 48.8403L136.425 39.9125L136.772 37.0241Z" fill="url(#paint23_linear_2132_82368)" fill-opacity="0.6"/>
<path d="M130.288 42.2757L131.678 42.9322L133.53 50.6783L129.246 44.1138L130.288 42.2757Z" fill="url(#paint24_linear_2132_82368)" fill-opacity="0.6"/>
<path d="M124.499 33L128.667 41.7505L126.93 45.558L125.772 60L124.499 58.0306L122.898 35L124.499 33Z" fill="url(#paint25_linear_2132_82368)" fill-opacity="0.6"/>
<path d="M150.332 10L138.385 16.5L137.943 18L122.898 24.5V21L130.421 16.5L133.518 12L142.81 10H150.332Z" fill="url(#paint26_linear_2132_82368)" fill-opacity="0.6"/>
</g>
<path d="M155.03 15.2555L155.017 15.2716L155.001 15.2853L151.209 18.6559H153.136L158.502 14.9017L169.462 5.22101L172.148 0.761789L161.256 7.5422L155.03 15.2555ZM144.404 18.6904L144.462 18.6559H144.53H148.147L155.343 12.8278L157.908 8.94987L139.997 18.4193L139.677 19.6263L139.647 19.7421L139.537 19.7908L123.391 26.9691L126.454 29.2411L144.404 18.6904ZM137.37 34.2802L137.442 34.2857L137.5 34.3289L140.757 36.7478L157.604 31.5498L160.436 29.0027H158.326L128.377 33.1018L130.338 33.753L137.37 34.2802ZM136.498 37.2124L127.528 34.939L130.018 38.4396L134.156 42.7401L142.186 48.2035L145.543 48.5207L136.257 40.0976L136.161 40.0109L136.177 39.8826L136.498 37.2124ZM126.681 45.538L126.685 45.4942L126.703 45.4542L128.391 41.7528L124.445 33.4678L123.155 35.08L124.744 57.949L125.582 59.2454L126.681 45.538ZM138.145 16.4293L138.175 16.3299L138.266 16.2804L149.349 10.25H142.837L133.668 12.2235L130.626 16.6417L130.596 16.6866L130.549 16.7145L123.148 21.1418V24.1196L137.736 17.8169L138.145 16.4293ZM143.671 21.5191L128.208 30.4721H133.164L140.938 29.3055L148.677 21.5191H143.671ZM132.952 49.3346L131.462 43.107L130.391 42.6009L129.539 44.1046L132.952 49.3346Z" stroke="url(#paint27_linear_2132_82368)" stroke-width="0.5"/>
<path d="M155.952 16.1927L155.944 16.2023L155.935 16.2106L151.946 19.7559H154.167L159.563 15.9804L170.54 6.28578L173.448 1.45707L162.189 8.46624L155.952 16.1927ZM145.454 19.7766L145.489 19.7559H145.53H149.182L156.418 13.8958L159.207 9.67846L140.911 19.3513L140.581 20.6007L140.562 20.6702L140.496 20.6994L124.194 27.9473L127.448 30.3608L145.454 19.7766ZM138.363 35.38L138.406 35.3832L138.441 35.4091L141.738 37.8583L158.654 32.6388L161.697 29.9027H159.319L128.937 34.0611L131.318 34.8518L138.363 35.38ZM137.608 38.1371L128.289 35.7752L130.941 39.5036L135.091 43.8169L143.151 49.3007L146.832 49.6485L137.324 41.0236L137.267 40.9715L137.276 40.8946L137.608 38.1371ZM127.781 46.546L127.783 46.5197L127.794 46.4957L129.502 42.7519L125.466 34.2806L124.052 36.048L125.646 58.9817L126.658 60.5472L127.781 46.546ZM139.241 17.4576L139.259 17.3979L139.313 17.3682L150.743 11.15H143.826L134.608 13.1341L131.544 17.585L131.526 17.612L131.498 17.6287L124.048 22.0851V25.2718L138.819 18.8902L139.241 17.4576ZM144.644 22.4191L128.836 31.5721H134.172L141.985 30.3995L149.917 22.4191H144.644ZM134.183 50.8721L132.549 44.0371L131.35 43.4708L130.422 45.1083L134.183 50.8721Z" stroke="#FFDF5B" stroke-width="0.3"/>
<defs>
<filter id="filter0_i_2132_82368" x="1.10156" y="0" width="50" height="60" filterUnits="userSpaceOnUse" color-interpolation-filters="sRGB">
<feFlood flood-opacity="0" result="BackgroundImageFix"/>
<feBlend mode="normal" in="SourceGraphic" in2="BackgroundImageFix" result="shape"/>
<feColorMatrix in="SourceAlpha" type="matrix" values="0 0 0 0 0 0 0 0 0 0 0 0 0 0 0 0 0 0 127 0" result="hardAlpha"/>
<feOffset/>
<feGaussianBlur stdDeviation="2"/>
<feComposite in2="hardAlpha" operator="arithmetic" k2="-1" k3="1"/>
<feColorMatrix type="matrix" values="0 0 0 0 1 0 0 0 0 0.901961 0 0 0 0 0 0 0 0 1 0"/>
<feBlend mode="plus-darker" in2="shape" result="effect1_innerShadow_2132_82368"/>
</filter>
<filter id="filter1_i_2132_82368" x="122.898" y="0" width="50" height="60" filterUnits="userSpaceOnUse" color-interpolation-filters="sRGB">
<feFlood flood-opacity="0" result="BackgroundImageFix"/>
<feBlend mode="normal" in="SourceGraphic" in2="BackgroundImageFix" result="shape"/>
<feColorMatrix in="SourceAlpha" type="matrix" values="0 0 0 0 0 0 0 0 0 0 0 0 0 0 0 0 0 0 127 0" result="hardAlpha"/>
<feOffset/>
<feGaussianBlur stdDeviation="2"/>
<feComposite in2="hardAlpha" operator="arithmetic" k2="-1" k3="1"/>
<feColorMatrix type="matrix" values="0 0 0 0 1 0 0 0 0 0.901961 0 0 0 0 0 0 0 0 1 0"/>
<feBlend mode="plus-darker" in2="shape" result="effect1_innerShadow_2132_82368"/>
</filter>
<linearGradient id="paint0_linear_2132_82368" x1="106.167" y1="1.10986" x2="70.3662" y2="66.392" gradientUnits="userSpaceOnUse">
<stop stop-color="#EEB81F"/>
<stop offset="0.248076" stop-color="#FFDF5B"/>
<stop offset="0.711917" stop-color="#E09F00"/>
<stop offset="1" stop-color="#E8A608"/>
</linearGradient>
<linearGradient id="paint1_linear_2132_82368" x1="107.102" y1="1.37081e-06" x2="73.2847" y2="65.9402" gradientUnits="userSpaceOnUse">
<stop stop-color="#EEB81F"/>
<stop offset="0.248076" stop-color="#FFDF5B"/>
<stop offset="0.711917" stop-color="#E09F00"/>
<stop offset="1" stop-color="#E8A608"/>
</linearGradient>
<linearGradient id="paint2_linear_2132_82368" x1="107.102" y1="1.37081e-06" x2="73.2847" y2="65.9402" gradientUnits="userSpaceOnUse">
<stop stop-color="#EEB81F"/>
<stop offset="0.248076" stop-color="#FFDF5B"/>
<stop offset="0.711917" stop-color="#E09F00"/>
<stop offset="1" stop-color="#E8A608"/>
</linearGradient>
<linearGradient id="paint3_linear_2132_82368" x1="107.102" y1="1.37081e-06" x2="73.2847" y2="65.9402" gradientUnits="userSpaceOnUse">
<stop stop-color="#EEB81F"/>
<stop offset="0.248076" stop-color="#FFDF5B"/>
<stop offset="0.711917" stop-color="#E09F00"/>
<stop offset="1" stop-color="#E8A608"/>
</linearGradient>
<linearGradient id="paint4_linear_2132_82368" x1="107.102" y1="1.37081e-06" x2="73.2847" y2="65.9402" gradientUnits="userSpaceOnUse">
<stop stop-color="#EEB81F"/>
<stop offset="0.248076" stop-color="#FFDF5B"/>
<stop offset="0.711917" stop-color="#E09F00"/>
<stop offset="1" stop-color="#E8A608"/>
</linearGradient>
<linearGradient id="paint5_linear_2132_82368" x1="107.102" y1="1.37081e-06" x2="73.2847" y2="65.9402" gradientUnits="userSpaceOnUse">
<stop stop-color="#EEB81F"/>
<stop offset="0.248076" stop-color="#FFDF5B"/>
<stop offset="0.711917" stop-color="#E09F00"/>
<stop offset="1" stop-color="#E8A608"/>
</linearGradient>
<linearGradient id="paint6_linear_2132_82368" x1="107.102" y1="1.37081e-06" x2="73.2847" y2="65.9402" gradientUnits="userSpaceOnUse">
<stop stop-color="#EEB81F"/>
<stop offset="0.248076" stop-color="#FFDF5B"/>
<stop offset="0.711917" stop-color="#E09F00"/>
<stop offset="1" stop-color="#E8A608"/>
</linearGradient>
<linearGradient id="paint7_linear_2132_82368" x1="107.102" y1="1.37081e-06" x2="73.2847" y2="65.9402" gradientUnits="userSpaceOnUse">
<stop stop-color="#EEB81F"/>
<stop offset="0.248076" stop-color="#FFDF5B"/>
<stop offset="0.711917" stop-color="#E09F00"/>
<stop offset="1" stop-color="#E8A608"/>
</linearGradient>
<linearGradient id="paint8_linear_2132_82368" x1="107.102" y1="1.37081e-06" x2="73.2847" y2="65.9402" gradientUnits="userSpaceOnUse">
<stop stop-color="#EEB81F"/>
<stop offset="0.248076" stop-color="#FFDF5B"/>
<stop offset="0.711917" stop-color="#E09F00"/>
<stop offset="1" stop-color="#E8A608"/>
</linearGradient>
<linearGradient id="paint9_linear_2132_82368" x1="107.102" y1="1.37081e-06" x2="73.2847" y2="65.9402" gradientUnits="userSpaceOnUse">
<stop stop-color="#EEB81F"/>
<stop offset="0.248076" stop-color="#FFDF5B"/>
<stop offset="0.711917" stop-color="#E09F00"/>
<stop offset="1" stop-color="#E8A608"/>
</linearGradient>
<linearGradient id="paint10_linear_2132_82368" x1="40.5016" y1="1.33345e-06" x2="2.50971" y2="54.5561" gradientUnits="userSpaceOnUse">
<stop stop-color="#EEB81F"/>
<stop offset="0.248076" stop-color="#FFDF5B"/>
<stop offset="0.711917" stop-color="#E09F00"/>
<stop offset="1" stop-color="#E8A608"/>
</linearGradient>
<linearGradient id="paint11_linear_2132_82368" x1="40.5016" y1="1.33345e-06" x2="2.50971" y2="54.5561" gradientUnits="userSpaceOnUse">
<stop stop-color="#EEB81F"/>
<stop offset="0.248076" stop-color="#FFDF5B"/>
<stop offset="0.711917" stop-color="#E09F00"/>
<stop offset="1" stop-color="#E8A608"/>
</linearGradient>
<linearGradient id="paint12_linear_2132_82368" x1="40.5016" y1="1.33345e-06" x2="2.50971" y2="54.5561" gradientUnits="userSpaceOnUse">
<stop stop-color="#EEB81F"/>
<stop offset="0.248076" stop-color="#FFDF5B"/>
<stop offset="0.711917" stop-color="#E09F00"/>
<stop offset="1" stop-color="#E8A608"/>
</linearGradient>
<linearGradient id="paint13_linear_2132_82368" x1="40.5016" y1="1.33345e-06" x2="2.50971" y2="54.5561" gradientUnits="userSpaceOnUse">
<stop stop-color="#EEB81F"/>
<stop offset="0.248076" stop-color="#FFDF5B"/>
<stop offset="0.711917" stop-color="#E09F00"/>
<stop offset="1" stop-color="#E8A608"/>
</linearGradient>
<linearGradient id="paint14_linear_2132_82368" x1="40.5016" y1="1.33345e-06" x2="2.50971" y2="54.5561" gradientUnits="userSpaceOnUse">
<stop stop-color="#EEB81F"/>
<stop offset="0.248076" stop-color="#FFDF5B"/>
<stop offset="0.711917" stop-color="#E09F00"/>
<stop offset="1" stop-color="#E8A608"/>
</linearGradient>
<linearGradient id="paint15_linear_2132_82368" x1="40.5016" y1="1.33345e-06" x2="2.50971" y2="54.5561" gradientUnits="userSpaceOnUse">
<stop stop-color="#EEB81F"/>
<stop offset="0.248076" stop-color="#FFDF5B"/>
<stop offset="0.711917" stop-color="#E09F00"/>
<stop offset="1" stop-color="#E8A608"/>
</linearGradient>
<linearGradient id="paint16_linear_2132_82368" x1="40.5016" y1="1.33345e-06" x2="2.50971" y2="54.5561" gradientUnits="userSpaceOnUse">
<stop stop-color="#EEB81F"/>
<stop offset="0.248076" stop-color="#FFDF5B"/>
<stop offset="0.711917" stop-color="#E09F00"/>
<stop offset="1" stop-color="#E8A608"/>
</linearGradient>
<linearGradient id="paint17_linear_2132_82368" x1="40.5016" y1="1.33345e-06" x2="2.50971" y2="54.5561" gradientUnits="userSpaceOnUse">
<stop stop-color="#EEB81F"/>
<stop offset="0.248076" stop-color="#FFDF5B"/>
<stop offset="0.711917" stop-color="#E09F00"/>
<stop offset="1" stop-color="#E8A608"/>
</linearGradient>
<linearGradient id="paint18_linear_2132_82368" x1="40.5016" y1="1.33345e-06" x2="2.50971" y2="54.5561" gradientUnits="userSpaceOnUse">
<stop stop-color="#EEB81F"/>
<stop offset="0.248076" stop-color="#FFDF5B"/>
<stop offset="0.711917" stop-color="#E09F00"/>
<stop offset="1" stop-color="#E8A608"/>
</linearGradient>
<linearGradient id="paint19_linear_2132_82368" x1="133.498" y1="1.33345e-06" x2="171.49" y2="54.5561" gradientUnits="userSpaceOnUse">
<stop stop-color="#EEB81F"/>
<stop offset="0.248076" stop-color="#FFDF5B"/>
<stop offset="0.711917" stop-color="#E09F00"/>
<stop offset="1" stop-color="#E8A608"/>
</linearGradient>
<linearGradient id="paint20_linear_2132_82368" x1="133.498" y1="1.33345e-06" x2="171.49" y2="54.5561" gradientUnits="userSpaceOnUse">
<stop stop-color="#EEB81F"/>
<stop offset="0.248076" stop-color="#FFDF5B"/>
<stop offset="0.711917" stop-color="#E09F00"/>
<stop offset="1" stop-color="#E8A608"/>
</linearGradient>
<linearGradient id="paint21_linear_2132_82368" x1="133.498" y1="1.33345e-06" x2="171.49" y2="54.5561" gradientUnits="userSpaceOnUse">
<stop stop-color="#EEB81F"/>
<stop offset="0.248076" stop-color="#FFDF5B"/>
<stop offset="0.711917" stop-color="#E09F00"/>
<stop offset="1" stop-color="#E8A608"/>
</linearGradient>
<linearGradient id="paint22_linear_2132_82368" x1="133.498" y1="1.33345e-06" x2="171.49" y2="54.5561" gradientUnits="userSpaceOnUse">
<stop stop-color="#EEB81F"/>
<stop offset="0.248076" stop-color="#FFDF5B"/>
<stop offset="0.711917" stop-color="#E09F00"/>
<stop offset="1" stop-color="#E8A608"/>
</linearGradient>
<linearGradient id="paint23_linear_2132_82368" x1="133.498" y1="1.33345e-06" x2="171.49" y2="54.5561" gradientUnits="userSpaceOnUse">
<stop stop-color="#EEB81F"/>
<stop offset="0.248076" stop-color="#FFDF5B"/>
<stop offset="0.711917" stop-color="#E09F00"/>
<stop offset="1" stop-color="#E8A608"/>
</linearGradient>
<linearGradient id="paint24_linear_2132_82368" x1="133.498" y1="1.33345e-06" x2="171.49" y2="54.5561" gradientUnits="userSpaceOnUse">
<stop stop-color="#EEB81F"/>
<stop offset="0.248076" stop-color="#FFDF5B"/>
<stop offset="0.711917" stop-color="#E09F00"/>
<stop offset="1" stop-color="#E8A608"/>
</linearGradient>
<linearGradient id="paint25_linear_2132_82368" x1="133.498" y1="1.33345e-06" x2="171.49" y2="54.5561" gradientUnits="userSpaceOnUse">
<stop stop-color="#EEB81F"/>
<stop offset="0.248076" stop-color="#FFDF5B"/>
<stop offset="0.711917" stop-color="#E09F00"/>
<stop offset="1" stop-color="#E8A608"/>
</linearGradient>
<linearGradient id="paint26_linear_2132_82368" x1="133.498" y1="1.33345e-06" x2="171.49" y2="54.5561" gradientUnits="userSpaceOnUse">
<stop stop-color="#EEB81F"/>
<stop offset="0.248076" stop-color="#FFDF5B"/>
<stop offset="0.711917" stop-color="#E09F00"/>
<stop offset="1" stop-color="#E8A608"/>
</linearGradient>
<linearGradient id="paint27_linear_2132_82368" x1="133.498" y1="1.33345e-06" x2="171.49" y2="54.5561" gradientUnits="userSpaceOnUse">
<stop stop-color="#EEB81F"/>
<stop offset="0.248076" stop-color="#FFDF5B"/>
<stop offset="0.711917" stop-color="#E09F00"/>
<stop offset="1" stop-color="#E8A608"/>
</linearGradient>
</defs>
</svg>
