<svg width="154" height="58" viewBox="0 0 154 58" fill="none" xmlns="http://www.w3.org/2000/svg">
<g clip-path="url(#clip0_2642_91907)">
<path d="M18.7671 33.9018L0 38.2297L50.918 0.000854492L40.3629 17.1717L48.9248 12.9759L42.237 22.3194L62.7128 14.3069L7.62752 58.0009L18.7671 33.9018Z" fill="#08060B"/>
<path d="M23.2488 30.3493L9.69727 34.025L46.7982 3.21802L34.0511 23.2977L43.996 17.7621L29.2157 34.5274L40.1241 29.9615L10.6431 54.4396L23.2488 30.3493Z" fill="#121317"/>
<path d="M43.9959 17.7621L33.8743 28.4937L56.2472 17.7621L10.6431 54.4396L21.2156 34.2454L25.2554 29.2475L24.5482 26.6119L15.6111 29.1153L46.7982 3.21802L34.0511 23.2977L43.9959 17.7621Z" fill="url(#paint0_linear_2642_91907)"/>
<path d="M4.75537 36.0426C4.75537 36.0426 5.83384 34.9672 8.2206 32.8958C12.8085 28.9116 22.1081 21.0842 36.906 9.13165C38.7977 7.60672 40.7956 6.09943 42.8729 4.43347C42.8729 4.43347 41.0696 6.33742 37.5955 9.44016C33.9977 12.6487 28.6319 17.1441 22.3998 22.2742C15.0096 28.3563 11.7831 31.0359 8.51232 33.4247C7.31894 34.2885 6.13439 35.1171 4.75537 36.0426Z" fill="url(#paint1_linear_2642_91907)"/>
<path d="M31.7529 40.8052C31.7529 40.8052 33.1231 39.4037 35.0767 37.7994C37.4193 35.8867 40.3011 33.5508 42.4757 31.9201C46.6039 28.8262 49.9542 25.9614 52.7742 24.269C52.8184 24.2955 47.8592 28.5617 42.6879 32.5195C37.879 36.1864 33.185 40.0472 31.7529 40.8052Z" fill="#E8A849"/>
<path d="M29.2688 44.629C29.2688 44.629 26.0865 47.5467 22.0378 51.0108C17.9891 54.4749 14.6123 57.1634 14.6123 57.1634C14.6123 57.1634 17.7947 54.2457 21.8433 50.7816C25.892 47.3175 29.2688 44.629 29.2688 44.629Z" fill="#A9A895"/>
<path d="M21.7813 14.3071C21.7813 14.3071 17.5558 17.9387 12.3049 22.3637C7.05405 26.7886 2.74902 30.3321 2.74902 30.3321C2.74902 30.3321 6.97449 26.7004 12.2254 22.2755C17.4763 17.8506 21.7813 14.3071 21.7813 14.3071Z" fill="#6A5652"/>
<path d="M42.237 0.000793457C42.237 0.000793457 39.1607 2.9625 35.3065 6.54122C31.4523 10.1199 28.2788 12.9759 28.2788 12.9759C28.2788 12.9759 31.3551 10.0142 35.2093 6.43544C39.0635 2.85672 42.237 0.000793457 42.237 0.000793457Z" fill="url(#paint2_linear_2642_91907)"/>
<path d="M52.3231 15.1091C52.3231 15.1091 49.901 17.2246 46.86 19.7632C43.8191 22.3018 41.3086 24.3027 41.3086 24.3027C41.3086 24.3027 43.7307 22.1872 46.7716 19.6486C49.8126 17.11 52.3231 15.1091 52.3231 15.1091Z" fill="#B2A287"/>
<path d="M21.2156 34.2451L23.2488 30.3491L9.69727 34.0248L15.6111 29.115L24.5483 26.6117L25.2555 29.2473L21.2156 34.2451Z" fill="url(#paint3_linear_2642_91907)"/>
<path d="M11.642 32.4138L41.9363 7.24814L42.5905 6.71045C42.1662 7.07185 41.7949 7.49495 41.4766 7.96212L28.2787 28.0858L38.7186 21.184L29.946 32.1846L50.1948 21.6362L11.9868 51.7971L24.4245 28.0858L14.0553 31.691C12.4907 32.2375 11.0144 33.022 9.69727 34.0269L11.642 32.4138Z" fill="url(#paint4_linear_2642_91907)"/>
<path d="M92.8852 13.7633V17.3358L100.683 17.3367V20.7913H113.594L113.595 13.7633H121.666L121.664 20.7913L129.012 20.7923V20.8568L129.19 20.8316L129.536 20.8021L129.893 20.7923H131.023C133.721 20.7923 135.587 22.0066 136.334 24.1783C137.038 22.1168 138.745 20.9163 141.213 20.8014L141.609 20.7923H142.776L143.14 20.8025L143.493 20.8332L143.657 20.8568L143.659 20.7923H151.464V43.3957C151.464 46.936 149.405 49.0071 145.941 49.1457L145.564 49.1531H136.65L136.648 43.8117L98.7386 43.8127C95.1742 43.8127 92.9926 41.8636 92.8464 38.4289L92.8385 38.0552L92.7722 43.8127H84.9276L84.9297 40.3414C84.2117 42.4659 82.4059 43.6867 79.7945 43.8034L79.3755 43.8127H68.5405V15.2948H79.3755C82.0815 15.2948 83.9905 16.418 84.817 18.4618L84.8145 13.7633H92.8852Z" fill="#08060B"/>
<path d="M142.776 22.0429C144.258 22.0429 145.15 22.6712 145.451 23.9278V22.0429H149.67V42.7764C149.67 45.3681 148.302 46.6639 145.564 46.6639H138.444V43.2869H144.321C144.723 43.2869 144.999 43.2149 145.15 43.0709C145.3 42.9269 145.376 42.6455 145.376 42.2266V39.1637C144.999 40.2632 144.133 40.813 142.776 40.813H141.609C139.047 40.813 137.766 39.5172 137.766 36.9255V25.9304C137.766 23.3387 139.047 22.0429 141.609 22.0429H142.776ZM90.9784 22.0429V41.3235H86.7215V22.0429H90.9784ZM98.8893 18.5873V22.0429H101.413V25.4985H98.8893V36.6899C98.8893 37.1087 98.9647 37.3901 99.1154 37.5341C99.266 37.6781 99.5549 37.7501 99.9818 37.7501H101.376V41.3235H98.7386C96.0012 41.3235 94.6325 40.0276 94.6325 37.4359V25.4985H92.7866V22.0429H94.6325V18.5873H98.8893ZM113.242 22.0429V25.3807L106.687 37.9857H113.393V41.3235H102.28V37.9857L108.759 25.3807H102.694V22.0429H113.242ZM119.759 22.0429V41.3235H115.502V22.0429H119.759ZM127.218 22.0429V23.8099C127.57 22.6319 128.461 22.0429 129.893 22.0429H131.023C133.61 22.0429 134.903 23.3387 134.903 25.9304V41.3235H130.609V26.5587C130.609 26.1399 130.533 25.8584 130.383 25.7144C130.232 25.5705 129.956 25.4985 129.554 25.4985H128.424C127.645 25.4985 127.256 25.9304 127.256 26.7943V41.3235H122.999V22.0429H127.218ZM79.3756 16.5454C82.113 16.5454 83.4818 17.8412 83.4818 20.4329V25.7733C83.4818 27.4226 82.9544 28.4305 81.8996 28.797C82.9544 29.1635 83.4818 30.1059 83.4818 31.6243V37.4359C83.4818 40.0276 82.113 41.3235 79.3756 41.3235H70.3345V16.5454H79.3756ZM78.0948 30.4462H74.6667V38.025H78.0948C78.5217 38.025 78.8105 37.953 78.9612 37.809C79.1119 37.665 79.1872 37.3836 79.1872 36.9647V31.5065C79.1872 31.0876 79.1119 30.8062 78.9612 30.6622C78.8105 30.5182 78.5217 30.4462 78.0948 30.4462ZM144.208 25.4985H143.078C142.676 25.4985 142.4 25.5705 142.249 25.7144C142.098 25.8584 142.023 26.1399 142.023 26.5587V36.2972C142.023 36.716 142.098 36.9975 142.249 37.1414C142.4 37.2854 142.676 37.3574 143.078 37.3574H144.208C144.635 37.3574 144.936 37.2592 145.112 37.0629C145.288 36.8666 145.376 36.5197 145.376 36.0223V26.7943C145.376 25.9304 144.986 25.4985 144.208 25.4985ZM78.0948 19.8439H74.6667V27.1477H78.0948C78.5217 27.1477 78.8105 27.0757 78.9612 26.9318C79.1119 26.7878 79.1872 26.5064 79.1872 26.0875V20.9041C79.1872 20.4853 79.1119 20.2038 78.9612 20.0599C78.8105 19.9159 78.5217 19.8439 78.0948 19.8439ZM91.0914 15.0139V18.9014H86.6085V15.0139H91.0914ZM119.872 15.0139V18.9014H115.389V15.0139H119.872Z" fill="url(#paint5_linear_2642_91907)"/>
<path d="M142.776 20.9849C144.258 20.9849 145.15 21.6132 145.451 22.8698V20.9849H149.67V41.7184C149.67 44.3101 148.302 45.6059 145.564 45.6059H138.444V42.2289H144.321C144.723 42.2289 144.999 42.1569 145.15 42.0129C145.3 41.8689 145.376 41.5875 145.376 41.1687V38.1058C144.999 39.2053 144.133 39.755 142.776 39.755H141.609C139.047 39.755 137.766 38.4592 137.766 35.8675V24.8724C137.766 22.2808 139.047 20.9849 141.609 20.9849H142.776ZM90.9784 20.9849V40.2655H86.7215V20.9849H90.9784ZM98.8893 17.5293V20.9849H101.413V24.4405H98.8893V35.6319C98.8893 36.0507 98.9647 36.3322 99.1154 36.4761C99.266 36.6201 99.5549 36.6921 99.9818 36.6921H101.376V40.2655H98.7386C96.0012 40.2655 94.6325 38.9697 94.6325 36.378V24.4405H92.7866V20.9849H94.6325V17.5293H98.8893ZM113.242 20.9849V24.3227L106.687 36.9277H113.393V40.2655H102.28V36.9277L108.759 24.3227H102.694V20.9849H113.242ZM119.759 20.9849V40.2655H115.502V20.9849H119.759ZM127.218 20.9849V22.752C127.57 21.5739 128.461 20.9849 129.893 20.9849H131.023C133.61 20.9849 134.903 22.2808 134.903 24.8724V40.2655H130.609V25.5007C130.609 25.0819 130.533 24.8004 130.383 24.6565C130.232 24.5125 129.956 24.4405 129.554 24.4405H128.424C127.645 24.4405 127.256 24.8724 127.256 25.7363V40.2655H122.999V20.9849H127.218ZM79.3756 15.4874C82.113 15.4874 83.4818 16.7832 83.4818 19.3749V24.7154C83.4818 26.3646 82.9544 27.3725 81.8996 27.739C82.9544 28.1055 83.4818 29.0479 83.4818 30.5663V36.378C83.4818 38.9697 82.113 40.2655 79.3756 40.2655H70.3345V15.4874H79.3756ZM78.0948 29.3883H74.6667V36.967H78.0948C78.5217 36.967 78.8105 36.895 78.9612 36.751C79.1119 36.607 79.1872 36.3256 79.1872 35.9067V30.4485C79.1872 30.0296 79.1119 29.7482 78.9612 29.6042C78.8105 29.4603 78.5217 29.3883 78.0948 29.3883ZM144.208 24.4405H143.078C142.676 24.4405 142.4 24.5125 142.249 24.6565C142.098 24.8004 142.023 25.0819 142.023 25.5007V35.2392C142.023 35.6581 142.098 35.9395 142.249 36.0835C142.4 36.2274 142.676 36.2994 143.078 36.2994H144.208C144.635 36.2994 144.936 36.2013 145.112 36.0049C145.288 35.8086 145.376 35.4617 145.376 34.9643V25.7363C145.376 24.8724 144.986 24.4405 144.208 24.4405ZM78.0948 18.7859H74.6667V26.0897H78.0948C78.5217 26.0897 78.8105 26.0178 78.9612 25.8738C79.1119 25.7298 79.1872 25.4484 79.1872 25.0295V19.8461C79.1872 19.4273 79.1119 19.1459 78.9612 19.0019C78.8105 18.8579 78.5217 18.7859 78.0948 18.7859ZM91.0914 13.9559V17.8435H86.6085V13.9559H91.0914ZM119.872 13.9559V17.8435H115.389V13.9559H119.872Z" fill="white"/>
<path d="M142.776 20.9849C144.258 20.9849 145.15 21.6132 145.451 22.8698V20.9849H149.67V41.7184C149.67 44.3101 148.302 45.6059 145.564 45.6059H138.444V42.2289H144.321C144.723 42.2289 144.999 42.1569 145.15 42.0129C145.3 41.8689 145.376 41.5875 145.376 41.1687V38.1058C144.999 39.2053 144.133 39.755 142.776 39.755H141.609C139.047 39.755 137.766 38.4592 137.766 35.8675V24.8724C137.766 22.2808 139.047 20.9849 141.609 20.9849H142.776ZM90.9784 20.9849V40.2655H86.7215V20.9849H90.9784ZM98.8893 17.5293V20.9849H101.413V24.4405H98.8893V35.6319C98.8893 36.0507 98.9647 36.3322 99.1154 36.4761C99.266 36.6201 99.5549 36.6921 99.9818 36.6921H101.376V40.2655H98.7386C96.0012 40.2655 94.6325 38.9697 94.6325 36.378V24.4405H92.7866V20.9849H94.6325V17.5293H98.8893ZM113.242 20.9849V24.3227L106.687 36.9277H113.393V40.2655H102.28V36.9277L108.759 24.3227H102.694V20.9849H113.242ZM119.759 20.9849V40.2655H115.502V20.9849H119.759ZM127.218 20.9849V22.752C127.57 21.5739 128.461 20.9849 129.893 20.9849H131.023C133.61 20.9849 134.903 22.2808 134.903 24.8724V40.2655H130.609V25.5007C130.609 25.0819 130.533 24.8004 130.383 24.6565C130.232 24.5125 129.956 24.4405 129.554 24.4405H128.424C127.645 24.4405 127.256 24.8724 127.256 25.7363V40.2655H122.999V20.9849H127.218ZM79.3756 15.4874C82.113 15.4874 83.4818 16.7832 83.4818 19.3749V24.7154C83.4818 26.3646 82.9544 27.3725 81.8996 27.739C82.9544 28.1055 83.4818 29.0479 83.4818 30.5663V36.378C83.4818 38.9697 82.113 40.2655 79.3756 40.2655H70.3345V15.4874H79.3756ZM78.0948 29.3883H74.6667V36.967H78.0948C78.5217 36.967 78.8105 36.895 78.9612 36.751C79.1119 36.607 79.1872 36.3256 79.1872 35.9067V30.4485C79.1872 30.0296 79.1119 29.7482 78.9612 29.6042C78.8105 29.4603 78.5217 29.3883 78.0948 29.3883ZM144.208 24.4405H143.078C142.676 24.4405 142.4 24.5125 142.249 24.6565C142.098 24.8004 142.023 25.0819 142.023 25.5007V35.2392C142.023 35.6581 142.098 35.9395 142.249 36.0835C142.4 36.2274 142.676 36.2994 143.078 36.2994H144.208C144.635 36.2994 144.936 36.2013 145.112 36.0049C145.288 35.8086 145.376 35.4617 145.376 34.9643V25.7363C145.376 24.8724 144.986 24.4405 144.208 24.4405ZM78.0948 18.7859H74.6667V26.0897H78.0948C78.5217 26.0897 78.8105 26.0178 78.9612 25.8738C79.1119 25.7298 79.1872 25.4484 79.1872 25.0295V19.8461C79.1872 19.4273 79.1119 19.1459 78.9612 19.0019C78.8105 18.8579 78.5217 18.7859 78.0948 18.7859ZM91.0914 13.9559V17.8435H86.6085V13.9559H91.0914ZM119.872 13.9559V17.8435H115.389V13.9559H119.872Z" fill="url(#paint6_linear_2642_91907)"/>
</g>
<defs>
<linearGradient id="paint0_linear_2642_91907" x1="4303.61" y1="-313.628" x2="-87.9845" y2="4627.79" gradientUnits="userSpaceOnUse">
<stop stop-color="#DD5939"/>
<stop offset="0.356187" stop-color="#EB7B68"/>
<stop offset="0.53037" stop-color="#EA5724"/>
<stop offset="0.57106" stop-color="#EF5E49"/>
<stop offset="0.714153" stop-color="#F35D42"/>
<stop offset="1" stop-color="#D55D1F"/>
</linearGradient>
<linearGradient id="paint1_linear_2642_91907" x1="3098.73" y1="951.511" x2="376.628" y2="3104.43" gradientUnits="userSpaceOnUse">
<stop stop-color="#9FCED6"/>
<stop offset="1" stop-color="#3FA1AE"/>
</linearGradient>
<linearGradient id="paint2_linear_2642_91907" x1="1161.25" y1="322.055" x2="96.0421" y2="1266.45" gradientUnits="userSpaceOnUse">
<stop stop-color="#9FCED6"/>
<stop offset="1" stop-color="#3FA1AE"/>
</linearGradient>
<linearGradient id="paint3_linear_2642_91907" x1="1539.26" y1="319.573" x2="328.194" y2="975.768" gradientUnits="userSpaceOnUse">
<stop stop-color="#D2890A"/>
<stop offset="0.157459" stop-color="#CA8000"/>
<stop offset="0.711917" stop-color="#B97C10"/>
<stop offset="1" stop-color="#CC8303"/>
</linearGradient>
<linearGradient id="paint4_linear_2642_91907" x1="3669.44" y1="6.71053" x2="28.2222" y2="4483.55" gradientUnits="userSpaceOnUse">
<stop stop-color="#EEB81F"/>
<stop offset="0.248076" stop-color="#FFDF5B"/>
<stop offset="0.711917" stop-color="#E09F00"/>
<stop offset="1" stop-color="#E8A608"/>
</linearGradient>
<linearGradient id="paint5_linear_2642_91907" x1="3600.63" y1="1446.99" x2="3600.65" y2="1864.4" gradientUnits="userSpaceOnUse">
<stop stop-color="#DD5939"/>
<stop offset="0.356187" stop-color="#EB7B68"/>
<stop offset="0.53037" stop-color="#EA5724"/>
<stop offset="0.57106" stop-color="#EF5E49"/>
<stop offset="0.714153" stop-color="#F35D42"/>
<stop offset="1" stop-color="#D55D1F"/>
</linearGradient>
<linearGradient id="paint6_linear_2642_91907" x1="70.3345" y1="1755.5" x2="4874.45" y2="243.521" gradientUnits="userSpaceOnUse">
<stop stop-color="#E2A102"/>
<stop offset="1" stop-color="#FBD851"/>
</linearGradient>
<clipPath id="clip0_2642_91907">
<rect width="154" height="58" fill="white"/>
</clipPath>
</defs>
</svg>
