<svg width="24" height="24" viewBox="0 0 24 24" fill="none" xmlns="http://www.w3.org/2000/svg">
<path fill-rule="evenodd" clip-rule="evenodd" d="M12.2218 2H11.7843C5.94873 2.15088 1.47886 7.17087 2.04907 12.9927C2.44051 16.9873 5.22325 20.3929 9.06462 21.5647C11.5929 22.3365 14.3539 22.0752 16.6961 20.8351C19.0151 19.6067 20.8262 17.4204 21.5765 14.9028C22.73 11.0342 21.4852 6.84084 18.3558 4.27715C16.5905 2.83123 14.5459 2.07218 12.2218 2ZM9.57611 6.27558C9.6747 6.23325 9.88796 6.15557 10.2159 6.04251C10.2324 6.03672 10.2365 6.02614 10.2281 6.01077L8.84367 3.55491C8.83498 3.53955 8.83947 3.53187 8.85716 3.53187H15.1498C15.1519 3.53192 15.1538 3.53248 15.1556 3.53352C15.1573 3.53455 15.1587 3.53601 15.1597 3.53775C15.1607 3.5395 15.1613 3.54148 15.1613 3.54349C15.1613 3.54551 15.1608 3.54749 15.1598 3.54926L13.7685 6.01686C13.7671 6.0193 13.7663 6.022 13.7662 6.02478C13.766 6.02756 13.7664 6.03035 13.7675 6.03293C13.7685 6.03552 13.7701 6.03784 13.7722 6.03972C13.7742 6.0416 13.7767 6.043 13.7794 6.04382C17.9269 7.31566 19.5793 12.2743 16.9544 15.7551C15.5187 17.6596 13.0974 18.5597 10.7822 18.0979C8.57619 17.6578 6.77467 16.0477 6.08225 13.9058C5.08668 10.8273 6.62462 7.54481 9.57611 6.27558ZM7.20097 6.28378C7.32291 6.40569 7.39142 6.57104 7.39142 6.74344C7.39142 6.91585 7.32291 7.08119 7.20097 7.2031C7.07902 7.32501 6.91364 7.3935 6.74118 7.3935C6.56873 7.3935 6.40334 7.32501 6.2814 7.2031C6.15946 7.08119 6.09095 6.91585 6.09095 6.74344C6.09095 6.57104 6.15946 6.40569 6.2814 6.28378C6.40334 6.16188 6.56873 6.09339 6.74118 6.09339C6.91364 6.09339 7.07902 6.16188 7.20097 6.28378ZM17.7186 6.28378C17.8406 6.40569 17.9091 6.57104 17.9091 6.74344C17.9091 6.91585 17.8406 7.08119 17.7186 7.2031C17.5967 7.32501 17.4313 7.3935 17.2589 7.3935C17.0864 7.3935 16.921 7.32501 16.7991 7.2031C16.6771 7.08119 16.6086 6.91585 16.6086 6.74344C16.6086 6.57104 16.6771 6.40569 16.7991 6.28378C16.921 6.16188 17.0864 6.09339 17.2589 6.09339C17.4313 6.09339 17.5967 6.16188 17.7186 6.28378ZM5.02236 11.5412C5.1443 11.6631 5.21281 11.8284 5.21281 12.0008C5.21281 12.1732 5.1443 12.3386 5.02236 12.4605C4.90042 12.5824 4.73503 12.6509 4.56258 12.6509C4.39012 12.6509 4.22474 12.5824 4.10279 12.4605C3.98085 12.3386 3.91234 12.1732 3.91234 12.0008C3.91234 11.8284 3.98085 11.6631 4.10279 11.5412C4.22474 11.4193 4.39012 11.3508 4.56258 11.3508C4.73503 11.3508 4.90042 11.4193 5.02236 11.5412ZM19.8973 11.5412C20.0192 11.6631 20.0877 11.8284 20.0877 12.0008C20.0877 12.1732 20.0192 12.3386 19.8973 12.4605C19.7753 12.5824 19.6099 12.6509 19.4375 12.6509C19.265 12.6509 19.0996 12.5824 18.9777 12.4605C18.8557 12.3386 18.7872 12.1732 18.7872 12.0008C18.7872 11.8284 18.8557 11.6631 18.9777 11.5412C19.0996 11.4193 19.265 11.3508 19.4375 11.3508C19.6099 11.3508 19.7753 11.4193 19.8973 11.5412ZM7.20097 16.7986C7.32291 16.9205 7.39142 17.0858 7.39142 17.2582C7.39142 17.4306 7.32291 17.596 7.20097 17.7179C7.07902 17.8398 6.91364 17.9083 6.74118 17.9083C6.56873 17.9083 6.40334 17.8398 6.2814 17.7179C6.15946 17.596 6.09095 17.4306 6.09095 17.2582C6.09095 17.0858 6.15946 16.9205 6.2814 16.7986C6.40334 16.6767 6.56873 16.6082 6.74118 16.6082C6.91364 16.6082 7.07902 16.6767 7.20097 16.7986ZM17.7186 16.7986C17.8406 16.9205 17.9091 17.0858 17.9091 17.2582C17.9091 17.4306 17.8406 17.596 17.7186 17.7179C17.5967 17.8398 17.4313 17.9083 17.2589 17.9083C17.0864 17.9083 16.921 17.8398 16.7991 17.7179C16.6771 17.596 16.6086 17.4306 16.6086 17.2582C16.6086 17.0858 16.6771 16.9205 16.7991 16.7986C16.921 16.6767 17.0864 16.6082 17.2589 16.6082C17.4313 16.6082 17.5967 16.6767 17.7186 16.7986ZM12.4598 18.9766C12.5817 19.0985 12.6503 19.2638 12.6503 19.4363C12.6503 19.6087 12.5817 19.774 12.4598 19.8959C12.3379 20.0178 12.1725 20.0863 12 20.0863C11.8276 20.0863 11.6622 20.0178 11.5402 19.8959C11.4183 19.774 11.3498 19.6087 11.3498 19.4363C11.3498 19.2638 11.4183 19.0985 11.5402 18.9766C11.6622 18.8547 11.8276 18.7862 12 18.7862C12.1725 18.7862 12.3379 18.8547 12.4598 18.9766ZM11.0767 4.85845L11.987 6.47511C11.9883 6.47747 11.9902 6.47945 11.9925 6.48083C11.9948 6.48221 11.9974 6.48294 12.0001 6.48294C12.0027 6.48294 12.0054 6.48221 12.0077 6.48083C12.01 6.47945 12.0118 6.47747 12.0131 6.47511L12.9239 4.85845C12.9252 4.85621 12.9258 4.85368 12.9259 4.8511C12.9259 4.84852 12.9252 4.84598 12.9239 4.84374C12.9226 4.8415 12.9208 4.83963 12.9186 4.83832C12.9164 4.83701 12.9138 4.8363 12.9113 4.83627H11.0893C11.0867 4.8363 11.0842 4.83701 11.082 4.83832C11.0798 4.83963 11.0779 4.8415 11.0766 4.84374C11.0754 4.84598 11.0747 4.84852 11.0747 4.8511C11.0747 4.85368 11.0754 4.85621 11.0767 4.85845ZM12.0119 9.13516L13.0948 7.21317C13.0964 7.21053 13.0988 7.20849 13.1016 7.20739C13.1045 7.20628 13.1076 7.20617 13.1105 7.20708L13.859 7.44369C13.861 7.44427 13.8628 7.44528 13.8642 7.44665L13.8659 7.44844L13.8668 7.44986L13.8677 7.45159C13.8681 7.45268 13.8684 7.45383 13.8685 7.455L13.8686 7.45751C13.8685 7.45872 13.8683 7.45991 13.8679 7.46104L13.8669 7.46326L12.0119 10.677C12.0107 10.6791 12.009 10.6808 12.0069 10.682C12.0048 10.6832 12.0025 10.6839 12.0001 10.6839C11.9977 10.6839 11.9954 10.6832 11.9933 10.682C11.9912 10.6808 11.9895 10.6791 11.9884 10.677L10.1334 7.46326C10.1324 7.4615 10.1318 7.45953 10.1316 7.45751C10.1315 7.45549 10.1318 7.45347 10.1326 7.45159C10.1333 7.44971 10.1345 7.44802 10.136 7.44665C10.1375 7.44528 10.1392 7.44427 10.1412 7.44369L10.8901 7.20708C10.8931 7.20617 10.8962 7.20628 10.899 7.20739C10.9019 7.20849 10.9043 7.21053 10.9058 7.21317L11.9884 9.13516C11.9895 9.13724 11.9912 9.13897 11.9933 9.14017C11.9954 9.14138 11.9977 9.14201 12.0001 9.14201C12.0025 9.14201 12.0048 9.14138 12.0069 9.14017C12.009 9.13897 12.0107 9.13724 12.0119 9.13516ZM10.8366 11.3495C10.8592 11.3495 10.8649 11.3397 10.8536 11.3199L9.01467 8.13663C9.00655 8.12271 8.99626 8.12083 8.98379 8.13098C7.98169 8.92213 7.30841 10.0595 7.13444 11.3295C7.13241 11.3428 7.13806 11.3495 7.1514 11.3495H10.8366ZM15.0151 8.13096C16.0228 8.92603 16.6909 10.0586 16.8653 11.3299C16.867 11.343 16.8614 11.3495 16.8483 11.3495H13.1531C13.1507 11.3495 13.1483 11.3489 13.1462 11.3477C13.1441 11.3465 13.1424 11.3448 13.1412 11.3427C13.14 11.3407 13.1394 11.3383 13.1394 11.3359C13.1394 11.3335 13.1401 11.3311 13.1413 11.3291L14.9855 8.13705C14.9933 8.12343 15.0032 8.1214 15.0151 8.13096ZM7.13182 12.6627C7.30753 13.9384 7.9756 15.0748 8.98378 15.8716C8.99625 15.8818 9.00655 15.8798 9.01467 15.8656L10.8636 12.6653C10.8643 12.664 10.8646 12.6626 10.8647 12.6612C10.8647 12.6598 10.8643 12.6584 10.8637 12.6572C10.863 12.6559 10.8621 12.6549 10.8609 12.6542C10.8597 12.6535 10.8584 12.6531 10.8571 12.6531H7.14008C7.13888 12.6531 7.13768 12.6533 7.13659 12.6538C7.13549 12.6543 7.13451 12.6551 7.13372 12.656L7.13254 12.6578L7.13203 12.6591C7.1317 12.6603 7.13163 12.6615 7.13182 12.6627ZM16.8679 12.6627C16.6926 13.9384 16.0245 15.0753 15.0163 15.8716C15.0039 15.8818 14.9936 15.8799 14.9854 15.866L13.1465 12.6827C13.1352 12.663 13.1409 12.6531 13.1635 12.6531H16.8596C16.866 12.6531 16.8687 12.6563 16.8679 12.6627ZM10.1485 16.5134C10.136 16.5349 10.1414 16.5501 10.1646 16.5591C11.3929 17.0323 12.6203 17.0307 13.8468 16.5543C13.8497 16.5533 13.8523 16.5516 13.8544 16.5494C13.8566 16.5473 13.8582 16.5446 13.8593 16.5417C13.8603 16.5388 13.8607 16.5357 13.8604 16.5326C13.8601 16.5295 13.8592 16.5265 13.8577 16.5238L12.0122 13.3266C12.011 13.3244 12.0092 13.3226 12.0071 13.3214C12.005 13.3201 12.0025 13.3194 12 13.3194C11.9976 13.3194 11.9951 13.3201 11.993 13.3214C11.9908 13.3226 11.9891 13.3244 11.9879 13.3266L10.1485 16.5134Z" fill="#A9A4B4"/>
</svg>
