<svg width="24" height="24" viewBox="0 0 24 24" fill="none" xmlns="http://www.w3.org/2000/svg">
    <path fill="#000" fill-opacity=".01" d="M0 0h24v24H0z"/>
    <path d="m15.845 15.27 1.243 1.243a2.158 2.158 0 0 1-2.155 2.031h-7.4l-2.445 2.467a.74.74 0 0 1-.56.248.81.81 0 0 1-.808-.808v-1.927A2.176 2.176 0 0 1 2 16.41V9.86c0-1.202.974-2.155 2.155-2.155h1.306v1.513H4.155a.65.65 0 0 0-.663.642v6.529c0 .352.29.663.663.663h1.078v1.7l1.7-1.7h8.02c.353 0 .664-.29.664-.663v-1.12h.228zM22 5.156v6.528a2.176 2.176 0 0 1-1.72 2.114v1.928a.923.923 0 0 1-.249.6.99.99 0 0 1-.58.208.818.818 0 0 1-.58-.249l-2.425-2.425h-7.4a2.154 2.154 0 0 1-2.155-2.155v-6.55C6.891 3.955 7.865 3 9.047 3h10.777A2.145 2.145 0 0 1 22 5.156zm-7.005 5.74a.327.327 0 0 0-.332-.33h-.87a.327.327 0 0 0-.332.33v.56c0 .187.145.332.332.332h.87a.327.327 0 0 0 .332-.332v-.56zm1.72-3.834c0-.621-.207-1.119-.622-1.492-.414-.373-.995-.56-1.72-.56-.684 0-1.223.166-1.637.477-.373.29-.56.684-.601 1.202 0 .125.083.228.207.228l.974.021c.166 0 .31-.103.352-.249a.78.78 0 0 1 .187-.31.758.758 0 0 1 .518-.187c.249 0 .456.083.58.228.145.145.208.352.208.622 0 .248-.063.456-.187.663-.124.187-.27.352-.477.477-.393.27-.663.518-.829.746-.124.166-.186.394-.207.704-.02.146.104.25.249.25h1.057a.246.246 0 0 0 .248-.208c.021-.166.042-.29.104-.394.062-.145.207-.29.394-.414.352-.187.642-.436.87-.746.228-.332.332-.684.332-1.057z" fill="#E4E7F5" fill-opacity=".9"/>
    <path fill="#000" fill-opacity=".01" d="M0 0h24v24H0z"/>
</svg>
