<svg width="24" height="24" viewBox="0 0 24 24" fill="none" xmlns="http://www.w3.org/2000/svg">
    <g clip-path="url(#fz1f8jjr1a)">
        <path fill="#000" fill-opacity=".01" d="M0 0h24v24H0z"/>
        <path d="M16.882 20.724h-.337l-.687-2.072a8.632 8.632 0 0 1-6.693.244l-.622 1.828h-.337a1.14 1.14 0 0 0-1.138 1.138c0 .626.512 1.138 1.138 1.138h8.676a1.138 1.138 0 0 0 0-2.276zM11.87 17a6.16 6.16 0 0 1-3.777-1.567L6.846 16.68a7.916 7.916 0 0 0 5.025 2.08V17zM6.038 11.17h-1.76a7.906 7.906 0 0 0 2.082 5.024l1.247-1.247a6.152 6.152 0 0 1-1.569-3.778zM7.612 6.709 6.364 5.461a7.902 7.902 0 0 0-2.079 5.02h1.753c.081-1.43.66-2.75 1.574-3.772zM18.389 11.17a6.158 6.158 0 0 1-1.567 3.777l1.247 1.247a7.912 7.912 0 0 0 2.08-5.025h-1.76zM18.39 10.482h1.752a7.906 7.906 0 0 0-2.076-5.021l-1.249 1.248a6.192 6.192 0 0 1 1.572 3.773zM12.558 18.76a7.91 7.91 0 0 0 5.025-2.08l-1.247-1.247A6.157 6.157 0 0 1 12.558 17v1.76zM14.005 4.902a6.184 6.184 0 0 1 2.327 1.32l1.248-1.248a7.933 7.933 0 0 0-2.685-1.626l-.89 1.554zM10.423 4.902l-.89-1.554A8.029 8.029 0 0 0 6.85 4.974L8.1 6.222a6.216 6.216 0 0 1 2.324-1.32zM13.654 5.513l-.409.712v3.468c.35.293.57.73.57 1.22 0 .884-.718 1.603-1.601 1.603a1.603 1.603 0 0 1-1.602-1.602c0-.492.22-.928.57-1.22V6.224l-.409-.712c-2.34.643-4.063 2.812-4.063 5.308v.01c0 3.032 2.472 5.497 5.504 5.497a5.508 5.508 0 0 0 5.503-5.5c0-2.5-1.722-4.672-4.063-5.315z" fill="#E4E7F5" fill-opacity=".9"/>
        <path d="M11.87 6.043v4.87c0 .19.155.345.344.345.189 0 .344-.155.344-.344V6.043l2.598-4.527A.344.344 0 0 0 14.86 1H9.57a.345.345 0 0 0-.299.516l2.6 4.527z" fill="#E4E7F5" fill-opacity=".9"/>
        <path fill="#000" fill-opacity=".01" d="M0 0h24v24H0z"/>
    </g>
    <defs>
        <clipPath id="fz1f8jjr1a">
            <path fill="#fff" d="M0 0h24v24H0z"/>
        </clipPath>
    </defs>
</svg>
