<svg width="24" height="24" viewBox="0 0 24 24" fill="none" xmlns="http://www.w3.org/2000/svg">
    <g clip-path="url(#ci22bvgbpa)">
        <path fill="#000" fill-opacity=".01" d="M0 0h24v24H0z"/>
        <path d="M12 2C6.484 2 2 6.484 2 12s4.484 10 10 10 10-4.484 10-10S17.516 2 12 2zm6.274 3.726a8.772 8.772 0 0 1 1.915 2.863l-1.747.716a6.944 6.944 0 0 0-1.516-2.273l1.348-1.306zM8.61 3.811l.715 1.747a7.17 7.17 0 0 0-2.273 1.516L5.705 5.747a8.896 8.896 0 0 1 2.906-1.936zm-4.8 4.8 1.747.715A7.04 7.04 0 0 0 5.032 12H3.137c0-1.2.231-2.358.674-3.39zm1.915 9.663a8.644 8.644 0 0 1-1.915-2.885l1.747-.715a6.945 6.945 0 0 0 1.516 2.273l-1.348 1.327zM12 20.864c-1.2 0-2.337-.232-3.39-.675l.716-1.747a7.04 7.04 0 0 0 2.674.526v1.895zm.61-5.37v.885a.181.181 0 0 1-.168.168h-.863a.181.181 0 0 1-.168-.168v-.863a1.82 1.82 0 0 1-1.685-1.6c0-.106.063-.19.169-.19h.863c.084 0 .147.042.168.127a.59.59 0 0 0 .59.463h.758c.442 0 .863-.316.905-.78a.875.875 0 0 0-.863-.947h-.569c-1.073 0-2.042-.779-2.147-1.852a2.065 2.065 0 0 1 1.768-2.253v-.863c0-.084.085-.168.169-.168h.884c.084 0 .168.084.168.168v.863a1.82 1.82 0 0 1 1.685 1.6c0 .106-.084.19-.169.19h-.863c-.084 0-.147-.042-.168-.127a.59.59 0 0 0-.59-.463h-.758c-.442 0-.863.316-.905.78-.063.504.358.947.863.947h.653c1.2 0 2.168 1.031 2.042 2.273-.105.927-.863 1.642-1.768 1.81zM12 5.012V3.116c1.2 0 2.358.252 3.39.673l-.716 1.748A7.04 7.04 0 0 0 12 5.01zm3.39 15.178-.716-1.747c.842-.358 1.62-.863 2.252-1.516l1.348 1.327a8.393 8.393 0 0 1-2.885 1.936zm3.073-5.515A7.04 7.04 0 0 0 18.99 12h1.895a9.01 9.01 0 0 1-.674 3.39l-1.747-.716z" fill="#E4E7F5" fill-opacity=".9"/>
        <path fill="#000" fill-opacity=".01" d="M0 0h24v24H0z"/>
    </g>
    <defs>
        <clipPath id="ci22bvgbpa">
            <path fill="#fff" d="M0 0h24v24H0z"/>
        </clipPath>
    </defs>
</svg>
