<svg width="24" height="24" viewBox="0 0 24 24" fill="none" xmlns="http://www.w3.org/2000/svg">
    <path fill="#000" fill-opacity=".01" d="M0 0h24v24H0z"/>
    <path d="M12.046 4.91c.145.677 1.017 1.304 2.155 1.485.214.034.423.05.624.05 1.052 0 1.898-.441 2.003-1.11.126-.794-.845-1.609-2.17-1.82a3.94 3.94 0 0 0-.624-.05c-.37 0-.71.058-1.007.157-.098.387-.326.763-.697 1.081-.086.075-.186.14-.284.207zM9.635 4.988c.214 0 .436-.019.662-.057 1.323-.224 2.287-1.049 2.151-1.843C12.338 2.43 11.506 2 10.471 2c-.214 0-.435.018-.66.056-1.324.224-2.287 1.05-2.153 1.843.11.658.942 1.089 1.977 1.089zM20.384 15.048c0-1.623-.794-2.93-2.065-3.883a1.262 1.262 0 0 0-.463-2.437H6.478a1.26 1.26 0 0 0-.636 2.351C4.693 11.973 4 13.217 4 14.81c0 2.12 1.236 4.002 3.146 5.2l-.735.98a.631.631 0 1 0 1.01.758l.855-1.14a9.42 9.42 0 0 0 3.743.761c1.34 0 2.635-.25 3.79-.696l.806 1.075a.628.628 0 0 0 .885.126.63.63 0 0 0 .127-.884l-.65-.866c2.031-1.128 3.407-2.938 3.407-5.075zM6.884 7.464H9.61a3.64 3.64 0 0 1-.654-1.096 2.333 2.333 0 0 1-.134-.836 2.808 2.808 0 0 1-1.066-.446c-.915.209-1.568.737-1.568 1.358 0 .397.266.757.696 1.02zM11.49 5.226c-.334.15-.701.263-1.087.329a4.735 4.735 0 0 1-.768.065c-.064 0-.124-.009-.187-.012.02.58.393 1.281 1.04 1.856h2.565c.015-.037.022-.072.04-.108.084-.174.195-.343.317-.51a3.727 3.727 0 0 1-1.245-.658 2.163 2.163 0 0 1-.675-.962zM14.102 7.018c-.007 0-.013-.003-.02-.004a2.965 2.965 0 0 0-.324.45h3.913c.217-.456.243-.903.025-1.236a.953.953 0 0 0-.402-.336c-.366.722-1.288 1.184-2.469 1.184a4.54 4.54 0 0 1-.723-.058z" fill="#E4E7F5" fill-opacity=".9"/>
</svg>
