<svg width="24" height="24" viewBox="0 0 24 24" fill="none" xmlns="http://www.w3.org/2000/svg">
    <g clip-path="url(#crxi1hatza)">
        <path fill="#000" fill-opacity=".01" d="M0 0h24v24H0z"/>
        <path d="M21.09 5.818v10a1.365 1.365 0 0 1-1.363 1.363 22.298 22.298 0 0 0-3.825.427 6.396 6.396 0 0 0-2.945 1.451 1.363 1.363 0 0 1-1.921-.004 6.467 6.467 0 0 0-2.94-1.447 22.298 22.298 0 0 0-3.825-.427 1.365 1.365 0 0 1-1.362-1.364V5.818A.91.91 0 0 0 2 6.727v10.486a.912.912 0 0 0 .836.907c.789.061 2.31.198 3.635.419a7.972 7.972 0 0 1 3.656 1.529c.24.191.54.296.847.295h2.051c.308 0 .607-.103.847-.295a7.971 7.971 0 0 1 3.657-1.53c1.325-.22 2.846-.357 3.636-.418a.912.912 0 0 0 .835-.906V6.727a.91.91 0 0 0-.91-.909z" fill="#E4E7F5" fill-opacity=".9"/>
        <path d="M19.726 4a23.456 23.456 0 0 0-4.18.463 8.306 8.306 0 0 0-3.547 1.66 8.306 8.306 0 0 0-3.547-1.66A23.455 23.455 0 0 0 4.272 4a.455.455 0 0 0-.454.455v11.362a.455.455 0 0 0 .454.455c1.345.03 2.684.18 4.002.445a7.284 7.284 0 0 1 3.404 1.694.455.455 0 0 0 .642 0 7.213 7.213 0 0 1 3.404-1.694 23.006 23.006 0 0 1 4.002-.446.455.455 0 0 0 .454-.454V4.454A.455.455 0 0 0 19.726 4zM10.59 14.805a.454.454 0 0 1-.606.212 7.271 7.271 0 0 0-1.71-.573c-.701-.14-1.451-.252-2.23-.334a.455.455 0 1 1 .094-.904c.806.085 1.585.201 2.314.348.667.134 1.314.35 1.926.644a.454.454 0 0 1 .212.607zm0-2.272a.454.454 0 0 1-.606.212 7.267 7.267 0 0 0-1.71-.573c-.701-.14-1.451-.253-2.23-.334a.455.455 0 1 1 .094-.904c.806.084 1.585.2 2.314.347.667.134 1.314.35 1.926.645a.454.454 0 0 1 .212.607zm0-2.273a.454.454 0 0 1-.606.212 7.266 7.266 0 0 0-1.71-.573c-.701-.14-1.451-.252-2.23-.334a.455.455 0 0 1 .094-.904c.806.085 1.585.201 2.314.347.667.135 1.314.351 1.926.646a.454.454 0 0 1 .212.606zm0-2.272a.454.454 0 0 1-.606.212 7.27 7.27 0 0 0-1.71-.573c-.701-.14-1.451-.253-2.23-.334a.455.455 0 0 1 .094-.904c.806.084 1.585.2 2.314.347a8.177 8.177 0 0 1 1.926.646.455.455 0 0 1 .212.606zm7.365 6.122c-.779.082-1.53.194-2.23.335a7.27 7.27 0 0 0-1.71.572.454.454 0 1 1-.395-.819 8.174 8.174 0 0 1 1.925-.645c.73-.145 1.509-.263 2.315-.347a.456.456 0 0 1 .483.581.454.454 0 0 1-.388.323zm0-2.272c-.779.082-1.53.194-2.23.334a7.267 7.267 0 0 0-1.71.573.455.455 0 1 1-.395-.819 8.183 8.183 0 0 1 1.925-.645c.73-.145 1.51-.263 2.316-.347a.455.455 0 0 1 .094.904zm0-2.273a24.39 24.39 0 0 0-2.23.335 7.27 7.27 0 0 0-1.71.572.455.455 0 1 1-.395-.818 8.177 8.177 0 0 1 1.925-.645c.73-.146 1.51-.263 2.316-.348a.455.455 0 0 1 .094.904zm0-2.272a24.39 24.39 0 0 0-2.23.334 7.269 7.269 0 0 0-1.71.573.454.454 0 1 1-.395-.818 8.177 8.177 0 0 1 1.925-.645c.73-.146 1.509-.263 2.315-.348a.455.455 0 0 1 .095.904z" fill="#E4E7F5" fill-opacity=".9"/>
        <path fill="#000" fill-opacity=".01" d="M0 0h24v24H0z"/>
    </g>
    <defs>
        <clipPath id="crxi1hatza">
            <path fill="#fff" d="M0 0h24v24H0z"/>
        </clipPath>
    </defs>
</svg>
