<svg width="24" height="24" viewBox="0 0 24 24" fill="none" xmlns="http://www.w3.org/2000/svg">
    <g clip-path="url(#erw3d5g11a)">
        <path fill="#000" fill-opacity=".01" d="M0 0h24v24H0z"/>
        <path fill-rule="evenodd" clip-rule="evenodd" d="M16.233 22H17.5a1.504 1.504 0 0 0 1.5-1.5v-17A1.504 1.504 0 0 0 17.5 2h-11A1.504 1.504 0 0 0 5 3.5v15.721c.029-.082.05-.137.06-.156.06-.12.26-.224 1.138-.603.413-.178.76-.343.768-.367.01-.024.3-.276.647-.56.75-.615 1.495-1.367 1.546-1.562.11-.412.14-2.325.043-2.7l-.063-.247-.078.264c-.096.326-.142.438-.17.41-.034-.034.059-.877.168-1.52.205-1.199.257-1.461.207-1.483-.02-.008-.055.02-.103.045-.245.122-1.43.13-1.866.013-.397-.107-.784-.62-1.042-1.378-.253-.749-.22-.93.38-2.126.248-.495.508-.78.77-.845l.09-.023-.064-.13c-.133-.271-.201-.958-.111-1.132.161-.311 1.44-.833 2.464-1.005.287-.049.538-.096.557-.105.135-.062 1.102.14 1.51.316.28.12.3.124.605.103.27-.019.345-.011.526.055.143.05.286.099.43.145.234.074.389.232.47.479.022.064.058.117.081.117.115 0 .572-.154.88-.297.285-.133.354-.166.37-.15.007.007.006.02.006.038 0 .026-.107.131-.238.233-.13.102-.206.176-.167.164l.37-.094c.164-.04.326-.082.36-.092.093-.027.074.039-.026.092-.12.064-.087.083.067.041.16-.044.186-.005.054.084-.057.038-.103.082-.103.097 0 .04.23.375.49.712.216.28.217.282.194.457-.023.17-.128.607-.18.743-.016.044.029.02.127-.069.49-.439 1.282-.489 1.576-.1.158.209.258.55.257.883-.001.7-.282 1.232-.976 1.848-.208.185-.456.415-.55.51a2.284 2.284 0 0 1-.395.305c-.198.116-.222.142-.209.224.008.051.024.265.035.476.017.324.036.412.12.58.48.96.61 1.727.4 2.337-.104.304-.104.305-.035.374.083.083.062.236-.036.268-.048.015-.061.06-.062.2 0 .222-.122.343-.455.452-.499.163-.993.188-2.494.128l-.8-.032v.594l.202.12c.111.067.353.265.537.44.306.292 1.222 1.047 1.451 1.196a.316.316 0 0 1 .116.127c.011.036.183.176.382.311.222.151.378.284.406.344.067.148.556 2.53.623 3.033.015.117-.003.197-.027.197zm0 0c-.014 0-.03-.028-.043-.091l-.143-.784c-.172-.95-.434-2.184-.491-2.32l-.047-.11-.038.088-.037.089-.003-.106c-.003-.092-.042-.132-.306-.308-.166-.111-.314-.194-.329-.185-.04.025-.34.516-.365.6-.018.057.036.114.295.312l.316.241v.34c0 .304-.065.864-.128 1.095-.023.086-.021.086.046.027.082-.072.176-.08.198-.018.008.024.027-.09.042-.255.037-.415.148-1.198.174-1.224.035-.035.022.236-.032.674-.063.501-.076 1.11-.026 1.204.05.095.095.719.052.719-.034 0-.078-.27-.079-.483 0-.086-.013-.108-.053-.093s-.053.077-.053.242c0 .268-.021.334-.11.334-.052 0-.066-.027-.07-.132a.88.88 0 0 0-.034-.22c-.023-.066-.027-.043-.016.09.017.219-.012.271-.143.256-.1-.011-.102-.015-.09-.205.013-.221-.022-.208-.115.044-.036.1-.083.167-.115.167-.03 0-.045-.02-.034-.044.315-.72.517-1.557.516-2.144-.001-.305-.018-.35-.176-.463a18.175 18.175 0 0 1-.51-.396 14.01 14.01 0 0 0-.381-.298 12 12 0 0 0-.012.572c-.008.798-.141 1.68-.397 2.623l-.04.15h-2.023l-.48-.748a53.934 53.934 0 0 1-1.45-2.359c-.14-.246-.263-.448-.274-.449-.011 0-.27.253-.574.563l-.554.563.59.73c.324.403.749.922.944 1.155.352.42.44.52.424.541-.007.01-.033.004-.066.004-.074 0-.118-.039-.214-.189a6.78 6.78 0 0 0-.361-.484l-.828-1.022-.587-.726.137-.153.137-.153-.075-.133a1.25 1.25 0 0 0-.27-.285c-.3-.233-.871-.623-.912-.623-.03 0-.647.257-1.429.596l-.172.075.289.14c.457.22.96.6 1.134.855.063.092.046.083-.096-.052-.427-.405-1.163-.84-1.423-.84-.034 0-.061-.003-.085.003-.062.016-.108.099-.238.488V20.5A1.504 1.504 0 0 0 6.5 22h9.733zM3.5 21h.55a2.356 2.356 0 0 1-.05-.5v-17a2.356 2.356 0 0 1 .05-.5H3.5A1.505 1.505 0 0 0 2 4.5v15A1.504 1.504 0 0 0 3.5 21zm17-18h-.55c.034.164.051.332.05.5v17c.001.168-.016.336-.05.5h.55a1.504 1.504 0 0 0 1.5-1.5v-15A1.504 1.504 0 0 0 20.5 3zM9.796 4.215c.067-.01.186-.03.264-.045.077-.016.291-.03.475-.032l.335-.003-.37.18c-.204.1-.414.212-.467.25-.153.107-.112.145.053.048.177-.103.828-.322 1.065-.357a.794.794 0 0 1 .37.037l.203.061-.223.153c-.292.2-.693.441-.913.55-.432.212-.566.304-.905.622-.402.377-.315.226.139-.241.202-.21.255-.263.246-.278-.003-.005-.014-.004-.03-.004-.149 0-.711.687-1.087 1.328l-.15.255-.167-.131c-.147-.115-.17-.152-.187-.29-.03-.256.095-.58.302-.788.193-.193.197-.257.007-.112a1.791 1.791 0 0 0-.454.575c-.036.082-.08.149-.096.149-.05 0-.034-.346.022-.481.062-.148.063-.153.023-.153-.086 0-.225.514-.193.712l.02.127-.201.025c-.278.035-.354-.042-.427-.427-.099-.528-.102-.724-.014-.835.11-.138.5-.324.792-.376a5.79 5.79 0 0 0 1.177-.378c.147-.068.323-.131.39-.141zm3.167.773a4.852 4.852 0 0 0-.323-.364l-.132-.126.185.027c.1.015.27.06.377.102.134.051.159.069.08.056-.139-.023-.155.04-.018.07.525.118.555.132.555.26 0 .116-.006.12-.194.165-.312.073-.322.07-.53-.19zm-1.19-.322a2.01 2.01 0 0 1 .312-.11c.27-.06.45.048.721.434.137.192.19.259.175.29-.01.022-.056.027-.13.047a8.743 8.743 0 0 0-.311.089l-.16.05-.157-.192a2.294 2.294 0 0 0-.397-.357l-.242-.166.189-.085zm-1.073.447c.17-.08.398-.174.504-.208.107-.035.198-.063.204-.064.108-.021.372.22.596.545l.074.106-.35.09c-.199.05-.344.073-.336.051.104-.278.042-.253-.196.08-.258.36-.291.386-.347.281a5.981 5.981 0 0 0-.21-.33c-.155-.234-.228-.327-.208-.39.018-.053.105-.084.27-.161zm3.198.237c.33-.067.498-.121.76-.243.294-.138.287-.126-.09.158-.164.124-.3.237-.3.251 0 .05.059.027.197-.072.075-.055.224-.118.331-.14l.282-.061c.086-.02.086-.02-.01.035-.133.077-.12.13.018.074.063-.025.178-.056.256-.067.145-.021.13.012-.053.117-.082.047-.015.081.07.035.043-.022.081-.035.086-.029l.16.24c.084.126.24.338.348.47l.194.241-.042.252c-.04.234-.394 1.514-.414 1.494a6.173 6.173 0 0 1 .026-.467c.056-.743.028-1.613-.055-1.704-.167-.185-.352-.046-.634.477-.665 1.236-.935 1.374-1.673.856-.2-.14-.302-.255-.79-.888-.498-.645-.75-.646-1.359-.006-.486.512-.75.945-.88 1.445-.04.157-.083.314-.125.47-.14.51-.008 1.053.309 1.263.126.083.177.094.436.094s.293.008.293.064c0 .07.09.258.132.277a.832.832 0 0 1 .115.202c.048.105.154.257.235.338l.147.147-.549.912c-.803 1.336-.872 1.519-.865 2.268l.005.44-.09-.193c-.049-.107-.164-.391-.256-.632s-.181-.444-.2-.45c-.019-.006-.014.214.011.545.024.305.043.618.043.695v.141l-.102-.211c-.511-1.053-.65-1.48-.576-1.763.055-.208.06-.309.016-.281-.018.01-.083.234-.146.495-.063.262-.119.47-.125.465-.014-.014.137-.994.247-1.61.16-.889.206-1.355.182-1.831-.023-.442-.048-.643-.215-1.74-.094-.622-.091-.653.058-.654.093-.001.527-.245.76-.426.119-.094.271-.193.338-.22.067-.029.221-.156.343-.283.454-.475.675-.555 1.915-.693.188-.02.48-.083.648-.139.168-.055.433-.126.588-.158zm-4.278.664c0-.072.361-.51.507-.613.08-.056.152-.101.162-.101.054 0 .407.887.36.903-.014.005-.136.081-.27.17l-.243.16-.193-.134c-.18-.124-.323-.294-.323-.385zm1.274.883c.255-.337.696-.778.841-.841.3-.13.407-.059.944.631.404.52.911.934 1.143.934.042 0 .05.026.034.123-.025.155.015.16.068.009.04-.115.04-.115.066-.027l.025.088.025-.079c.014-.044.053-.08.087-.08.073 0 .044.201-.057.396a1 1 0 0 0-.074.29l-.019.183-.242-.003c-.179-.002-.238-.014-.226-.046.01-.025.005-.045-.01-.045s-.047.02-.071.045c-.028.027-.022-.009.013-.095a.72.72 0 0 0-.001-.495c-.027-.062-.024-.065.027-.024.031.025.101.04.156.033l.099-.012-.106-.05a3.117 3.117 0 0 1-.334-.212c-.879-.624-1.467-.849-1.847-.705-.15.058-.101.096.102.08.262-.023.485.018.388.07-.184.097-.549.52-.739.855a1.9 1.9 0 0 1-.166.25c-.066.075-.065.076.138.274.363.352.713.459 1.382.422l.337-.018-.081.086c-.073.077-.128.09-.528.128-.512.048-.648.082-.809.202-.099.074-.138.083-.282.062-.92-.134-1.066-1.394-.283-2.43zm4.166-.35c.093-.175.207-.369.254-.432.107-.145.243-.156.293-.024.046.122.043 1.563-.004 1.903-.047.34-.145.606-.294.799-.11.143-.12.148-.297.14-.242-.01-.757-.213-.774-.305-.01-.053.001-.061.053-.04.166.068.623.16.688.14.126-.04.382-.304.477-.49.116-.227.153-.758.07-.997-.05-.143-.05-.152.021-.202.08-.056.065-.064-.1-.053-.144.01-.592.296-.827.528-.03.03-.124.109-.21.176l-.154.122.023-.117c.015-.073.098-.198.216-.326.238-.256.348-.417.565-.822zm-5.813.315c-.086-.204-.007-.507.188-.73.067-.075.114-.078.114-.007 0 .073.143.29.285.434.052.052.087.082.085.11-.003.045-.1.084-.364.2l-.258.113-.05-.12zm-2.605.598c.282-.589.426-.776.698-.911.112-.056.165-.083.218-.082.05.001.098.027.193.077l.157.082-.184.04c-.234.05-.426.147-.565.287-.161.16-.134.2.037.054.28-.24.794-.343 1.068-.214l.105.05-.105-.025c-.185-.044-.522-.022-.645.042-.177.092-.694.5-.76.601-.075.115-.021.114.118-.003l.11-.092-.07.118c-.36.62-.344 1.76.034 2.331l.074.112-.074-.084c-.041-.046-.085-.074-.098-.061-.033.034.112.215.174.216.029 0 .11.05.18.112.475.418 1.156.517 1.685.246l.24-.123-.02.094a2.335 2.335 0 0 1-.034.136c-.015.047-.298.133-.553.168-.092.012-.168.038-.168.057 0 .04.301.007.527-.06.16-.048.217-.04.156.021-.173.173-1.617.134-1.988-.054-.32-.163-.694-.786-.86-1.438-.157-.614-.147-.66.35-1.697zm2.385-.473c-.066-.089-.071-.116-.034-.175.05-.08.067-.055.11.166.027.14.021.141-.076.01zm7.389.215c0-.06.177-.188.322-.233.309-.097.698-.053.863.096.28.253.371 1.032.182 1.563a2.222 2.222 0 0 1-.608.894c-.206.194-.411.39-.616.585-.309.295-.596.507-.688.507-.01 0-.019-.044-.018-.097 0-.076.03-.114.144-.18.422-.24 1.289-1.26 1.5-1.765.08-.187.082-.189.06-.053-.036.22.043.108.111-.157.087-.339.015-.838-.095-.664-.022.034-.03.03-.03-.018a.514.514 0 0 0-.06-.176c-.033-.062-.056-.132-.052-.157.035-.174-.592-.143-.978.049-.327.162-.329.095-.003-.098.436-.258.867-.302 1.094-.111.13.11.183.08.07-.041-.186-.197-.578-.207-.97-.024-.125.06-.228.095-.228.08zm-5.045.601c.198-.318.463-.592.617-.637.297-.086 1.006.263 1.273.626.176.24.194.358.079.532-.133.2-.181.213-.428.12-.166-.062-.19-.08-.113-.082.436-.01.564-.51.178-.694-.123-.058-.132-.058-.279.02-.156.083-.23.18-.137.18.082-.001.06.054-.039.1-.114.051-.092.154.065.3l.11.103-.104-.027a7.317 7.317 0 0 0-1.065-.148c-.203-.013-.304-.012-.326-.054-.024-.044.041-.135.169-.339zm2.773.324c.049-.116.662-.683.933-.862.29-.192.395-.081.393.413 0 .344-.084.534-.31.706-.338.258-1.147.053-1.016-.257zM6.936 9.336c-.192-.6-.047-1.596.291-2.007.121-.147.154-.152.587-.096.316.041.473.12.746.373.248.23.25.232.106.286-.093.036-.117.032-.18-.03-.242-.244-.771-.301-1.07-.117a.904.904 0 0 0-.389.545c-.03.159.032.104.092-.083.14-.438.644-.624 1.117-.414.29.13.294.15.061.364-.466.425-.549 1.117-.178 1.488.12.12.198.113.085-.008-.41-.438-.265-1.166.31-1.561.276-.19.328-.18.532.096.17.23.18.257.228.596l.05.355-.115.209c-.158.285-.37.523-.568.636-.153.087-.189.107-.187.122.001.005.006.01.013.017.095.095.624-.381.772-.696l.087-.184.025.368.024.367-.15.135c-.267.237-.415.287-.856.287-.736 0-1.21-.348-1.433-1.048zm9.392-1.561c.058-.034.303-.105.546-.158.378-.083.48-.11.523-.072.02.019.028.052.046.102.09.256.061.7-.062.96-.233.491-1.027 1.425-1.356 1.594l-.19.097-.023-.09a1.752 1.752 0 0 1-.036-.255l-.012-.167.212-.02c.184-.018.47-.12.434-.156a.815.815 0 0 0-.211.043c-.287.08-.382.047-.382-.133 0-.12-.025-.168-.158-.311-.076-.081-.122-.126-.139-.18-.026-.084.016-.189.12-.476.153-.422.191-.467.494-.583.336-.129.497-.113.581.056.154.307.058.812-.232 1.219-.111.156-.057.16.07.006.294-.354.405-.884.256-1.22l-.072-.164h.131c.073 0 .194.032.27.07.185.095.232.088.114-.017-.175-.154-.534-.194-.942-.104-.08.018-.079.015.018-.041zm-1.494.076c-.052-.032.012-.118.12-.162.251-.102.45.224.273.45-.14.177-.39.16-.469-.032-.04-.098-.037-.113.037-.169.056-.042.068-.069.04-.087zm2.767.025c-.01.024-.017.004-.017-.044 0-.049.008-.068.017-.044.01.024.01.064 0 .088zm-6.23.4c-.012.011-.043.013-.068.002-.028-.01-.02-.02.021-.02.037-.002.058.006.047.018zm.493.101a3.48 3.48 0 0 1-.413-.074c0-.045.934.101 1.312.205.23.063.27.083.211.109-.051.023-.16.002-.383-.073a5.153 5.153 0 0 0-.727-.167zM6.872 9.61c-.124-.077-.316-.662-.316-.964 0-.252.056-.225.085.04.033.294.085.498.184.726.094.214.097.229.047.198zm6.71-.932c-.421.098-.583.08-.204-.022.092-.024.24-.044.326-.044.145 0 .134.006-.123.066zm-.019.15c-.038-.014-.028-.027.036-.047.176-.054.483-.035.684.042a.93.93 0 0 1 .188.084c-.017.014-.853-.058-.908-.079zm-1.197.324c.32-.034.74-.081.933-.105.438-.055.609-.077.677-.003.044.048.044.137.046.284.001.142.009.164.039.112a.63.63 0 0 0 .025-.255c-.013-.209.019-.257.054-.081.042.21.022.447-.063.74-.145.502-.21.98-.126.928.022-.013.035.05.035.165 0 .518.187 1.167.616 2.14.297.674.4 1.014.414 1.368l.009.231-.123.025c-.315.063-.423.069-.425.024a.56.56 0 0 0-.053-.15l-.051-.105.018.145.017.146-.15.02c-.196.028-1.815.077-2.42.074-.639-.004-.898-.158-1.16-.694-.285-.581-.154-1.068.65-2.429l.59-.997c.087-.148.13-.186.255-.223.257-.076.95-.494.897-.542-.01-.009-.152.013-.316.048-.776.166-1.379.026-1.402-.325-.023-.345.18-.453 1.014-.541zm1.76.898c.065-.251.307-.912.355-.97.043-.052.098-.058.39-.042.552.031.852.22.852.536 0 .315-.249.424-.874.382a4.878 4.878 0 0 0-.417-.017c-.017.004-.023-.012-.015-.036.01-.031.122-.047.371-.053.466-.01.634-.054.664-.176.027-.107-.007-.173-.14-.272-.12-.09-.606-.132-.579-.051.01.028-.058.104-.163.182-.282.21-.53.69-.417.804.023.023.042-.012.056-.1.041-.257.087-.282.315-.174.109.051.209.093.223.093.047 0 .542.321.542.352 0 .016.152.36.338.763.883 1.915.976 2.416.542 2.91-.152.171-.668.431-.696.35-.022-.068-.068-.051-.097.036-.025.074-.027.072-.042-.027-.024-.169-.08-.19-.085-.033-.003.086-.016.039-.033-.125-.059-.54-.23-1.073-.6-1.87-.436-.941-.631-1.92-.49-2.462zm-2.452-.509c.024-.063.253-.163.44-.192a.866.866 0 0 1 .648.127c.139.083.225.114.275.098.05-.015.12.007.212.069.156.103.195.205.042.107-.094-.059-.093-.057.015.058.193.205.324.585.222.647-.02.013-.035-.026-.035-.095 0-.3-.28-.513-.592-.448-.295.061-.894.049-1.03-.021-.11-.057-.229-.267-.197-.35zm2.308.368c-.04 0-.039-.023.006-.184.02-.073.053-.132.072-.132.02 0 .028.027.018.061-.01.034-.029.105-.041.159-.013.053-.038.096-.055.096zm1.378.396c0-.2.022-.24.179-.32.066-.034.122-.06.125-.06.014.004.153 1.255.15 1.346-.002.063-.023.018-.056-.123-.044-.187-.063-.221-.117-.207-.092.024-.282-.405-.281-.636zm-.329.45c-.066 0-.118-.065-.148-.186-.035-.141.029-.117.12.045.062.11.068.14.028.14zm-2.369-.022c-.017-.09-.01-.136.025-.158a.315.315 0 0 1 .058-.031c.005 0 .009.07.009.158 0 .19-.058.21-.092.031zm.312.215c-.083-.127-.095-.184-.058-.279.035-.092.08-.063.114.077.094.372.081.415-.056.202zm-3.41.898c.012-.097.032-.2.043-.229.035-.091.09-.057.07.044l-.043.23c-.035.203-.098.163-.07-.045zm.161.528c-.02 0-.035-.129-.035-.316 0-.188.014-.317.035-.317.021 0 .035.129.035.317 0 .187-.014.316-.035.316zm-.015 1.292c-.065-.021-.161-.518-.185-.948-.014-.268-.01-.414.013-.414.02 0 .046.165.06.379.012.208.051.517.086.687.04.193.049.304.026.296zm.11-.21c-.05-.016-.086-.157-.115-.453-.016-.158-.012-.241.012-.241.02 0 .047.099.06.22.014.121.038.28.054.354.02.093.016.13-.01.12zm6.302.668c-.049.049-.064-.027-.041-.198.032-.235.103-.237.08-.001a.641.641 0 0 1-.04.2zm-6.875 2c.063-.241.124-1.09.128-1.76l.003-.458.103.298c.118.34.174.423.174.257 0-.21.06-.144.284.318.245.502.263.506.238.052-.009-.152-.002-.192.024-.147.019.034.08.11.134.17.096.106.098.107.078.02-.008-.035-.015-.06-.01-.062.007-.003.047.058.167.238.049.073.15.201.225.286l.136.155-.024-.14a5.703 5.703 0 0 0-.044-.23c-.017-.073-.002-.064.084.053.261.354.708.646 1.178.771.184.049.26.067.29.115.023.035.022.084.022.172 0 .368.27.972.595 1.33.118.13.214.25.214.267 0 .046-.189.074-.492.074-.15 0-.323.01-.383.022-.192.038-.12.076.11.058.191-.015.72.039.759.078.028.028-.17.412-.287.556a1.889 1.889 0 0 0-.159.225c-.055.105-.1 1.035-.075 1.544.012.232.018.427.014.433a.666.666 0 0 1-.085-.152 1.516 1.516 0 0 0-.159-.257c-.084-.1-.17-.324-.213-.553-.034-.177-.08-.083-.083.169l-.003.168-.085-.056c-.114-.075-.157-.209-.204-.645-.024-.217-.034-.321-.092-.372-.055-.048-.151-.048-.342-.05a2.02 2.02 0 0 1-1.023-.328c-.314-.203-.876-.732-.828-.78.019-.019.316-.045.662-.057.73-.027.621-.063-.307-.103l-.544-.023-.133-.194c-.216-.315-.235-.515-.11-1.197.004-.03.033-.148.063-.264zm6.637-1.883c-.036 0-.042-.108-.01-.19.03-.078.084-.07.084.01 0 .093-.036.18-.074.18zm-4.24.33c-.079-.05-.229-.253-.229-.308 0-.05.05-.013.24.171.196.192.19.27-.011.138zm.289-.048c-.049 0-.236-.178-.236-.225 0-.034.28.163.281.198 0 .015-.02.027-.045.027zm.249-.016c-.032.033-.133-.008-.133-.054 0-.044.037-.045.105-.002.028.018.04.043.028.056zm3.125.245c.329-.066.654-.126.722-.134a6.96 6.96 0 0 0 .16-.02c.051-.007.198.133.176.169-.035.056-.22.105-.684.18-.26.042-.628.129-.818.193-.616.207-.942.228-1.863.12-.165-.018-.482-.05-.704-.069-.223-.019-.5-.045-.616-.058l-.212-.023.264-.065c.222-.054.395-.064 1.074-.06.95.007 1.601-.054 2.5-.233zm.067.685c.206-.04.41-.086.453-.104.13-.052.253-.045.206.012-.109.13-.903.273-1.465.264l-.318-.006.336-.023c.185-.012.353-.034.375-.047.02-.013.207-.056.413-.096zm-7.727 2.176c.32-.262.772-.674 1.004-.916.545-.566.554-.568.351-.08-.251.608-.232.934.09 1.53l.107.194-.403.403-.403.403-.247-.226a6.907 6.907 0 0 0-.671-.507c-.233-.155-.42-.292-.416-.304.004-.011.269-.235.588-.497zm5.098-1.087c-.112-.057-.203-.119-.203-.138 0-.11.338.122.739.51.184.178.541.486.793.685l.58.459.122.096-.186.296c-.175.278-.231.386-.295.39-.047.004-.098-.048-.202-.13-.118-.093-.22-.202-.23-.242-.097-.483-.145-.67-.22-.858-.187-.47-.536-.885-.898-1.068zm.067 3.182c-.01.024-.018.004-.018-.044 0-.049.008-.068.018-.044.01.024.01.064 0 .088zM7.32 20.91a12.416 12.416 0 0 1-.074-.314c-.017-.078-.013-.092.014-.053.063.092.273.782.315 1.04.05.3.066.378.038.398-.011.008-.03.006-.058.006-.055 0-.083-.02-.083-.062a9.248 9.248 0 0 0-.152-1.015zm7.897.313c-.003.169-.06.087-.065-.092-.002-.058.012-.09.032-.077.02.012.034.088.033.17zm-.35.277c0 .307-.017.302-.049-.015-.015-.154-.01-.238.013-.238.022 0 .036.104.036.253z" fill="#E4E7F5" fill-opacity=".9"/>
    </g>
    <defs>
        <clipPath id="erw3d5g11a">
            <path fill="#fff" d="M0 0h24v24H0z"/>
        </clipPath>
    </defs>
</svg>
