<svg width="24" height="24" viewBox="0 0 24 24" fill="none" xmlns="http://www.w3.org/2000/svg">
    <g clip-path="url(#p99u7b027a)">
        <path fill="#000" fill-opacity=".01" d="M0 0h24v24H0z"/>
        <path d="M13.4 6h1.2c.2 0 .4-.2.4-.4V2.4c0-.2-.2-.4-.4-.4h-1.2c-.2 0-.4.2-.4.4v3.2c0 .2.2.4.4.4z" fill="#E4E7F5" fill-opacity=".9"/>
        <path d="m21.7 5.7-3.4-3.4c-.2-.2-.4-.3-.7-.3H17v4c0 .6-.4 1-1 1H8c-.6 0-1-.4-1-1V2H3c-.6 0-1 .4-1 1v18c0 .6.4 1 1 1h18c.6 0 1-.4 1-1V6.4c0-.3-.1-.5-.3-.7zM6 19.6c0 .2-.2.4-.4.4H4.4c-.2 0-.4-.2-.4-.4v-1.2c0-.2.2-.4.4-.4h1.2c.2 0 .4.2.4.4v1.2zm6-2.6c-2.2 0-4-1.8-4-4s1.8-4 4-4 4 1.8 4 4-1.8 4-4 4z" fill="#E4E7F5" fill-opacity=".9"/>
        <path fill="#000" fill-opacity=".01" d="M0 0h24v24H0z"/>
    </g>
    <defs>
        <clipPath id="p99u7b027a">
            <path fill="#fff" d="M0 0h24v24H0z"/>
        </clipPath>
    </defs>
</svg>
