<svg width="24" height="24" viewBox="0 0 24 24" fill="none" xmlns="http://www.w3.org/2000/svg">
    <path fill="#000" fill-opacity=".01" d="M0 0h24v24H0z"/>
    <path d="M11.703 1C6.417 1 2.129 4.5 2.129 8.812c0 .093.023.21.115.279l6.26 6.653c.139-.255.347-.464.602-.603L3.08 8.697c.093-.418 1.066-.997 2.573-.997 1.6 0 2.48.602 2.62 1.066l1.9 6.12h.905L9.222 8.882a.516.516 0 0 1 0-.325c.232-.394 1.16-.857 2.527-.857 1.322 0 2.226.44 2.48.834.07.093.07.232.024.348l-1.855 6.004h.881l1.901-6.12C15.342 8.233 16.2 7.7 17.8 7.7c1.507 0 2.457.58 2.55.997l-6.028 6.444c.256.14.464.348.603.603l6.26-6.653a.367.367 0 0 0 .115-.279C21.277 4.501 16.988 1 11.703 1zM13.418 15.767h-3.43a.88.88 0 0 0-.882.881v5.471c0 .487.395.881.881.881h3.431a.88.88 0 0 0 .881-.88v-5.472a.88.88 0 0 0-.88-.88zm-1.877 3.269h.324c.696 0 1.229.58 1.16 1.298-.047.533-.464.927-.974 1.02v.464a.1.1 0 0 1-.093.092h-.533a.1.1 0 0 1-.093-.092v-.464c-.51-.093-.927-.51-.974-1.043a.1.1 0 0 1 .093-.093h.556c.047 0 .093.023.093.07.046.208.232.37.44.37h.302c.232 0 .44-.162.464-.37a.453.453 0 0 0-.44-.534h-.279c-.603 0-1.16-.44-1.229-1.066a1.16 1.16 0 0 1 .974-1.275v-.464a.1.1 0 0 1 .093-.092h.533a.1.1 0 0 1 .093.092v.464c.51.093.927.51.973 1.043a.1.1 0 0 1-.092.093h-.534c-.046 0-.092-.023-.092-.07a.468.468 0 0 0-.44-.37h-.302c-.232 0-.44.162-.464.37-.046.302.162.557.44.557z" fill="#E4E7F5"/>
</svg>
