<svg width="32" height="32" viewBox="0 0 32 32" fill="none" xmlns="http://www.w3.org/2000/svg">
    <rect x=".5" y=".5" width="31" height="31" rx="15.5" fill="#08060B" stroke="url(#cg6koio6ea)"/>
    <path d="m11.596 17.892-6.564 1.519L22.842 6l-3.692 6.024 2.995-1.472-2.34 3.277 7.163-2.81L7.7 26.346l3.896-8.454z" fill="#08060B"/>
    <path d="m13.165 16.646-4.74 1.29L21.401 7.129l-4.459 7.044 3.479-1.942-5.17 5.881 3.815-1.601-10.312 8.586 4.41-8.45z" fill="#121317"/>
    <path d="m20.422 12.231-3.541 3.765 7.826-3.765L8.755 25.097l3.698-7.084 1.413-1.753-.247-.925-3.126.879 10.909-9.085-4.46 7.044 3.48-1.942z" fill="url(#rqpwdxyl2b)"/>
    <path d="M6.695 18.645s.377-.377 1.212-1.104c1.605-1.398 4.858-4.143 10.034-8.336.662-.535 1.36-1.064 2.087-1.648 0 0-.63.668-1.846 1.756-1.258 1.125-3.135 2.702-5.315 4.502-2.585 2.134-3.714 3.074-4.858 3.912a44.1 44.1 0 0 1-1.314.918z" fill="url(#8za4vjvt7c)"/>
    <path d="M16.139 20.314s.479-.491 1.162-1.054c.82-.67 1.828-1.49 2.588-2.062 1.445-1.086 2.616-2.09 3.603-2.684.015.009-1.72 1.506-3.528 2.894-1.682 1.286-3.324 2.64-3.825 2.906z" fill="#E8A849"/>
    <path d="M15.27 21.656s-1.113 1.024-2.53 2.239a106.585 106.585 0 0 1-2.597 2.158s1.114-1.023 2.53-2.238c1.416-1.216 2.597-2.159 2.597-2.159z" fill="#A9A895"/>
    <path d="M12.65 11.02s-1.478 1.274-3.314 2.826a421.857 421.857 0 0 1-3.343 2.795s1.478-1.274 3.315-2.826 3.342-2.795 3.342-2.795z" fill="#6A5652"/>
    <path d="M19.806 6S18.73 7.039 17.38 8.294c-1.348 1.256-2.458 2.258-2.458 2.258S16 9.512 17.347 8.257C18.696 7.002 19.806 6 19.806 6z" fill="url(#pel9jled1d)"/>
    <path d="M23.334 11.3s-.848.743-1.911 1.633c-1.064.891-1.942 1.593-1.942 1.593s.847-.742 1.91-1.633c1.065-.89 1.943-1.592 1.943-1.592z" fill="#B2A287"/>
    <path d="m12.453 18.014.712-1.367-4.74 1.29 2.068-1.723 3.126-.878.248.925-1.414 1.753z" fill="url(#kcms4qxbie)"/>
    <path d="M9.105 17.37 19.7 8.542l.23-.188a2.203 2.203 0 0 0-.39.439l-4.617 7.059 3.652-2.421-3.069 3.859 7.083-3.7L9.225 24.17l4.35-8.318-3.626 1.265a5.501 5.501 0 0 0-1.525.82l.68-.567z" fill="url(#zh4gdkonbf)"/>
    <defs>
        <linearGradient id="cg6koio6ea" x1="20.32" y1="32" x2="17.655" y2=".224" gradientUnits="userSpaceOnUse">
            <stop stop-color="#E3A406"/>
            <stop offset="1" stop-color="#FBD851"/>
        </linearGradient>
        <linearGradient id="rqpwdxyl2b" x1="1482.25" y1="-104.02" x2="-4.13" y2="1633.13" gradientUnits="userSpaceOnUse">
            <stop stop-color="#DD5939"/>
            <stop offset=".356" stop-color="#EB7B68"/>
            <stop offset=".53" stop-color="#EA5724"/>
            <stop offset=".571" stop-color="#EF5E49"/>
            <stop offset=".714" stop-color="#F35D42"/>
            <stop offset="1" stop-color="#D55D1F"/>
        </linearGradient>
        <linearGradient id="8za4vjvt7c" x1="1088.95" y1="330.535" x2="141.17" y2="1109.12" gradientUnits="userSpaceOnUse">
            <stop stop-color="#9FCED6"/>
            <stop offset="1" stop-color="#3FA1AE"/>
        </linearGradient>
        <linearGradient id="pel9jled1d" x1="411.23" y1="114.202" x2="38.733" y2="457.221" gradientUnits="userSpaceOnUse">
            <stop stop-color="#9FCED6"/>
            <stop offset="1" stop-color="#3FA1AE"/>
        </linearGradient>
        <linearGradient id="kcms4qxbie" x1="543.454" y1="116.81" x2="124.942" y2="352.343" gradientUnits="userSpaceOnUse">
            <stop stop-color="#D2890A"/>
            <stop offset=".157" stop-color="#CA8000"/>
            <stop offset=".712" stop-color="#B97C10"/>
            <stop offset="1" stop-color="#CC8303"/>
        </linearGradient>
        <linearGradient id="zh4gdkonbf" x1="1265.71" y1="8.354" x2="33.626" y2="1581.77" gradientUnits="userSpaceOnUse">
            <stop stop-color="#EEB81F"/>
            <stop offset=".248" stop-color="#FFDF5B"/>
            <stop offset=".712" stop-color="#E09F00"/>
            <stop offset="1" stop-color="#E8A608"/>
        </linearGradient>
    </defs>
</svg>
