<svg width="24" height="24" viewBox="0 0 24 24" fill="none" xmlns="http://www.w3.org/2000/svg">
<rect width="24" height="24" fill="black" fill-opacity="0.01"/>
<path d="M0 12C0 8.8174 1.26427 5.76516 3.51468 3.51472C5.76509 1.26428 8.81731 0 11.9999 0C15.1824 0 18.2346 1.26428 20.4851 3.51472C22.7355 5.76516 23.9997 8.8174 23.9997 12C23.9997 13.5759 23.6894 15.1363 23.0863 16.5922C22.4833 18.0481 21.5993 19.371 20.4851 20.4853C19.3708 21.5996 18.0479 22.4835 16.592 23.0866C15.1361 23.6896 13.5757 24 11.9999 24C8.81731 24 5.76509 22.7357 3.51468 20.4853C1.26427 18.2348 0 15.1826 0 12Z" fill="url(#paint0_linear_2731_74034)"/>
<path d="M0.2 12C0.2 8.87045 1.4432 5.86907 3.6561 3.65614C5.86901 1.44321 8.87035 0.2 11.9999 0.2C15.1294 0.2 18.1307 1.44321 20.3436 3.65614C22.5565 5.86907 23.7997 8.87045 23.7997 12C23.7997 13.5496 23.4945 15.084 22.9015 16.5157C22.3085 17.9473 21.4394 19.2481 20.3436 20.3439C19.2479 21.4396 17.9471 22.3088 16.5155 22.9018C15.0839 23.4948 13.5494 23.8 11.9999 23.8C8.87035 23.8 5.86901 22.5568 3.6561 20.3439C1.4432 18.1309 0.2 15.1296 0.2 12Z" stroke="white" stroke-opacity="0.3" stroke-width="0.4" style="mix-blend-mode:soft-light"/>
<g style="mix-blend-mode:hard-light">
<path d="M0 12C0 8.8174 1.26427 5.76516 3.51468 3.51472C5.76509 1.26428 8.81731 0 11.9999 0C15.1824 0 18.2346 1.26428 20.4851 3.51472C22.7355 5.76516 23.9997 8.8174 23.9997 12C23.9997 13.5759 23.6894 15.1363 23.0863 16.5922C22.4833 18.0481 21.5993 19.371 20.4851 20.4853C19.3708 21.5996 18.0479 22.4835 16.592 23.0866C15.1361 23.6896 13.5757 24 11.9999 24C8.81731 24 5.76509 22.7357 3.51468 20.4853C1.26427 18.2348 0 15.1826 0 12Z" fill="url(#paint1_linear_2731_74034)" style="mix-blend-mode:overlay"/>
</g>
<path d="M2.60039 12C2.60039 9.52894 3.58202 7.15907 5.32932 5.41174C7.07662 3.66442 9.44647 2.68279 11.9175 2.68279C14.3886 2.68279 16.7584 3.66442 18.5057 5.41174C20.253 7.15907 21.2347 9.52894 21.2347 12C21.2347 13.2236 20.9937 14.4352 20.5254 15.5656C20.0572 16.696 19.3709 17.7231 18.5057 18.5883C17.6406 19.4535 16.6134 20.1398 15.483 20.608C14.3526 21.0763 13.1411 21.3173 11.9175 21.3173C9.44647 21.3173 7.07662 20.3356 5.32932 18.5883C3.58202 16.841 2.60039 14.4711 2.60039 12Z" fill="url(#paint2_linear_2731_74034)" stroke="url(#paint3_linear_2731_74034)" stroke-width="0.4"/>
<path d="M6.00019 6.00018C7.59144 4.40893 9.74963 3.51497 12 3.51497C14.2504 3.51497 16.4086 4.40893 17.9998 6.00018C19.5911 7.59143 20.485 9.74962 20.485 12C20.485 14.2504 19.5911 16.4086 17.9998 17.9998C17.2119 18.7877 16.2765 19.4127 15.2471 19.8391C14.2176 20.2655 13.1143 20.485 12 20.485C10.8857 20.485 9.78237 20.2655 8.75292 19.8391C7.72348 19.4127 6.78809 18.7877 6.00019 17.9998C4.40894 16.4086 3.51498 14.2504 3.51498 12C3.51498 9.74962 4.40894 7.59143 6.00019 6.00018Z" fill="url(#paint4_radial_2731_74034)"/>
<path d="M17.9998 17.9998C16.4086 19.5911 14.2504 20.485 12 20.485C9.74963 20.485 7.59144 19.5911 6.00019 17.9998C4.40894 16.4086 3.51498 14.2504 3.51498 12C3.51498 9.74964 4.40894 7.59145 6.00019 6.0002C6.78809 5.21229 7.72348 4.58729 8.75292 4.16088C9.78237 3.73446 10.8857 3.51499 12 3.51499C13.1143 3.51499 14.2176 3.73446 15.2471 4.16088C16.2765 4.58729 17.2119 5.21229 17.9998 6.0002C19.5911 7.59145 20.485 9.74964 20.485 12C20.485 14.2504 19.5911 16.4086 17.9998 17.9998Z" fill="url(#paint5_radial_2731_74034)"/>
<path d="M2.56039 11.9999C2.56039 9.51821 3.54623 7.13816 5.30103 5.38334C7.05584 3.62852 9.43586 2.64267 11.9175 2.64267C14.3992 2.64267 16.7792 3.62852 18.534 5.38334C20.2888 7.13816 21.2747 9.51821 21.2747 11.9999C21.2747 13.2287 21.0326 14.4455 20.5624 15.5808C20.0922 16.716 19.4029 17.7476 18.534 18.6165C17.6651 19.4854 16.6336 20.1746 15.4983 20.6449C14.3631 21.1151 13.1463 21.3571 11.9175 21.3571C9.43586 21.3571 7.05584 20.3713 5.30103 18.6165C3.54623 16.8617 2.56039 14.4816 2.56039 11.9999Z" stroke="url(#paint6_radial_2731_74034)" stroke-width="0.32"/>
<g filter="url(#filter0_i_2731_74034)">
<path d="M10.5407 8.56231H10.4373C8.78862 8.56231 7.45851 7.97269 7.44733 7.2238C7.43616 6.46094 8.80259 5.81824 10.5015 5.79309H10.6049C12.2536 5.79309 13.5809 6.3827 13.5921 7.13159C13.6033 7.89725 12.2368 8.53716 10.5407 8.56231Z" fill="url(#paint7_linear_2731_74034)"/>
<path d="M14.4234 12.7398C16.1208 12.7142 17.4875 12.0743 17.476 11.3104C17.4645 10.5466 16.0792 9.94809 14.3817 9.97365C12.6843 9.99922 11.3176 10.6392 11.3291 11.403C11.3406 12.1669 12.726 12.7654 14.4234 12.7398Z" fill="url(#paint8_linear_2731_74034)"/>
<path d="M17.4874 14.7882L17.4846 14.7912V14.7882H17.4874Z" fill="url(#paint9_linear_2731_74034)"/>
<path d="M17.4846 14.7912V15.9953C17.4399 16.7386 16.0958 17.3534 14.4332 17.3785C12.737 17.4037 11.351 16.8057 11.3399 16.04C11.338 16.029 11.3386 16.0191 11.3392 16.0089C11.3395 16.0036 11.3399 15.9982 11.3399 15.9925V14.8748C11.8624 15.4113 13.0528 15.7746 14.4304 15.755C15.8027 15.7355 16.9746 15.3401 17.4846 14.7912Z" fill="url(#paint10_linear_2731_74034)"/>
<path d="M11.3426 12.5667C11.8652 13.1033 13.0556 13.4665 14.4332 13.447C15.8052 13.4274 16.9788 13.0306 17.4874 12.4857V13.6873C17.4427 14.4306 16.0986 15.0453 14.436 15.0705C12.7398 15.0956 11.3538 14.4977 11.3426 13.732C11.3408 13.7209 11.3414 13.7111 11.342 13.7008C11.3423 13.6956 11.3426 13.6902 11.3426 13.6845V12.5667Z" fill="url(#paint11_linear_2731_74034)"/>
<path d="M10.5518 11.5772H10.44C9.10991 11.5772 7.96982 11.2196 7.46125 10.6942V11.812C7.46125 11.8177 7.46093 11.823 7.46061 11.8283C7.46 11.8385 7.45941 11.8484 7.46125 11.8595C7.47243 12.6084 8.80254 13.198 10.4512 13.198H10.5546C10.5881 13.198 10.6244 13.198 10.658 13.1952V11.5744C10.6217 11.5772 10.5881 11.5772 10.5518 11.5772Z" fill="url(#paint12_linear_2731_74034)"/>
<path d="M12.1921 9.67694C12.4575 9.57355 12.7481 9.48972 13.0555 9.42824C13.2344 9.39192 13.4188 9.36118 13.6088 9.33882V8.30212C13.1002 8.85261 11.9266 9.2494 10.5518 9.26897H10.44C9.10991 9.26897 7.96982 8.91129 7.46125 8.38595V9.50369C7.46125 9.50939 7.46093 9.51476 7.46061 9.52003C7.46 9.53027 7.45941 9.54013 7.46125 9.5512C7.47243 10.3001 8.80254 10.8897 10.4512 10.8897H10.5546C10.6189 10.8897 10.6831 10.8869 10.7446 10.8841C10.7474 10.8757 10.7502 10.8673 10.753 10.8618C10.8228 10.6997 10.9179 10.5572 11.0268 10.4314C11.0995 10.3476 11.1805 10.2721 11.2644 10.2023C11.3761 10.1073 11.4991 10.0234 11.6276 9.948C11.8037 9.84181 11.9909 9.75239 12.1921 9.67694Z" fill="url(#paint13_linear_2731_74034)"/>
<path d="M7.46125 12.9939C7.96982 13.5193 9.10991 13.8769 10.44 13.8769H10.5518C10.5682 13.8769 10.5853 13.8763 10.6028 13.8756C10.6209 13.8749 10.6395 13.8741 10.658 13.8741V15.4949C10.6244 15.4977 10.5881 15.4977 10.5546 15.4977H10.4512C8.80254 15.4977 7.47243 14.9081 7.46125 14.1592C7.45935 14.1478 7.46004 14.1364 7.46067 14.1258C7.46097 14.1209 7.46125 14.1161 7.46125 14.1117V12.9939Z" fill="url(#paint14_linear_2731_74034)"/>
</g>
<path d="M10.5518 9.30897V9.30897H10.44C9.77155 9.30897 9.15007 9.21911 8.63102 9.06276C8.15604 8.91968 7.76419 8.72011 7.50125 8.4804V9.50369C7.50125 9.5106 7.50087 9.51699 7.50056 9.52206L7.50054 9.52243C7.4999 9.53305 7.49971 9.53862 7.50071 9.54462L7.5017 9.55059L7.50125 9.5506C7.50646 9.89997 7.82124 10.225 8.35847 10.4648C8.89221 10.703 9.63108 10.8497 10.4512 10.8497H10.5546C10.6089 10.8497 10.6633 10.8477 10.7165 10.8453C10.7165 10.8453 10.7166 10.8452 10.7166 10.8451C10.7168 10.8447 10.717 10.8443 10.7172 10.8439L10.7198 10.8452C10.7275 10.8448 10.7352 10.8445 10.7428 10.8441L10.7434 10.8569L10.753 10.8618M10.5518 9.30897L7.50125 8.42568C8.02791 8.92924 9.14372 9.26897 10.44 9.26897H10.5518C11.8917 9.2499 13.0405 8.8725 13.5688 8.34373V8.39963M10.5518 9.30897L10.5524 9.30896C11.2433 9.29913 11.8844 9.19452 12.4174 9.02271C12.9049 8.86558 13.3047 8.65137 13.5688 8.39963M10.5518 9.30897L13.5688 8.39963M10.753 10.8618L10.7434 10.8576L10.7446 10.8841C10.7474 10.8757 10.7502 10.8673 10.753 10.8618ZM10.753 10.8618C10.8228 10.6997 10.9179 10.5572 11.0268 10.4314C11.0995 10.3476 11.1805 10.2721 11.2644 10.2023M11.2644 10.2023C11.3761 10.1073 11.4991 10.0234 11.6276 9.948C11.8037 9.84181 11.9909 9.75239 12.1921 9.67694C12.4575 9.57355 12.7481 9.48972 13.0555 9.42824C13.2344 9.39192 13.4188 9.36118 13.6088 9.33882V8.36016C13.5958 8.37342 13.5825 8.38658 13.5688 8.39963M11.2644 10.2023L11.2387 10.1716C11.2387 10.1716 11.2386 10.1716 11.2386 10.1717M11.2644 10.2023L11.2384 10.1718C11.2385 10.1718 11.2385 10.1717 11.2386 10.1717M13.5688 8.39963V9.30336C13.39 9.32544 13.2163 9.35478 13.0476 9.38904L13.0555 9.42824L13.0477 9.38902C12.7383 9.45089 12.4455 9.53531 12.1778 9.63958C11.9747 9.71577 11.7853 9.80616 11.6072 9.91362M13.5688 8.39963L11.2386 10.1717M11.6072 9.91362C11.6072 9.91358 11.6073 9.91354 11.6074 9.9135L11.6276 9.94798L11.607 9.91374C11.607 9.9137 11.6071 9.91366 11.6072 9.91362ZM11.6072 9.91362C11.4772 9.98989 11.3524 10.075 11.2386 10.1717M10.5404 8.52231H10.4373C9.61717 8.52231 8.87829 8.37558 8.34455 8.13736C7.80732 7.89759 7.49255 7.57259 7.48733 7.22322L10.5404 8.52231ZM10.5404 8.52231C11.384 8.50976 12.1437 8.3443 12.6897 8.08842C13.2393 7.83078 13.5573 7.48952 13.5521 7.13219C13.5469 6.78278 13.2327 6.45778 12.6962 6.21803C12.1632 5.97982 11.4251 5.83309 10.6049 5.83309H10.5018C9.65682 5.84564 8.89643 6.01179 8.35013 6.26802C7.80003 6.52603 7.48212 6.8673 7.48733 7.22321L10.5404 8.52231ZM17.4446 14.8883V15.9941C17.423 16.3415 17.0953 16.6715 16.5491 16.9198C16.0057 17.1668 15.2596 17.326 14.4326 17.3385C13.5888 17.351 12.8241 17.2085 12.2705 16.9691C11.7132 16.7282 11.3851 16.3967 11.3799 16.0394L11.3803 16.0394L11.3793 16.0335C11.3783 16.0275 11.3785 16.0219 11.3792 16.0113L11.3792 16.0109C11.3795 16.0058 11.3799 15.9994 11.3799 15.9925V14.9688C11.6507 15.2144 12.0585 15.4181 12.5533 15.5618C13.0927 15.7185 13.7387 15.8048 14.431 15.795C15.1206 15.7852 15.7607 15.6809 16.2931 15.5097C16.7802 15.353 17.1799 15.1394 17.4446 14.8883ZM11.3826 13.6845V12.6608C11.6535 12.9063 12.0613 13.1101 12.5561 13.2538C13.0954 13.4105 13.7414 13.4968 14.4337 13.487C15.1233 13.4771 15.7637 13.3725 16.2963 13.2014C16.7835 13.0449 17.1833 12.8319 17.4474 12.5826V13.6861C17.4258 14.0335 17.0981 14.3635 16.5518 14.6118C16.0084 14.8588 15.2624 15.018 14.4354 15.0305C13.5916 15.043 12.8269 14.9004 12.2733 14.6611C11.7159 14.4201 11.3878 14.0887 11.3826 13.7314L11.3831 13.7314L11.3821 13.7254C11.3811 13.7194 11.3813 13.7139 11.3819 13.7032L11.3819 13.7029C11.3822 13.6978 11.3826 13.6914 11.3826 13.6845ZM7.50125 11.8589L7.5017 11.8589L7.50071 11.8529C7.49971 11.8469 7.4999 11.8413 7.50054 11.8307L7.50056 11.8303C7.50087 11.8253 7.50125 11.8189 7.50125 11.812V10.7887C7.76419 11.0284 8.15604 11.228 8.63102 11.371C9.15007 11.5274 9.77155 11.6172 10.44 11.6172H10.5518H10.5525C10.5744 11.6172 10.5959 11.6172 10.618 11.6166V13.1573C10.5972 13.158 10.5757 13.158 10.5546 13.158H10.4512C9.63108 13.158 8.89221 13.0112 8.35847 12.773C7.82124 12.5333 7.50646 12.2082 7.50125 11.8589ZM7.50125 14.1586L7.5017 14.1586L7.50071 14.1526C7.49967 14.1464 7.49993 14.1394 7.5006 14.1282L7.50063 14.1277C7.5009 14.1231 7.50125 14.1174 7.50125 14.1117V13.0884C7.76419 13.3281 8.15604 13.5277 8.63102 13.6707C9.15007 13.8271 9.77155 13.9169 10.44 13.9169H10.5518C10.569 13.9169 10.5868 13.9162 10.6039 13.9156L10.6043 13.9156C10.6089 13.9154 10.6135 13.9152 10.618 13.915V15.457C10.5972 15.4577 10.5757 15.4577 10.5546 15.4577H10.4512C9.63108 15.4577 8.89221 15.3109 8.35847 15.0727C7.82124 14.833 7.50646 14.508 7.50125 14.1586ZM17.436 11.311C17.4414 11.6674 17.1235 12.0082 16.5736 12.2657C16.0274 12.5215 15.2672 12.6871 14.4228 12.6998C13.5784 12.7125 12.8136 12.5699 12.2599 12.3307C11.7025 12.0899 11.3745 11.7588 11.3691 11.4024C11.3637 11.046 11.6816 10.7052 12.2315 10.4477C12.7777 10.192 13.5379 10.0264 14.3823 10.0136C15.2267 10.0009 15.9916 10.1435 16.5452 10.3827C17.1027 10.6236 17.4307 10.9547 17.436 11.311Z" stroke="url(#paint15_linear_2731_74034)" stroke-width="0.08" style="mix-blend-mode:overlay"/>
<g style="mix-blend-mode:hard-light">
<path d="M10.5407 8.56231H10.4373C8.78862 8.56231 7.45851 7.97269 7.44733 7.2238C7.43616 6.46094 8.80259 5.81824 10.5015 5.79309H10.6049C12.2536 5.79309 13.5809 6.3827 13.5921 7.13159C13.6033 7.89725 12.2368 8.53716 10.5407 8.56231Z" fill="url(#paint16_linear_2731_74034)" style="mix-blend-mode:overlay"/>
<path d="M14.4234 12.7398C16.1208 12.7142 17.4875 12.0743 17.476 11.3104C17.4645 10.5466 16.0792 9.94809 14.3817 9.97365C12.6843 9.99922 11.3176 10.6392 11.3291 11.403C11.3406 12.1669 12.726 12.7654 14.4234 12.7398Z" fill="url(#paint17_linear_2731_74034)" style="mix-blend-mode:overlay"/>
<path d="M17.4874 14.7882L17.4846 14.7912V14.7882H17.4874Z" fill="url(#paint18_linear_2731_74034)" style="mix-blend-mode:overlay"/>
<path d="M17.4846 14.7912V15.9953C17.4399 16.7386 16.0958 17.3534 14.4332 17.3785C12.737 17.4037 11.351 16.8057 11.3399 16.04C11.338 16.029 11.3386 16.0191 11.3392 16.0089C11.3395 16.0036 11.3399 15.9982 11.3399 15.9925V14.8748C11.8624 15.4113 13.0528 15.7746 14.4304 15.755C15.8027 15.7355 16.9746 15.3401 17.4846 14.7912Z" fill="url(#paint19_linear_2731_74034)" style="mix-blend-mode:overlay"/>
<path d="M11.3426 12.5667C11.8652 13.1033 13.0556 13.4665 14.4332 13.447C15.8052 13.4274 16.9788 13.0306 17.4874 12.4857V13.6873C17.4427 14.4306 16.0986 15.0453 14.436 15.0705C12.7398 15.0956 11.3538 14.4977 11.3426 13.732C11.3408 13.7209 11.3414 13.7111 11.342 13.7008C11.3423 13.6956 11.3426 13.6902 11.3426 13.6845V12.5667Z" fill="url(#paint20_linear_2731_74034)" style="mix-blend-mode:overlay"/>
<path d="M10.5518 11.5772H10.44C9.10991 11.5772 7.96982 11.2196 7.46125 10.6942V11.812C7.46125 11.8177 7.46093 11.823 7.46061 11.8283C7.46 11.8385 7.45941 11.8484 7.46125 11.8595C7.47243 12.6084 8.80254 13.198 10.4512 13.198H10.5546C10.5881 13.198 10.6244 13.198 10.658 13.1952V11.5744C10.6217 11.5772 10.5881 11.5772 10.5518 11.5772Z" fill="url(#paint21_linear_2731_74034)" style="mix-blend-mode:overlay"/>
<path d="M12.1921 9.67694C12.4575 9.57355 12.7481 9.48972 13.0555 9.42824C13.2344 9.39192 13.4188 9.36118 13.6088 9.33882V8.30212C13.1002 8.85261 11.9266 9.2494 10.5518 9.26897H10.44C9.10991 9.26897 7.96982 8.91129 7.46125 8.38595V9.50369C7.46125 9.50939 7.46093 9.51476 7.46061 9.52003C7.46 9.53027 7.45941 9.54013 7.46125 9.5512C7.47243 10.3001 8.80254 10.8897 10.4512 10.8897H10.5546C10.6189 10.8897 10.6831 10.8869 10.7446 10.8841C10.7474 10.8757 10.7502 10.8673 10.753 10.8618C10.8228 10.6997 10.9179 10.5572 11.0268 10.4314C11.0995 10.3476 11.1805 10.2721 11.2644 10.2023C11.3761 10.1073 11.4991 10.0234 11.6276 9.948C11.8037 9.84181 11.9909 9.75239 12.1921 9.67694Z" fill="url(#paint22_linear_2731_74034)" style="mix-blend-mode:overlay"/>
<path d="M7.46125 12.9939C7.96982 13.5193 9.10991 13.8769 10.44 13.8769H10.5518C10.5682 13.8769 10.5853 13.8763 10.6028 13.8756C10.6209 13.8749 10.6395 13.8741 10.658 13.8741V15.4949C10.6244 15.4977 10.5881 15.4977 10.5546 15.4977H10.4512C8.80254 15.4977 7.47243 14.9081 7.46125 14.1592C7.45935 14.1478 7.46004 14.1364 7.46067 14.1258C7.46097 14.1209 7.46125 14.1161 7.46125 14.1117V12.9939Z" fill="url(#paint23_linear_2731_74034)" style="mix-blend-mode:overlay"/>
</g>
<defs>
<filter id="filter0_i_2731_74034" x="7.44727" y="5.79309" width="10.041" height="11.5862" filterUnits="userSpaceOnUse" color-interpolation-filters="sRGB">
<feFlood flood-opacity="0" result="BackgroundImageFix"/>
<feBlend mode="normal" in="SourceGraphic" in2="BackgroundImageFix" result="shape"/>
<feColorMatrix in="SourceAlpha" type="matrix" values="0 0 0 0 0 0 0 0 0 0 0 0 0 0 0 0 0 0 127 0" result="hardAlpha"/>
<feOffset/>
<feGaussianBlur stdDeviation="0.4"/>
<feComposite in2="hardAlpha" operator="arithmetic" k2="-1" k3="1"/>
<feColorMatrix type="matrix" values="0 0 0 0 1 0 0 0 0 1 0 0 0 0 1 0 0 0 1 0"/>
<feBlend mode="overlay" in2="shape" result="effect1_innerShadow_2731_74034"/>
</filter>
<linearGradient id="paint0_linear_2731_74034" x1="1.60768" y1="18" x2="22.3922" y2="6.0002" gradientUnits="userSpaceOnUse">
<stop stop-color="#C238CC"/>
<stop offset="1" stop-color="#B554F2"/>
</linearGradient>
<linearGradient id="paint1_linear_2731_74034" x1="3.60248" y1="20.3975" x2="20.7837" y2="3.21642" gradientUnits="userSpaceOnUse">
<stop stop-color="white" stop-opacity="0"/>
<stop offset="0.25" stop-color="white"/>
<stop offset="0.71" stop-color="white" stop-opacity="0"/>
<stop offset="1" stop-color="white"/>
</linearGradient>
<linearGradient id="paint2_linear_2731_74034" x1="5.25233" y1="18.6653" x2="18.8873" y2="5.03048" gradientUnits="userSpaceOnUse">
<stop stop-color="#111111"/>
<stop offset="0.52" stop-color="#333333"/>
<stop offset="1" stop-color="#0B0B0C"/>
</linearGradient>
<linearGradient id="paint3_linear_2731_74034" x1="19.5176" y1="21.2001" x2="15.9176" y2="16.8001" gradientUnits="userSpaceOnUse">
<stop stop-color="white"/>
<stop offset="1" stop-color="white" stop-opacity="0"/>
</linearGradient>
<radialGradient id="paint4_radial_2731_74034" cx="0" cy="0" r="1" gradientUnits="userSpaceOnUse" gradientTransform="translate(22.1997 1.80031) rotate(135) scale(10.2247 10.2248)">
<stop stop-color="white"/>
<stop offset="1" stop-color="white" stop-opacity="0"/>
</radialGradient>
<radialGradient id="paint5_radial_2731_74034" cx="0" cy="0" r="1" gradientUnits="userSpaceOnUse" gradientTransform="translate(-1.19992 25.1999) rotate(-45) scale(12.0677 12.0678)">
<stop stop-color="white"/>
<stop offset="1" stop-color="white" stop-opacity="0"/>
</radialGradient>
<radialGradient id="paint6_radial_2731_74034" cx="0" cy="0" r="1" gradientUnits="userSpaceOnUse" gradientTransform="translate(5.91758 4.79995) rotate(47.5638) scale(18.9694 18.9692)">
<stop stop-color="white"/>
<stop offset="0.274603" stop-color="white" stop-opacity="0.661569"/>
<stop offset="1" stop-color="white" stop-opacity="0"/>
</radialGradient>
<linearGradient id="paint7_linear_2731_74034" x1="8.11983" y1="14.4827" x2="17.3922" y2="9.84368" gradientUnits="userSpaceOnUse">
<stop stop-color="#C238CC"/>
<stop offset="1" stop-color="#B554F2"/>
</linearGradient>
<linearGradient id="paint8_linear_2731_74034" x1="8.11983" y1="14.4827" x2="17.3922" y2="9.84368" gradientUnits="userSpaceOnUse">
<stop stop-color="#C238CC"/>
<stop offset="1" stop-color="#B554F2"/>
</linearGradient>
<linearGradient id="paint9_linear_2731_74034" x1="8.11983" y1="14.4827" x2="17.3922" y2="9.84368" gradientUnits="userSpaceOnUse">
<stop stop-color="#C238CC"/>
<stop offset="1" stop-color="#B554F2"/>
</linearGradient>
<linearGradient id="paint10_linear_2731_74034" x1="8.11983" y1="14.4827" x2="17.3922" y2="9.84368" gradientUnits="userSpaceOnUse">
<stop stop-color="#C238CC"/>
<stop offset="1" stop-color="#B554F2"/>
</linearGradient>
<linearGradient id="paint11_linear_2731_74034" x1="8.11983" y1="14.4827" x2="17.3922" y2="9.84368" gradientUnits="userSpaceOnUse">
<stop stop-color="#C238CC"/>
<stop offset="1" stop-color="#B554F2"/>
</linearGradient>
<linearGradient id="paint12_linear_2731_74034" x1="8.11983" y1="14.4827" x2="17.3922" y2="9.84368" gradientUnits="userSpaceOnUse">
<stop stop-color="#C238CC"/>
<stop offset="1" stop-color="#B554F2"/>
</linearGradient>
<linearGradient id="paint13_linear_2731_74034" x1="8.11983" y1="14.4827" x2="17.3922" y2="9.84368" gradientUnits="userSpaceOnUse">
<stop stop-color="#C238CC"/>
<stop offset="1" stop-color="#B554F2"/>
</linearGradient>
<linearGradient id="paint14_linear_2731_74034" x1="8.11983" y1="14.4827" x2="17.3922" y2="9.84368" gradientUnits="userSpaceOnUse">
<stop stop-color="#C238CC"/>
<stop offset="1" stop-color="#B554F2"/>
</linearGradient>
<linearGradient id="paint15_linear_2731_74034" x1="8.39883" y1="16.4" x2="21.0079" y2="3.81212" gradientUnits="userSpaceOnUse">
<stop offset="0.154491" stop-color="white" stop-opacity="0"/>
<stop offset="1" stop-color="white"/>
</linearGradient>
<linearGradient id="paint16_linear_2731_74034" x1="8.39883" y1="16.4" x2="17.8679" y2="8.96087" gradientUnits="userSpaceOnUse">
<stop stop-color="white" stop-opacity="0"/>
<stop offset="0.317708" stop-color="white"/>
<stop offset="0.533598" stop-color="white" stop-opacity="0"/>
<stop offset="1" stop-color="white"/>
</linearGradient>
<linearGradient id="paint17_linear_2731_74034" x1="8.39883" y1="16.4" x2="17.8679" y2="8.96087" gradientUnits="userSpaceOnUse">
<stop stop-color="white" stop-opacity="0"/>
<stop offset="0.317708" stop-color="white"/>
<stop offset="0.533598" stop-color="white" stop-opacity="0"/>
<stop offset="1" stop-color="white"/>
</linearGradient>
<linearGradient id="paint18_linear_2731_74034" x1="8.39883" y1="16.4" x2="17.8679" y2="8.96087" gradientUnits="userSpaceOnUse">
<stop stop-color="white" stop-opacity="0"/>
<stop offset="0.317708" stop-color="white"/>
<stop offset="0.533598" stop-color="white" stop-opacity="0"/>
<stop offset="1" stop-color="white"/>
</linearGradient>
<linearGradient id="paint19_linear_2731_74034" x1="8.39883" y1="16.4" x2="17.8679" y2="8.96087" gradientUnits="userSpaceOnUse">
<stop stop-color="white" stop-opacity="0"/>
<stop offset="0.317708" stop-color="white"/>
<stop offset="0.533598" stop-color="white" stop-opacity="0"/>
<stop offset="1" stop-color="white"/>
</linearGradient>
<linearGradient id="paint20_linear_2731_74034" x1="8.39883" y1="16.4" x2="17.8679" y2="8.96087" gradientUnits="userSpaceOnUse">
<stop stop-color="white" stop-opacity="0"/>
<stop offset="0.317708" stop-color="white"/>
<stop offset="0.533598" stop-color="white" stop-opacity="0"/>
<stop offset="1" stop-color="white"/>
</linearGradient>
<linearGradient id="paint21_linear_2731_74034" x1="8.39883" y1="16.4" x2="17.8679" y2="8.96087" gradientUnits="userSpaceOnUse">
<stop stop-color="white" stop-opacity="0"/>
<stop offset="0.317708" stop-color="white"/>
<stop offset="0.533598" stop-color="white" stop-opacity="0"/>
<stop offset="1" stop-color="white"/>
</linearGradient>
<linearGradient id="paint22_linear_2731_74034" x1="8.39883" y1="16.4" x2="17.8679" y2="8.96087" gradientUnits="userSpaceOnUse">
<stop stop-color="white" stop-opacity="0"/>
<stop offset="0.317708" stop-color="white"/>
<stop offset="0.533598" stop-color="white" stop-opacity="0"/>
<stop offset="1" stop-color="white"/>
</linearGradient>
<linearGradient id="paint23_linear_2731_74034" x1="8.39883" y1="16.4" x2="17.8679" y2="8.96087" gradientUnits="userSpaceOnUse">
<stop stop-color="white" stop-opacity="0"/>
<stop offset="0.317708" stop-color="white"/>
<stop offset="0.533598" stop-color="white" stop-opacity="0"/>
<stop offset="1" stop-color="white"/>
</linearGradient>
</defs>
</svg>
