<svg width="25" height="24" viewBox="0 0 25 24" fill="none" xmlns="http://www.w3.org/2000/svg">
    <g clip-path="url(#xmvxetrnqa)">
        <path fill="#000" fill-opacity=".01" d="M.5 0h24v24H.5z"/>
        <path fill-rule="evenodd" clip-rule="evenodd" d="m13.848 12.83-2.4-2.401a2.226 2.226 0 0 0-1.573-.651H7.278A2.78 2.78 0 0 0 4.5 12.556v6.666A2.78 2.78 0 0 0 7.278 22h4.444a2.78 2.78 0 0 0 2.778-2.778v-4.82c0-.59-.235-1.154-.651-1.572zm-1.57 6.392a.556.556 0 0 1-.556.556H7.277a.556.556 0 0 1-.555-.556v-6.667c0-.306.249-.555.555-.555h1.667v2.222c0 .611.5 1.111 1.111 1.111h2.222v3.889zm7.126-13.429-3.142-3.142A2.222 2.222 0 0 0 14.69 2H7.278A2.777 2.777 0 0 0 4.5 4.778v2.777a1.11 1.11 0 1 0 2.222 0V4.778c0-.307.25-.556.556-.556h6.11v3.333c0 .612.5 1.112 1.112 1.112h3.333v10.555a.556.556 0 0 1-.556.555H16.7c-.604 0-1.094.486-1.097 1.09v.032c-.003.607.489 1.1 1.094 1.1h.581a2.777 2.777 0 0 0 2.778-2.777V7.364c0-.589-.234-1.154-.651-1.57z" fill="#A9A4B4"/>
        <path fill="#000" fill-opacity=".01" d="M.5 0h24v24H.5z"/>
    </g>
    <defs>
        <clipPath id="xmvxetrnqa">
            <path fill="#fff" transform="translate(.5)" d="M0 0h24v24H0z"/>
        </clipPath>
    </defs>
</svg>
