<svg width="20" height="20" viewBox="0 0 20 20" fill="none" xmlns="http://www.w3.org/2000/svg">
    <path fill="#000" fill-opacity=".01" d="M0 0h20v20H0z"/>
    <circle cx="10" cy="10" r="10" fill="#537FEE"/>
    <g clip-path="url(#ify5wxxhca)">
        <path d="m9.954 4.336-.075.26v7.557l.075.077 3.454-2.074-3.454-5.82z" fill="#BECDF9"/>
        <path d="M9.954 4.336 6.5 10.156l3.454 2.074V4.336z" fill="#fff"/>
        <path d="m9.953 12.894-.043.053v2.692l.043.126 3.456-4.943-3.456 2.072z" fill="#BECDF9"/>
        <path d="M9.954 15.765v-2.87L6.5 10.821l3.454 4.943z" fill="#fff"/>
        <path d="m9.955 12.23 3.454-2.074L9.955 8.56v3.668z" fill="#7799F1"/>
        <path d="m6.5 10.156 3.454 2.073V8.561L6.5 10.156z" fill="#BECDF9"/>
    </g>
    <defs>
        <clipPath id="ify5wxxhca">
            <path fill="#fff" transform="translate(6.5 4.333)" d="M0 0h6.91v11.429H0z"/>
        </clipPath>
    </defs>
</svg>
