<svg width="120" height="120" viewBox="0 0 120 120" fill="none" xmlns="http://www.w3.org/2000/svg">
<rect width="120" height="120" fill="black" fill-opacity="0.01"/>
<path fill-rule="evenodd" clip-rule="evenodd" d="M55.3359 0.0761212C55.2068 0.135516 53.5358 0.447751 51.6227 0.770081C44.7951 1.92042 36.2673 5.39937 35.1921 7.47326C34.5921 8.63065 35.0437 13.2125 35.9368 15.0239L36.3626 15.8881L35.7626 16.0388C34.0108 16.4785 32.2808 18.3759 30.6262 21.672C26.6209 29.6518 26.4061 30.8554 28.0964 35.8441C29.8111 40.9049 32.3933 44.3212 35.0435 45.0349C37.9454 45.8161 45.8459 45.7596 47.4773 44.9456C48.6156 44.378 48.6856 43.4023 46.7896 54.5388C46.0605 58.8213 45.4393 64.4406 45.6696 64.6709C45.8522 64.8533 46.1598 64.1096 46.8016 61.9338L47.3211 60.1731L47.743 61.8164C48.3853 64.318 48.1815 77.0722 47.4552 79.8197C47.112 81.1184 42.1474 86.1327 37.1463 90.2321C34.8376 92.1243 32.8982 93.8043 32.8365 93.9648C32.775 94.1257 30.4699 95.2279 27.7142 96.4144C21.8545 98.9371 20.5333 99.6367 20.1208 100.435C19.5766 101.487 13.8416 119.705 14.0034 119.867C14.2771 120.141 14.4626 119.627 17.3947 110.464C20.969 99.297 20.6833 99.9654 21.8836 99.9654C23.616 99.9654 28.522 102.86 31.3685 105.562C32.3149 106.461 32.4292 106.523 32.0092 105.909C30.8429 104.204 27.4945 101.679 24.4449 100.205L22.5191 99.2733L23.6681 98.7751C28.8836 96.5134 32.9877 94.8006 33.1912 94.8006C33.4661 94.8006 37.2749 97.4015 39.2709 98.9522C39.99 99.5107 40.802 100.366 41.0755 100.853L41.573 101.738L40.6588 102.758L39.7446 103.778L43.6605 108.621C45.4973 110.894 47.3372 113.164 49.18 115.432C50.062 116.515 51.1464 117.967 51.5896 118.66C52.2298 119.661 52.5228 119.92 53.0141 119.92C53.7393 119.92 53.9943 120.308 50.6252 116.286C49.3253 114.734 46.4924 111.271 44.33 108.591L40.398 103.718L44.0913 99.9633C46.1224 97.8985 47.8458 96.212 47.9212 96.2153C47.9966 96.2188 48.8168 97.5656 49.7439 99.2085C51.7584 102.779 55.0554 108.141 59.4114 114.932L62.6112 119.92H76.0944L76.3653 118.922C78.0718 112.639 78.9627 106.752 79.0118 101.433C79.0313 99.3355 79.0672 97.6189 79.0921 97.6185C79.1169 97.618 80.2586 98.5131 81.6291 99.6076C82.9999 100.702 84.5315 101.891 85.0327 102.249C86.0857 103.001 86.1997 103.301 86.204 105.335C86.2124 109.246 84.8693 114.827 82.7642 119.627C82.6929 119.789 82.795 119.92 82.9934 119.92C83.2063 119.92 83.5176 119.468 83.7617 118.805C84.3787 117.128 84.6125 117.038 84.524 118.512C84.4477 119.782 84.4573 119.804 85.1252 119.88C86.0014 119.98 86.1965 119.63 86.0767 118.172C86.004 117.286 86.0319 117.134 86.1873 117.573C86.3016 117.895 86.4056 118.556 86.4185 119.04C86.4371 119.739 86.5336 119.92 86.8864 119.92C87.4717 119.92 87.6158 119.481 87.6158 117.696C87.6158 116.596 87.7065 116.18 87.968 116.079C88.2358 115.976 88.3206 116.125 88.3222 116.7C88.326 118.118 88.6199 119.92 88.8472 119.92C89.1348 119.92 88.8314 115.758 88.4981 115.125C88.1675 114.499 88.2558 110.441 88.6725 107.101C89.0366 104.181 89.1221 102.372 88.8845 102.609C88.7152 102.779 87.9734 108 87.7262 110.764C87.6278 111.862 87.5013 112.628 87.4447 112.467C87.2982 112.048 86.6749 112.104 86.1303 112.584C85.6779 112.983 85.6687 112.977 85.8225 112.408C86.2382 110.868 86.6742 107.133 86.6754 105.101L86.6768 102.842L84.5653 101.232C82.837 99.9137 82.4802 99.5358 82.598 99.1479C82.7656 98.5955 84.7625 95.3201 85.0337 95.1525C85.1349 95.0901 86.1232 95.6455 87.2299 96.3869C88.9836 97.5619 89.2451 97.8255 89.2655 98.4394L89.289 99.1437L89.5364 98.5568L89.7839 97.9699L90.098 98.7052C90.4837 99.609 92.2287 107.838 93.3767 114.169C93.845 116.751 94.2744 119.102 94.3305 119.392C94.5528 120.54 94.9548 119.925 94.7911 118.688C94.3481 115.334 91.0854 99.4501 90.6382 98.4681C90.4544 98.065 89.4115 97.1809 87.9321 96.1737C86.6082 95.2727 85.4631 94.3402 85.3875 94.1019C85.3119 93.8637 84.9635 93.4824 84.6135 93.2545C83.0849 92.2593 76.9776 87.2262 74.9386 85.2814C73.712 84.1114 72.1011 82.7918 71.3585 82.349L70.0086 81.5442V77.588L75.3495 77.8014C85.3511 78.2015 88.6479 78.0315 91.9728 76.9452C94.1948 76.2196 95.0055 75.4148 95.0085 73.9325C95.0104 72.9946 95.1015 72.7 95.4212 72.5979C96.0722 72.3899 96.2114 71.364 95.6628 70.8153C95.1977 70.3503 95.1982 70.3444 95.8969 68.3172C97.2982 64.2518 96.4216 59.1408 93.226 52.7438C92.6649 51.6207 92.5428 51.0298 92.4266 48.8702C92.351 47.4686 92.2463 46.0427 92.1937 45.7011C92.109 45.1513 92.2686 44.9804 93.5877 44.209C94.4071 43.7296 95.5907 42.8163 96.218 42.1794C96.8453 41.5423 98.4973 40.01 99.889 38.774C104.512 34.6691 106.384 31.1214 106.393 26.4506C106.398 24.2349 105.736 21.9581 104.682 20.5667C102.72 17.974 97.4414 18.3094 94.1765 21.2341C93.5187 21.8234 93.222 21.9856 93.33 21.6966C93.6708 20.7848 94.3721 17.8761 94.5244 16.7419C94.681 15.5766 94.6719 15.5545 93.2346 13.69C91.5061 11.4473 89.9632 9.21074 89.9642 8.94898C89.9644 8.84498 90.2738 8.55294 90.6518 8.29986C91.5357 7.70756 91.3659 7.44345 90.2917 7.74019C89.2658 8.02332 89.0526 7.89349 89.8466 7.46857C90.5154 7.11055 90.641 6.67131 90.0222 6.85443C89.7963 6.92157 88.7134 7.19789 87.6158 7.4688C86.5183 7.73972 85.4091 8.02214 85.1508 8.09633C84.8926 8.17051 85.3945 7.67727 86.266 7.00022C87.1374 6.32316 87.8506 5.62333 87.8506 5.44515C87.8506 5.01037 87.9534 4.97961 85.3436 6.19216C83.2927 7.14483 80.2497 8.17309 79.4808 8.17309C79.3268 8.17309 79.0846 7.82095 78.9425 7.39039C78.4002 5.74752 77.3644 4.69555 75.8016 4.20067C74.8433 3.89357 73.8904 3.5701 72.9432 3.23039C71.7334 2.79162 71.2381 2.73998 69.4332 2.86463C67.3985 3.00526 67.2708 2.98366 65.4033 2.18147C62.6774 1.01071 56.2339 -0.336827 55.3359 0.0761212ZM53.4578 1.13114C52.9414 1.23256 52.149 1.36849 51.6971 1.43328C51.2452 1.49784 50.0737 1.92136 49.0936 2.37398C46.907 3.38393 43.4471 4.49389 41.2502 4.89017C39.3052 5.24091 36.6962 6.48069 35.9673 7.40072C35.3797 8.14258 35.4022 9.44903 36.0631 12.9679C36.5455 15.5353 37.054 16.044 38.9065 15.8125L40.2487 15.6449L40.1118 14.8028C39.8972 13.4804 40.8292 10.0512 41.4032 10.0512C41.6662 10.0512 41.6605 10.0892 41.2502 11.0715C40.8745 11.9701 40.7644 14.2769 41.0971 14.2769C41.2067 14.2769 41.4971 13.8306 41.7427 13.2853C42.3125 12.0199 43.6915 10.2721 44.7679 9.45114C46.0316 8.48721 46.0039 8.91354 44.7188 10.2021C43.3377 11.587 42.5092 13.7489 42.7076 15.4507C42.8149 16.3712 42.9752 16.6201 43.9521 17.3847L45.0733 18.2623L46.0687 16.5631C48.5729 12.288 52.3228 7.70357 53.3153 7.70357C53.7001 7.70357 53.7116 7.68831 51.8704 9.58566C48.845 12.7031 48.2693 13.7046 50.9449 11.1959C53.2092 9.07294 54.098 8.46138 56.9793 7.04388C58.4475 6.32152 61.12 4.71316 63.0669 3.38017L64.5544 2.36177L63.1963 1.9507C62.2328 1.65889 61.5173 1.58752 60.7329 1.70514C59.1553 1.94178 54.8112 3.3999 53.6339 4.08822C52.5324 4.73194 52.258 4.4784 53.2818 3.76284C53.6367 3.51469 55.0366 2.76885 56.3924 2.10541L58.8574 0.898964L56.6271 0.92291C55.4005 0.936056 53.9743 1.02996 53.4578 1.13114ZM70.6582 4.16334C71.1402 4.62559 72.109 5.71677 72.8112 6.58844C74.2029 8.31559 74.2649 8.3379 76.3472 7.85194C77.6013 7.55942 77.6384 7.52773 77.6384 6.74902C77.6384 5.89871 77.4389 5.80551 73.9409 5.02211C73.03 4.8181 73.134 4.40233 74.0583 4.55281C74.5858 4.63874 74.4226 4.523 73.5301 4.1786C72.8199 3.9044 71.686 3.59968 71.0104 3.50131L69.7821 3.32289L70.6582 4.16334ZM66.9567 3.70039C66.5048 3.79805 65.5697 4.13165 64.8791 4.442L63.6228 5.00614L65.2312 6.11258C66.1156 6.72132 67.3077 7.79254 67.8803 8.49355L68.9212 9.76784L69.9931 9.43682C70.6793 9.22728 71.3693 9.03044 72.0628 8.84639C73.2777 8.5304 73.3101 8.77855 71.7703 6.59713C69.9544 4.02436 68.7665 3.30951 66.9567 3.70039ZM61.0876 6.03159C60.3775 6.26001 58.8661 6.88425 57.7291 7.41833C55.3585 8.53228 55.3956 8.1961 57.3263 11.0872C57.9374 12.0023 58.5658 12.9956 58.7224 13.2944C59.0907 13.9962 59.3124 13.8156 61.0318 11.4142C62.6183 9.19807 63.0336 9.03091 62.338 10.8884C62.2849 11.0306 63.2536 10.8816 64.58 10.5435L66.9154 9.94837L66.4231 9.2368C64.9234 7.06947 63.1676 5.46557 62.445 5.60338C62.4086 5.61019 61.7978 5.80293 61.0876 6.03159ZM84.1108 7.37678C82.3635 8.19352 81.2458 8.55223 79.047 9.00181C78.014 9.21286 76.25 9.68755 75.1269 10.0564C74.0038 10.4252 72.0612 10.8412 70.8099 10.9806C62.5418 11.9025 61.0656 12.4366 58.0409 15.5998C57.2284 16.4494 56.1994 17.2967 55.7543 17.4826C55.3092 17.6688 54.2936 18.3294 53.4973 18.9513C51.9464 20.162 49.0509 21.787 48.4337 21.7929C47.4378 21.8025 47.4197 22.0079 48.0501 26.1541C49.1621 33.4672 49.3267 34.8039 49.4774 37.7532C49.6397 40.9263 49.3316 44.0369 48.2686 49.9609C47.5322 54.066 46.5293 60.6003 46.6218 60.6928C46.6612 60.7325 47.0354 59.3385 47.4531 57.5956C47.8707 55.8525 48.31 54.3662 48.429 54.2925C48.7238 54.1103 48.6844 54.7808 48.3186 56.1697C47.8217 58.0562 48.7513 60.9006 52.1589 67.9202L52.8428 69.3288L52.8425 68.3898C52.8423 67.8733 52.7132 65.7858 52.5554 63.7506C52.3847 61.5474 52.3566 60.0799 52.4862 60.1231C52.6059 60.163 53.2034 61.511 53.814 63.1189C54.4248 64.7268 55.1934 66.6232 55.5221 67.3333L56.1201 68.6245L56.0895 65.69C56.0376 60.6917 56.502 59.4742 61.8558 50.5701L65.5122 44.4883L64.5325 43.5084C63.9935 42.9694 63.2885 41.9559 62.9657 41.2559C62.6429 40.5561 62.2974 39.9475 62.1978 39.9036C61.9161 39.7792 61.3224 38.5284 61.3219 38.0584C61.3215 37.6854 61.0923 37.6358 59.3673 37.6358C57.6383 37.6358 57.3033 37.5631 56.4581 37.0034C54.3471 35.6054 53.4618 31.9881 54.3988 28.59C54.6836 27.5456 54.9624 26.4995 55.235 25.4519C56.102 22.1185 57.8589 19.2342 61.1001 15.8219C65.1551 11.553 66.8419 11.5603 70.1582 15.8611C73.4124 20.0821 74.0949 20.8491 75.4253 21.7823C80.349 25.2361 82.1491 24.3154 86.5838 16.0736C88.4593 12.5883 89.6914 11.6605 90.8074 12.8925C91.3589 13.5013 91.5467 19.3032 91.1751 24.2544C91.049 25.9329 90.9718 27.333 91.0032 27.3657C91.1319 27.4992 93.4919 18.9656 93.7568 17.4089L94.0427 15.7282L92.7433 14.1222C92.0287 13.2388 90.9887 11.8295 90.4325 10.9902C89.8764 10.151 89.3939 9.42931 89.3604 9.38658C89.3268 9.34386 89.07 9.43166 88.7897 9.58167C88.2194 9.88686 87.7724 9.66102 88.322 9.34526C89.5409 8.64567 89.64 8.42499 88.6723 8.56749C88.1558 8.64332 87.39 8.84451 86.9702 9.01425C86.0418 9.38987 85.9579 9.03655 86.8529 8.51913C87.4853 8.15361 87.4865 8.14891 86.9115 8.28366C86.5887 8.35926 85.7436 8.54308 85.0334 8.69215C84.3233 8.84123 83.3302 9.26075 82.8267 9.62463C81.9069 10.289 81.5078 10.4369 81.5167 10.1099C81.5195 10.0132 82.4175 9.25957 83.5122 8.43556C86.0284 6.54172 86.0753 6.45862 84.1108 7.37678ZM53.9076 9.34315C52.9364 10.0317 50.5226 12.9456 50.5242 13.4276C50.5261 14.0354 51.4764 15.1686 52.678 15.9961L53.9654 16.8828L55.5897 15.8151C56.483 15.228 57.2901 14.7209 57.3831 14.6882C57.7017 14.5767 55.3493 8.67243 54.9838 8.66563C54.9192 8.66445 54.4349 8.96941 53.9076 9.34315ZM64.6272 13.705C63.6588 14.1253 60.7179 17.0645 59.0189 19.3102C53.7982 26.2113 54.7786 34.6121 60.909 35.5061C61.8682 35.646 62.1267 35.5896 62.7871 35.0964C63.8602 34.2949 64.7678 34.0677 68.1768 33.7472C70.8441 33.4965 71.2141 33.4066 71.6975 32.8922L72.2375 32.3175L69.9901 32.441C65.5322 32.6863 63.197 31.9719 60.7824 29.6243C59.4295 28.3089 59.4236 28.2972 59.8631 27.8035C60.1063 27.53 60.6043 26.7781 60.9696 26.1325C62.2352 23.8966 64.6671 21.0808 65.8935 20.4317C66.5428 20.0878 65.0509 19.8164 63.3071 19.961C61.9525 20.0735 61.6231 19.8183 62.6289 19.4358C65.1601 18.4736 69.0834 19.9706 74.9386 24.133C75.7779 24.7295 76.7815 25.3662 77.1689 25.5474L77.8732 25.877L77.2135 25.963C76.8506 26.0104 76.3817 25.9092 76.1716 25.7385C75.8364 25.466 75.8143 25.4854 75.9911 25.8977C76.385 26.8168 76.3904 28.2744 76.0033 29.202C75.7641 29.7743 75.7298 30.0121 75.9124 29.83C76.0742 29.6687 76.2876 29.5365 76.3869 29.5365C76.486 29.5365 76.517 29.6687 76.4554 29.83C76.3728 30.0462 76.7689 30.1279 77.96 30.1406L79.5768 30.1579L79.7029 28.9346C79.7724 28.2618 79.9936 27.3936 80.1943 27.0053C80.8659 25.7066 81.0591 24.3717 80.5753 24.3717C80.3459 24.3717 80.0837 24.6093 79.9926 24.8999L79.8269 25.4282L79.6588 24.8413C79.4912 24.2555 79.4902 24.256 79.2224 25.0173C78.8676 26.0263 78.5991 25.9916 78.7667 24.9586C78.8709 24.3161 78.8209 24.137 78.5369 24.137C76.994 24.137 73.6165 21.3778 70.9219 17.916C67.3405 13.3151 66.6264 12.8374 64.6272 13.705ZM88.4852 14.1009C88.1753 14.5204 87.4137 15.8146 86.7925 16.9767C85.3462 19.683 84.6132 20.7515 83.0293 22.4622C82.2391 23.316 81.6857 24.1492 81.5892 24.6309L81.4329 25.4129L82.4661 24.5987C83.0342 24.1511 83.662 23.624 83.861 23.4273C85.4267 21.8795 88.411 19.9763 89.3766 19.9098C90.4755 19.8345 90.5736 19.8859 90.0414 20.2587C89.5679 20.5904 89.5613 20.651 89.8961 21.6086C90.4515 23.1982 90.2055 26.7391 89.4341 28.2547C88.8033 29.4938 87.0911 31.2515 86.257 31.5163C85.8199 31.655 82.7764 31.0374 81.6644 30.5843C81.3204 30.4441 81.2472 30.5 81.3139 30.8521C81.4301 31.4674 84.8567 32.8201 86.4725 32.8887C87.6529 32.9389 87.7184 32.9079 88.4565 31.9503C89.446 30.6667 90.1001 28.8879 90.4152 26.624C90.7304 24.3569 90.7483 14.7542 90.4389 13.94C90.1043 13.0602 89.1984 13.1346 88.4852 14.1009ZM49.2953 14.2182C47.9914 15.6989 47.47 17.7178 48.0395 19.0809L48.3729 19.8786L50.0937 19.1245C52.9533 17.8711 52.8632 17.9714 51.9554 17.0572C51.0093 16.1043 50.0538 14.6504 50.0538 14.1642C50.0538 13.6903 49.7404 13.7126 49.2953 14.2182ZM35.325 16.9901C33.5107 17.8942 32.556 19.1417 30.6757 23.0641C27.3602 29.9805 27.297 30.2868 28.3417 34.3823C29.4498 38.7263 31.9369 42.8835 34.0763 43.9676C36.5481 45.2201 46.176 45.4811 47.3301 44.327C47.7367 43.9204 47.3535 43.8679 46.2865 44.1841C44.7817 44.6304 42.7761 44.8586 42.7761 44.5839C42.7761 44.458 43.2778 44.2878 43.8913 44.2052C45.5919 43.9761 47.4834 43.4014 47.5803 43.0842C47.628 42.9283 47.728 42.5201 47.8029 42.1771L47.9388 41.5536L46.3434 42.3722C42.8153 44.1822 38.2753 43.5209 35.102 40.7347C34.636 40.3255 34.0974 39.9891 33.9051 39.9872C33.4948 39.9828 32.524 38.7714 32.7499 38.5455C32.8349 38.4606 33.1274 38.6437 33.4002 38.9524L33.8958 39.5139L33.4016 38.7672C30.8837 34.9635 30.7736 27.3539 33.1769 23.2284L33.6378 22.4373L32.9067 23.0524C31.9799 23.8322 31.6171 23.8419 32.1207 23.0733C32.5597 22.4035 36.0039 19.6786 37.1881 19.0644C38.0062 18.64 40.251 18.4949 41.4849 18.7865L42.1892 18.9529L41.4849 18.621C39.6622 17.762 36.2331 18.4496 34.3648 20.0488C33.225 21.0242 33.044 20.7585 34.1171 19.6854C35.0498 18.7524 36.3288 18.1019 37.886 17.7679L39.115 17.5042L38.0698 16.9577C36.7547 16.2698 36.7707 16.2698 35.325 16.9901ZM46.3478 18.744C46.099 19.1426 46.1332 19.3213 46.5722 19.915C47.2218 20.7937 47.2585 20.7893 47.0779 19.8525C46.7946 18.3811 46.6816 18.2097 46.3478 18.744ZM97.979 19.7922C97.0136 20.0934 95.8325 20.9496 95.8325 21.3485C95.8325 21.4482 96.5195 21.2085 97.359 20.8155C99.9705 19.5934 102.583 19.6572 103.82 20.9735C104.574 21.7767 104.226 21.98 103.354 21.2459C101.843 19.9751 98.9664 20.2664 96.0626 21.9842C93.8878 23.2707 93.8995 23.7214 96.0795 22.638C98.6565 21.3574 102.834 21.151 102.604 22.3159C102.572 22.4781 102.725 22.9491 102.945 23.3623C103.165 23.7757 103.347 24.3039 103.348 24.5361C103.351 24.8478 103.403 24.8788 103.545 24.6542C104.281 23.4944 104.76 26.8224 104.182 29.0778C103.728 30.85 103.203 31.5898 103.44 30.1234C103.585 29.2217 103.57 29.236 103.046 30.4812C101.632 33.8475 95.8541 40.6448 93.0421 42.251C92.2834 42.6844 92.0796 42.9373 92.0782 43.4462C92.077 43.8012 92.1334 44.0918 92.2031 44.0918C92.8156 44.0918 94.7289 42.6816 96.7878 40.7129C98.1523 39.4081 99.5218 38.1085 100.896 36.8142C102.874 34.9588 104.16 33.0676 104.949 30.8517C106.207 27.3159 105.601 22.1197 103.732 20.4319C102.632 19.4384 100.038 19.1499 97.979 19.7922ZM66.3172 21.109C65.2887 21.4095 63.521 23.231 62.1976 25.3545C60.5484 28.0007 60.4669 27.7976 63.2479 27.9721C65.5434 28.1162 68.8444 28.5768 70.3469 28.963L71.0371 29.1405L70.3065 28.458C69.2621 27.4828 69.1149 26.7957 69.876 26.4489C70.5359 26.1482 70.6775 25.7803 70.1333 25.7803C69.5177 25.7803 70.0096 25.1408 71.0496 24.5891C72.0285 24.0696 72.0839 24.0656 72.9035 24.4546C75.4821 25.6782 74.6292 29.0193 71.7224 29.0808C71.2076 29.0919 71.3705 29.2102 72.4736 29.6262C74.1172 30.2462 74.4435 30.1544 75.3239 28.8242C76.0916 27.664 75.9761 26.8837 74.7983 25.2793C73.0209 22.8582 68.2909 20.5324 66.3172 21.109ZM86.9071 21.7645C85.1029 22.961 81.0108 26.741 80.6856 27.511C79.8121 29.5799 85.2069 30.9481 87.4604 29.2292C88.9674 28.0798 89.5226 26.8151 89.5292 24.5178C89.5383 21.2236 88.8352 20.4855 86.9071 21.7645ZM34.5761 22.1955C32.3214 24.9309 31.3568 31.5684 32.6318 35.5732C34.119 40.2433 37.2836 42.5558 42.1892 42.5565C45.1303 42.5572 46.1135 42.2273 47.8895 40.6443L48.8943 39.7487L48.7316 37.2978L48.5687 34.8466L47.9883 36.0751C46.9981 38.1706 43.4722 41.3446 42.8386 40.711C42.6681 40.5406 42.6336 40.568 43.9995 39.7858C45.3184 39.0308 46.7314 37.4468 47.7841 35.5439L48.5515 34.1564L48.2172 31.7877C47.8984 29.5283 47.8285 29.345 46.6997 27.8129C45.3411 25.9679 44.9939 25.9052 43.1536 27.1715C39.3221 29.8077 38.3577 34.6609 41.0861 37.5771C41.8413 38.3843 41.3255 38.4368 40.5231 37.6344C38.0504 35.1614 38.6004 30.55 41.707 27.7108C43.263 26.2888 43.2395 26.1487 41.3016 25.2873C38.144 23.8837 34.7855 25.1288 33.8516 28.0491C33.4546 29.2907 33.044 29.6598 33.2417 28.5975C33.4884 27.2701 34.5813 25.742 35.8396 24.9647C37.8243 23.7388 41.3539 24.1234 42.9724 25.7418C43.3884 26.1578 43.5447 26.1848 44.1699 25.9489C45.1212 25.5897 45.1137 25.5693 43.4621 24.0402C41.6373 22.3509 40.591 21.8281 38.4875 21.5548C35.6025 21.1801 35.3834 21.216 34.5761 22.1955ZM98.8845 24.1135C97.2705 24.4661 95.633 24.9387 95.2456 25.1636C94.6005 25.538 94.5906 25.5617 95.1282 25.443C97.8445 24.8431 100.238 25.1063 101.404 26.1332C102.197 26.8306 101.88 26.8795 100.645 26.2498C100.139 25.9916 99.33 25.7803 98.8481 25.7803H97.9717L98.456 26.875C99.4465 29.1139 98.706 32.649 96.7526 35.0067C95.8976 36.0387 95.5398 36.0066 96.2819 34.9645C98.2142 32.2506 98.8539 28.8883 97.828 26.8367C97.2651 25.7108 96.1917 25.6078 93.9544 26.4649C91.9362 27.2382 91.6801 27.5401 90.6588 30.3535C89.5108 33.5157 89.5064 33.3585 90.7851 34.7255C91.6751 35.677 91.8416 36.004 91.8416 36.7996C91.8416 37.9974 92.4724 38.2164 94.3866 37.6835C95.1135 37.4814 95.7459 37.3536 95.7922 37.3999C96.0288 37.6365 94.1289 38.3181 92.898 38.4378L91.4894 38.5749L91.5669 39.6844C91.6096 40.2948 91.7162 41.0627 91.804 41.3911L91.9639 41.9881L93.2274 41.338C95.4184 40.2105 100.712 33.9879 102.268 30.7103C103.088 28.9836 103.278 26.0212 102.678 24.313C102.318 23.2855 102.605 23.3007 98.8845 24.1135ZM86.0817 24.5952C85.3663 24.8852 84.9431 25.462 85.2886 25.6756C85.4818 25.7949 85.4013 25.9723 85.0255 26.2559C84.5315 26.6285 84.5102 26.7271 84.7808 27.3809C85.3119 28.6625 86.9763 28.7735 87.9041 27.5894C89.0817 26.0862 87.76 23.9149 86.0817 24.5952ZM103.617 25.5455C103.617 25.8683 103.67 26.0005 103.735 25.839C103.8 25.6777 103.8 25.4136 103.735 25.2521C103.67 25.0908 103.617 25.2227 103.617 25.5455ZM61.748 28.523C61.9173 28.5909 62.1199 28.5824 62.1978 28.5045C62.2758 28.4266 62.1373 28.3712 61.8898 28.3812C61.6163 28.3925 61.5607 28.4482 61.748 28.523ZM62.731 28.6843C62.731 28.7322 63.9724 28.9555 65.4894 29.1806C67.0065 29.406 69.1848 29.9056 70.33 30.291C71.825 30.7944 72.5459 30.9322 72.8873 30.7798C73.2749 30.607 73.0141 30.472 71.4785 30.0513C68.9637 29.3621 62.731 28.3881 62.731 28.6843ZM30.0989 30.97C30.0989 32.9873 31.3775 36.8853 32.2073 37.3983C32.5414 37.6048 32.5182 37.506 31.8958 36.0803C31.2324 34.5602 30.8877 33.1986 30.6703 31.2385C30.4746 29.4717 30.0989 29.2952 30.0989 30.97ZM75.5805 31.043C73.0547 31.7224 74.1318 31.837 76.9341 31.1869C78.6472 30.7894 78.7193 30.7507 77.7558 30.7465C77.1748 30.7441 76.1958 30.8775 75.5805 31.043ZM77.0515 31.8752C76.6252 32.0053 76.5609 32.0905 76.8167 32.187C77.1797 32.3239 82.7534 32.8065 82.8666 32.7107C82.9016 32.6814 82.3374 32.4304 81.6132 32.1532C80.2743 31.6409 78.2284 31.5163 77.0515 31.8752ZM75.056 33.6439C73.7648 33.8038 70.9653 34.1193 68.8348 34.3449C63.277 34.9332 61.9236 35.6556 62.0739 37.9532C62.2267 40.295 66.2475 41.2275 71.4172 40.1203C72.5147 39.8851 73.4655 39.7414 73.5301 39.8006C73.8775 40.1192 69.26 42.906 67.546 43.4122C66.7189 43.6563 66.4252 43.9132 65.8482 44.8973C65.4646 45.5518 63.6961 48.5448 61.9185 51.5484C56.5511 60.6177 55.6813 63.8645 57.5807 67.743C59.3281 71.3109 61.0534 72.342 65.3134 72.3643C69.3445 72.3852 80.1412 72.0605 81.4519 71.8791L82.4482 71.741L82.3306 70.7696L82.213 69.7984L82.5562 70.5026C82.745 70.89 82.9041 71.3403 82.91 71.5032C82.9206 71.7992 83.6418 71.7577 85.7377 71.3398L86.5594 71.1759L86.4974 69.6319C86.4028 67.2697 85.718 65.0043 83.7422 60.5182C80.8826 54.0249 79.6367 49.6972 79.6346 46.2495C79.6341 45.4786 79.5445 45.0586 79.3991 45.1482C78.8423 45.4924 79.2761 42.3043 80.2412 38.9594C80.8054 37.0043 80.9401 35.4218 80.661 34.0264C80.4269 32.8561 80.2135 33.176 80.3004 34.5672C80.3441 35.2687 80.268 36.0348 80.1314 36.2697C79.9323 36.612 79.8809 36.4641 79.8727 35.523C79.8506 33.0371 79.875 33.0465 75.056 33.6439ZM82.9323 33.8655C82.6114 34.2522 80.9969 38.6596 80.5624 40.3356C79.6252 43.95 80.9267 50.4706 83.838 56.7462C86.304 62.0622 87.4414 65.6123 87.8318 69.2114C87.9506 70.3057 88.0347 70.6212 88.0541 70.0448C88.0894 68.9978 88.4577 69.1424 88.6211 70.2679C88.7169 70.9264 88.735 70.9379 88.9014 70.4439C89.0958 69.8667 89.4003 69.7523 89.5498 70.2005C89.7322 70.748 93.1748 69.0168 94.1845 67.87C97.0824 64.5777 96.4617 61.2429 90.5748 48.4748C89.3348 45.7852 88.3201 43.495 88.3201 43.3854C88.3201 43.1826 85.0182 41.0399 84.7057 41.0399C84.6118 41.0399 83.9439 40.7603 83.2215 40.4185C81.701 39.6992 81.3951 39.868 81.1218 41.5766C81.0277 42.1658 80.8981 42.398 80.7474 42.2473C79.9889 41.4888 81.6482 38.2899 83.5291 36.8841C84.2256 36.3634 84.6771 35.8587 84.6142 35.6709C84.4327 35.1312 87.675 35.4176 88.4706 36.0115C89.3597 36.6754 89.5871 37.1151 89.4087 37.8258C89.2049 38.6383 88.0879 38.9355 84.9809 39.0033C83.3187 39.0397 82.5743 39.1442 82.5055 39.3508C82.4513 39.5132 82.4961 39.6215 82.6051 39.5914C82.714 39.5611 83.9653 39.6139 85.3856 39.7083C89.555 39.9853 91.2155 39.2592 91.2155 37.1583C91.2155 35.0483 89.215 33.7932 85.5288 33.5899C83.5838 33.4829 83.2178 33.5216 82.9323 33.8655ZM67.1584 35.6603C65.9078 35.8537 64.3828 36.5188 64.2208 36.9412C64.0095 37.4915 64.7997 38.892 65.5362 39.2728C66.4388 39.7398 70.4321 39.8205 72.4004 39.4118C74.4762 38.9808 76.3472 40.3969 76.3472 42.3994C76.3472 42.8602 76.4435 43.1211 76.582 43.0354C77.2586 42.6173 76.3895 40.0844 75.1013 38.7197C74.3811 37.9565 74.3769 37.9415 74.9973 38.3359C76.0221 38.9874 75.7582 38.3056 74.7196 37.6185C74.1017 37.2095 73.6352 37.0583 73.3096 37.1616C72.9763 37.2675 72.3992 37.0621 71.4747 36.5085C70.0049 35.6281 68.8416 35.3997 67.1584 35.6603ZM79.6463 38.1641C79.3468 39.2426 79.3421 39.3966 79.6085 39.3966C79.7236 39.3966 79.887 39.1059 79.9717 38.751C80.0565 38.396 80.1807 37.9204 80.2478 37.6945C80.3149 37.4687 80.2621 37.2837 80.1302 37.2837C79.9985 37.2837 79.7806 37.68 79.6463 38.1641ZM89.9841 39.9025C88.9432 40.4368 88.7976 40.6976 88.7932 42.0355C88.7882 43.5739 90.0522 46.4338 90.6661 46.2732C91.0246 46.1793 91.153 46.4059 91.4476 47.6501C91.6704 48.591 91.8078 48.8932 91.8209 48.4711C91.8395 47.8687 90.911 39.5299 90.8222 39.5024C90.8018 39.4963 90.4248 39.6762 89.9841 39.9025ZM85.6138 43.7969C85.8147 44.5977 86.1622 45.0309 86.6031 45.0309C86.8662 45.0309 86.8242 44.8219 86.4139 44.0918C85.8065 43.0114 85.3769 42.853 85.6138 43.7969ZM70.9754 43.835C70.7439 43.9815 70.6965 44.2834 70.8099 44.8877C71.0329 46.0765 71.4172 45.9443 71.4172 44.6787C71.4172 44.0977 71.3907 43.6239 71.3585 43.6258C71.3263 43.6279 71.1538 43.7218 70.9754 43.835ZM72.4988 44.4632C72.2569 45.0933 72.3363 45.4762 72.8845 46.3225C73.8031 47.7405 73.8834 47.4531 73.2627 44.9722C73.03 44.0423 72.7356 43.846 72.4988 44.4632ZM50.4395 50.7797C50.3658 50.9718 50.2353 51.6585 50.1493 52.3057C49.9653 53.6939 50.389 53.9594 50.6226 52.602C50.706 52.1179 50.8318 51.431 50.9022 51.076C51.0356 50.4029 50.6731 50.171 50.4395 50.7797ZM50.9928 53.7171C50.9928 54.9691 51.0884 55.83 51.2276 55.83C51.3668 55.83 51.4624 54.9691 51.4624 53.7171C51.4624 52.4651 51.3668 51.6042 51.2276 51.6042C51.0884 51.6042 50.9928 52.4651 50.9928 53.7171ZM49.8967 58.1189C50.0519 60.9846 50.6961 64.3 51.1255 64.4429C51.2802 64.4946 51.2154 63.7539 50.9525 62.4667C50.7212 61.3342 50.4611 59.2723 50.3749 57.8841C50.2862 56.4587 50.1155 55.3604 49.9826 55.3604C49.8303 55.3604 49.8 56.3328 49.8967 58.1189ZM51.0905 60.0195C51.2851 61.9948 51.5248 62.9327 51.8638 63.0459C52.0434 63.1057 52.0638 62.8597 51.9307 62.2395C51.8255 61.7486 51.6666 60.6867 51.5779 59.8796C51.4889 59.0727 51.3074 58.4124 51.1743 58.4124C51.0161 58.4124 50.9872 58.9699 51.0905 60.0195ZM93.6002 66.1745C93.4436 67.3127 93.5474 67.8186 93.8711 67.4951C93.9542 67.4118 94.0735 66.8131 94.1357 66.1647C94.2864 64.5953 93.8162 64.604 93.6002 66.1745ZM48.8969 69.0941C48.8696 73.5661 48.4579 79.2182 48.0416 80.8322C47.8418 81.6069 47.6496 82.3992 47.6144 82.5929C46.7892 87.1417 46.9127 88.4751 48.3527 90.5749L49.2384 91.8661L52.8695 92.0219C59.056 92.2872 59.7744 92.5281 54.9103 92.7056C52.6104 92.7896 50.6245 92.9622 50.4975 93.0892C50.1815 93.4052 53.9302 96.9299 56.0226 98.2845C58.105 99.6327 60.6681 100.457 62.8406 100.477C65.454 100.501 65.4228 100.47 65.7319 103.289C66.0505 106.193 66.3341 107.089 67.0917 107.585L67.661 107.958L67.6774 106.838C67.7023 105.158 68.0103 104.533 68.2319 105.714C68.5181 107.24 69.094 108.729 69.6567 109.398C69.9476 109.745 70.422 110.516 70.711 111.113C70.9998 111.709 71.2569 112.166 71.2824 112.127C71.3078 112.088 71.2662 110.788 71.1902 109.239C71.0237 105.848 71.3233 99.647 71.6872 98.9444C71.8311 98.6667 72.3088 97.9938 72.749 97.4492C73.5268 96.4867 74.8457 93.9252 74.6595 93.7388C74.3992 93.4786 70.8768 93.1178 69.5978 93.2204C68.0702 93.3427 67.5887 93.0896 68.8642 92.8345C69.2677 92.7537 70.4164 92.6877 71.4172 92.6877C73.4406 92.6877 74.7039 92.4978 74.7039 92.1936C74.7039 92.0832 74.0613 91.2839 73.2761 90.4171C71.1068 88.0237 69.3043 83.9982 69.3043 81.5475C69.3043 80.1573 69.3466 80.196 67.2297 79.6342C64.0964 78.8024 61.1153 76.852 59.3727 74.4936C58.7978 73.7158 58.7013 73.6553 58.8107 74.1415C58.8832 74.4643 59.0156 75.1509 59.1046 75.6674L59.2666 76.6065L58.3576 75.5759C57.8578 75.0091 57.1847 74.1504 56.8619 73.6672C55.5914 71.7664 55.6639 71.8471 55.8149 72.4981C55.9475 73.0702 55.9344 73.0667 55.2913 72.3606C54.9284 71.9622 54.526 71.4515 54.3969 71.2259C54.2258 70.9271 54.1833 71.1933 54.2398 72.2082C54.4086 75.2322 54.2837 75.2045 52.6557 71.8584C51.1574 68.7792 50.7581 68.3339 50.7581 69.7418C50.7581 70.8477 50.3876 70.2979 49.6014 68.0254L48.9154 66.0421L48.8969 69.0941ZM92.2188 67.0004C92.0078 67.55 92.046 68.2724 92.286 68.2724C92.5402 68.2724 92.7806 67.6928 92.7806 67.0793C92.7806 66.5351 92.417 66.4842 92.2188 67.0004ZM62.4962 68.4208C62.4962 68.7842 63.4968 70.1366 64.0179 70.4785C65.358 71.3562 65.4012 70.8393 64.0945 69.5636C62.8322 68.3311 62.4962 68.0909 62.4962 68.4208ZM64.3743 68.6551C64.3743 68.9631 65.6209 70.1505 65.9442 70.1505C66.1137 70.1505 66.2501 70.0714 66.2475 69.9744C66.2407 69.7404 64.3743 68.4257 64.3743 68.6551ZM66.7219 69.6882C66.7219 69.9909 67.3908 70.2641 67.6056 70.0493C67.6932 69.9617 67.6093 69.792 67.4194 69.6718C66.9649 69.3845 66.7219 69.3901 66.7219 69.6882ZM93.2501 70.7883C92.7982 70.8398 90.6325 71.2398 88.4375 71.6774C82.4431 72.8726 78.0946 73.2799 71.7693 73.2386C67.2419 73.2092 66.0855 73.2733 64.6091 73.6348L62.8484 74.0659L64.2569 74.2225C65.0317 74.3084 66.8804 74.4823 68.3653 74.6089C69.8502 74.7352 71.963 74.9437 73.0605 75.0718C79.2019 75.7897 81.3754 75.6489 85.4804 74.2664C86.7496 73.8391 89.2019 73.2599 90.93 72.9794C94.0242 72.477 95.2592 72.1516 95.4907 71.7772C95.637 71.5405 94.6608 70.6064 94.3209 70.6576C94.184 70.6782 93.7021 70.7372 93.2501 70.7883ZM91.9054 75.5554C91.6176 75.6712 90.2586 75.9827 88.885 76.2478C87.5114 76.5128 86.2721 76.8011 86.1307 76.8884C85.9894 76.9758 84.8661 77.1166 83.6343 77.2016L81.3946 77.3558L83.5136 77.392C87.2625 77.4558 92.5571 76.5022 93.2783 75.6334C93.5929 75.2545 92.7696 75.2078 91.9054 75.5554ZM44.0673 84.6487C42.5179 86.2592 39.5071 89.0057 37.3766 90.7516C35.2461 92.4976 33.4802 93.9909 33.4523 94.07C33.4243 94.1489 34.6719 95.0588 36.2248 96.0918C37.7776 97.1248 39.7902 98.647 40.6973 99.4745L42.3467 100.979L45.032 98.2939L47.7172 95.6087L47.0131 94.3085C44.8622 90.3375 44.7336 88.1643 46.4103 84.1144C47.7583 80.8576 47.7019 80.8705 44.0673 84.6487ZM70.0086 82.5896C70.0086 82.7169 70.616 83.1287 71.3585 83.505C73.7745 84.729 76.1 87.4941 77.3494 90.6277C77.8471 91.8757 78.1685 93.1258 78.82 96.3465C78.8744 96.6158 79.5614 97.3405 80.3466 97.9575C81.9935 99.2512 81.6376 99.4369 83.6582 96.2296L84.9024 94.2545L84.0876 93.6113C82.7985 92.593 81.5095 91.5744 80.2208 90.5556C78.5423 89.229 76.1618 87.1708 74.9307 85.9822C72.2577 83.401 70.0086 81.8506 70.0086 82.5896ZM71.6891 104.426C71.6891 104.749 71.7423 104.881 71.8074 104.719C71.8726 104.558 71.8726 104.294 71.8074 104.132C71.7423 103.971 71.6891 104.103 71.6891 104.426ZM34.6942 110.647C34.7761 111.034 34.9982 111.977 35.1879 112.742C35.509 114.038 36.188 118.585 36.1981 119.509C36.2011 119.783 36.3875 119.92 36.757 119.92C37.3702 119.92 37.3632 120.064 36.8899 117.22C36.6049 115.509 35.2078 110.907 34.7874 110.295C34.6073 110.033 34.5834 110.124 34.6942 110.647ZM87.3975 114.213C87.4273 115.404 87.8154 115.95 87.8342 114.828C87.8431 114.287 87.745 113.779 87.6158 113.699C87.4794 113.615 87.3879 113.83 87.3975 114.213ZM85.1764 116.575C85.3844 118.688 85.503 118.724 85.503 116.673C85.503 115.677 85.4044 114.99 85.2616 114.99C85.1048 114.99 85.075 115.545 85.1764 116.575Z" fill="#FAD54D"/>
</svg>
