<svg width="23" height="23" viewBox="0 0 23 23" fill="none" xmlns="http://www.w3.org/2000/svg">
<g clip-path="url(#clip0_840_14473)">
<rect width="22.6868" height="21.9334" transform="translate(0.113495 0.889648)" fill="black" fill-opacity="0.01"/>
<path d="M22.6795 14.6612L21.1384 12.9526L19.4302 14.4936C19.2376 14.6674 19.2222 14.9643 19.396 15.1568C19.5697 15.3499 19.8666 15.3648 20.0595 15.1911L20.61 14.6946C19.982 19.0484 16.0024 22.1703 11.5923 21.7018C11.3345 21.6736 11.1033 21.861 11.0757 22.1188C11.0485 22.3771 11.2354 22.6082 11.4932 22.6354C11.8209 22.6707 12.1471 22.6876 12.4701 22.6876C16.9901 22.6876 20.9013 19.344 21.5432 14.8039L21.9819 15.29C22.0745 15.3929 22.2026 15.4455 22.3308 15.4455C22.443 15.4455 22.5552 15.4056 22.645 15.3244C22.8377 15.1506 22.8533 14.8537 22.6795 14.6612Z" fill="url(#paint0_linear_840_14473)"/>
<path d="M12.0432 11.88V12.3497H21.9065V11.88C21.9065 9.60262 20.3547 7.68064 18.2529 7.11652C19.1928 6.64635 19.8399 5.67359 19.8399 4.55312C19.8399 2.97317 18.5543 1.68809 16.9749 1.68809C15.3949 1.68809 14.1099 2.97317 14.1099 4.55312C14.1099 5.67381 14.7567 6.64601 15.6963 7.11652C13.5946 7.68112 12.0432 9.60262 12.0432 11.88Z" fill="url(#paint1_linear_840_14473)"/>
<path d="M13.0336 2.79403L11.5301 1.05253C11.3605 0.856277 11.0641 0.834136 10.8679 1.00372C10.6716 1.17331 10.6495 1.47002 10.8191 1.66648L11.223 2.13433C6.26794 1.76799 1.89176 5.44268 1.41897 10.4118C1.39448 10.6701 1.58386 10.8992 1.84218 10.9242C1.85728 10.9256 1.87221 10.9261 1.88731 10.9261C2.12684 10.9261 2.33115 10.7439 2.35464 10.501C2.78204 6.00331 6.77205 2.68693 11.265 3.08027L10.6784 3.58651C10.4822 3.7561 10.4606 4.05252 10.6301 4.24876C10.7231 4.35628 10.8542 4.4118 10.9857 4.4118C11.0948 4.4118 11.2041 4.37423 11.2924 4.29774L13.0336 2.79403Z" fill="url(#paint2_linear_840_14473)"/>
<path d="M6.32311 17.5899C7.26298 17.1197 7.91011 16.147 7.91011 15.0265C7.91011 13.4465 6.62452 12.1615 5.04508 12.1615C3.46513 12.1615 2.18006 13.4465 2.18006 15.0265C2.18006 16.1472 2.82685 17.1194 3.76654 17.5899C1.66476 18.1545 0.113495 20.0758 0.113495 22.3534V22.8231H9.97676V22.3534C9.97693 20.076 8.42489 18.154 6.32311 17.5899Z" fill="url(#paint3_linear_840_14473)"/>
</g>
<defs>
<linearGradient id="paint0_linear_840_14473" x1="11.4569" y1="4.25567" x2="11.4569" y2="16.3082" gradientUnits="userSpaceOnUse">
<stop stop-color="#EA208D" stop-opacity="0.9"/>
<stop offset="0.434916" stop-color="#E63A97"/>
<stop offset="1" stop-color="#F1F1CB"/>
</linearGradient>
<linearGradient id="paint1_linear_840_14473" x1="11.4569" y1="4.25567" x2="11.4569" y2="16.3082" gradientUnits="userSpaceOnUse">
<stop stop-color="#EA208D" stop-opacity="0.9"/>
<stop offset="0.434916" stop-color="#E63A97"/>
<stop offset="1" stop-color="#F1F1CB"/>
</linearGradient>
<linearGradient id="paint2_linear_840_14473" x1="11.4569" y1="4.25567" x2="11.4569" y2="16.3082" gradientUnits="userSpaceOnUse">
<stop stop-color="#EA208D" stop-opacity="0.9"/>
<stop offset="0.434916" stop-color="#E63A97"/>
<stop offset="1" stop-color="#F1F1CB"/>
</linearGradient>
<linearGradient id="paint3_linear_840_14473" x1="11.4569" y1="4.25567" x2="11.4569" y2="16.3082" gradientUnits="userSpaceOnUse">
<stop stop-color="#EA208D" stop-opacity="0.9"/>
<stop offset="0.434916" stop-color="#E63A97"/>
<stop offset="1" stop-color="#F1F1CB"/>
</linearGradient>
<clipPath id="clip0_840_14473">
<rect width="22.6868" height="21.9334" fill="white" transform="translate(0.113495 0.889648)"/>
</clipPath>
</defs>
</svg>
