<svg width="17" height="16" viewBox="0 0 17 16" fill="none" xmlns="http://www.w3.org/2000/svg">
    <g clip-path="url(#3bq9tnqx5a)">
        <path fill="#000" fill-opacity=".01" d="M.5 0h16v16H.5z"/>
        <path fill="#000" fill-opacity=".01" d="M.5 0h16v16H.5z"/>
        <path fill-rule="evenodd" clip-rule="evenodd" d="M13.494 1.416c-.05.023-.264.217-.478.433l-.389.392.874.875.874.875.403-.402c.639-.638.649-.573-.23-1.46-.763-.767-.832-.814-1.054-.713zm-3.61 3.57L7.89 6.984l.874.875.875.875 1.995-1.997 1.996-1.998-.875-.875-.875-.875-1.995 1.997zM2.763 3.292c-.45.065-.81.396-.927.852-.082.319-.054 9.548.03 9.742.148.346.399.58.732.683.192.06.254.06 5.126.053l4.933-.008.18-.073a1.05 1.05 0 0 0 .36-.254 1.05 1.05 0 0 0 .255-.362l.072-.179.008-3.71.008-3.71-2.25 2.248c-1.827 1.826-2.28 2.264-2.411 2.329-.182.09-2.002.524-2.203.524-.84.001-1.57-.772-1.466-1.553.043-.324.44-1.957.514-2.12.07-.15.342-.435 2.214-2.312C9.11 4.265 10.07 3.292 10.07 3.28c0-.03-7.092-.02-7.308.012zm4.13 4.688-.232.233-.193.837c-.219.948-.228 1.044-.117 1.177.15.178.208.177 1.069-.025.424-.099.821-.193.882-.21.077-.02.182-.102.349-.27l.238-.24-.866-.868a34.94 34.94 0 0 0-.882-.867c-.009 0-.12.105-.248.233z" fill="url(#sjuyd3u0eb)"/>
    </g>
    <defs>
        <linearGradient id="sjuyd3u0eb" x1="10.327" y1="14.625" x2="9.239" y2="1.467" gradientUnits="userSpaceOnUse">
            <stop stop-color="#E3A406"/>
            <stop offset="1" stop-color="#FBD851"/>
        </linearGradient>
        <clipPath id="3bq9tnqx5a">
            <path fill="#fff" transform="translate(.5)" d="M0 0h16v16H0z"/>
        </clipPath>
    </defs>
</svg>
