<svg width="24" height="24" viewBox="0 0 24 24" fill="none" xmlns="http://www.w3.org/2000/svg">
    <g clip-path="url(#3u687k2y1a)">
        <path fill="#000" fill-opacity=".01" d="M0 0h24v24H0z"/>
        <rect width="24" height="24" rx="12" fill="#FAD54D"/>
        <path fill-rule="evenodd" clip-rule="evenodd" d="M10.204 8.868h-.107c-1.708 0-3.085-.61-3.097-1.386-.012-.79 1.404-1.456 3.163-1.482h.107c1.708 0 3.083.61 3.094 1.386.012.793-1.403 1.456-3.16 1.482zm4.021 4.326c1.758-.027 3.174-.69 3.162-1.48-.012-.792-1.447-1.412-3.205-1.385-1.758.026-3.173.69-3.161 1.48.011.792 1.446 1.411 3.204 1.385zm3.174 2.122-.003.003v-.003h.003zm-.003.003V16.567c-.046.77-1.439 1.406-3.16 1.432-1.757.026-3.193-.593-3.204-1.386a.135.135 0 0 1-.001-.032.3.3 0 0 0 0-.017v-1.158c.542.556 1.775.932 3.202.912 1.42-.02 2.635-.43 3.163-.999zm-6.362-2.303c.542.555 1.775.931 3.201.911 1.421-.02 2.637-.431 3.164-.995v1.244c-.047.77-1.439 1.407-3.16 1.433-1.757.026-3.193-.594-3.205-1.387v-1.206zm-.818-1.025H10.1c-1.377 0-2.558-.37-3.085-.915V12.251c-.001.01-.002.02 0 .032.012.776 1.39 1.386 3.097 1.386h.107c.035 0 .072 0 .107-.003V11.988c-.038.003-.072.003-.11.003zm1.699-1.97c.275-.107.576-.193.894-.257.185-.038.376-.07.573-.093V8.598c-.527.57-1.742.98-3.166 1.001H10.1c-1.377 0-2.558-.37-3.085-.915V9.86c-.001.01-.002.02 0 .032.012.776 1.39 1.387 3.097 1.387h.107c.066 0 .133-.003.197-.006a1.717 1.717 0 0 1 .292-.469 2.66 2.66 0 0 1 .622-.5c.182-.11.376-.203.585-.281zm-4.9 3.436c.527.544 1.708.915 3.085.915h.116l.053-.002.057-.001v1.678c-.035.003-.072.003-.107.003h-.107c-1.708 0-3.085-.61-3.097-1.386-.002-.012-.001-.024 0-.035v-1.172z" fill="#13151F"/>
    </g>
    <defs>
        <clipPath id="3u687k2y1a">
            <path fill="#fff" d="M0 0h24v24H0z"/>
        </clipPath>
    </defs>
</svg>
