<svg width="16" height="16" viewBox="0 0 16 16" fill="none" xmlns="http://www.w3.org/2000/svg">
    <path fill="#000" fill-opacity=".01" d="M0 0h16v16H0z"/>
    <path fill-rule="evenodd" clip-rule="evenodd" d="M12.994 1.416c-.05.023-.264.217-.478.433l-.389.392.874.875.874.875.403-.402c.639-.638.649-.573-.23-1.46-.763-.767-.832-.814-1.054-.713zm-3.61 3.57L7.39 6.984l.874.875.875.875 1.995-1.997 1.996-1.998-.875-.875-.875-.875-1.995 1.997zM2.263 3.292c-.45.065-.81.396-.927.852-.082.319-.054 9.548.03 9.742.148.346.399.58.732.683.192.06.254.06 5.126.053l4.933-.008.18-.073c.126-.05.232-.125.36-.254a1.05 1.05 0 0 0 .255-.362l.072-.179.008-3.71.008-3.71-2.25 2.248c-1.827 1.826-2.28 2.264-2.411 2.329-.182.09-2.002.524-2.203.524-.84.001-1.57-.772-1.466-1.553.043-.324.44-1.957.514-2.12.07-.15.342-.435 2.214-2.312C8.61 4.265 9.57 3.292 9.57 3.28c0-.03-7.092-.02-7.308.012zm4.13 4.688-.232.233-.193.837c-.219.948-.228 1.044-.117 1.177.15.178.208.177 1.069-.025.424-.099.821-.193.882-.21.077-.02.182-.102.349-.27l.238-.24-.866-.868a34.94 34.94 0 0 0-.882-.867c-.009 0-.12.105-.248.233z" fill="url(#9icjkz0u9a)"/>
    <defs>
        <linearGradient id="9icjkz0u9a" x1="9.827" y1="14.625" x2="8.739" y2="1.467" gradientUnits="userSpaceOnUse">
            <stop stop-color="#E3A406"/>
            <stop offset="1" stop-color="#FBD851"/>
        </linearGradient>
    </defs>
</svg>
