<svg width="24" height="25" viewBox="0 0 24 25" fill="none" xmlns="http://www.w3.org/2000/svg">
    <g clip-path="url(#2g9ilox56a)">
        <path fill="#000" fill-opacity=".01" d="M0 .5h24v24H0z"/>
        <path fill-rule="evenodd" clip-rule="evenodd" d="M13.8 1.98c.365.284.626.68.74 1.129h1.065A3.126 3.126 0 0 0 12.522.5h-1.044a3.125 3.125 0 0 0-3.083 2.609h1.064a2.083 2.083 0 0 1 2.02-1.566h1.043c.462 0 .912.154 1.277.437zM3.648 4.72a2.06 2.06 0 0 0-.638 1.394l-.041.809a8.584 8.584 0 0 0 3.073 4.106 8.279 8.279 0 0 0 3.354 1.387l.004.001a2.601 2.601 0 0 1 5.2 0h.003a8.28 8.28 0 0 0 3.355-1.388 8.584 8.584 0 0 0 3.073-4.106l-.041-.81a2.06 2.06 0 0 0-2.061-1.96H5.07c-.53-.002-1.04.202-1.423.567zm7.246 10.451a1.567 1.567 0 0 0 2.212 0c.294-.293.459-.69.46-1.106V12.5a1.565 1.565 0 1 0-3.131 0v1.565c0 .415.165.813.459 1.107zM.762 15.156l-.407 3.062a1.846 1.846 0 0 0 .928 1.868l.303-6.235a1.86 1.86 0 0 0-.824 1.305zm18.54 9.028c.491-.21.934-.52 1.301-.91a3.883 3.883 0 0 0 1.08-2.911l-.547-11.26a9.165 9.165 0 0 1-2.573 2.781 9.48 9.48 0 0 1-3.954 1.592v.59a2.609 2.609 0 1 1-5.218 0v-.59a9.48 9.48 0 0 1-3.955-1.592 9.165 9.165 0 0 1-2.572-2.78l-.548 11.259a3.941 3.941 0 0 0 3.94 4.137h11.488a3.903 3.903 0 0 0 1.557-.316zm3.112-10.333.302 6.235a1.847 1.847 0 0 0 .93-1.868l-.408-3.062a1.86 1.86 0 0 0-.824-1.305z" fill="url(#ngt3u1lujb)"/>
        <path fill="#000" fill-opacity=".01" d="M0 .5h24v24H0z"/>
    </g>
    <defs>
        <linearGradient id="ngt3u1lujb" x1="12" y1="4.183" x2="12" y2="17.371" gradientUnits="userSpaceOnUse">
            <stop stop-color="#EA208D" stop-opacity=".9"/>
            <stop offset=".435" stop-color="#E63A97"/>
            <stop offset="1" stop-color="#F1F1CB"/>
        </linearGradient>
        <clipPath id="2g9ilox56a">
            <path fill="#fff" transform="translate(0 .5)" d="M0 0h24v24H0z"/>
        </clipPath>
    </defs>
</svg>
