<svg width="120" height="120" viewBox="0 0 120 120" fill="none" xmlns="http://www.w3.org/2000/svg">
    <path d="M81.356 25.83a3.029 3.029 0 0 0 0-4.271L70.678 10.88a3.03 3.03 0 0 0-4.271 0L49.322 27.965l8.542 8.543a3.029 3.029 0 0 1 0 4.27 3.03 3.03 0 0 1-4.27 0l-8.543-8.542-34.17 34.17a3.029 3.029 0 0 0 0 4.27l10.678 10.678a3.029 3.029 0 0 0 4.271 0 9.049 9.049 0 0 1 12.814 0 9.048 9.048 0 0 1 0 12.813 3.029 3.029 0 0 0 0 4.271l10.678 10.678a3.028 3.028 0 0 0 4.271 0l34.17-34.169-8.543-8.542a3.029 3.029 0 0 1 0-4.27 3.029 3.029 0 0 1 4.272 0l8.542 8.541 17.085-17.084a3.028 3.028 0 0 0 0-4.271L98.441 38.643a3.03 3.03 0 0 0-4.271 0 9.049 9.049 0 0 1-12.814 0 9.048 9.048 0 0 1 0-12.813zM74.95 53.592a3.029 3.029 0 0 1 0 4.271 3.03 3.03 0 0 1-4.27 0l-8.543-8.542a3.029 3.029 0 0 1 0-4.271 3.029 3.029 0 0 1 4.27 0l8.543 8.542z" fill="url(#71vl0k4cfa)"/>
    <defs>
        <linearGradient id="71vl0k4cfa" x1="73.5" y1="109.997" x2="65.172" y2="10.698" gradientUnits="userSpaceOnUse">
            <stop stop-color="#E3A406"/>
            <stop offset="1" stop-color="#FBD851"/>
        </linearGradient>
    </defs>
</svg>
