<svg width="30" height="30" viewBox="0 0 30 30" fill="none" xmlns="http://www.w3.org/2000/svg">
    <path d="M20.662 6.69c.147-.147.074-.368-.073-.515l-2.647-2.647c-.441-.44-1.03-.44-1.47 0L3.234 16.766c-.44.44-.44 1.03 0 1.47l2.72 2.72c.148.148.295.148.515.074.736-.441 1.765-.294 2.427.368.661.661.808 1.69.367 2.426-.073.22-.073.368.074.515l2.72 2.72c.441.441 1.03.441 1.47 0l13.237-13.236c.44-.441.44-1.03 0-1.47l-2.647-2.648c-.147-.147-.368-.22-.515-.073-.882.588-1.985.515-2.72-.22-.736-.736-.809-1.839-.22-2.721zm-2.647 4.412v2.941c0 .147.073.22.22.368l2.5 1.764c.368.22.22.662-.073.809l-2.721.809a.316.316 0 0 0-.294.294l-.81 2.72c-.073.368-.587.442-.808.074l-1.764-2.5c-.074-.073-.221-.22-.368-.22h-2.941c-.441.147-.736-.294-.441-.588l1.691-2.28c.074-.073.147-.294.074-.367l-1.03-2.794a.487.487 0 0 1 .589-.589l2.794 1.03c.147 0 .294 0 .367-.074l2.28-1.691c.294-.294.735 0 .735.294z" fill="#A9A4B4"/>
    <path fill="#000" fill-opacity=".01" d="M0 0h30v30H0z"/>
</svg>
