<svg width="16" height="16" viewBox="0 0 16 16" fill="none" xmlns="http://www.w3.org/2000/svg">
    <path fill="#000" fill-opacity=".01" d="M0 0h16v16H0z"/>
    <path d="M12.522 1.333H3.71a1.04 1.04 0 0 0-1.043 1.043v11.247c0 .58.463 1.043 1.043 1.043h8.812a1.04 1.04 0 0 0 1.043-1.043V2.376a1.04 1.04 0 0 0-1.043-1.043zM6.087 13.217H3.826v-2.406h2.26v2.406zm0-4H3.826V6.811h2.26v2.406zm0-4.029H3.826V2.782h2.26v2.406zm6.319 7.826h-5.13c-.175 0-.29-.116-.29-.29s.115-.29.29-.29h5.13c.174 0 .29.116.29.29a.29.29 0 0 1-.29.29zm0-1.42h-5.13c-.175 0-.29-.116-.29-.29s.115-.29.29-.29h5.13c.174 0 .29.116.29.29a.29.29 0 0 1-.29.29zm0-2.609h-5.13c-.175 0-.29-.116-.29-.29s.115-.29.29-.29h5.13c.174 0 .29.116.29.29a.29.29 0 0 1-.29.29zm0-1.391h-5.13c-.175 0-.29-.116-.29-.29s.115-.29.29-.29h5.13c.174 0 .29.116.29.29a.29.29 0 0 1-.29.29zm0-2.609h-5.13c-.175 0-.29-.116-.29-.29s.115-.29.29-.29h5.13c.174 0 .29.116.29.29a.29.29 0 0 1-.29.29zm0-1.42h-5.13c-.175 0-.29-.116-.29-.29s.115-.29.29-.29h5.13c.174 0 .29.116.29.29a.29.29 0 0 1-.29.29z" fill="url(#agx5itjnea)"/>
    <defs>
        <linearGradient id="agx5itjnea" x1="9.587" y1="14.666" x2="8.233" y2="1.472" gradientUnits="userSpaceOnUse">
            <stop stop-color="#E3A406"/>
            <stop offset="1" stop-color="#FBD851"/>
        </linearGradient>
    </defs>
</svg>
