<svg width="24" height="25" viewBox="0 0 24 25" fill="none" xmlns="http://www.w3.org/2000/svg">
<path d="M0.800049 12.9C0.800049 9.82354 2.02219 6.87303 4.19761 4.69761C6.37303 2.52219 9.32354 1.30005 12.4 1.30005C15.4766 1.30005 18.4271 2.52219 20.6025 4.69761C22.7779 6.87303 24 9.82354 24 12.9C24 14.4234 23.7 15.9318 23.1171 17.3392C22.5341 18.7466 21.6796 20.0253 20.6025 21.1025C19.5253 22.1796 18.2466 23.0341 16.8392 23.6171C15.4318 24.2 13.9234 24.5 12.4 24.5C9.32354 24.5 6.37303 23.2779 4.19761 21.1025C2.02219 18.9271 0.800049 15.9766 0.800049 12.9Z" fill="url(#paint0_linear_424_8210)"/>
<path d="M0.800049 12.1C0.800049 9.02349 2.02219 6.07298 4.19761 3.89756C6.37303 1.72214 9.32354 0.5 12.4 0.5C15.4766 0.5 18.4271 1.72214 20.6025 3.89756C22.7779 6.07298 24 9.02349 24 12.1C24 15.1765 22.7779 18.127 20.6025 20.3024C18.4271 22.4779 15.4766 23.7 12.4 23.7C9.32354 23.7 6.37303 22.4779 4.19761 20.3024C2.02219 18.127 0.800049 15.1765 0.800049 12.1Z" fill="url(#paint1_linear_424_8210)"/>
<path d="M0.968018 12.1C0.968018 9.06801 2.17246 6.16024 4.31637 4.01632C6.46029 1.87241 9.36806 0.667969 12.4 0.667969C13.9013 0.667969 15.3879 0.963666 16.7749 1.53818C18.1618 2.11269 19.4221 2.95476 20.4837 4.01632C21.5452 5.07788 22.3873 6.33814 22.9618 7.72513C23.5363 9.11213 23.832 10.5987 23.832 12.1C23.832 13.6012 23.5363 15.0878 22.9618 16.4748C22.3873 17.8618 21.5452 19.1221 20.4837 20.1836C19.4221 21.2452 18.1618 22.0872 16.7749 22.6618C15.3879 23.2363 13.9013 23.532 12.4 23.532C9.36806 23.532 6.46029 22.3275 4.31637 20.1836C2.17246 18.0397 0.968018 15.1319 0.968018 12.1Z" fill="url(#paint2_linear_424_8210)"/>
<path d="M2.66406 12.1C2.66406 9.51787 3.68982 7.04148 5.51567 5.21562C7.34153 3.38977 9.81791 2.36401 12.4001 2.36401C13.6786 2.36401 14.9446 2.61584 16.1259 3.10512C17.3071 3.5944 18.3804 4.31155 19.2845 5.21562C20.1885 6.11969 20.9057 7.19298 21.395 8.37421C21.8842 9.55543 22.1361 10.8215 22.1361 12.1C22.1361 13.3786 21.8842 14.6446 21.395 15.8258C20.9057 17.007 20.1885 18.0803 19.2845 18.9844C18.3804 19.8885 17.3071 20.6056 16.1259 21.0949C14.9446 21.5842 13.6786 21.836 12.4001 21.836C9.81791 21.836 7.34153 20.8103 5.51567 18.9844C3.68982 17.1586 2.66406 14.6822 2.66406 12.1Z" fill="url(#paint3_linear_424_8210)"/>
<path d="M2.896 12.1002C2.896 9.57957 3.89731 7.16219 5.67965 5.37985C7.462 3.5975 9.87938 2.59619 12.4 2.59619C14.9206 2.59619 17.338 3.5975 19.1203 5.37985C20.9027 7.16219 21.904 9.57957 21.904 12.1002C21.904 14.6208 20.9027 17.0382 19.1203 18.8205C17.338 20.6029 14.9206 21.6042 12.4 21.6042C9.87938 21.6042 7.462 20.6029 5.67965 18.8205C3.89731 17.0382 2.896 14.6208 2.896 12.1002Z" fill="url(#paint4_linear_424_8210)"/>
<path d="M8.19189 13.0278L12.3999 15.5158V18.9558L8.19189 13.0278Z" fill="#D7AD59"/>
<path d="M8.19189 12.2279L12.3999 10.3159V5.2439L8.19189 12.2279Z" fill="#A27E3D"/>
<path d="M8.19189 12.2279L12.3999 10.3159V14.7159L8.19189 12.2279Z" fill="#D6AC56"/>
<path d="M16.6079 13.0278L12.3999 15.5158V18.9558L16.6079 13.0278Z" fill="#52401B"/>
<path d="M16.6079 12.2279L12.3999 10.3159V5.2439L16.6079 12.2279Z" fill="#FFFF94"/>
<path d="M16.6079 12.2279L12.3999 10.3159V14.7159L16.6079 12.2279Z" fill="#DEB054"/>
<rect y="0.5" width="24" height="24" fill="black" fill-opacity="0.01"/>
<defs>
<linearGradient id="paint0_linear_424_8210" x1="4.28005" y1="21.02" x2="20.888" y2="4.41205" gradientUnits="userSpaceOnUse">
<stop stop-color="#DD5939"/>
<stop offset="0.36" stop-color="#EB7B68"/>
<stop offset="0.53" stop-color="#EA5724"/>
<stop offset="0.57" stop-color="#EF5E49"/>
<stop offset="0.71" stop-color="#F35D42"/>
<stop offset="1" stop-color="#D55D1F"/>
</linearGradient>
<linearGradient id="paint1_linear_424_8210" x1="4.28005" y1="20.22" x2="20.888" y2="3.612" gradientUnits="userSpaceOnUse">
<stop stop-color="#9FCED6"/>
<stop offset="1" stop-color="#3FA1AE"/>
</linearGradient>
<linearGradient id="paint2_linear_424_8210" x1="4.40002" y1="20.1" x2="20.768" y2="3.73197" gradientUnits="userSpaceOnUse">
<stop stop-color="#EEB81F"/>
<stop offset="0.25" stop-color="#FFDF5B"/>
<stop offset="0.71" stop-color="#E09F00"/>
<stop offset="1" stop-color="#E8A608"/>
</linearGradient>
<linearGradient id="paint3_linear_424_8210" x1="5.58406" y1="18.916" x2="19.5281" y2="4.97201" gradientUnits="userSpaceOnUse">
<stop stop-color="#D2890A"/>
<stop offset="0.16" stop-color="#CA8000"/>
<stop offset="0.71" stop-color="#B97C10"/>
<stop offset="1" stop-color="#CC8303"/>
</linearGradient>
<linearGradient id="paint4_linear_424_8210" x1="5.744" y1="18.7562" x2="19.36" y2="5.14019" gradientUnits="userSpaceOnUse">
<stop stop-color="#111111"/>
<stop offset="0.52" stop-color="#333333"/>
<stop offset="1" stop-color="#0B0B0C"/>
</linearGradient>
</defs>
</svg>
