<svg width="24" height="24" viewBox="0 0 24 24" fill="none" xmlns="http://www.w3.org/2000/svg">
    <path fill="#000" fill-opacity=".01" d="M0 0h24v24H0z"/>
    <path d="M.8 12.4a11.6 11.6 0 1 1 23.2 0 11.6 11.6 0 0 1-23.2 0z" fill="#BE5DB7"/>
    <path d="M15.478 1.216c-.382-.106-.77-.191-1.163-.257L.96 14.315c.066.393.152.78.257 1.163L15.478 1.216zM2.005 17.547a11.605 11.605 0 0 1-.665-1.65L15.897 1.338c.566.18 1.118.402 1.65.665L2.005 17.547zM6.667 22.484a11.598 11.598 0 0 1-1.388-.927L21.558 5.279c.343.441.652.905.927 1.388L6.667 22.484z" fill="#fff" fill-opacity=".2"/>
    <path d="M17.788 22.672a11.59 11.59 0 0 1-9.426.602L23.275 8.362a11.596 11.596 0 0 1-.602 9.426l-4.884 4.884z" fill="#fff" fill-opacity=".1"/>
    <path d="M1.14 9.616 9.616 1.14a11.6 11.6 0 0 0-8.478 8.477z" fill="#fff" fill-opacity=".2"/>
    <path d="M3.2 12.4a9.2 9.2 0 1 1 18.4 0 9.2 9.2 0 0 1-18.4 0z" fill="#6A3166"/>
    <path d="M4.4 12a8.4 8.4 0 1 1 16.8 0 8.4 8.4 0 0 1-16.8 0z" fill="#9E4D9A"/>
    <path d="M3.32 12.4a9.08 9.08 0 1 1 18.16 0 9.08 9.08 0 0 1-18.16 0z" stroke="#803C79" stroke-width=".24"/>
    <path d="M10.99 9.077h-.1c-1.593 0-2.88-.57-2.89-1.294-.01-.737 1.31-1.358 2.953-1.383h.1c1.593 0 2.876.57 2.887 1.294.01.74-1.31 1.359-2.95 1.383zM14.744 13.116c1.64-.025 2.962-.644 2.95-1.382-.01-.739-1.35-1.317-2.99-1.292-1.642.024-2.963.643-2.952 1.381.012.739 1.35 1.317 2.992 1.293zM17.706 15.096l-.003.002v-.002h.003zM17.703 15.098v1.164c-.043.72-1.343 1.313-2.95 1.338-1.64.024-2.98-.554-2.99-1.294-.002-.01-.001-.02 0-.03V15.18c.505.518 1.656.87 2.987.85 1.327-.019 2.46-.4 2.953-.932z" fill="#D978D2"/>
    <path d="M11.766 12.948c.505.519 1.655.87 2.987.851 1.326-.019 2.46-.402 2.953-.93v1.162c-.044.719-1.343 1.313-2.95 1.337-1.64.025-2.98-.553-2.99-1.293a.128.128 0 0 1-.001-.03v-1.096zM11.001 11.992h-.108c-1.286 0-2.388-.346-2.88-.854v1.096a.13.13 0 0 0 0 .03c.011.725 1.297 1.294 2.89 1.294h.1c.033 0 .068 0 .1-.002v-1.567c-.034.003-.067.003-.102.003zM12.587 10.155c.256-.1.537-.181.834-.24.173-.036.352-.065.535-.087V8.826c-.491.532-1.626.915-2.955.934h-.108c-1.286 0-2.388-.345-2.88-.853V10.033c.011.724 1.297 1.294 2.89 1.294h.1c.063 0 .125-.003.184-.005l.009-.022c.067-.157.159-.294.264-.416a2.476 2.476 0 0 1 .58-.467c.171-.103.352-.19.547-.262zM8.014 13.361c.491.508 1.593.854 2.879.854h.108c.016 0 .033 0 .05-.002h.053v1.566c-.033.002-.068.002-.1.002h-.1c-1.594 0-2.88-.57-2.89-1.293-.002-.011-.002-.022-.001-.033v-1.093z" fill="#D978D2"/>
    <path d="M10.915 9.077h.062c1.64-.024 2.96-.643 2.95-1.383-.011-.724-1.294-1.294-2.888-1.294h-.1l-.043.001h.038c1.594 0 2.877.57 2.888 1.294.01.734-1.287 1.348-2.907 1.382zM17.68 11.734c.012.738-1.31 1.357-2.95 1.382h-.104c1.64-.025 2.961-.643 2.95-1.381-.01-.723-1.294-1.293-2.888-1.293h.002c1.64-.025 2.98.553 2.99 1.292zM17.692 15.096l-.003.002v-.002h.003zM14.637 17.6h.102c1.608-.025 2.907-.619 2.95-1.338v-1.164a1.517 1.517 0 0 1-.105.103v1.062c-.043.718-1.34 1.312-2.947 1.337zM17.587 12.972c.038-.034.073-.068.105-.102v1.161c-.043.719-1.343 1.313-2.95 1.337l-.102.001c1.606-.025 2.904-.619 2.947-1.337v-1.06z" fill="#fff"/>
    <path d="m8.014 9.223.167-.167c.378.293.975.517 1.688.628l-1.182 1.18c-.417-.223-.669-.512-.673-.83-.002-.011-.002-.021-.001-.03v-.781zM8.229 11.323l-.215.216v-.4c.062.064.134.125.215.184zM10.487 9.065c-.745-.046-1.397-.218-1.847-.468l2.194-2.194.119-.003h.1c.688 0 1.318.107 1.813.286l-2.379 2.379zM10.245 6.45 8.32 8.374c-.202-.177-.317-.377-.32-.592-.01-.628.947-1.171 2.245-1.334zM17.647 11.505l-1.405 1.405a5.95 5.95 0 0 1-1.498.206 6.343 6.343 0 0 1-.965-.058l2.45-2.45c.731.184 1.262.509 1.418.897zM13.197 13.64c.463.109.993.167 1.556.16.219-.004.432-.017.638-.039l-1.556 1.556c-.73-.096-1.34-.317-1.704-.611l1.066-1.066zM11.056 15.781l.048-.048v.046a.749.749 0 0 1-.048.002zM16.579 15.058l1.127-1.127v.1c-.025.41-.46.78-1.127 1.027z" fill="#fff" fill-opacity=".2"/>
    <path d="m15.682 15.954-1.619 1.62c.222.02.453.03.69.026 1.607-.025 2.907-.619 2.95-1.338v-1.164l.003-.002h-.003v.002c-.373.401-1.11.718-2.02.856z" fill="#fff" fill-opacity=".1"/>
    <path d="m13.265 15.887-1.088 1.088c-.26-.195-.41-.423-.414-.67-.002-.01-.001-.02 0-.03V15.18c.302.31.836.56 1.502.707z" fill="#fff" fill-opacity=".2"/>
</svg>
