<svg width="24" height="24" viewBox="0 0 24 24" fill="none" xmlns="http://www.w3.org/2000/svg">
    <path fill="#000" fill-opacity=".01" d="M0 0h24v24H0z"/>
    <path d="M0 12a12 12 0 1 1 24 0 12 12 0 0 1-24 0z" fill="#2761F5"/>
    <path d="M15.185.43A12 12 0 0 0 13.98.164L.165 13.98c.068.407.157.808.266 1.204L15.185.43zM1.246 17.324a12.005 12.005 0 0 1-.687-1.707L15.618.557c.586.186 1.156.416 1.707.688L1.246 17.324zM6.07 22.432c-.5-.284-.98-.605-1.436-.96l16.84-16.84c.354.457.675.938.959 1.437L6.07 22.432z" fill="#fff" fill-opacity=".2"/>
    <path d="M17.574 22.626A11.98 11.98 0 0 1 12 24c-1.44 0-2.853-.258-4.177-.75L23.25 7.822a11.998 11.998 0 0 1-.623 9.751l-5.053 5.053z" fill="#fff" fill-opacity=".1"/>
    <path d="M.351 9.12 9.121.35a12 12 0 0 0-8.77 8.77z" fill="#fff" fill-opacity=".2"/>
    <path d="M2.483 12a9.517 9.517 0 1 1 19.034 0 9.517 9.517 0 0 1-19.034 0z" fill="#0837AF"/>
    <path d="M3.724 11.586a8.69 8.69 0 1 1 17.38 0 8.69 8.69 0 0 1-17.38 0z" fill="#2761F5"/>
    <path d="m18.705 12.746-.573-1.579a.276.276 0 0 0-.14-.153.282.282 0 0 0-.204-.012 1.18 1.18 0 0 1-.929-.039 1.227 1.227 0 0 1-.624-.687 1.219 1.219 0 0 1 .726-1.553.275.275 0 0 0 .153-.14.283.283 0 0 0 .012-.204L16.553 6.8a.276.276 0 0 0-.14-.152.283.283 0 0 0-.203-.013l-9.408 3.45a.27.27 0 0 0-.166.344l.573 1.578a.27.27 0 0 0 .344.166 1.218 1.218 0 0 1 1.553.725 1.219 1.219 0 0 1-.725 1.554.27.27 0 0 0-.166.343l.573 1.579a.275.275 0 0 0 .14.153c.038.012.076.025.114.025.026 0 .064 0 .09-.013l9.395-3.424c.152-.076.229-.23.178-.37zm-4.481.267-1.07-.23c-.025 0-.05 0-.076.026l-.675.866c-.127.165-.382.09-.407-.115l-.127-1.082c0-.025-.026-.05-.051-.063l-1.031-.382c-.191-.077-.204-.344-.013-.42l1.006-.446a.07.07 0 0 0 .038-.064l.038-1.094c.013-.204.267-.293.395-.14l.738.814c.013.026.05.026.076.026l1.057-.306c.204-.05.37.153.267.331l-.547.955a.081.081 0 0 0 0 .076l.611.917c.127.153-.025.382-.23.331z" fill="#9EB8FA"/>
    <path d="M2.603 12a9.397 9.397 0 1 1 18.794 0 9.397 9.397 0 0 1-18.794 0z" stroke="#06287F" stroke-width=".24"/>
    <path d="m9.461 9.104-2.66.975a.27.27 0 0 0-.165.343l.401 1.105 2.424-2.423zM13.586 14.91l-3.768 1.373 3.475-3.476.93.2c.204.05.357-.178.23-.331l-.411-.617 2.123-2.123a1.227 1.227 0 0 0 .694 1.021c.18.086.373.124.566.114l-3.839 3.838z" fill="#fff" fill-opacity=".2"/>
    <path d="m18.604 12.462.101.277c.05.14-.025.293-.178.37l-.896.326.973-.973z" fill="#fff" fill-opacity=".1"/>
</svg>
