<svg width="81" height="80" viewBox="0 0 81 80" fill="none" xmlns="http://www.w3.org/2000/svg">
    <g clip-path="url(#z9uvo35v0a)">
        <path d="M79.294 49.676c-5.342 21.429-27.046 34.47-48.477 29.127C9.394 73.46-3.647 51.755 1.697 30.328 7.038 8.897 28.743-4.145 50.168 1.197c21.429 5.342 34.47 27.05 29.127 48.48z" fill="#50AF95"/>
        <path fill-rule="evenodd" clip-rule="evenodd" d="M45.562 35.282v.002l-.003-.002h.003zm0-6.095v6.095c11.32.524 19.824 2.767 19.824 5.457 0 2.689-8.513 4.933-19.827 5.453V65.74H35.476v-19.54c-11.34-.523-19.867-2.767-19.867-5.458 0-2.692 8.528-4.938 19.867-5.459v-6.095h-13.95v-9.298h37.989v9.298H45.562zm-5.004 15.457c3.26 0 4.72-.087 5.004-.108l-.01-.003c10.001-.443 17.46-2.187 17.46-4.27 0-2.084-7.461-3.828-17.46-4.274v6.812c-.28.026-1.838.155-4.95.155-2.592 0-4.468-.11-5.123-.158v-6.814c-10.02.448-17.498 2.19-17.498 4.278 0 2.089 7.478 3.833 17.498 4.273.645.031 2.486.109 5.079.109z" fill="#fff"/>
    </g>
    <defs>
        <clipPath id="z9uvo35v0a">
            <path fill="#fff" transform="translate(.5)" d="M0 0h80v80H0z"/>
        </clipPath>
    </defs>
</svg>
