<svg width="25" height="24" viewBox="0 0 25 24" fill="none" xmlns="http://www.w3.org/2000/svg">
    <g filter="url(#jk7mlv1n8a)">
        <path d="M12.303 5.757a1.879 1.879 0 1 0 0-3.757 1.879 1.879 0 0 0 0 3.757zM10.912 15.117c.12 0 .226.026.32.076a.632.632 0 0 1 .219.225.699.699 0 0 1 0 .651.612.612 0 0 1-.22.22.68.68 0 0 1-.638 0 .569.569 0 0 1-.22-.22.631.631 0 0 1-.08-.325c0-.126.025-.232.08-.326a.528.528 0 0 1 .22-.22.607.607 0 0 1 .32-.08zM15.91 15.143h-.389v1.202h.388c.207 0 .364-.057.482-.163a.575.575 0 0 0 .176-.438.6.6 0 0 0-.176-.445c-.119-.106-.275-.156-.482-.156z" fill="#0CBB3E"/>
        <path fill-rule="evenodd" clip-rule="evenodd" d="M19.165 11.987H5.389a.628.628 0 0 0-.626.626v6.262c0 .344.282.626.626.626h13.776a.628.628 0 0 0 .626-.626v-6.262a.628.628 0 0 0-.626-.626zm-9.937 4.62a.832.832 0 0 1-.37.289 1.52 1.52 0 0 1-.57.1c-.188 0-.37-.025-.544-.075a1.503 1.503 0 0 1-.439-.207c-.037-.025-.05-.069-.031-.112l.182-.389a.086.086 0 0 1 .062-.05c.025-.012.057-.006.082.013.087.062.194.119.319.156a1.3 1.3 0 0 0 .376.057c.162 0 .244-.025.281-.05.057-.032.063-.07.063-.094a.07.07 0 0 0-.031-.063.429.429 0 0 0-.132-.069 4.403 4.403 0 0 0-.257-.069 2.755 2.755 0 0 1-.438-.125.77.77 0 0 1-.325-.22.62.62 0 0 1-.145-.419c0-.15.044-.281.126-.407a.838.838 0 0 1 .363-.282c.156-.068.35-.1.57-.1.15 0 .307.019.45.05.145.038.282.094.389.163.044.019.056.069.037.113l-.162.394c-.007.025-.032.044-.057.05a.106.106 0 0 1-.075-.006 1.229 1.229 0 0 0-.588-.163c-.126 0-.22.019-.27.056-.05.026-.069.063-.069.107 0 .031.013.056.07.088.075.03.193.069.356.1.177.043.312.085.43.122l.009.003a.81.81 0 0 1 .319.22.608.608 0 0 1 .144.419.708.708 0 0 1-.125.4zm2.849-.225a1.283 1.283 0 0 1-.482.451c-.2.107-.433.163-.683.163-.25 0-.482-.056-.689-.163a1.238 1.238 0 0 1-.482-.45 1.26 1.26 0 0 1 0-1.284c.119-.188.282-.339.482-.451a1.553 1.553 0 0 1 1.371 0c.207.112.37.263.483.45.119.188.175.408.175.645 0 .232-.056.451-.175.64zm2.435.482c0 .05-.043.088-.1.088H12.74c-.05 0-.094-.038-.094-.088v-2.241c0-.057.044-.094.094-.094h.533c.05 0 .094.037.094.094v1.722h1.045c.057 0 .1.044.1.094v.425zm2.605-.488a1.15 1.15 0 0 1-.482.432 1.67 1.67 0 0 1-.701.144h-1.04c-.05 0-.094-.038-.094-.088v-2.241c0-.057.044-.094.094-.094h1.04c.263 0 .495.05.701.15.207.1.363.244.482.426.113.181.17.394.17.638 0 .239-.057.451-.17.633z" fill="#0CBB3E"/>
        <path fill-rule="evenodd" clip-rule="evenodd" d="M22.294 20.747V10.73c0-.69-.564-1.253-1.253-1.253h-2.26L14.454 5.15c-.213.363-.52.67-.883.883l3.444 3.444h-9.43l3.444-3.444a2.3 2.3 0 0 1-.877-.89L5.819 9.477h-2.31c-.69 0-1.253.563-1.253 1.252v10.019c0 .688.563 1.252 1.252 1.252h17.533c.69 0 1.253-.564 1.253-1.253zm-1.88 0H4.135a.628.628 0 0 1-.626-.626v-8.766c0-.345.282-.626.627-.626h16.28c.344 0 .626.281.626.626v8.766a.628.628 0 0 1-.626.626z" fill="#0CBB3E"/>
        <path fill="#000" fill-opacity=".01" d="M.256 0h24v24h-24z"/>
    </g>
    <defs>
        <filter id="jk7mlv1n8a" x="-23.744" y="-4" width="72" height="72" filterUnits="userSpaceOnUse" color-interpolation-filters="sRGB">
            <feFlood flood-opacity="0" result="BackgroundImageFix"/>
            <feColorMatrix in="SourceAlpha" values="0 0 0 0 0 0 0 0 0 0 0 0 0 0 0 0 0 0 127 0" result="hardAlpha"/>
            <feMorphology radius="8" in="SourceAlpha" result="effect1_dropShadow_840_5409"/>
            <feOffset dy="8"/>
            <feGaussianBlur stdDeviation="6"/>
            <feColorMatrix values="0 0 0 0 0.0470588 0 0 0 0 0.733333 0 0 0 0 0.243137 0 0 0 0.5 0"/>
            <feBlend in2="BackgroundImageFix" result="effect1_dropShadow_840_5409"/>
            <feColorMatrix in="SourceAlpha" values="0 0 0 0 0 0 0 0 0 0 0 0 0 0 0 0 0 0 127 0" result="hardAlpha"/>
            <feMorphology radius="6" in="SourceAlpha" result="effect2_dropShadow_840_5409"/>
            <feOffset dy="20"/>
            <feGaussianBlur stdDeviation="15"/>
            <feColorMatrix values="0 0 0 0 0.0470588 0 0 0 0 0.733333 0 0 0 0 0.243137 0 0 0 0.5 0"/>
            <feBlend in2="effect1_dropShadow_840_5409" result="effect2_dropShadow_840_5409"/>
            <feBlend in="SourceGraphic" in2="effect2_dropShadow_840_5409" result="shape"/>
        </filter>
    </defs>
</svg>
