<svg width="506" height="6" viewBox="0 0 506 6" fill="none" xmlns="http://www.w3.org/2000/svg">
    <g clip-path="url(#ok9u1ms1ia)">
        <path fill="#000" fill-opacity=".01" d="M0 0h505.333v5.333H0z"/>
        <path fill-rule="evenodd" clip-rule="evenodd" d="M2.667 5.333a2.667 2.667 0 1 1 2.62-3.166h2.43v1h-2.43a2.668 2.668 0 0 1-2.62 2.166zm497.38-3.166h-2.431v1h2.431a2.668 2.668 0 1 0 0-1zm-477.178 1H12.768v-1h10.1v1zm15.151 0h-10.1v-1h10.1v1zm15.152 0H43.07v-1h10.1v1zm15.151 0h-10.1v-1h10.1v1zm15.152 0H73.374v-1h10.1v1zm15.151 0h-10.1v-1h10.1v1zm15.152 0h-10.101v-1h10.101v1zm15.151 0h-10.101v-1h10.101v1zm15.152 0H133.98v-1h10.101v1zm15.151 0h-10.101v-1h10.101v1zm15.152 0h-10.101v-1h10.101v1zm15.151 0h-10.101v-1h10.101v1zm15.152 0h-10.101v-1h10.101v1zm15.151 0h-10.101v-1h10.101v1zm15.152 0h-10.101v-1h10.101v1zm15.151 0H240.04v-1h10.101v1zm15.152 0h-10.101v-1h10.101v1zm15.151 0h-10.101v-1h10.101v1zm15.152 0h-10.101v-1h10.101v1zm15.152 0h-10.101v-1h10.101v1zm15.151 0h-10.101v-1h10.101v1zm15.152 0H330.95v-1h10.101v1zm15.151 0h-10.101v-1h10.101v1zm15.152 0h-10.101v-1h10.101v1zm15.151 0h-10.101v-1h10.101v1zm15.152 0h-10.101v-1h10.101v1zm15.151 0h-10.101v-1h10.101v1zm15.152 0h-10.101v-1h10.101v1zm15.151 0H437.01v-1h10.101v1zm15.152 0h-10.101v-1h10.101v1zm15.151 0h-10.101v-1h10.101v1zm15.152 0h-10.101v-1h10.101v1z" fill="#293C44"/>
    </g>
    <defs>
        <clipPath id="ok9u1ms1ia">
            <path fill="#fff" d="M0 0h505.333v5.333H0z"/>
        </clipPath>
    </defs>
</svg>
