<svg width="48" height="48" viewBox="0 0 48 48" fill="none" xmlns="http://www.w3.org/2000/svg">
    <g clip-path="url(#xcot8issda)">
        <path fill="#000" fill-opacity=".01" d="M0 0h48v48H0z"/>
        <rect width="48" height="48" rx="24" fill="#FAD54D"/>
        <path fill-rule="evenodd" clip-rule="evenodd" d="M20.408 17.736h-.214c-3.415 0-6.17-1.221-6.194-2.772-.023-1.58 2.808-2.912 6.327-2.964h.214c3.415 0 6.165 1.221 6.188 2.773.023 1.586-2.808 2.911-6.321 2.963zm8.043 8.654c3.516-.053 6.347-1.379 6.323-2.961-.024-1.582-2.893-2.822-6.41-2.77-3.516.054-6.347 1.38-6.323 2.962.024 1.582 2.893 2.822 6.41 2.769zm6.346 4.243-.005.006v-.006h.005zm-.005.006v2.494c-.093 1.54-2.877 2.813-6.321 2.865-3.514.053-6.385-1.186-6.408-2.772-.004-.023-.002-.044-.001-.065l.001-.034v-2.315c1.083 1.111 3.549 1.864 6.402 1.823 2.843-.04 5.27-.86 6.327-1.996zM22.069 26.03c1.082 1.111 3.548 1.864 6.402 1.824 2.842-.041 5.273-.863 6.326-1.992v2.489c-.092 1.54-2.876 2.813-6.32 2.866-3.514.052-6.385-1.187-6.408-2.773a.276.276 0 0 1-.001-.065l.001-.034v-2.315zm-1.638-2.05h-.232c-2.755 0-5.117-.74-6.17-1.829v2.316a.52.52 0 0 1-.001.034.276.276 0 0 0 0 .064c.024 1.551 2.78 2.773 6.194 2.773h.215c.07 0 .144 0 .214-.006v-3.357c-.075.006-.145.006-.22.006zm3.398-3.936a10.76 10.76 0 0 1 1.788-.515c.37-.075.753-.139 1.146-.185v-2.148c-1.053 1.14-3.484 1.963-6.332 2.003h-.232c-2.755 0-5.117-.74-6.17-1.83v2.316l-.001.034a.275.275 0 0 0 0 .065c.024 1.55 2.78 2.772 6.194 2.772h.215c.133 0 .266-.005.393-.011a3.44 3.44 0 0 1 .585-.938c.15-.174.318-.33.492-.475.231-.197.486-.37.752-.526.365-.22.753-.406 1.17-.562zm-9.8 6.871c1.053 1.088 3.415 1.83 6.17 1.83h.232c.034 0 .07-.002.105-.004.038-.001.076-.003.115-.003V32.097c-.07.005-.145.005-.214.005h-.215c-3.415 0-6.17-1.221-6.193-2.772a.308.308 0 0 1-.001-.07v-2.344z" fill="#13151F"/>
    </g>
    <defs>
        <clipPath id="xcot8issda">
            <path fill="#fff" d="M0 0h48v48H0z"/>
        </clipPath>
    </defs>
</svg>
