<svg width="24" height="25" viewBox="0 0 24 25" fill="none" xmlns="http://www.w3.org/2000/svg">
    <g clip-path="url(#5hbi91te4a)">
        <path fill="#000" fill-opacity=".01" d="M0 .5h24v24H0z"/>
        <path d="M15.109 16.04a3.703 3.703 0 0 0-.894-.665c-.353-.194-.84-.404-1.46-.633-.616-.223-1.06-.469-1.317-.723-.259-.255-.386-.593-.386-1.014 0-.469.132-.83.392-1.082.259-.252.625-.378 1.09-.378.47 0 .842.176 1.114.527.277.348.41.83.41 1.436h1.759c0-.95-.231-1.721-.69-2.31-.456-.596-1.112-.954-1.954-1.072V8.529h-1.165v1.584c-.837.097-1.502.402-1.988.92-.49.52-.734 1.181-.734 1.985 0 1.186.562 2.078 1.692 2.685.34.187.811.383 1.423.599.61.215 1.044.454 1.308.725.262.27.392.61.392 1.021 0 .438-.144.794-.432 1.062-.289.265-.708.401-1.26.401-.562 0-.997-.17-1.304-.501-.308-.334-.462-.81-.462-1.418H8.878c0 .958.26 1.728.777 2.31.513.579 1.252.923 2.212 1.028v1.41h1.15v-1.418c.9-.091 1.597-.392 2.097-.9.5-.509.752-1.17.752-1.989 0-.437-.066-.816-.196-1.14a2.707 2.707 0 0 0-.561-.853zM6.747 2.124c-.01-.205.044-.367.158-.49.052-.054.21-.221.657-.221.286 0 .602.062.938.129l.066.013c.348.07.707.144 1.015.144.127 0 .241-.013.383-.05.33-.099.645-.312.993-.558.417-.29.848-.591 1.295-.591.451 0 .881.3 1.295.59.349.247.665.459 1.004.562.343.098.876.007 1.395-.098.316-.068.68-.141.992-.141.45 0 .604.164.65.214a.658.658 0 0 1 .168.497c-.027.609-.7 1.628-1.805 2.75H8.549c-1.102-1.12-1.775-2.139-1.802-2.75zM12.245 24.5c-4.615 0-9.845 0-9.845-5.832 0-3.673 2.502-9.652 6.11-12.51h7.481c3.612 2.862 6.108 8.838 6.099 12.51 0 5.832-5.23 5.832-9.845 5.832z" fill="url(#xh870hk1ib)"/>
        <path fill="#000" fill-opacity=".01" d="M0 .5h24v24H0z"/>
    </g>
    <defs>
        <linearGradient id="xh870hk1ib" x1="12.245" y1="4.183" x2="12.245" y2="17.371" gradientUnits="userSpaceOnUse">
            <stop stop-color="#EA208D" stop-opacity=".9"/>
            <stop offset=".435" stop-color="#E63A97"/>
            <stop offset="1" stop-color="#F1F1CB"/>
        </linearGradient>
        <clipPath id="5hbi91te4a">
            <path fill="#fff" transform="translate(0 .5)" d="M0 0h24v24H0z"/>
        </clipPath>
    </defs>
</svg>
