<svg width="24" height="24" viewBox="0 0 24 24" fill="none" xmlns="http://www.w3.org/2000/svg">
    <path fill="#000" fill-opacity=".01" d="M0 0h24v24H0z"/>
    <path d="M.8 12.4a11.6 11.6 0 1 1 23.2 0 11.6 11.6 0 0 1-23.2 0z" fill="#BE5DB7"/>
    <path d="M15.478 1.216c-.382-.105-.77-.191-1.163-.257L.959 14.315c.066.393.151.78.257 1.163L15.478 1.216zM2.004 17.547a11.605 11.605 0 0 1-.665-1.65L15.896 1.34c.567.179 1.119.4 1.65.664L2.005 17.547zM6.667 22.484a11.598 11.598 0 0 1-1.388-.927L21.557 5.28c.343.441.653.905.927 1.388L6.667 22.484z" fill="#fff" fill-opacity=".2"/>
    <path d="M17.788 22.673a11.59 11.59 0 0 1-9.426.601L23.274 8.362a11.598 11.598 0 0 1-.602 9.426l-4.884 4.885z" fill="#fff" fill-opacity=".1"/>
    <path d="m1.139 9.617 8.477-8.478A11.6 11.6 0 0 0 1.14 9.617z" fill="#fff" fill-opacity=".2"/>
    <path d="M3.2 12.4a9.2 9.2 0 1 1 18.4 0 9.2 9.2 0 0 1-18.4 0z" fill="#6A3166"/>
    <path d="M4.4 12a8.4 8.4 0 1 1 16.8 0 8.4 8.4 0 0 1-16.8 0z" fill="#9E4D9A"/>
    <path d="M3.32 12.4a9.08 9.08 0 1 1 18.16 0 9.08 9.08 0 0 1-18.16 0z" stroke="#803C79" stroke-width=".24"/>
    <path d="M10.99 9.077h-.1c-1.593 0-2.88-.57-2.89-1.294-.01-.737 1.31-1.359 2.953-1.383h.1c1.593 0 2.876.57 2.887 1.294.01.74-1.31 1.359-2.95 1.383zM14.744 13.115c1.64-.024 2.962-.643 2.95-1.382-.01-.738-1.35-1.317-2.99-1.292-1.642.025-2.963.644-2.952 1.382.012.738 1.35 1.317 2.992 1.292zM17.706 15.095l-.003.003v-.003h.003zM17.703 15.098v1.164c-.043.719-1.343 1.313-2.95 1.337-1.64.025-2.98-.553-2.99-1.294-.002-.01-.001-.02 0-.03V15.18c.505.519 1.656.87 2.987.85 1.327-.018 2.46-.4 2.953-.93z" fill="#D978D2"/>
    <path d="M11.766 12.948c.505.518 1.655.87 2.987.85 1.326-.018 2.46-.402 2.953-.928v1.161c-.044.719-1.343 1.313-2.95 1.337-1.64.024-2.98-.554-2.99-1.294a.127.127 0 0 1-.001-.03v-1.096zM11.001 11.991h-.108c-1.286 0-2.388-.345-2.88-.853V12.264c.011.724 1.297 1.294 2.89 1.294h.1c.033 0 .068 0 .1-.003V11.99c-.034.002-.067.002-.102.002zM12.587 10.154c.256-.1.537-.18.834-.24.173-.035.352-.065.535-.086V8.825c-.491.533-1.626.916-2.955.935h-.108c-1.286 0-2.388-.346-2.88-.854v1.097a.13.13 0 0 0 0 .03c.011.724 1.297 1.294 2.89 1.294h.1c.063 0 .125-.003.184-.006l.009-.021c.067-.157.159-.295.264-.416a2.484 2.484 0 0 1 .58-.467c.171-.103.352-.19.547-.263zM8.014 13.36c.491.509 1.593.854 2.879.854h.108a1.204 1.204 0 0 0 .103-.002v1.566c-.033.003-.068.003-.1.003h-.1c-1.594 0-2.88-.57-2.89-1.294-.002-.01-.002-.022-.001-.032v-1.094z" fill="#D978D2"/>
    <path d="M10.914 9.077h.062c1.64-.024 2.96-.643 2.95-1.383-.011-.724-1.294-1.294-2.888-1.294H10.895h.038c1.594 0 2.877.57 2.888 1.295.01.733-1.287 1.347-2.907 1.382zM17.68 11.733c.011.739-1.31 1.357-2.951 1.382h-.103c1.64-.024 2.96-.643 2.95-1.38-.012-.724-1.295-1.293-2.889-1.294h.002c1.64-.025 2.98.554 2.99 1.292zM17.69 15.095l-.002.003v-.003h.003zM14.637 17.6h.101c1.608-.025 2.907-.62 2.95-1.338v-1.164a1.537 1.537 0 0 1-.104.102v1.063c-.044.718-1.341 1.312-2.947 1.337zM17.586 12.971c.038-.033.073-.067.105-.101v1.161c-.043.719-1.343 1.313-2.95 1.337h-.102c1.606-.024 2.904-.618 2.947-1.336v-1.06z" fill="#fff"/>
    <path d="m8.014 9.223.167-.168c.378.294.975.517 1.688.628l-1.182 1.181c-.417-.223-.669-.512-.673-.831a.13.13 0 0 1-.001-.03v-.78zM8.229 11.323l-.215.215v-.4c.062.064.134.126.215.185zM10.487 9.065c-.745-.046-1.397-.218-1.847-.469l2.194-2.193.119-.003h.1c.688 0 1.318.106 1.813.285l-2.379 2.38zM10.245 6.449 8.32 8.375c-.202-.177-.317-.378-.32-.592-.01-.628.947-1.172 2.245-1.334zM17.647 11.504l-1.405 1.406c-.439.123-.95.197-1.498.205a6.356 6.356 0 0 1-.965-.057l2.45-2.45c.731.184 1.262.508 1.418.896zM13.197 13.64c.463.109.993.167 1.556.159.219-.003.432-.016.638-.038l-1.556 1.556c-.73-.096-1.34-.318-1.704-.612l1.066-1.065zM11.056 15.78l.048-.047v.045a.749.749 0 0 1-.048.003zM16.579 15.058l1.127-1.127v.1c-.025.41-.46.78-1.127 1.027z" fill="#fff" fill-opacity=".2"/>
    <path d="m15.682 15.954-1.619 1.62c.222.02.453.029.69.025 1.607-.024 2.907-.618 2.95-1.337v-1.164l.003-.003h-.003v.003c-.373.401-1.11.717-2.02.856z" fill="#fff" fill-opacity=".1"/>
    <path d="m13.265 15.887-1.088 1.087c-.26-.194-.41-.422-.414-.669-.002-.01-.001-.02 0-.03V15.18c.302.31.836.561 1.502.708z" fill="#fff" fill-opacity=".2"/>
</svg>
