<svg width="24" height="25" viewBox="0 0 24 25" fill="none" xmlns="http://www.w3.org/2000/svg">
    <g clip-path="url(#t3eq2xxxra)">
        <path fill="#000" fill-opacity=".01" d="M0 .5h24v24H0z"/>
        <path fill-rule="evenodd" clip-rule="evenodd" d="M2.9.5h14.2v3.403c0 .468.382.85.85.85h3.403V24c0 .275-.225.5-.5.5H2.9a.5.5 0 0 1-.5-.5V1a.5.5 0 0 1 .5-.5zm12.24 10.463a.562.562 0 1 0-1.124 0 .562.562 0 0 0 1.124 0zm-3.685 0a.562.562 0 1 0-1.124 0 .562.562 0 0 0 1.124 0zM16.1 9.43h-5.827a.537.537 0 0 1-.538-.48l-.027-.244h5.112c.5 0 .842-.346.938-.82l.687-3.131c.125-.567-.31-.993-.878-.993H9.15l-.03-.276a1.389 1.389 0 0 0-1.376-1.231h-.091a.422.422 0 1 0 0 .844h.09c.278 0 .508.203.538.48l.616 5.464a1.389 1.389 0 0 0 1.376 1.231h5.826a.422.422 0 0 0 0-.844zM9.23 4.462l.08.71h1.296l-.08-.71H9.23zm.158 1.41.077.685h1.298l-.078-.685H9.388zm.156 1.385.084.749h1.298l-.085-.75H9.544zm2.085.749h1.762l.085-.75h-1.932l.085.75zm1.926-1.449.077-.685H11.39l.077.685h2.089zm.156-1.385.08-.71h-2.562l.08.71h2.402zm.383 2.834h.726c.16 0 .224-.117.253-.26l.107-.49h-1.001l-.085.75zm1.24-1.449.15-.685h-1.15l-.076.685h1.076zm.303-1.385.123-.558c.027-.124-.086-.152-.193-.152h-1.073l-.08.71h1.223zM4.605 16.306a.35.35 0 0 0-.35.35v2.015c0 .193.157.35.35.35H6.62a.35.35 0 0 0 .35-.35v-2.015a.35.35 0 0 0-.35-.35H4.605zm1.665.7H4.955v1.314H6.27v-1.314zm1.53 1.007h11.347a.35.35 0 1 0 0-.7H7.8a.35.35 0 1 0 0 .7zm-3.195-5.689a.35.35 0 0 0-.35.35v2.015c0 .193.157.35.35.35H6.62a.35.35 0 0 0 .35-.35v-2.015a.35.35 0 0 0-.35-.35H4.605zm1.665.7H4.955v1.315H6.27v-1.315zm1.53 1.007h11.347a.35.35 0 1 0 0-.7H7.8a.35.35 0 1 0 0 .7zm0 8.116h11.347a.35.35 0 1 0 0-.7H7.8a.35.35 0 1 0 0 .7zm-3.195-1.86a.35.35 0 0 0-.35.35v2.015c0 .194.157.35.35.35H6.62a.35.35 0 0 0 .35-.35v-2.014a.35.35 0 0 0-.35-.35H4.605zm1.665.7H4.955v1.315H6.27v-1.314zM17.8.85v3.053c0 .082.068.15.15.15h3.053L17.8.85z" fill="url(#s5nxbzj2mb)"/>
        <path fill="#000" fill-opacity=".01" d="M0 .5h24v24H0z"/>
    </g>
    <defs>
        <linearGradient id="s5nxbzj2mb" x1="11.876" y1="4.183" x2="11.876" y2="17.371" gradientUnits="userSpaceOnUse">
            <stop stop-color="#EA208D" stop-opacity=".9"/>
            <stop offset=".435" stop-color="#E63A97"/>
            <stop offset="1" stop-color="#F1F1CB"/>
        </linearGradient>
        <clipPath id="t3eq2xxxra">
            <path fill="#fff" transform="translate(0 .5)" d="M0 0h24v24H0z"/>
        </clipPath>
    </defs>
</svg>
