<svg width="20" height="20" viewBox="0 0 20 20" fill="none" xmlns="http://www.w3.org/2000/svg">
    <g clip-path="url(#8jbxu93xwa)">
        <path fill="#000" fill-opacity=".01" d="M0 0h20v20H0z"/>
        <path d="M9.991-.01C4.467-.01-.01 4.468-.01 9.992c0 5.524 4.478 10.002 10.002 10.002 5.524 0 10.002-4.478 10.002-10.002C19.993 4.468 15.515-.01 9.99-.01zm-.695 2.888h1.377v3.534H9.296V2.878zm.695 12.778c-3.162 0-5.735-2.619-5.735-5.838 0-2.33 1.36-4.435 3.467-5.36l.554 1.259c-1.607.707-2.644 2.316-2.644 4.101 0 2.46 1.955 4.461 4.358 4.461 2.403 0 4.359-2 4.359-4.46 0-1.786-1.038-3.396-2.645-4.103l.554-1.26c2.106.927 3.467 3.031 3.467 5.362 0 3.22-2.573 5.838-5.735 5.838z" fill="url(#or0nuvqprb)"/>
    </g>
    <defs>
        <linearGradient id="or0nuvqprb" x1="12.692" y1="19.994" x2="11.025" y2=".13" gradientUnits="userSpaceOnUse">
            <stop stop-color="#E3A406"/>
            <stop offset="1" stop-color="#FBD851"/>
        </linearGradient>
        <clipPath id="8jbxu93xwa">
            <path fill="#fff" d="M0 0h20v20H0z"/>
        </clipPath>
    </defs>
</svg>
