<svg width="1325" height="747" viewBox="0 0 1325 747" fill="none" xmlns="http://www.w3.org/2000/svg">
<g clip-path="url(#clip0_942_15235)">
<rect x="0.5" y="0.5" width="1324" height="746" rx="9.5" fill="#13151F"/>
<rect x="0.5" y="0.5" width="1324" height="746" rx="9.5" stroke="url(#paint0_linear_942_15235)"/>
<rect x="0.5" y="0.5" width="1324" height="746" rx="9.5" stroke="url(#paint1_linear_942_15235)"/>
<mask id="mask0_942_15235" style="mask-type:alpha" maskUnits="userSpaceOnUse" x="0" y="0" width="1325" height="747">
<path d="M0.5 10C0.5 4.75331 4.7533 0.5 10 0.5H1315C1320.25 0.5 1324.5 4.75329 1324.5 10V737C1324.5 742.247 1320.25 746.5 1315 746.5H9.99996C4.75326 746.5 0.5 742.247 0.5 737V10Z" fill="#13151F"/>
<path d="M0.5 10C0.5 4.75331 4.7533 0.5 10 0.5H1315C1320.25 0.5 1324.5 4.75329 1324.5 10V737C1324.5 742.247 1320.25 746.5 1315 746.5H9.99996C4.75326 746.5 0.5 742.247 0.5 737V10Z" stroke="url(#paint2_linear_942_15235)"/>
<path d="M0.5 10C0.5 4.75331 4.7533 0.5 10 0.5H1315C1320.25 0.5 1324.5 4.75329 1324.5 10V737C1324.5 742.247 1320.25 746.5 1315 746.5H9.99996C4.75326 746.5 0.5 742.247 0.5 737V10Z" stroke="url(#paint3_linear_942_15235)"/>
</mask>
<g mask="url(#mask0_942_15235)">
<g filter="url(#filter0_f_942_15235)">
<ellipse cx="526" cy="735.5" rx="154" ry="152.5" fill="#A21AE2"/>
</g>
<g filter="url(#filter1_f_942_15235)">
<ellipse cx="418.5" cy="-15" rx="164.5" ry="163" fill="#A21AE2"/>
</g>
<g filter="url(#filter2_f_942_15235)">
<ellipse cx="-5.53979" cy="552.5" rx="97.4602" ry="96.5" fill="#A21AE2"/>
</g>
<g filter="url(#filter3_f_942_15235)">
<ellipse cx="1242" cy="329.5" rx="185" ry="182.5" fill="#A21AE2"/>
</g>
<path d="M477.654 -224.371L477.652 -224.369L-252.447 372.966L-299.3 411.241L-299.316 411.253L-298.7 412.04C-267 388.222 -231.469 369.625 -193.808 356.669C-193.807 356.669 -193.807 356.669 -193.807 356.669L54.8929 271.507L-244.263 833.202L-243.515 833.831L677.307 117.929L676.772 117.089L190.879 366.387L400.81 107.116L400.148 106.382L150.579 268.88L467.302 -206.751C467.303 -206.753 467.304 -206.755 467.306 -206.757C474.951 -217.81 483.868 -227.817 494.055 -236.362L493.419 -237.134L493.413 -237.128L477.654 -224.371Z" stroke="url(#paint4_linear_942_15235)" stroke-opacity="0.1"/>
<path d="M515.666 424.388L1398.37 -297.895L1417.43 -313.327C1405.06 -302.955 1394.25 -290.811 1384.97 -277.403L1000.42 300.17L1304.61 102.08L1049 417.81L1639 115.058L525.711 980.709L888.116 300.17L585.983 403.642C540.393 419.328 497.378 441.844 459 470.684L515.666 424.388Z" fill="url(#paint5_linear_942_15235)" fill-opacity="0.1"/>
</g>
</g>
<defs>
<filter id="filter0_f_942_15235" x="-158" y="53" width="1368" height="1365" filterUnits="userSpaceOnUse" color-interpolation-filters="sRGB">
<feFlood flood-opacity="0" result="BackgroundImageFix"/>
<feBlend mode="normal" in="SourceGraphic" in2="BackgroundImageFix" result="shape"/>
<feGaussianBlur stdDeviation="265" result="effect1_foregroundBlur_942_15235"/>
</filter>
<filter id="filter1_f_942_15235" x="-276" y="-708" width="1389" height="1386" filterUnits="userSpaceOnUse" color-interpolation-filters="sRGB">
<feFlood flood-opacity="0" result="BackgroundImageFix"/>
<feBlend mode="normal" in="SourceGraphic" in2="BackgroundImageFix" result="shape"/>
<feGaussianBlur stdDeviation="265" result="effect1_foregroundBlur_942_15235"/>
</filter>
<filter id="filter2_f_942_15235" x="-633" y="-74" width="1254.92" height="1253" filterUnits="userSpaceOnUse" color-interpolation-filters="sRGB">
<feFlood flood-opacity="0" result="BackgroundImageFix"/>
<feBlend mode="normal" in="SourceGraphic" in2="BackgroundImageFix" result="shape"/>
<feGaussianBlur stdDeviation="265" result="effect1_foregroundBlur_942_15235"/>
</filter>
<filter id="filter3_f_942_15235" x="527" y="-383" width="1430" height="1425" filterUnits="userSpaceOnUse" color-interpolation-filters="sRGB">
<feFlood flood-opacity="0" result="BackgroundImageFix"/>
<feBlend mode="normal" in="SourceGraphic" in2="BackgroundImageFix" result="shape"/>
<feGaussianBlur stdDeviation="265" result="effect1_foregroundBlur_942_15235"/>
</filter>
<linearGradient id="paint0_linear_942_15235" x1="-2.38983e-07" y1="-0.0019821" x2="404.765" y2="201.376" gradientUnits="userSpaceOnUse">
<stop stop-color="#FF25C2"/>
<stop offset="1" stop-opacity="0"/>
</linearGradient>
<linearGradient id="paint1_linear_942_15235" x1="1325" y1="746.998" x2="986.149" y2="619.869" gradientUnits="userSpaceOnUse">
<stop stop-color="#FF25C2"/>
<stop offset="1" stop-opacity="0"/>
</linearGradient>
<linearGradient id="paint2_linear_942_15235" x1="-2.38823e-07" y1="-0.00284875" x2="450.921" y2="156.09" gradientUnits="userSpaceOnUse">
<stop stop-color="#FF25C2"/>
<stop offset="1" stop-opacity="0"/>
</linearGradient>
<linearGradient id="paint3_linear_942_15235" x1="1325" y1="1073.61" x2="963.113" y2="979.145" gradientUnits="userSpaceOnUse">
<stop stop-color="#FF25C2"/>
<stop offset="1" stop-opacity="0"/>
</linearGradient>
<linearGradient id="paint4_linear_942_15235" x1="189" y1="-213.181" x2="189" y2="513.364" gradientUnits="userSpaceOnUse">
<stop stop-color="white"/>
<stop offset="1" stop-color="white" stop-opacity="0"/>
</linearGradient>
<linearGradient id="paint5_linear_942_15235" x1="1049" y1="-955.436" x2="1049" y2="569.818" gradientUnits="userSpaceOnUse">
<stop stop-color="white" stop-opacity="0.6"/>
<stop offset="1" stop-color="white" stop-opacity="0"/>
</linearGradient>
<clipPath id="clip0_942_15235">
<rect width="1325" height="747" fill="white"/>
</clipPath>
</defs>
</svg>
