<svg width="16" height="16" viewBox="0 0 16 16" fill="none" xmlns="http://www.w3.org/2000/svg">
<g clip-path="url(#clip0_2028_50594)">
<rect width="16" height="16" fill="black" fill-opacity="0.01"/>
<path d="M12.3579 13.0456C11.1893 14.0561 9.66587 14.6673 7.99967 14.6673C4.31777 14.6673 1.33301 11.6825 1.33301 8.00065C1.33301 4.31875 4.31777 1.33398 7.99967 1.33398C11.6815 1.33398 14.6663 4.31875 14.6663 8.00065C14.6663 9.42472 14.2198 10.7445 13.4591 11.8277L11.333 8.00065H13.333C13.333 5.05513 10.9452 2.66732 7.99967 2.66732C5.05415 2.66732 2.66634 5.05513 2.66634 8.00065C2.66634 10.9462 5.05415 13.334 7.99967 13.334C9.43314 13.334 10.7345 12.7685 11.6929 11.8484L12.3579 13.0456Z" fill="#A9A4B4"/>
</g>
<defs>
<clipPath id="clip0_2028_50594">
<rect width="16" height="16" fill="white"/>
</clipPath>
</defs>
</svg>
