<svg width="343" height="44" viewBox="0 0 343 44" fill="none" xmlns="http://www.w3.org/2000/svg">
<mask id="path-1-inside-1_2476_48997" fill="white">
<path fill-rule="evenodd" clip-rule="evenodd" d="M0 0H331L336.5 5.75L343 12V44H12L6.5 38.25L0 32V0Z"/>
</mask>
<g filter="url(#filter0_i_2476_48997)">
<path fill-rule="evenodd" clip-rule="evenodd" d="M0 0H331L336.5 5.75L343 12V44H12L6.5 38.25L0 32V0Z" fill="#C72AE9" fill-opacity="0.1"/>
</g>
<path d="M331 0L332.445 -1.38245L331.855 -2H331V0ZM0 0V-2H-2V0H0ZM336.5 5.75L335.055 7.13245L335.084 7.16267L335.114 7.19167L336.5 5.75ZM343 12H345V11.1485L344.386 10.5583L343 12ZM343 44V46H345V44H343ZM12 44L10.5547 45.3824L11.1454 46H12V44ZM6.5 38.25L7.94528 36.8676L7.91637 36.8373L7.88622 36.8083L6.5 38.25ZM0 32H-2V32.8515L-1.38622 33.4417L0 32ZM331 -2H0V2H331V-2ZM337.945 4.36755L332.445 -1.38245L329.555 1.38245L335.055 7.13245L337.945 4.36755ZM344.386 10.5583L337.886 4.30833L335.114 7.19167L341.614 13.4417L344.386 10.5583ZM345 44V12H341V44H345ZM12 46H343V42H12V46ZM5.05472 39.6324L10.5547 45.3824L13.4453 42.6176L7.94528 36.8676L5.05472 39.6324ZM-1.38622 33.4417L5.11378 39.6917L7.88622 36.8083L1.38622 30.5583L-1.38622 33.4417ZM-2 0V32H2V0H-2Z" fill="#C72AE9" mask="url(#path-1-inside-1_2476_48997)"/>
<path d="M343 8L338.667 3.83333L335 -2.22545e-07L343 4.76837e-07L343 8Z" fill="#C72AE9"/>
<path d="M0 36L4.33333 40.1667L8 44H0V36Z" fill="#C72AE9"/>
<defs>
<filter id="filter0_i_2476_48997" x="0" y="0" width="343" height="44" filterUnits="userSpaceOnUse" color-interpolation-filters="sRGB">
<feFlood flood-opacity="0" result="BackgroundImageFix"/>
<feBlend mode="normal" in="SourceGraphic" in2="BackgroundImageFix" result="shape"/>
<feColorMatrix in="SourceAlpha" type="matrix" values="0 0 0 0 0 0 0 0 0 0 0 0 0 0 0 0 0 0 127 0" result="hardAlpha"/>
<feOffset/>
<feGaussianBlur stdDeviation="5"/>
<feComposite in2="hardAlpha" operator="arithmetic" k2="-1" k3="1"/>
<feColorMatrix type="matrix" values="0 0 0 0 0.780392 0 0 0 0 0.164706 0 0 0 0 0.913725 0 0 0 1 0"/>
<feBlend mode="color-dodge" in2="shape" result="effect1_innerShadow_2476_48997"/>
</filter>
</defs>
</svg>
