<svg width="20" height="20" viewBox="0 0 20 20" fill="none" xmlns="http://www.w3.org/2000/svg">
<rect width="20" height="20" fill="black" fill-opacity="0.01"/>
<path fill-rule="evenodd" clip-rule="evenodd" d="M10 1.66602C14.6024 1.66602 18.3334 5.39705 18.3334 9.99937C18.3334 14.6017 14.6024 18.3327 10 18.3327C5.39772 18.3327 1.66669 14.6017 1.66669 9.99937C1.66669 5.39705 5.39772 1.66602 10 1.66602ZM6.63541 7.66677C6.63541 7.20509 6.79585 6.74776 7.04668 6.25918C7.66938 5.04645 8.86306 4.37406 10.0582 4.38756C11.7391 4.40689 13.3644 5.69664 13.3644 7.43061C13.3644 7.84523 13.2862 8.30561 13.1323 8.61759C12.9784 8.9296 12.7946 9.19933 12.5808 9.42384C12.3694 9.65098 11.9879 10.0327 11.4363 10.5694C11.2824 10.7191 11.1604 10.8515 11.0686 10.9663C10.9769 11.0811 10.9077 11.1859 10.8641 11.2809C10.8181 11.3757 10.7826 11.4703 10.7583 11.5653C10.7344 11.6598 10.7271 12.0536 10.7341 12.3348C10.7509 13.0075 9.22186 13.0796 9.0633 12.4791C9.01491 12.2982 9.01884 12.0622 9.01884 11.8398C9.01884 11.4307 9.07609 11.0763 9.19351 10.7768C9.3105 10.4773 9.46439 10.2151 9.65754 9.988C9.85053 9.76086 10.1125 9.49142 10.4388 9.17944C10.7262 8.90725 10.9354 8.70031 11.0616 8.56299C11.1902 8.42319 11.2984 8.26814 11.3856 8.09871C11.473 7.92912 11.5165 7.74194 11.5165 7.54212C11.5165 6.05432 8.97642 4.9551 8.42303 7.68018C8.15317 9.01046 6.63527 8.63479 6.63527 7.66695L6.63541 7.66677ZM9.91953 15.6114C9.64603 15.6114 9.40699 15.5143 9.20238 15.3217C8.99791 15.1296 8.89691 14.9272 8.89691 14.58C8.89691 14.2732 9.00736 14.0993 9.205 13.8895C9.40234 13.6798 9.64387 13.5752 9.93104 13.5752C10.2135 13.5752 10.4526 13.6798 10.6456 13.8895C10.8386 14.0992 10.9237 14.2732 10.9237 14.58C10.9237 14.9219 10.8227 15.1248 10.6206 15.3192C10.4183 15.514 10.1859 15.6112 9.91955 15.6112L9.91953 15.6114Z" fill="#79BCC6"/>
<rect width="20" height="20" fill="black" fill-opacity="0.01"/>
</svg>
