<svg width="36" height="36" viewBox="0 0 36 36" fill="none" xmlns="http://www.w3.org/2000/svg">
<path fill-rule="evenodd" clip-rule="evenodd" d="M32 18C32 25.732 25.732 32 18 32C16.1372 32 14.3593 31.6362 12.7336 30.9757C11.8855 30.6312 10.8952 30.7608 10.2479 31.4081V31.4081C9.30964 32.3463 9.48679 33.9192 10.6994 34.4579C12.9307 35.4492 15.401 36 18 36C27.9411 36 36 27.9411 36 18C36 15.401 35.4492 12.9307 34.4579 10.6994C33.9192 9.48679 32.3463 9.30964 31.4081 10.2479V10.2479C30.7608 10.8952 30.6312 11.8855 30.9757 12.7336C31.6362 14.3593 32 16.1372 32 18ZM5.39951 30.8541L5.1459 30.6005C5.2296 30.6859 5.31414 30.7704 5.39951 30.8541ZM1.54149 25.2993C2.08012 26.512 3.65308 26.6892 4.59138 25.7509V25.7509C5.23862 25.1037 5.36832 24.1134 5.02387 23.2653C4.36367 21.6399 4 19.8624 4 18C4 10.268 10.268 4 18 4C19.8624 4 21.6399 4.36367 23.2653 5.02387C24.1134 5.36832 25.1037 5.23862 25.7509 4.59138V4.59138C26.6892 3.65308 26.512 2.08012 25.2993 1.54149C23.0683 0.550598 20.5985 0 18 0C8.05887 0 0 8.05887 0 18C0 20.5985 0.550598 23.0683 1.54149 25.2993Z" fill="#C72AE9"/>
<path fill-rule="evenodd" clip-rule="evenodd" d="M17.5506 5.08615C17.2647 4.01922 17.8979 2.92254 18.9648 2.63666L23.7944 1.34256C24.8614 1.05668 25.958 1.68984 26.2439 2.75678C26.5298 3.82371 25.8966 4.92038 24.8297 5.20627L20.0001 6.50036C18.9332 6.78625 17.8365 6.15308 17.5506 5.08615Z" fill="#C72AE9"/>
<path fill-rule="evenodd" clip-rule="evenodd" d="M9.75604 33.2444C9.47016 32.1774 10.1033 31.0807 11.1703 30.7949L15.9999 29.5008C17.0668 29.2149 18.1635 29.848 18.4494 30.915C18.7353 31.9819 18.1021 33.0786 17.0352 33.3645L12.2055 34.6586C11.1386 34.9444 10.0419 34.3113 9.75604 33.2444Z" fill="#C72AE9"/>
<path d="M33.3333 4.33464H33.6667C33.8508 4.33464 34 4.48387 34 4.66797V8.0013C34 8.1854 33.8508 8.33464 33.6667 8.33464H28.3333C28.1492 8.33464 28 8.1854 28 8.0013V4.66797C28 4.48387 28.1492 4.33464 28.3333 4.33464H28.6667V4.0013C28.6667 2.71264 29.7113 1.66797 31 1.66797C32.2887 1.66797 33.3333 2.71264 33.3333 4.0013V4.33464ZM32.6667 4.33464V4.0013C32.6667 3.08083 31.9205 2.33464 31 2.33464C30.0795 2.33464 29.3333 3.08083 29.3333 4.0013V4.33464H32.6667ZM30.6667 5.66797V7.0013H31.3333V5.66797H30.6667Z" fill="#11CDE9"/>
</svg>
