<svg width="343" height="347" viewBox="0 0 343 347" fill="none" xmlns="http://www.w3.org/2000/svg">
<path d="M97.3 0H238V2.19995H97.3V0Z" fill="#FAD54D"/>
<path d="M0 89.5H2.20001V128.5L8.5 138.1V163.1L2.20001 173.6V192H0V89.5Z" fill="#FAD54D"/>
<path fill-rule="evenodd" clip-rule="evenodd" d="M64 0L68.6 4.6001H21.6L4.59998 21.7V53.5L0 58.1001V0H64ZM4.5 15.1001V18.5L18.5 4.6001H15.1L4.5 15.1001Z" fill="#FAD54D"/>
<path d="M67.9 0L72.5 4.6001H79.6L75.1 0H67.9Z" fill="#FAD54D"/>
<path d="M0 63.5L4.5 58.8999V66L0 70.5999V63.5Z" fill="#FAD54D"/>
<path d="M0 82.3L4.5 77.7002V70.6001L0 75.2002V82.3Z" fill="#FAD54D"/>
<path d="M84.2 4.6001L79.6 0H86.8L91.3 4.6001H84.2Z" fill="#FAD54D"/>
<path d="M0.0999756 260.1H2.29999V251.4L6.29999 257.2V289.6H10.3V256L2.29999 244.4V208.4H0.0999756V260.1Z" fill="#FAD54D"/>
<path d="M30.9 340.7H63.5L71.1 347H0V289.6L6.29999 297.2V315.6L8.59998 318.4V331.3L12.6 334.5V323.2L14.9 326.1V335.3L19.3 338.7H29.3L30.9 340.7Z" fill="#FAD54D"/>
<path d="M279.5 6.30005H312.1L313.7 8.30005H323.7L328.1 11.7002V20.9001L330.4 23.8V12.5L334.4 15.7002V28.6001L336.7 31.4001V49.8L343 57.4001V0H271.9L279.5 6.30005Z" fill="#FAD54D"/>
<path d="M340.7 86.9001H342.9V161.2H340.7V102.6L332.7 91V57.4001H336.7V89.8L340.7 95.6001V86.9001Z" fill="#FAD54D"/>
<path d="M340.8 257.5H343V177.6H340.8V186L334.5 196.5V221.5L340.8 231.1V257.5Z" fill="#FAD54D"/>
<path d="M245.7 347H105V344.8H245.7V347Z" fill="#FAD54D"/>
<path fill-rule="evenodd" clip-rule="evenodd" d="M274.4 342.4L279 347H343V288.9L338.4 293.5V325.3L321.4 342.4H274.4ZM338.5 328.5V331.9L327.9 342.4H324.5L338.5 328.5Z" fill="#FAD54D"/>
<path d="M338.5 288.1L343 283.5V276.4L338.5 281V288.1Z" fill="#FAD54D"/>
<path d="M343 264.7L338.5 269.3V276.4L343 271.8V264.7Z" fill="#FAD54D"/>
<path d="M250 347L254.6 342.4H261.7L257.2 347H250Z" fill="#FAD54D"/>
<path d="M265.4 342.4L260.9 347H268L272.6 342.4H265.4Z" fill="#FAD54D"/>
</svg>
