<svg width="36" height="36" viewBox="0 0 36 36" fill="none" xmlns="http://www.w3.org/2000/svg">
<path fill-rule="evenodd" clip-rule="evenodd" d="M4 18C4 25.732 10.268 32 18 32C25.732 32 32 25.732 32 18C32 10.268 25.732 4 18 4C16.1376 4 14.3601 4.36367 12.7347 5.02387C11.8866 5.36832 10.8963 5.23862 10.2491 4.59138V4.59138C9.3108 3.65309 9.48802 2.08012 10.7007 1.54149C12.9317 0.550598 15.4015 0 18 0C27.9411 0 36 8.05887 36 18C36 27.9411 27.9411 36 18 36C8.05887 36 0 27.9411 0 18C0 15.401 0.550819 12.9307 1.54208 10.6994C2.08079 9.48679 3.65365 9.30964 4.5919 10.2479V10.2479C5.23918 10.8952 5.36884 11.8855 5.0243 12.7336C4.36383 14.3593 4 16.1372 4 18Z" fill="#8590A2"/>
<path fill-rule="evenodd" clip-rule="evenodd" d="M18.4494 5.08615C18.7353 4.01922 18.1021 2.92254 17.0352 2.63666L12.2056 1.34256C11.1386 1.05668 10.042 1.68984 9.75607 2.75678C9.47019 3.82371 10.1034 4.92038 11.1703 5.20627L15.9999 6.50036C17.0668 6.78625 18.1635 6.15308 18.4494 5.08615Z" fill="#8590A2"/>
<path d="M20.0964 23H22.4032L18.8883 12.8182H16.1142L12.6042 23H14.911L17.4615 15.1449H17.541L20.0964 23ZM20.2406 18.9979H14.7917V20.6783H20.2406V18.9979Z" fill="#8590A2"/>
</svg>
