<svg width="1520" height="1224" viewBox="0 0 1520 1224" fill="none" xmlns="http://www.w3.org/2000/svg">
<path d="M97.2936 0H287.981V2.19966H97.2936V0Z" fill="#FAD54D"/>
<path d="M0 89.4881H2.19987V478.867L8.49944 488.466V513.462L2.19987 523.961V562.356H0V89.4881Z" fill="#FAD54D"/>
<path d="M2.19987 577.454H0V664.842H2.19987V577.454Z" fill="#FAD54D"/>
<path fill-rule="evenodd" clip-rule="evenodd" d="M63.9958 0L68.5955 4.59949H21.5986L4.59967 21.6971V53.4929L0 58.0924V0H63.9958ZM4.4997 15.0981V18.4975L18.4988 4.59949H15.099L4.4997 15.0981Z" fill="#FAD54D"/>
<path d="M67.8956 0L72.4952 4.59949H79.5948L75.0951 0H67.8956Z" fill="#FAD54D"/>
<path d="M0 63.4916L4.4997 58.8921V65.9912L0 70.5905V63.4916Z" fill="#FAD54D"/>
<path d="M0 82.2891L4.4997 77.6899V70.5907L0 75.1902V82.2891Z" fill="#FAD54D"/>
<path d="M84.1944 4.59949L79.5947 0H86.7943L91.294 4.59949H84.1944Z" fill="#FAD54D"/>
<path d="M0.099969 1136.91H2.29984V1128.21L6.29957 1134.01V1166.41H10.2993V1132.81L2.29984 1121.21V687.239H0.099969V1136.91Z" fill="#FAD54D"/>
<path d="M30.898 1217.5H63.4958L71.0953 1223.8H0V1166.41L6.29957 1174.01V1192.4L8.59941 1195.2V1208.1L12.5991 1211.3V1200L14.899 1202.9V1212.1L19.2987 1215.5H29.2981L30.898 1217.5Z" fill="#FAD54D"/>
<path d="M1489 6.29897H1456.4L1448.8 0H1519.9V57.3923L1513.6 49.7932V31.3957L1511.3 28.5963V15.6976L1507.3 12.4983V23.7966L1505 20.8971V11.6982L1500.6 8.2987H1490.6L1489 6.29897Z" fill="#FAD54D"/>
<path d="M1517.6 86.8884H1519.8V525.561H1517.6V102.586L1509.6 90.9879V57.3923H1513.6V89.7884L1517.6 95.5874V86.8884Z" fill="#FAD54D"/>
<path d="M1517.8 546.558H1520V633.946H1517.8V546.558Z" fill="#FAD54D"/>
<path d="M1519.9 1134.51H1517.7V734.733L1511.3 725.134V701.537L1517.7 691.138V660.543H1519.9V1134.51Z" fill="#FAD54D"/>
<path d="M1231.82 1221.8H1422.51V1224H1231.82V1221.8Z" fill="#FAD54D"/>
<path d="M1498.2 1219.4H1458L1453.4 1223.9H1519.9V1165.81L1515.3 1170.41V1202.3L1498.2 1219.4Z" fill="#FAD54D"/>
<path d="M1430.71 1224L1435.31 1219.4H1442.4L1437.91 1224H1430.71Z" fill="#FAD54D"/>
<path d="M1515.3 1165.11V1157.91L1519.9 1153.41V1160.51L1515.3 1165.11Z" fill="#FAD54D"/>
<path d="M1519.9 1148.81V1141.71L1515.3 1146.21V1153.41L1519.9 1148.81Z" fill="#FAD54D"/>
<path d="M1446.1 1219.4L1441.6 1224H1448.7L1453.3 1219.4H1446.1Z" fill="#FAD54D"/>
</svg>
