<svg width="343" height="1184" viewBox="0 0 343 1184" fill="none" xmlns="http://www.w3.org/2000/svg">
<path d="M97.3 0H228V2.19995H97.3V0Z" fill="#FAD54D"/>
<path d="M0 89.5H2.20001V494.9L8.5 504.5V529.5L2.20001 540V578.4H0V89.5Z" fill="#FAD54D"/>
<path d="M2.20001 593.2H0V630.6H2.20001V593.2Z" fill="#FAD54D"/>
<path fill-rule="evenodd" clip-rule="evenodd" d="M64 0L68.6 4.6001H21.6L4.59998 21.7V53.5L0 58.1001V0H64ZM4.5 15.1001V18.5L18.5 4.6001H15.1L4.5 15.1001Z" fill="#FAD54D"/>
<path d="M67.9 0L72.5 4.6001H79.6L75.1 0H67.9Z" fill="#FAD54D"/>
<path d="M0 63.5L4.5 58.8999V66L0 70.5999V63.5Z" fill="#FAD54D"/>
<path d="M0 82.3L4.5 77.7002V70.6001L0 75.2002V82.3Z" fill="#FAD54D"/>
<path d="M84.2 4.6001L79.6 0H86.8L91.3 4.6001H84.2Z" fill="#FAD54D"/>
<path d="M0.0999756 1097.1H2.29999V1088.4L6.29999 1094.2V1126.6H10.3V1093L2.29999 1081.4V644.4H0.0999756V1097.1Z" fill="#FAD54D"/>
<path d="M30.9 1177.7H63.5L71.1 1184H0V1126.6L6.29999 1134.2V1152.6L8.59998 1155.4V1168.3L12.6 1171.5V1160.2L14.9 1163.1V1172.3L19.3 1175.7H29.3L30.9 1177.7Z" fill="#FAD54D"/>
<path d="M279.5 6.302H312.1L313.7 8.302H323.7L328.1 11.7021V20.9021L330.4 23.802V12.502L334.4 15.7021V28.6021L336.7 31.4021V49.802L343 57.4021V0.00195312H271.9L279.5 6.302Z" fill="#FAD54D"/>
<path d="M340.7 86.9021H342.9V547.602H340.7V102.602L332.7 91.002V57.4021H336.7V89.802L340.7 95.6021V86.9021Z" fill="#FAD54D"/>
<path d="M340.8 598.802H343V561.402H340.8V598.802Z" fill="#FAD54D"/>
<path d="M340.8 1094.5H343V613.602H340.8V652.002L334.5 662.502V687.502L340.8 697.102V1094.5Z" fill="#FAD54D"/>
<path d="M245.7 1184H115V1181.8H245.7V1184Z" fill="#FAD54D"/>
<path fill-rule="evenodd" clip-rule="evenodd" d="M274.4 1179.4L279 1184H343V1125.9L338.4 1130.5V1162.3L321.4 1179.4H274.4ZM338.5 1165.5V1168.9L327.9 1179.4H324.5L338.5 1165.5Z" fill="#FAD54D"/>
<path d="M338.5 1125.1L343 1120.5V1113.4L338.5 1118V1125.1Z" fill="#FAD54D"/>
<path d="M343 1101.7L338.5 1106.3V1113.4L343 1108.8V1101.7Z" fill="#FAD54D"/>
<path d="M250 1184L254.6 1179.4H261.7L257.2 1184H250Z" fill="#FAD54D"/>
<path d="M265.4 1179.4L260.9 1184H268L272.6 1179.4H265.4Z" fill="#FAD54D"/>
</svg>
