<svg width="510" height="572" viewBox="0 0 510 572" fill="none" xmlns="http://www.w3.org/2000/svg">
<path d="M97.3 0H288V2.19995H97.3V0Z" fill="#FAD54D"/>
<path d="M0 89.5H2.20001V190.9L8.5 200.5V225.5L2.20001 236V274.4H0V89.5Z" fill="#FAD54D"/>
<path d="M2.20001 289.2H0V326.6H2.20001V289.2Z" fill="#FAD54D"/>
<path fill-rule="evenodd" clip-rule="evenodd" d="M64 0L68.6 4.6001H21.6L4.59998 21.7V53.5L0 58.1001V0H64ZM4.5 15.1001V18.5L18.5 4.6001H15.1L4.5 15.1001Z" fill="#FAD54D"/>
<path d="M67.9 0L72.5 4.6001H79.6L75.1 0H67.9Z" fill="#FAD54D"/>
<path d="M0 63.5L4.5 58.8999V66L0 70.5999V63.5Z" fill="#FAD54D"/>
<path d="M0 82.3L4.5 77.7002V70.6001L0 75.2002V82.3Z" fill="#FAD54D"/>
<path d="M84.2 4.6001L79.6 0H86.8L91.3 4.6001H84.2Z" fill="#FAD54D"/>
<path d="M0.0999756 485.1H2.29999V476.4L6.29999 482.2V514.6H10.3V481L2.29999 469.4V340.4H0.0999756V485.1Z" fill="#FAD54D"/>
<path d="M30.9 565.7H63.5L71.1 572H0V514.6L6.29999 522.2V540.6L8.59998 543.4V556.3L12.6 559.5V548.2L14.9 551.1V560.3L19.3 563.7H29.3L30.9 565.7Z" fill="#FAD54D"/>
<path d="M446.5 6.30005H479.1L480.7 8.30005H490.7L495.1 11.7002V20.9001L497.4 23.8V12.5L501.4 15.7002V28.6001L503.7 31.4001V49.8L510 57.4001V0H438.9L446.5 6.30005Z" fill="#FAD54D"/>
<path d="M507.7 86.9001H509.9V243.6H507.7V102.6L499.7 91V57.4001H503.7V89.8L507.7 95.6001V86.9001Z" fill="#FAD54D"/>
<path d="M507.8 294.8H510V257.4H507.8V294.8Z" fill="#FAD54D"/>
<path d="M507.8 482.5H510V309.6H507.8V348L501.5 358.5V383.5L507.8 393.1V482.5Z" fill="#FAD54D"/>
<path d="M412.7 572H222V569.8H412.7V572Z" fill="#FAD54D"/>
<path fill-rule="evenodd" clip-rule="evenodd" d="M441.4 567.4L446 572H510V513.9L505.4 518.5V550.3L488.4 567.4H441.4ZM505.5 553.5V556.9L494.9 567.4H491.5L505.5 553.5Z" fill="#FAD54D"/>
<path d="M505.5 513.1L510 508.5V501.4L505.5 506V513.1Z" fill="#FAD54D"/>
<path d="M510 489.7L505.5 494.3V501.4L510 496.8V489.7Z" fill="#FAD54D"/>
<path d="M417 572L421.6 567.4H428.7L424.2 572H417Z" fill="#FAD54D"/>
<path d="M432.4 567.4L427.9 572H435L439.6 567.4H432.4Z" fill="#FAD54D"/>
</svg>
