<svg width="343" height="428" viewBox="0 0 343 428" fill="none" xmlns="http://www.w3.org/2000/svg">
<path d="M97.3 0H228V2.19995H97.3V0Z" fill="#FAD54D"/>
<path d="M0 89.5H2.20001V109.9L8.5 119.5V144.5L2.20001 155V193.4H0V89.5Z" fill="#FAD54D"/>
<path d="M2.20001 208.2H0V245.6H2.20001V208.2Z" fill="#FAD54D"/>
<path fill-rule="evenodd" clip-rule="evenodd" d="M64 0L68.6 4.6001H21.6L4.59998 21.7V53.5L0 58.1001V0H64ZM4.5 15.1001V18.5L18.5 4.6001H15.1L4.5 15.1001Z" fill="#FAD54D"/>
<path d="M67.9 0L72.5 4.6001H79.6L75.1 0H67.9Z" fill="#FAD54D"/>
<path d="M0 63.5L4.5 58.8999V66L0 70.5999V63.5Z" fill="#FAD54D"/>
<path d="M0 82.3L4.5 77.7002V70.6001L0 75.2002V82.3Z" fill="#FAD54D"/>
<path d="M84.2 4.6001L79.6 0H86.8L91.3 4.6001H84.2Z" fill="#FAD54D"/>
<path d="M0.0999756 341.1H2.29999V332.4L6.29999 338.2V370.6H10.3V337L2.29999 325.4V259.4H0.0999756V341.1Z" fill="#FAD54D"/>
<path d="M30.9 421.7H63.5L71.1 428H0V370.6L6.29999 378.2V396.6L8.59998 399.4V412.3L12.6 415.5V404.2L14.9 407.1V416.3L19.3 419.7H29.3L30.9 421.7Z" fill="#FAD54D"/>
<path d="M279.5 6.302H312.1L313.7 8.302H323.7L328.1 11.7021V20.9021L330.4 23.802V12.502L334.4 15.7021V28.6021L336.7 31.4021V49.802L343 57.4021V0.00195312H271.9L279.5 6.302Z" fill="#FAD54D"/>
<path d="M340.7 86.9021H342.9V162.602H340.7V102.602L332.7 91.002V57.4021H336.7V89.802L340.7 95.6021V86.9021Z" fill="#FAD54D"/>
<path d="M340.8 213.802H343V176.402H340.8V213.802Z" fill="#FAD54D"/>
<path d="M340.8 338.502H343V228.602H340.8V259.002L334.5 269.502V294.502L340.8 304.102V338.502Z" fill="#FAD54D"/>
<path d="M245.7 428.002H115V425.802H245.7V428.002Z" fill="#FAD54D"/>
<path fill-rule="evenodd" clip-rule="evenodd" d="M274.4 423.402L279 428.002H343V369.902L338.4 374.502V406.302L321.4 423.402H274.4ZM338.5 409.502V412.902L327.9 423.402H324.5L338.5 409.502Z" fill="#FAD54D"/>
<path d="M338.5 369.102L343 364.502V357.402L338.5 362.002V369.102Z" fill="#FAD54D"/>
<path d="M343 345.702L338.5 350.302V357.402L343 352.802V345.702Z" fill="#FAD54D"/>
<path d="M250 428.002L254.6 423.402H261.7L257.2 428.002H250Z" fill="#FAD54D"/>
<path d="M265.4 423.402L260.9 428.002H268L272.6 423.402H265.4Z" fill="#FAD54D"/>
</svg>
