<svg width="343" height="268" viewBox="0 0 343 268" fill="none" xmlns="http://www.w3.org/2000/svg">
<path d="M97.3 0H238V2.19995H97.3V0Z" fill="#FAD54D"/>
<path d="M0 89.5H2.20001V99.5L8.5 109.1V118.1L2.20001 128.6V139H0V89.5Z" fill="#FAD54D"/>
<path fill-rule="evenodd" clip-rule="evenodd" d="M64 0L68.6 4.6001H21.6L4.59998 21.7V53.5L0 58.1001V0H64ZM4.5 15.1001V18.5L18.5 4.6001H15.1L4.5 15.1001Z" fill="#FAD54D"/>
<path d="M67.9 0L72.5 4.6001H79.6L75.1 0H67.9Z" fill="#FAD54D"/>
<path d="M0 63.5L4.5 58.8999V66L0 70.5999V63.5Z" fill="#FAD54D"/>
<path d="M0 82.3L4.5 77.7002V70.6001L0 75.2002V82.3Z" fill="#FAD54D"/>
<path d="M84.2 4.6001L79.6 0H86.8L91.3 4.6001H84.2Z" fill="#FAD54D"/>
<path d="M0.0999756 181.1H2.29999V172.4L6.29999 178.2V210.6H10.3V177L2.29999 165.4V142.4H0.0999756V181.1Z" fill="#FAD54D"/>
<path d="M30.9 261.7H63.5L71.1 268H0V210.6L6.29999 218.2V236.6L8.59998 239.4V252.3L12.6 255.5V244.2L14.9 247.1V256.3L19.3 259.7H29.3L30.9 261.7Z" fill="#FAD54D"/>
<path d="M279.5 6.30005H312.1L313.7 8.30005H323.7L328.1 11.7002V20.9001L330.4 23.8V12.5L334.4 15.7002V28.6001L336.7 31.4001V49.8L343 57.4001V0H271.9L279.5 6.30005Z" fill="#FAD54D"/>
<path d="M340.7 86.9001H342.9V116.2H340.7V102.6L332.7 91V57.4001H336.7V89.8L340.7 95.6001V86.9001Z" fill="#FAD54D"/>
<path d="M340.8 178.5H343V122.6H340.8V131L334.5 141.5V149.5L340.8 159.1V178.5Z" fill="#FAD54D"/>
<path d="M245.7 268H105V265.8H245.7V268Z" fill="#FAD54D"/>
<path fill-rule="evenodd" clip-rule="evenodd" d="M274.4 263.4L279 268H343V209.9L338.4 214.5V246.3L321.4 263.4H274.4ZM338.5 249.5V252.9L327.9 263.4H324.5L338.5 249.5Z" fill="#FAD54D"/>
<path d="M338.5 209.1L343 204.5V197.4L338.5 202V209.1Z" fill="#FAD54D"/>
<path d="M343 185.7L338.5 190.3V197.4L343 192.8V185.7Z" fill="#FAD54D"/>
<path d="M250 268L254.6 263.4H261.7L257.2 268H250Z" fill="#FAD54D"/>
<path d="M265.4 263.4L260.9 268H268L272.6 263.4H265.4Z" fill="#FAD54D"/>
</svg>
