<svg width="510" height="309" viewBox="0 0 510 309" fill="none" xmlns="http://www.w3.org/2000/svg">
<path d="M97.3 0H288V2.19995H97.3V0Z" fill="#FAD54D"/>
<path d="M0 89.5H2.20001V99.5L8.5 109.1V134.1L2.20001 144.6V163H0V89.5Z" fill="#FAD54D"/>
<path fill-rule="evenodd" clip-rule="evenodd" d="M64 0L68.6 4.6001H21.6L4.59998 21.7V53.5L0 58.1001V0H64ZM4.5 15.1001V18.5L18.5 4.6001H15.1L4.5 15.1001Z" fill="#FAD54D"/>
<path d="M67.9 0L72.5 4.6001H79.6L75.1 0H67.9Z" fill="#FAD54D"/>
<path d="M0 63.5L4.5 58.8999V66L0 70.5999V63.5Z" fill="#FAD54D"/>
<path d="M0 82.3L4.5 77.7002V70.6001L0 75.2002V82.3Z" fill="#FAD54D"/>
<path d="M84.2 4.6001L79.6 0H86.8L91.3 4.6001H84.2Z" fill="#FAD54D"/>
<path d="M0.0999756 222.1H2.29999V213.4L6.29999 219.2V251.6H10.3V218L2.29999 206.4V177.4H0.0999756V222.1Z" fill="#FAD54D"/>
<path d="M30.9 302.7H63.5L71.1 309H0V251.6L6.29999 259.2V277.6L8.59998 280.4V293.3L12.6 296.5V285.2L14.9 288.1V297.3L19.3 300.7H29.3L30.9 302.7Z" fill="#FAD54D"/>
<path d="M446.5 6.30005H479.1L480.7 8.30005H490.7L495.1 11.7002V20.9001L497.4 23.8V12.5L501.4 15.7002V28.6001L503.7 31.4001V49.8L510 57.4001V0H438.9L446.5 6.30005Z" fill="#FAD54D"/>
<path d="M507.7 86.9001H509.9V132.2H507.7V102.6L499.7 91V57.4001H503.7V89.8L507.7 95.6001V86.9001Z" fill="#FAD54D"/>
<path d="M507.8 219.5H510V146.6H507.8V155L501.5 165.5V190.5L507.8 200.1V219.5Z" fill="#FAD54D"/>
<path d="M412.7 309H222V306.8H412.7V309Z" fill="#FAD54D"/>
<path fill-rule="evenodd" clip-rule="evenodd" d="M441.4 304.4L446 309H510V250.9L505.4 255.5V287.3L488.4 304.4H441.4ZM505.5 290.5V293.9L494.9 304.4H491.5L505.5 290.5Z" fill="#FAD54D"/>
<path d="M505.5 250.1L510 245.5V238.4L505.5 243V250.1Z" fill="#FAD54D"/>
<path d="M510 226.7L505.5 231.3V238.4L510 233.8V226.7Z" fill="#FAD54D"/>
<path d="M417 309L421.6 304.4H428.7L424.2 309H417Z" fill="#FAD54D"/>
<path d="M432.4 304.4L427.9 309H435L439.6 304.4H432.4Z" fill="#FAD54D"/>
</svg>
