<svg width="1520" height="560" viewBox="0 0 1520 560" fill="none" xmlns="http://www.w3.org/2000/svg">
<path d="M97.3 0H288V2.19995H97.3V0Z" fill="#FAD54D"/>
<path d="M0 89.5H2.20001V178.9L8.5 188.5V213.5L2.20001 224V262.4H0V89.5Z" fill="#FAD54D"/>
<path d="M2.20001 277.2H0V314.6H2.20001V277.2Z" fill="#FAD54D"/>
<path fill-rule="evenodd" clip-rule="evenodd" d="M64 0L68.6 4.6001H21.6L4.59998 21.7V53.5L0 58.1001V0H64ZM4.5 15.1001V18.5L18.5 4.6001H15.1L4.5 15.1001Z" fill="#FAD54D"/>
<path d="M67.9 0L72.5 4.6001H79.6L75.1 0H67.9Z" fill="#FAD54D"/>
<path d="M0 63.5L4.5 58.8999V66L0 70.5999V63.5Z" fill="#FAD54D"/>
<path d="M0 82.3L4.5 77.7002V70.6001L0 75.2002V82.3Z" fill="#FAD54D"/>
<path d="M84.2 4.6001L79.6 0H86.8L91.3 4.6001H84.2Z" fill="#FAD54D"/>
<path d="M0.0999756 473.1H2.29999V464.4L6.29999 470.2V502.6H10.3V469L2.29999 457.4V328.4H0.0999756V473.1Z" fill="#FAD54D"/>
<path d="M30.9 553.7H63.5L71.1 560H0V502.6L6.29999 510.2V528.6L8.59998 531.4V544.3L12.6 547.5V536.2L14.9 539.1V548.3L19.3 551.7H29.3L30.9 553.7Z" fill="#FAD54D"/>
<path d="M1456.5 6.30005H1489.1L1490.7 8.30005H1500.7L1505.1 11.7002V20.9001L1507.4 23.8V12.5L1511.4 15.7002V28.6001L1513.7 31.4001V49.8L1520 57.4001V0H1448.9L1456.5 6.30005Z" fill="#FAD54D"/>
<path d="M1517.7 86.9001H1519.9V231.6H1517.7V102.6L1509.7 91V57.4001H1513.7V89.8L1517.7 95.6001V86.9001Z" fill="#FAD54D"/>
<path d="M1517.8 282.8H1520V245.4H1517.8V282.8Z" fill="#FAD54D"/>
<path d="M1517.8 470.5H1520V297.6H1517.8V336L1511.5 346.5V371.5L1517.8 381.1V470.5Z" fill="#FAD54D"/>
<path d="M1422.7 560H1232V557.8H1422.7V560Z" fill="#FAD54D"/>
<path fill-rule="evenodd" clip-rule="evenodd" d="M1451.4 555.4L1456 560H1520V501.9L1515.4 506.5V538.3L1498.4 555.4H1451.4ZM1515.5 541.5V544.9L1504.9 555.4H1501.5L1515.5 541.5Z" fill="#FAD54D"/>
<path d="M1515.5 501.1L1520 496.5V489.4L1515.5 494V501.1Z" fill="#FAD54D"/>
<path d="M1520 477.7L1515.5 482.3V489.4L1520 484.8V477.7Z" fill="#FAD54D"/>
<path d="M1427 560L1431.6 555.4H1438.7L1434.2 560H1427Z" fill="#FAD54D"/>
<path d="M1442.4 555.4L1437.9 560H1445L1449.6 555.4H1442.4Z" fill="#FAD54D"/>
</svg>
