<svg width="1520" height="753" viewBox="0 0 1520 753" fill="none" xmlns="http://www.w3.org/2000/svg">
<path d="M97.2936 0H287.981V2.19966H97.2936V0Z" fill="#FAD54D"/>
<path d="M0 89.4881H2.19987V248.867L8.49944 258.466V283.462L2.19987 293.961V332.356H0V89.4881Z" fill="#FAD54D"/>
<path d="M2.19987 347.454H0V434.842H2.19987V347.454Z" fill="#FAD54D"/>
<path fill-rule="evenodd" clip-rule="evenodd" d="M63.9958 0L68.5955 4.59949H21.5986L4.59967 21.6971V53.4929L0 58.0924V0H63.9958ZM4.4997 15.0981V18.4975L18.4988 4.59949H15.099L4.4997 15.0981Z" fill="#FAD54D"/>
<path d="M67.8956 0L72.4952 4.59949H79.5948L75.0951 0H67.8956Z" fill="#FAD54D"/>
<path d="M0 63.4916L4.4997 58.8921V65.9912L0 70.5905V63.4916Z" fill="#FAD54D"/>
<path d="M0 82.2891L4.4997 77.6899V70.5907L0 75.1902V82.2891Z" fill="#FAD54D"/>
<path d="M84.1944 4.59949L79.5947 0H86.7943L91.294 4.59949H84.1944Z" fill="#FAD54D"/>
<path d="M0.099969 665.912H2.29984V657.213L6.29957 663.012V695.408H10.2993V661.812L2.29984 650.214V457.239H0.099969V665.912Z" fill="#FAD54D"/>
<path d="M30.898 746.501H63.4958L71.0953 752.8H0V695.408L6.29957 703.007V721.404L8.59941 724.204V737.102L12.5991 740.302V729.003L14.899 731.903V741.102L19.2987 744.501H29.2981L30.898 746.501Z" fill="#FAD54D"/>
<path d="M1489 6.29897H1456.4L1448.8 0H1519.9V57.3923L1513.6 49.7932V31.3957L1511.3 28.5963V15.6976L1507.3 12.4983V23.7966L1505 20.8971V11.6982L1500.6 8.2987H1490.6L1489 6.29897Z" fill="#FAD54D"/>
<path d="M1517.6 86.8884H1519.8V295.561H1517.6V102.586L1509.6 90.9879V57.3923H1513.6V89.7884L1517.6 95.5874V86.8884Z" fill="#FAD54D"/>
<path d="M1517.8 316.558H1520V403.946H1517.8V316.558Z" fill="#FAD54D"/>
<path d="M1519.9 663.512H1517.7V504.733L1511.3 495.134V471.537L1517.7 461.138V430.543H1519.9V663.512Z" fill="#FAD54D"/>
<path d="M1231.82 750.8H1422.51V753H1231.82V750.8Z" fill="#FAD54D"/>
<path d="M1498.2 748.401H1458L1453.4 752.9H1519.9V694.808L1515.3 699.407V731.303L1498.2 748.401Z" fill="#FAD54D"/>
<path d="M1430.71 753L1435.31 748.401H1442.4L1437.91 753H1430.71Z" fill="#FAD54D"/>
<path d="M1515.3 694.107V686.909L1519.9 682.409V689.508L1515.3 694.107Z" fill="#FAD54D"/>
<path d="M1519.9 677.81V670.711L1515.3 675.21V682.409L1519.9 677.81Z" fill="#FAD54D"/>
<path d="M1446.1 748.401L1441.6 753H1448.7L1453.3 748.401H1446.1Z" fill="#FAD54D"/>
</svg>
